G04 start of page 10 for group -3984 idx -3984 *
G04 Title: 31_front_pcb.pcb, fab *
G04 Creator: pcb 20100929 *
G04 CreationDate: Sat Sep 29 18:10:19 2012 UTC *
G04 For: bert *
G04 Format: Gerber/RS-274X *
G04 PCB-Dimensions: 196850 393701 *
G04 PCB-Coordinate-Origin: lower left *
%MOIN*%
%FSLAX25Y25*%
%LNFAB*%
%ADD19C,0.0080*%
%ADD23C,0.0100*%
%ADD24C,0.0060*%
G54D19*X99595Y29528D02*G75*G03X101195Y29528I800J0D01*G01*
G75*G03X99595Y29528I-800J0D01*G01*
Y364174D02*G75*G03X101195Y364174I800J0D01*G01*
G75*G03X99595Y364174I-800J0D01*G01*
X14200Y404951D02*G75*G03X15800Y404951I800J0D01*G01*
G75*G03X14200Y404951I-800J0D01*G01*
G54D24*X140000Y408701D02*Y402701D01*
Y408701D02*Y407951D01*
X143750Y404201D01*
Y408701D02*Y402701D01*
X145551Y407951D02*Y403451D01*
Y407951D02*X146301Y408701D01*
X147801D01*
X148551Y407951D01*
Y403451D01*
X147801Y402701D02*X148551Y403451D01*
X146301Y402701D02*X147801D01*
X145551Y403451D02*X146301Y402701D01*
X140000Y399450D02*X150353D01*
X98000Y407951D02*X98750Y408701D01*
X101000D01*
X101750Y407951D01*
Y406451D01*
X98000Y402701D02*X101750Y406451D01*
X98000Y402701D02*X101750D01*
X98000Y399450D02*X103551D01*
X45000Y403451D02*X45750Y402701D01*
X45000Y407951D02*Y403451D01*
Y407951D02*X45750Y408701D01*
X47250D01*
X48000Y407951D01*
Y403451D01*
X47250Y402701D02*X48000Y403451D01*
X45750Y402701D02*X47250D01*
X45000Y404201D02*X48000Y407201D01*
X49801Y402701D02*X50551D01*
X53103D02*X54603D01*
X53853Y408701D02*Y402701D01*
X52353Y407201D02*X53853Y408701D01*
X56404Y407951D02*X57154Y408701D01*
X59404D01*
X60154Y407951D01*
Y406451D01*
X56404Y402701D02*X60154Y406451D01*
X56404Y402701D02*X60154D01*
X64206Y408701D02*X64956Y407951D01*
X62706Y408701D02*X64206D01*
X61956Y407951D02*X62706Y408701D01*
X61956Y407951D02*Y403451D01*
X62706Y402701D01*
X64206Y405701D02*X64956Y404951D01*
X61956Y405701D02*X64206D01*
X62706Y402701D02*X64206D01*
X64956Y403451D01*
Y404951D02*Y403451D01*
X45000Y399450D02*X66757D01*
X156280Y60255D02*X158680Y57855D01*
X156280D02*X158680Y60255D01*
X13800Y421151D02*X16200Y418751D01*
X13800D02*X16200Y421151D01*
X135000Y423701D02*Y422951D01*
X136500Y421451D01*
X138000Y422951D01*
Y423701D02*Y422951D01*
X136500Y421451D02*Y417701D01*
X139801Y420701D02*X142051D01*
X139801Y417701D02*X142801D01*
X139801Y423701D02*Y417701D01*
Y423701D02*X142801D01*
X147603D02*X148353Y422951D01*
X145353Y423701D02*X147603D01*
X144603Y422951D02*X145353Y423701D01*
X144603Y422951D02*Y421451D01*
X145353Y420701D01*
X147603D01*
X148353Y419951D01*
Y418451D01*
X147603Y417701D02*X148353Y418451D01*
X145353Y417701D02*X147603D01*
X144603Y418451D02*X145353Y417701D01*
X135000Y414450D02*X150154D01*
X98750Y417701D02*X100250D01*
X99500Y423701D02*Y417701D01*
X98000Y422201D02*X99500Y423701D01*
X98000Y414450D02*X102051D01*
X45000Y418451D02*X45750Y417701D01*
X45000Y422951D02*Y418451D01*
Y422951D02*X45750Y423701D01*
X47250D01*
X48000Y422951D01*
Y418451D01*
X47250Y417701D02*X48000Y418451D01*
X45750Y417701D02*X47250D01*
X45000Y419201D02*X48000Y422201D01*
X49801Y417701D02*X50551D01*
X52353Y418451D02*X53103Y417701D01*
X52353Y422951D02*Y418451D01*
Y422951D02*X53103Y423701D01*
X54603D01*
X55353Y422951D01*
Y418451D01*
X54603Y417701D02*X55353Y418451D01*
X53103Y417701D02*X54603D01*
X52353Y419201D02*X55353Y422201D01*
X57154Y420701D02*X60154Y423701D01*
X57154Y420701D02*X60904D01*
X60154Y423701D02*Y417701D01*
X64956Y423701D02*X65706Y422951D01*
X63456Y423701D02*X64956D01*
X62706Y422951D02*X63456Y423701D01*
X62706Y422951D02*Y418451D01*
X63456Y417701D01*
X64956Y420701D02*X65706Y419951D01*
X62706Y420701D02*X64956D01*
X63456Y417701D02*X64956D01*
X65706Y418451D01*
Y419951D02*Y418451D01*
X45000Y414450D02*X67507D01*
X90552Y346088D02*Y342888D01*
X88952Y344488D02*X92152D01*
X110236Y336246D02*Y333046D01*
X108636Y334646D02*X111836D01*
X90552Y326403D02*Y323203D01*
X88952Y324803D02*X92152D01*
X110236Y316561D02*Y313361D01*
X108636Y314961D02*X111836D01*
X90552Y306718D02*Y303518D01*
X88952Y305118D02*X92152D01*
X110236Y296876D02*Y293676D01*
X108636Y295276D02*X111836D01*
X90552Y287033D02*Y283833D01*
X88952Y285433D02*X92152D01*
X110236Y277191D02*Y273991D01*
X108636Y275591D02*X111836D01*
X90552Y267348D02*Y264148D01*
X88952Y265748D02*X92152D01*
X110236Y257506D02*Y254306D01*
X108636Y255906D02*X111836D01*
X90552Y247663D02*Y244463D01*
X88952Y246063D02*X92152D01*
X110236Y237821D02*Y234621D01*
X108636Y236221D02*X111836D01*
X90552Y227978D02*Y224778D01*
X88952Y226378D02*X92152D01*
X110236Y218136D02*Y214936D01*
X108636Y216536D02*X111836D01*
X90552Y208293D02*Y205093D01*
X88952Y206693D02*X92152D01*
X110236Y198451D02*Y195251D01*
X108636Y196851D02*X111836D01*
X90552Y188608D02*Y185408D01*
X88952Y187008D02*X92152D01*
X110236Y178766D02*Y175566D01*
X108636Y177166D02*X111836D01*
X90552Y168923D02*Y165723D01*
X88952Y167323D02*X92152D01*
X110236Y159081D02*Y155881D01*
X108636Y157481D02*X111836D01*
X110236Y139396D02*Y136196D01*
X108636Y137796D02*X111836D01*
X90552Y149238D02*Y146038D01*
X88952Y147638D02*X92152D01*
X90552Y129553D02*Y126353D01*
X88952Y127953D02*X92152D01*
X110236Y119711D02*Y116511D01*
X108636Y118111D02*X111836D01*
X90552Y109868D02*Y106668D01*
X88952Y108268D02*X92152D01*
X110236Y100026D02*Y96826D01*
X108636Y98426D02*X111836D01*
X90552Y90183D02*Y86983D01*
X88952Y88583D02*X92152D01*
X110236Y80341D02*Y77141D01*
X108636Y78741D02*X111836D01*
X90552Y70498D02*Y67298D01*
X88952Y68898D02*X92152D01*
X110236Y60656D02*Y57456D01*
X108636Y59056D02*X111836D01*
X90552Y50813D02*Y47613D01*
X88952Y49213D02*X92152D01*
X15000Y436551D02*Y433351D01*
X13400Y434951D02*X16600D01*
X135000Y438701D02*Y437951D01*
X136500Y436451D01*
X138000Y437951D01*
Y438701D02*Y437951D01*
X136500Y436451D02*Y432701D01*
X139801Y435701D02*X142051D01*
X139801Y432701D02*X142801D01*
X139801Y438701D02*Y432701D01*
Y438701D02*X142801D01*
X147603D02*X148353Y437951D01*
X145353Y438701D02*X147603D01*
X144603Y437951D02*X145353Y438701D01*
X144603Y437951D02*Y436451D01*
X145353Y435701D01*
X147603D01*
X148353Y434951D01*
Y433451D01*
X147603Y432701D02*X148353Y433451D01*
X145353Y432701D02*X147603D01*
X144603Y433451D02*X145353Y432701D01*
X135000Y429450D02*X150154D01*
X98000Y437951D02*X98750Y438701D01*
X100250D01*
X101000Y437951D01*
Y433451D01*
X100250Y432701D02*X101000Y433451D01*
X98750Y432701D02*X100250D01*
X98000Y433451D02*X98750Y432701D01*
Y435701D02*X101000D01*
X103551Y432701D02*X105051D01*
X104301Y438701D02*Y432701D01*
X102801Y437201D02*X104301Y438701D01*
X98000Y429450D02*X106853D01*
X45000Y433451D02*X45750Y432701D01*
X45000Y437951D02*Y433451D01*
Y437951D02*X45750Y438701D01*
X47250D01*
X48000Y437951D01*
Y433451D01*
X47250Y432701D02*X48000Y433451D01*
X45750Y432701D02*X47250D01*
X45000Y434201D02*X48000Y437201D01*
X49801Y432701D02*X50551D01*
X52353Y433451D02*X53103Y432701D01*
X52353Y437951D02*Y433451D01*
Y437951D02*X53103Y438701D01*
X54603D01*
X55353Y437951D01*
Y433451D01*
X54603Y432701D02*X55353Y433451D01*
X53103Y432701D02*X54603D01*
X52353Y434201D02*X55353Y437201D01*
X57154Y435701D02*X60154Y438701D01*
X57154Y435701D02*X60904D01*
X60154Y438701D02*Y432701D01*
X62706Y433451D02*X63456Y432701D01*
X62706Y437951D02*Y433451D01*
Y437951D02*X63456Y438701D01*
X64956D01*
X65706Y437951D01*
Y433451D01*
X64956Y432701D02*X65706Y433451D01*
X63456Y432701D02*X64956D01*
X62706Y434201D02*X65706Y437201D01*
X45000Y429450D02*X67507D01*
X15748Y344488D02*Y342888D01*
Y344488D02*X17134Y345288D01*
X15748Y344488D02*X14362Y345288D01*
X15748Y334646D02*Y333046D01*
Y334646D02*X17134Y335446D01*
X15748Y334646D02*X14362Y335446D01*
X15748Y324803D02*Y323203D01*
Y324803D02*X17134Y325603D01*
X15748Y324803D02*X14362Y325603D01*
X15748Y314961D02*Y313361D01*
Y314961D02*X17134Y315761D01*
X15748Y314961D02*X14362Y315761D01*
X15748Y305118D02*Y303518D01*
Y305118D02*X17134Y305918D01*
X15748Y305118D02*X14362Y305918D01*
X15748Y295276D02*Y293676D01*
Y295276D02*X17134Y296076D01*
X15748Y295276D02*X14362Y296076D01*
X15748Y285433D02*Y283833D01*
Y285433D02*X17134Y286233D01*
X15748Y285433D02*X14362Y286233D01*
X15748Y275591D02*Y273991D01*
Y275591D02*X17134Y276391D01*
X15748Y275591D02*X14362Y276391D01*
X15748Y265748D02*Y264148D01*
Y265748D02*X17134Y266548D01*
X15748Y265748D02*X14362Y266548D01*
X15748Y255906D02*Y254306D01*
Y255906D02*X17134Y256706D01*
X15748Y255906D02*X14362Y256706D01*
X15748Y246063D02*Y244463D01*
Y246063D02*X17134Y246863D01*
X15748Y246063D02*X14362Y246863D01*
X15748Y236221D02*Y234621D01*
Y236221D02*X17134Y237021D01*
X15748Y236221D02*X14362Y237021D01*
X15748Y226378D02*Y224778D01*
Y226378D02*X17134Y227178D01*
X15748Y226378D02*X14362Y227178D01*
X15748Y216536D02*Y214936D01*
Y216536D02*X17134Y217336D01*
X15748Y216536D02*X14362Y217336D01*
X15748Y206693D02*Y205093D01*
Y206693D02*X17134Y207493D01*
X15748Y206693D02*X14362Y207493D01*
X15748Y196851D02*Y195251D01*
Y196851D02*X17134Y197651D01*
X15748Y196851D02*X14362Y197651D01*
X15748Y187008D02*Y185408D01*
Y187008D02*X17134Y187808D01*
X15748Y187008D02*X14362Y187808D01*
X15748Y177166D02*Y175566D01*
Y177166D02*X17134Y177966D01*
X15748Y177166D02*X14362Y177966D01*
X15748Y167323D02*Y165723D01*
Y167323D02*X17134Y168123D01*
X15748Y167323D02*X14362Y168123D01*
X15748Y157481D02*Y155881D01*
Y157481D02*X17134Y158281D01*
X15748Y157481D02*X14362Y158281D01*
X15748Y147638D02*Y146038D01*
Y147638D02*X17134Y148438D01*
X15748Y147638D02*X14362Y148438D01*
X15748Y137795D02*Y136195D01*
Y137795D02*X17134Y138595D01*
X15748Y137795D02*X14362Y138595D01*
X15748Y127953D02*Y126353D01*
Y127953D02*X17134Y128753D01*
X15748Y127953D02*X14362Y128753D01*
X15748Y118110D02*Y116510D01*
Y118110D02*X17134Y118910D01*
X15748Y118110D02*X14362Y118910D01*
X15748Y108268D02*Y106668D01*
Y108268D02*X17134Y109068D01*
X15748Y108268D02*X14362Y109068D01*
X15748Y98425D02*Y96825D01*
Y98425D02*X17134Y99225D01*
X15748Y98425D02*X14362Y99225D01*
X15748Y88583D02*Y86983D01*
Y88583D02*X17134Y89383D01*
X15748Y88583D02*X14362Y89383D01*
X15748Y78740D02*Y77140D01*
Y78740D02*X17134Y79540D01*
X15748Y78740D02*X14362Y79540D01*
X15748Y68898D02*Y67298D01*
Y68898D02*X17134Y69698D01*
X15748Y68898D02*X14362Y69698D01*
X15748Y59055D02*Y57455D01*
Y59055D02*X17134Y59855D01*
X15748Y59055D02*X14362Y59855D01*
X15748Y49213D02*Y47613D01*
Y49213D02*X17134Y50013D01*
X15748Y49213D02*X14362Y50013D01*
X15000Y449951D02*Y448351D01*
Y449951D02*X16386Y450751D01*
X15000Y449951D02*X13614Y450751D01*
X135000Y453701D02*Y452951D01*
X136500Y451451D01*
X138000Y452951D01*
Y453701D02*Y452951D01*
X136500Y451451D02*Y447701D01*
X139801Y450701D02*X142051D01*
X139801Y447701D02*X142801D01*
X139801Y453701D02*Y447701D01*
Y453701D02*X142801D01*
X147603D02*X148353Y452951D01*
X145353Y453701D02*X147603D01*
X144603Y452951D02*X145353Y453701D01*
X144603Y452951D02*Y451451D01*
X145353Y450701D01*
X147603D01*
X148353Y449951D01*
Y448451D01*
X147603Y447701D02*X148353Y448451D01*
X145353Y447701D02*X147603D01*
X144603Y448451D02*X145353Y447701D01*
X135000Y444450D02*X150154D01*
X98000Y452951D02*X98750Y453701D01*
X100250D01*
X101000Y452951D01*
Y448451D01*
X100250Y447701D02*X101000Y448451D01*
X98750Y447701D02*X100250D01*
X98000Y448451D02*X98750Y447701D01*
Y450701D02*X101000D01*
X103551Y447701D02*X105051D01*
X104301Y453701D02*Y447701D01*
X102801Y452201D02*X104301Y453701D01*
X98000Y444450D02*X106853D01*
X45000Y448451D02*X45750Y447701D01*
X45000Y452951D02*Y448451D01*
Y452951D02*X45750Y453701D01*
X47250D01*
X48000Y452951D01*
Y448451D01*
X47250Y447701D02*X48000Y448451D01*
X45750Y447701D02*X47250D01*
X45000Y449201D02*X48000Y452201D01*
X49801Y447701D02*X50551D01*
X52353Y448451D02*X53103Y447701D01*
X52353Y452951D02*Y448451D01*
Y452951D02*X53103Y453701D01*
X54603D01*
X55353Y452951D01*
Y448451D01*
X54603Y447701D02*X55353Y448451D01*
X53103Y447701D02*X54603D01*
X52353Y449201D02*X55353Y452201D01*
X57154Y452951D02*X57904Y453701D01*
X59404D01*
X60154Y452951D01*
Y448451D01*
X59404Y447701D02*X60154Y448451D01*
X57904Y447701D02*X59404D01*
X57154Y448451D02*X57904Y447701D01*
Y450701D02*X60154D01*
X61956Y453701D02*X64956D01*
X61956D02*Y450701D01*
X62706Y451451D01*
X64206D01*
X64956Y450701D01*
Y448451D01*
X64206Y447701D02*X64956Y448451D01*
X62706Y447701D02*X64206D01*
X61956Y448451D02*X62706Y447701D01*
X45000Y444450D02*X66757D01*
X3000Y468701D02*X3750Y467951D01*
X750Y468701D02*X3000D01*
X0Y467951D02*X750Y468701D01*
X0Y467951D02*Y466451D01*
X750Y465701D01*
X3000D01*
X3750Y464951D01*
Y463451D01*
X3000Y462701D02*X3750Y463451D01*
X750Y462701D02*X3000D01*
X0Y463451D02*X750Y462701D01*
X5551Y465701D02*Y463451D01*
X6301Y462701D01*
X8551Y465701D02*Y461201D01*
X7801Y460451D02*X8551Y461201D01*
X6301Y460451D02*X7801D01*
X5551Y461201D02*X6301Y460451D01*
Y462701D02*X7801D01*
X8551Y463451D01*
X11103Y464951D02*Y462701D01*
Y464951D02*X11853Y465701D01*
X12603D01*
X13353Y464951D01*
Y462701D01*
Y464951D02*X14103Y465701D01*
X14853D01*
X15603Y464951D01*
Y462701D01*
X10353Y465701D02*X11103Y464951D01*
X17404Y468701D02*Y462701D01*
Y463451D02*X18154Y462701D01*
X19654D01*
X20404Y463451D01*
Y464951D02*Y463451D01*
X19654Y465701D02*X20404Y464951D01*
X18154Y465701D02*X19654D01*
X17404Y464951D02*X18154Y465701D01*
X22206Y464951D02*Y463451D01*
Y464951D02*X22956Y465701D01*
X24456D01*
X25206Y464951D01*
Y463451D01*
X24456Y462701D02*X25206Y463451D01*
X22956Y462701D02*X24456D01*
X22206Y463451D02*X22956Y462701D01*
X27007Y468701D02*Y463451D01*
X27757Y462701D01*
X41750Y468701D02*Y462701D01*
X44000Y468701D02*X44750Y467951D01*
Y463451D01*
X44000Y462701D02*X44750Y463451D01*
X41000Y462701D02*X44000D01*
X41000Y468701D02*X44000D01*
X46551Y467201D02*Y466451D01*
Y464951D02*Y462701D01*
X50303Y465701D02*X51053Y464951D01*
X48803Y465701D02*X50303D01*
X48053Y464951D02*X48803Y465701D01*
X48053Y464951D02*Y463451D01*
X48803Y462701D01*
X51053Y465701D02*Y463451D01*
X51803Y462701D01*
X48803D02*X50303D01*
X51053Y463451D01*
X54354Y464951D02*Y462701D01*
Y464951D02*X55104Y465701D01*
X55854D01*
X56604Y464951D01*
Y462701D01*
Y464951D02*X57354Y465701D01*
X58104D01*
X58854Y464951D01*
Y462701D01*
X53604Y465701D02*X54354Y464951D01*
X60656Y462701D02*X61406D01*
X65907Y463451D02*X66657Y462701D01*
X65907Y467951D02*X66657Y468701D01*
X65907Y467951D02*Y463451D01*
X68459Y468701D02*X69959D01*
X69209D02*Y462701D01*
X68459D02*X69959D01*
X72510Y464951D02*Y462701D01*
Y464951D02*X73260Y465701D01*
X74010D01*
X74760Y464951D01*
Y462701D01*
X71760Y465701D02*X72510Y464951D01*
X77312Y465701D02*X79562D01*
X76562Y464951D02*X77312Y465701D01*
X76562Y464951D02*Y463451D01*
X77312Y462701D01*
X79562D01*
X81363Y468701D02*Y462701D01*
Y464951D02*X82113Y465701D01*
X83613D01*
X84363Y464951D01*
Y462701D01*
X86165Y468701D02*X86915Y467951D01*
Y463451D01*
X86165Y462701D02*X86915Y463451D01*
X95750Y462701D02*X98000D01*
X95000Y463451D02*X95750Y462701D01*
X95000Y467951D02*Y463451D01*
Y467951D02*X95750Y468701D01*
X98000D01*
X99801Y464951D02*Y463451D01*
Y464951D02*X100551Y465701D01*
X102051D01*
X102801Y464951D01*
Y463451D01*
X102051Y462701D02*X102801Y463451D01*
X100551Y462701D02*X102051D01*
X99801Y463451D02*X100551Y462701D01*
X104603Y465701D02*Y463451D01*
X105353Y462701D01*
X106853D01*
X107603Y463451D01*
Y465701D02*Y463451D01*
X110154Y464951D02*Y462701D01*
Y464951D02*X110904Y465701D01*
X111654D01*
X112404Y464951D01*
Y462701D01*
X109404Y465701D02*X110154Y464951D01*
X114956Y468701D02*Y463451D01*
X115706Y462701D01*
X114206Y466451D02*X115706D01*
X130750Y468701D02*Y462701D01*
X130000Y468701D02*X133000D01*
X133750Y467951D01*
Y466451D01*
X133000Y465701D02*X133750Y466451D01*
X130750Y465701D02*X133000D01*
X135551Y468701D02*Y463451D01*
X136301Y462701D01*
X140053Y465701D02*X140803Y464951D01*
X138553Y465701D02*X140053D01*
X137803Y464951D02*X138553Y465701D01*
X137803Y464951D02*Y463451D01*
X138553Y462701D01*
X140803Y465701D02*Y463451D01*
X141553Y462701D01*
X138553D02*X140053D01*
X140803Y463451D01*
X144104Y468701D02*Y463451D01*
X144854Y462701D01*
X143354Y466451D02*X144854D01*
X147106Y462701D02*X149356D01*
X146356Y463451D02*X147106Y462701D01*
X146356Y464951D02*Y463451D01*
Y464951D02*X147106Y465701D01*
X148606D01*
X149356Y464951D01*
X146356Y464201D02*X149356D01*
Y464951D02*Y464201D01*
X154157Y468701D02*Y462701D01*
X153407D02*X154157Y463451D01*
X151907Y462701D02*X153407D01*
X151157Y463451D02*X151907Y462701D01*
X151157Y464951D02*Y463451D01*
Y464951D02*X151907Y465701D01*
X153407D01*
X154157Y464951D01*
X157459Y465701D02*Y464951D01*
Y463451D02*Y462701D01*
X155959Y467951D02*Y467201D01*
Y467951D02*X156709Y468701D01*
X158209D01*
X158959Y467951D01*
Y467201D01*
X157459Y465701D02*X158959Y467201D01*
X0Y483701D02*X3000D01*
X1500D02*Y477701D01*
X4801Y483701D02*Y477701D01*
Y479951D02*X5551Y480701D01*
X7051D01*
X7801Y479951D01*
Y477701D01*
X10353D02*X12603D01*
X9603Y478451D02*X10353Y477701D01*
X9603Y479951D02*Y478451D01*
Y479951D02*X10353Y480701D01*
X11853D01*
X12603Y479951D01*
X9603Y479201D02*X12603D01*
Y479951D02*Y479201D01*
X15154Y479951D02*Y477701D01*
Y479951D02*X15904Y480701D01*
X17404D01*
X14404D02*X15154Y479951D01*
X19956Y477701D02*X22206D01*
X19206Y478451D02*X19956Y477701D01*
X19206Y479951D02*Y478451D01*
Y479951D02*X19956Y480701D01*
X21456D01*
X22206Y479951D01*
X19206Y479201D02*X22206D01*
Y479951D02*Y479201D01*
X28957Y480701D02*X29707Y479951D01*
X27457Y480701D02*X28957D01*
X26707Y479951D02*X27457Y480701D01*
X26707Y479951D02*Y478451D01*
X27457Y477701D01*
X29707Y480701D02*Y478451D01*
X30457Y477701D01*
X27457D02*X28957D01*
X29707Y478451D01*
X33009Y479951D02*Y477701D01*
Y479951D02*X33759Y480701D01*
X35259D01*
X32259D02*X33009Y479951D01*
X37810Y477701D02*X40060D01*
X37060Y478451D02*X37810Y477701D01*
X37060Y479951D02*Y478451D01*
Y479951D02*X37810Y480701D01*
X39310D01*
X40060Y479951D01*
X37060Y479201D02*X40060D01*
Y479951D02*Y479201D01*
X44562Y480701D02*X47562Y483701D01*
X44562Y480701D02*X48312D01*
X47562Y483701D02*Y477701D01*
X55813Y483701D02*Y477701D01*
X55063D02*X55813Y478451D01*
X53563Y477701D02*X55063D01*
X52813Y478451D02*X53563Y477701D01*
X52813Y479951D02*Y478451D01*
Y479951D02*X53563Y480701D01*
X55063D01*
X55813Y479951D01*
X57615Y482201D02*Y481451D01*
Y479951D02*Y477701D01*
X59866Y482951D02*Y477701D01*
Y482951D02*X60616Y483701D01*
X61366D01*
X59116Y480701D02*X60616D01*
X63618Y482951D02*Y477701D01*
Y482951D02*X64368Y483701D01*
X65118D01*
X62868Y480701D02*X64368D01*
X67369Y477701D02*X69619D01*
X66619Y478451D02*X67369Y477701D01*
X66619Y479951D02*Y478451D01*
Y479951D02*X67369Y480701D01*
X68869D01*
X69619Y479951D01*
X66619Y479201D02*X69619D01*
Y479951D02*Y479201D01*
X72171Y479951D02*Y477701D01*
Y479951D02*X72921Y480701D01*
X74421D01*
X71421D02*X72171Y479951D01*
X76972Y477701D02*X79222D01*
X76222Y478451D02*X76972Y477701D01*
X76222Y479951D02*Y478451D01*
Y479951D02*X76972Y480701D01*
X78472D01*
X79222Y479951D01*
X76222Y479201D02*X79222D01*
Y479951D02*Y479201D01*
X81774Y479951D02*Y477701D01*
Y479951D02*X82524Y480701D01*
X83274D01*
X84024Y479951D01*
Y477701D01*
X81024Y480701D02*X81774Y479951D01*
X86575Y483701D02*Y478451D01*
X87325Y477701D01*
X85825Y481451D02*X87325D01*
X94527Y483701D02*Y477701D01*
X93777D02*X94527Y478451D01*
X92277Y477701D02*X93777D01*
X91527Y478451D02*X92277Y477701D01*
X91527Y479951D02*Y478451D01*
Y479951D02*X92277Y480701D01*
X93777D01*
X94527Y479951D01*
X97078D02*Y477701D01*
Y479951D02*X97828Y480701D01*
X99328D01*
X96328D02*X97078Y479951D01*
X101130Y482201D02*Y481451D01*
Y479951D02*Y477701D01*
X102631Y483701D02*Y478451D01*
X103381Y477701D01*
X104883Y483701D02*Y478451D01*
X105633Y477701D01*
X110584D02*X112834D01*
X113584Y478451D01*
X112834Y479201D02*X113584Y478451D01*
X110584Y479201D02*X112834D01*
X109834Y479951D02*X110584Y479201D01*
X109834Y479951D02*X110584Y480701D01*
X112834D01*
X113584Y479951D01*
X109834Y478451D02*X110584Y477701D01*
X115386Y482201D02*Y481451D01*
Y479951D02*Y477701D01*
X116887Y480701D02*X119887D01*
X116887Y477701D02*X119887Y480701D01*
X116887Y477701D02*X119887D01*
X122439D02*X124689D01*
X121689Y478451D02*X122439Y477701D01*
X121689Y479951D02*Y478451D01*
Y479951D02*X122439Y480701D01*
X123939D01*
X124689Y479951D01*
X121689Y479201D02*X124689D01*
Y479951D02*Y479201D01*
X127240Y477701D02*X129490D01*
X130240Y478451D01*
X129490Y479201D02*X130240Y478451D01*
X127240Y479201D02*X129490D01*
X126490Y479951D02*X127240Y479201D01*
X126490Y479951D02*X127240Y480701D01*
X129490D01*
X130240Y479951D01*
X126490Y478451D02*X127240Y477701D01*
X134742Y480701D02*Y478451D01*
X135492Y477701D01*
X136992D01*
X137742Y478451D01*
Y480701D02*Y478451D01*
X140293Y477701D02*X142543D01*
X143293Y478451D01*
X142543Y479201D02*X143293Y478451D01*
X140293Y479201D02*X142543D01*
X139543Y479951D02*X140293Y479201D01*
X139543Y479951D02*X140293Y480701D01*
X142543D01*
X143293Y479951D01*
X139543Y478451D02*X140293Y477701D01*
X145845D02*X148095D01*
X145095Y478451D02*X145845Y477701D01*
X145095Y479951D02*Y478451D01*
Y479951D02*X145845Y480701D01*
X147345D01*
X148095Y479951D01*
X145095Y479201D02*X148095D01*
Y479951D02*Y479201D01*
X152896Y483701D02*Y477701D01*
X152146D02*X152896Y478451D01*
X150646Y477701D02*X152146D01*
X149896Y478451D02*X150646Y477701D01*
X149896Y479951D02*Y478451D01*
Y479951D02*X150646Y480701D01*
X152146D01*
X152896Y479951D01*
X157398Y482201D02*Y481451D01*
Y479951D02*Y477701D01*
X159649Y479951D02*Y477701D01*
Y479951D02*X160399Y480701D01*
X161149D01*
X161899Y479951D01*
Y477701D01*
X158899Y480701D02*X159649Y479951D01*
X167151Y483701D02*Y478451D01*
X167901Y477701D01*
X166401Y481451D02*X167901D01*
X169402Y483701D02*Y477701D01*
Y479951D02*X170152Y480701D01*
X171652D01*
X172402Y479951D01*
Y477701D01*
X174204Y482201D02*Y481451D01*
Y479951D02*Y477701D01*
X176455D02*X178705D01*
X179455Y478451D01*
X178705Y479201D02*X179455Y478451D01*
X176455Y479201D02*X178705D01*
X175705Y479951D02*X176455Y479201D01*
X175705Y479951D02*X176455Y480701D01*
X178705D01*
X179455Y479951D01*
X175705Y478451D02*X176455Y477701D01*
X183957Y483701D02*Y478451D01*
X184707Y477701D01*
X188458Y480701D02*X189208Y479951D01*
X186958Y480701D02*X188458D01*
X186208Y479951D02*X186958Y480701D01*
X186208Y479951D02*Y478451D01*
X186958Y477701D01*
X189208Y480701D02*Y478451D01*
X189958Y477701D01*
X186958D02*X188458D01*
X189208Y478451D01*
X191760Y480701D02*Y478451D01*
X192510Y477701D01*
X194760Y480701D02*Y476201D01*
X194010Y475451D02*X194760Y476201D01*
X192510Y475451D02*X194010D01*
X191760Y476201D02*X192510Y475451D01*
Y477701D02*X194010D01*
X194760Y478451D01*
X196561Y479951D02*Y478451D01*
Y479951D02*X197311Y480701D01*
X198811D01*
X199561Y479951D01*
Y478451D01*
X198811Y477701D02*X199561Y478451D01*
X197311Y477701D02*X198811D01*
X196561Y478451D02*X197311Y477701D01*
X201363Y480701D02*Y478451D01*
X202113Y477701D01*
X203613D01*
X204363Y478451D01*
Y480701D02*Y478451D01*
X206914Y483701D02*Y478451D01*
X207664Y477701D01*
X206164Y481451D02*X207664D01*
X209166Y476201D02*X210666Y477701D01*
X217417Y483701D02*X218167Y482951D01*
X215917Y483701D02*X217417D01*
X215167Y482951D02*X215917Y483701D01*
X215167Y482951D02*Y478451D01*
X215917Y477701D01*
X217417Y480701D02*X218167Y479951D01*
X215167Y480701D02*X217417D01*
X215917Y477701D02*X217417D01*
X218167Y478451D01*
Y479951D02*Y478451D01*
X219969Y483701D02*X222969D01*
X219969D02*Y480701D01*
X220719Y481451D01*
X222219D01*
X222969Y480701D01*
Y478451D01*
X222219Y477701D02*X222969Y478451D01*
X220719Y477701D02*X222219D01*
X219969Y478451D02*X220719Y477701D01*
X227470Y483701D02*Y477701D01*
Y479951D02*X228220Y480701D01*
X229720D01*
X230470Y479951D01*
Y477701D01*
X232272Y479951D02*Y478451D01*
Y479951D02*X233022Y480701D01*
X234522D01*
X235272Y479951D01*
Y478451D01*
X234522Y477701D02*X235272Y478451D01*
X233022Y477701D02*X234522D01*
X232272Y478451D02*X233022Y477701D01*
X237073Y483701D02*Y478451D01*
X237823Y477701D01*
X240075D02*X242325D01*
X239325Y478451D02*X240075Y477701D01*
X239325Y479951D02*Y478451D01*
Y479951D02*X240075Y480701D01*
X241575D01*
X242325Y479951D01*
X239325Y479201D02*X242325D01*
Y479951D02*Y479201D01*
X244876Y477701D02*X247126D01*
X247876Y478451D01*
X247126Y479201D02*X247876Y478451D01*
X244876Y479201D02*X247126D01*
X244126Y479951D02*X244876Y479201D01*
X244126Y479951D02*X244876Y480701D01*
X247126D01*
X247876Y479951D01*
X244126Y478451D02*X244876Y477701D01*
X253128Y483701D02*Y478451D01*
X253878Y477701D01*
X252378Y481451D02*X253878D01*
X255379Y479951D02*Y478451D01*
Y479951D02*X256129Y480701D01*
X257629D01*
X258379Y479951D01*
Y478451D01*
X257629Y477701D02*X258379Y478451D01*
X256129Y477701D02*X257629D01*
X255379Y478451D02*X256129Y477701D01*
X260931Y483701D02*Y478451D01*
X261681Y477701D01*
X260181Y481451D02*X261681D01*
X265432Y480701D02*X266182Y479951D01*
X263932Y480701D02*X265432D01*
X263182Y479951D02*X263932Y480701D01*
X263182Y479951D02*Y478451D01*
X263932Y477701D01*
X266182Y480701D02*Y478451D01*
X266932Y477701D01*
X263932D02*X265432D01*
X266182Y478451D01*
X268734Y483701D02*Y478451D01*
X269484Y477701D01*
G54D23*X175197Y383858D02*Y9843D01*
Y9842D02*X9843D01*
Y383858D01*
X175197D01*
G54D24*X12073Y-8000D02*X15073D01*
X15823Y-7250D01*
Y-5750D02*Y-7250D01*
X15073Y-5000D02*X15823Y-5750D01*
X12823Y-5000D02*X15073D01*
X12823Y-2000D02*Y-8000D01*
X12073Y-2000D02*X15073D01*
X15823Y-2750D01*
Y-4250D01*
X15073Y-5000D02*X15823Y-4250D01*
X17624Y-5750D02*Y-7250D01*
Y-5750D02*X18374Y-5000D01*
X19874D01*
X20624Y-5750D01*
Y-7250D01*
X19874Y-8000D02*X20624Y-7250D01*
X18374Y-8000D02*X19874D01*
X17624Y-7250D02*X18374Y-8000D01*
X24676Y-5000D02*X25426Y-5750D01*
X23176Y-5000D02*X24676D01*
X22426Y-5750D02*X23176Y-5000D01*
X22426Y-5750D02*Y-7250D01*
X23176Y-8000D01*
X25426Y-5000D02*Y-7250D01*
X26176Y-8000D01*
X23176D02*X24676D01*
X25426Y-7250D01*
X28727Y-5750D02*Y-8000D01*
Y-5750D02*X29477Y-5000D01*
X30977D01*
X27977D02*X28727Y-5750D01*
X35779Y-2000D02*Y-8000D01*
X35029D02*X35779Y-7250D01*
X33529Y-8000D02*X35029D01*
X32779Y-7250D02*X33529Y-8000D01*
X32779Y-5750D02*Y-7250D01*
Y-5750D02*X33529Y-5000D01*
X35029D01*
X35779Y-5750D01*
X40280D02*Y-7250D01*
Y-5750D02*X41030Y-5000D01*
X42530D01*
X43280Y-5750D01*
Y-7250D01*
X42530Y-8000D02*X43280Y-7250D01*
X41030Y-8000D02*X42530D01*
X40280Y-7250D02*X41030Y-8000D01*
X45082Y-5000D02*Y-7250D01*
X45832Y-8000D01*
X47332D01*
X48082Y-7250D01*
Y-5000D02*Y-7250D01*
X50633Y-2000D02*Y-7250D01*
X51383Y-8000D01*
X49883Y-4250D02*X51383D01*
X52885Y-2000D02*Y-7250D01*
X53635Y-8000D01*
X55136Y-3500D02*Y-4250D01*
Y-5750D02*Y-8000D01*
X57388Y-5750D02*Y-8000D01*
Y-5750D02*X58138Y-5000D01*
X58888D01*
X59638Y-5750D01*
Y-8000D01*
X56638Y-5000D02*X57388Y-5750D01*
X62189Y-8000D02*X64439D01*
X61439Y-7250D02*X62189Y-8000D01*
X61439Y-5750D02*Y-7250D01*
Y-5750D02*X62189Y-5000D01*
X63689D01*
X64439Y-5750D01*
X61439Y-6500D02*X64439D01*
Y-5750D02*Y-6500D01*
X68941Y-3500D02*Y-4250D01*
Y-5750D02*Y-8000D01*
X71192D02*X73442D01*
X74192Y-7250D01*
X73442Y-6500D02*X74192Y-7250D01*
X71192Y-6500D02*X73442D01*
X70442Y-5750D02*X71192Y-6500D01*
X70442Y-5750D02*X71192Y-5000D01*
X73442D01*
X74192Y-5750D01*
X70442Y-7250D02*X71192Y-8000D01*
X79444Y-2000D02*Y-7250D01*
X80194Y-8000D01*
X78694Y-4250D02*X80194D01*
X81695Y-2000D02*Y-8000D01*
Y-5750D02*X82445Y-5000D01*
X83945D01*
X84695Y-5750D01*
Y-8000D01*
X87247D02*X89497D01*
X86497Y-7250D02*X87247Y-8000D01*
X86497Y-5750D02*Y-7250D01*
Y-5750D02*X87247Y-5000D01*
X88747D01*
X89497Y-5750D01*
X86497Y-6500D02*X89497D01*
Y-5750D02*Y-6500D01*
X94748Y-5000D02*X96998D01*
X93998Y-5750D02*X94748Y-5000D01*
X93998Y-5750D02*Y-7250D01*
X94748Y-8000D01*
X96998D01*
X99550D02*X101800D01*
X98800Y-7250D02*X99550Y-8000D01*
X98800Y-5750D02*Y-7250D01*
Y-5750D02*X99550Y-5000D01*
X101050D01*
X101800Y-5750D01*
X98800Y-6500D02*X101800D01*
Y-5750D02*Y-6500D01*
X104351Y-5750D02*Y-8000D01*
Y-5750D02*X105101Y-5000D01*
X105851D01*
X106601Y-5750D01*
Y-8000D01*
X103601Y-5000D02*X104351Y-5750D01*
X109153Y-2000D02*Y-7250D01*
X109903Y-8000D01*
X108403Y-4250D02*X109903D01*
X112154Y-8000D02*X114404D01*
X111404Y-7250D02*X112154Y-8000D01*
X111404Y-5750D02*Y-7250D01*
Y-5750D02*X112154Y-5000D01*
X113654D01*
X114404Y-5750D01*
X111404Y-6500D02*X114404D01*
Y-5750D02*Y-6500D01*
X116956Y-5750D02*Y-8000D01*
Y-5750D02*X117706Y-5000D01*
X119206D01*
X116206D02*X116956Y-5750D01*
X121007Y-2000D02*Y-7250D01*
X121757Y-8000D01*
X123259Y-3500D02*Y-4250D01*
Y-5750D02*Y-8000D01*
X125510Y-5750D02*Y-8000D01*
Y-5750D02*X126260Y-5000D01*
X127010D01*
X127760Y-5750D01*
Y-8000D01*
X124760Y-5000D02*X125510Y-5750D01*
X130312Y-8000D02*X132562D01*
X129562Y-7250D02*X130312Y-8000D01*
X129562Y-5750D02*Y-7250D01*
Y-5750D02*X130312Y-5000D01*
X131812D01*
X132562Y-5750D01*
X129562Y-6500D02*X132562D01*
Y-5750D02*Y-6500D01*
X137063Y-5750D02*Y-7250D01*
Y-5750D02*X137813Y-5000D01*
X139313D01*
X140063Y-5750D01*
Y-7250D01*
X139313Y-8000D02*X140063Y-7250D01*
X137813Y-8000D02*X139313D01*
X137063Y-7250D02*X137813Y-8000D01*
X142615Y-2750D02*Y-8000D01*
Y-2750D02*X143365Y-2000D01*
X144115D01*
X141865Y-5000D02*X143365D01*
X149066Y-2000D02*Y-7250D01*
X149816Y-8000D01*
X148316Y-4250D02*X149816D01*
X151318Y-2000D02*Y-8000D01*
Y-5750D02*X152068Y-5000D01*
X153568D01*
X154318Y-5750D01*
Y-8000D01*
X156119Y-3500D02*Y-4250D01*
Y-5750D02*Y-8000D01*
X158371D02*X160621D01*
X161371Y-7250D01*
X160621Y-6500D02*X161371Y-7250D01*
X158371Y-6500D02*X160621D01*
X157621Y-5750D02*X158371Y-6500D01*
X157621Y-5750D02*X158371Y-5000D01*
X160621D01*
X161371Y-5750D01*
X157621Y-7250D02*X158371Y-8000D01*
X166622Y-5750D02*Y-10250D01*
X165872Y-5000D02*X166622Y-5750D01*
X167372Y-5000D01*
X168872D01*
X169622Y-5750D01*
Y-7250D01*
X168872Y-8000D02*X169622Y-7250D01*
X167372Y-8000D02*X168872D01*
X166622Y-7250D02*X167372Y-8000D01*
X173674Y-5000D02*X174424Y-5750D01*
X172174Y-5000D02*X173674D01*
X171424Y-5750D02*X172174Y-5000D01*
X171424Y-5750D02*Y-7250D01*
X172174Y-8000D01*
X174424Y-5000D02*Y-7250D01*
X175174Y-8000D01*
X172174D02*X173674D01*
X174424Y-7250D01*
X177725Y-2000D02*Y-7250D01*
X178475Y-8000D01*
X176975Y-4250D02*X178475D01*
X179977Y-2000D02*Y-8000D01*
Y-5750D02*X180727Y-5000D01*
X182227D01*
X182977Y-5750D01*
Y-8000D01*
X200750Y423701D02*Y417701D01*
X203000Y423701D02*X203750Y422951D01*
Y418451D01*
X203000Y417701D02*X203750Y418451D01*
X200000Y417701D02*X203000D01*
X200000Y423701D02*X203000D01*
X207801Y420701D02*X208551Y419951D01*
X206301Y420701D02*X207801D01*
X205551Y419951D02*X206301Y420701D01*
X205551Y419951D02*Y418451D01*
X206301Y417701D01*
X208551Y420701D02*Y418451D01*
X209301Y417701D01*
X206301D02*X207801D01*
X208551Y418451D01*
X211853Y423701D02*Y418451D01*
X212603Y417701D01*
X211103Y421451D02*X212603D01*
X214854Y417701D02*X217104D01*
X214104Y418451D02*X214854Y417701D01*
X214104Y419951D02*Y418451D01*
Y419951D02*X214854Y420701D01*
X216354D01*
X217104Y419951D01*
X214104Y419201D02*X217104D01*
Y419951D02*Y419201D01*
X218906Y421451D02*X219656D01*
X218906Y419951D02*X219656D01*
X227157Y423701D02*X227907Y422951D01*
X224907Y423701D02*X227157D01*
X224157Y422951D02*X224907Y423701D01*
X224157Y422951D02*Y421451D01*
X224907Y420701D01*
X227157D01*
X227907Y419951D01*
Y418451D01*
X227157Y417701D02*X227907Y418451D01*
X224907Y417701D02*X227157D01*
X224157Y418451D02*X224907Y417701D01*
X231959Y420701D02*X232709Y419951D01*
X230459Y420701D02*X231959D01*
X229709Y419951D02*X230459Y420701D01*
X229709Y419951D02*Y418451D01*
X230459Y417701D01*
X232709Y420701D02*Y418451D01*
X233459Y417701D01*
X230459D02*X231959D01*
X232709Y418451D01*
X236010Y423701D02*Y418451D01*
X236760Y417701D01*
X235260Y421451D02*X236760D01*
X243962Y423701D02*X244712Y422951D01*
X241712Y423701D02*X243962D01*
X240962Y422951D02*X241712Y423701D01*
X240962Y422951D02*Y421451D01*
X241712Y420701D01*
X243962D01*
X244712Y419951D01*
Y418451D01*
X243962Y417701D02*X244712Y418451D01*
X241712Y417701D02*X243962D01*
X240962Y418451D02*X241712Y417701D01*
X247263D02*X249513D01*
X246513Y418451D02*X247263Y417701D01*
X246513Y419951D02*Y418451D01*
Y419951D02*X247263Y420701D01*
X248763D01*
X249513Y419951D01*
X246513Y419201D02*X249513D01*
Y419951D02*Y419201D01*
X252065Y419951D02*Y415451D01*
X251315Y420701D02*X252065Y419951D01*
X252815Y420701D01*
X254315D01*
X255065Y419951D01*
Y418451D01*
X254315Y417701D02*X255065Y418451D01*
X252815Y417701D02*X254315D01*
X252065Y418451D02*X252815Y417701D01*
X259566Y422951D02*X260316Y423701D01*
X262566D01*
X263316Y422951D01*
Y421451D01*
X259566Y417701D02*X263316Y421451D01*
X259566Y417701D02*X263316D01*
X265118D02*X268118Y420701D01*
Y422951D02*Y420701D01*
X267368Y423701D02*X268118Y422951D01*
X265868Y423701D02*X267368D01*
X265118Y422951D02*X265868Y423701D01*
X265118Y422951D02*Y421451D01*
X265868Y420701D01*
X268118D01*
X273369Y417701D02*X274869D01*
X274119Y423701D02*Y417701D01*
X272619Y422201D02*X274119Y423701D01*
X276671Y418451D02*X277421Y417701D01*
X276671Y419951D02*Y418451D01*
Y419951D02*X277421Y420701D01*
X278921D01*
X279671Y419951D01*
Y418451D01*
X278921Y417701D02*X279671Y418451D01*
X277421Y417701D02*X278921D01*
X276671Y421451D02*X277421Y420701D01*
X276671Y422951D02*Y421451D01*
Y422951D02*X277421Y423701D01*
X278921D01*
X279671Y422951D01*
Y421451D01*
X278921Y420701D02*X279671Y421451D01*
X281472D02*X282222D01*
X281472Y419951D02*X282222D01*
X284774Y417701D02*X286274D01*
X285524Y423701D02*Y417701D01*
X284024Y422201D02*X285524Y423701D01*
X288075Y418451D02*X288825Y417701D01*
X288075Y422951D02*Y418451D01*
Y422951D02*X288825Y423701D01*
X290325D01*
X291075Y422951D01*
Y418451D01*
X290325Y417701D02*X291075Y418451D01*
X288825Y417701D02*X290325D01*
X288075Y419201D02*X291075Y422201D01*
X292877Y421451D02*X293627D01*
X292877Y419951D02*X293627D01*
X296178Y417701D02*X297678D01*
X296928Y423701D02*Y417701D01*
X295428Y422201D02*X296928Y423701D01*
X299480Y417701D02*X302480Y420701D01*
Y422951D02*Y420701D01*
X301730Y423701D02*X302480Y422951D01*
X300230Y423701D02*X301730D01*
X299480Y422951D02*X300230Y423701D01*
X299480Y422951D02*Y421451D01*
X300230Y420701D01*
X302480D01*
X306981Y422951D02*X307731Y423701D01*
X309981D01*
X310731Y422951D01*
Y421451D01*
X306981Y417701D02*X310731Y421451D01*
X306981Y417701D02*X310731D01*
X312533Y418451D02*X313283Y417701D01*
X312533Y422951D02*Y418451D01*
Y422951D02*X313283Y423701D01*
X314783D01*
X315533Y422951D01*
Y418451D01*
X314783Y417701D02*X315533Y418451D01*
X313283Y417701D02*X314783D01*
X312533Y419201D02*X315533Y422201D01*
X318084Y417701D02*X319584D01*
X318834Y423701D02*Y417701D01*
X317334Y422201D02*X318834Y423701D01*
X321386Y422951D02*X322136Y423701D01*
X324386D01*
X325136Y422951D01*
Y421451D01*
X321386Y417701D02*X325136Y421451D01*
X321386Y417701D02*X325136D01*
X329637Y423701D02*Y418451D01*
X330387Y417701D01*
X331887D01*
X332637Y418451D01*
Y423701D02*Y418451D01*
X334439Y423701D02*X337439D01*
X335939D02*Y417701D01*
X339990D02*X342240D01*
X339240Y418451D02*X339990Y417701D01*
X339240Y422951D02*Y418451D01*
Y422951D02*X339990Y423701D01*
X342240D01*
X200000Y437951D02*Y432701D01*
Y437951D02*X200750Y438701D01*
X203000D01*
X203750Y437951D01*
Y432701D01*
X200000Y435701D02*X203750D01*
X205551D02*Y433451D01*
X206301Y432701D01*
X207801D01*
X208551Y433451D01*
Y435701D02*Y433451D01*
X211103Y438701D02*Y433451D01*
X211853Y432701D01*
X210353Y436451D02*X211853D01*
X213354Y438701D02*Y432701D01*
Y434951D02*X214104Y435701D01*
X215604D01*
X216354Y434951D01*
Y432701D01*
X218156Y434951D02*Y433451D01*
Y434951D02*X218906Y435701D01*
X220406D01*
X221156Y434951D01*
Y433451D01*
X220406Y432701D02*X221156Y433451D01*
X218906Y432701D02*X220406D01*
X218156Y433451D02*X218906Y432701D01*
X223707Y434951D02*Y432701D01*
Y434951D02*X224457Y435701D01*
X225957D01*
X222957D02*X223707Y434951D01*
X227759Y436451D02*X228509D01*
X227759Y434951D02*X228509D01*
X233010Y432701D02*X236010D01*
X236760Y433451D01*
Y434951D02*Y433451D01*
X236010Y435701D02*X236760Y434951D01*
X233760Y435701D02*X236010D01*
X233760Y438701D02*Y432701D01*
X233010Y438701D02*X236010D01*
X236760Y437951D01*
Y436451D01*
X236010Y435701D02*X236760Y436451D01*
X239312Y432701D02*X241562D01*
X238562Y433451D02*X239312Y432701D01*
X238562Y434951D02*Y433451D01*
Y434951D02*X239312Y435701D01*
X240812D01*
X241562Y434951D01*
X238562Y434201D02*X241562D01*
Y434951D02*Y434201D01*
X244113Y434951D02*Y432701D01*
Y434951D02*X244863Y435701D01*
X246363D01*
X243363D02*X244113Y434951D01*
X248915Y438701D02*Y433451D01*
X249665Y432701D01*
X248165Y436451D02*X249665D01*
X253866Y438701D02*X256866D01*
X255366D02*Y432701D01*
X258668Y437201D02*Y436451D01*
Y434951D02*Y432701D01*
X260919Y434951D02*Y432701D01*
Y434951D02*X261669Y435701D01*
X262419D01*
X263169Y434951D01*
Y432701D01*
Y434951D02*X263919Y435701D01*
X264669D01*
X265419Y434951D01*
Y432701D01*
X260169Y435701D02*X260919Y434951D01*
X267971D02*Y432701D01*
Y434951D02*X268721Y435701D01*
X269471D01*
X270221Y434951D01*
Y432701D01*
Y434951D02*X270971Y435701D01*
X271721D01*
X272471Y434951D01*
Y432701D01*
X267221Y435701D02*X267971Y434951D01*
X275022Y432701D02*X277272D01*
X274272Y433451D02*X275022Y432701D01*
X274272Y434951D02*Y433451D01*
Y434951D02*X275022Y435701D01*
X276522D01*
X277272Y434951D01*
X274272Y434201D02*X277272D01*
Y434951D02*Y434201D01*
X279824Y434951D02*Y432701D01*
Y434951D02*X280574Y435701D01*
X282074D01*
X279074D02*X279824Y434951D01*
X284625D02*Y432701D01*
Y434951D02*X285375Y435701D01*
X286125D01*
X286875Y434951D01*
Y432701D01*
Y434951D02*X287625Y435701D01*
X288375D01*
X289125Y434951D01*
Y432701D01*
X283875Y435701D02*X284625Y434951D01*
X293177Y435701D02*X293927Y434951D01*
X291677Y435701D02*X293177D01*
X290927Y434951D02*X291677Y435701D01*
X290927Y434951D02*Y433451D01*
X291677Y432701D01*
X293927Y435701D02*Y433451D01*
X294677Y432701D01*
X291677D02*X293177D01*
X293927Y433451D01*
X297228Y434951D02*Y432701D01*
Y434951D02*X297978Y435701D01*
X298728D01*
X299478Y434951D01*
Y432701D01*
X296478Y435701D02*X297228Y434951D01*
X200000Y453701D02*X203000D01*
X201500D02*Y447701D01*
X204801Y452201D02*Y451451D01*
Y449951D02*Y447701D01*
X207053Y453701D02*Y448451D01*
X207803Y447701D01*
X206303Y451451D02*X207803D01*
X209304Y453701D02*Y448451D01*
X210054Y447701D01*
X212306D02*X214556D01*
X211556Y448451D02*X212306Y447701D01*
X211556Y449951D02*Y448451D01*
Y449951D02*X212306Y450701D01*
X213806D01*
X214556Y449951D01*
X211556Y449201D02*X214556D01*
Y449951D02*Y449201D01*
X216357Y451451D02*X217107D01*
X216357Y449951D02*X217107D01*
X221609Y452951D02*X222359Y453701D01*
X223859D01*
X224609Y452951D01*
Y448451D01*
X223859Y447701D02*X224609Y448451D01*
X222359Y447701D02*X223859D01*
X221609Y448451D02*X222359Y447701D01*
Y450701D02*X224609D01*
X227160Y447701D02*X228660D01*
X227910Y453701D02*Y447701D01*
X226410Y452201D02*X227910Y453701D01*
X230462Y447701D02*X233462D01*
X236013Y452951D02*Y447701D01*
Y452951D02*X236763Y453701D01*
X237513D01*
X235263Y450701D02*X236763D01*
X239765Y449951D02*Y447701D01*
Y449951D02*X240515Y450701D01*
X242015D01*
X239015D02*X239765Y449951D01*
X243816D02*Y448451D01*
Y449951D02*X244566Y450701D01*
X246066D01*
X246816Y449951D01*
Y448451D01*
X246066Y447701D02*X246816Y448451D01*
X244566Y447701D02*X246066D01*
X243816Y448451D02*X244566Y447701D01*
X249368Y449951D02*Y447701D01*
Y449951D02*X250118Y450701D01*
X250868D01*
X251618Y449951D01*
Y447701D01*
X248618Y450701D02*X249368Y449951D01*
X254169Y453701D02*Y448451D01*
X254919Y447701D01*
X253419Y451451D02*X254919D01*
X256421Y447701D02*X259421D01*
X261972Y449951D02*Y445451D01*
X261222Y450701D02*X261972Y449951D01*
X262722Y450701D01*
X264222D01*
X264972Y449951D01*
Y448451D01*
X264222Y447701D02*X264972Y448451D01*
X262722Y447701D02*X264222D01*
X261972Y448451D02*X262722Y447701D01*
X267524Y450701D02*X269774D01*
X266774Y449951D02*X267524Y450701D01*
X266774Y449951D02*Y448451D01*
X267524Y447701D01*
X269774D01*
X271575Y453701D02*Y447701D01*
Y448451D02*X272325Y447701D01*
X273825D01*
X274575Y448451D01*
Y449951D02*Y448451D01*
X273825Y450701D02*X274575Y449951D01*
X272325Y450701D02*X273825D01*
X271575Y449951D02*X272325Y450701D01*
X276377Y447701D02*X277127D01*
X279678Y449951D02*Y445451D01*
X278928Y450701D02*X279678Y449951D01*
X280428Y450701D01*
X281928D01*
X282678Y449951D01*
Y448451D01*
X281928Y447701D02*X282678Y448451D01*
X280428Y447701D02*X281928D01*
X279678Y448451D02*X280428Y447701D01*
X285230Y450701D02*X287480D01*
X284480Y449951D02*X285230Y450701D01*
X284480Y449951D02*Y448451D01*
X285230Y447701D01*
X287480D01*
X289281Y453701D02*Y447701D01*
Y448451D02*X290031Y447701D01*
X291531D01*
X292281Y448451D01*
Y449951D02*Y448451D01*
X291531Y450701D02*X292281Y449951D01*
X290031Y450701D02*X291531D01*
X289281Y449951D02*X290031Y450701D01*
X296783D02*X299783D01*
X304284Y453701D02*Y447701D01*
Y453701D02*X307284D01*
X304284Y450701D02*X306534D01*
X311336D02*X312086Y449951D01*
X309836Y450701D02*X311336D01*
X309086Y449951D02*X309836Y450701D01*
X309086Y449951D02*Y448451D01*
X309836Y447701D01*
X312086Y450701D02*Y448451D01*
X312836Y447701D01*
X309836D02*X311336D01*
X312086Y448451D01*
X314637Y453701D02*Y447701D01*
Y448451D02*X315387Y447701D01*
X316887D01*
X317637Y448451D01*
Y449951D02*Y448451D01*
X316887Y450701D02*X317637Y449951D01*
X315387Y450701D02*X316887D01*
X314637Y449951D02*X315387Y450701D01*
X320189Y449951D02*Y447701D01*
Y449951D02*X320939Y450701D01*
X322439D01*
X319439D02*X320189Y449951D01*
X324240Y452201D02*Y451451D01*
Y449951D02*Y447701D01*
X326492Y450701D02*X328742D01*
X325742Y449951D02*X326492Y450701D01*
X325742Y449951D02*Y448451D01*
X326492Y447701D01*
X328742D01*
X332793Y450701D02*X333543Y449951D01*
X331293Y450701D02*X332793D01*
X330543Y449951D02*X331293Y450701D01*
X330543Y449951D02*Y448451D01*
X331293Y447701D01*
X333543Y450701D02*Y448451D01*
X334293Y447701D01*
X331293D02*X332793D01*
X333543Y448451D01*
X336845Y453701D02*Y448451D01*
X337595Y447701D01*
X336095Y451451D02*X337595D01*
X339096Y452201D02*Y451451D01*
Y449951D02*Y447701D01*
X340598Y449951D02*Y448451D01*
Y449951D02*X341348Y450701D01*
X342848D01*
X343598Y449951D01*
Y448451D01*
X342848Y447701D02*X343598Y448451D01*
X341348Y447701D02*X342848D01*
X340598Y448451D02*X341348Y447701D01*
X346149Y449951D02*Y447701D01*
Y449951D02*X346899Y450701D01*
X347649D01*
X348399Y449951D01*
Y447701D01*
X345399Y450701D02*X346149Y449951D01*
X353651Y453701D02*Y447701D01*
X355901Y453701D02*X356651Y452951D01*
Y448451D01*
X355901Y447701D02*X356651Y448451D01*
X352901Y447701D02*X355901D01*
X352901Y453701D02*X355901D01*
X359202Y449951D02*Y447701D01*
Y449951D02*X359952Y450701D01*
X361452D01*
X358452D02*X359202Y449951D01*
X365504Y450701D02*X366254Y449951D01*
X364004Y450701D02*X365504D01*
X363254Y449951D02*X364004Y450701D01*
X363254Y449951D02*Y448451D01*
X364004Y447701D01*
X366254Y450701D02*Y448451D01*
X367004Y447701D01*
X364004D02*X365504D01*
X366254Y448451D01*
X368805Y450701D02*Y448451D01*
X369555Y447701D01*
X370305D01*
X371055Y448451D01*
Y450701D02*Y448451D01*
X371805Y447701D01*
X372555D01*
X373305Y448451D01*
Y450701D02*Y448451D01*
X375107Y452201D02*Y451451D01*
Y449951D02*Y447701D01*
X377358Y449951D02*Y447701D01*
Y449951D02*X378108Y450701D01*
X378858D01*
X379608Y449951D01*
Y447701D01*
X376608Y450701D02*X377358Y449951D01*
X383660Y450701D02*X384410Y449951D01*
X382160Y450701D02*X383660D01*
X381410Y449951D02*X382160Y450701D01*
X381410Y449951D02*Y448451D01*
X382160Y447701D01*
X383660D01*
X384410Y448451D01*
X381410Y446201D02*X382160Y445451D01*
X383660D01*
X384410Y446201D01*
Y450701D02*Y446201D01*
M02*
