M48
INCH
T14C0.040
T16C0.046
T17C0.035
%
T17
X001574Y034448
X001574Y033464
X001574Y032480
X001574Y031496
X001574Y030511
X001574Y029527
X001574Y028543
X001574Y027559
X001574Y026574
X001574Y025590
X001574Y024606
X001574Y023622
X001574Y022637
X001574Y021653
X001574Y020669
X001574Y019685
X001574Y018700
X001574Y017716
X001574Y016732
X001574Y015748
X001574Y014763
X001574Y013779
X001574Y012795
X001574Y011811
X001574Y010826
X001574Y009842
X001574Y008858
X001574Y007874
X001574Y006889
X001574Y005905
X001574Y004921
T14
X009055Y026574
X011023Y025590
X011023Y023622
X011023Y021653
X009055Y024606
X009055Y022637
X009055Y020669
X009055Y018700
X009055Y016732
X011023Y031496
X009055Y030511
X011023Y029527
X009055Y028543
X009055Y034448
X011023Y033464
X009055Y032480
X011023Y027559
X011023Y019685
X011023Y017716
X011023Y015748
X009055Y014763
X009055Y012795
X009055Y010826
X009055Y008858
X011023Y013779
X011023Y011811
X011023Y009842
X011023Y007874
X009055Y006889
X009055Y004921
X011023Y005905
T16
X015748Y005905
M30
