G04 start of page 8 for group -4062 idx -4062 *
G04 Title: 01.003.00.01.01_main_pcb_layout.pcb, soldermask *
G04 Creator: pcb 20100929 *
G04 CreationDate: Sat Sep 29 18:10:19 2012 UTC *
G04 For: bert *
G04 Format: Gerber/RS-274X *
G04 PCB-Dimensions: 629925 393705 *
G04 PCB-Coordinate-Origin: lower left *
%MOIN*%
%FSLAX25Y25*%
%LNBACKMASK*%
%ADD11C,0.0200*%
%ADD12C,0.0720*%
%ADD13C,0.1980*%
%ADD17C,0.1100*%
%ADD18C,0.1260*%
%ADD23C,0.0850*%
%ADD24C,0.0660*%
G54D11*G36*
X599548Y348093D02*Y340893D01*
X606748D01*
Y348093D01*
X599548D01*
G37*
G54D12*X593306Y334651D03*
X603148Y324808D03*
X593306Y314966D03*
X603148Y305123D03*
X593306Y295280D03*
X603148Y285438D03*
G54D17*X612991Y364178D03*
G54D13*X314961Y364177D03*
Y29532D03*
G54D23*X263780D03*
G54D18*X17717Y364177D03*
Y29532D03*
G54D11*G36*
X43944Y347792D02*Y341192D01*
X50544D01*
Y347792D01*
X43944D01*
G37*
G54D24*X47244Y334650D03*
Y324807D03*
Y314965D03*
Y305122D03*
Y295280D03*
Y285437D03*
Y275595D03*
Y265752D03*
Y255910D03*
Y246067D03*
Y236225D03*
Y226382D03*
Y216540D03*
Y206697D03*
Y196855D03*
Y187012D03*
Y177170D03*
Y167327D03*
Y157485D03*
Y147642D03*
Y137799D03*
Y127957D03*
Y118114D03*
Y108272D03*
Y98429D03*
Y88587D03*
Y78744D03*
Y68902D03*
Y59059D03*
Y49217D03*
G54D12*X593306Y275595D03*
Y255910D03*
Y236225D03*
X603148Y265753D03*
Y246068D03*
Y226383D03*
X593306Y216540D03*
Y196856D03*
Y177171D03*
Y157486D03*
X603148Y206698D03*
Y187013D03*
Y167328D03*
Y147643D03*
X593306Y137800D03*
Y118115D03*
Y98430D03*
Y78745D03*
Y59060D03*
X603148Y127958D03*
Y108273D03*
Y88588D03*
Y68903D03*
Y49218D03*
G54D17*X612991Y29532D03*
G54D11*G36*
X365716Y347792D02*Y341192D01*
X372316D01*
Y347792D01*
X365716D01*
G37*
G54D24*X379016Y344492D03*
G54D11*G36*
X365716Y328107D02*Y321507D01*
X372316D01*
Y328107D01*
X365716D01*
G37*
G54D24*X379016Y324807D03*
G54D11*G36*
X365716Y308422D02*Y301822D01*
X372316D01*
Y308422D01*
X365716D01*
G37*
G54D24*X379016Y305122D03*
G54D11*G36*
X365716Y288737D02*Y282137D01*
X372316D01*
Y288737D01*
X365716D01*
G37*
G54D24*X379016Y285437D03*
G54D11*G36*
X424771Y337950D02*Y331350D01*
X431371D01*
Y337950D01*
X424771D01*
G37*
G36*
X365716Y269052D02*Y262452D01*
X372316D01*
Y269052D01*
X365716D01*
G37*
G36*
Y229682D02*Y223082D01*
X372316D01*
Y229682D01*
X365716D01*
G37*
G36*
Y209997D02*Y203397D01*
X372316D01*
Y209997D01*
X365716D01*
G37*
G54D24*X379016Y265752D03*
Y226382D03*
Y206697D03*
G54D11*G36*
X365716Y249367D02*Y242767D01*
X372316D01*
Y249367D01*
X365716D01*
G37*
G54D24*X379016Y246067D03*
G54D11*G36*
X365716Y190312D02*Y183712D01*
X372316D01*
Y190312D01*
X365716D01*
G37*
G36*
Y170627D02*Y164027D01*
X372316D01*
Y170627D01*
X365716D01*
G37*
G36*
Y150942D02*Y144342D01*
X372316D01*
Y150942D01*
X365716D01*
G37*
G54D24*X379016Y187012D03*
Y167327D03*
Y147642D03*
Y127957D03*
Y88587D03*
Y68902D03*
G54D11*G36*
X365716Y111572D02*Y104972D01*
X372316D01*
Y111572D01*
X365716D01*
G37*
G54D24*X379016Y108272D03*
G54D11*G36*
X365716Y131257D02*Y124657D01*
X372316D01*
Y131257D01*
X365716D01*
G37*
G36*
Y91887D02*Y85287D01*
X372316D01*
Y91887D01*
X365716D01*
G37*
G36*
Y72202D02*Y65602D01*
X372316D01*
Y72202D01*
X365716D01*
G37*
G36*
Y52517D02*Y45917D01*
X372316D01*
Y52517D01*
X365716D01*
G37*
G54D24*X379016Y49217D03*
X438071Y334650D03*
G54D11*G36*
X424771Y318265D02*Y311665D01*
X431371D01*
Y318265D01*
X424771D01*
G37*
G36*
Y298580D02*Y291980D01*
X431371D01*
Y298580D01*
X424771D01*
G37*
G36*
Y278895D02*Y272295D01*
X431371D01*
Y278895D01*
X424771D01*
G37*
G54D24*X438071Y314965D03*
Y295280D03*
Y275595D03*
Y255910D03*
Y236225D03*
Y216540D03*
G54D11*G36*
X424771Y259210D02*Y252610D01*
X431371D01*
Y259210D01*
X424771D01*
G37*
G36*
Y239525D02*Y232925D01*
X431371D01*
Y239525D01*
X424771D01*
G37*
G36*
Y219840D02*Y213240D01*
X431371D01*
Y219840D01*
X424771D01*
G37*
G54D24*X438071Y196855D03*
Y157485D03*
Y137800D03*
G54D11*G36*
X424771Y180470D02*Y173870D01*
X431371D01*
Y180470D01*
X424771D01*
G37*
G54D24*X438071Y177170D03*
G54D11*G36*
X424771Y200155D02*Y193555D01*
X431371D01*
Y200155D01*
X424771D01*
G37*
G36*
Y160785D02*Y154185D01*
X431371D01*
Y160785D01*
X424771D01*
G37*
G36*
Y141100D02*Y134500D01*
X431371D01*
Y141100D01*
X424771D01*
G37*
G36*
Y121415D02*Y114815D01*
X431371D01*
Y121415D01*
X424771D01*
G37*
G36*
Y82044D02*Y75444D01*
X431371D01*
Y82044D01*
X424771D01*
G37*
G36*
Y62359D02*Y55759D01*
X431371D01*
Y62359D01*
X424771D01*
G37*
G54D24*X438071Y118115D03*
Y78744D03*
Y59059D03*
G54D11*G36*
X424771Y101729D02*Y95129D01*
X431371D01*
Y101729D01*
X424771D01*
G37*
G54D24*X438071Y98429D03*
M02*
