G04 start of page 3 for group 1 idx 1 *
G04 Title: 01.003.00.01.01_main_pcb_layout.pcb, solder *
G04 Creator: pcb 20100929 *
G04 CreationDate: Sat Sep 29 18:10:19 2012 UTC *
G04 For: bert *
G04 Format: Gerber/RS-274X *
G04 PCB-Dimensions: 629925 393705 *
G04 PCB-Coordinate-Origin: lower left *
%MOIN*%
%FSLAX25Y25*%
%LNBACK*%
%ADD11C,0.0200*%
%ADD12C,0.0720*%
%ADD13C,0.1980*%
%ADD14C,0.0650*%
%ADD15C,0.0600*%
%ADD16C,0.0520*%
%ADD17C,0.1100*%
%ADD18C,0.1260*%
%ADD19C,0.0460*%
%ADD20C,0.0350*%
%ADD21C,0.0250*%
G54D21*X47244Y295280D02*X428071D01*
X47244Y275595D02*X428071D01*
X47244Y285437D02*X369016D01*
X47244Y265752D02*X369016D01*
X47244Y255910D02*X428071D01*
X47244Y344492D02*X369016D01*
X47244Y334650D02*X428071D01*
X47244Y324807D02*X369016D01*
X47244Y314965D02*X428071D01*
X47243Y305122D02*X369016D01*
X47244Y246067D02*X369016D01*
X47244Y226382D02*X369016D01*
X47244Y206697D02*X369016D01*
X47244Y187012D02*X369016D01*
X47244Y167327D02*X369016D01*
X47244Y147642D02*X369016D01*
X47244Y127957D02*X369016D01*
X47244Y108272D02*X369016D01*
X47244Y88587D02*X369016D01*
X47244Y236225D02*X428071D01*
X47244Y216540D02*X428071D01*
X47244Y196855D02*X428071D01*
X47244Y177170D02*X428071D01*
X47244Y157485D02*X428071D01*
X47244Y137799D02*X428071D01*
X47244Y118114D02*X428071D01*
X47244Y98429D02*X428071D01*
X47244Y78744D02*X428071D01*
X47244Y68902D02*X369016D01*
X314961Y29532D02*X263781D01*
X47244Y49217D02*X369016D01*
X33465Y51185D02*X41339Y59059D01*
X263780Y29532D02*X41339D01*
X33465Y37406D01*
Y51185D01*
X428071Y59059D02*X41339D01*
X379016Y324807D02*X603147Y324808D01*
X438071Y334650D02*X593305D01*
X603148Y344493D02*X379016D01*
X438071Y314965D02*X593306Y314966D01*
X379016Y305122D02*X603147D01*
X438071Y295280D02*X593306D01*
X379016Y285437D02*X603148Y285438D01*
X438071Y275595D02*X593306D01*
X379016Y265752D02*X603147D01*
X438071Y255910D02*X593306D01*
X379016Y246067D02*X603148Y246068D01*
X438071Y236225D02*X593306D01*
X379016Y226382D02*X603148Y226383D01*
X438071Y216540D02*X593306D01*
X379016Y206697D02*X603147D01*
X438071Y196855D02*X593306Y196856D01*
X379016Y187012D02*X603148Y187013D01*
X438071Y177170D02*X592519D01*
X438071Y78744D02*X593305D01*
X379016Y68902D02*X603148Y68903D01*
X379016Y167327D02*X603147D01*
X438071Y157485D02*X593306Y157486D01*
X379016Y147642D02*X603147D01*
X438071Y137800D02*X593305Y137801D01*
X379016Y127957D02*X603148Y127958D01*
X438976Y118114D02*X593306Y118115D01*
X379016Y108272D02*X603147D01*
X438071Y98429D02*X593306Y98430D01*
X379016Y88587D02*X603147D01*
X379016Y49217D02*X603148Y49218D01*
X438071Y59059D02*X593306Y59060D01*
G54D11*G36*
X599548Y348093D02*Y340893D01*
X606748D01*
Y348093D01*
X599548D01*
G37*
G54D12*X593306Y334651D03*
X603148Y324808D03*
X593306Y314966D03*
X603148Y305123D03*
X593306Y295280D03*
X603148Y285438D03*
G54D13*X314961Y364177D03*
Y29532D03*
G54D14*X263780D03*
G54D11*G36*
X44244Y347492D02*Y341492D01*
X50244D01*
Y347492D01*
X44244D01*
G37*
G54D15*X47244Y334650D03*
Y324807D03*
Y314965D03*
Y305122D03*
Y295280D03*
Y285437D03*
Y275595D03*
Y265752D03*
Y255910D03*
Y246067D03*
Y236225D03*
Y226382D03*
Y216540D03*
Y206697D03*
Y196855D03*
Y187012D03*
Y177170D03*
Y167327D03*
Y157485D03*
Y147642D03*
Y137799D03*
Y127957D03*
Y118114D03*
Y108272D03*
Y98429D03*
Y88587D03*
Y78744D03*
Y68902D03*
Y59059D03*
Y49217D03*
G54D12*X593306Y275595D03*
Y255910D03*
Y236225D03*
X603148Y265753D03*
Y246068D03*
Y226383D03*
X593306Y216540D03*
Y196856D03*
Y177171D03*
Y157486D03*
X603148Y206698D03*
Y187013D03*
Y167328D03*
Y147643D03*
X593306Y137800D03*
Y118115D03*
Y98430D03*
Y78745D03*
Y59060D03*
X603148Y127958D03*
Y108273D03*
Y88588D03*
Y68903D03*
Y49218D03*
G54D11*G36*
X366016Y347492D02*Y341492D01*
X372016D01*
Y347492D01*
X366016D01*
G37*
G54D15*X379016Y344492D03*
G54D11*G36*
X366016Y327807D02*Y321807D01*
X372016D01*
Y327807D01*
X366016D01*
G37*
G54D15*X379016Y324807D03*
G54D11*G36*
X366016Y308122D02*Y302122D01*
X372016D01*
Y308122D01*
X366016D01*
G37*
G54D15*X379016Y305122D03*
G54D11*G36*
X366016Y288437D02*Y282437D01*
X372016D01*
Y288437D01*
X366016D01*
G37*
G54D15*X379016Y285437D03*
G54D11*G36*
X425071Y337650D02*Y331650D01*
X431071D01*
Y337650D01*
X425071D01*
G37*
G36*
X366016Y268752D02*Y262752D01*
X372016D01*
Y268752D01*
X366016D01*
G37*
G36*
Y229382D02*Y223382D01*
X372016D01*
Y229382D01*
X366016D01*
G37*
G36*
Y209697D02*Y203697D01*
X372016D01*
Y209697D01*
X366016D01*
G37*
G54D15*X379016Y265752D03*
Y226382D03*
Y206697D03*
G54D11*G36*
X366016Y249067D02*Y243067D01*
X372016D01*
Y249067D01*
X366016D01*
G37*
G54D15*X379016Y246067D03*
G54D11*G36*
X366016Y190012D02*Y184012D01*
X372016D01*
Y190012D01*
X366016D01*
G37*
G36*
Y170327D02*Y164327D01*
X372016D01*
Y170327D01*
X366016D01*
G37*
G36*
Y150642D02*Y144642D01*
X372016D01*
Y150642D01*
X366016D01*
G37*
G54D15*X379016Y187012D03*
Y167327D03*
Y147642D03*
Y127957D03*
Y88587D03*
Y68902D03*
G54D11*G36*
X366016Y111272D02*Y105272D01*
X372016D01*
Y111272D01*
X366016D01*
G37*
G54D15*X379016Y108272D03*
G54D11*G36*
X366016Y130957D02*Y124957D01*
X372016D01*
Y130957D01*
X366016D01*
G37*
G36*
Y91587D02*Y85587D01*
X372016D01*
Y91587D01*
X366016D01*
G37*
G36*
Y71902D02*Y65902D01*
X372016D01*
Y71902D01*
X366016D01*
G37*
G36*
Y52217D02*Y46217D01*
X372016D01*
Y52217D01*
X366016D01*
G37*
G54D15*X379016Y49217D03*
X438071Y334650D03*
G54D11*G36*
X425071Y317965D02*Y311965D01*
X431071D01*
Y317965D01*
X425071D01*
G37*
G36*
Y298280D02*Y292280D01*
X431071D01*
Y298280D01*
X425071D01*
G37*
G36*
Y278595D02*Y272595D01*
X431071D01*
Y278595D01*
X425071D01*
G37*
G54D15*X438071Y314965D03*
Y295280D03*
Y275595D03*
Y255910D03*
Y236225D03*
Y216540D03*
G54D11*G36*
X425071Y258910D02*Y252910D01*
X431071D01*
Y258910D01*
X425071D01*
G37*
G36*
Y239225D02*Y233225D01*
X431071D01*
Y239225D01*
X425071D01*
G37*
G36*
Y219540D02*Y213540D01*
X431071D01*
Y219540D01*
X425071D01*
G37*
G54D15*X438071Y196855D03*
Y157485D03*
Y137800D03*
G54D11*G36*
X425071Y180170D02*Y174170D01*
X431071D01*
Y180170D01*
X425071D01*
G37*
G54D15*X438071Y177170D03*
G54D11*G36*
X425071Y199855D02*Y193855D01*
X431071D01*
Y199855D01*
X425071D01*
G37*
G36*
Y160485D02*Y154485D01*
X431071D01*
Y160485D01*
X425071D01*
G37*
G36*
Y140800D02*Y134800D01*
X431071D01*
Y140800D01*
X425071D01*
G37*
G36*
Y121115D02*Y115115D01*
X431071D01*
Y121115D01*
X425071D01*
G37*
G36*
Y81744D02*Y75744D01*
X431071D01*
Y81744D01*
X425071D01*
G37*
G36*
Y62059D02*Y56059D01*
X431071D01*
Y62059D01*
X425071D01*
G37*
G54D15*X438071Y118115D03*
Y78744D03*
Y59059D03*
G54D11*G36*
X425071Y101429D02*Y95429D01*
X431071D01*
Y101429D01*
X425071D01*
G37*
G54D15*X438071Y98429D03*
G54D16*G54D17*G54D18*G54D19*G54D18*G54D20*G54D16*G54D17*G54D20*M02*
