G04 start of page 9 for group -4079 idx -4079 *
G04 Title: 01.003.00.01.01_main_pcb_layout.pcb, topsilk *
G04 Creator: pcb 20100929 *
G04 CreationDate: Sat Sep 29 18:10:19 2012 UTC *
G04 For: bert *
G04 Format: Gerber/RS-274X *
G04 PCB-Dimensions: 629925 393705 *
G04 PCB-Coordinate-Origin: lower left *
%MOIN*%
%FSLAX25Y25*%
%LNFRONTSILK*%
%ADD22C,0.0080*%
%ADD25C,0.0100*%
G54D22*X222835Y383862D02*X51181D01*
Y9847D01*
X57480D02*Y383862D01*
X222835Y9847D02*X51181D01*
X629921Y375201D02*Y18508D01*
Y393705D02*Y383862D01*
Y393705D02*X620079D01*
X0Y4D02*X9843D01*
X0Y9847D02*Y4D01*
X222835Y9847D02*Y16146D01*
X57480D01*
X222835Y383862D02*Y377563D01*
X57480D01*
G54D25*X292000Y43705D02*X292500Y43205D01*
X290500Y43705D02*X292000D01*
X290000Y43205D02*X290500Y43705D01*
X290000Y43205D02*Y40205D01*
X290500Y39705D01*
X292000D01*
X292500Y40205D01*
Y41205D02*Y40205D01*
X292000Y41705D02*X292500Y41205D01*
X291000Y41705D02*X292000D01*
X293701Y43705D02*Y39705D01*
Y43705D02*Y43205D01*
X296201Y40705D01*
Y43705D02*Y39705D01*
X297902Y43705D02*Y39705D01*
X299402Y43705D02*X299902Y43205D01*
Y40205D01*
X299402Y39705D02*X299902Y40205D01*
X297402Y39705D02*X299402D01*
X297402Y43705D02*X299402D01*
X629921Y4D02*X619921D01*
X629921Y10004D02*Y4D01*
X629920Y375202D02*Y18509D01*
X616928Y353155D02*Y40556D01*
X593306Y314966D02*X616928D01*
X603148Y344493D02*X616928D01*
X593306Y216540D02*X616927D01*
X603148Y265753D02*X616928D01*
X593306Y255910D02*X616927D01*
Y216540D02*X616928Y216541D01*
X616927Y255910D02*X616928Y255911D01*
X603148Y246068D02*X616928D01*
X616927Y236225D02*X616928Y236226D01*
X593306Y236225D02*X616927D01*
Y295280D02*X616928Y295281D01*
X603148Y285438D02*X616928D01*
X616927Y275595D02*X616928Y275596D01*
X593306Y275595D02*X616927D01*
X603148Y226383D02*X616928D01*
X603148Y187013D02*X616928D01*
X593306Y196856D02*X616928D01*
X603148Y206698D02*X616928D01*
X593306Y157486D02*X616928D01*
X603148Y167328D02*X616928D01*
X593306Y177171D02*X616928D01*
X603148Y127958D02*X616928D01*
X593306Y137800D02*X616928D01*
X603148Y147643D02*X616928D01*
X593306Y98430D02*X616928D01*
X603148Y108273D02*X616928D01*
X593306Y118115D02*X616928D01*
X603148Y68903D02*X616928D01*
X593306Y78745D02*X616928D01*
X593306Y334651D02*X616928D01*
X603148Y324808D02*X616928D01*
X603148Y305123D02*X616928D01*
X593306Y295280D02*X616927D01*
X603148Y88588D02*X616534D01*
X616928Y88194D01*
X593306Y59060D02*X616928D01*
X603148Y49218D02*X616928D01*
X598030Y375202D02*X629920D01*
X598030D02*Y353155D01*
X629920D01*
X598030Y18509D02*X629920D01*
X598030Y40556D02*Y18509D01*
Y40556D02*X629920D01*
X258780Y29532D02*G75*G03X258780Y29532I5000J0D01*G01*
X364016Y349492D02*X384016D01*
Y339492D01*
X364016D01*
Y349492D01*
Y310122D02*X384016D01*
Y300122D01*
X364016D01*
Y310122D01*
Y231382D02*X384016D01*
Y221382D01*
X364016D01*
Y231382D01*
Y211697D02*X384016D01*
Y201697D01*
X364016D01*
Y211697D01*
Y192012D02*X384016D01*
Y182012D01*
X364016D01*
Y192012D01*
Y172327D02*X384016D01*
Y162327D01*
X364016D01*
Y172327D01*
X10000Y393705D02*X0D01*
Y383705D01*
G54D22*X55118Y196855D02*X61024D01*
X47244Y200792D02*Y202760D01*
Y192918D02*Y190949D01*
G54D25*X364016Y329807D02*X384016D01*
Y319807D01*
X364016D01*
Y329807D01*
X423071Y339650D02*X443071D01*
Y329650D01*
X423071D01*
Y339650D01*
Y319965D02*X443071D01*
Y309965D01*
X423071D01*
Y319965D01*
X364016Y290437D02*X384016D01*
Y280437D01*
X364016D01*
Y290437D01*
Y270752D02*X384016D01*
Y260752D01*
X364016D01*
Y270752D01*
Y251067D02*X384016D01*
Y241067D01*
X364016D01*
Y251067D01*
X423071Y300280D02*X443071D01*
Y290280D01*
X423071D01*
Y300280D01*
Y280595D02*X443071D01*
Y270595D01*
X423071D01*
Y280595D01*
Y260910D02*X443071D01*
Y250910D01*
X423071D01*
Y260910D01*
X364016Y152642D02*X384016D01*
Y142642D01*
X364016D01*
Y152642D01*
Y132957D02*X384016D01*
Y122957D01*
X364016D01*
Y132957D01*
Y113272D02*X384016D01*
Y103272D01*
X364016D01*
Y113272D01*
Y93587D02*X384016D01*
Y83587D01*
X364016D01*
Y93587D01*
Y73902D02*X384016D01*
Y63902D01*
X364016D01*
Y73902D01*
Y54217D02*X384016D01*
Y44217D01*
X364016D01*
Y54217D01*
X423071Y241225D02*X443071D01*
Y231225D01*
X423071D01*
Y241225D01*
Y221540D02*X443071D01*
Y211540D01*
X423071D01*
Y221540D01*
Y201855D02*X443071D01*
Y191855D01*
X423071D01*
Y201855D01*
Y182170D02*X443071D01*
Y172170D01*
X423071D01*
Y182170D01*
Y162485D02*X443071D01*
Y152485D01*
X423071D01*
Y162485D01*
Y142800D02*X443071D01*
Y132800D01*
X423071D01*
Y142800D01*
Y123115D02*X443071D01*
Y113115D01*
X423071D01*
Y123115D01*
Y103429D02*X443071D01*
Y93429D01*
X423071D01*
Y103429D01*
Y83744D02*X443071D01*
Y73744D01*
X423071D01*
Y83744D01*
Y64059D02*X443071D01*
Y54059D01*
X423071D01*
Y64059D01*
X348425Y346460D02*Y342460D01*
Y344460D02*X350425Y346460D01*
X348425Y344460D02*X350425Y342460D01*
X352126D02*X353126D01*
X352626Y346460D02*Y342460D01*
X351626Y345460D02*X352626Y346460D01*
X354327Y342960D02*X354827Y342460D01*
X354327Y345960D02*Y342960D01*
Y345960D02*X354827Y346460D01*
X355827D01*
X356327Y345960D01*
Y342960D01*
X355827Y342460D02*X356327Y342960D01*
X354827Y342460D02*X355827D01*
X354327Y343460D02*X356327Y345460D01*
X358028Y342460D02*X359028D01*
X358528Y346460D02*Y342460D01*
X357528Y345460D02*X358528Y346460D01*
X348425Y248035D02*Y244035D01*
Y246035D02*X350425Y248035D01*
X348425Y246035D02*X350425Y244035D01*
X352126D02*X353126D01*
X352626Y248035D02*Y244035D01*
X351626Y247035D02*X352626Y248035D01*
X354827Y244035D02*X355827D01*
X355327Y248035D02*Y244035D01*
X354327Y247035D02*X355327Y248035D01*
X357528Y244035D02*X358528D01*
X358028Y248035D02*Y244035D01*
X357028Y247035D02*X358028Y248035D01*
X348425Y326775D02*Y322775D01*
Y324775D02*X350425Y326775D01*
X348425Y324775D02*X350425Y322775D01*
X352126D02*X353126D01*
X352626Y326775D02*Y322775D01*
X351626Y325775D02*X352626Y326775D01*
X354327Y323275D02*X354827Y322775D01*
X354327Y326275D02*Y323275D01*
Y326275D02*X354827Y326775D01*
X355827D01*
X356327Y326275D01*
Y323275D01*
X355827Y322775D02*X356327Y323275D01*
X354827Y322775D02*X355827D01*
X354327Y323775D02*X356327Y325775D01*
X357528Y326275D02*X358028Y326775D01*
X359028D01*
X359528Y326275D01*
Y323275D01*
X359028Y322775D02*X359528Y323275D01*
X358028Y322775D02*X359028D01*
X357528Y323275D02*X358028Y322775D01*
Y324775D02*X359528D01*
X348425Y307090D02*Y303090D01*
Y305090D02*X350425Y307090D01*
X348425Y305090D02*X350425Y303090D01*
X352126D02*X353126D01*
X352626Y307090D02*Y303090D01*
X351626Y306090D02*X352626Y307090D01*
X354327Y303590D02*X354827Y303090D01*
X354327Y306590D02*Y303590D01*
Y306590D02*X354827Y307090D01*
X355827D01*
X356327Y306590D01*
Y303590D01*
X355827Y303090D02*X356327Y303590D01*
X354827Y303090D02*X355827D01*
X354327Y304090D02*X356327Y306090D01*
X357528Y307090D02*X359528D01*
X357528D02*Y305090D01*
X358028Y305590D01*
X359028D01*
X359528Y305090D01*
Y303590D01*
X359028Y303090D02*X359528Y303590D01*
X358028Y303090D02*X359028D01*
X357528Y303590D02*X358028Y303090D01*
X348425Y287405D02*Y283405D01*
Y285405D02*X350425Y287405D01*
X348425Y285405D02*X350425Y283405D01*
X352126D02*X353126D01*
X352626Y287405D02*Y283405D01*
X351626Y286405D02*X352626Y287405D01*
X354327Y283905D02*X354827Y283405D01*
X354327Y286905D02*Y283905D01*
Y286905D02*X354827Y287405D01*
X355827D01*
X356327Y286905D01*
Y283905D01*
X355827Y283405D02*X356327Y283905D01*
X354827Y283405D02*X355827D01*
X354327Y284405D02*X356327Y286405D01*
X357528Y283405D02*X360028Y285905D01*
Y287405D02*Y285905D01*
X357528Y287405D02*X360028D01*
X407480Y336618D02*Y332618D01*
Y334618D02*X409480Y336618D01*
X407480Y334618D02*X409480Y332618D01*
X411181D02*X412181D01*
X411681Y336618D02*Y332618D01*
X410681Y335618D02*X411681Y336618D01*
X413382Y333118D02*X413882Y332618D01*
X413382Y336118D02*Y333118D01*
Y336118D02*X413882Y336618D01*
X414882D01*
X415382Y336118D01*
Y333118D01*
X414882Y332618D02*X415382Y333118D01*
X413882Y332618D02*X414882D01*
X413382Y333618D02*X415382Y335618D01*
X416583Y336118D02*X417083Y336618D01*
X418583D01*
X419083Y336118D01*
Y335118D01*
X416583Y332618D02*X419083Y335118D01*
X416583Y332618D02*X419083D01*
X407480Y316933D02*Y312933D01*
Y314933D02*X409480Y316933D01*
X407480Y314933D02*X409480Y312933D01*
X411181D02*X412181D01*
X411681Y316933D02*Y312933D01*
X410681Y315933D02*X411681Y316933D01*
X413382Y313433D02*X413882Y312933D01*
X413382Y316433D02*Y313433D01*
Y316433D02*X413882Y316933D01*
X414882D01*
X415382Y316433D01*
Y313433D01*
X414882Y312933D02*X415382Y313433D01*
X413882Y312933D02*X414882D01*
X413382Y313933D02*X415382Y315933D01*
X416583Y314933D02*X418583Y316933D01*
X416583Y314933D02*X419083D01*
X418583Y316933D02*Y312933D01*
X407480Y297248D02*Y293248D01*
Y295248D02*X409480Y297248D01*
X407480Y295248D02*X409480Y293248D01*
X411181D02*X412181D01*
X411681Y297248D02*Y293248D01*
X410681Y296248D02*X411681Y297248D01*
X413382Y293748D02*X413882Y293248D01*
X413382Y296748D02*Y293748D01*
Y296748D02*X413882Y297248D01*
X414882D01*
X415382Y296748D01*
Y293748D01*
X414882Y293248D02*X415382Y293748D01*
X413882Y293248D02*X414882D01*
X413382Y294248D02*X415382Y296248D01*
X418083Y297248D02*X418583Y296748D01*
X417083Y297248D02*X418083D01*
X416583Y296748D02*X417083Y297248D01*
X416583Y296748D02*Y293748D01*
X417083Y293248D01*
X418083Y295248D02*X418583Y294748D01*
X416583Y295248D02*X418083D01*
X417083Y293248D02*X418083D01*
X418583Y293748D01*
Y294748D02*Y293748D01*
X407480Y277563D02*Y273563D01*
Y275563D02*X409480Y277563D01*
X407480Y275563D02*X409480Y273563D01*
X411181D02*X412181D01*
X411681Y277563D02*Y273563D01*
X410681Y276563D02*X411681Y277563D01*
X413382Y274063D02*X413882Y273563D01*
X413382Y277063D02*Y274063D01*
Y277063D02*X413882Y277563D01*
X414882D01*
X415382Y277063D01*
Y274063D01*
X414882Y273563D02*X415382Y274063D01*
X413882Y273563D02*X414882D01*
X413382Y274563D02*X415382Y276563D01*
X416583Y274063D02*X417083Y273563D01*
X416583Y275063D02*Y274063D01*
Y275063D02*X417083Y275563D01*
X418083D01*
X418583Y275063D01*
Y274063D01*
X418083Y273563D02*X418583Y274063D01*
X417083Y273563D02*X418083D01*
X416583Y276063D02*X417083Y275563D01*
X416583Y277063D02*Y276063D01*
Y277063D02*X417083Y277563D01*
X418083D01*
X418583Y277063D01*
Y276063D01*
X418083Y275563D02*X418583Y276063D01*
X407480Y257878D02*Y253878D01*
Y255878D02*X409480Y257878D01*
X407480Y255878D02*X409480Y253878D01*
X411181D02*X412181D01*
X411681Y257878D02*Y253878D01*
X410681Y256878D02*X411681Y257878D01*
X413882Y253878D02*X414882D01*
X414382Y257878D02*Y253878D01*
X413382Y256878D02*X414382Y257878D01*
X416083Y254378D02*X416583Y253878D01*
X416083Y257378D02*Y254378D01*
Y257378D02*X416583Y257878D01*
X417583D01*
X418083Y257378D01*
Y254378D01*
X417583Y253878D02*X418083Y254378D01*
X416583Y253878D02*X417583D01*
X416083Y254878D02*X418083Y256878D01*
X407480Y238193D02*Y234193D01*
Y236193D02*X409480Y238193D01*
X407480Y236193D02*X409480Y234193D01*
X411181D02*X412181D01*
X411681Y238193D02*Y234193D01*
X410681Y237193D02*X411681Y238193D01*
X413882Y234193D02*X414882D01*
X414382Y238193D02*Y234193D01*
X413382Y237193D02*X414382Y238193D01*
X416083Y237693D02*X416583Y238193D01*
X418083D01*
X418583Y237693D01*
Y236693D01*
X416083Y234193D02*X418583Y236693D01*
X416083Y234193D02*X418583D01*
X254780Y42032D02*X256780D01*
X255780D02*Y38032D01*
X258481Y42032D02*Y38032D01*
X257981Y42032D02*X259981D01*
X260481Y41532D01*
Y40532D01*
X259981Y40032D02*X260481Y40532D01*
X258481Y40032D02*X259981D01*
X262182Y38032D02*X263182D01*
X262682Y42032D02*Y38032D01*
X261682Y41032D02*X262682Y42032D01*
X264383Y38532D02*X264883Y38032D01*
X264383Y41532D02*Y38532D01*
Y41532D02*X264883Y42032D01*
X265883D01*
X266383Y41532D01*
Y38532D01*
X265883Y38032D02*X266383Y38532D01*
X264883Y38032D02*X265883D01*
X264383Y39032D02*X266383Y41032D01*
X268084Y38032D02*X269084D01*
X268584Y42032D02*Y38032D01*
X267584Y41032D02*X268584Y42032D01*
X43306Y350397D02*X46806D01*
X47306Y350897D01*
Y351897D02*Y350897D01*
Y351897D02*X46806Y352397D01*
X43306D02*X46806D01*
X47306Y355098D02*Y354098D01*
X43306Y354598D02*X47306D01*
X44306Y353598D02*X43306Y354598D01*
X46806Y356299D02*X47306Y356799D01*
X43806Y356299D02*X46806D01*
X43806D02*X43306Y356799D01*
Y357799D02*Y356799D01*
Y357799D02*X43806Y358299D01*
X46806D01*
X47306Y357799D02*X46806Y358299D01*
X47306Y357799D02*Y356799D01*
X46306Y356299D02*X44306Y358299D01*
X47306Y361000D02*Y360000D01*
X43306Y360500D02*X47306D01*
X44306Y359500D02*X43306Y360500D01*
X348425Y267720D02*Y263720D01*
Y265720D02*X350425Y267720D01*
X348425Y265720D02*X350425Y263720D01*
X352126D02*X353126D01*
X352626Y267720D02*Y263720D01*
X351626Y266720D02*X352626Y267720D01*
X354327Y264220D02*X354827Y263720D01*
X354327Y267220D02*Y264220D01*
Y267220D02*X354827Y267720D01*
X355827D01*
X356327Y267220D01*
Y264220D01*
X355827Y263720D02*X356327Y264220D01*
X354827Y263720D02*X355827D01*
X354327Y264720D02*X356327Y266720D01*
X357528Y263720D02*X359528Y265720D01*
Y267220D02*Y265720D01*
X359028Y267720D02*X359528Y267220D01*
X358028Y267720D02*X359028D01*
X357528Y267220D02*X358028Y267720D01*
X357528Y267220D02*Y266220D01*
X358028Y265720D01*
X359528D01*
X348425Y228350D02*Y224350D01*
Y226350D02*X350425Y228350D01*
X348425Y226350D02*X350425Y224350D01*
X352126D02*X353126D01*
X352626Y228350D02*Y224350D01*
X351626Y227350D02*X352626Y228350D01*
X354827Y224350D02*X355827D01*
X355327Y228350D02*Y224350D01*
X354327Y227350D02*X355327Y228350D01*
X357028Y227850D02*X357528Y228350D01*
X358528D01*
X359028Y227850D01*
Y224850D01*
X358528Y224350D02*X359028Y224850D01*
X357528Y224350D02*X358528D01*
X357028Y224850D02*X357528Y224350D01*
Y226350D02*X359028D01*
X348425Y208665D02*Y204665D01*
Y206665D02*X350425Y208665D01*
X348425Y206665D02*X350425Y204665D01*
X352126D02*X353126D01*
X352626Y208665D02*Y204665D01*
X351626Y207665D02*X352626Y208665D01*
X354827Y204665D02*X355827D01*
X355327Y208665D02*Y204665D01*
X354327Y207665D02*X355327Y208665D01*
X357028D02*X359028D01*
X357028D02*Y206665D01*
X357528Y207165D01*
X358528D01*
X359028Y206665D01*
Y205165D01*
X358528Y204665D02*X359028Y205165D01*
X357528Y204665D02*X358528D01*
X357028Y205165D02*X357528Y204665D01*
X348425Y188980D02*Y184980D01*
Y186980D02*X350425Y188980D01*
X348425Y186980D02*X350425Y184980D01*
X352126D02*X353126D01*
X352626Y188980D02*Y184980D01*
X351626Y187980D02*X352626Y188980D01*
X354827Y184980D02*X355827D01*
X355327Y188980D02*Y184980D01*
X354327Y187980D02*X355327Y188980D01*
X357028Y184980D02*X359528Y187480D01*
Y188980D02*Y187480D01*
X357028Y188980D02*X359528D01*
X580906Y354334D02*Y350334D01*
Y352334D02*X582906Y354334D01*
X580906Y352334D02*X582906Y350334D01*
X584607D02*X585607D01*
X585107Y354334D02*Y350334D01*
X584107Y353334D02*X585107Y354334D01*
X586808Y350834D02*X587308Y350334D01*
X586808Y353834D02*Y350834D01*
Y353834D02*X587308Y354334D01*
X588308D01*
X588808Y353834D01*
Y350834D01*
X588308Y350334D02*X588808Y350834D01*
X587308Y350334D02*X588308D01*
X586808Y351334D02*X588808Y353334D01*
X590509Y350334D02*X591509D01*
X591009Y354334D02*Y350334D01*
X590009Y353334D02*X591009Y354334D01*
X348425Y70870D02*Y66870D01*
Y68870D02*X350425Y70870D01*
X348425Y68870D02*X350425Y66870D01*
X352126D02*X353126D01*
X352626Y70870D02*Y66870D01*
X351626Y69870D02*X352626Y70870D01*
X354327Y70370D02*X354827Y70870D01*
X356327D01*
X356827Y70370D01*
Y69370D01*
X354327Y66870D02*X356827Y69370D01*
X354327Y66870D02*X356827D01*
X358028D02*X360028Y68870D01*
Y70370D02*Y68870D01*
X359528Y70870D02*X360028Y70370D01*
X358528Y70870D02*X359528D01*
X358028Y70370D02*X358528Y70870D01*
X358028Y70370D02*Y69370D01*
X358528Y68870D01*
X360028D01*
X348425Y51185D02*Y47185D01*
Y49185D02*X350425Y51185D01*
X348425Y49185D02*X350425Y47185D01*
X352126D02*X353126D01*
X352626Y51185D02*Y47185D01*
X351626Y50185D02*X352626Y51185D01*
X354327Y50685D02*X354827Y51185D01*
X355827D01*
X356327Y50685D01*
Y47685D01*
X355827Y47185D02*X356327Y47685D01*
X354827Y47185D02*X355827D01*
X354327Y47685D02*X354827Y47185D01*
Y49185D02*X356327D01*
X358028Y47185D02*X359028D01*
X358528Y51185D02*Y47185D01*
X357528Y50185D02*X358528Y51185D01*
X407480Y139768D02*Y135768D01*
Y137768D02*X409480Y139768D01*
X407480Y137768D02*X409480Y135768D01*
X411181D02*X412181D01*
X411681Y139768D02*Y135768D01*
X410681Y138768D02*X411681Y139768D01*
X413382Y139268D02*X413882Y139768D01*
X415382D01*
X415882Y139268D01*
Y138268D01*
X413382Y135768D02*X415882Y138268D01*
X413382Y135768D02*X415882D01*
X417083Y139268D02*X417583Y139768D01*
X419083D01*
X419583Y139268D01*
Y138268D01*
X417083Y135768D02*X419583Y138268D01*
X417083Y135768D02*X419583D01*
X407480Y120083D02*Y116083D01*
Y118083D02*X409480Y120083D01*
X407480Y118083D02*X409480Y116083D01*
X411181D02*X412181D01*
X411681Y120083D02*Y116083D01*
X410681Y119083D02*X411681Y120083D01*
X413382Y119583D02*X413882Y120083D01*
X415382D01*
X415882Y119583D01*
Y118583D01*
X413382Y116083D02*X415882Y118583D01*
X413382Y116083D02*X415882D01*
X417083Y118083D02*X419083Y120083D01*
X417083Y118083D02*X419583D01*
X419083Y120083D02*Y116083D01*
X407480Y100397D02*Y96397D01*
Y98397D02*X409480Y100397D01*
X407480Y98397D02*X409480Y96397D01*
X411181D02*X412181D01*
X411681Y100397D02*Y96397D01*
X410681Y99397D02*X411681Y100397D01*
X413382Y99897D02*X413882Y100397D01*
X415382D01*
X415882Y99897D01*
Y98897D01*
X413382Y96397D02*X415882Y98897D01*
X413382Y96397D02*X415882D01*
X418583Y100397D02*X419083Y99897D01*
X417583Y100397D02*X418583D01*
X417083Y99897D02*X417583Y100397D01*
X417083Y99897D02*Y96897D01*
X417583Y96397D01*
X418583Y98397D02*X419083Y97897D01*
X417083Y98397D02*X418583D01*
X417583Y96397D02*X418583D01*
X419083Y96897D01*
Y97897D02*Y96897D01*
X407480Y80712D02*Y76712D01*
Y78712D02*X409480Y80712D01*
X407480Y78712D02*X409480Y76712D01*
X411181D02*X412181D01*
X411681Y80712D02*Y76712D01*
X410681Y79712D02*X411681Y80712D01*
X413382Y80212D02*X413882Y80712D01*
X415382D01*
X415882Y80212D01*
Y79212D01*
X413382Y76712D02*X415882Y79212D01*
X413382Y76712D02*X415882D01*
X417083Y77212D02*X417583Y76712D01*
X417083Y78212D02*Y77212D01*
Y78212D02*X417583Y78712D01*
X418583D01*
X419083Y78212D01*
Y77212D01*
X418583Y76712D02*X419083Y77212D01*
X417583Y76712D02*X418583D01*
X417083Y79212D02*X417583Y78712D01*
X417083Y80212D02*Y79212D01*
Y80212D02*X417583Y80712D01*
X418583D01*
X419083Y80212D01*
Y79212D01*
X418583Y78712D02*X419083Y79212D01*
X407480Y61027D02*Y57027D01*
Y59027D02*X409480Y61027D01*
X407480Y59027D02*X409480Y57027D01*
X411181D02*X412181D01*
X411681Y61027D02*Y57027D01*
X410681Y60027D02*X411681Y61027D01*
X413382Y60527D02*X413882Y61027D01*
X414882D01*
X415382Y60527D01*
Y57527D01*
X414882Y57027D02*X415382Y57527D01*
X413882Y57027D02*X414882D01*
X413382Y57527D02*X413882Y57027D01*
Y59027D02*X415382D01*
X416583Y57527D02*X417083Y57027D01*
X416583Y60527D02*Y57527D01*
Y60527D02*X417083Y61027D01*
X418083D01*
X418583Y60527D01*
Y57527D01*
X418083Y57027D02*X418583Y57527D01*
X417083Y57027D02*X418083D01*
X416583Y58027D02*X418583Y60027D01*
X348425Y169295D02*Y165295D01*
Y167295D02*X350425Y169295D01*
X348425Y167295D02*X350425Y165295D01*
X352126D02*X353126D01*
X352626Y169295D02*Y165295D01*
X351626Y168295D02*X352626Y169295D01*
X354827Y165295D02*X355827D01*
X355327Y169295D02*Y165295D01*
X354327Y168295D02*X355327Y169295D01*
X357028Y165295D02*X359028Y167295D01*
Y168795D02*Y167295D01*
X358528Y169295D02*X359028Y168795D01*
X357528Y169295D02*X358528D01*
X357028Y168795D02*X357528Y169295D01*
X357028Y168795D02*Y167795D01*
X357528Y167295D01*
X359028D01*
X348425Y149610D02*Y145610D01*
Y147610D02*X350425Y149610D01*
X348425Y147610D02*X350425Y145610D01*
X352126D02*X353126D01*
X352626Y149610D02*Y145610D01*
X351626Y148610D02*X352626Y149610D01*
X354327Y149110D02*X354827Y149610D01*
X356327D01*
X356827Y149110D01*
Y148110D01*
X354327Y145610D02*X356827Y148110D01*
X354327Y145610D02*X356827D01*
X358528D02*X359528D01*
X359028Y149610D02*Y145610D01*
X358028Y148610D02*X359028Y149610D01*
X348425Y129925D02*Y125925D01*
Y127925D02*X350425Y129925D01*
X348425Y127925D02*X350425Y125925D01*
X352126D02*X353126D01*
X352626Y129925D02*Y125925D01*
X351626Y128925D02*X352626Y129925D01*
X354327Y129425D02*X354827Y129925D01*
X356327D01*
X356827Y129425D01*
Y128425D01*
X354327Y125925D02*X356827Y128425D01*
X354327Y125925D02*X356827D01*
X358028Y129425D02*X358528Y129925D01*
X359528D01*
X360028Y129425D01*
Y126425D01*
X359528Y125925D02*X360028Y126425D01*
X358528Y125925D02*X359528D01*
X358028Y126425D02*X358528Y125925D01*
Y127925D02*X360028D01*
X348425Y110240D02*Y106240D01*
Y108240D02*X350425Y110240D01*
X348425Y108240D02*X350425Y106240D01*
X352126D02*X353126D01*
X352626Y110240D02*Y106240D01*
X351626Y109240D02*X352626Y110240D01*
X354327Y109740D02*X354827Y110240D01*
X356327D01*
X356827Y109740D01*
Y108740D01*
X354327Y106240D02*X356827Y108740D01*
X354327Y106240D02*X356827D01*
X358028Y110240D02*X360028D01*
X358028D02*Y108240D01*
X358528Y108740D01*
X359528D01*
X360028Y108240D01*
Y106740D01*
X359528Y106240D02*X360028Y106740D01*
X358528Y106240D02*X359528D01*
X358028Y106740D02*X358528Y106240D01*
X348425Y90555D02*Y86555D01*
Y88555D02*X350425Y90555D01*
X348425Y88555D02*X350425Y86555D01*
X352126D02*X353126D01*
X352626Y90555D02*Y86555D01*
X351626Y89555D02*X352626Y90555D01*
X354327Y90055D02*X354827Y90555D01*
X356327D01*
X356827Y90055D01*
Y89055D01*
X354327Y86555D02*X356827Y89055D01*
X354327Y86555D02*X356827D01*
X358028D02*X360528Y89055D01*
Y90555D02*Y89055D01*
X358028Y90555D02*X360528D01*
X407480Y218508D02*Y214508D01*
Y216508D02*X409480Y218508D01*
X407480Y216508D02*X409480Y214508D01*
X411181D02*X412181D01*
X411681Y218508D02*Y214508D01*
X410681Y217508D02*X411681Y218508D01*
X413882Y214508D02*X414882D01*
X414382Y218508D02*Y214508D01*
X413382Y217508D02*X414382Y218508D01*
X416083Y216508D02*X418083Y218508D01*
X416083Y216508D02*X418583D01*
X418083Y218508D02*Y214508D01*
X407480Y198823D02*Y194823D01*
Y196823D02*X409480Y198823D01*
X407480Y196823D02*X409480Y194823D01*
X411181D02*X412181D01*
X411681Y198823D02*Y194823D01*
X410681Y197823D02*X411681Y198823D01*
X413882Y194823D02*X414882D01*
X414382Y198823D02*Y194823D01*
X413382Y197823D02*X414382Y198823D01*
X417583D02*X418083Y198323D01*
X416583Y198823D02*X417583D01*
X416083Y198323D02*X416583Y198823D01*
X416083Y198323D02*Y195323D01*
X416583Y194823D01*
X417583Y196823D02*X418083Y196323D01*
X416083Y196823D02*X417583D01*
X416583Y194823D02*X417583D01*
X418083Y195323D01*
Y196323D02*Y195323D01*
X407480Y179138D02*Y175138D01*
Y177138D02*X409480Y179138D01*
X407480Y177138D02*X409480Y175138D01*
X411181D02*X412181D01*
X411681Y179138D02*Y175138D01*
X410681Y178138D02*X411681Y179138D01*
X413882Y175138D02*X414882D01*
X414382Y179138D02*Y175138D01*
X413382Y178138D02*X414382Y179138D01*
X416083Y175638D02*X416583Y175138D01*
X416083Y176638D02*Y175638D01*
Y176638D02*X416583Y177138D01*
X417583D01*
X418083Y176638D01*
Y175638D01*
X417583Y175138D02*X418083Y175638D01*
X416583Y175138D02*X417583D01*
X416083Y177638D02*X416583Y177138D01*
X416083Y178638D02*Y177638D01*
Y178638D02*X416583Y179138D01*
X417583D01*
X418083Y178638D01*
Y177638D01*
X417583Y177138D02*X418083Y177638D01*
X407480Y159453D02*Y155453D01*
Y157453D02*X409480Y159453D01*
X407480Y157453D02*X409480Y155453D01*
X411181D02*X412181D01*
X411681Y159453D02*Y155453D01*
X410681Y158453D02*X411681Y159453D01*
X413382Y158953D02*X413882Y159453D01*
X415382D01*
X415882Y158953D01*
Y157953D01*
X413382Y155453D02*X415882Y157953D01*
X413382Y155453D02*X415882D01*
X417083Y155953D02*X417583Y155453D01*
X417083Y158953D02*Y155953D01*
Y158953D02*X417583Y159453D01*
X418583D01*
X419083Y158953D01*
Y155953D01*
X418583Y155453D02*X419083Y155953D01*
X417583Y155453D02*X418583D01*
X417083Y156453D02*X419083Y158453D01*
M02*
