G04 start of page 3 for group 1 idx 1 *
G04 Title: 31_front_pcb.pcb, solder *
G04 Creator: pcb 20100929 *
G04 CreationDate: Sat Sep 29 18:10:19 2012 UTC *
G04 For: bert *
G04 Format: Gerber/RS-274X *
G04 PCB-Dimensions: 196850 393701 *
G04 PCB-Coordinate-Origin: lower left *
%MOIN*%
%FSLAX25Y25*%
%LNBACK*%
%ADD11C,0.0650*%
%ADD12C,0.0200*%
%ADD13C,0.0600*%
%ADD14C,0.0400*%
%ADD15C,0.1260*%
%ADD16C,0.0460*%
%ADD17C,0.0350*%
%ADD18C,0.0250*%
G54D18*X15748Y226378D02*X90551D01*
X15748Y206693D02*X90551D01*
X15748Y167323D02*X90551D01*
X15748Y187008D02*X90551D01*
X15748Y147638D02*X90551D01*
X15748Y127953D02*X90551D01*
X15748Y108268D02*X90551D01*
X15748Y88583D02*X90551D01*
X15748Y255906D02*X110236D01*
X15748Y275591D02*X110236D01*
X15748Y265748D02*X90551D01*
X15748Y344488D02*X90550D01*
X15748Y324803D02*X90552D01*
X15748Y334646D02*X110236D01*
X15748Y314961D02*X110236D01*
X15748Y305118D02*X90552D01*
X15748Y295276D02*X110236D01*
X15748Y285433D02*X90551D01*
X15748Y246063D02*X90551D01*
X15748Y236221D02*X110236D01*
X15748Y216536D02*X110236D01*
X15748Y196851D02*X110236D01*
X15748Y177166D02*X110236D01*
X15748Y157481D02*X110236D01*
X15748Y137795D02*X110236D01*
X15748Y118110D02*X110236D01*
X15748Y98425D02*X110236D01*
X15748Y78740D02*X110236D01*
X15748Y49213D02*X90551D01*
X15748Y59055D02*X157480D01*
X15748Y68898D02*X90551D01*
G54D11*X90552Y265748D03*
X110236Y255906D03*
Y236221D03*
Y216536D03*
X90552Y246063D03*
Y226378D03*
Y206693D03*
Y187008D03*
Y167323D03*
X110236Y314961D03*
X90552Y305118D03*
X110236Y295276D03*
X90552Y285433D03*
G54D12*G36*
X87302Y347738D02*Y341238D01*
X93802D01*
Y347738D01*
X87302D01*
G37*
G54D11*X110236Y334646D03*
X90552Y324803D03*
X110236Y275591D03*
Y196851D03*
Y177166D03*
Y157481D03*
X90552Y147638D03*
Y127953D03*
Y108268D03*
Y88583D03*
X110236Y137796D03*
Y118111D03*
Y98426D03*
Y78741D03*
X90552Y68898D03*
Y49213D03*
X157480Y59055D03*
X110236Y59056D03*
G54D12*G36*
X12748Y347488D02*Y341488D01*
X18748D01*
Y347488D01*
X12748D01*
G37*
G54D13*X15748Y334646D03*
Y324803D03*
Y314961D03*
Y305118D03*
Y295276D03*
Y285433D03*
Y275591D03*
Y265748D03*
Y255906D03*
Y246063D03*
Y236221D03*
Y226378D03*
Y216536D03*
Y206693D03*
Y196851D03*
Y187008D03*
Y177166D03*
Y167323D03*
Y157481D03*
Y147638D03*
Y137795D03*
Y127953D03*
Y118110D03*
Y108268D03*
Y98425D03*
Y88583D03*
Y78740D03*
Y68898D03*
Y59055D03*
Y49213D03*
G54D14*G54D15*G54D14*G54D16*G54D14*G54D15*G54D17*M02*
