M48
INCH
T16C0.052
T18C0.126
T19C0.046
T20C0.035
%
T20
X004724Y034449
X004724Y033465
X004724Y032480
X004724Y031496
X004724Y030512
X004724Y029528
X004724Y028543
X004724Y027559
X004724Y026575
X004724Y025591
X004724Y024606
X004724Y023622
X004724Y022638
X004724Y021654
X004724Y020669
X004724Y019685
X004724Y018701
X004724Y017717
X004724Y016732
X004724Y015748
X004724Y014764
X004724Y013779
X004724Y012795
X004724Y011811
X004724Y010827
X004724Y009842
X004724Y008858
X004724Y007874
X004724Y006890
X004724Y005905
X004724Y004921
X036901Y034449
X037901Y034449
X036901Y032480
X037901Y032480
X036901Y030512
X037901Y030512
X036901Y028543
X037901Y028543
X042807Y033465
X036901Y026575
X036901Y022638
X036901Y020669
X037901Y026575
X037901Y022638
X037901Y020669
X036901Y024606
X037901Y024606
X036901Y018701
X036901Y016732
X036901Y014764
X037901Y018701
X037901Y016732
X037901Y014764
X037901Y012795
X037901Y008858
X037901Y006890
X036901Y010827
X037901Y010827
X036901Y012795
X036901Y008858
X036901Y006890
X036901Y004921
X037901Y004921
X043807Y033465
X042807Y031496
X042807Y029528
X042807Y027559
X043807Y031496
X043807Y029528
X043807Y027559
X043807Y025591
X043807Y023622
X043807Y021654
X042807Y025591
X042807Y023622
X042807Y021654
X043807Y019685
X043807Y015748
X043807Y013780
X042807Y017717
X043807Y017717
X042807Y019685
X042807Y015748
X042807Y013780
X042807Y011811
X042807Y007874
X042807Y005905
X043807Y011811
X043807Y007874
X043807Y005905
X042807Y009842
X043807Y009842
T19
X026378Y002953
T16
X060314Y034449
X059330Y033465
X060314Y032480
X059330Y031496
X060314Y030512
X059330Y029528
X060314Y028543
X059330Y027559
X059330Y025591
X059330Y023622
X060314Y026575
X060314Y024606
X060314Y022638
X059330Y021654
X059330Y019685
X059330Y017717
X059330Y015748
X060314Y020669
X060314Y018701
X060314Y016732
X060314Y014764
X059330Y013780
X059330Y011811
X059330Y009843
X059330Y007874
X059330Y005906
X060314Y012795
X060314Y010827
X060314Y008858
X060314Y006890
X060314Y004921
T18
X031496Y036417
X031496Y002953
M30
