G04 start of page 8 for group -4079 idx -4079 *
G04 Title: 26.007.01.01.01, topsilk *
G04 Creator: pcb 20100929 *
G04 CreationDate: Sat Mar 21 19:59:17 2015 UTC *
G04 For: bert *
G04 Format: Gerber/RS-274X *
G04 PCB-Dimensions: 260000 115000 *
G04 PCB-Coordinate-Origin: lower left *
%MOIN*%
%FSLAX25Y25*%
%LNFRONTSILK*%
%ADD11C,0.0100*%
%ADD32C,0.0000*%
%ADD33C,0.0050*%
G54D11*X0Y0D02*X260000D01*
Y115000D01*
X0D01*
Y0D01*
X230532Y78957D02*X234468D01*
X230532Y86043D02*X234468D01*
G54D32*X223226Y78207D02*X241774D01*
X223226Y86793D02*X241774D01*
Y78207D01*
X223226Y86793D02*Y78207D01*
G54D11*X202342Y105158D02*X208626D01*
X202342D02*Y87842D01*
X205342Y84842D01*
X208626D01*
X216374Y105158D02*X222658D01*
Y87842D01*
X219658Y84842D01*
X216374D02*X219658D01*
G54D32*X201342Y106658D02*X223658D01*
X205342Y83342D02*X219658D01*
X223658Y106658D02*Y87342D01*
X219658Y83342D01*
X201342Y106658D02*Y87342D01*
X205342Y83342D01*
G54D11*X237855Y110374D02*Y93839D01*
X257145Y110374D02*Y93839D01*
X237855Y110374D02*X241300D01*
X257145D02*X253700D01*
X249300Y93839D02*X245700D01*
G54D32*X236855Y113767D02*Y90733D01*
X258145Y113767D02*Y90733D01*
X236855Y113767D02*X258145D01*
Y90733D02*X236855D01*
G54D11*X186851Y30846D02*Y24154D01*
X193149Y30846D02*Y24154D01*
X186851Y30846D02*X193149D01*
G54D32*X185473Y37342D02*X194527D01*
X185473Y17658D02*X194527D01*
Y37342D02*Y17658D01*
X185473Y37342D02*Y17658D01*
G54D11*X203149Y30846D02*Y24154D01*
X196851Y30846D02*Y24154D01*
X203149D01*
G54D32*X195473Y17658D02*X204527D01*
X195473Y37342D02*X204527D01*
X195473D02*Y17658D01*
X204527Y37342D02*Y17658D01*
G54D11*X253149Y30846D02*Y24154D01*
X246851Y30846D02*Y24154D01*
X253149D01*
G54D32*X245473Y17658D02*X254527D01*
X245473Y37342D02*X254527D01*
X245473D02*Y17658D01*
X254527Y37342D02*Y17658D01*
G54D11*X255649Y58346D02*Y51654D01*
X249351Y58346D02*Y51654D01*
X255649D01*
G54D33*X247973Y45158D02*X257027D01*
X247973Y64842D02*X257027D01*
X247973D02*Y45158D01*
X257027Y64842D02*Y45158D01*
G54D11*X228957Y31968D02*Y28032D01*
X236043Y31968D02*Y28032D01*
G54D32*X228207Y39274D02*Y20726D01*
X236793Y39274D02*Y20726D01*
X228207D02*X236793D01*
X228207Y39274D02*X236793D01*
G54D11*X225500Y55276D02*X244500D01*
Y64724D02*Y55276D01*
X225500Y64724D02*X244500D01*
X225500D02*Y55276D01*
G54D32*X224500Y44500D02*X245500D01*
Y75500D02*Y44500D01*
X224500Y75500D02*X245500D01*
X224500D02*Y44500D01*
G54D11*X227500Y56900D02*G75*G03X227500Y56900I0J100D01*G01*
X218957Y14468D02*Y10532D01*
X226043Y14468D02*Y10532D01*
G54D32*X218207Y21774D02*Y3226D01*
X226793Y21774D02*Y3226D01*
X218207D02*X226793D01*
X218207Y21774D02*X226793D01*
G54D11*X211457Y61968D02*Y58032D01*
X218543Y61968D02*Y58032D01*
G54D32*X210707Y69274D02*Y50726D01*
X219293Y69274D02*Y50726D01*
X210707D02*X219293D01*
X210707Y69274D02*X219293D01*
G54D11*X185500Y55276D02*X204500D01*
Y64724D02*Y55276D01*
X185500Y64724D02*X204500D01*
X185500D02*Y55276D01*
G54D32*X184500Y44500D02*X205500D01*
Y75500D02*Y44500D01*
X184500Y75500D02*X205500D01*
X184500D02*Y44500D01*
G54D11*X187500Y56900D02*G75*G03X187500Y56900I0J100D01*G01*
X8957Y36968D02*Y33032D01*
X16043Y36968D02*Y33032D01*
G54D32*X8207Y44274D02*Y25726D01*
X16793Y44274D02*Y25726D01*
X8207D02*X16793D01*
X8207Y44274D02*X16793D01*
G54D11*X28032Y36043D02*X31968D01*
X28032Y28957D02*X31968D01*
G54D32*X20726Y36793D02*X39274D01*
X20726Y28207D02*X39274D01*
X20726D02*Y36793D01*
X39274Y28207D02*Y36793D01*
G54D11*X80000Y10000D02*Y0D01*
X0Y10000D02*X80000D01*
X0Y0D02*X80000D01*
X10000Y10000D02*Y0D01*
X0Y10000D02*Y0D01*
X88957Y14468D02*Y10532D01*
X96043Y14468D02*Y10532D01*
G54D32*X88207Y21774D02*Y3226D01*
X96793Y21774D02*Y3226D01*
X88207D02*X96793D01*
X88207Y21774D02*X96793D01*
G54D11*X8957Y79468D02*Y75532D01*
X16043Y79468D02*Y75532D01*
G54D32*X8207Y86774D02*Y68226D01*
X16793Y86774D02*Y68226D01*
X8207D02*X16793D01*
X8207Y86774D02*X16793D01*
G54D11*X18000Y55276D02*X37000D01*
Y64724D02*Y55276D01*
X18000Y64724D02*X37000D01*
X18000D02*Y55276D01*
G54D32*X17000Y44500D02*X38000D01*
Y75500D02*Y44500D01*
X17000Y75500D02*X38000D01*
X17000D02*Y44500D01*
G54D11*X20000Y56900D02*G75*G03X20000Y56900I0J100D01*G01*
X16043Y59468D02*Y55532D01*
X8957Y59468D02*Y55532D01*
G54D32*X16793Y66774D02*Y48226D01*
X8207Y66774D02*Y48226D01*
Y66774D02*X16793D01*
X8207Y48226D02*X16793D01*
G54D11*X5355Y110374D02*Y93839D01*
X24645Y110374D02*Y93839D01*
X5355Y110374D02*X8800D01*
X24645D02*X21200D01*
X16800Y93839D02*X13200D01*
G54D32*X4355Y113767D02*Y90733D01*
X25645Y113767D02*Y90733D01*
X4355Y113767D02*X25645D01*
Y90733D02*X4355D01*
G54D11*X55500Y55276D02*X74500D01*
Y64724D02*Y55276D01*
X55500Y64724D02*X74500D01*
X55500D02*Y55276D01*
G54D32*X54500Y44500D02*X75500D01*
Y75500D02*Y44500D01*
X54500Y75500D02*X75500D01*
X54500D02*Y44500D01*
G54D11*X57500Y56900D02*G75*G03X57500Y56900I0J100D01*G01*
X73149Y30846D02*Y24154D01*
X66851Y30846D02*Y24154D01*
X73149D01*
G54D32*X65473Y17658D02*X74527D01*
X65473Y37342D02*X74527D01*
X65473D02*Y17658D01*
X74527Y37342D02*Y17658D01*
G54D11*X56851Y30846D02*Y24154D01*
X63149Y30846D02*Y24154D01*
X56851Y30846D02*X63149D01*
G54D32*X55473Y37342D02*X64527D01*
X55473Y17658D02*X64527D01*
Y37342D02*Y17658D01*
X55473Y37342D02*Y17658D01*
G54D11*X41457Y74468D02*Y70532D01*
X48543Y74468D02*Y70532D01*
G54D32*X40707Y81774D02*Y63226D01*
X49293Y81774D02*Y63226D01*
X40707D02*X49293D01*
X40707Y81774D02*X49293D01*
G54D11*X41457Y51968D02*Y48032D01*
X48543Y51968D02*Y48032D01*
G54D32*X40707Y59274D02*Y40726D01*
X49293Y59274D02*Y40726D01*
X40707D02*X49293D01*
X40707Y59274D02*X49293D01*
G54D11*X138957Y79468D02*Y75532D01*
X146043Y79468D02*Y75532D01*
G54D32*X138207Y86774D02*Y68226D01*
X146793Y86774D02*Y68226D01*
X138207D02*X146793D01*
X138207Y86774D02*X146793D01*
G54D11*X138957Y36968D02*Y33032D01*
X146043Y36968D02*Y33032D01*
G54D32*X138207Y44274D02*Y25726D01*
X146793Y44274D02*Y25726D01*
X138207D02*X146793D01*
X138207Y44274D02*X146793D01*
G54D11*X123149Y30846D02*Y24154D01*
X116851Y30846D02*Y24154D01*
X123149D01*
G54D32*X115473Y17658D02*X124527D01*
X115473Y37342D02*X124527D01*
X115473D02*Y17658D01*
X124527Y37342D02*Y17658D01*
G54D11*X98957Y31968D02*Y28032D01*
X106043Y31968D02*Y28032D01*
G54D32*X98207Y39274D02*Y20726D01*
X106793Y39274D02*Y20726D01*
X98207D02*X106793D01*
X98207Y39274D02*X106793D01*
G54D11*X158032Y36043D02*X161968D01*
X158032Y28957D02*X161968D01*
G54D32*X150726Y36793D02*X169274D01*
X150726Y28207D02*X169274D01*
X150726D02*Y36793D01*
X169274Y28207D02*Y36793D01*
G54D11*X40532Y96043D02*X44468D01*
X40532Y88957D02*X44468D01*
G54D32*X33226Y96793D02*X51774D01*
X33226Y88207D02*X51774D01*
X33226D02*Y96793D01*
X51774Y88207D02*Y96793D01*
G54D11*X135355Y110374D02*Y93839D01*
X154645Y110374D02*Y93839D01*
X135355Y110374D02*X138800D01*
X154645D02*X151200D01*
X146800Y93839D02*X143200D01*
G54D32*X134355Y113767D02*Y90733D01*
X155645Y113767D02*Y90733D01*
X134355Y113767D02*X155645D01*
Y90733D02*X134355D01*
G54D11*X72342Y105158D02*X78626D01*
X72342D02*Y87842D01*
X75342Y84842D01*
X78626D01*
X86374Y105158D02*X92658D01*
Y87842D01*
X89658Y84842D01*
X86374D02*X89658D01*
G54D32*X71342Y106658D02*X93658D01*
X75342Y83342D02*X89658D01*
X93658Y106658D02*Y87342D01*
X89658Y83342D01*
X71342Y106658D02*Y87342D01*
X75342Y83342D01*
G54D11*X107855Y110374D02*Y93839D01*
X127145Y110374D02*Y93839D01*
X107855Y110374D02*X111300D01*
X127145D02*X123700D01*
X119300Y93839D02*X115700D01*
G54D32*X106855Y113767D02*Y90733D01*
X128145Y113767D02*Y90733D01*
X106855Y113767D02*X128145D01*
Y90733D02*X106855D01*
G54D11*X100532Y78957D02*X104468D01*
X100532Y86043D02*X104468D01*
G54D32*X93226Y78207D02*X111774D01*
X93226Y86793D02*X111774D01*
Y78207D01*
X93226Y86793D02*Y78207D01*
G54D11*X170532Y96043D02*X174468D01*
X170532Y88957D02*X174468D01*
G54D32*X163226Y96793D02*X181774D01*
X163226Y88207D02*X181774D01*
X163226D02*Y96793D01*
X181774Y88207D02*Y96793D01*
G54D11*X171457Y74468D02*Y70532D01*
X178543Y74468D02*Y70532D01*
G54D32*X170707Y81774D02*Y63226D01*
X179293Y81774D02*Y63226D01*
X170707D02*X179293D01*
X170707Y81774D02*X179293D01*
G54D11*X81457Y61968D02*Y58032D01*
X88543Y61968D02*Y58032D01*
G54D32*X80707Y69274D02*Y50726D01*
X89293Y69274D02*Y50726D01*
X80707D02*X89293D01*
X80707Y69274D02*X89293D01*
G54D11*X125649Y58346D02*Y51654D01*
X119351Y58346D02*Y51654D01*
X125649D01*
G54D32*X117973Y45158D02*X127027D01*
X117973Y64842D02*X127027D01*
X117973D02*Y45158D01*
X127027Y64842D02*Y45158D01*
G54D11*X146043Y59468D02*Y55532D01*
X138957Y59468D02*Y55532D01*
G54D32*X146793Y66774D02*Y48226D01*
X138207Y66774D02*Y48226D01*
Y66774D02*X146793D01*
X138207Y48226D02*X146793D01*
G54D11*X148000Y55276D02*X167000D01*
Y64724D02*Y55276D01*
X148000Y64724D02*X167000D01*
X148000D02*Y55276D01*
G54D32*X147000Y44500D02*X168000D01*
Y75500D02*Y44500D01*
X147000Y75500D02*X168000D01*
X147000D02*Y44500D01*
G54D11*X150000Y56900D02*G75*G03X150000Y56900I0J100D01*G01*
X171457Y51968D02*Y48032D01*
X178543Y51968D02*Y48032D01*
G54D32*X170707Y59274D02*Y40726D01*
X179293Y59274D02*Y40726D01*
X170707D02*X179293D01*
X170707Y59274D02*X179293D01*
G54D11*X95500Y55276D02*X114500D01*
Y64724D02*Y55276D01*
X95500Y64724D02*X114500D01*
X95500D02*Y55276D01*
G54D32*X94500Y44500D02*X115500D01*
Y75500D02*Y44500D01*
X94500Y75500D02*X115500D01*
X94500D02*Y44500D01*
G54D11*X97500Y56900D02*G75*G03X97500Y56900I0J100D01*G01*
X242500Y86500D02*X244500D01*
X245000Y86000D01*
Y85000D01*
X244500Y84500D02*X245000Y85000D01*
X243000Y84500D02*X244500D01*
X243000Y86500D02*Y82500D01*
Y84500D02*X245000Y82500D01*
X246201Y86000D02*X246701Y86500D01*
X247701D01*
X248201Y86000D01*
Y83000D01*
X247701Y82500D02*X248201Y83000D01*
X246701Y82500D02*X247701D01*
X246201Y83000D02*X246701Y82500D01*
Y84500D02*X248201D01*
X250902Y86500D02*X251402Y86000D01*
X249902Y86500D02*X250902D01*
X249402Y86000D02*X249902Y86500D01*
X249402Y86000D02*Y83000D01*
X249902Y82500D01*
X250902Y84500D02*X251402Y84000D01*
X249402Y84500D02*X250902D01*
X249902Y82500D02*X250902D01*
X251402Y83000D01*
Y84000D02*Y83000D01*
X252603D02*X253103Y82500D01*
X252603Y86000D02*Y83000D01*
Y86000D02*X253103Y86500D01*
X254103D01*
X254603Y86000D01*
Y83000D01*
X254103Y82500D02*X254603Y83000D01*
X253103Y82500D02*X254103D01*
X252603Y83500D02*X254603Y85500D01*
X231000Y92500D02*Y90500D01*
Y92500D02*X231500Y93000D01*
X232500D01*
X233000Y92500D02*X232500Y93000D01*
X233000Y92500D02*Y91000D01*
X231000D02*X235000D01*
X233000D02*X235000Y93000D01*
X231500Y94201D02*X231000Y94701D01*
Y95701D02*Y94701D01*
Y95701D02*X231500Y96201D01*
X234500D01*
X235000Y95701D02*X234500Y96201D01*
X235000Y95701D02*Y94701D01*
X234500Y94201D02*X235000Y94701D01*
X233000Y96201D02*Y94701D01*
X231000Y98902D02*X231500Y99402D01*
X231000Y98902D02*Y97902D01*
X231500Y97402D02*X231000Y97902D01*
X231500Y97402D02*X234500D01*
X235000Y97902D01*
X233000Y98902D02*X233500Y99402D01*
X233000Y98902D02*Y97402D01*
X235000Y98902D02*Y97902D01*
Y98902D02*X234500Y99402D01*
X233500D02*X234500D01*
X235000Y102103D02*Y101103D01*
X231000Y101603D02*X235000D01*
X232000Y100603D02*X231000Y101603D01*
X207000Y19500D02*X211000D01*
X207000Y21000D02*X207500Y21500D01*
X210500D01*
X211000Y21000D02*X210500Y21500D01*
X211000Y21000D02*Y19000D01*
X207000Y21000D02*Y19000D01*
X207500Y22701D02*X207000Y23201D01*
Y24201D02*Y23201D01*
Y24201D02*X207500Y24701D01*
X210500D01*
X211000Y24201D02*X210500Y24701D01*
X211000Y24201D02*Y23201D01*
X210500Y22701D02*X211000Y23201D01*
X209000Y24701D02*Y23201D01*
X207000Y27902D02*Y25902D01*
X209000D01*
X208500Y26402D01*
Y27402D02*Y26402D01*
Y27402D02*X209000Y27902D01*
X210500D01*
X211000Y27402D02*X210500Y27902D01*
X211000Y27402D02*Y26402D01*
X210500Y25902D02*X211000Y26402D01*
X207500Y29103D02*X207000Y29603D01*
Y31103D02*Y29603D01*
Y31103D02*X207500Y31603D01*
X208500D01*
X211000Y29103D02*X208500Y31603D01*
X211000D02*Y29103D01*
X240500Y19500D02*X244500D01*
X240500Y21000D02*X241000Y21500D01*
X244000D01*
X244500Y21000D02*X244000Y21500D01*
X244500Y21000D02*Y19000D01*
X240500Y21000D02*Y19000D01*
X241000Y22701D02*X240500Y23201D01*
Y24201D02*Y23201D01*
Y24201D02*X241000Y24701D01*
X244000D01*
X244500Y24201D02*X244000Y24701D01*
X244500Y24201D02*Y23201D01*
X244000Y22701D02*X244500Y23201D01*
X242500Y24701D02*Y23201D01*
X240500Y27902D02*Y25902D01*
X242500D01*
X242000Y26402D01*
Y27402D02*Y26402D01*
Y27402D02*X242500Y27902D01*
X244000D01*
X244500Y27402D02*X244000Y27902D01*
X244500Y27402D02*Y26402D01*
X244000Y25902D02*X244500Y26402D01*
X242500Y29103D02*X240500Y31103D01*
X242500Y31603D02*Y29103D01*
X240500Y31103D02*X244500D01*
X223500Y27000D02*Y25000D01*
Y27000D02*X224000Y27500D01*
X225000D01*
X225500Y27000D02*X225000Y27500D01*
X225500Y27000D02*Y25500D01*
X223500D02*X227500D01*
X225500D02*X227500Y27500D01*
X224000Y28701D02*X223500Y29201D01*
Y30201D02*Y29201D01*
Y30201D02*X224000Y30701D01*
X227000D01*
X227500Y30201D02*X227000Y30701D01*
X227500Y30201D02*Y29201D01*
X227000Y28701D02*X227500Y29201D01*
X225500Y30701D02*Y29201D01*
X223500Y33902D02*Y31902D01*
X225500D01*
X225000Y32402D01*
Y33402D02*Y32402D01*
Y33402D02*X225500Y33902D01*
X227000D01*
X227500Y33402D02*X227000Y33902D01*
X227500Y33402D02*Y32402D01*
X227000Y31902D02*X227500Y32402D01*
Y35103D02*X225500Y37103D01*
X224000D02*X225500D01*
X223500Y36603D02*X224000Y37103D01*
X223500Y36603D02*Y35603D01*
X224000Y35103D02*X223500Y35603D01*
X224000Y35103D02*X225000D01*
X225500Y35603D01*
Y37103D02*Y35603D01*
X213500Y7000D02*Y5000D01*
Y7000D02*X214000Y7500D01*
X215000D01*
X215500Y7000D02*X215000Y7500D01*
X215500Y7000D02*Y5500D01*
X213500D02*X217500D01*
X215500D02*X217500Y7500D01*
X214000Y8701D02*X213500Y9201D01*
Y10201D02*Y9201D01*
Y10201D02*X214000Y10701D01*
X217000D01*
X217500Y10201D02*X217000Y10701D01*
X217500Y10201D02*Y9201D01*
X217000Y8701D02*X217500Y9201D01*
X215500Y10701D02*Y9201D01*
X213500Y13902D02*Y11902D01*
X215500D01*
X215000Y12402D01*
Y13402D02*Y12402D01*
Y13402D02*X215500Y13902D01*
X217000D01*
X217500Y13402D02*X217000Y13902D01*
X217500Y13402D02*Y12402D01*
X217000Y11902D02*X217500Y12402D01*
Y16603D02*Y15603D01*
X213500Y16103D02*X217500D01*
X214500Y15103D02*X213500Y16103D01*
Y37000D02*Y35000D01*
Y37000D02*X214000Y37500D01*
X215000D01*
X215500Y37000D02*X215000Y37500D01*
X215500Y37000D02*Y35500D01*
X213500D02*X217500D01*
X215500D02*X217500Y37500D01*
X214000Y38701D02*X213500Y39201D01*
Y40201D02*Y39201D01*
Y40201D02*X214000Y40701D01*
X217000D01*
X217500Y40201D02*X217000Y40701D01*
X217500Y40201D02*Y39201D01*
X217000Y38701D02*X217500Y39201D01*
X215500Y40701D02*Y39201D01*
X213500Y43902D02*Y41902D01*
X215500D01*
X215000Y42402D01*
Y43402D02*Y42402D01*
Y43402D02*X215500Y43902D01*
X217000D01*
X217500Y43402D02*X217000Y43902D01*
X217500Y43402D02*Y42402D01*
X217000Y41902D02*X217500Y42402D01*
X217000Y45103D02*X217500Y45603D01*
X216000Y45103D02*X217000D01*
X216000D02*X215500Y45603D01*
Y46603D02*Y45603D01*
Y46603D02*X216000Y47103D01*
X217000D01*
X217500Y46603D02*X217000Y47103D01*
X217500Y46603D02*Y45603D01*
X215000Y45103D02*X215500Y45603D01*
X214000Y45103D02*X215000D01*
X214000D02*X213500Y45603D01*
Y46603D02*Y45603D01*
Y46603D02*X214000Y47103D01*
X215000D01*
X215500Y46603D02*X215000Y47103D01*
X251000Y68000D02*X255000D01*
X251000Y69500D02*X251500Y70000D01*
X254500D01*
X255000Y69500D02*X254500Y70000D01*
X255000Y69500D02*Y67500D01*
X251000Y69500D02*Y67500D01*
X251500Y71201D02*X251000Y71701D01*
Y72701D02*Y71701D01*
Y72701D02*X251500Y73201D01*
X254500D01*
X255000Y72701D02*X254500Y73201D01*
X255000Y72701D02*Y71701D01*
X254500Y71201D02*X255000Y71701D01*
X253000Y73201D02*Y71701D01*
X251000Y76402D02*Y74402D01*
X253000D01*
X252500Y74902D01*
Y75902D02*Y74902D01*
Y75902D02*X253000Y76402D01*
X254500D01*
X255000Y75902D02*X254500Y76402D01*
X255000Y75902D02*Y74902D01*
X254500Y74402D02*X255000Y74902D01*
X251500Y77603D02*X251000Y78103D01*
Y79103D02*Y78103D01*
Y79103D02*X251500Y79603D01*
X254500D01*
X255000Y79103D02*X254500Y79603D01*
X255000Y79103D02*Y78103D01*
X254500Y77603D02*X255000Y78103D01*
X253000Y79603D02*Y78103D01*
X210000Y76500D02*Y73000D01*
X210500Y72500D01*
X211500D01*
X212000Y73000D01*
Y76500D02*Y73000D01*
X213201Y76000D02*X213701Y76500D01*
X214701D01*
X215201Y76000D01*
Y73000D01*
X214701Y72500D02*X215201Y73000D01*
X213701Y72500D02*X214701D01*
X213201Y73000D02*X213701Y72500D01*
Y74500D02*X215201D01*
X216402Y76500D02*X218402D01*
X216402D02*Y74500D01*
X216902Y75000D01*
X217902D01*
X218402Y74500D01*
Y73000D01*
X217902Y72500D02*X218402Y73000D01*
X216902Y72500D02*X217902D01*
X216402Y73000D02*X216902Y72500D01*
X219603Y76000D02*X220103Y76500D01*
X221103D01*
X221603Y76000D01*
Y73000D01*
X221103Y72500D02*X221603Y73000D01*
X220103Y72500D02*X221103D01*
X219603Y73000D02*X220103Y72500D01*
Y74500D02*X221603D01*
X3500Y29500D02*Y27500D01*
Y29500D02*X4000Y30000D01*
X5000D01*
X5500Y29500D02*X5000Y30000D01*
X5500Y29500D02*Y28000D01*
X3500D02*X7500D01*
X5500D02*X7500Y30000D01*
X4000Y31201D02*X3500Y31701D01*
Y32701D02*Y31701D01*
Y32701D02*X4000Y33201D01*
X7000D01*
X7500Y32701D02*X7000Y33201D01*
X7500Y32701D02*Y31701D01*
X7000Y31201D02*X7500Y31701D01*
X5500Y33201D02*Y31701D01*
X7000Y34402D02*X7500Y34902D01*
X4000Y34402D02*X7000D01*
X4000D02*X3500Y34902D01*
Y35902D02*Y34902D01*
Y35902D02*X4000Y36402D01*
X7000D01*
X7500Y35902D02*X7000Y36402D01*
X7500Y35902D02*Y34902D01*
X6500Y34402D02*X4500Y36402D01*
X4000Y37603D02*X3500Y38103D01*
Y39603D02*Y38103D01*
Y39603D02*X4000Y40103D01*
X5000D01*
X7500Y37603D02*X5000Y40103D01*
X7500D02*Y37603D01*
Y72000D02*Y70500D01*
X7000Y70000D02*X7500Y70500D01*
X4000Y70000D02*X7000D01*
X4000D02*X3500Y70500D01*
Y72000D02*Y70500D01*
X4000Y73201D02*X3500Y73701D01*
Y74701D02*Y73701D01*
Y74701D02*X4000Y75201D01*
X7000D01*
X7500Y74701D02*X7000Y75201D01*
X7500Y74701D02*Y73701D01*
X7000Y73201D02*X7500Y73701D01*
X5500Y75201D02*Y73701D01*
X7000Y76402D02*X7500Y76902D01*
X4000Y76402D02*X7000D01*
X4000D02*X3500Y76902D01*
Y77902D02*Y76902D01*
Y77902D02*X4000Y78402D01*
X7000D01*
X7500Y77902D02*X7000Y78402D01*
X7500Y77902D02*Y76902D01*
X6500Y76402D02*X4500Y78402D01*
X7500Y81103D02*Y80103D01*
X3500Y80603D02*X7500D01*
X4500Y79603D02*X3500Y80603D01*
X3000Y16500D02*Y12500D01*
X2500Y16500D02*X4500D01*
X5000Y16000D01*
Y15000D01*
X4500Y14500D02*X5000Y15000D01*
X3000Y14500D02*X4500D01*
X6201Y16000D02*X6701Y16500D01*
X7701D01*
X8201Y16000D01*
Y13000D01*
X7701Y12500D02*X8201Y13000D01*
X6701Y12500D02*X7701D01*
X6201Y13000D02*X6701Y12500D01*
Y14500D02*X8201D01*
X9402Y13000D02*X9902Y12500D01*
X9402Y16000D02*Y13000D01*
Y16000D02*X9902Y16500D01*
X10902D01*
X11402Y16000D01*
Y13000D01*
X10902Y12500D02*X11402Y13000D01*
X9902Y12500D02*X10902D01*
X9402Y13500D02*X11402Y15500D01*
X13103Y12500D02*X14103D01*
X13603Y16500D02*Y12500D01*
X12603Y15500D02*X13603Y16500D01*
X7500Y52000D02*Y50500D01*
X7000Y50000D02*X7500Y50500D01*
X4000Y50000D02*X7000D01*
X4000D02*X3500Y50500D01*
Y52000D02*Y50500D01*
X4000Y53201D02*X3500Y53701D01*
Y54701D02*Y53701D01*
Y54701D02*X4000Y55201D01*
X7000D01*
X7500Y54701D02*X7000Y55201D01*
X7500Y54701D02*Y53701D01*
X7000Y53201D02*X7500Y53701D01*
X5500Y55201D02*Y53701D01*
X7000Y56402D02*X7500Y56902D01*
X4000Y56402D02*X7000D01*
X4000D02*X3500Y56902D01*
Y57902D02*Y56902D01*
Y57902D02*X4000Y58402D01*
X7000D01*
X7500Y57902D02*X7000Y58402D01*
X7500Y57902D02*Y56902D01*
X6500Y56402D02*X4500Y58402D01*
X4000Y59603D02*X3500Y60103D01*
Y61603D02*Y60103D01*
Y61603D02*X4000Y62103D01*
X5000D01*
X7500Y59603D02*X5000Y62103D01*
X7500D02*Y59603D01*
X23500Y26500D02*X25500D01*
X26000Y26000D01*
Y25000D01*
X25500Y24500D02*X26000Y25000D01*
X24000Y24500D02*X25500D01*
X24000Y26500D02*Y22500D01*
Y24500D02*X26000Y22500D01*
X27201Y26000D02*X27701Y26500D01*
X28701D01*
X29201Y26000D01*
Y23000D01*
X28701Y22500D02*X29201Y23000D01*
X27701Y22500D02*X28701D01*
X27201Y23000D02*X27701Y22500D01*
Y24500D02*X29201D01*
X30402Y23000D02*X30902Y22500D01*
X30402Y26000D02*Y23000D01*
Y26000D02*X30902Y26500D01*
X31902D01*
X32402Y26000D01*
Y23000D01*
X31902Y22500D02*X32402Y23000D01*
X30902Y22500D02*X31902D01*
X30402Y23500D02*X32402Y25500D01*
X33603Y26000D02*X34103Y26500D01*
X35103D01*
X35603Y26000D01*
Y23000D01*
X35103Y22500D02*X35603Y23000D01*
X34103Y22500D02*X35103D01*
X33603Y23000D02*X34103Y22500D01*
Y24500D02*X35603D01*
X37500Y86500D02*X39500D01*
X40000Y86000D01*
Y85000D01*
X39500Y84500D02*X40000Y85000D01*
X38000Y84500D02*X39500D01*
X38000Y86500D02*Y82500D01*
Y84500D02*X40000Y82500D01*
X41201Y86000D02*X41701Y86500D01*
X42701D01*
X43201Y86000D01*
Y83000D01*
X42701Y82500D02*X43201Y83000D01*
X41701Y82500D02*X42701D01*
X41201Y83000D02*X41701Y82500D01*
Y84500D02*X43201D01*
X44402Y83000D02*X44902Y82500D01*
X44402Y86000D02*Y83000D01*
Y86000D02*X44902Y86500D01*
X45902D01*
X46402Y86000D01*
Y83000D01*
X45902Y82500D02*X46402Y83000D01*
X44902Y82500D02*X45902D01*
X44402Y83500D02*X46402Y85500D01*
X47603Y86500D02*X49603D01*
X47603D02*Y84500D01*
X48103Y85000D01*
X49103D01*
X49603Y84500D01*
Y83000D01*
X49103Y82500D02*X49603Y83000D01*
X48103Y82500D02*X49103D01*
X47603Y83000D02*X48103Y82500D01*
X35500Y101500D02*X37500D01*
X38000Y101000D01*
Y100000D01*
X37500Y99500D02*X38000Y100000D01*
X36000Y99500D02*X37500D01*
X36000Y101500D02*Y97500D01*
Y99500D02*X38000Y97500D01*
X39201Y101000D02*X39701Y101500D01*
X40701D01*
X41201Y101000D01*
Y98000D01*
X40701Y97500D02*X41201Y98000D01*
X39701Y97500D02*X40701D01*
X39201Y98000D02*X39701Y97500D01*
Y99500D02*X41201D01*
X42402Y98000D02*X42902Y97500D01*
X42402Y101000D02*Y98000D01*
Y101000D02*X42902Y101500D01*
X43902D01*
X44402Y101000D01*
Y98000D01*
X43902Y97500D02*X44402Y98000D01*
X42902Y97500D02*X43902D01*
X42402Y98500D02*X44402Y100500D01*
X45603Y97500D02*X48103Y100000D01*
Y101500D02*Y100000D01*
X45603Y101500D02*X48103D01*
X43500Y29500D02*Y27500D01*
Y29500D02*X44000Y30000D01*
X45000D01*
X45500Y29500D02*X45000Y30000D01*
X45500Y29500D02*Y28000D01*
X43500D02*X47500D01*
X45500D02*X47500Y30000D01*
X44000Y31201D02*X43500Y31701D01*
Y32701D02*Y31701D01*
Y32701D02*X44000Y33201D01*
X47000D01*
X47500Y32701D02*X47000Y33201D01*
X47500Y32701D02*Y31701D01*
X47000Y31201D02*X47500Y31701D01*
X45500Y33201D02*Y31701D01*
X47000Y34402D02*X47500Y34902D01*
X44000Y34402D02*X47000D01*
X44000D02*X43500Y34902D01*
Y35902D02*Y34902D01*
Y35902D02*X44000Y36402D01*
X47000D01*
X47500Y35902D02*X47000Y36402D01*
X47500Y35902D02*Y34902D01*
X46500Y34402D02*X44500Y36402D01*
X43500Y39103D02*X44000Y39603D01*
X43500Y39103D02*Y38103D01*
X44000Y37603D02*X43500Y38103D01*
X44000Y37603D02*X47000D01*
X47500Y38103D01*
X45500Y39103D02*X46000Y39603D01*
X45500Y39103D02*Y37603D01*
X47500Y39103D02*Y38103D01*
Y39103D02*X47000Y39603D01*
X46000D02*X47000D01*
X49995Y21516D02*X53995D01*
X49995Y23016D02*X50495Y23516D01*
X53495D01*
X53995Y23016D02*X53495Y23516D01*
X53995Y23016D02*Y21016D01*
X49995Y23016D02*Y21016D01*
X50495Y24717D02*X49995Y25217D01*
Y26217D02*Y25217D01*
Y26217D02*X50495Y26717D01*
X53495D01*
X53995Y26217D02*X53495Y26717D01*
X53995Y26217D02*Y25217D01*
X53495Y24717D02*X53995Y25217D01*
X51995Y26717D02*Y25217D01*
X53495Y27918D02*X53995Y28418D01*
X50495Y27918D02*X53495D01*
X50495D02*X49995Y28418D01*
Y29418D02*Y28418D01*
Y29418D02*X50495Y29918D01*
X53495D01*
X53995Y29418D02*X53495Y29918D01*
X53995Y29418D02*Y28418D01*
X52995Y27918D02*X50995Y29918D01*
X53995Y32619D02*Y31619D01*
X49995Y32119D02*X53995D01*
X50995Y31119D02*X49995Y32119D01*
X19000Y80500D02*Y77000D01*
X19500Y76500D01*
X20500D01*
X21000Y77000D01*
Y80500D02*Y77000D01*
X22201Y80000D02*X22701Y80500D01*
X23701D01*
X24201Y80000D01*
Y77000D01*
X23701Y76500D02*X24201Y77000D01*
X22701Y76500D02*X23701D01*
X22201Y77000D02*X22701Y76500D01*
Y78500D02*X24201D01*
X25402Y77000D02*X25902Y76500D01*
X25402Y80000D02*Y77000D01*
Y80000D02*X25902Y80500D01*
X26902D01*
X27402Y80000D01*
Y77000D01*
X26902Y76500D02*X27402Y77000D01*
X25902Y76500D02*X26902D01*
X25402Y77500D02*X27402Y79500D01*
X29103Y76500D02*X30103D01*
X29603Y80500D02*Y76500D01*
X28603Y79500D02*X29603Y80500D01*
X27000Y97000D02*Y95000D01*
Y97000D02*X27500Y97500D01*
X28500D01*
X29000Y97000D02*X28500Y97500D01*
X29000Y97000D02*Y95500D01*
X27000D02*X31000D01*
X29000D02*X31000Y97500D01*
X27500Y98701D02*X27000Y99201D01*
Y100201D02*Y99201D01*
Y100201D02*X27500Y100701D01*
X30500D01*
X31000Y100201D02*X30500Y100701D01*
X31000Y100201D02*Y99201D01*
X30500Y98701D02*X31000Y99201D01*
X29000Y100701D02*Y99201D01*
X30500Y101902D02*X31000Y102402D01*
X27500Y101902D02*X30500D01*
X27500D02*X27000Y102402D01*
Y103402D02*Y102402D01*
Y103402D02*X27500Y103902D01*
X30500D01*
X31000Y103402D02*X30500Y103902D01*
X31000Y103402D02*Y102402D01*
X30000Y101902D02*X28000Y103902D01*
X29000Y105103D02*X27000Y107103D01*
X29000Y107603D02*Y105103D01*
X27000Y107103D02*X31000D01*
X70000Y94500D02*Y93000D01*
X69500Y92500D02*X70000Y93000D01*
X66500Y92500D02*X69500D01*
X66500D02*X66000Y93000D01*
Y94500D02*Y93000D01*
X66500Y95701D02*X66000Y96201D01*
Y97201D02*Y96201D01*
Y97201D02*X66500Y97701D01*
X69500D01*
X70000Y97201D02*X69500Y97701D01*
X70000Y97201D02*Y96201D01*
X69500Y95701D02*X70000Y96201D01*
X68000Y97701D02*Y96201D01*
X69500Y98902D02*X70000Y99402D01*
X66500Y98902D02*X69500D01*
X66500D02*X66000Y99402D01*
Y100402D02*Y99402D01*
Y100402D02*X66500Y100902D01*
X69500D01*
X70000Y100402D02*X69500Y100902D01*
X70000Y100402D02*Y99402D01*
X69000Y98902D02*X67000Y100902D01*
X66500Y102103D02*X66000Y102603D01*
Y103603D02*Y102603D01*
Y103603D02*X66500Y104103D01*
X69500D01*
X70000Y103603D02*X69500Y104103D01*
X70000Y103603D02*Y102603D01*
X69500Y102103D02*X70000Y102603D01*
X68000Y104103D02*Y102603D01*
X93500Y27000D02*Y25000D01*
Y27000D02*X94000Y27500D01*
X95000D01*
X95500Y27000D02*X95000Y27500D01*
X95500Y27000D02*Y25500D01*
X93500D02*X97500D01*
X95500D02*X97500Y27500D01*
X94000Y28701D02*X93500Y29201D01*
Y30201D02*Y29201D01*
Y30201D02*X94000Y30701D01*
X97000D01*
X97500Y30201D02*X97000Y30701D01*
X97500Y30201D02*Y29201D01*
X97000Y28701D02*X97500Y29201D01*
X95500Y30701D02*Y29201D01*
X97000Y31902D02*X97500Y32402D01*
X94000Y31902D02*X97000D01*
X94000D02*X93500Y32402D01*
Y33402D02*Y32402D01*
Y33402D02*X94000Y33902D01*
X97000D01*
X97500Y33402D02*X97000Y33902D01*
X97500Y33402D02*Y32402D01*
X96500Y31902D02*X94500Y33902D01*
X97500Y35103D02*X95500Y37103D01*
X94000D02*X95500D01*
X93500Y36603D02*X94000Y37103D01*
X93500Y36603D02*Y35603D01*
X94000Y35103D02*X93500Y35603D01*
X94000Y35103D02*X95000D01*
X95500Y35603D01*
Y37103D02*Y35603D01*
X83500Y37000D02*Y35000D01*
Y37000D02*X84000Y37500D01*
X85000D01*
X85500Y37000D02*X85000Y37500D01*
X85500Y37000D02*Y35500D01*
X83500D02*X87500D01*
X85500D02*X87500Y37500D01*
X84000Y38701D02*X83500Y39201D01*
Y40201D02*Y39201D01*
Y40201D02*X84000Y40701D01*
X87000D01*
X87500Y40201D02*X87000Y40701D01*
X87500Y40201D02*Y39201D01*
X87000Y38701D02*X87500Y39201D01*
X85500Y40701D02*Y39201D01*
X87000Y41902D02*X87500Y42402D01*
X84000Y41902D02*X87000D01*
X84000D02*X83500Y42402D01*
Y43402D02*Y42402D01*
Y43402D02*X84000Y43902D01*
X87000D01*
X87500Y43402D02*X87000Y43902D01*
X87500Y43402D02*Y42402D01*
X86500Y41902D02*X84500Y43902D01*
X87000Y45103D02*X87500Y45603D01*
X86000Y45103D02*X87000D01*
X86000D02*X85500Y45603D01*
Y46603D02*Y45603D01*
Y46603D02*X86000Y47103D01*
X87000D01*
X87500Y46603D02*X87000Y47103D01*
X87500Y46603D02*Y45603D01*
X85000Y45103D02*X85500Y45603D01*
X84000Y45103D02*X85000D01*
X84000D02*X83500Y45603D01*
Y46603D02*Y45603D01*
Y46603D02*X84000Y47103D01*
X85000D01*
X85500Y46603D02*X85000Y47103D01*
X83500Y7000D02*Y5000D01*
Y7000D02*X84000Y7500D01*
X85000D01*
X85500Y7000D02*X85000Y7500D01*
X85500Y7000D02*Y5500D01*
X83500D02*X87500D01*
X85500D02*X87500Y7500D01*
X84000Y8701D02*X83500Y9201D01*
Y10201D02*Y9201D01*
Y10201D02*X84000Y10701D01*
X87000D01*
X87500Y10201D02*X87000Y10701D01*
X87500Y10201D02*Y9201D01*
X87000Y8701D02*X87500Y9201D01*
X85500Y10701D02*Y9201D01*
X87000Y11902D02*X87500Y12402D01*
X84000Y11902D02*X87000D01*
X84000D02*X83500Y12402D01*
Y13402D02*Y12402D01*
Y13402D02*X84000Y13902D01*
X87000D01*
X87500Y13402D02*X87000Y13902D01*
X87500Y13402D02*Y12402D01*
X86500Y11902D02*X84500Y13902D01*
X87500Y16603D02*Y15603D01*
X83500Y16103D02*X87500D01*
X84500Y15103D02*X83500Y16103D01*
X77000Y19500D02*X81000D01*
X77000Y21000D02*X77500Y21500D01*
X80500D01*
X81000Y21000D02*X80500Y21500D01*
X81000Y21000D02*Y19000D01*
X77000Y21000D02*Y19000D01*
X77500Y22701D02*X77000Y23201D01*
Y24201D02*Y23201D01*
Y24201D02*X77500Y24701D01*
X80500D01*
X81000Y24201D02*X80500Y24701D01*
X81000Y24201D02*Y23201D01*
X80500Y22701D02*X81000Y23201D01*
X79000Y24701D02*Y23201D01*
X80500Y25902D02*X81000Y26402D01*
X77500Y25902D02*X80500D01*
X77500D02*X77000Y26402D01*
Y27402D02*Y26402D01*
Y27402D02*X77500Y27902D01*
X80500D01*
X81000Y27402D02*X80500Y27902D01*
X81000Y27402D02*Y26402D01*
X80000Y25902D02*X78000Y27902D01*
X77500Y29103D02*X77000Y29603D01*
Y31103D02*Y29603D01*
Y31103D02*X77500Y31603D01*
X78500D01*
X81000Y29103D02*X78500Y31603D01*
X81000D02*Y29103D01*
X153500Y26500D02*X155500D01*
X156000Y26000D01*
Y25000D01*
X155500Y24500D02*X156000Y25000D01*
X154000Y24500D02*X155500D01*
X154000Y26500D02*Y22500D01*
Y24500D02*X156000Y22500D01*
X157201Y26000D02*X157701Y26500D01*
X158701D01*
X159201Y26000D01*
Y23000D01*
X158701Y22500D02*X159201Y23000D01*
X157701Y22500D02*X158701D01*
X157201Y23000D02*X157701Y22500D01*
Y24500D02*X159201D01*
X160402Y26500D02*X162402D01*
X160402D02*Y24500D01*
X160902Y25000D01*
X161902D01*
X162402Y24500D01*
Y23000D01*
X161902Y22500D02*X162402Y23000D01*
X160902Y22500D02*X161902D01*
X160402Y23000D02*X160902Y22500D01*
X163603Y26000D02*X164103Y26500D01*
X165103D01*
X165603Y26000D01*
Y23000D01*
X165103Y22500D02*X165603Y23000D01*
X164103Y22500D02*X165103D01*
X163603Y23000D02*X164103Y22500D01*
Y24500D02*X165603D01*
X200000Y94500D02*Y93000D01*
X199500Y92500D02*X200000Y93000D01*
X196500Y92500D02*X199500D01*
X196500D02*X196000Y93000D01*
Y94500D02*Y93000D01*
X196500Y95701D02*X196000Y96201D01*
Y97201D02*Y96201D01*
Y97201D02*X196500Y97701D01*
X199500D01*
X200000Y97201D02*X199500Y97701D01*
X200000Y97201D02*Y96201D01*
X199500Y95701D02*X200000Y96201D01*
X198000Y97701D02*Y96201D01*
X196000Y100902D02*Y98902D01*
X198000D01*
X197500Y99402D01*
Y100402D02*Y99402D01*
Y100402D02*X198000Y100902D01*
X199500D01*
X200000Y100402D02*X199500Y100902D01*
X200000Y100402D02*Y99402D01*
X199500Y98902D02*X200000Y99402D01*
X196500Y102103D02*X196000Y102603D01*
Y103603D02*Y102603D01*
Y103603D02*X196500Y104103D01*
X199500D01*
X200000Y103603D02*X199500Y104103D01*
X200000Y103603D02*Y102603D01*
X199500Y102103D02*X200000Y102603D01*
X198000Y104103D02*Y102603D01*
X157000Y97000D02*Y95000D01*
Y97000D02*X157500Y97500D01*
X158500D01*
X159000Y97000D02*X158500Y97500D01*
X159000Y97000D02*Y95500D01*
X157000D02*X161000D01*
X159000D02*X161000Y97500D01*
X157500Y98701D02*X157000Y99201D01*
Y100201D02*Y99201D01*
Y100201D02*X157500Y100701D01*
X160500D01*
X161000Y100201D02*X160500Y100701D01*
X161000Y100201D02*Y99201D01*
X160500Y98701D02*X161000Y99201D01*
X159000Y100701D02*Y99201D01*
X157000Y103902D02*Y101902D01*
X159000D01*
X158500Y102402D01*
Y103402D02*Y102402D01*
Y103402D02*X159000Y103902D01*
X160500D01*
X161000Y103402D02*X160500Y103902D01*
X161000Y103402D02*Y102402D01*
X160500Y101902D02*X161000Y102402D01*
X159000Y105103D02*X157000Y107103D01*
X159000Y107603D02*Y105103D01*
X157000Y107103D02*X161000D01*
X149000Y80500D02*Y77000D01*
X149500Y76500D01*
X150500D01*
X151000Y77000D01*
Y80500D02*Y77000D01*
X152201Y80000D02*X152701Y80500D01*
X153701D01*
X154201Y80000D01*
Y77000D01*
X153701Y76500D02*X154201Y77000D01*
X152701Y76500D02*X153701D01*
X152201Y77000D02*X152701Y76500D01*
Y78500D02*X154201D01*
X155402Y80500D02*X157402D01*
X155402D02*Y78500D01*
X155902Y79000D01*
X156902D01*
X157402Y78500D01*
Y77000D01*
X156902Y76500D02*X157402Y77000D01*
X155902Y76500D02*X156902D01*
X155402Y77000D02*X155902Y76500D01*
X159103D02*X160103D01*
X159603Y80500D02*Y76500D01*
X158603Y79500D02*X159603Y80500D01*
X165500Y101500D02*X167500D01*
X168000Y101000D01*
Y100000D01*
X167500Y99500D02*X168000Y100000D01*
X166000Y99500D02*X167500D01*
X166000Y101500D02*Y97500D01*
Y99500D02*X168000Y97500D01*
X169201Y101000D02*X169701Y101500D01*
X170701D01*
X171201Y101000D01*
Y98000D01*
X170701Y97500D02*X171201Y98000D01*
X169701Y97500D02*X170701D01*
X169201Y98000D02*X169701Y97500D01*
Y99500D02*X171201D01*
X172402Y101500D02*X174402D01*
X172402D02*Y99500D01*
X172902Y100000D01*
X173902D01*
X174402Y99500D01*
Y98000D01*
X173902Y97500D02*X174402Y98000D01*
X172902Y97500D02*X173902D01*
X172402Y98000D02*X172902Y97500D01*
X175603D02*X178103Y100000D01*
Y101500D02*Y100000D01*
X175603Y101500D02*X178103D01*
X167500Y86500D02*X169500D01*
X170000Y86000D01*
Y85000D01*
X169500Y84500D02*X170000Y85000D01*
X168000Y84500D02*X169500D01*
X168000Y86500D02*Y82500D01*
Y84500D02*X170000Y82500D01*
X171201Y86000D02*X171701Y86500D01*
X172701D01*
X173201Y86000D01*
Y83000D01*
X172701Y82500D02*X173201Y83000D01*
X171701Y82500D02*X172701D01*
X171201Y83000D02*X171701Y82500D01*
Y84500D02*X173201D01*
X174402Y86500D02*X176402D01*
X174402D02*Y84500D01*
X174902Y85000D01*
X175902D01*
X176402Y84500D01*
Y83000D01*
X175902Y82500D02*X176402Y83000D01*
X174902Y82500D02*X175902D01*
X174402Y83000D02*X174902Y82500D01*
X177603Y86500D02*X179603D01*
X177603D02*Y84500D01*
X178103Y85000D01*
X179103D01*
X179603Y84500D01*
Y83000D01*
X179103Y82500D02*X179603Y83000D01*
X178103Y82500D02*X179103D01*
X177603Y83000D02*X178103Y82500D01*
X186500Y80500D02*Y77000D01*
X187000Y76500D01*
X188000D01*
X188500Y77000D01*
Y80500D02*Y77000D01*
X189701Y80000D02*X190201Y80500D01*
X191201D01*
X191701Y80000D01*
Y77000D01*
X191201Y76500D02*X191701Y77000D01*
X190201Y76500D02*X191201D01*
X189701Y77000D02*X190201Y76500D01*
Y78500D02*X191701D01*
X192902Y80500D02*X194902D01*
X192902D02*Y78500D01*
X193402Y79000D01*
X194402D01*
X194902Y78500D01*
Y77000D01*
X194402Y76500D02*X194902Y77000D01*
X193402Y76500D02*X194402D01*
X192902Y77000D02*X193402Y76500D01*
X196103Y80000D02*X196603Y80500D01*
X198103D01*
X198603Y80000D01*
Y79000D01*
X196103Y76500D02*X198603Y79000D01*
X196103Y76500D02*X198603D01*
X110500Y19500D02*X114500D01*
X110500Y21000D02*X111000Y21500D01*
X114000D01*
X114500Y21000D02*X114000Y21500D01*
X114500Y21000D02*Y19000D01*
X110500Y21000D02*Y19000D01*
X111000Y22701D02*X110500Y23201D01*
Y24201D02*Y23201D01*
Y24201D02*X111000Y24701D01*
X114000D01*
X114500Y24201D02*X114000Y24701D01*
X114500Y24201D02*Y23201D01*
X114000Y22701D02*X114500Y23201D01*
X112500Y24701D02*Y23201D01*
X114000Y25902D02*X114500Y26402D01*
X111000Y25902D02*X114000D01*
X111000D02*X110500Y26402D01*
Y27402D02*Y26402D01*
Y27402D02*X111000Y27902D01*
X114000D01*
X114500Y27402D02*X114000Y27902D01*
X114500Y27402D02*Y26402D01*
X113500Y25902D02*X111500Y27902D01*
X112500Y29103D02*X110500Y31103D01*
X112500Y31603D02*Y29103D01*
X110500Y31103D02*X114500D01*
X137500Y52000D02*Y50500D01*
X137000Y50000D02*X137500Y50500D01*
X134000Y50000D02*X137000D01*
X134000D02*X133500Y50500D01*
Y52000D02*Y50500D01*
X134000Y53201D02*X133500Y53701D01*
Y54701D02*Y53701D01*
Y54701D02*X134000Y55201D01*
X137000D01*
X137500Y54701D02*X137000Y55201D01*
X137500Y54701D02*Y53701D01*
X137000Y53201D02*X137500Y53701D01*
X135500Y55201D02*Y53701D01*
X133500Y58402D02*Y56402D01*
X135500D01*
X135000Y56902D01*
Y57902D02*Y56902D01*
Y57902D02*X135500Y58402D01*
X137000D01*
X137500Y57902D02*X137000Y58402D01*
X137500Y57902D02*Y56902D01*
X137000Y56402D02*X137500Y56902D01*
X134000Y59603D02*X133500Y60103D01*
Y61603D02*Y60103D01*
Y61603D02*X134000Y62103D01*
X135000D01*
X137500Y59603D02*X135000Y62103D01*
X137500D02*Y59603D01*
X133500Y29500D02*Y27500D01*
Y29500D02*X134000Y30000D01*
X135000D01*
X135500Y29500D02*X135000Y30000D01*
X135500Y29500D02*Y28000D01*
X133500D02*X137500D01*
X135500D02*X137500Y30000D01*
X134000Y31201D02*X133500Y31701D01*
Y32701D02*Y31701D01*
Y32701D02*X134000Y33201D01*
X137000D01*
X137500Y32701D02*X137000Y33201D01*
X137500Y32701D02*Y31701D01*
X137000Y31201D02*X137500Y31701D01*
X135500Y33201D02*Y31701D01*
X133500Y36402D02*Y34402D01*
X135500D01*
X135000Y34902D01*
Y35902D02*Y34902D01*
Y35902D02*X135500Y36402D01*
X137000D01*
X137500Y35902D02*X137000Y36402D01*
X137500Y35902D02*Y34902D01*
X137000Y34402D02*X137500Y34902D01*
X134000Y37603D02*X133500Y38103D01*
Y39603D02*Y38103D01*
Y39603D02*X134000Y40103D01*
X135000D01*
X137500Y37603D02*X135000Y40103D01*
X137500D02*Y37603D01*
X179995Y21516D02*X183995D01*
X179995Y23016D02*X180495Y23516D01*
X183495D01*
X183995Y23016D02*X183495Y23516D01*
X183995Y23016D02*Y21016D01*
X179995Y23016D02*Y21016D01*
X180495Y24717D02*X179995Y25217D01*
Y26217D02*Y25217D01*
Y26217D02*X180495Y26717D01*
X183495D01*
X183995Y26217D02*X183495Y26717D01*
X183995Y26217D02*Y25217D01*
X183495Y24717D02*X183995Y25217D01*
X181995Y26717D02*Y25217D01*
X179995Y29918D02*Y27918D01*
X181995D01*
X181495Y28418D01*
Y29418D02*Y28418D01*
Y29418D02*X181995Y29918D01*
X183495D01*
X183995Y29418D02*X183495Y29918D01*
X183995Y29418D02*Y28418D01*
X183495Y27918D02*X183995Y28418D01*
Y32619D02*Y31619D01*
X179995Y32119D02*X183995D01*
X180995Y31119D02*X179995Y32119D01*
X173500Y29500D02*Y27500D01*
Y29500D02*X174000Y30000D01*
X175000D01*
X175500Y29500D02*X175000Y30000D01*
X175500Y29500D02*Y28000D01*
X173500D02*X177500D01*
X175500D02*X177500Y30000D01*
X174000Y31201D02*X173500Y31701D01*
Y32701D02*Y31701D01*
Y32701D02*X174000Y33201D01*
X177000D01*
X177500Y32701D02*X177000Y33201D01*
X177500Y32701D02*Y31701D01*
X177000Y31201D02*X177500Y31701D01*
X175500Y33201D02*Y31701D01*
X173500Y36402D02*Y34402D01*
X175500D01*
X175000Y34902D01*
Y35902D02*Y34902D01*
Y35902D02*X175500Y36402D01*
X177000D01*
X177500Y35902D02*X177000Y36402D01*
X177500Y35902D02*Y34902D01*
X177000Y34402D02*X177500Y34902D01*
X173500Y39103D02*X174000Y39603D01*
X173500Y39103D02*Y38103D01*
X174000Y37603D02*X173500Y38103D01*
X174000Y37603D02*X177000D01*
X177500Y38103D01*
X175500Y39103D02*X176000Y39603D01*
X175500Y39103D02*Y37603D01*
X177500Y39103D02*Y38103D01*
Y39103D02*X177000Y39603D01*
X176000D02*X177000D01*
X56500Y80500D02*Y77000D01*
X57000Y76500D01*
X58000D01*
X58500Y77000D01*
Y80500D02*Y77000D01*
X59701Y80000D02*X60201Y80500D01*
X61201D01*
X61701Y80000D01*
Y77000D01*
X61201Y76500D02*X61701Y77000D01*
X60201Y76500D02*X61201D01*
X59701Y77000D02*X60201Y76500D01*
Y78500D02*X61701D01*
X62902Y77000D02*X63402Y76500D01*
X62902Y80000D02*Y77000D01*
Y80000D02*X63402Y80500D01*
X64402D01*
X64902Y80000D01*
Y77000D01*
X64402Y76500D02*X64902Y77000D01*
X63402Y76500D02*X64402D01*
X62902Y77500D02*X64902Y79500D01*
X66103Y80000D02*X66603Y80500D01*
X68103D01*
X68603Y80000D01*
Y79000D01*
X66103Y76500D02*X68603Y79000D01*
X66103Y76500D02*X68603D01*
X80000D02*Y73000D01*
X80500Y72500D01*
X81500D01*
X82000Y73000D01*
Y76500D02*Y73000D01*
X83201Y76000D02*X83701Y76500D01*
X84701D01*
X85201Y76000D01*
Y73000D01*
X84701Y72500D02*X85201Y73000D01*
X83701Y72500D02*X84701D01*
X83201Y73000D02*X83701Y72500D01*
Y74500D02*X85201D01*
X86402Y73000D02*X86902Y72500D01*
X86402Y76000D02*Y73000D01*
Y76000D02*X86902Y76500D01*
X87902D01*
X88402Y76000D01*
Y73000D01*
X87902Y72500D02*X88402Y73000D01*
X86902Y72500D02*X87902D01*
X86402Y73500D02*X88402Y75500D01*
X89603Y76000D02*X90103Y76500D01*
X91103D01*
X91603Y76000D01*
Y73000D01*
X91103Y72500D02*X91603Y73000D01*
X90103Y72500D02*X91103D01*
X89603Y73000D02*X90103Y72500D01*
Y74500D02*X91603D01*
X101000Y93000D02*Y91000D01*
Y93000D02*X101500Y93500D01*
X102500D01*
X103000Y93000D02*X102500Y93500D01*
X103000Y93000D02*Y91500D01*
X101000D02*X105000D01*
X103000D02*X105000Y93500D01*
X101500Y94701D02*X101000Y95201D01*
Y96201D02*Y95201D01*
Y96201D02*X101500Y96701D01*
X104500D01*
X105000Y96201D02*X104500Y96701D01*
X105000Y96201D02*Y95201D01*
X104500Y94701D02*X105000Y95201D01*
X103000Y96701D02*Y95201D01*
X105000Y99402D02*Y98402D01*
X101000Y98902D02*X105000D01*
X102000Y97902D02*X101000Y98902D01*
X105000Y102103D02*Y101103D01*
X101000Y101603D02*X105000D01*
X102000Y100603D02*X101000Y101603D01*
X121000Y68000D02*X125000D01*
X121000Y69500D02*X121500Y70000D01*
X124500D01*
X125000Y69500D02*X124500Y70000D01*
X125000Y69500D02*Y67500D01*
X121000Y69500D02*Y67500D01*
X121500Y71201D02*X121000Y71701D01*
Y72701D02*Y71701D01*
Y72701D02*X121500Y73201D01*
X124500D01*
X125000Y72701D02*X124500Y73201D01*
X125000Y72701D02*Y71701D01*
X124500Y71201D02*X125000Y71701D01*
X123000Y73201D02*Y71701D01*
X124500Y74402D02*X125000Y74902D01*
X121500Y74402D02*X124500D01*
X121500D02*X121000Y74902D01*
Y75902D02*Y74902D01*
Y75902D02*X121500Y76402D01*
X124500D01*
X125000Y75902D02*X124500Y76402D01*
X125000Y75902D02*Y74902D01*
X124000Y74402D02*X122000Y76402D01*
X121500Y77603D02*X121000Y78103D01*
Y79103D02*Y78103D01*
Y79103D02*X121500Y79603D01*
X124500D01*
X125000Y79103D02*X124500Y79603D01*
X125000Y79103D02*Y78103D01*
X124500Y77603D02*X125000Y78103D01*
X123000Y79603D02*Y78103D01*
X112500Y86500D02*X114500D01*
X115000Y86000D01*
Y85000D01*
X114500Y84500D02*X115000Y85000D01*
X113000Y84500D02*X114500D01*
X113000Y86500D02*Y82500D01*
Y84500D02*X115000Y82500D01*
X116201Y86000D02*X116701Y86500D01*
X117701D01*
X118201Y86000D01*
Y83000D01*
X117701Y82500D02*X118201Y83000D01*
X116701Y82500D02*X117701D01*
X116201Y83000D02*X116701Y82500D01*
Y84500D02*X118201D01*
X119902Y82500D02*X120902D01*
X120402Y86500D02*Y82500D01*
X119402Y85500D02*X120402Y86500D01*
X122103Y83000D02*X122603Y82500D01*
X122103Y86000D02*Y83000D01*
Y86000D02*X122603Y86500D01*
X123603D01*
X124103Y86000D01*
Y83000D01*
X123603Y82500D02*X124103Y83000D01*
X122603Y82500D02*X123603D01*
X122103Y83500D02*X124103Y85500D01*
X137500Y72000D02*Y70500D01*
X137000Y70000D02*X137500Y70500D01*
X134000Y70000D02*X137000D01*
X134000D02*X133500Y70500D01*
Y72000D02*Y70500D01*
X134000Y73201D02*X133500Y73701D01*
Y74701D02*Y73701D01*
Y74701D02*X134000Y75201D01*
X137000D01*
X137500Y74701D02*X137000Y75201D01*
X137500Y74701D02*Y73701D01*
X137000Y73201D02*X137500Y73701D01*
X135500Y75201D02*Y73701D01*
X133500Y78402D02*Y76402D01*
X135500D01*
X135000Y76902D01*
Y77902D02*Y76902D01*
Y77902D02*X135500Y78402D01*
X137000D01*
X137500Y77902D02*X137000Y78402D01*
X137500Y77902D02*Y76902D01*
X137000Y76402D02*X137500Y76902D01*
Y81103D02*Y80103D01*
X133500Y80603D02*X137500D01*
X134500Y79603D02*X133500Y80603D01*
M02*
