G04 start of page 8 for group -3984 idx -3984 *
G04 Title: 26.006.00.01.01.pcb, fab *
G04 Creator: pcb 20100929 *
G04 CreationDate: Wed Mar 18 07:56:07 2015 UTC *
G04 For: bert *
G04 Format: Gerber/RS-274X *
G04 PCB-Dimensions: 620000 170000 *
G04 PCB-Coordinate-Origin: lower left *
%MOIN*%
%FSLAX25Y25*%
%LNFAB*%
%ADD27C,0.0100*%
%ADD29C,0.0080*%
%ADD30C,0.0060*%
G54D29*X250415Y137558D02*X255215Y132758D01*
X250415D02*X255215Y137558D01*
X251215Y136758D02*X254415D01*
X251215D02*Y133558D01*
X254415D01*
Y136758D02*Y133558D01*
X289785Y137558D02*X294585Y132758D01*
X289785D02*X294585Y137558D01*
X290585Y136758D02*X293785D01*
X290585D02*Y133558D01*
X293785D01*
Y136758D02*Y133558D01*
X270100Y147400D02*X274900Y142600D01*
X270100D02*X274900Y147400D01*
X270900Y146600D02*X274100D01*
X270900D02*Y143400D01*
X274100D01*
Y146600D02*Y143400D01*
X312915Y137558D02*X317715Y132758D01*
X312915D02*X317715Y137558D01*
X313715Y136758D02*X316915D01*
X313715D02*Y133558D01*
X316915D01*
Y136758D02*Y133558D01*
X352285Y137558D02*X357085Y132758D01*
X352285D02*X357085Y137558D01*
X353085Y136758D02*X356285D01*
X353085D02*Y133558D01*
X356285D01*
Y136758D02*Y133558D01*
X332600Y147400D02*X337400Y142600D01*
X332600D02*X337400Y147400D01*
X333400Y146600D02*X336600D01*
X333400D02*Y143400D01*
X336600D01*
Y146600D02*Y143400D01*
X7915Y137558D02*X12715Y132758D01*
X7915D02*X12715Y137558D01*
X8715Y136758D02*X11915D01*
X8715D02*Y133558D01*
X11915D01*
Y136758D02*Y133558D01*
X47285Y137558D02*X52085Y132758D01*
X47285D02*X52085Y137558D01*
X48085Y136758D02*X51285D01*
X48085D02*Y133558D01*
X51285D01*
Y136758D02*Y133558D01*
X27600Y147400D02*X32400Y142600D01*
X27600D02*X32400Y147400D01*
X28400Y146600D02*X31600D01*
X28400D02*Y143400D01*
X31600D01*
Y146600D02*Y143400D01*
X555415Y137558D02*X560215Y132758D01*
X555415D02*X560215Y137558D01*
X556215Y136758D02*X559415D01*
X556215D02*Y133558D01*
X559415D01*
Y136758D02*Y133558D01*
X594785Y137558D02*X599585Y132758D01*
X594785D02*X599585Y137558D01*
X595585Y136758D02*X598785D01*
X595585D02*Y133558D01*
X598785D01*
Y136758D02*Y133558D01*
X575100Y147400D02*X579900Y142600D01*
X575100D02*X579900Y147400D01*
X575900Y146600D02*X579100D01*
X575900D02*Y143400D01*
X579100D01*
Y146600D02*Y143400D01*
X12600Y183650D02*X17400Y178850D01*
X12600D02*X17400Y183650D01*
X13400Y182850D02*X16600D01*
X13400D02*Y179650D01*
X16600D01*
Y182850D02*Y179650D01*
G54D30*X135000Y183500D02*Y182750D01*
X136500Y181250D01*
X138000Y182750D01*
Y183500D02*Y182750D01*
X136500Y181250D02*Y177500D01*
X139801Y180500D02*X142051D01*
X139801Y177500D02*X142801D01*
X139801Y183500D02*Y177500D01*
Y183500D02*X142801D01*
X147603D02*X148353Y182750D01*
X145353Y183500D02*X147603D01*
X144603Y182750D02*X145353Y183500D01*
X144603Y182750D02*Y181250D01*
X145353Y180500D01*
X147603D01*
X148353Y179750D01*
Y178250D01*
X147603Y177500D02*X148353Y178250D01*
X145353Y177500D02*X147603D01*
X144603Y178250D02*X145353Y177500D01*
X135000Y174249D02*X150154D01*
X98750Y177500D02*X100250D01*
X99500Y183500D02*Y177500D01*
X98000Y182000D02*X99500Y183500D01*
X102051Y182750D02*X102801Y183500D01*
X105051D01*
X105801Y182750D01*
Y181250D01*
X102051Y177500D02*X105801Y181250D01*
X102051Y177500D02*X105801D01*
X98000Y174249D02*X107603D01*
X45000Y178250D02*X45750Y177500D01*
X45000Y182750D02*Y178250D01*
Y182750D02*X45750Y183500D01*
X47250D01*
X48000Y182750D01*
Y178250D01*
X47250Y177500D02*X48000Y178250D01*
X45750Y177500D02*X47250D01*
X45000Y179000D02*X48000Y182000D01*
X49801Y177500D02*X50551D01*
X52353Y178250D02*X53103Y177500D01*
X52353Y182750D02*Y178250D01*
Y182750D02*X53103Y183500D01*
X54603D01*
X55353Y182750D01*
Y178250D01*
X54603Y177500D02*X55353Y178250D01*
X53103Y177500D02*X54603D01*
X52353Y179000D02*X55353Y182000D01*
X57154Y183500D02*X60154D01*
X57154D02*Y180500D01*
X57904Y181250D01*
X59404D01*
X60154Y180500D01*
Y178250D01*
X59404Y177500D02*X60154Y178250D01*
X57904Y177500D02*X59404D01*
X57154Y178250D02*X57904Y177500D01*
X61956Y182750D02*X62706Y183500D01*
X64956D01*
X65706Y182750D01*
Y181250D01*
X61956Y177500D02*X65706Y181250D01*
X61956Y177500D02*X65706D01*
X45000Y174249D02*X67507D01*
X35000Y65700D02*Y59300D01*
X31800Y62500D02*X38200D01*
X33400Y64100D02*X36600D01*
X33400D02*Y60900D01*
X36600D01*
Y64100D02*Y60900D01*
X75000Y65700D02*Y59300D01*
X71800Y62500D02*X78200D01*
X73400Y64100D02*X76600D01*
X73400D02*Y60900D01*
X76600D01*
Y64100D02*Y60900D01*
X145000Y83200D02*Y76800D01*
X141800Y80000D02*X148200D01*
X143400Y81600D02*X146600D01*
X143400D02*Y78400D01*
X146600D01*
Y81600D02*Y78400D01*
X145000Y123200D02*Y116800D01*
X141800Y120000D02*X148200D01*
X143400Y121600D02*X146600D01*
X143400D02*Y118400D01*
X146600D01*
Y121600D02*Y118400D01*
X160000Y123200D02*Y116800D01*
X156800Y120000D02*X163200D01*
X158400Y121600D02*X161600D01*
X158400D02*Y118400D01*
X161600D01*
Y121600D02*Y118400D01*
X160000Y83200D02*Y76800D01*
X156800Y80000D02*X163200D01*
X158400Y81600D02*X161600D01*
X158400D02*Y78400D01*
X161600D01*
Y81600D02*Y78400D01*
X180000Y68200D02*Y61800D01*
X176800Y65000D02*X183200D01*
X178400Y66600D02*X181600D01*
X178400D02*Y63400D01*
X181600D01*
Y66600D02*Y63400D01*
X220000Y68200D02*Y61800D01*
X216800Y65000D02*X223200D01*
X218400Y66600D02*X221600D01*
X218400D02*Y63400D01*
X221600D01*
Y66600D02*Y63400D01*
X252500Y123200D02*Y116800D01*
X249300Y120000D02*X255700D01*
X250900Y121600D02*X254100D01*
X250900D02*Y118400D01*
X254100D01*
Y121600D02*Y118400D01*
X252500Y83200D02*Y76800D01*
X249300Y80000D02*X255700D01*
X250900Y81600D02*X254100D01*
X250900D02*Y78400D01*
X254100D01*
Y81600D02*Y78400D01*
X57500Y123200D02*Y116800D01*
X54300Y120000D02*X60700D01*
X55900Y121600D02*X59100D01*
X55900D02*Y118400D01*
X59100D01*
Y121600D02*Y118400D01*
X57500Y83200D02*Y76800D01*
X54300Y80000D02*X60700D01*
X55900Y81600D02*X59100D01*
X55900D02*Y78400D01*
X59100D01*
Y81600D02*Y78400D01*
X160000Y153200D02*Y146800D01*
X156800Y150000D02*X163200D01*
X158400Y151600D02*X161600D01*
X158400D02*Y148400D01*
X161600D01*
Y151600D02*Y148400D01*
X120000Y153200D02*Y146800D01*
X116800Y150000D02*X123200D01*
X118400Y151600D02*X121600D01*
X118400D02*Y148400D01*
X121600D01*
Y151600D02*Y148400D01*
X180000Y48200D02*Y41800D01*
X176800Y45000D02*X183200D01*
X178400Y46600D02*X181600D01*
X178400D02*Y43400D01*
X181600D01*
Y46600D02*Y43400D01*
X220000Y48200D02*Y41800D01*
X216800Y45000D02*X223200D01*
X218400Y46600D02*X221600D01*
X218400D02*Y43400D01*
X221600D01*
Y46600D02*Y43400D01*
X40000Y83200D02*Y76800D01*
X36800Y80000D02*X43200D01*
X38400Y81600D02*X41600D01*
X38400D02*Y78400D01*
X41600D01*
Y81600D02*Y78400D01*
X40000Y123200D02*Y116800D01*
X36800Y120000D02*X43200D01*
X38400Y121600D02*X41600D01*
X38400D02*Y118400D01*
X41600D01*
Y121600D02*Y118400D01*
X340000Y65700D02*Y59300D01*
X336800Y62500D02*X343200D01*
X338400Y64100D02*X341600D01*
X338400D02*Y60900D01*
X341600D01*
Y64100D02*Y60900D01*
X380000Y65700D02*Y59300D01*
X376800Y62500D02*X383200D01*
X378400Y64100D02*X381600D01*
X378400D02*Y60900D01*
X381600D01*
Y64100D02*Y60900D01*
X450000Y83200D02*Y76800D01*
X446800Y80000D02*X453200D01*
X448400Y81600D02*X451600D01*
X448400D02*Y78400D01*
X451600D01*
Y81600D02*Y78400D01*
X450000Y123200D02*Y116800D01*
X446800Y120000D02*X453200D01*
X448400Y121600D02*X451600D01*
X448400D02*Y118400D01*
X451600D01*
Y121600D02*Y118400D01*
X465000Y123200D02*Y116800D01*
X461800Y120000D02*X468200D01*
X463400Y121600D02*X466600D01*
X463400D02*Y118400D01*
X466600D01*
Y121600D02*Y118400D01*
X465000Y83200D02*Y76800D01*
X461800Y80000D02*X468200D01*
X463400Y81600D02*X466600D01*
X463400D02*Y78400D01*
X466600D01*
Y81600D02*Y78400D01*
X485000Y68200D02*Y61800D01*
X481800Y65000D02*X488200D01*
X483400Y66600D02*X486600D01*
X483400D02*Y63400D01*
X486600D01*
Y66600D02*Y63400D01*
X525000Y68200D02*Y61800D01*
X521800Y65000D02*X528200D01*
X523400Y66600D02*X526600D01*
X523400D02*Y63400D01*
X526600D01*
Y66600D02*Y63400D01*
X557500Y123200D02*Y116800D01*
X554300Y120000D02*X560700D01*
X555900Y121600D02*X559100D01*
X555900D02*Y118400D01*
X559100D01*
Y121600D02*Y118400D01*
X557500Y83200D02*Y76800D01*
X554300Y80000D02*X560700D01*
X555900Y81600D02*X559100D01*
X555900D02*Y78400D01*
X559100D01*
Y81600D02*Y78400D01*
X362500Y123200D02*Y116800D01*
X359300Y120000D02*X365700D01*
X360900Y121600D02*X364100D01*
X360900D02*Y118400D01*
X364100D01*
Y121600D02*Y118400D01*
X362500Y83200D02*Y76800D01*
X359300Y80000D02*X365700D01*
X360900Y81600D02*X364100D01*
X360900D02*Y78400D01*
X364100D01*
Y81600D02*Y78400D01*
X465000Y153200D02*Y146800D01*
X461800Y150000D02*X468200D01*
X463400Y151600D02*X466600D01*
X463400D02*Y148400D01*
X466600D01*
Y151600D02*Y148400D01*
X425000Y153200D02*Y146800D01*
X421800Y150000D02*X428200D01*
X423400Y151600D02*X426600D01*
X423400D02*Y148400D01*
X426600D01*
Y151600D02*Y148400D01*
X485000Y48200D02*Y41800D01*
X481800Y45000D02*X488200D01*
X483400Y46600D02*X486600D01*
X483400D02*Y43400D01*
X486600D01*
Y46600D02*Y43400D01*
X525000Y48200D02*Y41800D01*
X521800Y45000D02*X528200D01*
X523400Y46600D02*X526600D01*
X523400D02*Y43400D01*
X526600D01*
Y46600D02*Y43400D01*
X345000Y83200D02*Y76800D01*
X341800Y80000D02*X348200D01*
X343400Y81600D02*X346600D01*
X343400D02*Y78400D01*
X346600D01*
Y81600D02*Y78400D01*
X345000Y123200D02*Y116800D01*
X341800Y120000D02*X348200D01*
X343400Y121600D02*X346600D01*
X343400D02*Y118400D01*
X346600D01*
Y121600D02*Y118400D01*
X15000Y199450D02*Y193050D01*
X11800Y196250D02*X18200D01*
X13400Y197850D02*X16600D01*
X13400D02*Y194650D01*
X16600D01*
Y197850D02*Y194650D01*
X135000Y198500D02*Y197750D01*
X136500Y196250D01*
X138000Y197750D01*
Y198500D02*Y197750D01*
X136500Y196250D02*Y192500D01*
X139801Y195500D02*X142051D01*
X139801Y192500D02*X142801D01*
X139801Y198500D02*Y192500D01*
Y198500D02*X142801D01*
X147603D02*X148353Y197750D01*
X145353Y198500D02*X147603D01*
X144603Y197750D02*X145353Y198500D01*
X144603Y197750D02*Y196250D01*
X145353Y195500D01*
X147603D01*
X148353Y194750D01*
Y193250D01*
X147603Y192500D02*X148353Y193250D01*
X145353Y192500D02*X147603D01*
X144603Y193250D02*X145353Y192500D01*
X135000Y189249D02*X150154D01*
X98000Y197750D02*X98750Y198500D01*
X100250D01*
X101000Y197750D01*
Y193250D01*
X100250Y192500D02*X101000Y193250D01*
X98750Y192500D02*X100250D01*
X98000Y193250D02*X98750Y192500D01*
Y195500D02*X101000D01*
X105051Y198500D02*X105801Y197750D01*
X103551Y198500D02*X105051D01*
X102801Y197750D02*X103551Y198500D01*
X102801Y197750D02*Y193250D01*
X103551Y192500D01*
X105051Y195500D02*X105801Y194750D01*
X102801Y195500D02*X105051D01*
X103551Y192500D02*X105051D01*
X105801Y193250D01*
Y194750D02*Y193250D01*
X98000Y189249D02*X107603D01*
X45000Y193250D02*X45750Y192500D01*
X45000Y197750D02*Y193250D01*
Y197750D02*X45750Y198500D01*
X47250D01*
X48000Y197750D01*
Y193250D01*
X47250Y192500D02*X48000Y193250D01*
X45750Y192500D02*X47250D01*
X45000Y194000D02*X48000Y197000D01*
X49801Y192500D02*X50551D01*
X52353Y193250D02*X53103Y192500D01*
X52353Y197750D02*Y193250D01*
Y197750D02*X53103Y198500D01*
X54603D01*
X55353Y197750D01*
Y193250D01*
X54603Y192500D02*X55353Y193250D01*
X53103Y192500D02*X54603D01*
X52353Y194000D02*X55353Y197000D01*
X57154Y195500D02*X60154Y198500D01*
X57154Y195500D02*X60904D01*
X60154Y198500D02*Y192500D01*
X62706Y193250D02*X63456Y192500D01*
X62706Y197750D02*Y193250D01*
Y197750D02*X63456Y198500D01*
X64956D01*
X65706Y197750D01*
Y193250D01*
X64956Y192500D02*X65706Y193250D01*
X63456Y192500D02*X64956D01*
X62706Y194000D02*X65706Y197000D01*
X45000Y189249D02*X67507D01*
X15000Y15000D02*Y11800D01*
Y15000D02*X17773Y16600D01*
X15000Y15000D02*X12227Y16600D01*
X13400Y15000D02*G75*G03X16600Y15000I1600J0D01*G01*
G75*G03X13400Y15000I-1600J0D01*G01*
X25000D02*Y11800D01*
Y15000D02*X27773Y16600D01*
X25000Y15000D02*X22227Y16600D01*
X23400Y15000D02*G75*G03X26600Y15000I1600J0D01*G01*
G75*G03X23400Y15000I-1600J0D01*G01*
X35000D02*Y11800D01*
Y15000D02*X37773Y16600D01*
X35000Y15000D02*X32227Y16600D01*
X33400Y15000D02*G75*G03X36600Y15000I1600J0D01*G01*
G75*G03X33400Y15000I-1600J0D01*G01*
X45000D02*Y11800D01*
Y15000D02*X47773Y16600D01*
X45000Y15000D02*X42227Y16600D01*
X43400Y15000D02*G75*G03X46600Y15000I1600J0D01*G01*
G75*G03X43400Y15000I-1600J0D01*G01*
X55000D02*Y11800D01*
Y15000D02*X57773Y16600D01*
X55000Y15000D02*X52227Y16600D01*
X53400Y15000D02*G75*G03X56600Y15000I1600J0D01*G01*
G75*G03X53400Y15000I-1600J0D01*G01*
X65000D02*Y11800D01*
Y15000D02*X67773Y16600D01*
X65000Y15000D02*X62227Y16600D01*
X63400Y15000D02*G75*G03X66600Y15000I1600J0D01*G01*
G75*G03X63400Y15000I-1600J0D01*G01*
X75000D02*Y11800D01*
Y15000D02*X77773Y16600D01*
X75000Y15000D02*X72227Y16600D01*
X73400Y15000D02*G75*G03X76600Y15000I1600J0D01*G01*
G75*G03X73400Y15000I-1600J0D01*G01*
X85000D02*Y11800D01*
Y15000D02*X87773Y16600D01*
X85000Y15000D02*X82227Y16600D01*
X83400Y15000D02*G75*G03X86600Y15000I1600J0D01*G01*
G75*G03X83400Y15000I-1600J0D01*G01*
X15000Y211250D02*Y208050D01*
Y211250D02*X17773Y212850D01*
X15000Y211250D02*X12227Y212850D01*
X13400Y211250D02*G75*G03X16600Y211250I1600J0D01*G01*
G75*G03X13400Y211250I-1600J0D01*G01*
X135000Y213500D02*Y212750D01*
X136500Y211250D01*
X138000Y212750D01*
Y213500D02*Y212750D01*
X136500Y211250D02*Y207500D01*
X139801Y210500D02*X142051D01*
X139801Y207500D02*X142801D01*
X139801Y213500D02*Y207500D01*
Y213500D02*X142801D01*
X147603D02*X148353Y212750D01*
X145353Y213500D02*X147603D01*
X144603Y212750D02*X145353Y213500D01*
X144603Y212750D02*Y211250D01*
X145353Y210500D01*
X147603D01*
X148353Y209750D01*
Y208250D01*
X147603Y207500D02*X148353Y208250D01*
X145353Y207500D02*X147603D01*
X144603Y208250D02*X145353Y207500D01*
X135000Y204249D02*X150154D01*
X98000Y208250D02*X98750Y207500D01*
X98000Y209750D02*Y208250D01*
Y209750D02*X98750Y210500D01*
X100250D01*
X101000Y209750D01*
Y208250D01*
X100250Y207500D02*X101000Y208250D01*
X98750Y207500D02*X100250D01*
X98000Y211250D02*X98750Y210500D01*
X98000Y212750D02*Y211250D01*
Y212750D02*X98750Y213500D01*
X100250D01*
X101000Y212750D01*
Y211250D01*
X100250Y210500D02*X101000Y211250D01*
X98000Y204249D02*X102801D01*
X45000Y208250D02*X45750Y207500D01*
X45000Y212750D02*Y208250D01*
Y212750D02*X45750Y213500D01*
X47250D01*
X48000Y212750D01*
Y208250D01*
X47250Y207500D02*X48000Y208250D01*
X45750Y207500D02*X47250D01*
X45000Y209000D02*X48000Y212000D01*
X49801Y207500D02*X50551D01*
X52353Y208250D02*X53103Y207500D01*
X52353Y212750D02*Y208250D01*
Y212750D02*X53103Y213500D01*
X54603D01*
X55353Y212750D01*
Y208250D01*
X54603Y207500D02*X55353Y208250D01*
X53103Y207500D02*X54603D01*
X52353Y209000D02*X55353Y212000D01*
X57154Y212750D02*X57904Y213500D01*
X59404D01*
X60154Y212750D01*
Y208250D01*
X59404Y207500D02*X60154Y208250D01*
X57904Y207500D02*X59404D01*
X57154Y208250D02*X57904Y207500D01*
Y210500D02*X60154D01*
X61956Y208250D02*X62706Y207500D01*
X61956Y209750D02*Y208250D01*
Y209750D02*X62706Y210500D01*
X64206D01*
X64956Y209750D01*
Y208250D01*
X64206Y207500D02*X64956Y208250D01*
X62706Y207500D02*X64206D01*
X61956Y211250D02*X62706Y210500D01*
X61956Y212750D02*Y211250D01*
Y212750D02*X62706Y213500D01*
X64206D01*
X64956Y212750D01*
Y211250D01*
X64206Y210500D02*X64956Y211250D01*
X45000Y204249D02*X66757D01*
X350900Y16600D02*X354100D01*
X350900D02*Y13400D01*
X354100D01*
Y16600D02*Y13400D01*
X10900Y39100D02*X14100D01*
X10900D02*Y35900D01*
X14100D01*
Y39100D02*Y35900D01*
X13400Y227850D02*X16600D01*
X13400D02*Y224650D01*
X16600D01*
Y227850D02*Y224650D01*
X135000Y228500D02*Y227750D01*
X136500Y226250D01*
X138000Y227750D01*
Y228500D02*Y227750D01*
X136500Y226250D02*Y222500D01*
X139801Y225500D02*X142051D01*
X139801Y222500D02*X142801D01*
X139801Y228500D02*Y222500D01*
Y228500D02*X142801D01*
X147603D02*X148353Y227750D01*
X145353Y228500D02*X147603D01*
X144603Y227750D02*X145353Y228500D01*
X144603Y227750D02*Y226250D01*
X145353Y225500D01*
X147603D01*
X148353Y224750D01*
Y223250D01*
X147603Y222500D02*X148353Y223250D01*
X145353Y222500D02*X147603D01*
X144603Y223250D02*X145353Y222500D01*
X135000Y219249D02*X150154D01*
X98000Y227750D02*X98750Y228500D01*
X101000D01*
X101750Y227750D01*
Y226250D01*
X98000Y222500D02*X101750Y226250D01*
X98000Y222500D02*X101750D01*
X98000Y219249D02*X103551D01*
X45000Y223250D02*X45750Y222500D01*
X45000Y227750D02*Y223250D01*
Y227750D02*X45750Y228500D01*
X47250D01*
X48000Y227750D01*
Y223250D01*
X47250Y222500D02*X48000Y223250D01*
X45750Y222500D02*X47250D01*
X45000Y224000D02*X48000Y227000D01*
X49801Y222500D02*X50551D01*
X52353Y223250D02*X53103Y222500D01*
X52353Y227750D02*Y223250D01*
Y227750D02*X53103Y228500D01*
X54603D01*
X55353Y227750D01*
Y223250D01*
X54603Y222500D02*X55353Y223250D01*
X53103Y222500D02*X54603D01*
X52353Y224000D02*X55353Y227000D01*
X57154Y227750D02*X57904Y228500D01*
X59404D01*
X60154Y227750D01*
Y223250D01*
X59404Y222500D02*X60154Y223250D01*
X57904Y222500D02*X59404D01*
X57154Y223250D02*X57904Y222500D01*
Y225500D02*X60154D01*
X61956Y228500D02*X64956D01*
X61956D02*Y225500D01*
X62706Y226250D01*
X64206D01*
X64956Y225500D01*
Y223250D01*
X64206Y222500D02*X64956Y223250D01*
X62706Y222500D02*X64206D01*
X61956Y223250D02*X62706Y222500D01*
X45000Y219249D02*X66757D01*
X151700Y32500D02*G75*G03X153300Y32500I800J0D01*G01*
G75*G03X151700Y32500I-800J0D01*G01*
Y72500D02*G75*G03X153300Y72500I800J0D01*G01*
G75*G03X151700Y72500I-800J0D01*G01*
X169200Y120000D02*G75*G03X170800Y120000I800J0D01*G01*
G75*G03X169200Y120000I-800J0D01*G01*
Y80000D02*G75*G03X170800Y80000I800J0D01*G01*
G75*G03X169200Y80000I-800J0D01*G01*
Y25000D02*G75*G03X170800Y25000I800J0D01*G01*
G75*G03X169200Y25000I-800J0D01*G01*
Y65000D02*G75*G03X170800Y65000I800J0D01*G01*
G75*G03X169200Y65000I-800J0D01*G01*
X244200Y125000D02*G75*G03X245800Y125000I800J0D01*G01*
G75*G03X244200Y125000I-800J0D01*G01*
X204200D02*G75*G03X205800Y125000I800J0D01*G01*
G75*G03X204200Y125000I-800J0D01*G01*
X265263Y65000D02*G75*G03X266863Y65000I800J0D01*G01*
G75*G03X265263Y65000I-800J0D01*G01*
X273137D02*G75*G03X274737Y65000I800J0D01*G01*
G75*G03X273137Y65000I-800J0D01*G01*
X456700Y32500D02*G75*G03X458300Y32500I800J0D01*G01*
G75*G03X456700Y32500I-800J0D01*G01*
Y72500D02*G75*G03X458300Y72500I800J0D01*G01*
G75*G03X456700Y72500I-800J0D01*G01*
X474200Y120000D02*G75*G03X475800Y120000I800J0D01*G01*
G75*G03X474200Y120000I-800J0D01*G01*
Y80000D02*G75*G03X475800Y80000I800J0D01*G01*
G75*G03X474200Y80000I-800J0D01*G01*
Y25000D02*G75*G03X475800Y25000I800J0D01*G01*
G75*G03X474200Y25000I-800J0D01*G01*
Y65000D02*G75*G03X475800Y65000I800J0D01*G01*
G75*G03X474200Y65000I-800J0D01*G01*
X549200Y125000D02*G75*G03X550800Y125000I800J0D01*G01*
G75*G03X549200Y125000I-800J0D01*G01*
X509200D02*G75*G03X510800Y125000I800J0D01*G01*
G75*G03X509200Y125000I-800J0D01*G01*
X570263Y65000D02*G75*G03X571863Y65000I800J0D01*G01*
G75*G03X570263Y65000I-800J0D01*G01*
X578137D02*G75*G03X579737Y65000I800J0D01*G01*
G75*G03X578137Y65000I-800J0D01*G01*
X14200Y241250D02*G75*G03X15800Y241250I800J0D01*G01*
G75*G03X14200Y241250I-800J0D01*G01*
X135000Y243500D02*Y242750D01*
X136500Y241250D01*
X138000Y242750D01*
Y243500D02*Y242750D01*
X136500Y241250D02*Y237500D01*
X139801Y240500D02*X142051D01*
X139801Y237500D02*X142801D01*
X139801Y243500D02*Y237500D01*
Y243500D02*X142801D01*
X147603D02*X148353Y242750D01*
X145353Y243500D02*X147603D01*
X144603Y242750D02*X145353Y243500D01*
X144603Y242750D02*Y241250D01*
X145353Y240500D01*
X147603D01*
X148353Y239750D01*
Y238250D01*
X147603Y237500D02*X148353Y238250D01*
X145353Y237500D02*X147603D01*
X144603Y238250D02*X145353Y237500D01*
X135000Y234249D02*X150154D01*
X98000Y242750D02*X98750Y243500D01*
X101000D01*
X101750Y242750D01*
Y241250D01*
X98000Y237500D02*X101750Y241250D01*
X98000Y237500D02*X101750D01*
X103551Y238250D02*X104301Y237500D01*
X103551Y242750D02*Y238250D01*
Y242750D02*X104301Y243500D01*
X105801D01*
X106551Y242750D01*
Y238250D01*
X105801Y237500D02*X106551Y238250D01*
X104301Y237500D02*X105801D01*
X103551Y239000D02*X106551Y242000D01*
X98000Y234249D02*X108353D01*
X45000Y238250D02*X45750Y237500D01*
X45000Y242750D02*Y238250D01*
Y242750D02*X45750Y243500D01*
X47250D01*
X48000Y242750D01*
Y238250D01*
X47250Y237500D02*X48000Y238250D01*
X45750Y237500D02*X47250D01*
X45000Y239000D02*X48000Y242000D01*
X49801Y237500D02*X50551D01*
X52353Y238250D02*X53103Y237500D01*
X52353Y242750D02*Y238250D01*
Y242750D02*X53103Y243500D01*
X54603D01*
X55353Y242750D01*
Y238250D01*
X54603Y237500D02*X55353Y238250D01*
X53103Y237500D02*X54603D01*
X52353Y239000D02*X55353Y242000D01*
X57154Y242750D02*X57904Y243500D01*
X59404D01*
X60154Y242750D01*
Y238250D01*
X59404Y237500D02*X60154Y238250D01*
X57904Y237500D02*X59404D01*
X57154Y238250D02*X57904Y237500D01*
Y240500D02*X60154D01*
X61956Y242750D02*X62706Y243500D01*
X64956D01*
X65706Y242750D01*
Y241250D01*
X61956Y237500D02*X65706Y241250D01*
X61956Y237500D02*X65706D01*
X45000Y234249D02*X67507D01*
X73800Y86436D02*X76200Y84036D01*
X73800D02*X76200Y86436D01*
X73800Y115964D02*X76200Y113564D01*
X73800D02*X76200Y115964D01*
X69036Y151200D02*X71436Y148800D01*
X69036D02*X71436Y151200D01*
X98564D02*X100964Y148800D01*
X98564D02*X100964Y151200D01*
X378800Y86436D02*X381200Y84036D01*
X378800D02*X381200Y86436D01*
X378800Y115964D02*X381200Y113564D01*
X378800D02*X381200Y115964D01*
X374036Y151200D02*X376436Y148800D01*
X374036D02*X376436Y151200D01*
X403564D02*X405964Y148800D01*
X403564D02*X405964Y151200D01*
X13800Y257450D02*X16200Y255050D01*
X13800D02*X16200Y257450D01*
X135000Y258500D02*Y257750D01*
X136500Y256250D01*
X138000Y257750D01*
Y258500D02*Y257750D01*
X136500Y256250D02*Y252500D01*
X139801Y255500D02*X142051D01*
X139801Y252500D02*X142801D01*
X139801Y258500D02*Y252500D01*
Y258500D02*X142801D01*
X147603D02*X148353Y257750D01*
X145353Y258500D02*X147603D01*
X144603Y257750D02*X145353Y258500D01*
X144603Y257750D02*Y256250D01*
X145353Y255500D01*
X147603D01*
X148353Y254750D01*
Y253250D01*
X147603Y252500D02*X148353Y253250D01*
X145353Y252500D02*X147603D01*
X144603Y253250D02*X145353Y252500D01*
X135000Y249249D02*X150154D01*
X98000Y253250D02*X98750Y252500D01*
X98000Y254750D02*Y253250D01*
Y254750D02*X98750Y255500D01*
X100250D01*
X101000Y254750D01*
Y253250D01*
X100250Y252500D02*X101000Y253250D01*
X98750Y252500D02*X100250D01*
X98000Y256250D02*X98750Y255500D01*
X98000Y257750D02*Y256250D01*
Y257750D02*X98750Y258500D01*
X100250D01*
X101000Y257750D01*
Y256250D01*
X100250Y255500D02*X101000Y256250D01*
X98000Y249249D02*X102801D01*
X45000Y253250D02*X45750Y252500D01*
X45000Y257750D02*Y253250D01*
Y257750D02*X45750Y258500D01*
X47250D01*
X48000Y257750D01*
Y253250D01*
X47250Y252500D02*X48000Y253250D01*
X45750Y252500D02*X47250D01*
X45000Y254000D02*X48000Y257000D01*
X49801Y252500D02*X50551D01*
X52353Y253250D02*X53103Y252500D01*
X52353Y257750D02*Y253250D01*
Y257750D02*X53103Y258500D01*
X54603D01*
X55353Y257750D01*
Y253250D01*
X54603Y252500D02*X55353Y253250D01*
X53103Y252500D02*X54603D01*
X52353Y254000D02*X55353Y257000D01*
X57154Y257750D02*X57904Y258500D01*
X59404D01*
X60154Y257750D01*
Y253250D01*
X59404Y252500D02*X60154Y253250D01*
X57904Y252500D02*X59404D01*
X57154Y253250D02*X57904Y252500D01*
Y255500D02*X60154D01*
X61956Y253250D02*X62706Y252500D01*
X61956Y257750D02*Y253250D01*
Y257750D02*X62706Y258500D01*
X64206D01*
X64956Y257750D01*
Y253250D01*
X64206Y252500D02*X64956Y253250D01*
X62706Y252500D02*X64206D01*
X61956Y254000D02*X64956Y257000D01*
X45000Y249249D02*X66757D01*
X185000Y86600D02*Y83400D01*
X183400Y85000D02*X186600D01*
X195000Y86600D02*Y83400D01*
X193400Y85000D02*X196600D01*
X205000Y86600D02*Y83400D01*
X203400Y85000D02*X206600D01*
X215000Y86600D02*Y83400D01*
X213400Y85000D02*X216600D01*
X215000Y116600D02*Y113400D01*
X213400Y115000D02*X216600D01*
X205000Y116600D02*Y113400D01*
X203400Y115000D02*X206600D01*
X195000Y116600D02*Y113400D01*
X193400Y115000D02*X196600D01*
X185000Y116600D02*Y113400D01*
X183400Y115000D02*X186600D01*
X265000Y86600D02*Y83400D01*
X263400Y85000D02*X266600D01*
X275000Y86600D02*Y83400D01*
X273400Y85000D02*X276600D01*
X285000Y86600D02*Y83400D01*
X283400Y85000D02*X286600D01*
X295000Y86600D02*Y83400D01*
X293400Y85000D02*X296600D01*
X295000Y116600D02*Y113400D01*
X293400Y115000D02*X296600D01*
X285000Y116600D02*Y113400D01*
X283400Y115000D02*X286600D01*
X275000Y116600D02*Y113400D01*
X273400Y115000D02*X276600D01*
X265000Y116600D02*Y113400D01*
X263400Y115000D02*X266600D01*
X100000Y86600D02*Y83400D01*
X98400Y85000D02*X101600D01*
X110000Y86600D02*Y83400D01*
X108400Y85000D02*X111600D01*
X120000Y86600D02*Y83400D01*
X118400Y85000D02*X121600D01*
X130000Y86600D02*Y83400D01*
X128400Y85000D02*X131600D01*
X130000Y116600D02*Y113400D01*
X128400Y115000D02*X131600D01*
X120000Y116600D02*Y113400D01*
X118400Y115000D02*X121600D01*
X110000Y116600D02*Y113400D01*
X108400Y115000D02*X111600D01*
X100000Y116600D02*Y113400D01*
X98400Y115000D02*X101600D01*
X490000Y86600D02*Y83400D01*
X488400Y85000D02*X491600D01*
X500000Y86600D02*Y83400D01*
X498400Y85000D02*X501600D01*
X510000Y86600D02*Y83400D01*
X508400Y85000D02*X511600D01*
X520000Y86600D02*Y83400D01*
X518400Y85000D02*X521600D01*
X520000Y116600D02*Y113400D01*
X518400Y115000D02*X521600D01*
X510000Y116600D02*Y113400D01*
X508400Y115000D02*X511600D01*
X500000Y116600D02*Y113400D01*
X498400Y115000D02*X501600D01*
X490000Y116600D02*Y113400D01*
X488400Y115000D02*X491600D01*
X570000Y86600D02*Y83400D01*
X568400Y85000D02*X571600D01*
X580000Y86600D02*Y83400D01*
X578400Y85000D02*X581600D01*
X590000Y86600D02*Y83400D01*
X588400Y85000D02*X591600D01*
X600000Y86600D02*Y83400D01*
X598400Y85000D02*X601600D01*
X600000Y116600D02*Y113400D01*
X598400Y115000D02*X601600D01*
X590000Y116600D02*Y113400D01*
X588400Y115000D02*X591600D01*
X580000Y116600D02*Y113400D01*
X578400Y115000D02*X581600D01*
X570000Y116600D02*Y113400D01*
X568400Y115000D02*X571600D01*
X405000Y86600D02*Y83400D01*
X403400Y85000D02*X406600D01*
X415000Y86600D02*Y83400D01*
X413400Y85000D02*X416600D01*
X425000Y86600D02*Y83400D01*
X423400Y85000D02*X426600D01*
X435000Y86600D02*Y83400D01*
X433400Y85000D02*X436600D01*
X435000Y116600D02*Y113400D01*
X433400Y115000D02*X436600D01*
X425000Y116600D02*Y113400D01*
X423400Y115000D02*X426600D01*
X415000Y116600D02*Y113400D01*
X413400Y115000D02*X416600D01*
X405000Y116600D02*Y113400D01*
X403400Y115000D02*X406600D01*
X15000Y272850D02*Y269650D01*
X13400Y271250D02*X16600D01*
X135000Y273500D02*Y272750D01*
X136500Y271250D01*
X138000Y272750D01*
Y273500D02*Y272750D01*
X136500Y271250D02*Y267500D01*
X139801Y270500D02*X142051D01*
X139801Y267500D02*X142801D01*
X139801Y273500D02*Y267500D01*
Y273500D02*X142801D01*
X147603D02*X148353Y272750D01*
X145353Y273500D02*X147603D01*
X144603Y272750D02*X145353Y273500D01*
X144603Y272750D02*Y271250D01*
X145353Y270500D01*
X147603D01*
X148353Y269750D01*
Y268250D01*
X147603Y267500D02*X148353Y268250D01*
X145353Y267500D02*X147603D01*
X144603Y268250D02*X145353Y267500D01*
X135000Y264249D02*X150154D01*
X98000Y270500D02*X101000Y273500D01*
X98000Y270500D02*X101750D01*
X101000Y273500D02*Y267500D01*
X103551Y268250D02*X104301Y267500D01*
X103551Y269750D02*Y268250D01*
Y269750D02*X104301Y270500D01*
X105801D01*
X106551Y269750D01*
Y268250D01*
X105801Y267500D02*X106551Y268250D01*
X104301Y267500D02*X105801D01*
X103551Y271250D02*X104301Y270500D01*
X103551Y272750D02*Y271250D01*
Y272750D02*X104301Y273500D01*
X105801D01*
X106551Y272750D01*
Y271250D01*
X105801Y270500D02*X106551Y271250D01*
X98000Y264249D02*X108353D01*
X45000Y268250D02*X45750Y267500D01*
X45000Y272750D02*Y268250D01*
Y272750D02*X45750Y273500D01*
X47250D01*
X48000Y272750D01*
Y268250D01*
X47250Y267500D02*X48000Y268250D01*
X45750Y267500D02*X47250D01*
X45000Y269000D02*X48000Y272000D01*
X49801Y267500D02*X50551D01*
X52353Y268250D02*X53103Y267500D01*
X52353Y272750D02*Y268250D01*
Y272750D02*X53103Y273500D01*
X54603D01*
X55353Y272750D01*
Y268250D01*
X54603Y267500D02*X55353Y268250D01*
X53103Y267500D02*X54603D01*
X52353Y269000D02*X55353Y272000D01*
X57154Y272750D02*X57904Y273500D01*
X60154D01*
X60904Y272750D01*
Y271250D01*
X57154Y267500D02*X60904Y271250D01*
X57154Y267500D02*X60904D01*
X62706Y268250D02*X63456Y267500D01*
X62706Y269750D02*Y268250D01*
Y269750D02*X63456Y270500D01*
X64956D01*
X65706Y269750D01*
Y268250D01*
X64956Y267500D02*X65706Y268250D01*
X63456Y267500D02*X64956D01*
X62706Y271250D02*X63456Y270500D01*
X62706Y272750D02*Y271250D01*
Y272750D02*X63456Y273500D01*
X64956D01*
X65706Y272750D01*
Y271250D01*
X64956Y270500D02*X65706Y271250D01*
X45000Y264249D02*X67507D01*
X295000Y55000D02*Y53400D01*
Y55000D02*X296386Y55800D01*
X295000Y55000D02*X293614Y55800D01*
X295000Y75000D02*Y73400D01*
Y75000D02*X296386Y75800D01*
X295000Y75000D02*X293614Y75800D01*
X295000Y125000D02*Y123400D01*
Y125000D02*X296386Y125800D01*
X295000Y125000D02*X293614Y125800D01*
X275000Y125000D02*Y123400D01*
Y125000D02*X276386Y125800D01*
X275000Y125000D02*X273614Y125800D01*
X130000Y125000D02*Y123400D01*
Y125000D02*X131386Y125800D01*
X130000Y125000D02*X128614Y125800D01*
X110000Y125000D02*Y123400D01*
Y125000D02*X111386Y125800D01*
X110000Y125000D02*X108614Y125800D01*
X130000Y55000D02*Y53400D01*
Y55000D02*X131386Y55800D01*
X130000Y55000D02*X128614Y55800D01*
X130000Y75000D02*Y73400D01*
Y75000D02*X131386Y75800D01*
X130000Y75000D02*X128614Y75800D01*
X230000Y65000D02*Y63400D01*
Y65000D02*X231386Y65800D01*
X230000Y65000D02*X228614Y65800D01*
X230000Y85000D02*Y83400D01*
Y85000D02*X231386Y85800D01*
X230000Y85000D02*X228614Y85800D01*
X195000Y145000D02*Y143400D01*
Y145000D02*X196386Y145800D01*
X195000Y145000D02*X193614Y145800D01*
X195000Y125000D02*Y123400D01*
Y125000D02*X196386Y125800D01*
X195000Y125000D02*X193614Y125800D01*
X435000Y125000D02*Y123400D01*
Y125000D02*X436386Y125800D01*
X435000Y125000D02*X433614Y125800D01*
X415000Y125000D02*Y123400D01*
Y125000D02*X416386Y125800D01*
X415000Y125000D02*X413614Y125800D01*
X435000Y55000D02*Y53400D01*
Y55000D02*X436386Y55800D01*
X435000Y55000D02*X433614Y55800D01*
X435000Y75000D02*Y73400D01*
Y75000D02*X436386Y75800D01*
X435000Y75000D02*X433614Y75800D01*
X535000Y65000D02*Y63400D01*
Y65000D02*X536386Y65800D01*
X535000Y65000D02*X533614Y65800D01*
X535000Y85000D02*Y83400D01*
Y85000D02*X536386Y85800D01*
X535000Y85000D02*X533614Y85800D01*
X600000Y125000D02*Y123400D01*
Y125000D02*X601386Y125800D01*
X600000Y125000D02*X598614Y125800D01*
X580000Y125000D02*Y123400D01*
Y125000D02*X581386Y125800D01*
X580000Y125000D02*X578614Y125800D01*
X500000Y145000D02*Y143400D01*
Y145000D02*X501386Y145800D01*
X500000Y145000D02*X498614Y145800D01*
X500000Y125000D02*Y123400D01*
Y125000D02*X501386Y125800D01*
X500000Y125000D02*X498614Y125800D01*
X600000Y55000D02*Y53400D01*
Y55000D02*X601386Y55800D01*
X600000Y55000D02*X598614Y55800D01*
X600000Y75000D02*Y73400D01*
Y75000D02*X601386Y75800D01*
X600000Y75000D02*X598614Y75800D01*
X15000Y286250D02*Y284650D01*
Y286250D02*X16386Y287050D01*
X15000Y286250D02*X13614Y287050D01*
X135000Y288500D02*Y287750D01*
X136500Y286250D01*
X138000Y287750D01*
Y288500D02*Y287750D01*
X136500Y286250D02*Y282500D01*
X139801Y285500D02*X142051D01*
X139801Y282500D02*X142801D01*
X139801Y288500D02*Y282500D01*
Y288500D02*X142801D01*
X147603D02*X148353Y287750D01*
X145353Y288500D02*X147603D01*
X144603Y287750D02*X145353Y288500D01*
X144603Y287750D02*Y286250D01*
X145353Y285500D01*
X147603D01*
X148353Y284750D01*
Y283250D01*
X147603Y282500D02*X148353Y283250D01*
X145353Y282500D02*X147603D01*
X144603Y283250D02*X145353Y282500D01*
X135000Y279249D02*X150154D01*
X98000Y287750D02*X98750Y288500D01*
X101000D01*
X101750Y287750D01*
Y286250D01*
X98000Y282500D02*X101750Y286250D01*
X98000Y282500D02*X101750D01*
X103551Y285500D02*X106551Y288500D01*
X103551Y285500D02*X107301D01*
X106551Y288500D02*Y282500D01*
X98000Y279249D02*X109103D01*
X45000Y283250D02*X45750Y282500D01*
X45000Y287750D02*Y283250D01*
Y287750D02*X45750Y288500D01*
X47250D01*
X48000Y287750D01*
Y283250D01*
X47250Y282500D02*X48000Y283250D01*
X45750Y282500D02*X47250D01*
X45000Y284000D02*X48000Y287000D01*
X49801Y282500D02*X50551D01*
X52353Y283250D02*X53103Y282500D01*
X52353Y287750D02*Y283250D01*
Y287750D02*X53103Y288500D01*
X54603D01*
X55353Y287750D01*
Y283250D01*
X54603Y282500D02*X55353Y283250D01*
X53103Y282500D02*X54603D01*
X52353Y284000D02*X55353Y287000D01*
X57154Y287750D02*X57904Y288500D01*
X60154D01*
X60904Y287750D01*
Y286250D01*
X57154Y282500D02*X60904Y286250D01*
X57154Y282500D02*X60904D01*
X62706Y283250D02*X63456Y282500D01*
X62706Y287750D02*Y283250D01*
Y287750D02*X63456Y288500D01*
X64956D01*
X65706Y287750D01*
Y283250D01*
X64956Y282500D02*X65706Y283250D01*
X63456Y282500D02*X64956D01*
X62706Y284000D02*X65706Y287000D01*
X45000Y279249D02*X67507D01*
X3000Y303500D02*X3750Y302750D01*
X750Y303500D02*X3000D01*
X0Y302750D02*X750Y303500D01*
X0Y302750D02*Y301250D01*
X750Y300500D01*
X3000D01*
X3750Y299750D01*
Y298250D01*
X3000Y297500D02*X3750Y298250D01*
X750Y297500D02*X3000D01*
X0Y298250D02*X750Y297500D01*
X5551Y300500D02*Y298250D01*
X6301Y297500D01*
X8551Y300500D02*Y296000D01*
X7801Y295250D02*X8551Y296000D01*
X6301Y295250D02*X7801D01*
X5551Y296000D02*X6301Y295250D01*
Y297500D02*X7801D01*
X8551Y298250D01*
X11103Y299750D02*Y297500D01*
Y299750D02*X11853Y300500D01*
X12603D01*
X13353Y299750D01*
Y297500D01*
Y299750D02*X14103Y300500D01*
X14853D01*
X15603Y299750D01*
Y297500D01*
X10353Y300500D02*X11103Y299750D01*
X17404Y303500D02*Y297500D01*
Y298250D02*X18154Y297500D01*
X19654D01*
X20404Y298250D01*
Y299750D02*Y298250D01*
X19654Y300500D02*X20404Y299750D01*
X18154Y300500D02*X19654D01*
X17404Y299750D02*X18154Y300500D01*
X22206Y299750D02*Y298250D01*
Y299750D02*X22956Y300500D01*
X24456D01*
X25206Y299750D01*
Y298250D01*
X24456Y297500D02*X25206Y298250D01*
X22956Y297500D02*X24456D01*
X22206Y298250D02*X22956Y297500D01*
X27007Y303500D02*Y298250D01*
X27757Y297500D01*
X41750Y303500D02*Y297500D01*
X44000Y303500D02*X44750Y302750D01*
Y298250D01*
X44000Y297500D02*X44750Y298250D01*
X41000Y297500D02*X44000D01*
X41000Y303500D02*X44000D01*
X46551Y302000D02*Y301250D01*
Y299750D02*Y297500D01*
X50303Y300500D02*X51053Y299750D01*
X48803Y300500D02*X50303D01*
X48053Y299750D02*X48803Y300500D01*
X48053Y299750D02*Y298250D01*
X48803Y297500D01*
X51053Y300500D02*Y298250D01*
X51803Y297500D01*
X48803D02*X50303D01*
X51053Y298250D01*
X54354Y299750D02*Y297500D01*
Y299750D02*X55104Y300500D01*
X55854D01*
X56604Y299750D01*
Y297500D01*
Y299750D02*X57354Y300500D01*
X58104D01*
X58854Y299750D01*
Y297500D01*
X53604Y300500D02*X54354Y299750D01*
X60656Y297500D02*X61406D01*
X65907Y298250D02*X66657Y297500D01*
X65907Y302750D02*X66657Y303500D01*
X65907Y302750D02*Y298250D01*
X68459Y303500D02*X69959D01*
X69209D02*Y297500D01*
X68459D02*X69959D01*
X72510Y299750D02*Y297500D01*
Y299750D02*X73260Y300500D01*
X74010D01*
X74760Y299750D01*
Y297500D01*
X71760Y300500D02*X72510Y299750D01*
X77312Y300500D02*X79562D01*
X76562Y299750D02*X77312Y300500D01*
X76562Y299750D02*Y298250D01*
X77312Y297500D01*
X79562D01*
X81363Y303500D02*Y297500D01*
Y299750D02*X82113Y300500D01*
X83613D01*
X84363Y299750D01*
Y297500D01*
X86165Y303500D02*X86915Y302750D01*
Y298250D01*
X86165Y297500D02*X86915Y298250D01*
X95750Y297500D02*X98000D01*
X95000Y298250D02*X95750Y297500D01*
X95000Y302750D02*Y298250D01*
Y302750D02*X95750Y303500D01*
X98000D01*
X99801Y299750D02*Y298250D01*
Y299750D02*X100551Y300500D01*
X102051D01*
X102801Y299750D01*
Y298250D01*
X102051Y297500D02*X102801Y298250D01*
X100551Y297500D02*X102051D01*
X99801Y298250D02*X100551Y297500D01*
X104603Y300500D02*Y298250D01*
X105353Y297500D01*
X106853D01*
X107603Y298250D01*
Y300500D02*Y298250D01*
X110154Y299750D02*Y297500D01*
Y299750D02*X110904Y300500D01*
X111654D01*
X112404Y299750D01*
Y297500D01*
X109404Y300500D02*X110154Y299750D01*
X114956Y303500D02*Y298250D01*
X115706Y297500D01*
X114206Y301250D02*X115706D01*
X130750Y303500D02*Y297500D01*
X130000Y303500D02*X133000D01*
X133750Y302750D01*
Y301250D01*
X133000Y300500D02*X133750Y301250D01*
X130750Y300500D02*X133000D01*
X135551Y303500D02*Y298250D01*
X136301Y297500D01*
X140053Y300500D02*X140803Y299750D01*
X138553Y300500D02*X140053D01*
X137803Y299750D02*X138553Y300500D01*
X137803Y299750D02*Y298250D01*
X138553Y297500D01*
X140803Y300500D02*Y298250D01*
X141553Y297500D01*
X138553D02*X140053D01*
X140803Y298250D01*
X144104Y303500D02*Y298250D01*
X144854Y297500D01*
X143354Y301250D02*X144854D01*
X147106Y297500D02*X149356D01*
X146356Y298250D02*X147106Y297500D01*
X146356Y299750D02*Y298250D01*
Y299750D02*X147106Y300500D01*
X148606D01*
X149356Y299750D01*
X146356Y299000D02*X149356D01*
Y299750D02*Y299000D01*
X154157Y303500D02*Y297500D01*
X153407D02*X154157Y298250D01*
X151907Y297500D02*X153407D01*
X151157Y298250D02*X151907Y297500D01*
X151157Y299750D02*Y298250D01*
Y299750D02*X151907Y300500D01*
X153407D01*
X154157Y299750D01*
X157459Y300500D02*Y299750D01*
Y298250D02*Y297500D01*
X155959Y302750D02*Y302000D01*
Y302750D02*X156709Y303500D01*
X158209D01*
X158959Y302750D01*
Y302000D01*
X157459Y300500D02*X158959Y302000D01*
X0Y318500D02*X3000D01*
X1500D02*Y312500D01*
X4801Y318500D02*Y312500D01*
Y314750D02*X5551Y315500D01*
X7051D01*
X7801Y314750D01*
Y312500D01*
X10353D02*X12603D01*
X9603Y313250D02*X10353Y312500D01*
X9603Y314750D02*Y313250D01*
Y314750D02*X10353Y315500D01*
X11853D01*
X12603Y314750D01*
X9603Y314000D02*X12603D01*
Y314750D02*Y314000D01*
X15154Y314750D02*Y312500D01*
Y314750D02*X15904Y315500D01*
X17404D01*
X14404D02*X15154Y314750D01*
X19956Y312500D02*X22206D01*
X19206Y313250D02*X19956Y312500D01*
X19206Y314750D02*Y313250D01*
Y314750D02*X19956Y315500D01*
X21456D01*
X22206Y314750D01*
X19206Y314000D02*X22206D01*
Y314750D02*Y314000D01*
X28957Y315500D02*X29707Y314750D01*
X27457Y315500D02*X28957D01*
X26707Y314750D02*X27457Y315500D01*
X26707Y314750D02*Y313250D01*
X27457Y312500D01*
X29707Y315500D02*Y313250D01*
X30457Y312500D01*
X27457D02*X28957D01*
X29707Y313250D01*
X33009Y314750D02*Y312500D01*
Y314750D02*X33759Y315500D01*
X35259D01*
X32259D02*X33009Y314750D01*
X37810Y312500D02*X40060D01*
X37060Y313250D02*X37810Y312500D01*
X37060Y314750D02*Y313250D01*
Y314750D02*X37810Y315500D01*
X39310D01*
X40060Y314750D01*
X37060Y314000D02*X40060D01*
Y314750D02*Y314000D01*
X44562Y313250D02*X45312Y312500D01*
X44562Y314750D02*Y313250D01*
Y314750D02*X45312Y315500D01*
X46812D01*
X47562Y314750D01*
Y313250D01*
X46812Y312500D02*X47562Y313250D01*
X45312Y312500D02*X46812D01*
X44562Y316250D02*X45312Y315500D01*
X44562Y317750D02*Y316250D01*
Y317750D02*X45312Y318500D01*
X46812D01*
X47562Y317750D01*
Y316250D01*
X46812Y315500D02*X47562Y316250D01*
X55063Y318500D02*Y312500D01*
X54313D02*X55063Y313250D01*
X52813Y312500D02*X54313D01*
X52063Y313250D02*X52813Y312500D01*
X52063Y314750D02*Y313250D01*
Y314750D02*X52813Y315500D01*
X54313D01*
X55063Y314750D01*
X56865Y317000D02*Y316250D01*
Y314750D02*Y312500D01*
X59116Y317750D02*Y312500D01*
Y317750D02*X59866Y318500D01*
X60616D01*
X58366Y315500D02*X59866D01*
X62868Y317750D02*Y312500D01*
Y317750D02*X63618Y318500D01*
X64368D01*
X62118Y315500D02*X63618D01*
X66619Y312500D02*X68869D01*
X65869Y313250D02*X66619Y312500D01*
X65869Y314750D02*Y313250D01*
Y314750D02*X66619Y315500D01*
X68119D01*
X68869Y314750D01*
X65869Y314000D02*X68869D01*
Y314750D02*Y314000D01*
X71421Y314750D02*Y312500D01*
Y314750D02*X72171Y315500D01*
X73671D01*
X70671D02*X71421Y314750D01*
X76222Y312500D02*X78472D01*
X75472Y313250D02*X76222Y312500D01*
X75472Y314750D02*Y313250D01*
Y314750D02*X76222Y315500D01*
X77722D01*
X78472Y314750D01*
X75472Y314000D02*X78472D01*
Y314750D02*Y314000D01*
X81024Y314750D02*Y312500D01*
Y314750D02*X81774Y315500D01*
X82524D01*
X83274Y314750D01*
Y312500D01*
X80274Y315500D02*X81024Y314750D01*
X85825Y318500D02*Y313250D01*
X86575Y312500D01*
X85075Y316250D02*X86575D01*
X93777Y318500D02*Y312500D01*
X93027D02*X93777Y313250D01*
X91527Y312500D02*X93027D01*
X90777Y313250D02*X91527Y312500D01*
X90777Y314750D02*Y313250D01*
Y314750D02*X91527Y315500D01*
X93027D01*
X93777Y314750D01*
X96328D02*Y312500D01*
Y314750D02*X97078Y315500D01*
X98578D01*
X95578D02*X96328Y314750D01*
X100380Y317000D02*Y316250D01*
Y314750D02*Y312500D01*
X101881Y318500D02*Y313250D01*
X102631Y312500D01*
X104133Y318500D02*Y313250D01*
X104883Y312500D01*
X109834D02*X112084D01*
X112834Y313250D01*
X112084Y314000D02*X112834Y313250D01*
X109834Y314000D02*X112084D01*
X109084Y314750D02*X109834Y314000D01*
X109084Y314750D02*X109834Y315500D01*
X112084D01*
X112834Y314750D01*
X109084Y313250D02*X109834Y312500D01*
X114636Y317000D02*Y316250D01*
Y314750D02*Y312500D01*
X116137Y315500D02*X119137D01*
X116137Y312500D02*X119137Y315500D01*
X116137Y312500D02*X119137D01*
X121689D02*X123939D01*
X120939Y313250D02*X121689Y312500D01*
X120939Y314750D02*Y313250D01*
Y314750D02*X121689Y315500D01*
X123189D01*
X123939Y314750D01*
X120939Y314000D02*X123939D01*
Y314750D02*Y314000D01*
X126490Y312500D02*X128740D01*
X129490Y313250D01*
X128740Y314000D02*X129490Y313250D01*
X126490Y314000D02*X128740D01*
X125740Y314750D02*X126490Y314000D01*
X125740Y314750D02*X126490Y315500D01*
X128740D01*
X129490Y314750D01*
X125740Y313250D02*X126490Y312500D01*
X133992Y315500D02*Y313250D01*
X134742Y312500D01*
X136242D01*
X136992Y313250D01*
Y315500D02*Y313250D01*
X139543Y312500D02*X141793D01*
X142543Y313250D01*
X141793Y314000D02*X142543Y313250D01*
X139543Y314000D02*X141793D01*
X138793Y314750D02*X139543Y314000D01*
X138793Y314750D02*X139543Y315500D01*
X141793D01*
X142543Y314750D01*
X138793Y313250D02*X139543Y312500D01*
X145095D02*X147345D01*
X144345Y313250D02*X145095Y312500D01*
X144345Y314750D02*Y313250D01*
Y314750D02*X145095Y315500D01*
X146595D01*
X147345Y314750D01*
X144345Y314000D02*X147345D01*
Y314750D02*Y314000D01*
X152146Y318500D02*Y312500D01*
X151396D02*X152146Y313250D01*
X149896Y312500D02*X151396D01*
X149146Y313250D02*X149896Y312500D01*
X149146Y314750D02*Y313250D01*
Y314750D02*X149896Y315500D01*
X151396D01*
X152146Y314750D01*
X156648Y317000D02*Y316250D01*
Y314750D02*Y312500D01*
X158899Y314750D02*Y312500D01*
Y314750D02*X159649Y315500D01*
X160399D01*
X161149Y314750D01*
Y312500D01*
X158149Y315500D02*X158899Y314750D01*
X166401Y318500D02*Y313250D01*
X167151Y312500D01*
X165651Y316250D02*X167151D01*
X168652Y318500D02*Y312500D01*
Y314750D02*X169402Y315500D01*
X170902D01*
X171652Y314750D01*
Y312500D01*
X173454Y317000D02*Y316250D01*
Y314750D02*Y312500D01*
X175705D02*X177955D01*
X178705Y313250D01*
X177955Y314000D02*X178705Y313250D01*
X175705Y314000D02*X177955D01*
X174955Y314750D02*X175705Y314000D01*
X174955Y314750D02*X175705Y315500D01*
X177955D01*
X178705Y314750D01*
X174955Y313250D02*X175705Y312500D01*
X183207Y318500D02*Y313250D01*
X183957Y312500D01*
X187708Y315500D02*X188458Y314750D01*
X186208Y315500D02*X187708D01*
X185458Y314750D02*X186208Y315500D01*
X185458Y314750D02*Y313250D01*
X186208Y312500D01*
X188458Y315500D02*Y313250D01*
X189208Y312500D01*
X186208D02*X187708D01*
X188458Y313250D01*
X191010Y315500D02*Y313250D01*
X191760Y312500D01*
X194010Y315500D02*Y311000D01*
X193260Y310250D02*X194010Y311000D01*
X191760Y310250D02*X193260D01*
X191010Y311000D02*X191760Y310250D01*
Y312500D02*X193260D01*
X194010Y313250D01*
X195811Y314750D02*Y313250D01*
Y314750D02*X196561Y315500D01*
X198061D01*
X198811Y314750D01*
Y313250D01*
X198061Y312500D02*X198811Y313250D01*
X196561Y312500D02*X198061D01*
X195811Y313250D02*X196561Y312500D01*
X200613Y315500D02*Y313250D01*
X201363Y312500D01*
X202863D01*
X203613Y313250D01*
Y315500D02*Y313250D01*
X206164Y318500D02*Y313250D01*
X206914Y312500D01*
X205414Y316250D02*X206914D01*
X208416Y311000D02*X209916Y312500D01*
X215167D02*X216667D01*
X215917Y318500D02*Y312500D01*
X214417Y317000D02*X215917Y318500D01*
X218469D02*X221469D01*
X218469D02*Y315500D01*
X219219Y316250D01*
X220719D01*
X221469Y315500D01*
Y313250D01*
X220719Y312500D02*X221469Y313250D01*
X219219Y312500D02*X220719D01*
X218469Y313250D02*X219219Y312500D01*
X223270Y313250D02*X224020Y312500D01*
X223270Y314750D02*Y313250D01*
Y314750D02*X224020Y315500D01*
X225520D01*
X226270Y314750D01*
Y313250D01*
X225520Y312500D02*X226270Y313250D01*
X224020Y312500D02*X225520D01*
X223270Y316250D02*X224020Y315500D01*
X223270Y317750D02*Y316250D01*
Y317750D02*X224020Y318500D01*
X225520D01*
X226270Y317750D01*
Y316250D01*
X225520Y315500D02*X226270Y316250D01*
X230772Y318500D02*Y312500D01*
Y314750D02*X231522Y315500D01*
X233022D01*
X233772Y314750D01*
Y312500D01*
X235573Y314750D02*Y313250D01*
Y314750D02*X236323Y315500D01*
X237823D01*
X238573Y314750D01*
Y313250D01*
X237823Y312500D02*X238573Y313250D01*
X236323Y312500D02*X237823D01*
X235573Y313250D02*X236323Y312500D01*
X240375Y318500D02*Y313250D01*
X241125Y312500D01*
X243376D02*X245626D01*
X242626Y313250D02*X243376Y312500D01*
X242626Y314750D02*Y313250D01*
Y314750D02*X243376Y315500D01*
X244876D01*
X245626Y314750D01*
X242626Y314000D02*X245626D01*
Y314750D02*Y314000D01*
X248178Y312500D02*X250428D01*
X251178Y313250D01*
X250428Y314000D02*X251178Y313250D01*
X248178Y314000D02*X250428D01*
X247428Y314750D02*X248178Y314000D01*
X247428Y314750D02*X248178Y315500D01*
X250428D01*
X251178Y314750D01*
X247428Y313250D02*X248178Y312500D01*
X256429Y318500D02*Y313250D01*
X257179Y312500D01*
X255679Y316250D02*X257179D01*
X258681Y314750D02*Y313250D01*
Y314750D02*X259431Y315500D01*
X260931D01*
X261681Y314750D01*
Y313250D01*
X260931Y312500D02*X261681Y313250D01*
X259431Y312500D02*X260931D01*
X258681Y313250D02*X259431Y312500D01*
X264232Y318500D02*Y313250D01*
X264982Y312500D01*
X263482Y316250D02*X264982D01*
X268734Y315500D02*X269484Y314750D01*
X267234Y315500D02*X268734D01*
X266484Y314750D02*X267234Y315500D01*
X266484Y314750D02*Y313250D01*
X267234Y312500D01*
X269484Y315500D02*Y313250D01*
X270234Y312500D01*
X267234D02*X268734D01*
X269484Y313250D01*
X272035Y318500D02*Y313250D01*
X272785Y312500D01*
G54D27*X0Y170000D02*X620000D01*
X0D02*Y0D01*
X620000Y170000D02*Y0D01*
X0D02*X620000D01*
G54D30*X200000Y183500D02*Y177500D01*
Y183500D02*X202250Y181250D01*
X204500Y183500D01*
Y177500D01*
X208551Y180500D02*X209301Y179750D01*
X207051Y180500D02*X208551D01*
X206301Y179750D02*X207051Y180500D01*
X206301Y179750D02*Y178250D01*
X207051Y177500D01*
X209301Y180500D02*Y178250D01*
X210051Y177500D01*
X207051D02*X208551D01*
X209301Y178250D01*
X211853Y180500D02*X214853Y177500D01*
X211853D02*X214853Y180500D01*
X216654Y182000D02*Y181250D01*
Y179750D02*Y177500D01*
X218906Y179750D02*Y177500D01*
Y179750D02*X219656Y180500D01*
X220406D01*
X221156Y179750D01*
Y177500D01*
Y179750D02*X221906Y180500D01*
X222656D01*
X223406Y179750D01*
Y177500D01*
X218156Y180500D02*X218906Y179750D01*
X225207Y180500D02*Y178250D01*
X225957Y177500D01*
X227457D01*
X228207Y178250D01*
Y180500D02*Y178250D01*
X230759Y179750D02*Y177500D01*
Y179750D02*X231509Y180500D01*
X232259D01*
X233009Y179750D01*
Y177500D01*
Y179750D02*X233759Y180500D01*
X234509D01*
X235259Y179750D01*
Y177500D01*
X230009Y180500D02*X230759Y179750D01*
X240510Y183500D02*Y177500D01*
X242760Y183500D02*X243510Y182750D01*
Y178250D01*
X242760Y177500D02*X243510Y178250D01*
X239760Y177500D02*X242760D01*
X239760Y183500D02*X242760D01*
X245312Y182000D02*Y181250D01*
Y179750D02*Y177500D01*
X247563Y179750D02*Y177500D01*
Y179750D02*X248313Y180500D01*
X249063D01*
X249813Y179750D01*
Y177500D01*
Y179750D02*X250563Y180500D01*
X251313D01*
X252063Y179750D01*
Y177500D01*
X246813Y180500D02*X247563Y179750D01*
X254615Y177500D02*X256865D01*
X253865Y178250D02*X254615Y177500D01*
X253865Y179750D02*Y178250D01*
Y179750D02*X254615Y180500D01*
X256115D01*
X256865Y179750D01*
X253865Y179000D02*X256865D01*
Y179750D02*Y179000D01*
X259416Y179750D02*Y177500D01*
Y179750D02*X260166Y180500D01*
X260916D01*
X261666Y179750D01*
Y177500D01*
X258666Y180500D02*X259416Y179750D01*
X264218Y177500D02*X266468D01*
X267218Y178250D01*
X266468Y179000D02*X267218Y178250D01*
X264218Y179000D02*X266468D01*
X263468Y179750D02*X264218Y179000D01*
X263468Y179750D02*X264218Y180500D01*
X266468D01*
X267218Y179750D01*
X263468Y178250D02*X264218Y177500D01*
X269019Y182000D02*Y181250D01*
Y179750D02*Y177500D01*
X270521Y179750D02*Y178250D01*
Y179750D02*X271271Y180500D01*
X272771D01*
X273521Y179750D01*
Y178250D01*
X272771Y177500D02*X273521Y178250D01*
X271271Y177500D02*X272771D01*
X270521Y178250D02*X271271Y177500D01*
X276072Y179750D02*Y177500D01*
Y179750D02*X276822Y180500D01*
X277572D01*
X278322Y179750D01*
Y177500D01*
X275322Y180500D02*X276072Y179750D01*
X280874Y177500D02*X283124D01*
X283874Y178250D01*
X283124Y179000D02*X283874Y178250D01*
X280874Y179000D02*X283124D01*
X280124Y179750D02*X280874Y179000D01*
X280124Y179750D02*X280874Y180500D01*
X283124D01*
X283874Y179750D01*
X280124Y178250D02*X280874Y177500D01*
X285675Y181250D02*X286425D01*
X285675Y179750D02*X286425D01*
X293177Y183500D02*X293927Y182750D01*
X291677Y183500D02*X293177D01*
X290927Y182750D02*X291677Y183500D01*
X290927Y182750D02*Y178250D01*
X291677Y177500D01*
X293177Y180500D02*X293927Y179750D01*
X290927Y180500D02*X293177D01*
X291677Y177500D02*X293177D01*
X293927Y178250D01*
Y179750D02*Y178250D01*
X295728Y182750D02*X296478Y183500D01*
X298728D01*
X299478Y182750D01*
Y181250D01*
X295728Y177500D02*X299478Y181250D01*
X295728Y177500D02*X299478D01*
X301280Y178250D02*X302030Y177500D01*
X301280Y182750D02*Y178250D01*
Y182750D02*X302030Y183500D01*
X303530D01*
X304280Y182750D01*
Y178250D01*
X303530Y177500D02*X304280Y178250D01*
X302030Y177500D02*X303530D01*
X301280Y179000D02*X304280Y182000D01*
X306081Y178250D02*X306831Y177500D01*
X306081Y182750D02*Y178250D01*
Y182750D02*X306831Y183500D01*
X308331D01*
X309081Y182750D01*
Y178250D01*
X308331Y177500D02*X309081Y178250D01*
X306831Y177500D02*X308331D01*
X306081Y179000D02*X309081Y182000D01*
X314333Y179750D02*Y177500D01*
Y179750D02*X315083Y180500D01*
X315833D01*
X316583Y179750D01*
Y177500D01*
Y179750D02*X317333Y180500D01*
X318083D01*
X318833Y179750D01*
Y177500D01*
X313583Y180500D02*X314333Y179750D01*
X320634Y182000D02*Y181250D01*
Y179750D02*Y177500D01*
X322136Y183500D02*Y178250D01*
X322886Y177500D01*
X325137D02*X327387D01*
X328137Y178250D01*
X327387Y179000D02*X328137Y178250D01*
X325137Y179000D02*X327387D01*
X324387Y179750D02*X325137Y179000D01*
X324387Y179750D02*X325137Y180500D01*
X327387D01*
X328137Y179750D01*
X324387Y178250D02*X325137Y177500D01*
X332639Y180500D02*Y178250D01*
X333389Y177500D01*
X334139D01*
X334889Y178250D01*
Y180500D02*Y178250D01*
X335639Y177500D01*
X336389D01*
X337139Y178250D01*
Y180500D02*Y178250D01*
X338940Y182000D02*Y181250D01*
Y179750D02*Y177500D01*
X343442Y183500D02*Y177500D01*
X342692D02*X343442Y178250D01*
X341192Y177500D02*X342692D01*
X340442Y178250D02*X341192Y177500D01*
X340442Y179750D02*Y178250D01*
Y179750D02*X341192Y180500D01*
X342692D01*
X343442Y179750D01*
X345993Y177500D02*X348243D01*
X345243Y178250D02*X345993Y177500D01*
X345243Y179750D02*Y178250D01*
Y179750D02*X345993Y180500D01*
X347493D01*
X348243Y179750D01*
X345243Y179000D02*X348243D01*
Y179750D02*Y179000D01*
X350045Y176000D02*X351545Y177500D01*
X356796D02*X358296D01*
X357546Y183500D02*Y177500D01*
X356046Y182000D02*X357546Y183500D01*
X360098Y177500D02*X363848Y181250D01*
Y183500D02*Y181250D01*
X360098Y183500D02*X363848D01*
X365649Y178250D02*X366399Y177500D01*
X365649Y182750D02*Y178250D01*
Y182750D02*X366399Y183500D01*
X367899D01*
X368649Y182750D01*
Y178250D01*
X367899Y177500D02*X368649Y178250D01*
X366399Y177500D02*X367899D01*
X365649Y179000D02*X368649Y182000D01*
X370451Y178250D02*X371201Y177500D01*
X370451Y182750D02*Y178250D01*
Y182750D02*X371201Y183500D01*
X372701D01*
X373451Y182750D01*
Y178250D01*
X372701Y177500D02*X373451Y178250D01*
X371201Y177500D02*X372701D01*
X370451Y179000D02*X373451Y182000D01*
X378702Y179750D02*Y177500D01*
Y179750D02*X379452Y180500D01*
X380202D01*
X380952Y179750D01*
Y177500D01*
Y179750D02*X381702Y180500D01*
X382452D01*
X383202Y179750D01*
Y177500D01*
X377952Y180500D02*X378702Y179750D01*
X385004Y182000D02*Y181250D01*
Y179750D02*Y177500D01*
X386505Y183500D02*Y178250D01*
X387255Y177500D01*
X389507D02*X391757D01*
X392507Y178250D01*
X391757Y179000D02*X392507Y178250D01*
X389507Y179000D02*X391757D01*
X388757Y179750D02*X389507Y179000D01*
X388757Y179750D02*X389507Y180500D01*
X391757D01*
X392507Y179750D01*
X388757Y178250D02*X389507Y177500D01*
X397008Y183500D02*Y177500D01*
Y179750D02*X397758Y180500D01*
X399258D01*
X400008Y179750D01*
Y177500D01*
X401810Y182000D02*Y181250D01*
Y179750D02*Y177500D01*
X405561Y180500D02*X406311Y179750D01*
X404061Y180500D02*X405561D01*
X403311Y179750D02*X404061Y180500D01*
X403311Y179750D02*Y178250D01*
X404061Y177500D01*
X405561D01*
X406311Y178250D01*
X403311Y176000D02*X404061Y175250D01*
X405561D01*
X406311Y176000D01*
Y180500D02*Y176000D01*
X408113Y183500D02*Y177500D01*
Y179750D02*X408863Y180500D01*
X410363D01*
X411113Y179750D01*
Y177500D01*
X151851Y-9500D02*X154851D01*
X155601Y-8750D01*
Y-7250D02*Y-8750D01*
X154851Y-6500D02*X155601Y-7250D01*
X152601Y-6500D02*X154851D01*
X152601Y-3500D02*Y-9500D01*
X151851Y-3500D02*X154851D01*
X155601Y-4250D01*
Y-5750D01*
X154851Y-6500D02*X155601Y-5750D01*
X157402Y-7250D02*Y-8750D01*
Y-7250D02*X158152Y-6500D01*
X159652D01*
X160402Y-7250D01*
Y-8750D01*
X159652Y-9500D02*X160402Y-8750D01*
X158152Y-9500D02*X159652D01*
X157402Y-8750D02*X158152Y-9500D01*
X164454Y-6500D02*X165204Y-7250D01*
X162954Y-6500D02*X164454D01*
X162204Y-7250D02*X162954Y-6500D01*
X162204Y-7250D02*Y-8750D01*
X162954Y-9500D01*
X165204Y-6500D02*Y-8750D01*
X165954Y-9500D01*
X162954D02*X164454D01*
X165204Y-8750D01*
X168505Y-7250D02*Y-9500D01*
Y-7250D02*X169255Y-6500D01*
X170755D01*
X167755D02*X168505Y-7250D01*
X175557Y-3500D02*Y-9500D01*
X174807D02*X175557Y-8750D01*
X173307Y-9500D02*X174807D01*
X172557Y-8750D02*X173307Y-9500D01*
X172557Y-7250D02*Y-8750D01*
Y-7250D02*X173307Y-6500D01*
X174807D01*
X175557Y-7250D01*
X180058D02*Y-8750D01*
Y-7250D02*X180808Y-6500D01*
X182308D01*
X183058Y-7250D01*
Y-8750D01*
X182308Y-9500D02*X183058Y-8750D01*
X180808Y-9500D02*X182308D01*
X180058Y-8750D02*X180808Y-9500D01*
X184860Y-6500D02*Y-8750D01*
X185610Y-9500D01*
X187110D01*
X187860Y-8750D01*
Y-6500D02*Y-8750D01*
X190411Y-3500D02*Y-8750D01*
X191161Y-9500D01*
X189661Y-5750D02*X191161D01*
X192663Y-3500D02*Y-8750D01*
X193413Y-9500D01*
X194914Y-5000D02*Y-5750D01*
Y-7250D02*Y-9500D01*
X197166Y-7250D02*Y-9500D01*
Y-7250D02*X197916Y-6500D01*
X198666D01*
X199416Y-7250D01*
Y-9500D01*
X196416Y-6500D02*X197166Y-7250D01*
X201967Y-9500D02*X204217D01*
X201217Y-8750D02*X201967Y-9500D01*
X201217Y-7250D02*Y-8750D01*
Y-7250D02*X201967Y-6500D01*
X203467D01*
X204217Y-7250D01*
X201217Y-8000D02*X204217D01*
Y-7250D02*Y-8000D01*
X208719Y-5000D02*Y-5750D01*
Y-7250D02*Y-9500D01*
X210970D02*X213220D01*
X213970Y-8750D01*
X213220Y-8000D02*X213970Y-8750D01*
X210970Y-8000D02*X213220D01*
X210220Y-7250D02*X210970Y-8000D01*
X210220Y-7250D02*X210970Y-6500D01*
X213220D01*
X213970Y-7250D01*
X210220Y-8750D02*X210970Y-9500D01*
X219222Y-3500D02*Y-8750D01*
X219972Y-9500D01*
X218472Y-5750D02*X219972D01*
X221473Y-3500D02*Y-9500D01*
Y-7250D02*X222223Y-6500D01*
X223723D01*
X224473Y-7250D01*
Y-9500D01*
X227025D02*X229275D01*
X226275Y-8750D02*X227025Y-9500D01*
X226275Y-7250D02*Y-8750D01*
Y-7250D02*X227025Y-6500D01*
X228525D01*
X229275Y-7250D01*
X226275Y-8000D02*X229275D01*
Y-7250D02*Y-8000D01*
X234526Y-6500D02*X236776D01*
X233776Y-7250D02*X234526Y-6500D01*
X233776Y-7250D02*Y-8750D01*
X234526Y-9500D01*
X236776D01*
X239328D02*X241578D01*
X238578Y-8750D02*X239328Y-9500D01*
X238578Y-7250D02*Y-8750D01*
Y-7250D02*X239328Y-6500D01*
X240828D01*
X241578Y-7250D01*
X238578Y-8000D02*X241578D01*
Y-7250D02*Y-8000D01*
X244129Y-7250D02*Y-9500D01*
Y-7250D02*X244879Y-6500D01*
X245629D01*
X246379Y-7250D01*
Y-9500D01*
X243379Y-6500D02*X244129Y-7250D01*
X248931Y-3500D02*Y-8750D01*
X249681Y-9500D01*
X248181Y-5750D02*X249681D01*
X251932Y-9500D02*X254182D01*
X251182Y-8750D02*X251932Y-9500D01*
X251182Y-7250D02*Y-8750D01*
Y-7250D02*X251932Y-6500D01*
X253432D01*
X254182Y-7250D01*
X251182Y-8000D02*X254182D01*
Y-7250D02*Y-8000D01*
X256734Y-7250D02*Y-9500D01*
Y-7250D02*X257484Y-6500D01*
X258984D01*
X255984D02*X256734Y-7250D01*
X260785Y-3500D02*Y-8750D01*
X261535Y-9500D01*
X263037Y-5000D02*Y-5750D01*
Y-7250D02*Y-9500D01*
X265288Y-7250D02*Y-9500D01*
Y-7250D02*X266038Y-6500D01*
X266788D01*
X267538Y-7250D01*
Y-9500D01*
X264538Y-6500D02*X265288Y-7250D01*
X270090Y-9500D02*X272340D01*
X269340Y-8750D02*X270090Y-9500D01*
X269340Y-7250D02*Y-8750D01*
Y-7250D02*X270090Y-6500D01*
X271590D01*
X272340Y-7250D01*
X269340Y-8000D02*X272340D01*
Y-7250D02*Y-8000D01*
X276841Y-7250D02*Y-8750D01*
Y-7250D02*X277591Y-6500D01*
X279091D01*
X279841Y-7250D01*
Y-8750D01*
X279091Y-9500D02*X279841Y-8750D01*
X277591Y-9500D02*X279091D01*
X276841Y-8750D02*X277591Y-9500D01*
X282393Y-4250D02*Y-9500D01*
Y-4250D02*X283143Y-3500D01*
X283893D01*
X281643Y-6500D02*X283143D01*
X288844Y-3500D02*Y-8750D01*
X289594Y-9500D01*
X288094Y-5750D02*X289594D01*
X291096Y-3500D02*Y-9500D01*
Y-7250D02*X291846Y-6500D01*
X293346D01*
X294096Y-7250D01*
Y-9500D01*
X295897Y-5000D02*Y-5750D01*
Y-7250D02*Y-9500D01*
X298149D02*X300399D01*
X301149Y-8750D01*
X300399Y-8000D02*X301149Y-8750D01*
X298149Y-8000D02*X300399D01*
X297399Y-7250D02*X298149Y-8000D01*
X297399Y-7250D02*X298149Y-6500D01*
X300399D01*
X301149Y-7250D01*
X297399Y-8750D02*X298149Y-9500D01*
X306400D02*X307900D01*
X307150Y-3500D02*Y-9500D01*
X305650Y-5000D02*X307150Y-3500D01*
X309702Y-8750D02*X310452Y-9500D01*
X309702Y-4250D02*Y-8750D01*
Y-4250D02*X310452Y-3500D01*
X311952D01*
X312702Y-4250D01*
Y-8750D01*
X311952Y-9500D02*X312702Y-8750D01*
X310452Y-9500D02*X311952D01*
X309702Y-8000D02*X312702Y-5000D01*
X317953Y-7250D02*Y-9500D01*
Y-7250D02*X318703Y-6500D01*
X319453D01*
X320203Y-7250D01*
Y-9500D01*
Y-7250D02*X320953Y-6500D01*
X321703D01*
X322453Y-7250D01*
Y-9500D01*
X317203Y-6500D02*X317953Y-7250D01*
X324255Y-5000D02*Y-5750D01*
Y-7250D02*Y-9500D01*
X325756Y-3500D02*Y-8750D01*
X326506Y-9500D01*
X331458Y-7250D02*Y-9500D01*
Y-7250D02*X332208Y-6500D01*
X333708D01*
X330708D02*X331458Y-7250D01*
X336259Y-9500D02*X338509D01*
X335509Y-8750D02*X336259Y-9500D01*
X335509Y-7250D02*Y-8750D01*
Y-7250D02*X336259Y-6500D01*
X337759D01*
X338509Y-7250D01*
X335509Y-8000D02*X338509D01*
Y-7250D02*Y-8000D01*
X341061Y-6500D02*X343311D01*
X340311Y-7250D02*X341061Y-6500D01*
X340311Y-7250D02*Y-8750D01*
X341061Y-9500D01*
X343311D01*
X345862Y-3500D02*Y-8750D01*
X346612Y-9500D01*
X345112Y-5750D02*X346612D01*
X350364Y-6500D02*X351114Y-7250D01*
X348864Y-6500D02*X350364D01*
X348114Y-7250D02*X348864Y-6500D01*
X348114Y-7250D02*Y-8750D01*
X348864Y-9500D01*
X351114Y-6500D02*Y-8750D01*
X351864Y-9500D01*
X348864D02*X350364D01*
X351114Y-8750D01*
X354415Y-7250D02*Y-9500D01*
Y-7250D02*X355165Y-6500D01*
X355915D01*
X356665Y-7250D01*
Y-9500D01*
X353665Y-6500D02*X354415Y-7250D01*
X360717Y-6500D02*X361467Y-7250D01*
X359217Y-6500D02*X360717D01*
X358467Y-7250D02*X359217Y-6500D01*
X358467Y-7250D02*Y-8750D01*
X359217Y-9500D01*
X360717D01*
X361467Y-8750D01*
X358467Y-11000D02*X359217Y-11750D01*
X360717D01*
X361467Y-11000D01*
Y-6500D02*Y-11000D01*
X363268Y-3500D02*Y-8750D01*
X364018Y-9500D01*
X366270D02*X368520D01*
X365520Y-8750D02*X366270Y-9500D01*
X365520Y-7250D02*Y-8750D01*
Y-7250D02*X366270Y-6500D01*
X367770D01*
X368520Y-7250D01*
X365520Y-8000D02*X368520D01*
Y-7250D02*Y-8000D01*
X373021Y-6500D02*X376021D01*
X380523Y-8750D02*X381273Y-9500D01*
X380523Y-4250D02*Y-8750D01*
Y-4250D02*X381273Y-3500D01*
X382773D01*
X383523Y-4250D01*
Y-8750D01*
X382773Y-9500D02*X383523Y-8750D01*
X381273Y-9500D02*X382773D01*
X380523Y-8000D02*X383523Y-5000D01*
X385324Y-11000D02*X386824Y-9500D01*
X388626Y-8750D02*X389376Y-9500D01*
X388626Y-4250D02*Y-8750D01*
Y-4250D02*X389376Y-3500D01*
X390876D01*
X391626Y-4250D01*
Y-8750D01*
X390876Y-9500D02*X391626Y-8750D01*
X389376Y-9500D02*X390876D01*
X388626Y-8000D02*X391626Y-5000D01*
X396877Y-3500D02*Y-8750D01*
X397627Y-9500D01*
X396127Y-5750D02*X397627D01*
X399129Y-7250D02*Y-8750D01*
Y-7250D02*X399879Y-6500D01*
X401379D01*
X402129Y-7250D01*
Y-8750D01*
X401379Y-9500D02*X402129Y-8750D01*
X399879Y-9500D02*X401379D01*
X399129Y-8750D02*X399879Y-9500D01*
X408880Y-3500D02*X409630Y-4250D01*
X407380Y-3500D02*X408880D01*
X406630Y-4250D02*X407380Y-3500D01*
X406630Y-4250D02*Y-8750D01*
X407380Y-9500D01*
X408880Y-6500D02*X409630Y-7250D01*
X406630Y-6500D02*X408880D01*
X407380Y-9500D02*X408880D01*
X409630Y-8750D01*
Y-7250D02*Y-8750D01*
X411432Y-4250D02*X412182Y-3500D01*
X414432D01*
X415182Y-4250D01*
Y-5750D01*
X411432Y-9500D02*X415182Y-5750D01*
X411432Y-9500D02*X415182D01*
X416983Y-8750D02*X417733Y-9500D01*
X416983Y-4250D02*Y-8750D01*
Y-4250D02*X417733Y-3500D01*
X419233D01*
X419983Y-4250D01*
Y-8750D01*
X419233Y-9500D02*X419983Y-8750D01*
X417733Y-9500D02*X419233D01*
X416983Y-8000D02*X419983Y-5000D01*
X421785Y-8750D02*X422535Y-9500D01*
X421785Y-4250D02*Y-8750D01*
Y-4250D02*X422535Y-3500D01*
X424035D01*
X424785Y-4250D01*
Y-8750D01*
X424035Y-9500D02*X424785Y-8750D01*
X422535Y-9500D02*X424035D01*
X421785Y-8000D02*X424785Y-5000D01*
X426586Y-11000D02*X428086Y-9500D01*
X430638D02*X432138D01*
X431388Y-3500D02*Y-9500D01*
X429888Y-5000D02*X431388Y-3500D01*
X433939Y-9500D02*X437689Y-5750D01*
Y-3500D02*Y-5750D01*
X433939Y-3500D02*X437689D01*
X439491Y-8750D02*X440241Y-9500D01*
X439491Y-4250D02*Y-8750D01*
Y-4250D02*X440241Y-3500D01*
X441741D01*
X442491Y-4250D01*
Y-8750D01*
X441741Y-9500D02*X442491Y-8750D01*
X440241Y-9500D02*X441741D01*
X439491Y-8000D02*X442491Y-5000D01*
X444292Y-8750D02*X445042Y-9500D01*
X444292Y-4250D02*Y-8750D01*
Y-4250D02*X445042Y-3500D01*
X446542D01*
X447292Y-4250D01*
Y-8750D01*
X446542Y-9500D02*X447292Y-8750D01*
X445042Y-9500D02*X446542D01*
X444292Y-8000D02*X447292Y-5000D01*
X452544Y-7250D02*Y-9500D01*
Y-7250D02*X453294Y-6500D01*
X454044D01*
X454794Y-7250D01*
Y-9500D01*
Y-7250D02*X455544Y-6500D01*
X456294D01*
X457044Y-7250D01*
Y-9500D01*
X451794Y-6500D02*X452544Y-7250D01*
X458845Y-5000D02*Y-5750D01*
Y-7250D02*Y-9500D01*
X460347Y-3500D02*Y-8750D01*
X461097Y-9500D01*
X463348D02*X465598D01*
X466348Y-8750D01*
X465598Y-8000D02*X466348Y-8750D01*
X463348Y-8000D02*X465598D01*
X462598Y-7250D02*X463348Y-8000D01*
X462598Y-7250D02*X463348Y-6500D01*
X465598D01*
X466348Y-7250D01*
X462598Y-8750D02*X463348Y-9500D01*
X200750Y198500D02*Y192500D01*
X203000Y198500D02*X203750Y197750D01*
Y193250D01*
X203000Y192500D02*X203750Y193250D01*
X200000Y192500D02*X203000D01*
X200000Y198500D02*X203000D01*
X207801Y195500D02*X208551Y194750D01*
X206301Y195500D02*X207801D01*
X205551Y194750D02*X206301Y195500D01*
X205551Y194750D02*Y193250D01*
X206301Y192500D01*
X208551Y195500D02*Y193250D01*
X209301Y192500D01*
X206301D02*X207801D01*
X208551Y193250D01*
X211853Y198500D02*Y193250D01*
X212603Y192500D01*
X211103Y196250D02*X212603D01*
X214854Y192500D02*X217104D01*
X214104Y193250D02*X214854Y192500D01*
X214104Y194750D02*Y193250D01*
Y194750D02*X214854Y195500D01*
X216354D01*
X217104Y194750D01*
X214104Y194000D02*X217104D01*
Y194750D02*Y194000D01*
X218906Y196250D02*X219656D01*
X218906Y194750D02*X219656D01*
X224157Y198500D02*Y192500D01*
X226407Y194750D01*
X228657Y192500D01*
Y198500D02*Y192500D01*
X231209D02*X233459D01*
X230459Y193250D02*X231209Y192500D01*
X230459Y194750D02*Y193250D01*
Y194750D02*X231209Y195500D01*
X232709D01*
X233459Y194750D01*
X230459Y194000D02*X233459D01*
Y194750D02*Y194000D01*
X238260Y198500D02*Y192500D01*
X237510D02*X238260Y193250D01*
X236010Y192500D02*X237510D01*
X235260Y193250D02*X236010Y192500D01*
X235260Y194750D02*Y193250D01*
Y194750D02*X236010Y195500D01*
X237510D01*
X238260Y194750D01*
X242762Y198500D02*Y192500D01*
Y198500D02*X245012Y196250D01*
X247262Y198500D01*
Y192500D01*
X251313Y195500D02*X252063Y194750D01*
X249813Y195500D02*X251313D01*
X249063Y194750D02*X249813Y195500D01*
X249063Y194750D02*Y193250D01*
X249813Y192500D01*
X252063Y195500D02*Y193250D01*
X252813Y192500D01*
X249813D02*X251313D01*
X252063Y193250D01*
X255365Y194750D02*Y192500D01*
Y194750D02*X256115Y195500D01*
X257615D01*
X254615D02*X255365Y194750D01*
X262866Y192500D02*X264366D01*
X263616Y198500D02*Y192500D01*
X262116Y197000D02*X263616Y198500D01*
X266168Y193250D02*X266918Y192500D01*
X266168Y194750D02*Y193250D01*
Y194750D02*X266918Y195500D01*
X268418D01*
X269168Y194750D01*
Y193250D01*
X268418Y192500D02*X269168Y193250D01*
X266918Y192500D02*X268418D01*
X266168Y196250D02*X266918Y195500D01*
X266168Y197750D02*Y196250D01*
Y197750D02*X266918Y198500D01*
X268418D01*
X269168Y197750D01*
Y196250D01*
X268418Y195500D02*X269168Y196250D01*
X273669Y193250D02*X274419Y192500D01*
X273669Y197750D02*Y193250D01*
Y197750D02*X274419Y198500D01*
X275919D01*
X276669Y197750D01*
Y193250D01*
X275919Y192500D02*X276669Y193250D01*
X274419Y192500D02*X275919D01*
X273669Y194000D02*X276669Y197000D01*
X278471Y192500D02*X282221Y196250D01*
Y198500D02*Y196250D01*
X278471Y198500D02*X282221D01*
X284022Y196250D02*X284772D01*
X284022Y194750D02*X284772D01*
X286574Y198500D02*X289574D01*
X286574D02*Y195500D01*
X287324Y196250D01*
X288824D01*
X289574Y195500D01*
Y193250D01*
X288824Y192500D02*X289574Y193250D01*
X287324Y192500D02*X288824D01*
X286574Y193250D02*X287324Y192500D01*
X293625Y198500D02*X294375Y197750D01*
X292125Y198500D02*X293625D01*
X291375Y197750D02*X292125Y198500D01*
X291375Y197750D02*Y193250D01*
X292125Y192500D01*
X293625Y195500D02*X294375Y194750D01*
X291375Y195500D02*X293625D01*
X292125Y192500D02*X293625D01*
X294375Y193250D01*
Y194750D02*Y193250D01*
X296177Y196250D02*X296927D01*
X296177Y194750D02*X296927D01*
X298728Y193250D02*X299478Y192500D01*
X298728Y197750D02*Y193250D01*
Y197750D02*X299478Y198500D01*
X300978D01*
X301728Y197750D01*
Y193250D01*
X300978Y192500D02*X301728Y193250D01*
X299478Y192500D02*X300978D01*
X298728Y194000D02*X301728Y197000D01*
X303530Y192500D02*X307280Y196250D01*
Y198500D02*Y196250D01*
X303530Y198500D02*X307280D01*
X311781Y197750D02*X312531Y198500D01*
X314781D01*
X315531Y197750D01*
Y196250D01*
X311781Y192500D02*X315531Y196250D01*
X311781Y192500D02*X315531D01*
X317333Y193250D02*X318083Y192500D01*
X317333Y197750D02*Y193250D01*
Y197750D02*X318083Y198500D01*
X319583D01*
X320333Y197750D01*
Y193250D01*
X319583Y192500D02*X320333Y193250D01*
X318083Y192500D02*X319583D01*
X317333Y194000D02*X320333Y197000D01*
X322884Y192500D02*X324384D01*
X323634Y198500D02*Y192500D01*
X322134Y197000D02*X323634Y198500D01*
X326186D02*X329186D01*
X326186D02*Y195500D01*
X326936Y196250D01*
X328436D01*
X329186Y195500D01*
Y193250D01*
X328436Y192500D02*X329186Y193250D01*
X326936Y192500D02*X328436D01*
X326186Y193250D02*X326936Y192500D01*
X333687Y198500D02*Y193250D01*
X334437Y192500D01*
X335937D01*
X336687Y193250D01*
Y198500D02*Y193250D01*
X338489Y198500D02*X341489D01*
X339989D02*Y192500D01*
X344040D02*X346290D01*
X343290Y193250D02*X344040Y192500D01*
X343290Y197750D02*Y193250D01*
Y197750D02*X344040Y198500D01*
X346290D01*
X200000Y212750D02*Y207500D01*
Y212750D02*X200750Y213500D01*
X203000D01*
X203750Y212750D01*
Y207500D01*
X200000Y210500D02*X203750D01*
X205551D02*Y208250D01*
X206301Y207500D01*
X207801D01*
X208551Y208250D01*
Y210500D02*Y208250D01*
X211103Y213500D02*Y208250D01*
X211853Y207500D01*
X210353Y211250D02*X211853D01*
X213354Y213500D02*Y207500D01*
Y209750D02*X214104Y210500D01*
X215604D01*
X216354Y209750D01*
Y207500D01*
X218156Y209750D02*Y208250D01*
Y209750D02*X218906Y210500D01*
X220406D01*
X221156Y209750D01*
Y208250D01*
X220406Y207500D02*X221156Y208250D01*
X218906Y207500D02*X220406D01*
X218156Y208250D02*X218906Y207500D01*
X223707Y209750D02*Y207500D01*
Y209750D02*X224457Y210500D01*
X225957D01*
X222957D02*X223707Y209750D01*
X227759Y211250D02*X228509D01*
X227759Y209750D02*X228509D01*
X233010Y207500D02*X236010D01*
X236760Y208250D01*
Y209750D02*Y208250D01*
X236010Y210500D02*X236760Y209750D01*
X233760Y210500D02*X236010D01*
X233760Y213500D02*Y207500D01*
X233010Y213500D02*X236010D01*
X236760Y212750D01*
Y211250D01*
X236010Y210500D02*X236760Y211250D01*
X239312Y207500D02*X241562D01*
X238562Y208250D02*X239312Y207500D01*
X238562Y209750D02*Y208250D01*
Y209750D02*X239312Y210500D01*
X240812D01*
X241562Y209750D01*
X238562Y209000D02*X241562D01*
Y209750D02*Y209000D01*
X244113Y209750D02*Y207500D01*
Y209750D02*X244863Y210500D01*
X246363D01*
X243363D02*X244113Y209750D01*
X248915Y213500D02*Y208250D01*
X249665Y207500D01*
X248165Y211250D02*X249665D01*
X253866Y213500D02*X256866D01*
X255366D02*Y207500D01*
X258668Y212000D02*Y211250D01*
Y209750D02*Y207500D01*
X260919Y209750D02*Y207500D01*
Y209750D02*X261669Y210500D01*
X262419D01*
X263169Y209750D01*
Y207500D01*
Y209750D02*X263919Y210500D01*
X264669D01*
X265419Y209750D01*
Y207500D01*
X260169Y210500D02*X260919Y209750D01*
X267971D02*Y207500D01*
Y209750D02*X268721Y210500D01*
X269471D01*
X270221Y209750D01*
Y207500D01*
Y209750D02*X270971Y210500D01*
X271721D01*
X272471Y209750D01*
Y207500D01*
X267221Y210500D02*X267971Y209750D01*
X275022Y207500D02*X277272D01*
X274272Y208250D02*X275022Y207500D01*
X274272Y209750D02*Y208250D01*
Y209750D02*X275022Y210500D01*
X276522D01*
X277272Y209750D01*
X274272Y209000D02*X277272D01*
Y209750D02*Y209000D01*
X279824Y209750D02*Y207500D01*
Y209750D02*X280574Y210500D01*
X282074D01*
X279074D02*X279824Y209750D01*
X284625D02*Y207500D01*
Y209750D02*X285375Y210500D01*
X286125D01*
X286875Y209750D01*
Y207500D01*
Y209750D02*X287625Y210500D01*
X288375D01*
X289125Y209750D01*
Y207500D01*
X283875Y210500D02*X284625Y209750D01*
X293177Y210500D02*X293927Y209750D01*
X291677Y210500D02*X293177D01*
X290927Y209750D02*X291677Y210500D01*
X290927Y209750D02*Y208250D01*
X291677Y207500D01*
X293927Y210500D02*Y208250D01*
X294677Y207500D01*
X291677D02*X293177D01*
X293927Y208250D01*
X297228Y209750D02*Y207500D01*
Y209750D02*X297978Y210500D01*
X298728D01*
X299478Y209750D01*
Y207500D01*
X296478Y210500D02*X297228Y209750D01*
X200000Y228500D02*X203000D01*
X201500D02*Y222500D01*
X204801Y227000D02*Y226250D01*
Y224750D02*Y222500D01*
X207053Y228500D02*Y223250D01*
X207803Y222500D01*
X206303Y226250D02*X207803D01*
X209304Y228500D02*Y223250D01*
X210054Y222500D01*
X212306D02*X214556D01*
X211556Y223250D02*X212306Y222500D01*
X211556Y224750D02*Y223250D01*
Y224750D02*X212306Y225500D01*
X213806D01*
X214556Y224750D01*
X211556Y224000D02*X214556D01*
Y224750D02*Y224000D01*
X216357Y226250D02*X217107D01*
X216357Y224750D02*X217107D01*
X221609Y227750D02*X222359Y228500D01*
X224609D01*
X225359Y227750D01*
Y226250D01*
X221609Y222500D02*X225359Y226250D01*
X221609Y222500D02*X225359D01*
X229410Y228500D02*X230160Y227750D01*
X227910Y228500D02*X229410D01*
X227160Y227750D02*X227910Y228500D01*
X227160Y227750D02*Y223250D01*
X227910Y222500D01*
X229410Y225500D02*X230160Y224750D01*
X227160Y225500D02*X229410D01*
X227910Y222500D02*X229410D01*
X230160Y223250D01*
Y224750D02*Y223250D01*
X231962Y222500D02*X232712D01*
X234513Y223250D02*X235263Y222500D01*
X234513Y227750D02*Y223250D01*
Y227750D02*X235263Y228500D01*
X236763D01*
X237513Y227750D01*
Y223250D01*
X236763Y222500D02*X237513Y223250D01*
X235263Y222500D02*X236763D01*
X234513Y224000D02*X237513Y227000D01*
X239315Y223250D02*X240065Y222500D01*
X239315Y227750D02*Y223250D01*
Y227750D02*X240065Y228500D01*
X241565D01*
X242315Y227750D01*
Y223250D01*
X241565Y222500D02*X242315Y223250D01*
X240065Y222500D02*X241565D01*
X239315Y224000D02*X242315Y227000D01*
X246366Y228500D02*X247116Y227750D01*
X244866Y228500D02*X246366D01*
X244116Y227750D02*X244866Y228500D01*
X244116Y227750D02*Y223250D01*
X244866Y222500D01*
X246366Y225500D02*X247116Y224750D01*
X244116Y225500D02*X246366D01*
X244866Y222500D02*X246366D01*
X247116Y223250D01*
Y224750D02*Y223250D01*
X248918Y222500D02*X249668D01*
X251469Y223250D02*X252219Y222500D01*
X251469Y227750D02*Y223250D01*
Y227750D02*X252219Y228500D01*
X253719D01*
X254469Y227750D01*
Y223250D01*
X253719Y222500D02*X254469Y223250D01*
X252219Y222500D02*X253719D01*
X251469Y224000D02*X254469Y227000D01*
X256271Y223250D02*X257021Y222500D01*
X256271Y227750D02*Y223250D01*
Y227750D02*X257021Y228500D01*
X258521D01*
X259271Y227750D01*
Y223250D01*
X258521Y222500D02*X259271Y223250D01*
X257021Y222500D02*X258521D01*
X256271Y224000D02*X259271Y227000D01*
X261072Y222500D02*X261822D01*
X263624Y223250D02*X264374Y222500D01*
X263624Y227750D02*Y223250D01*
Y227750D02*X264374Y228500D01*
X265874D01*
X266624Y227750D01*
Y223250D01*
X265874Y222500D02*X266624Y223250D01*
X264374Y222500D02*X265874D01*
X263624Y224000D02*X266624Y227000D01*
X269175Y222500D02*X270675D01*
X269925Y228500D02*Y222500D01*
X268425Y227000D02*X269925Y228500D01*
X272477Y222500D02*X273227D01*
X275028Y223250D02*X275778Y222500D01*
X275028Y227750D02*Y223250D01*
Y227750D02*X275778Y228500D01*
X277278D01*
X278028Y227750D01*
Y223250D01*
X277278Y222500D02*X278028Y223250D01*
X275778Y222500D02*X277278D01*
X275028Y224000D02*X278028Y227000D01*
X280580Y222500D02*X282080D01*
X281330Y228500D02*Y222500D01*
X279830Y227000D02*X281330Y228500D01*
X283881Y222500D02*X284631D01*
X287183Y224750D02*Y220250D01*
X286433Y225500D02*X287183Y224750D01*
X287933Y225500D01*
X289433D01*
X290183Y224750D01*
Y223250D01*
X289433Y222500D02*X290183Y223250D01*
X287933Y222500D02*X289433D01*
X287183Y223250D02*X287933Y222500D01*
X292734Y225500D02*X294984D01*
X291984Y224750D02*X292734Y225500D01*
X291984Y224750D02*Y223250D01*
X292734Y222500D01*
X294984D01*
X296786Y228500D02*Y222500D01*
Y223250D02*X297536Y222500D01*
X299036D01*
X299786Y223250D01*
Y224750D02*Y223250D01*
X299036Y225500D02*X299786Y224750D01*
X297536Y225500D02*X299036D01*
X296786Y224750D02*X297536Y225500D01*
X304287D02*X307287D01*
X311789Y228500D02*Y222500D01*
Y228500D02*X314789D01*
X311789Y225500D02*X314039D01*
X318840D02*X319590Y224750D01*
X317340Y225500D02*X318840D01*
X316590Y224750D02*X317340Y225500D01*
X316590Y224750D02*Y223250D01*
X317340Y222500D01*
X319590Y225500D02*Y223250D01*
X320340Y222500D01*
X317340D02*X318840D01*
X319590Y223250D01*
X322142Y228500D02*Y222500D01*
Y223250D02*X322892Y222500D01*
X324392D01*
X325142Y223250D01*
Y224750D02*Y223250D01*
X324392Y225500D02*X325142Y224750D01*
X322892Y225500D02*X324392D01*
X322142Y224750D02*X322892Y225500D01*
X327693Y224750D02*Y222500D01*
Y224750D02*X328443Y225500D01*
X329943D01*
X326943D02*X327693Y224750D01*
X331745Y227000D02*Y226250D01*
Y224750D02*Y222500D01*
X333996Y225500D02*X336246D01*
X333246Y224750D02*X333996Y225500D01*
X333246Y224750D02*Y223250D01*
X333996Y222500D01*
X336246D01*
X340298Y225500D02*X341048Y224750D01*
X338798Y225500D02*X340298D01*
X338048Y224750D02*X338798Y225500D01*
X338048Y224750D02*Y223250D01*
X338798Y222500D01*
X341048Y225500D02*Y223250D01*
X341798Y222500D01*
X338798D02*X340298D01*
X341048Y223250D01*
X344349Y228500D02*Y223250D01*
X345099Y222500D01*
X343599Y226250D02*X345099D01*
X346601Y227000D02*Y226250D01*
Y224750D02*Y222500D01*
X348102Y224750D02*Y223250D01*
Y224750D02*X348852Y225500D01*
X350352D01*
X351102Y224750D01*
Y223250D01*
X350352Y222500D02*X351102Y223250D01*
X348852Y222500D02*X350352D01*
X348102Y223250D02*X348852Y222500D01*
X353654Y224750D02*Y222500D01*
Y224750D02*X354404Y225500D01*
X355154D01*
X355904Y224750D01*
Y222500D01*
X352904Y225500D02*X353654Y224750D01*
X361155Y228500D02*Y222500D01*
X363405Y228500D02*X364155Y227750D01*
Y223250D01*
X363405Y222500D02*X364155Y223250D01*
X360405Y222500D02*X363405D01*
X360405Y228500D02*X363405D01*
X366707Y224750D02*Y222500D01*
Y224750D02*X367457Y225500D01*
X368957D01*
X365957D02*X366707Y224750D01*
X373008Y225500D02*X373758Y224750D01*
X371508Y225500D02*X373008D01*
X370758Y224750D02*X371508Y225500D01*
X370758Y224750D02*Y223250D01*
X371508Y222500D01*
X373758Y225500D02*Y223250D01*
X374508Y222500D01*
X371508D02*X373008D01*
X373758Y223250D01*
X376310Y225500D02*Y223250D01*
X377060Y222500D01*
X377810D01*
X378560Y223250D01*
Y225500D02*Y223250D01*
X379310Y222500D01*
X380060D01*
X380810Y223250D01*
Y225500D02*Y223250D01*
X382611Y227000D02*Y226250D01*
Y224750D02*Y222500D01*
X384863Y224750D02*Y222500D01*
Y224750D02*X385613Y225500D01*
X386363D01*
X387113Y224750D01*
Y222500D01*
X384113Y225500D02*X384863Y224750D01*
X391164Y225500D02*X391914Y224750D01*
X389664Y225500D02*X391164D01*
X388914Y224750D02*X389664Y225500D01*
X388914Y224750D02*Y223250D01*
X389664Y222500D01*
X391164D01*
X391914Y223250D01*
X388914Y221000D02*X389664Y220250D01*
X391164D01*
X391914Y221000D01*
Y225500D02*Y221000D01*
M02*
