G04 start of page 9 for group -3984 idx -3984 *
G04 Title: 26.006.00.01.01, fab *
G04 Creator: pcb 20100929 *
G04 CreationDate: Thu Jul 13 21:21:48 2017 UTC *
G04 For: bert *
G04 Format: Gerber/RS-274X *
G04 PCB-Dimensions: 620000 162000 *
G04 PCB-Coordinate-Origin: lower left *
%MOIN*%
%FSLAX25Y25*%
%LNFAB*%
%ADD21C,0.0080*%
%ADD25C,0.0100*%
%ADD27C,0.0060*%
G54D21*X252015Y127158D02*G75*G03X253615Y127158I800J0D01*G01*
G75*G03X252015Y127158I-800J0D01*G01*
X291385D02*G75*G03X292985Y127158I800J0D01*G01*
G75*G03X291385Y127158I-800J0D01*G01*
X271700Y137000D02*G75*G03X273300Y137000I800J0D01*G01*
G75*G03X271700Y137000I-800J0D01*G01*
X314515Y127158D02*G75*G03X316115Y127158I800J0D01*G01*
G75*G03X314515Y127158I-800J0D01*G01*
X353885D02*G75*G03X355485Y127158I800J0D01*G01*
G75*G03X353885Y127158I-800J0D01*G01*
X334200Y137000D02*G75*G03X335800Y137000I800J0D01*G01*
G75*G03X334200Y137000I-800J0D01*G01*
X9515Y127158D02*G75*G03X11115Y127158I800J0D01*G01*
G75*G03X9515Y127158I-800J0D01*G01*
X48885D02*G75*G03X50485Y127158I800J0D01*G01*
G75*G03X48885Y127158I-800J0D01*G01*
X29200Y137000D02*G75*G03X30800Y137000I800J0D01*G01*
G75*G03X29200Y137000I-800J0D01*G01*
X557015Y127158D02*G75*G03X558615Y127158I800J0D01*G01*
G75*G03X557015Y127158I-800J0D01*G01*
X596385D02*G75*G03X597985Y127158I800J0D01*G01*
G75*G03X596385Y127158I-800J0D01*G01*
X576700Y137000D02*G75*G03X578300Y137000I800J0D01*G01*
G75*G03X576700Y137000I-800J0D01*G01*
X14200Y173250D02*G75*G03X15800Y173250I800J0D01*G01*
G75*G03X14200Y173250I-800J0D01*G01*
G54D27*X135000Y175800D02*X137400Y172800D01*
Y169500D01*
X139800Y175800D02*X137400Y172800D01*
X141601Y175800D02*Y169500D01*
Y175800D02*X145501D01*
X141601Y172800D02*X144001D01*
X141601Y169500D02*X145501D01*
X151503Y174900D02*X150903Y175500D01*
X150003Y175800D01*
X148803D02*X150003D01*
X148803D02*X147903Y175500D01*
X147303Y174900D01*
Y174300D01*
X147603Y173700D01*
X147903Y173400D01*
X148503Y173100D01*
X150303Y172500D01*
X150903Y172200D01*
X151203Y171900D01*
X151503Y171300D01*
Y170400D01*
X150903Y169800D01*
X150003Y169500D01*
X148803D02*X150003D01*
X148803D02*X147903Y169800D01*
X147303Y170400D01*
X135000Y166399D02*X153304D01*
X98000Y174600D02*X98600Y174900D01*
X99500Y175800D01*
Y169500D01*
X101601Y174600D02*Y174300D01*
Y174600D02*X101901Y175200D01*
X102201Y175500D01*
X102801Y175800D01*
X104001D01*
X104601Y175500D01*
X104901Y175200D01*
X105201Y174600D01*
Y174000D01*
X104901Y173400D01*
X104301Y172500D01*
X101301Y169500D01*
X105501D01*
X98000Y166399D02*X107303D01*
X46800Y175800D02*X45900Y175500D01*
X45300Y174600D01*
X45000Y173100D01*
Y172200D01*
X45300Y170700D01*
X45900Y169800D01*
X46800Y169500D01*
X47400D01*
X48300Y169800D01*
X48900Y170700D01*
X49200Y172200D01*
Y173100D02*Y172200D01*
Y173100D02*X48900Y174600D01*
X48300Y175500D01*
X47400Y175800D01*
X46800D02*X47400D01*
X51301Y170100D02*X51001Y169800D01*
X51301Y169500D01*
X51601Y169800D01*
X51301Y170100D01*
X55203Y175800D02*X54303Y175500D01*
X53703Y174600D01*
X53403Y173100D01*
Y172200D01*
X53703Y170700D01*
X54303Y169800D01*
X55203Y169500D01*
X55803D01*
X56703Y169800D01*
X57303Y170700D01*
X57603Y172200D01*
Y173100D02*Y172200D01*
Y173100D02*X57303Y174600D01*
X56703Y175500D01*
X55803Y175800D01*
X55203D02*X55803D01*
X60004D02*X63004D01*
X60004D02*X59704Y173100D01*
X60004Y173400D01*
X60904Y173700D01*
X61804D01*
X62704Y173400D01*
X63304Y172800D01*
X63604Y171900D01*
Y171300D01*
X63304Y170400D01*
X62704Y169800D01*
X61804Y169500D01*
X60904D02*X61804D01*
X60904D02*X60004Y169800D01*
X59704Y170100D01*
X59404Y170700D01*
X65706Y174600D02*Y174300D01*
Y174600D02*X66006Y175200D01*
X66306Y175500D01*
X66906Y175800D01*
X68106D01*
X68706Y175500D01*
X69006Y175200D01*
X69306Y174600D01*
Y174000D01*
X69006Y173400D01*
X68406Y172500D01*
X65406Y169500D01*
X69606D01*
X45000Y166399D02*X71407D01*
X33800Y55700D02*X36200Y53300D01*
X33800D02*X36200Y55700D01*
X73800D02*X76200Y53300D01*
X73800D02*X76200Y55700D01*
X143800Y73200D02*X146200Y70800D01*
X143800D02*X146200Y73200D01*
X143800Y113200D02*X146200Y110800D01*
X143800D02*X146200Y113200D01*
X158800D02*X161200Y110800D01*
X158800D02*X161200Y113200D01*
X158800Y73200D02*X161200Y70800D01*
X158800D02*X161200Y73200D01*
X178800Y58200D02*X181200Y55800D01*
X178800D02*X181200Y58200D01*
X218800D02*X221200Y55800D01*
X218800D02*X221200Y58200D01*
X251300Y113200D02*X253700Y110800D01*
X251300D02*X253700Y113200D01*
X251300Y73200D02*X253700Y70800D01*
X251300D02*X253700Y73200D01*
X56300Y113200D02*X58700Y110800D01*
X56300D02*X58700Y113200D01*
X56300Y73200D02*X58700Y70800D01*
X56300D02*X58700Y73200D01*
X158800Y143200D02*X161200Y140800D01*
X158800D02*X161200Y143200D01*
X118800D02*X121200Y140800D01*
X118800D02*X121200Y143200D01*
X178800Y38200D02*X181200Y35800D01*
X178800D02*X181200Y38200D01*
X218800D02*X221200Y35800D01*
X218800D02*X221200Y38200D01*
X38800Y73200D02*X41200Y70800D01*
X38800D02*X41200Y73200D01*
X38800Y113200D02*X41200Y110800D01*
X38800D02*X41200Y113200D01*
X13800Y8200D02*X16200Y5800D01*
X13800D02*X16200Y8200D01*
X23800D02*X26200Y5800D01*
X23800D02*X26200Y8200D01*
X33800D02*X36200Y5800D01*
X33800D02*X36200Y8200D01*
X43800D02*X46200Y5800D01*
X43800D02*X46200Y8200D01*
X53800D02*X56200Y5800D01*
X53800D02*X56200Y8200D01*
X63800D02*X66200Y5800D01*
X63800D02*X66200Y8200D01*
X73800D02*X76200Y5800D01*
X73800D02*X76200Y8200D01*
X83800D02*X86200Y5800D01*
X83800D02*X86200Y8200D01*
X338800Y55700D02*X341200Y53300D01*
X338800D02*X341200Y55700D01*
X378800D02*X381200Y53300D01*
X378800D02*X381200Y55700D01*
X448800Y73200D02*X451200Y70800D01*
X448800D02*X451200Y73200D01*
X448800Y113200D02*X451200Y110800D01*
X448800D02*X451200Y113200D01*
X463800D02*X466200Y110800D01*
X463800D02*X466200Y113200D01*
X463800Y73200D02*X466200Y70800D01*
X463800D02*X466200Y73200D01*
X483800Y58200D02*X486200Y55800D01*
X483800D02*X486200Y58200D01*
X523800D02*X526200Y55800D01*
X523800D02*X526200Y58200D01*
X556300Y113200D02*X558700Y110800D01*
X556300D02*X558700Y113200D01*
X556300Y73200D02*X558700Y70800D01*
X556300D02*X558700Y73200D01*
X361300Y113200D02*X363700Y110800D01*
X361300D02*X363700Y113200D01*
X361300Y73200D02*X363700Y70800D01*
X361300D02*X363700Y73200D01*
X463800Y143200D02*X466200Y140800D01*
X463800D02*X466200Y143200D01*
X423800D02*X426200Y140800D01*
X423800D02*X426200Y143200D01*
X483800Y38200D02*X486200Y35800D01*
X483800D02*X486200Y38200D01*
X523800D02*X526200Y35800D01*
X523800D02*X526200Y38200D01*
X343800Y73200D02*X346200Y70800D01*
X343800D02*X346200Y73200D01*
X343800Y113200D02*X346200Y110800D01*
X343800D02*X346200Y113200D01*
X13800Y189450D02*X16200Y187050D01*
X13800D02*X16200Y189450D01*
X135000Y190800D02*X137400Y187800D01*
Y184500D01*
X139800Y190800D02*X137400Y187800D01*
X141601Y190800D02*Y184500D01*
Y190800D02*X145501D01*
X141601Y187800D02*X144001D01*
X141601Y184500D02*X145501D01*
X151503Y189900D02*X150903Y190500D01*
X150003Y190800D01*
X148803D02*X150003D01*
X148803D02*X147903Y190500D01*
X147303Y189900D01*
Y189300D01*
X147603Y188700D01*
X147903Y188400D01*
X148503Y188100D01*
X150303Y187500D01*
X150903Y187200D01*
X151203Y186900D01*
X151503Y186300D01*
Y185400D01*
X150903Y184800D01*
X150003Y184500D01*
X148803D02*X150003D01*
X148803D02*X147903Y184800D01*
X147303Y185400D01*
X135000Y181399D02*X153304D01*
X101000Y190800D02*X98000Y186600D01*
X102500D01*
X101000Y190800D02*Y184500D01*
X107301Y190800D02*X104301Y186600D01*
X108801D01*
X107301Y190800D02*Y184500D01*
X98000Y181399D02*X110603D01*
X46800Y190800D02*X45900Y190500D01*
X45300Y189600D01*
X45000Y188100D01*
Y187200D01*
X45300Y185700D01*
X45900Y184800D01*
X46800Y184500D01*
X47400D01*
X48300Y184800D01*
X48900Y185700D01*
X49200Y187200D01*
Y188100D02*Y187200D01*
Y188100D02*X48900Y189600D01*
X48300Y190500D01*
X47400Y190800D01*
X46800D02*X47400D01*
X51301Y185100D02*X51001Y184800D01*
X51301Y184500D01*
X51601Y184800D01*
X51301Y185100D01*
X55203Y190800D02*X54303Y190500D01*
X53703Y189600D01*
X53403Y188100D01*
Y187200D01*
X53703Y185700D01*
X54303Y184800D01*
X55203Y184500D01*
X55803D01*
X56703Y184800D01*
X57303Y185700D01*
X57603Y187200D01*
Y188100D02*Y187200D01*
Y188100D02*X57303Y189600D01*
X56703Y190500D01*
X55803Y190800D01*
X55203D02*X55803D01*
X62404D02*X59404Y186600D01*
X63904D01*
X62404Y190800D02*Y184500D01*
X67506Y190800D02*X66606Y190500D01*
X66006Y189600D01*
X65706Y188100D01*
Y187200D01*
X66006Y185700D01*
X66606Y184800D01*
X67506Y184500D01*
X68106D01*
X69006Y184800D01*
X69606Y185700D01*
X69906Y187200D01*
Y188100D02*Y187200D01*
Y188100D02*X69606Y189600D01*
X69006Y190500D01*
X68106Y190800D01*
X67506D02*X68106D01*
X45000Y181399D02*X71707D01*
X375236Y143600D02*Y140400D01*
X373636Y142000D02*X376836D01*
X404764Y143600D02*Y140400D01*
X403164Y142000D02*X406364D01*
X152500Y26100D02*Y22900D01*
X150900Y24500D02*X154100D01*
X152500Y66100D02*Y62900D01*
X150900Y64500D02*X154100D01*
X170000Y113600D02*Y110400D01*
X168400Y112000D02*X171600D01*
X170000Y73600D02*Y70400D01*
X168400Y72000D02*X171600D01*
X170000Y18600D02*Y15400D01*
X168400Y17000D02*X171600D01*
X170000Y58600D02*Y55400D01*
X168400Y57000D02*X171600D01*
X245000Y118600D02*Y115400D01*
X243400Y117000D02*X246600D01*
X205000Y118600D02*Y115400D01*
X203400Y117000D02*X206600D01*
X75000Y78836D02*Y75636D01*
X73400Y77236D02*X76600D01*
X75000Y108364D02*Y105164D01*
X73400Y106764D02*X76600D01*
X266063Y58600D02*Y55400D01*
X264463Y57000D02*X267663D01*
X273937Y58600D02*Y55400D01*
X272337Y57000D02*X275537D01*
X70236Y143600D02*Y140400D01*
X68636Y142000D02*X71836D01*
X99764Y143600D02*Y140400D01*
X98164Y142000D02*X101364D01*
X185000Y78600D02*Y75400D01*
X183400Y77000D02*X186600D01*
X195000Y78600D02*Y75400D01*
X193400Y77000D02*X196600D01*
X205000Y78600D02*Y75400D01*
X203400Y77000D02*X206600D01*
X215000Y78600D02*Y75400D01*
X213400Y77000D02*X216600D01*
X215000Y108600D02*Y105400D01*
X213400Y107000D02*X216600D01*
X205000Y108600D02*Y105400D01*
X203400Y107000D02*X206600D01*
X195000Y108600D02*Y105400D01*
X193400Y107000D02*X196600D01*
X185000Y108600D02*Y105400D01*
X183400Y107000D02*X186600D01*
X265000Y78600D02*Y75400D01*
X263400Y77000D02*X266600D01*
X275000Y78600D02*Y75400D01*
X273400Y77000D02*X276600D01*
X285000Y78600D02*Y75400D01*
X283400Y77000D02*X286600D01*
X295000Y78600D02*Y75400D01*
X293400Y77000D02*X296600D01*
X295000Y108600D02*Y105400D01*
X293400Y107000D02*X296600D01*
X285000Y108600D02*Y105400D01*
X283400Y107000D02*X286600D01*
X275000Y108600D02*Y105400D01*
X273400Y107000D02*X276600D01*
X265000Y108600D02*Y105400D01*
X263400Y107000D02*X266600D01*
X100000Y78600D02*Y75400D01*
X98400Y77000D02*X101600D01*
X110000Y78600D02*Y75400D01*
X108400Y77000D02*X111600D01*
X120000Y78600D02*Y75400D01*
X118400Y77000D02*X121600D01*
X130000Y78600D02*Y75400D01*
X128400Y77000D02*X131600D01*
X130000Y108600D02*Y105400D01*
X128400Y107000D02*X131600D01*
X120000Y108600D02*Y105400D01*
X118400Y107000D02*X121600D01*
X110000Y108600D02*Y105400D01*
X108400Y107000D02*X111600D01*
X100000Y108600D02*Y105400D01*
X98400Y107000D02*X101600D01*
X457500Y26100D02*Y22900D01*
X455900Y24500D02*X459100D01*
X457500Y66100D02*Y62900D01*
X455900Y64500D02*X459100D01*
X475000Y113600D02*Y110400D01*
X473400Y112000D02*X476600D01*
X475000Y73600D02*Y70400D01*
X473400Y72000D02*X476600D01*
X475000Y18600D02*Y15400D01*
X473400Y17000D02*X476600D01*
X475000Y58600D02*Y55400D01*
X473400Y57000D02*X476600D01*
X550000Y118600D02*Y115400D01*
X548400Y117000D02*X551600D01*
X510000Y118600D02*Y115400D01*
X508400Y117000D02*X511600D01*
X571063Y58600D02*Y55400D01*
X569463Y57000D02*X572663D01*
X578937Y58600D02*Y55400D01*
X577337Y57000D02*X580537D01*
X380000Y78836D02*Y75636D01*
X378400Y77236D02*X381600D01*
X380000Y108364D02*Y105164D01*
X378400Y106764D02*X381600D01*
X490000Y78600D02*Y75400D01*
X488400Y77000D02*X491600D01*
X500000Y78600D02*Y75400D01*
X498400Y77000D02*X501600D01*
X510000Y78600D02*Y75400D01*
X508400Y77000D02*X511600D01*
X520000Y78600D02*Y75400D01*
X518400Y77000D02*X521600D01*
X520000Y108600D02*Y105400D01*
X518400Y107000D02*X521600D01*
X510000Y108600D02*Y105400D01*
X508400Y107000D02*X511600D01*
X500000Y108600D02*Y105400D01*
X498400Y107000D02*X501600D01*
X490000Y108600D02*Y105400D01*
X488400Y107000D02*X491600D01*
X570000Y78600D02*Y75400D01*
X568400Y77000D02*X571600D01*
X580000Y78600D02*Y75400D01*
X578400Y77000D02*X581600D01*
X590000Y78600D02*Y75400D01*
X588400Y77000D02*X591600D01*
X600000Y78600D02*Y75400D01*
X598400Y77000D02*X601600D01*
X600000Y108600D02*Y105400D01*
X598400Y107000D02*X601600D01*
X590000Y108600D02*Y105400D01*
X588400Y107000D02*X591600D01*
X580000Y108600D02*Y105400D01*
X578400Y107000D02*X581600D01*
X570000Y108600D02*Y105400D01*
X568400Y107000D02*X571600D01*
X405000Y78600D02*Y75400D01*
X403400Y77000D02*X406600D01*
X415000Y78600D02*Y75400D01*
X413400Y77000D02*X416600D01*
X425000Y78600D02*Y75400D01*
X423400Y77000D02*X426600D01*
X435000Y78600D02*Y75400D01*
X433400Y77000D02*X436600D01*
X435000Y108600D02*Y105400D01*
X433400Y107000D02*X436600D01*
X425000Y108600D02*Y105400D01*
X423400Y107000D02*X426600D01*
X415000Y108600D02*Y105400D01*
X413400Y107000D02*X416600D01*
X405000Y108600D02*Y105400D01*
X403400Y107000D02*X406600D01*
X352500Y8600D02*Y5400D01*
X350900Y7000D02*X354100D01*
X12500Y31100D02*Y27900D01*
X10900Y29500D02*X14100D01*
X15000Y204850D02*Y201650D01*
X13400Y203250D02*X16600D01*
X135000Y205800D02*X137400Y202800D01*
Y199500D01*
X139800Y205800D02*X137400Y202800D01*
X141601Y205800D02*Y199500D01*
Y205800D02*X145501D01*
X141601Y202800D02*X144001D01*
X141601Y199500D02*X145501D01*
X151503Y204900D02*X150903Y205500D01*
X150003Y205800D01*
X148803D02*X150003D01*
X148803D02*X147903Y205500D01*
X147303Y204900D01*
Y204300D01*
X147603Y203700D01*
X147903Y203400D01*
X148503Y203100D01*
X150303Y202500D01*
X150903Y202200D01*
X151203Y201900D01*
X151503Y201300D01*
Y200400D01*
X150903Y199800D01*
X150003Y199500D01*
X148803D02*X150003D01*
X148803D02*X147903Y199800D01*
X147303Y200400D01*
X135000Y196399D02*X153304D01*
X102200Y205800D02*X99200Y199500D01*
X98000Y205800D02*X102200D01*
X105501D02*X104601Y205500D01*
X104301Y204900D01*
Y204300D01*
X104601Y203700D01*
X105201Y203400D01*
X106401Y203100D01*
X107301Y202800D01*
X107901Y202200D01*
X108201Y201600D01*
Y200700D01*
X107901Y200100D01*
X107601Y199800D01*
X106701Y199500D01*
X105501D02*X106701D01*
X105501D02*X104601Y199800D01*
X104301Y200100D01*
X104001Y200700D01*
Y201600D02*Y200700D01*
Y201600D02*X104301Y202200D01*
X104901Y202800D01*
X105801Y203100D01*
X107001Y203400D01*
X107601Y203700D01*
X107901Y204300D01*
Y204900D02*Y204300D01*
Y204900D02*X107601Y205500D01*
X106701Y205800D01*
X105501D02*X106701D01*
X98000Y196399D02*X110003D01*
X46800Y205800D02*X45900Y205500D01*
X45300Y204600D01*
X45000Y203100D01*
Y202200D01*
X45300Y200700D01*
X45900Y199800D01*
X46800Y199500D01*
X47400D01*
X48300Y199800D01*
X48900Y200700D01*
X49200Y202200D01*
Y203100D02*Y202200D01*
Y203100D02*X48900Y204600D01*
X48300Y205500D01*
X47400Y205800D01*
X46800D02*X47400D01*
X51301Y200100D02*X51001Y199800D01*
X51301Y199500D01*
X51601Y199800D01*
X51301Y200100D01*
X55203Y205800D02*X54303Y205500D01*
X53703Y204600D01*
X53403Y203100D01*
Y202200D01*
X53703Y200700D01*
X54303Y199800D01*
X55203Y199500D01*
X55803D01*
X56703Y199800D01*
X57303Y200700D01*
X57603Y202200D01*
Y203100D02*Y202200D01*
Y203100D02*X57303Y204600D01*
X56703Y205500D01*
X55803Y205800D01*
X55203D02*X55803D01*
X60004D02*X63304D01*
X61504Y203400D01*
X62404D01*
X63004Y203100D01*
X63304Y202800D01*
X63604Y201900D01*
Y201300D01*
X63304Y200400D01*
X62704Y199800D01*
X61804Y199500D01*
X60904D02*X61804D01*
X60904D02*X60004Y199800D01*
X59704Y200100D01*
X59404Y200700D01*
X65706Y204600D02*Y204300D01*
Y204600D02*X66006Y205200D01*
X66306Y205500D01*
X66906Y205800D01*
X68106D01*
X68706Y205500D01*
X69006Y205200D01*
X69306Y204600D01*
Y204000D01*
X69006Y203400D01*
X68406Y202500D01*
X65406Y199500D01*
X69606D01*
X45000Y196399D02*X71407D01*
X295000Y47000D02*Y45400D01*
Y47000D02*X296386Y47800D01*
X295000Y47000D02*X293614Y47800D01*
X295000Y67000D02*Y65400D01*
Y67000D02*X296386Y67800D01*
X295000Y67000D02*X293614Y67800D01*
X295000Y117000D02*Y115400D01*
Y117000D02*X296386Y117800D01*
X295000Y117000D02*X293614Y117800D01*
X275000Y117000D02*Y115400D01*
Y117000D02*X276386Y117800D01*
X275000Y117000D02*X273614Y117800D01*
X130000Y117000D02*Y115400D01*
Y117000D02*X131386Y117800D01*
X130000Y117000D02*X128614Y117800D01*
X110000Y117000D02*Y115400D01*
Y117000D02*X111386Y117800D01*
X110000Y117000D02*X108614Y117800D01*
X130000Y47000D02*Y45400D01*
Y47000D02*X131386Y47800D01*
X130000Y47000D02*X128614Y47800D01*
X130000Y67000D02*Y65400D01*
Y67000D02*X131386Y67800D01*
X130000Y67000D02*X128614Y67800D01*
X230000Y57000D02*Y55400D01*
Y57000D02*X231386Y57800D01*
X230000Y57000D02*X228614Y57800D01*
X230000Y77000D02*Y75400D01*
Y77000D02*X231386Y77800D01*
X230000Y77000D02*X228614Y77800D01*
X195000Y137000D02*Y135400D01*
Y137000D02*X196386Y137800D01*
X195000Y137000D02*X193614Y137800D01*
X195000Y117000D02*Y115400D01*
Y117000D02*X196386Y117800D01*
X195000Y117000D02*X193614Y117800D01*
X435000Y117000D02*Y115400D01*
Y117000D02*X436386Y117800D01*
X435000Y117000D02*X433614Y117800D01*
X415000Y117000D02*Y115400D01*
Y117000D02*X416386Y117800D01*
X415000Y117000D02*X413614Y117800D01*
X435000Y47000D02*Y45400D01*
Y47000D02*X436386Y47800D01*
X435000Y47000D02*X433614Y47800D01*
X435000Y67000D02*Y65400D01*
Y67000D02*X436386Y67800D01*
X435000Y67000D02*X433614Y67800D01*
X535000Y57000D02*Y55400D01*
Y57000D02*X536386Y57800D01*
X535000Y57000D02*X533614Y57800D01*
X535000Y77000D02*Y75400D01*
Y77000D02*X536386Y77800D01*
X535000Y77000D02*X533614Y77800D01*
X600000Y117000D02*Y115400D01*
Y117000D02*X601386Y117800D01*
X600000Y117000D02*X598614Y117800D01*
X580000Y117000D02*Y115400D01*
Y117000D02*X581386Y117800D01*
X580000Y117000D02*X578614Y117800D01*
X500000Y137000D02*Y135400D01*
Y137000D02*X501386Y137800D01*
X500000Y137000D02*X498614Y137800D01*
X500000Y117000D02*Y115400D01*
Y117000D02*X501386Y117800D01*
X500000Y117000D02*X498614Y117800D01*
X600000Y47000D02*Y45400D01*
Y47000D02*X601386Y47800D01*
X600000Y47000D02*X598614Y47800D01*
X600000Y67000D02*Y65400D01*
Y67000D02*X601386Y67800D01*
X600000Y67000D02*X598614Y67800D01*
X15000Y218250D02*Y216650D01*
Y218250D02*X16386Y219050D01*
X15000Y218250D02*X13614Y219050D01*
X135000Y220800D02*X137400Y217800D01*
Y214500D01*
X139800Y220800D02*X137400Y217800D01*
X141601Y220800D02*Y214500D01*
Y220800D02*X145501D01*
X141601Y217800D02*X144001D01*
X141601Y214500D02*X145501D01*
X151503Y219900D02*X150903Y220500D01*
X150003Y220800D01*
X148803D02*X150003D01*
X148803D02*X147903Y220500D01*
X147303Y219900D01*
Y219300D01*
X147603Y218700D01*
X147903Y218400D01*
X148503Y218100D01*
X150303Y217500D01*
X150903Y217200D01*
X151203Y216900D01*
X151503Y216300D01*
Y215400D01*
X150903Y214800D01*
X150003Y214500D01*
X148803D02*X150003D01*
X148803D02*X147903Y214800D01*
X147303Y215400D01*
X135000Y211399D02*X153304D01*
X98300Y219600D02*Y219300D01*
Y219600D02*X98600Y220200D01*
X98900Y220500D01*
X99500Y220800D01*
X100700D01*
X101300Y220500D01*
X101600Y220200D01*
X101900Y219600D01*
Y219000D01*
X101600Y218400D01*
X101000Y217500D01*
X98000Y214500D01*
X102200D01*
X107001Y220800D02*X104001Y216600D01*
X108501D01*
X107001Y220800D02*Y214500D01*
X98000Y211399D02*X110303D01*
X46800Y220800D02*X45900Y220500D01*
X45300Y219600D01*
X45000Y218100D01*
Y217200D01*
X45300Y215700D01*
X45900Y214800D01*
X46800Y214500D01*
X47400D01*
X48300Y214800D01*
X48900Y215700D01*
X49200Y217200D01*
Y218100D02*Y217200D01*
Y218100D02*X48900Y219600D01*
X48300Y220500D01*
X47400Y220800D01*
X46800D02*X47400D01*
X51301Y215100D02*X51001Y214800D01*
X51301Y214500D01*
X51601Y214800D01*
X51301Y215100D01*
X55203Y220800D02*X54303Y220500D01*
X53703Y219600D01*
X53403Y218100D01*
Y217200D01*
X53703Y215700D01*
X54303Y214800D01*
X55203Y214500D01*
X55803D01*
X56703Y214800D01*
X57303Y215700D01*
X57603Y217200D01*
Y218100D02*Y217200D01*
Y218100D02*X57303Y219600D01*
X56703Y220500D01*
X55803Y220800D01*
X55203D02*X55803D01*
X59704Y219600D02*Y219300D01*
Y219600D02*X60004Y220200D01*
X60304Y220500D01*
X60904Y220800D01*
X62104D01*
X62704Y220500D01*
X63004Y220200D01*
X63304Y219600D01*
Y219000D01*
X63004Y218400D01*
X62404Y217500D01*
X59404Y214500D01*
X63604D01*
X68406Y220800D02*X65406Y216600D01*
X69906D01*
X68406Y220800D02*Y214500D01*
X45000Y211399D02*X71707D01*
X4200Y234900D02*X3600Y235500D01*
X2700Y235800D01*
X1500D02*X2700D01*
X1500D02*X600Y235500D01*
X0Y234900D01*
Y234300D01*
X300Y233700D01*
X600Y233400D01*
X1200Y233100D01*
X3000Y232500D01*
X3600Y232200D01*
X3900Y231900D01*
X4200Y231300D01*
Y230400D01*
X3600Y229800D01*
X2700Y229500D01*
X1500D02*X2700D01*
X1500D02*X600Y229800D01*
X0Y230400D01*
X6301Y233700D02*X8101Y229500D01*
X9901Y233700D02*X8101Y229500D01*
X7501Y228300D01*
X6901Y227700D01*
X6301Y227400D01*
X6001D02*X6301D01*
X11703Y233700D02*Y229500D01*
Y232500D02*X12603Y233400D01*
X13203Y233700D01*
X14103D01*
X14703Y233400D01*
X15003Y232500D01*
Y229500D01*
Y232500D02*X15903Y233400D01*
X16503Y233700D01*
X17403D01*
X18003Y233400D01*
X18303Y232500D01*
Y229500D01*
X20104Y235800D02*Y229500D01*
Y232800D02*X20704Y233400D01*
X21304Y233700D01*
X22204D01*
X22804Y233400D01*
X23404Y232800D01*
X23704Y231900D01*
Y231300D01*
X23404Y230400D01*
X22804Y229800D01*
X22204Y229500D01*
X21304D02*X22204D01*
X21304D02*X20704Y229800D01*
X20104Y230400D01*
X27006Y233700D02*X26406Y233400D01*
X25806Y232800D01*
X25506Y231900D01*
Y231300D01*
X25806Y230400D01*
X26406Y229800D01*
X27006Y229500D01*
X27906D01*
X28506Y229800D01*
X29106Y230400D01*
X29406Y231300D01*
Y231900D02*Y231300D01*
Y231900D02*X29106Y232800D01*
X28506Y233400D01*
X27906Y233700D01*
X27006D02*X27906D01*
X31207Y235800D02*Y229500D01*
X41000Y235800D02*Y229500D01*
Y235800D02*X43100D01*
X44000Y235500D01*
X44600Y234900D01*
X44900Y234300D01*
X45200Y233400D01*
Y231900D01*
X44900Y231000D01*
X44600Y230400D01*
X44000Y229800D01*
X43100Y229500D01*
X41000D02*X43100D01*
X47001Y235800D02*X47301Y235500D01*
X47601Y235800D01*
X47301Y236100D01*
X47001Y235800D01*
X47301Y233700D02*Y229500D01*
X53003Y233700D02*Y229500D01*
Y232800D02*X52403Y233400D01*
X51803Y233700D01*
X50903D02*X51803D01*
X50903D02*X50303Y233400D01*
X49703Y232800D01*
X49403Y231900D01*
Y231300D01*
X49703Y230400D01*
X50303Y229800D01*
X50903Y229500D01*
X51803D01*
X52403Y229800D01*
X53003Y230400D01*
X54804Y233700D02*Y229500D01*
Y232500D02*X55704Y233400D01*
X56304Y233700D01*
X57204D01*
X57804Y233400D01*
X58104Y232500D01*
Y229500D01*
Y232500D02*X59004Y233400D01*
X59604Y233700D01*
X60504D01*
X61104Y233400D01*
X61404Y232500D01*
Y229500D01*
X63506Y230100D02*X63206Y229800D01*
X63506Y229500D01*
X63806Y229800D01*
X63506Y230100D01*
X69507Y237000D02*X68907Y236400D01*
X68307Y235500D01*
X67707Y234300D01*
X67407Y232800D01*
Y231600D01*
X67707Y230100D01*
X68307Y228900D01*
X68907Y228000D01*
X69507Y227400D01*
X71309Y235800D02*Y229500D01*
X73110Y233700D02*Y229500D01*
Y232500D02*X74010Y233400D01*
X74610Y233700D01*
X75510D01*
X76110Y233400D01*
X76410Y232500D01*
Y229500D01*
X81812Y232800D02*X81212Y233400D01*
X80612Y233700D01*
X79712D02*X80612D01*
X79712D02*X79112Y233400D01*
X78512Y232800D01*
X78212Y231900D01*
Y231300D01*
X78512Y230400D01*
X79112Y229800D01*
X79712Y229500D01*
X80612D01*
X81212Y229800D01*
X81812Y230400D01*
X83613Y235800D02*Y229500D01*
Y232500D02*X84513Y233400D01*
X85113Y233700D01*
X86013D01*
X86613Y233400D01*
X86913Y232500D01*
Y229500D01*
X88715Y237000D02*X89315Y236400D01*
X89915Y235500D01*
X90515Y234300D01*
X90815Y232800D01*
Y231600D01*
X90515Y230100D01*
X89915Y228900D01*
X89315Y228000D01*
X88715Y227400D01*
X99500Y234300D02*X99200Y234900D01*
X98600Y235500D01*
X98000Y235800D01*
X96800D02*X98000D01*
X96800D02*X96200Y235500D01*
X95600Y234900D01*
X95300Y234300D01*
X95000Y233400D01*
Y231900D01*
X95300Y231000D01*
X95600Y230400D01*
X96200Y229800D01*
X96800Y229500D01*
X98000D01*
X98600Y229800D01*
X99200Y230400D01*
X99500Y231000D01*
X102801Y233700D02*X102201Y233400D01*
X101601Y232800D01*
X101301Y231900D01*
Y231300D01*
X101601Y230400D01*
X102201Y229800D01*
X102801Y229500D01*
X103701D01*
X104301Y229800D01*
X104901Y230400D01*
X105201Y231300D01*
Y231900D02*Y231300D01*
Y231900D02*X104901Y232800D01*
X104301Y233400D01*
X103701Y233700D01*
X102801D02*X103701D01*
X107003D02*Y230700D01*
X107303Y229800D01*
X107903Y229500D01*
X108803D01*
X109403Y229800D01*
X110303Y230700D01*
Y233700D02*Y229500D01*
X112104Y233700D02*Y229500D01*
Y232500D02*X113004Y233400D01*
X113604Y233700D01*
X114504D01*
X115104Y233400D01*
X115404Y232500D01*
Y229500D01*
X118106Y235800D02*Y230700D01*
X118406Y229800D01*
X119006Y229500D01*
X119606D01*
X117206Y233700D02*X119306D01*
X130000Y235800D02*Y229500D01*
Y235800D02*X132700D01*
X133600Y235500D01*
X133900Y235200D01*
X134200Y234600D01*
Y233700D01*
X133900Y233100D01*
X133600Y232800D01*
X132700Y232500D01*
X130000D02*X132700D01*
X136001Y235800D02*Y229500D01*
X141403Y233700D02*Y229500D01*
Y232800D02*X140803Y233400D01*
X140203Y233700D01*
X139303D02*X140203D01*
X139303D02*X138703Y233400D01*
X138103Y232800D01*
X137803Y231900D01*
Y231300D01*
X138103Y230400D01*
X138703Y229800D01*
X139303Y229500D01*
X140203D01*
X140803Y229800D01*
X141403Y230400D01*
X144104Y235800D02*Y230700D01*
X144404Y229800D01*
X145004Y229500D01*
X145604D01*
X143204Y233700D02*X145304D01*
X147406Y231900D02*X151006D01*
Y232500D02*Y231900D01*
Y232500D02*X150706Y233100D01*
X150406Y233400D01*
X149806Y233700D01*
X148906D02*X149806D01*
X148906D02*X148306Y233400D01*
X147706Y232800D01*
X147406Y231900D01*
Y231300D01*
X147706Y230400D01*
X148306Y229800D01*
X148906Y229500D01*
X149806D01*
X150406Y229800D01*
X151006Y230400D01*
X156407Y235800D02*Y229500D01*
Y232800D02*X155807Y233400D01*
X155207Y233700D01*
X154307D02*X155207D01*
X154307D02*X153707Y233400D01*
X153107Y232800D01*
X152807Y231900D01*
Y231300D01*
X153107Y230400D01*
X153707Y229800D01*
X154307Y229500D01*
X155207D01*
X155807Y229800D01*
X156407Y230400D01*
X158209Y234600D02*Y234300D01*
Y234600D02*X158509Y235200D01*
X158809Y235500D01*
X159409Y235800D01*
X160609D01*
X161209Y235500D01*
X161509Y235200D01*
X161809Y234600D01*
Y234000D01*
X161509Y233400D01*
X161209Y233100D01*
X160009Y232500D01*
Y231600D01*
Y230100D02*X159709Y229800D01*
X160009Y229500D01*
X160309Y229800D01*
X160009Y230100D01*
X2100Y250800D02*Y244500D01*
X0Y250800D02*X4200D01*
X6001D02*Y244500D01*
Y247500D02*X6901Y248400D01*
X7501Y248700D01*
X8401D01*
X9001Y248400D01*
X9301Y247500D01*
Y244500D01*
X11103Y246900D02*X14703D01*
Y247500D02*Y246900D01*
Y247500D02*X14403Y248100D01*
X14103Y248400D01*
X13503Y248700D01*
X12603D02*X13503D01*
X12603D02*X12003Y248400D01*
X11403Y247800D01*
X11103Y246900D01*
Y246300D01*
X11403Y245400D01*
X12003Y244800D01*
X12603Y244500D01*
X13503D01*
X14103Y244800D01*
X14703Y245400D01*
X16504Y248700D02*Y244500D01*
Y246900D02*X16804Y247800D01*
X17404Y248400D01*
X18004Y248700D01*
X18904D01*
X20706Y246900D02*X24306D01*
Y247500D02*Y246900D01*
Y247500D02*X24006Y248100D01*
X23706Y248400D01*
X23106Y248700D01*
X22206D02*X23106D01*
X22206D02*X21606Y248400D01*
X21006Y247800D01*
X20706Y246900D01*
Y246300D01*
X21006Y245400D01*
X21606Y244800D01*
X22206Y244500D01*
X23106D01*
X23706Y244800D01*
X24306Y245400D01*
X31507Y248700D02*Y244500D01*
Y247800D02*X30907Y248400D01*
X30307Y248700D01*
X29407D02*X30307D01*
X29407D02*X28807Y248400D01*
X28207Y247800D01*
X27907Y246900D01*
Y246300D01*
X28207Y245400D01*
X28807Y244800D01*
X29407Y244500D01*
X30307D01*
X30907Y244800D01*
X31507Y245400D01*
X33309Y248700D02*Y244500D01*
Y246900D02*X33609Y247800D01*
X34209Y248400D01*
X34809Y248700D01*
X35709D01*
X37510Y246900D02*X41110D01*
Y247500D02*Y246900D01*
Y247500D02*X40810Y248100D01*
X40510Y248400D01*
X39910Y248700D01*
X39010D02*X39910D01*
X39010D02*X38410Y248400D01*
X37810Y247800D01*
X37510Y246900D01*
Y246300D01*
X37810Y245400D01*
X38410Y244800D01*
X39010Y244500D01*
X39910D01*
X40510Y244800D01*
X41110Y245400D01*
X47712Y250800D02*X44712Y246600D01*
X49212D01*
X47712Y250800D02*Y244500D01*
X56413Y250800D02*Y244500D01*
Y247800D02*X55813Y248400D01*
X55213Y248700D01*
X54313D02*X55213D01*
X54313D02*X53713Y248400D01*
X53113Y247800D01*
X52813Y246900D01*
Y246300D01*
X53113Y245400D01*
X53713Y244800D01*
X54313Y244500D01*
X55213D01*
X55813Y244800D01*
X56413Y245400D01*
X58215Y250800D02*X58515Y250500D01*
X58815Y250800D01*
X58515Y251100D01*
X58215Y250800D01*
X58515Y248700D02*Y244500D01*
X62416Y250800D02*X63016D01*
X62416D02*X61816Y250500D01*
X61516Y249600D01*
Y244500D01*
X60616Y248700D02*X62716D01*
X66618Y250800D02*X67218D01*
X66618D02*X66018Y250500D01*
X65718Y249600D01*
Y244500D01*
X64818Y248700D02*X66918D01*
X69019Y246900D02*X72619D01*
Y247500D02*Y246900D01*
Y247500D02*X72319Y248100D01*
X72019Y248400D01*
X71419Y248700D01*
X70519D02*X71419D01*
X70519D02*X69919Y248400D01*
X69319Y247800D01*
X69019Y246900D01*
Y246300D01*
X69319Y245400D01*
X69919Y244800D01*
X70519Y244500D01*
X71419D01*
X72019Y244800D01*
X72619Y245400D01*
X74421Y248700D02*Y244500D01*
Y246900D02*X74721Y247800D01*
X75321Y248400D01*
X75921Y248700D01*
X76821D01*
X78622Y246900D02*X82222D01*
Y247500D02*Y246900D01*
Y247500D02*X81922Y248100D01*
X81622Y248400D01*
X81022Y248700D01*
X80122D02*X81022D01*
X80122D02*X79522Y248400D01*
X78922Y247800D01*
X78622Y246900D01*
Y246300D01*
X78922Y245400D01*
X79522Y244800D01*
X80122Y244500D01*
X81022D01*
X81622Y244800D01*
X82222Y245400D01*
X84024Y248700D02*Y244500D01*
Y247500D02*X84924Y248400D01*
X85524Y248700D01*
X86424D01*
X87024Y248400D01*
X87324Y247500D01*
Y244500D01*
X90025Y250800D02*Y245700D01*
X90325Y244800D01*
X90925Y244500D01*
X91525D01*
X89125Y248700D02*X91225D01*
X98727Y250800D02*Y244500D01*
Y247800D02*X98127Y248400D01*
X97527Y248700D01*
X96627D02*X97527D01*
X96627D02*X96027Y248400D01*
X95427Y247800D01*
X95127Y246900D01*
Y246300D01*
X95427Y245400D01*
X96027Y244800D01*
X96627Y244500D01*
X97527D01*
X98127Y244800D01*
X98727Y245400D01*
X100528Y248700D02*Y244500D01*
Y246900D02*X100828Y247800D01*
X101428Y248400D01*
X102028Y248700D01*
X102928D01*
X104730Y250800D02*X105030Y250500D01*
X105330Y250800D01*
X105030Y251100D01*
X104730Y250800D01*
X105030Y248700D02*Y244500D01*
X107131Y250800D02*Y244500D01*
X108933Y250800D02*Y244500D01*
X115834Y247800D02*X115534Y248400D01*
X114634Y248700D01*
X113734D02*X114634D01*
X113734D02*X112834Y248400D01*
X112534Y247800D01*
X112834Y247200D01*
X113434Y246900D01*
X114934Y246600D01*
X115534Y246300D01*
X115834Y245700D01*
Y245400D01*
X115534Y244800D01*
X114634Y244500D01*
X113734D02*X114634D01*
X113734D02*X112834Y244800D01*
X112534Y245400D01*
X117636Y250800D02*X117936Y250500D01*
X118236Y250800D01*
X117936Y251100D01*
X117636Y250800D01*
X117936Y248700D02*Y244500D01*
X123337Y248700D02*X120037Y244500D01*
Y248700D02*X123337D01*
X120037Y244500D02*X123337D01*
X125139Y246900D02*X128739D01*
Y247500D02*Y246900D01*
Y247500D02*X128439Y248100D01*
X128139Y248400D01*
X127539Y248700D01*
X126639D02*X127539D01*
X126639D02*X126039Y248400D01*
X125439Y247800D01*
X125139Y246900D01*
Y246300D01*
X125439Y245400D01*
X126039Y244800D01*
X126639Y244500D01*
X127539D01*
X128139Y244800D01*
X128739Y245400D01*
X133840Y247800D02*X133540Y248400D01*
X132640Y248700D01*
X131740D02*X132640D01*
X131740D02*X130840Y248400D01*
X130540Y247800D01*
X130840Y247200D01*
X131440Y246900D01*
X132940Y246600D01*
X133540Y246300D01*
X133840Y245700D01*
Y245400D01*
X133540Y244800D01*
X132640Y244500D01*
X131740D02*X132640D01*
X131740D02*X130840Y244800D01*
X130540Y245400D01*
X137442Y248700D02*Y245700D01*
X137742Y244800D01*
X138342Y244500D01*
X139242D01*
X139842Y244800D01*
X140742Y245700D01*
Y248700D02*Y244500D01*
X145843Y247800D02*X145543Y248400D01*
X144643Y248700D01*
X143743D02*X144643D01*
X143743D02*X142843Y248400D01*
X142543Y247800D01*
X142843Y247200D01*
X143443Y246900D01*
X144943Y246600D01*
X145543Y246300D01*
X145843Y245700D01*
Y245400D01*
X145543Y244800D01*
X144643Y244500D01*
X143743D02*X144643D01*
X143743D02*X142843Y244800D01*
X142543Y245400D01*
X147645Y246900D02*X151245D01*
Y247500D02*Y246900D01*
Y247500D02*X150945Y248100D01*
X150645Y248400D01*
X150045Y248700D01*
X149145D02*X150045D01*
X149145D02*X148545Y248400D01*
X147945Y247800D01*
X147645Y246900D01*
Y246300D01*
X147945Y245400D01*
X148545Y244800D01*
X149145Y244500D01*
X150045D01*
X150645Y244800D01*
X151245Y245400D01*
X156646Y250800D02*Y244500D01*
Y247800D02*X156046Y248400D01*
X155446Y248700D01*
X154546D02*X155446D01*
X154546D02*X153946Y248400D01*
X153346Y247800D01*
X153046Y246900D01*
Y246300D01*
X153346Y245400D01*
X153946Y244800D01*
X154546Y244500D01*
X155446D01*
X156046Y244800D01*
X156646Y245400D01*
X160248Y250800D02*X160548Y250500D01*
X160848Y250800D01*
X160548Y251100D01*
X160248Y250800D01*
X160548Y248700D02*Y244500D01*
X162649Y248700D02*Y244500D01*
Y247500D02*X163549Y248400D01*
X164149Y248700D01*
X165049D01*
X165649Y248400D01*
X165949Y247500D01*
Y244500D01*
X170451Y250800D02*Y245700D01*
X170751Y244800D01*
X171351Y244500D01*
X171951D01*
X169551Y248700D02*X171651D01*
X173752Y250800D02*Y244500D01*
Y247500D02*X174652Y248400D01*
X175252Y248700D01*
X176152D01*
X176752Y248400D01*
X177052Y247500D01*
Y244500D01*
X178854Y250800D02*X179154Y250500D01*
X179454Y250800D01*
X179154Y251100D01*
X178854Y250800D01*
X179154Y248700D02*Y244500D01*
X184555Y247800D02*X184255Y248400D01*
X183355Y248700D01*
X182455D02*X183355D01*
X182455D02*X181555Y248400D01*
X181255Y247800D01*
X181555Y247200D01*
X182155Y246900D01*
X183655Y246600D01*
X184255Y246300D01*
X184555Y245700D01*
Y245400D01*
X184255Y244800D01*
X183355Y244500D01*
X182455D02*X183355D01*
X182455D02*X181555Y244800D01*
X181255Y245400D01*
X188157Y250800D02*Y244500D01*
X193558Y248700D02*Y244500D01*
Y247800D02*X192958Y248400D01*
X192358Y248700D01*
X191458D02*X192358D01*
X191458D02*X190858Y248400D01*
X190258Y247800D01*
X189958Y246900D01*
Y246300D01*
X190258Y245400D01*
X190858Y244800D01*
X191458Y244500D01*
X192358D01*
X192958Y244800D01*
X193558Y245400D01*
X195660Y248700D02*X197460Y244500D01*
X199260Y248700D02*X197460Y244500D01*
X196860Y243300D01*
X196260Y242700D01*
X195660Y242400D01*
X195360D02*X195660D01*
X202561Y248700D02*X201961Y248400D01*
X201361Y247800D01*
X201061Y246900D01*
Y246300D01*
X201361Y245400D01*
X201961Y244800D01*
X202561Y244500D01*
X203461D01*
X204061Y244800D01*
X204661Y245400D01*
X204961Y246300D01*
Y246900D02*Y246300D01*
Y246900D02*X204661Y247800D01*
X204061Y248400D01*
X203461Y248700D01*
X202561D02*X203461D01*
X206763D02*Y245700D01*
X207063Y244800D01*
X207663Y244500D01*
X208563D01*
X209163Y244800D01*
X210063Y245700D01*
Y248700D02*Y244500D01*
X212764Y250800D02*Y245700D01*
X213064Y244800D01*
X213664Y244500D01*
X214264D01*
X211864Y248700D02*X213964D01*
X216666Y244800D02*X216366Y244500D01*
X216066Y244800D01*
X216366Y245100D01*
X216666Y244800D01*
Y244200D01*
X216366Y243600D01*
X216066Y243300D01*
X220267Y249600D02*X220867Y249900D01*
X221767Y250800D01*
Y244500D01*
X224169Y250800D02*X227169D01*
X224169D02*X223869Y248100D01*
X224169Y248400D01*
X225069Y248700D01*
X225969D01*
X226869Y248400D01*
X227469Y247800D01*
X227769Y246900D01*
Y246300D01*
X227469Y245400D01*
X226869Y244800D01*
X225969Y244500D01*
X225069D02*X225969D01*
X225069D02*X224169Y244800D01*
X223869Y245100D01*
X223569Y245700D01*
X231070Y250800D02*X230170Y250500D01*
X229870Y249900D01*
Y249300D01*
X230170Y248700D01*
X230770Y248400D01*
X231970Y248100D01*
X232870Y247800D01*
X233470Y247200D01*
X233770Y246600D01*
Y245700D01*
X233470Y245100D01*
X233170Y244800D01*
X232270Y244500D01*
X231070D02*X232270D01*
X231070D02*X230170Y244800D01*
X229870Y245100D01*
X229570Y245700D01*
Y246600D02*Y245700D01*
Y246600D02*X229870Y247200D01*
X230470Y247800D01*
X231370Y248100D01*
X232570Y248400D01*
X233170Y248700D01*
X233470Y249300D01*
Y249900D02*Y249300D01*
Y249900D02*X233170Y250500D01*
X232270Y250800D01*
X231070D02*X232270D01*
X237372D02*Y244500D01*
Y247500D02*X238272Y248400D01*
X238872Y248700D01*
X239772D01*
X240372Y248400D01*
X240672Y247500D01*
Y244500D01*
X243973Y248700D02*X243373Y248400D01*
X242773Y247800D01*
X242473Y246900D01*
Y246300D01*
X242773Y245400D01*
X243373Y244800D01*
X243973Y244500D01*
X244873D01*
X245473Y244800D01*
X246073Y245400D01*
X246373Y246300D01*
Y246900D02*Y246300D01*
Y246900D02*X246073Y247800D01*
X245473Y248400D01*
X244873Y248700D01*
X243973D02*X244873D01*
X248175Y250800D02*Y244500D01*
X249976Y246900D02*X253576D01*
Y247500D02*Y246900D01*
Y247500D02*X253276Y248100D01*
X252976Y248400D01*
X252376Y248700D01*
X251476D02*X252376D01*
X251476D02*X250876Y248400D01*
X250276Y247800D01*
X249976Y246900D01*
Y246300D01*
X250276Y245400D01*
X250876Y244800D01*
X251476Y244500D01*
X252376D01*
X252976Y244800D01*
X253576Y245400D01*
X258678Y247800D02*X258378Y248400D01*
X257478Y248700D01*
X256578D02*X257478D01*
X256578D02*X255678Y248400D01*
X255378Y247800D01*
X255678Y247200D01*
X256278Y246900D01*
X257778Y246600D01*
X258378Y246300D01*
X258678Y245700D01*
Y245400D01*
X258378Y244800D01*
X257478Y244500D01*
X256578D02*X257478D01*
X256578D02*X255678Y244800D01*
X255378Y245400D01*
X263179Y250800D02*Y245700D01*
X263479Y244800D01*
X264079Y244500D01*
X264679D01*
X262279Y248700D02*X264379D01*
X267981D02*X267381Y248400D01*
X266781Y247800D01*
X266481Y246900D01*
Y246300D01*
X266781Y245400D01*
X267381Y244800D01*
X267981Y244500D01*
X268881D01*
X269481Y244800D01*
X270081Y245400D01*
X270381Y246300D01*
Y246900D02*Y246300D01*
Y246900D02*X270081Y247800D01*
X269481Y248400D01*
X268881Y248700D01*
X267981D02*X268881D01*
X273082Y250800D02*Y245700D01*
X273382Y244800D01*
X273982Y244500D01*
X274582D01*
X272182Y248700D02*X274282D01*
X279984D02*Y244500D01*
Y247800D02*X279384Y248400D01*
X278784Y248700D01*
X277884D02*X278784D01*
X277884D02*X277284Y248400D01*
X276684Y247800D01*
X276384Y246900D01*
Y246300D01*
X276684Y245400D01*
X277284Y244800D01*
X277884Y244500D01*
X278784D01*
X279384Y244800D01*
X279984Y245400D01*
X281785Y250800D02*Y244500D01*
G54D25*X615000Y159500D02*Y2000D01*
X2500Y159500D02*X615000D01*
X2500Y2000D02*X615000D01*
X2500Y159500D02*Y2000D01*
G54D27*X218773Y-3200D02*Y-9500D01*
Y-3200D02*X221473D01*
X222373Y-3500D01*
X222673Y-3800D01*
X222973Y-4400D01*
Y-5000D01*
X222673Y-5600D01*
X222373Y-5900D01*
X221473Y-6200D01*
X218773D02*X221473D01*
X222373Y-6500D01*
X222673Y-6800D01*
X222973Y-7400D01*
Y-8300D01*
X222673Y-8900D01*
X222373Y-9200D01*
X221473Y-9500D01*
X218773D02*X221473D01*
X226274Y-5300D02*X225674Y-5600D01*
X225074Y-6200D01*
X224774Y-7100D01*
Y-7700D01*
X225074Y-8600D01*
X225674Y-9200D01*
X226274Y-9500D01*
X227174D01*
X227774Y-9200D01*
X228374Y-8600D01*
X228674Y-7700D01*
Y-7100D02*Y-7700D01*
Y-7100D02*X228374Y-6200D01*
X227774Y-5600D01*
X227174Y-5300D01*
X226274D02*X227174D01*
X234076D02*Y-9500D01*
Y-6200D02*X233476Y-5600D01*
X232876Y-5300D01*
X231976D02*X232876D01*
X231976D02*X231376Y-5600D01*
X230776Y-6200D01*
X230476Y-7100D01*
Y-7700D01*
X230776Y-8600D01*
X231376Y-9200D01*
X231976Y-9500D01*
X232876D01*
X233476Y-9200D01*
X234076Y-8600D01*
X235877Y-5300D02*Y-9500D01*
Y-7100D02*X236177Y-6200D01*
X236777Y-5600D01*
X237377Y-5300D01*
X238277D01*
X243679Y-3200D02*Y-9500D01*
Y-6200D02*X243079Y-5600D01*
X242479Y-5300D01*
X241579D02*X242479D01*
X241579D02*X240979Y-5600D01*
X240379Y-6200D01*
X240079Y-7100D01*
Y-7700D01*
X240379Y-8600D01*
X240979Y-9200D01*
X241579Y-9500D01*
X242479D01*
X243079Y-9200D01*
X243679Y-8600D01*
X248780Y-5300D02*X248180Y-5600D01*
X247580Y-6200D01*
X247280Y-7100D01*
Y-7700D01*
X247580Y-8600D01*
X248180Y-9200D01*
X248780Y-9500D01*
X249680D01*
X250280Y-9200D01*
X250880Y-8600D01*
X251180Y-7700D01*
Y-7100D02*Y-7700D01*
Y-7100D02*X250880Y-6200D01*
X250280Y-5600D01*
X249680Y-5300D01*
X248780D02*X249680D01*
X252982D02*Y-8300D01*
X253282Y-9200D01*
X253882Y-9500D01*
X254782D01*
X255382Y-9200D01*
X256282Y-8300D01*
Y-5300D02*Y-9500D01*
X258983Y-3200D02*Y-8300D01*
X259283Y-9200D01*
X259883Y-9500D01*
X260483D01*
X258083Y-5300D02*X260183D01*
X262285Y-3200D02*Y-9500D01*
X264086Y-3200D02*X264386Y-3500D01*
X264686Y-3200D01*
X264386Y-2900D01*
X264086Y-3200D01*
X264386Y-5300D02*Y-9500D01*
X266488Y-5300D02*Y-9500D01*
Y-6500D02*X267388Y-5600D01*
X267988Y-5300D01*
X268888D01*
X269488Y-5600D01*
X269788Y-6500D01*
Y-9500D01*
X271589Y-7100D02*X275189D01*
Y-6500D02*Y-7100D01*
Y-6500D02*X274889Y-5900D01*
X274589Y-5600D01*
X273989Y-5300D01*
X273089D02*X273989D01*
X273089D02*X272489Y-5600D01*
X271889Y-6200D01*
X271589Y-7100D01*
Y-7700D01*
X271889Y-8600D01*
X272489Y-9200D01*
X273089Y-9500D01*
X273989D01*
X274589Y-9200D01*
X275189Y-8600D01*
X278791Y-3200D02*X279091Y-3500D01*
X279391Y-3200D01*
X279091Y-2900D01*
X278791Y-3200D01*
X279091Y-5300D02*Y-9500D01*
X284492Y-6200D02*X284192Y-5600D01*
X283292Y-5300D01*
X282392D02*X283292D01*
X282392D02*X281492Y-5600D01*
X281192Y-6200D01*
X281492Y-6800D01*
X282092Y-7100D01*
X283592Y-7400D01*
X284192Y-7700D01*
X284492Y-8300D01*
Y-8600D01*
X284192Y-9200D01*
X283292Y-9500D01*
X282392D02*X283292D01*
X282392D02*X281492Y-9200D01*
X281192Y-8600D01*
X288994Y-3200D02*Y-8300D01*
X289294Y-9200D01*
X289894Y-9500D01*
X290494D01*
X288094Y-5300D02*X290194D01*
X292295Y-3200D02*Y-9500D01*
Y-6500D02*X293195Y-5600D01*
X293795Y-5300D01*
X294695D01*
X295295Y-5600D01*
X295595Y-6500D01*
Y-9500D01*
X297397Y-7100D02*X300997D01*
Y-6500D02*Y-7100D01*
Y-6500D02*X300697Y-5900D01*
X300397Y-5600D01*
X299797Y-5300D01*
X298897D02*X299797D01*
X298897D02*X298297Y-5600D01*
X297697Y-6200D01*
X297397Y-7100D01*
Y-7700D01*
X297697Y-8600D01*
X298297Y-9200D01*
X298897Y-9500D01*
X299797D01*
X300397Y-9200D01*
X300997Y-8600D01*
X308198Y-6200D02*X307598Y-5600D01*
X306998Y-5300D01*
X306098D02*X306998D01*
X306098D02*X305498Y-5600D01*
X304898Y-6200D01*
X304598Y-7100D01*
Y-7700D01*
X304898Y-8600D01*
X305498Y-9200D01*
X306098Y-9500D01*
X306998D01*
X307598Y-9200D01*
X308198Y-8600D01*
X310000Y-7100D02*X313600D01*
Y-6500D02*Y-7100D01*
Y-6500D02*X313300Y-5900D01*
X313000Y-5600D01*
X312400Y-5300D01*
X311500D02*X312400D01*
X311500D02*X310900Y-5600D01*
X310300Y-6200D01*
X310000Y-7100D01*
Y-7700D01*
X310300Y-8600D01*
X310900Y-9200D01*
X311500Y-9500D01*
X312400D01*
X313000Y-9200D01*
X313600Y-8600D01*
X315401Y-5300D02*Y-9500D01*
Y-6500D02*X316301Y-5600D01*
X316901Y-5300D01*
X317801D01*
X318401Y-5600D01*
X318701Y-6500D01*
Y-9500D01*
X321403Y-3200D02*Y-8300D01*
X321703Y-9200D01*
X322303Y-9500D01*
X322903D01*
X320503Y-5300D02*X322603D01*
X324704Y-7100D02*X328304D01*
Y-6500D02*Y-7100D01*
Y-6500D02*X328004Y-5900D01*
X327704Y-5600D01*
X327104Y-5300D01*
X326204D02*X327104D01*
X326204D02*X325604Y-5600D01*
X325004Y-6200D01*
X324704Y-7100D01*
Y-7700D01*
X325004Y-8600D01*
X325604Y-9200D01*
X326204Y-9500D01*
X327104D01*
X327704Y-9200D01*
X328304Y-8600D01*
X330106Y-5300D02*Y-9500D01*
Y-7100D02*X330406Y-6200D01*
X331006Y-5600D01*
X331606Y-5300D01*
X332506D01*
X334307Y-3200D02*Y-9500D01*
X336109Y-3200D02*X336409Y-3500D01*
X336709Y-3200D01*
X336409Y-2900D01*
X336109Y-3200D01*
X336409Y-5300D02*Y-9500D01*
X338510Y-5300D02*Y-9500D01*
Y-6500D02*X339410Y-5600D01*
X340010Y-5300D01*
X340910D01*
X341510Y-5600D01*
X341810Y-6500D01*
Y-9500D01*
X343612Y-7100D02*X347212D01*
Y-6500D02*Y-7100D01*
Y-6500D02*X346912Y-5900D01*
X346612Y-5600D01*
X346012Y-5300D01*
X345112D02*X346012D01*
X345112D02*X344512Y-5600D01*
X343912Y-6200D01*
X343612Y-7100D01*
Y-7700D01*
X343912Y-8600D01*
X344512Y-9200D01*
X345112Y-9500D01*
X346012D01*
X346612Y-9200D01*
X347212Y-8600D01*
X352313Y-5300D02*X351713Y-5600D01*
X351113Y-6200D01*
X350813Y-7100D01*
Y-7700D01*
X351113Y-8600D01*
X351713Y-9200D01*
X352313Y-9500D01*
X353213D01*
X353813Y-9200D01*
X354413Y-8600D01*
X354713Y-7700D01*
Y-7100D02*Y-7700D01*
Y-7100D02*X354413Y-6200D01*
X353813Y-5600D01*
X353213Y-5300D01*
X352313D02*X353213D01*
X358315Y-3200D02*X358915D01*
X358315D02*X357715Y-3500D01*
X357415Y-4400D01*
Y-9500D01*
X356515Y-5300D02*X358615D01*
X363416Y-3200D02*Y-8300D01*
X363716Y-9200D01*
X364316Y-9500D01*
X364916D01*
X362516Y-5300D02*X364616D01*
X366718Y-3200D02*Y-9500D01*
Y-6500D02*X367618Y-5600D01*
X368218Y-5300D01*
X369118D01*
X369718Y-5600D01*
X370018Y-6500D01*
Y-9500D01*
X371819Y-3200D02*X372119Y-3500D01*
X372419Y-3200D01*
X372119Y-2900D01*
X371819Y-3200D01*
X372119Y-5300D02*Y-9500D01*
X377521Y-6200D02*X377221Y-5600D01*
X376321Y-5300D01*
X375421D02*X376321D01*
X375421D02*X374521Y-5600D01*
X374221Y-6200D01*
X374521Y-6800D01*
X375121Y-7100D01*
X376621Y-7400D01*
X377221Y-7700D01*
X377521Y-8300D01*
Y-8600D01*
X377221Y-9200D01*
X376321Y-9500D01*
X375421D02*X376321D01*
X375421D02*X374521Y-9200D01*
X374221Y-8600D01*
X381122Y-5300D02*Y-11600D01*
Y-6200D02*X381722Y-5600D01*
X382322Y-5300D01*
X383222D01*
X383822Y-5600D01*
X384422Y-6200D01*
X384722Y-7100D01*
Y-7700D01*
X384422Y-8600D01*
X383822Y-9200D01*
X383222Y-9500D01*
X382322D02*X383222D01*
X382322D02*X381722Y-9200D01*
X381122Y-8600D01*
X390124Y-5300D02*Y-9500D01*
Y-6200D02*X389524Y-5600D01*
X388924Y-5300D01*
X388024D02*X388924D01*
X388024D02*X387424Y-5600D01*
X386824Y-6200D01*
X386524Y-7100D01*
Y-7700D01*
X386824Y-8600D01*
X387424Y-9200D01*
X388024Y-9500D01*
X388924D01*
X389524Y-9200D01*
X390124Y-8600D01*
X392825Y-3200D02*Y-8300D01*
X393125Y-9200D01*
X393725Y-9500D01*
X394325D01*
X391925Y-5300D02*X394025D01*
X396127Y-3200D02*Y-9500D01*
Y-6500D02*X397027Y-5600D01*
X397627Y-5300D01*
X398527D01*
X399127Y-5600D01*
X399427Y-6500D01*
Y-9500D01*
X200000Y190800D02*Y184500D01*
Y190800D02*X202100D01*
X203000Y190500D01*
X203600Y189900D01*
X203900Y189300D01*
X204200Y188400D01*
Y186900D01*
X203900Y186000D01*
X203600Y185400D01*
X203000Y184800D01*
X202100Y184500D01*
X200000D02*X202100D01*
X209601Y188700D02*Y184500D01*
Y187800D02*X209001Y188400D01*
X208401Y188700D01*
X207501D02*X208401D01*
X207501D02*X206901Y188400D01*
X206301Y187800D01*
X206001Y186900D01*
Y186300D01*
X206301Y185400D01*
X206901Y184800D01*
X207501Y184500D01*
X208401D01*
X209001Y184800D01*
X209601Y185400D01*
X212303Y190800D02*Y185700D01*
X212603Y184800D01*
X213203Y184500D01*
X213803D01*
X211403Y188700D02*X213503D01*
X215604Y186900D02*X219204D01*
Y187500D02*Y186900D01*
Y187500D02*X218904Y188100D01*
X218604Y188400D01*
X218004Y188700D01*
X217104D02*X218004D01*
X217104D02*X216504Y188400D01*
X215904Y187800D01*
X215604Y186900D01*
Y186300D01*
X215904Y185400D01*
X216504Y184800D01*
X217104Y184500D01*
X218004D01*
X218604Y184800D01*
X219204Y185400D01*
X221306Y188700D02*X221006Y188400D01*
X221306Y188100D01*
X221606Y188400D01*
X221306Y188700D01*
Y185100D02*X221006Y184800D01*
X221306Y184500D01*
X221606Y184800D01*
X221306Y185100D01*
X227307Y190800D02*Y184500D01*
X225207Y190800D02*X229407D01*
X231209D02*Y184500D01*
Y187500D02*X232109Y188400D01*
X232709Y188700D01*
X233609D01*
X234209Y188400D01*
X234509Y187500D01*
Y184500D01*
X236310Y188700D02*Y185700D01*
X236610Y184800D01*
X237210Y184500D01*
X238110D01*
X238710Y184800D01*
X239610Y185700D01*
Y188700D02*Y184500D01*
X246212Y190800D02*Y186000D01*
X245912Y185100D01*
X245612Y184800D01*
X245012Y184500D01*
X244412D02*X245012D01*
X244412D02*X243812Y184800D01*
X243512Y185100D01*
X243212Y186000D01*
Y186600D02*Y186000D01*
X248013Y188700D02*Y185700D01*
X248313Y184800D01*
X248913Y184500D01*
X249813D01*
X250413Y184800D01*
X251313Y185700D01*
Y188700D02*Y184500D01*
X253115Y190800D02*Y184500D01*
X256716Y189600D02*X257316Y189900D01*
X258216Y190800D01*
Y184500D01*
X260618Y190800D02*X263918D01*
X262118Y188400D01*
X263018D01*
X263618Y188100D01*
X263918Y187800D01*
X264218Y186900D01*
Y186300D01*
X263918Y185400D01*
X263318Y184800D01*
X262418Y184500D01*
X261518D02*X262418D01*
X261518D02*X260618Y184800D01*
X260318Y185100D01*
X260018Y185700D01*
X268119Y189600D02*Y189300D01*
Y189600D02*X268419Y190200D01*
X268719Y190500D01*
X269319Y190800D01*
X270519D01*
X271119Y190500D01*
X271419Y190200D01*
X271719Y189600D01*
Y189000D01*
X271419Y188400D01*
X270819Y187500D01*
X267819Y184500D01*
X272019D01*
X273821Y189600D02*X274421Y189900D01*
X275321Y190800D01*
Y184500D01*
X277422Y188700D02*X277122Y188400D01*
X277422Y188100D01*
X277722Y188400D01*
X277422Y188700D01*
Y185100D02*X277122Y184800D01*
X277422Y184500D01*
X277722Y184800D01*
X277422Y185100D01*
X279824Y189600D02*Y189300D01*
Y189600D02*X280124Y190200D01*
X280424Y190500D01*
X281024Y190800D01*
X282224D01*
X282824Y190500D01*
X283124Y190200D01*
X283424Y189600D01*
Y189000D01*
X283124Y188400D01*
X282524Y187500D01*
X279524Y184500D01*
X283724D01*
X285525Y189600D02*X286125Y189900D01*
X287025Y190800D01*
Y184500D01*
X289127Y188700D02*X288827Y188400D01*
X289127Y188100D01*
X289427Y188400D01*
X289127Y188700D01*
Y185100D02*X288827Y184800D01*
X289127Y184500D01*
X289427Y184800D01*
X289127Y185100D01*
X294228Y190800D02*X291228Y186600D01*
X295728D01*
X294228Y190800D02*Y184500D01*
X299030Y190800D02*X298130Y190500D01*
X297830Y189900D01*
Y189300D01*
X298130Y188700D01*
X298730Y188400D01*
X299930Y188100D01*
X300830Y187800D01*
X301430Y187200D01*
X301730Y186600D01*
Y185700D01*
X301430Y185100D01*
X301130Y184800D01*
X300230Y184500D01*
X299030D02*X300230D01*
X299030D02*X298130Y184800D01*
X297830Y185100D01*
X297530Y185700D01*
Y186600D02*Y185700D01*
Y186600D02*X297830Y187200D01*
X298430Y187800D01*
X299330Y188100D01*
X300530Y188400D01*
X301130Y188700D01*
X301430Y189300D01*
Y189900D02*Y189300D01*
Y189900D02*X301130Y190500D01*
X300230Y190800D01*
X299030D02*X300230D01*
X305631Y189600D02*Y189300D01*
Y189600D02*X305931Y190200D01*
X306231Y190500D01*
X306831Y190800D01*
X308031D01*
X308631Y190500D01*
X308931Y190200D01*
X309231Y189600D01*
Y189000D01*
X308931Y188400D01*
X308331Y187500D01*
X305331Y184500D01*
X309531D01*
X313133Y190800D02*X312233Y190500D01*
X311633Y189600D01*
X311333Y188100D01*
Y187200D01*
X311633Y185700D01*
X312233Y184800D01*
X313133Y184500D01*
X313733D01*
X314633Y184800D01*
X315233Y185700D01*
X315533Y187200D01*
Y188100D02*Y187200D01*
Y188100D02*X315233Y189600D01*
X314633Y190500D01*
X313733Y190800D01*
X313133D02*X313733D01*
X317334Y189600D02*X317934Y189900D01*
X318834Y190800D01*
Y184500D01*
X324836Y190800D02*X321836Y184500D01*
X320636Y190800D02*X324836D01*
X328437D02*Y186300D01*
X328737Y185400D01*
X329337Y184800D01*
X330237Y184500D01*
X330837D01*
X331737Y184800D01*
X332337Y185400D01*
X332637Y186300D01*
Y190800D02*Y186300D01*
X336539Y190800D02*Y184500D01*
X334439Y190800D02*X338639D01*
X344940Y189300D02*X344640Y189900D01*
X344040Y190500D01*
X343440Y190800D01*
X342240D02*X343440D01*
X342240D02*X341640Y190500D01*
X341040Y189900D01*
X340740Y189300D01*
X340440Y188400D01*
Y186900D01*
X340740Y186000D01*
X341040Y185400D01*
X341640Y184800D01*
X342240Y184500D01*
X343440D01*
X344040Y184800D01*
X344640Y185400D01*
X344940Y186000D01*
X202400Y205800D02*X200000Y199500D01*
X202400Y205800D02*X204800Y199500D01*
X200900Y201600D02*X203900D01*
X206601Y203700D02*Y200700D01*
X206901Y199800D01*
X207501Y199500D01*
X208401D01*
X209001Y199800D01*
X209901Y200700D01*
Y203700D02*Y199500D01*
X212603Y205800D02*Y200700D01*
X212903Y199800D01*
X213503Y199500D01*
X214103D01*
X211703Y203700D02*X213803D01*
X215904Y205800D02*Y199500D01*
Y202500D02*X216804Y203400D01*
X217404Y203700D01*
X218304D01*
X218904Y203400D01*
X219204Y202500D01*
Y199500D01*
X222506Y203700D02*X221906Y203400D01*
X221306Y202800D01*
X221006Y201900D01*
Y201300D01*
X221306Y200400D01*
X221906Y199800D01*
X222506Y199500D01*
X223406D01*
X224006Y199800D01*
X224606Y200400D01*
X224906Y201300D01*
Y201900D02*Y201300D01*
Y201900D02*X224606Y202800D01*
X224006Y203400D01*
X223406Y203700D01*
X222506D02*X223406D01*
X226707D02*Y199500D01*
Y201900D02*X227007Y202800D01*
X227607Y203400D01*
X228207Y203700D01*
X229107D01*
X231209D02*X230909Y203400D01*
X231209Y203100D01*
X231509Y203400D01*
X231209Y203700D01*
Y200100D02*X230909Y199800D01*
X231209Y199500D01*
X231509Y199800D01*
X231209Y200100D01*
X235110Y205800D02*Y199500D01*
Y205800D02*X237810D01*
X238710Y205500D01*
X239010Y205200D01*
X239310Y204600D01*
Y204000D01*
X239010Y203400D01*
X238710Y203100D01*
X237810Y202800D01*
X235110D02*X237810D01*
X238710Y202500D01*
X239010Y202200D01*
X239310Y201600D01*
Y200700D01*
X239010Y200100D01*
X238710Y199800D01*
X237810Y199500D01*
X235110D02*X237810D01*
X241112Y201900D02*X244712D01*
Y202500D02*Y201900D01*
Y202500D02*X244412Y203100D01*
X244112Y203400D01*
X243512Y203700D01*
X242612D02*X243512D01*
X242612D02*X242012Y203400D01*
X241412Y202800D01*
X241112Y201900D01*
Y201300D01*
X241412Y200400D01*
X242012Y199800D01*
X242612Y199500D01*
X243512D01*
X244112Y199800D01*
X244712Y200400D01*
X246513Y203700D02*Y199500D01*
Y201900D02*X246813Y202800D01*
X247413Y203400D01*
X248013Y203700D01*
X248913D01*
X251615Y205800D02*Y200700D01*
X251915Y199800D01*
X252515Y199500D01*
X253115D01*
X250715Y203700D02*X252815D01*
X258816Y205800D02*Y199500D01*
X256716Y205800D02*X260916D01*
X262718D02*X263018Y205500D01*
X263318Y205800D01*
X263018Y206100D01*
X262718Y205800D01*
X263018Y203700D02*Y199500D01*
X265119Y203700D02*Y199500D01*
Y202500D02*X266019Y203400D01*
X266619Y203700D01*
X267519D01*
X268119Y203400D01*
X268419Y202500D01*
Y199500D01*
Y202500D02*X269319Y203400D01*
X269919Y203700D01*
X270819D01*
X271419Y203400D01*
X271719Y202500D01*
Y199500D01*
X273521Y203700D02*Y199500D01*
Y202500D02*X274421Y203400D01*
X275021Y203700D01*
X275921D01*
X276521Y203400D01*
X276821Y202500D01*
Y199500D01*
Y202500D02*X277721Y203400D01*
X278321Y203700D01*
X279221D01*
X279821Y203400D01*
X280121Y202500D01*
Y199500D01*
X281922Y201900D02*X285522D01*
Y202500D02*Y201900D01*
Y202500D02*X285222Y203100D01*
X284922Y203400D01*
X284322Y203700D01*
X283422D02*X284322D01*
X283422D02*X282822Y203400D01*
X282222Y202800D01*
X281922Y201900D01*
Y201300D01*
X282222Y200400D01*
X282822Y199800D01*
X283422Y199500D01*
X284322D01*
X284922Y199800D01*
X285522Y200400D01*
X287324Y203700D02*Y199500D01*
Y201900D02*X287624Y202800D01*
X288224Y203400D01*
X288824Y203700D01*
X289724D01*
X291525D02*Y199500D01*
Y202500D02*X292425Y203400D01*
X293025Y203700D01*
X293925D01*
X294525Y203400D01*
X294825Y202500D01*
Y199500D01*
Y202500D02*X295725Y203400D01*
X296325Y203700D01*
X297225D01*
X297825Y203400D01*
X298125Y202500D01*
Y199500D01*
X303527Y203700D02*Y199500D01*
Y202800D02*X302927Y203400D01*
X302327Y203700D01*
X301427D02*X302327D01*
X301427D02*X300827Y203400D01*
X300227Y202800D01*
X299927Y201900D01*
Y201300D01*
X300227Y200400D01*
X300827Y199800D01*
X301427Y199500D01*
X302327D01*
X302927Y199800D01*
X303527Y200400D01*
X305328Y203700D02*Y199500D01*
Y202500D02*X306228Y203400D01*
X306828Y203700D01*
X307728D01*
X308328Y203400D01*
X308628Y202500D01*
Y199500D01*
X202100Y220800D02*Y214500D01*
X200000Y220800D02*X204200D01*
X206001D02*X206301Y220500D01*
X206601Y220800D01*
X206301Y221100D01*
X206001Y220800D01*
X206301Y218700D02*Y214500D01*
X209303Y220800D02*Y215700D01*
X209603Y214800D01*
X210203Y214500D01*
X210803D01*
X208403Y218700D02*X210503D01*
X212604Y220800D02*Y214500D01*
X214406Y216900D02*X218006D01*
Y217500D02*Y216900D01*
Y217500D02*X217706Y218100D01*
X217406Y218400D01*
X216806Y218700D01*
X215906D02*X216806D01*
X215906D02*X215306Y218400D01*
X214706Y217800D01*
X214406Y216900D01*
Y216300D01*
X214706Y215400D01*
X215306Y214800D01*
X215906Y214500D01*
X216806D01*
X217406Y214800D01*
X218006Y215400D01*
X220107Y218700D02*X219807Y218400D01*
X220107Y218100D01*
X220407Y218400D01*
X220107Y218700D01*
Y215100D02*X219807Y214800D01*
X220107Y214500D01*
X220407Y214800D01*
X220107Y215100D01*
X224309Y219600D02*Y219300D01*
Y219600D02*X224609Y220200D01*
X224909Y220500D01*
X225509Y220800D01*
X226709D01*
X227309Y220500D01*
X227609Y220200D01*
X227909Y219600D01*
Y219000D01*
X227609Y218400D01*
X227009Y217500D01*
X224009Y214500D01*
X228209D01*
X233610Y219900D02*X233310Y220500D01*
X232410Y220800D01*
X231810D02*X232410D01*
X231810D02*X230910Y220500D01*
X230310Y219600D01*
X230010Y218100D01*
Y216600D01*
X230310Y215400D01*
X230910Y214800D01*
X231810Y214500D01*
X232110D01*
X233010Y214800D01*
X233610Y215400D01*
X233910Y216300D01*
Y216600D02*Y216300D01*
Y216600D02*X233610Y217500D01*
X233010Y218100D01*
X232110Y218400D01*
X231810D02*X232110D01*
X231810D02*X230910Y218100D01*
X230310Y217500D01*
X230010Y216600D01*
X236012Y215100D02*X235712Y214800D01*
X236012Y214500D01*
X236312Y214800D01*
X236012Y215100D01*
X239913Y220800D02*X239013Y220500D01*
X238413Y219600D01*
X238113Y218100D01*
Y217200D01*
X238413Y215700D01*
X239013Y214800D01*
X239913Y214500D01*
X240513D01*
X241413Y214800D01*
X242013Y215700D01*
X242313Y217200D01*
Y218100D02*Y217200D01*
Y218100D02*X242013Y219600D01*
X241413Y220500D01*
X240513Y220800D01*
X239913D02*X240513D01*
X245915D02*X245015Y220500D01*
X244415Y219600D01*
X244115Y218100D01*
Y217200D01*
X244415Y215700D01*
X245015Y214800D01*
X245915Y214500D01*
X246515D01*
X247415Y214800D01*
X248015Y215700D01*
X248315Y217200D01*
Y218100D02*Y217200D01*
Y218100D02*X248015Y219600D01*
X247415Y220500D01*
X246515Y220800D01*
X245915D02*X246515D01*
X253716Y219900D02*X253416Y220500D01*
X252516Y220800D01*
X251916D02*X252516D01*
X251916D02*X251016Y220500D01*
X250416Y219600D01*
X250116Y218100D01*
Y216600D01*
X250416Y215400D01*
X251016Y214800D01*
X251916Y214500D01*
X252216D01*
X253116Y214800D01*
X253716Y215400D01*
X254016Y216300D01*
Y216600D02*Y216300D01*
Y216600D02*X253716Y217500D01*
X253116Y218100D01*
X252216Y218400D01*
X251916D02*X252216D01*
X251916D02*X251016Y218100D01*
X250416Y217500D01*
X250116Y216600D01*
X256118Y215100D02*X255818Y214800D01*
X256118Y214500D01*
X256418Y214800D01*
X256118Y215100D01*
X260019Y220800D02*X259119Y220500D01*
X258519Y219600D01*
X258219Y218100D01*
Y217200D01*
X258519Y215700D01*
X259119Y214800D01*
X260019Y214500D01*
X260619D01*
X261519Y214800D01*
X262119Y215700D01*
X262419Y217200D01*
Y218100D02*Y217200D01*
Y218100D02*X262119Y219600D01*
X261519Y220500D01*
X260619Y220800D01*
X260019D02*X260619D01*
X266021D02*X265121Y220500D01*
X264521Y219600D01*
X264221Y218100D01*
Y217200D01*
X264521Y215700D01*
X265121Y214800D01*
X266021Y214500D01*
X266621D01*
X267521Y214800D01*
X268121Y215700D01*
X268421Y217200D01*
Y218100D02*Y217200D01*
Y218100D02*X268121Y219600D01*
X267521Y220500D01*
X266621Y220800D01*
X266021D02*X266621D01*
X270522Y215100D02*X270222Y214800D01*
X270522Y214500D01*
X270822Y214800D01*
X270522Y215100D01*
X274424Y220800D02*X273524Y220500D01*
X272924Y219600D01*
X272624Y218100D01*
Y217200D01*
X272924Y215700D01*
X273524Y214800D01*
X274424Y214500D01*
X275024D01*
X275924Y214800D01*
X276524Y215700D01*
X276824Y217200D01*
Y218100D02*Y217200D01*
Y218100D02*X276524Y219600D01*
X275924Y220500D01*
X275024Y220800D01*
X274424D02*X275024D01*
X278625Y219600D02*X279225Y219900D01*
X280125Y220800D01*
Y214500D01*
X282227Y215100D02*X281927Y214800D01*
X282227Y214500D01*
X282527Y214800D01*
X282227Y215100D01*
X286128Y220800D02*X285228Y220500D01*
X284628Y219600D01*
X284328Y218100D01*
Y217200D01*
X284628Y215700D01*
X285228Y214800D01*
X286128Y214500D01*
X286728D01*
X287628Y214800D01*
X288228Y215700D01*
X288528Y217200D01*
Y218100D02*Y217200D01*
Y218100D02*X288228Y219600D01*
X287628Y220500D01*
X286728Y220800D01*
X286128D02*X286728D01*
X290330Y219600D02*X290930Y219900D01*
X291830Y220800D01*
Y214500D01*
X295431Y217200D02*X300831D01*
X304433Y220800D02*Y214500D01*
Y220800D02*X308333D01*
X304433Y217800D02*X306833D01*
X313734Y218700D02*Y214500D01*
Y217800D02*X313134Y218400D01*
X312534Y218700D01*
X311634D02*X312534D01*
X311634D02*X311034Y218400D01*
X310434Y217800D01*
X310134Y216900D01*
Y216300D01*
X310434Y215400D01*
X311034Y214800D01*
X311634Y214500D01*
X312534D01*
X313134Y214800D01*
X313734Y215400D01*
X315536Y220800D02*Y214500D01*
Y217800D02*X316136Y218400D01*
X316736Y218700D01*
X317636D01*
X318236Y218400D01*
X318836Y217800D01*
X319136Y216900D01*
Y216300D01*
X318836Y215400D01*
X318236Y214800D01*
X317636Y214500D01*
X316736D02*X317636D01*
X316736D02*X316136Y214800D01*
X315536Y215400D01*
X320937Y218700D02*Y214500D01*
Y216900D02*X321237Y217800D01*
X321837Y218400D01*
X322437Y218700D01*
X323337D01*
X325139Y220800D02*X325439Y220500D01*
X325739Y220800D01*
X325439Y221100D01*
X325139Y220800D01*
X325439Y218700D02*Y214500D01*
X331140Y217800D02*X330540Y218400D01*
X329940Y218700D01*
X329040D02*X329940D01*
X329040D02*X328440Y218400D01*
X327840Y217800D01*
X327540Y216900D01*
Y216300D01*
X327840Y215400D01*
X328440Y214800D01*
X329040Y214500D01*
X329940D01*
X330540Y214800D01*
X331140Y215400D01*
X336542Y218700D02*Y214500D01*
Y217800D02*X335942Y218400D01*
X335342Y218700D01*
X334442D02*X335342D01*
X334442D02*X333842Y218400D01*
X333242Y217800D01*
X332942Y216900D01*
Y216300D01*
X333242Y215400D01*
X333842Y214800D01*
X334442Y214500D01*
X335342D01*
X335942Y214800D01*
X336542Y215400D01*
X339243Y220800D02*Y215700D01*
X339543Y214800D01*
X340143Y214500D01*
X340743D01*
X338343Y218700D02*X340443D01*
X342545Y220800D02*X342845Y220500D01*
X343145Y220800D01*
X342845Y221100D01*
X342545Y220800D01*
X342845Y218700D02*Y214500D01*
X346446Y218700D02*X345846Y218400D01*
X345246Y217800D01*
X344946Y216900D01*
Y216300D01*
X345246Y215400D01*
X345846Y214800D01*
X346446Y214500D01*
X347346D01*
X347946Y214800D01*
X348546Y215400D01*
X348846Y216300D01*
Y216900D02*Y216300D01*
Y216900D02*X348546Y217800D01*
X347946Y218400D01*
X347346Y218700D01*
X346446D02*X347346D01*
X350648D02*Y214500D01*
Y217500D02*X351548Y218400D01*
X352148Y218700D01*
X353048D01*
X353648Y218400D01*
X353948Y217500D01*
Y214500D01*
X357549Y220800D02*Y214500D01*
Y220800D02*X359649D01*
X360549Y220500D01*
X361149Y219900D01*
X361449Y219300D01*
X361749Y218400D01*
Y216900D01*
X361449Y216000D01*
X361149Y215400D01*
X360549Y214800D01*
X359649Y214500D01*
X357549D02*X359649D01*
X363551Y218700D02*Y214500D01*
Y216900D02*X363851Y217800D01*
X364451Y218400D01*
X365051Y218700D01*
X365951D01*
X371352D02*Y214500D01*
Y217800D02*X370752Y218400D01*
X370152Y218700D01*
X369252D02*X370152D01*
X369252D02*X368652Y218400D01*
X368052Y217800D01*
X367752Y216900D01*
Y216300D01*
X368052Y215400D01*
X368652Y214800D01*
X369252Y214500D01*
X370152D01*
X370752Y214800D01*
X371352Y215400D01*
X373154Y218700D02*X374354Y214500D01*
X375554Y218700D02*X374354Y214500D01*
X375554Y218700D02*X376754Y214500D01*
X377954Y218700D02*X376754Y214500D01*
X379755Y220800D02*X380055Y220500D01*
X380355Y220800D01*
X380055Y221100D01*
X379755Y220800D01*
X380055Y218700D02*Y214500D01*
X382157Y218700D02*Y214500D01*
Y217500D02*X383057Y218400D01*
X383657Y218700D01*
X384557D01*
X385157Y218400D01*
X385457Y217500D01*
Y214500D01*
X390858Y218700D02*Y213900D01*
X390558Y213000D01*
X390258Y212700D01*
X389658Y212400D01*
X388758D02*X389658D01*
X388758D02*X388158Y212700D01*
X390858Y217800D02*X390258Y218400D01*
X389658Y218700D01*
X388758D02*X389658D01*
X388758D02*X388158Y218400D01*
X387558Y217800D01*
X387258Y216900D01*
Y216300D01*
X387558Y215400D01*
X388158Y214800D01*
X388758Y214500D01*
X389658D01*
X390258Y214800D01*
X390858Y215400D01*
M02*
