M48
INCH
T11C0.020
T17C0.038
T18C0.040
T19C0.052
T20C0.030
T21C0.028
T22C0.032
T23C0.035
%
T11
X013000Y012500
X011000Y012500
X013000Y005500
X013000Y007500
X060000Y005500
X060000Y007500
X060000Y012500
X058000Y012500
X043500Y005500
X043500Y007500
X050000Y014500
X050000Y012500
X053500Y006500
X053500Y008500
X043500Y012500
X041500Y012500
X029500Y005500
X029500Y007500
X029500Y012500
X027500Y012500
X019500Y012500
X019500Y014500
X023000Y006500
X023000Y008500
T21
X013000Y011500
X012000Y011500
X011000Y011500
X010000Y011500
X010000Y008500
X060000Y008500
X057000Y008500
X058000Y008500
X059000Y008500
X060000Y011500
X059000Y011500
X058000Y011500
X057000Y011500
X040500Y008500
X041500Y008500
X042500Y008500
X043500Y008500
X043500Y011500
X042500Y011500
X041500Y011500
X040500Y011500
X049000Y008500
X050000Y008500
X051000Y008500
X052000Y008500
X052000Y011500
X051000Y011500
X050000Y011500
X049000Y011500
X026500Y008500
X027500Y008500
X028500Y008500
X029500Y008500
X029500Y011500
X028500Y011500
X027500Y011500
X026500Y011500
X021500Y011500
X020500Y011500
X019500Y011500
X018500Y011500
X011000Y008500
X012000Y008500
X013000Y008500
X018500Y008500
X019500Y008500
X020500Y008500
X021500Y008500
T20
X007023Y015000
X009976Y015000
X007500Y011476
X038000Y008523
X038000Y011476
X037523Y015000
X040476Y015000
X007500Y008523
T22
X057106Y006500
X057893Y006500
X055000Y012500
X047500Y002500
X045750Y003250
X047500Y006500
X047500Y008000
X045750Y007250
X047500Y012000
X051000Y012500
X026606Y006500
X027393Y006500
X024500Y012500
X020500Y012500
X017000Y012000
X017000Y002500
X015250Y003250
X017000Y006500
X017000Y008000
X015250Y007250
T23
X035250Y001500
X001250Y003750
T17
X001500Y001500
X002500Y001500
X003500Y001500
X004500Y001500
X005500Y001500
X006500Y001500
X007500Y001500
X008500Y001500
T18
X004000Y008000
X005750Y008000
X003500Y006250
X004000Y012000
X005750Y012000
X016000Y015000
X012000Y015000
X016000Y012000
X014500Y012000
X007500Y006250
X055750Y008000
X055750Y012000
X045000Y008000
X045000Y012000
X048500Y004500
X048500Y006500
X052500Y004500
X052500Y006500
X046500Y008000
X046500Y015000
X042500Y015000
X046500Y012000
X034500Y008000
X036250Y008000
X034000Y006250
X038000Y006250
X034500Y012000
X036250Y012000
X025250Y008000
X025250Y012000
X022000Y006500
X018000Y004500
X022000Y004500
X018000Y006500
X016000Y008000
X014500Y008000
T19
X001031Y013515
X003000Y014500
X059718Y013515
X055781Y013515
X057750Y014500
X033500Y014500
X004968Y013515
X031531Y013515
X035468Y013515
X025281Y013515
X029218Y013515
X027250Y014500
M30
