G04 start of page 8 for group -4079 idx -4079 *
G04 Title: 36.006.01.01.01, topsilk *
G04 Creator: pcb 20100929 *
G04 CreationDate: Wed Mar 18 07:56:07 2015 UTC *
G04 For: bert *
G04 Format: Gerber/RS-274X *
G04 PCB-Dimensions: 260000 115000 *
G04 PCB-Coordinate-Origin: lower left *
%MOIN*%
%FSLAX25Y25*%
%LNFRONTSILK*%
%ADD11C,0.0100*%
%ADD32C,0.0000*%
%ADD33C,0.0050*%
G54D11*X0Y0D02*X260000D01*
Y115000D01*
X0D01*
Y0D01*
X230532Y78957D02*X234468D01*
X230532Y86043D02*X234468D01*
G54D32*X223226Y78207D02*X241774D01*
X223226Y86793D02*X241774D01*
Y78207D01*
X223226Y86793D02*Y78207D01*
G54D11*X202342Y105158D02*X208626D01*
X202342D02*Y87842D01*
X205342Y84842D01*
X208626D01*
X216374Y105158D02*X222658D01*
Y87842D01*
X219658Y84842D01*
X216374D02*X219658D01*
G54D32*X201342Y106658D02*X223658D01*
X205342Y83342D02*X219658D01*
X223658Y106658D02*Y87342D01*
X219658Y83342D01*
X201342Y106658D02*Y87342D01*
X205342Y83342D01*
G54D11*X237855Y110374D02*Y93839D01*
X257145Y110374D02*Y93839D01*
X237855Y110374D02*X241300D01*
X257145D02*X253700D01*
X249300Y93839D02*X245700D01*
G54D32*X236855Y113767D02*Y90733D01*
X258145Y113767D02*Y90733D01*
X236855Y113767D02*X258145D01*
Y90733D02*X236855D01*
G54D11*X186851Y30846D02*Y24154D01*
X193149Y30846D02*Y24154D01*
X186851Y30846D02*X193149D01*
G54D32*X185473Y37342D02*X194527D01*
X185473Y17658D02*X194527D01*
Y37342D02*Y17658D01*
X185473Y37342D02*Y17658D01*
G54D11*X203149Y30846D02*Y24154D01*
X196851Y30846D02*Y24154D01*
X203149D01*
G54D32*X195473Y17658D02*X204527D01*
X195473Y37342D02*X204527D01*
X195473D02*Y17658D01*
X204527Y37342D02*Y17658D01*
G54D11*X253149Y30846D02*Y24154D01*
X246851Y30846D02*Y24154D01*
X253149D01*
G54D32*X245473Y17658D02*X254527D01*
X245473Y37342D02*X254527D01*
X245473D02*Y17658D01*
X254527Y37342D02*Y17658D01*
G54D11*X255649Y58346D02*Y51654D01*
X249351Y58346D02*Y51654D01*
X255649D01*
G54D33*X247973Y45158D02*X257027D01*
X247973Y64842D02*X257027D01*
X247973D02*Y45158D01*
X257027Y64842D02*Y45158D01*
G54D11*X228957Y31968D02*Y28032D01*
X236043Y31968D02*Y28032D01*
G54D32*X228207Y39274D02*Y20726D01*
X236793Y39274D02*Y20726D01*
X228207D02*X236793D01*
X228207Y39274D02*X236793D01*
G54D11*X225500Y55276D02*X244500D01*
Y64724D02*Y55276D01*
X225500Y64724D02*X244500D01*
X225500D02*Y55276D01*
G54D32*X224500Y44500D02*X245500D01*
Y75500D02*Y44500D01*
X224500Y75500D02*X245500D01*
X224500D02*Y44500D01*
G54D11*X227500Y56900D02*G75*G03X227500Y56900I0J100D01*G01*
X218957Y14468D02*Y10532D01*
X226043Y14468D02*Y10532D01*
G54D32*X218207Y21774D02*Y3226D01*
X226793Y21774D02*Y3226D01*
X218207D02*X226793D01*
X218207Y21774D02*X226793D01*
G54D11*X211457Y61968D02*Y58032D01*
X218543Y61968D02*Y58032D01*
G54D32*X210707Y69274D02*Y50726D01*
X219293Y69274D02*Y50726D01*
X210707D02*X219293D01*
X210707Y69274D02*X219293D01*
G54D11*X185500Y55276D02*X204500D01*
Y64724D02*Y55276D01*
X185500Y64724D02*X204500D01*
X185500D02*Y55276D01*
G54D32*X184500Y44500D02*X205500D01*
Y75500D02*Y44500D01*
X184500Y75500D02*X205500D01*
X184500D02*Y44500D01*
G54D11*X187500Y56900D02*G75*G03X187500Y56900I0J100D01*G01*
X8957Y36968D02*Y33032D01*
X16043Y36968D02*Y33032D01*
G54D32*X8207Y44274D02*Y25726D01*
X16793Y44274D02*Y25726D01*
X8207D02*X16793D01*
X8207Y44274D02*X16793D01*
G54D11*X28032Y36043D02*X31968D01*
X28032Y28957D02*X31968D01*
G54D32*X20726Y36793D02*X39274D01*
X20726Y28207D02*X39274D01*
X20726D02*Y36793D01*
X39274Y28207D02*Y36793D01*
G54D11*X80000Y10000D02*Y0D01*
X0Y10000D02*X80000D01*
X0Y0D02*X80000D01*
X10000Y10000D02*Y0D01*
X0Y10000D02*Y0D01*
X88957Y14468D02*Y10532D01*
X96043Y14468D02*Y10532D01*
G54D32*X88207Y21774D02*Y3226D01*
X96793Y21774D02*Y3226D01*
X88207D02*X96793D01*
X88207Y21774D02*X96793D01*
G54D11*X8957Y79468D02*Y75532D01*
X16043Y79468D02*Y75532D01*
G54D32*X8207Y86774D02*Y68226D01*
X16793Y86774D02*Y68226D01*
X8207D02*X16793D01*
X8207Y86774D02*X16793D01*
G54D11*X18000Y55276D02*X37000D01*
Y64724D02*Y55276D01*
X18000Y64724D02*X37000D01*
X18000D02*Y55276D01*
G54D32*X17000Y44500D02*X38000D01*
Y75500D02*Y44500D01*
X17000Y75500D02*X38000D01*
X17000D02*Y44500D01*
G54D11*X20000Y56900D02*G75*G03X20000Y56900I0J100D01*G01*
X16043Y59468D02*Y55532D01*
X8957Y59468D02*Y55532D01*
G54D32*X16793Y66774D02*Y48226D01*
X8207Y66774D02*Y48226D01*
Y66774D02*X16793D01*
X8207Y48226D02*X16793D01*
G54D11*X5355Y110374D02*Y93839D01*
X24645Y110374D02*Y93839D01*
X5355Y110374D02*X8800D01*
X24645D02*X21200D01*
X16800Y93839D02*X13200D01*
G54D32*X4355Y113767D02*Y90733D01*
X25645Y113767D02*Y90733D01*
X4355Y113767D02*X25645D01*
Y90733D02*X4355D01*
G54D11*X55500Y55276D02*X74500D01*
Y64724D02*Y55276D01*
X55500Y64724D02*X74500D01*
X55500D02*Y55276D01*
G54D32*X54500Y44500D02*X75500D01*
Y75500D02*Y44500D01*
X54500Y75500D02*X75500D01*
X54500D02*Y44500D01*
G54D11*X57500Y56900D02*G75*G03X57500Y56900I0J100D01*G01*
X73149Y30846D02*Y24154D01*
X66851Y30846D02*Y24154D01*
X73149D01*
G54D32*X65473Y17658D02*X74527D01*
X65473Y37342D02*X74527D01*
X65473D02*Y17658D01*
X74527Y37342D02*Y17658D01*
G54D11*X56851Y30846D02*Y24154D01*
X63149Y30846D02*Y24154D01*
X56851Y30846D02*X63149D01*
G54D32*X55473Y37342D02*X64527D01*
X55473Y17658D02*X64527D01*
Y37342D02*Y17658D01*
X55473Y37342D02*Y17658D01*
G54D11*X41457Y74468D02*Y70532D01*
X48543Y74468D02*Y70532D01*
G54D32*X40707Y81774D02*Y63226D01*
X49293Y81774D02*Y63226D01*
X40707D02*X49293D01*
X40707Y81774D02*X49293D01*
G54D11*X41457Y51968D02*Y48032D01*
X48543Y51968D02*Y48032D01*
G54D32*X40707Y59274D02*Y40726D01*
X49293Y59274D02*Y40726D01*
X40707D02*X49293D01*
X40707Y59274D02*X49293D01*
G54D11*X138957Y79468D02*Y75532D01*
X146043Y79468D02*Y75532D01*
G54D32*X138207Y86774D02*Y68226D01*
X146793Y86774D02*Y68226D01*
X138207D02*X146793D01*
X138207Y86774D02*X146793D01*
G54D11*X138957Y36968D02*Y33032D01*
X146043Y36968D02*Y33032D01*
G54D32*X138207Y44274D02*Y25726D01*
X146793Y44274D02*Y25726D01*
X138207D02*X146793D01*
X138207Y44274D02*X146793D01*
G54D11*X123149Y30846D02*Y24154D01*
X116851Y30846D02*Y24154D01*
X123149D01*
G54D32*X115473Y17658D02*X124527D01*
X115473Y37342D02*X124527D01*
X115473D02*Y17658D01*
X124527Y37342D02*Y17658D01*
G54D11*X98957Y31968D02*Y28032D01*
X106043Y31968D02*Y28032D01*
G54D32*X98207Y39274D02*Y20726D01*
X106793Y39274D02*Y20726D01*
X98207D02*X106793D01*
X98207Y39274D02*X106793D01*
G54D11*X158032Y36043D02*X161968D01*
X158032Y28957D02*X161968D01*
G54D32*X150726Y36793D02*X169274D01*
X150726Y28207D02*X169274D01*
X150726D02*Y36793D01*
X169274Y28207D02*Y36793D01*
G54D11*X40532Y96043D02*X44468D01*
X40532Y88957D02*X44468D01*
G54D32*X33226Y96793D02*X51774D01*
X33226Y88207D02*X51774D01*
X33226D02*Y96793D01*
X51774Y88207D02*Y96793D01*
G54D11*X135355Y110374D02*Y93839D01*
X154645Y110374D02*Y93839D01*
X135355Y110374D02*X138800D01*
X154645D02*X151200D01*
X146800Y93839D02*X143200D01*
G54D32*X134355Y113767D02*Y90733D01*
X155645Y113767D02*Y90733D01*
X134355Y113767D02*X155645D01*
Y90733D02*X134355D01*
G54D11*X72342Y105158D02*X78626D01*
X72342D02*Y87842D01*
X75342Y84842D01*
X78626D01*
X86374Y105158D02*X92658D01*
Y87842D01*
X89658Y84842D01*
X86374D02*X89658D01*
G54D32*X71342Y106658D02*X93658D01*
X75342Y83342D02*X89658D01*
X93658Y106658D02*Y87342D01*
X89658Y83342D01*
X71342Y106658D02*Y87342D01*
X75342Y83342D01*
G54D11*X107855Y110374D02*Y93839D01*
X127145Y110374D02*Y93839D01*
X107855Y110374D02*X111300D01*
X127145D02*X123700D01*
X119300Y93839D02*X115700D01*
G54D32*X106855Y113767D02*Y90733D01*
X128145Y113767D02*Y90733D01*
X106855Y113767D02*X128145D01*
Y90733D02*X106855D01*
G54D11*X100532Y78957D02*X104468D01*
X100532Y86043D02*X104468D01*
G54D32*X93226Y78207D02*X111774D01*
X93226Y86793D02*X111774D01*
Y78207D01*
X93226Y86793D02*Y78207D01*
G54D11*X170532Y96043D02*X174468D01*
X170532Y88957D02*X174468D01*
G54D32*X163226Y96793D02*X181774D01*
X163226Y88207D02*X181774D01*
X163226D02*Y96793D01*
X181774Y88207D02*Y96793D01*
G54D11*X171457Y74468D02*Y70532D01*
X178543Y74468D02*Y70532D01*
G54D32*X170707Y81774D02*Y63226D01*
X179293Y81774D02*Y63226D01*
X170707D02*X179293D01*
X170707Y81774D02*X179293D01*
G54D11*X81457Y61968D02*Y58032D01*
X88543Y61968D02*Y58032D01*
G54D32*X80707Y69274D02*Y50726D01*
X89293Y69274D02*Y50726D01*
X80707D02*X89293D01*
X80707Y69274D02*X89293D01*
G54D11*X125649Y58346D02*Y51654D01*
X119351Y58346D02*Y51654D01*
X125649D01*
G54D32*X117973Y45158D02*X127027D01*
X117973Y64842D02*X127027D01*
X117973D02*Y45158D01*
X127027Y64842D02*Y45158D01*
G54D11*X146043Y59468D02*Y55532D01*
X138957Y59468D02*Y55532D01*
G54D32*X146793Y66774D02*Y48226D01*
X138207Y66774D02*Y48226D01*
Y66774D02*X146793D01*
X138207Y48226D02*X146793D01*
G54D11*X148000Y55276D02*X167000D01*
Y64724D02*Y55276D01*
X148000Y64724D02*X167000D01*
X148000D02*Y55276D01*
G54D32*X147000Y44500D02*X168000D01*
Y75500D02*Y44500D01*
X147000Y75500D02*X168000D01*
X147000D02*Y44500D01*
G54D11*X150000Y56900D02*G75*G03X150000Y56900I0J100D01*G01*
X171457Y51968D02*Y48032D01*
X178543Y51968D02*Y48032D01*
G54D32*X170707Y59274D02*Y40726D01*
X179293Y59274D02*Y40726D01*
X170707D02*X179293D01*
X170707Y59274D02*X179293D01*
G54D11*X95500Y55276D02*X114500D01*
Y64724D02*Y55276D01*
X95500Y64724D02*X114500D01*
X95500D02*Y55276D01*
G54D32*X94500Y44500D02*X115500D01*
Y75500D02*Y44500D01*
X94500Y75500D02*X115500D01*
X94500D02*Y44500D01*
G54D11*X97500Y56900D02*G75*G03X97500Y56900I0J100D01*G01*
X242500Y86500D02*X244500D01*
X245000Y86000D01*
Y85000D01*
X244500Y84500D02*X245000Y85000D01*
X243000Y84500D02*X244500D01*
X243000Y86500D02*Y82500D01*
Y84500D02*X245000Y82500D01*
X246201Y86000D02*X246701Y86500D01*
X248201D01*
X248701Y86000D01*
Y85000D01*
X246201Y82500D02*X248701Y85000D01*
X246201Y82500D02*X248701D01*
X251402Y86500D02*X251902Y86000D01*
X250402Y86500D02*X251402D01*
X249902Y86000D02*X250402Y86500D01*
X249902Y86000D02*Y83000D01*
X250402Y82500D01*
X251402Y84500D02*X251902Y84000D01*
X249902Y84500D02*X251402D01*
X250402Y82500D02*X251402D01*
X251902Y83000D01*
Y84000D02*Y83000D01*
X253103D02*X253603Y82500D01*
X253103Y86000D02*Y83000D01*
Y86000D02*X253603Y86500D01*
X254603D01*
X255103Y86000D01*
Y83000D01*
X254603Y82500D02*X255103Y83000D01*
X253603Y82500D02*X254603D01*
X253103Y83500D02*X255103Y85500D01*
X231000Y92500D02*Y90500D01*
Y92500D02*X231500Y93000D01*
X232500D01*
X233000Y92500D02*X232500Y93000D01*
X233000Y92500D02*Y91000D01*
X231000D02*X235000D01*
X233000D02*X235000Y93000D01*
X231500Y94201D02*X231000Y94701D01*
Y96201D02*Y94701D01*
Y96201D02*X231500Y96701D01*
X232500D01*
X235000Y94201D02*X232500Y96701D01*
X235000D02*Y94201D01*
X231000Y99402D02*X231500Y99902D01*
X231000Y99402D02*Y98402D01*
X231500Y97902D02*X231000Y98402D01*
X231500Y97902D02*X234500D01*
X235000Y98402D01*
X233000Y99402D02*X233500Y99902D01*
X233000Y99402D02*Y97902D01*
X235000Y99402D02*Y98402D01*
Y99402D02*X234500Y99902D01*
X233500D02*X234500D01*
X235000Y102603D02*Y101603D01*
X231000Y102103D02*X235000D01*
X232000Y101103D02*X231000Y102103D01*
X207000Y19500D02*X211000D01*
X207000Y21000D02*X207500Y21500D01*
X210500D01*
X211000Y21000D02*X210500Y21500D01*
X211000Y21000D02*Y19000D01*
X207000Y21000D02*Y19000D01*
X207500Y22701D02*X207000Y23201D01*
Y24701D02*Y23201D01*
Y24701D02*X207500Y25201D01*
X208500D01*
X211000Y22701D02*X208500Y25201D01*
X211000D02*Y22701D01*
X207000Y28402D02*Y26402D01*
X209000D01*
X208500Y26902D01*
Y27902D02*Y26902D01*
Y27902D02*X209000Y28402D01*
X210500D01*
X211000Y27902D02*X210500Y28402D01*
X211000Y27902D02*Y26902D01*
X210500Y26402D02*X211000Y26902D01*
X207500Y29603D02*X207000Y30103D01*
Y31603D02*Y30103D01*
Y31603D02*X207500Y32103D01*
X208500D01*
X211000Y29603D02*X208500Y32103D01*
X211000D02*Y29603D01*
X240500Y19500D02*X244500D01*
X240500Y21000D02*X241000Y21500D01*
X244000D01*
X244500Y21000D02*X244000Y21500D01*
X244500Y21000D02*Y19000D01*
X240500Y21000D02*Y19000D01*
X241000Y22701D02*X240500Y23201D01*
Y24701D02*Y23201D01*
Y24701D02*X241000Y25201D01*
X242000D01*
X244500Y22701D02*X242000Y25201D01*
X244500D02*Y22701D01*
X240500Y28402D02*Y26402D01*
X242500D01*
X242000Y26902D01*
Y27902D02*Y26902D01*
Y27902D02*X242500Y28402D01*
X244000D01*
X244500Y27902D02*X244000Y28402D01*
X244500Y27902D02*Y26902D01*
X244000Y26402D02*X244500Y26902D01*
X242500Y29603D02*X240500Y31603D01*
X242500Y32103D02*Y29603D01*
X240500Y31603D02*X244500D01*
X223500Y27000D02*Y25000D01*
Y27000D02*X224000Y27500D01*
X225000D01*
X225500Y27000D02*X225000Y27500D01*
X225500Y27000D02*Y25500D01*
X223500D02*X227500D01*
X225500D02*X227500Y27500D01*
X224000Y28701D02*X223500Y29201D01*
Y30701D02*Y29201D01*
Y30701D02*X224000Y31201D01*
X225000D01*
X227500Y28701D02*X225000Y31201D01*
X227500D02*Y28701D01*
X223500Y34402D02*Y32402D01*
X225500D01*
X225000Y32902D01*
Y33902D02*Y32902D01*
Y33902D02*X225500Y34402D01*
X227000D01*
X227500Y33902D02*X227000Y34402D01*
X227500Y33902D02*Y32902D01*
X227000Y32402D02*X227500Y32902D01*
Y35603D02*X225500Y37603D01*
X224000D02*X225500D01*
X223500Y37103D02*X224000Y37603D01*
X223500Y37103D02*Y36103D01*
X224000Y35603D02*X223500Y36103D01*
X224000Y35603D02*X225000D01*
X225500Y36103D01*
Y37603D02*Y36103D01*
X213500Y7000D02*Y5000D01*
Y7000D02*X214000Y7500D01*
X215000D01*
X215500Y7000D02*X215000Y7500D01*
X215500Y7000D02*Y5500D01*
X213500D02*X217500D01*
X215500D02*X217500Y7500D01*
X214000Y8701D02*X213500Y9201D01*
Y10701D02*Y9201D01*
Y10701D02*X214000Y11201D01*
X215000D01*
X217500Y8701D02*X215000Y11201D01*
X217500D02*Y8701D01*
X213500Y14402D02*Y12402D01*
X215500D01*
X215000Y12902D01*
Y13902D02*Y12902D01*
Y13902D02*X215500Y14402D01*
X217000D01*
X217500Y13902D02*X217000Y14402D01*
X217500Y13902D02*Y12902D01*
X217000Y12402D02*X217500Y12902D01*
Y17103D02*Y16103D01*
X213500Y16603D02*X217500D01*
X214500Y15603D02*X213500Y16603D01*
Y37000D02*Y35000D01*
Y37000D02*X214000Y37500D01*
X215000D01*
X215500Y37000D02*X215000Y37500D01*
X215500Y37000D02*Y35500D01*
X213500D02*X217500D01*
X215500D02*X217500Y37500D01*
X214000Y38701D02*X213500Y39201D01*
Y40701D02*Y39201D01*
Y40701D02*X214000Y41201D01*
X215000D01*
X217500Y38701D02*X215000Y41201D01*
X217500D02*Y38701D01*
X213500Y44402D02*Y42402D01*
X215500D01*
X215000Y42902D01*
Y43902D02*Y42902D01*
Y43902D02*X215500Y44402D01*
X217000D01*
X217500Y43902D02*X217000Y44402D01*
X217500Y43902D02*Y42902D01*
X217000Y42402D02*X217500Y42902D01*
X217000Y45603D02*X217500Y46103D01*
X216000Y45603D02*X217000D01*
X216000D02*X215500Y46103D01*
Y47103D02*Y46103D01*
Y47103D02*X216000Y47603D01*
X217000D01*
X217500Y47103D02*X217000Y47603D01*
X217500Y47103D02*Y46103D01*
X215000Y45603D02*X215500Y46103D01*
X214000Y45603D02*X215000D01*
X214000D02*X213500Y46103D01*
Y47103D02*Y46103D01*
Y47103D02*X214000Y47603D01*
X215000D01*
X215500Y47103D02*X215000Y47603D01*
X251000Y68000D02*X255000D01*
X251000Y69500D02*X251500Y70000D01*
X254500D01*
X255000Y69500D02*X254500Y70000D01*
X255000Y69500D02*Y67500D01*
X251000Y69500D02*Y67500D01*
X251500Y71201D02*X251000Y71701D01*
Y73201D02*Y71701D01*
Y73201D02*X251500Y73701D01*
X252500D01*
X255000Y71201D02*X252500Y73701D01*
X255000D02*Y71201D01*
X251000Y76902D02*Y74902D01*
X253000D01*
X252500Y75402D01*
Y76402D02*Y75402D01*
Y76402D02*X253000Y76902D01*
X254500D01*
X255000Y76402D02*X254500Y76902D01*
X255000Y76402D02*Y75402D01*
X254500Y74902D02*X255000Y75402D01*
X251500Y78103D02*X251000Y78603D01*
Y79603D02*Y78603D01*
Y79603D02*X251500Y80103D01*
X254500D01*
X255000Y79603D02*X254500Y80103D01*
X255000Y79603D02*Y78603D01*
X254500Y78103D02*X255000Y78603D01*
X253000Y80103D02*Y78603D01*
X210000Y76500D02*Y73000D01*
X210500Y72500D01*
X211500D01*
X212000Y73000D01*
Y76500D02*Y73000D01*
X213201Y76000D02*X213701Y76500D01*
X215201D01*
X215701Y76000D01*
Y75000D01*
X213201Y72500D02*X215701Y75000D01*
X213201Y72500D02*X215701D01*
X216902Y76500D02*X218902D01*
X216902D02*Y74500D01*
X217402Y75000D01*
X218402D01*
X218902Y74500D01*
Y73000D01*
X218402Y72500D02*X218902Y73000D01*
X217402Y72500D02*X218402D01*
X216902Y73000D02*X217402Y72500D01*
X220103Y76000D02*X220603Y76500D01*
X221603D01*
X222103Y76000D01*
Y73000D01*
X221603Y72500D02*X222103Y73000D01*
X220603Y72500D02*X221603D01*
X220103Y73000D02*X220603Y72500D01*
Y74500D02*X222103D01*
X3500Y29500D02*Y27500D01*
Y29500D02*X4000Y30000D01*
X5000D01*
X5500Y29500D02*X5000Y30000D01*
X5500Y29500D02*Y28000D01*
X3500D02*X7500D01*
X5500D02*X7500Y30000D01*
X4000Y31201D02*X3500Y31701D01*
Y33201D02*Y31701D01*
Y33201D02*X4000Y33701D01*
X5000D01*
X7500Y31201D02*X5000Y33701D01*
X7500D02*Y31201D01*
X7000Y34902D02*X7500Y35402D01*
X4000Y34902D02*X7000D01*
X4000D02*X3500Y35402D01*
Y36402D02*Y35402D01*
Y36402D02*X4000Y36902D01*
X7000D01*
X7500Y36402D02*X7000Y36902D01*
X7500Y36402D02*Y35402D01*
X6500Y34902D02*X4500Y36902D01*
X4000Y38103D02*X3500Y38603D01*
Y40103D02*Y38603D01*
Y40103D02*X4000Y40603D01*
X5000D01*
X7500Y38103D02*X5000Y40603D01*
X7500D02*Y38103D01*
X2500Y16000D02*Y12500D01*
Y16000D02*X3000Y16500D01*
X4500D01*
X5000Y16000D01*
Y12500D01*
X2500Y14500D02*X5000D01*
X6201Y16000D02*X6701Y16500D01*
X8201D01*
X8701Y16000D01*
Y15000D01*
X6201Y12500D02*X8701Y15000D01*
X6201Y12500D02*X8701D01*
X9902Y13000D02*X10402Y12500D01*
X9902Y16000D02*Y13000D01*
Y16000D02*X10402Y16500D01*
X11402D01*
X11902Y16000D01*
Y13000D01*
X11402Y12500D02*X11902Y13000D01*
X10402Y12500D02*X11402D01*
X9902Y13500D02*X11902Y15500D01*
X13603Y12500D02*X14603D01*
X14103Y16500D02*Y12500D01*
X13103Y15500D02*X14103Y16500D01*
X7500Y52000D02*Y50500D01*
X7000Y50000D02*X7500Y50500D01*
X4000Y50000D02*X7000D01*
X4000D02*X3500Y50500D01*
Y52000D02*Y50500D01*
X4000Y53201D02*X3500Y53701D01*
Y55201D02*Y53701D01*
Y55201D02*X4000Y55701D01*
X5000D01*
X7500Y53201D02*X5000Y55701D01*
X7500D02*Y53201D01*
X7000Y56902D02*X7500Y57402D01*
X4000Y56902D02*X7000D01*
X4000D02*X3500Y57402D01*
Y58402D02*Y57402D01*
Y58402D02*X4000Y58902D01*
X7000D01*
X7500Y58402D02*X7000Y58902D01*
X7500Y58402D02*Y57402D01*
X6500Y56902D02*X4500Y58902D01*
X4000Y60103D02*X3500Y60603D01*
Y62103D02*Y60603D01*
Y62103D02*X4000Y62603D01*
X5000D01*
X7500Y60103D02*X5000Y62603D01*
X7500D02*Y60103D01*
X23500Y26500D02*X25500D01*
X26000Y26000D01*
Y25000D01*
X25500Y24500D02*X26000Y25000D01*
X24000Y24500D02*X25500D01*
X24000Y26500D02*Y22500D01*
Y24500D02*X26000Y22500D01*
X27201Y26000D02*X27701Y26500D01*
X29201D01*
X29701Y26000D01*
Y25000D01*
X27201Y22500D02*X29701Y25000D01*
X27201Y22500D02*X29701D01*
X30902Y23000D02*X31402Y22500D01*
X30902Y26000D02*Y23000D01*
Y26000D02*X31402Y26500D01*
X32402D01*
X32902Y26000D01*
Y23000D01*
X32402Y22500D02*X32902Y23000D01*
X31402Y22500D02*X32402D01*
X30902Y23500D02*X32902Y25500D01*
X34103Y26000D02*X34603Y26500D01*
X35603D01*
X36103Y26000D01*
Y23000D01*
X35603Y22500D02*X36103Y23000D01*
X34603Y22500D02*X35603D01*
X34103Y23000D02*X34603Y22500D01*
Y24500D02*X36103D01*
X43500Y29500D02*Y27500D01*
Y29500D02*X44000Y30000D01*
X45000D01*
X45500Y29500D02*X45000Y30000D01*
X45500Y29500D02*Y28000D01*
X43500D02*X47500D01*
X45500D02*X47500Y30000D01*
X44000Y31201D02*X43500Y31701D01*
Y33201D02*Y31701D01*
Y33201D02*X44000Y33701D01*
X45000D01*
X47500Y31201D02*X45000Y33701D01*
X47500D02*Y31201D01*
X47000Y34902D02*X47500Y35402D01*
X44000Y34902D02*X47000D01*
X44000D02*X43500Y35402D01*
Y36402D02*Y35402D01*
Y36402D02*X44000Y36902D01*
X47000D01*
X47500Y36402D02*X47000Y36902D01*
X47500Y36402D02*Y35402D01*
X46500Y34902D02*X44500Y36902D01*
X43500Y39603D02*X44000Y40103D01*
X43500Y39603D02*Y38603D01*
X44000Y38103D02*X43500Y38603D01*
X44000Y38103D02*X47000D01*
X47500Y38603D01*
X45500Y39603D02*X46000Y40103D01*
X45500Y39603D02*Y38103D01*
X47500Y39603D02*Y38603D01*
Y39603D02*X47000Y40103D01*
X46000D02*X47000D01*
X49995Y21516D02*X53995D01*
X49995Y23016D02*X50495Y23516D01*
X53495D01*
X53995Y23016D02*X53495Y23516D01*
X53995Y23016D02*Y21016D01*
X49995Y23016D02*Y21016D01*
X50495Y24717D02*X49995Y25217D01*
Y26717D02*Y25217D01*
Y26717D02*X50495Y27217D01*
X51495D01*
X53995Y24717D02*X51495Y27217D01*
X53995D02*Y24717D01*
X53495Y28418D02*X53995Y28918D01*
X50495Y28418D02*X53495D01*
X50495D02*X49995Y28918D01*
Y29918D02*Y28918D01*
Y29918D02*X50495Y30418D01*
X53495D01*
X53995Y29918D02*X53495Y30418D01*
X53995Y29918D02*Y28918D01*
X52995Y28418D02*X50995Y30418D01*
X53995Y33119D02*Y32119D01*
X49995Y32619D02*X53995D01*
X50995Y31619D02*X49995Y32619D01*
X93500Y27000D02*Y25000D01*
Y27000D02*X94000Y27500D01*
X95000D01*
X95500Y27000D02*X95000Y27500D01*
X95500Y27000D02*Y25500D01*
X93500D02*X97500D01*
X95500D02*X97500Y27500D01*
X94000Y28701D02*X93500Y29201D01*
Y30701D02*Y29201D01*
Y30701D02*X94000Y31201D01*
X95000D01*
X97500Y28701D02*X95000Y31201D01*
X97500D02*Y28701D01*
X97000Y32402D02*X97500Y32902D01*
X94000Y32402D02*X97000D01*
X94000D02*X93500Y32902D01*
Y33902D02*Y32902D01*
Y33902D02*X94000Y34402D01*
X97000D01*
X97500Y33902D02*X97000Y34402D01*
X97500Y33902D02*Y32902D01*
X96500Y32402D02*X94500Y34402D01*
X97500Y35603D02*X95500Y37603D01*
X94000D02*X95500D01*
X93500Y37103D02*X94000Y37603D01*
X93500Y37103D02*Y36103D01*
X94000Y35603D02*X93500Y36103D01*
X94000Y35603D02*X95000D01*
X95500Y36103D01*
Y37603D02*Y36103D01*
X83500Y37000D02*Y35000D01*
Y37000D02*X84000Y37500D01*
X85000D01*
X85500Y37000D02*X85000Y37500D01*
X85500Y37000D02*Y35500D01*
X83500D02*X87500D01*
X85500D02*X87500Y37500D01*
X84000Y38701D02*X83500Y39201D01*
Y40701D02*Y39201D01*
Y40701D02*X84000Y41201D01*
X85000D01*
X87500Y38701D02*X85000Y41201D01*
X87500D02*Y38701D01*
X87000Y42402D02*X87500Y42902D01*
X84000Y42402D02*X87000D01*
X84000D02*X83500Y42902D01*
Y43902D02*Y42902D01*
Y43902D02*X84000Y44402D01*
X87000D01*
X87500Y43902D02*X87000Y44402D01*
X87500Y43902D02*Y42902D01*
X86500Y42402D02*X84500Y44402D01*
X87000Y45603D02*X87500Y46103D01*
X86000Y45603D02*X87000D01*
X86000D02*X85500Y46103D01*
Y47103D02*Y46103D01*
Y47103D02*X86000Y47603D01*
X87000D01*
X87500Y47103D02*X87000Y47603D01*
X87500Y47103D02*Y46103D01*
X85000Y45603D02*X85500Y46103D01*
X84000Y45603D02*X85000D01*
X84000D02*X83500Y46103D01*
Y47103D02*Y46103D01*
Y47103D02*X84000Y47603D01*
X85000D01*
X85500Y47103D02*X85000Y47603D01*
X83500Y7000D02*Y5000D01*
Y7000D02*X84000Y7500D01*
X85000D01*
X85500Y7000D02*X85000Y7500D01*
X85500Y7000D02*Y5500D01*
X83500D02*X87500D01*
X85500D02*X87500Y7500D01*
X84000Y8701D02*X83500Y9201D01*
Y10701D02*Y9201D01*
Y10701D02*X84000Y11201D01*
X85000D01*
X87500Y8701D02*X85000Y11201D01*
X87500D02*Y8701D01*
X87000Y12402D02*X87500Y12902D01*
X84000Y12402D02*X87000D01*
X84000D02*X83500Y12902D01*
Y13902D02*Y12902D01*
Y13902D02*X84000Y14402D01*
X87000D01*
X87500Y13902D02*X87000Y14402D01*
X87500Y13902D02*Y12902D01*
X86500Y12402D02*X84500Y14402D01*
X87500Y17103D02*Y16103D01*
X83500Y16603D02*X87500D01*
X84500Y15603D02*X83500Y16603D01*
X77000Y19500D02*X81000D01*
X77000Y21000D02*X77500Y21500D01*
X80500D01*
X81000Y21000D02*X80500Y21500D01*
X81000Y21000D02*Y19000D01*
X77000Y21000D02*Y19000D01*
X77500Y22701D02*X77000Y23201D01*
Y24701D02*Y23201D01*
Y24701D02*X77500Y25201D01*
X78500D01*
X81000Y22701D02*X78500Y25201D01*
X81000D02*Y22701D01*
X80500Y26402D02*X81000Y26902D01*
X77500Y26402D02*X80500D01*
X77500D02*X77000Y26902D01*
Y27902D02*Y26902D01*
Y27902D02*X77500Y28402D01*
X80500D01*
X81000Y27902D02*X80500Y28402D01*
X81000Y27902D02*Y26902D01*
X80000Y26402D02*X78000Y28402D01*
X77500Y29603D02*X77000Y30103D01*
Y31603D02*Y30103D01*
Y31603D02*X77500Y32103D01*
X78500D01*
X81000Y29603D02*X78500Y32103D01*
X81000D02*Y29603D01*
X153500Y26500D02*X155500D01*
X156000Y26000D01*
Y25000D01*
X155500Y24500D02*X156000Y25000D01*
X154000Y24500D02*X155500D01*
X154000Y26500D02*Y22500D01*
Y24500D02*X156000Y22500D01*
X157201Y26000D02*X157701Y26500D01*
X159201D01*
X159701Y26000D01*
Y25000D01*
X157201Y22500D02*X159701Y25000D01*
X157201Y22500D02*X159701D01*
X160902Y26500D02*X162902D01*
X160902D02*Y24500D01*
X161402Y25000D01*
X162402D01*
X162902Y24500D01*
Y23000D01*
X162402Y22500D02*X162902Y23000D01*
X161402Y22500D02*X162402D01*
X160902Y23000D02*X161402Y22500D01*
X164103Y26000D02*X164603Y26500D01*
X165603D01*
X166103Y26000D01*
Y23000D01*
X165603Y22500D02*X166103Y23000D01*
X164603Y22500D02*X165603D01*
X164103Y23000D02*X164603Y22500D01*
Y24500D02*X166103D01*
X200000Y94500D02*Y93000D01*
X199500Y92500D02*X200000Y93000D01*
X196500Y92500D02*X199500D01*
X196500D02*X196000Y93000D01*
Y94500D02*Y93000D01*
X196500Y95701D02*X196000Y96201D01*
Y97701D02*Y96201D01*
Y97701D02*X196500Y98201D01*
X197500D01*
X200000Y95701D02*X197500Y98201D01*
X200000D02*Y95701D01*
X196000Y101402D02*Y99402D01*
X198000D01*
X197500Y99902D01*
Y100902D02*Y99902D01*
Y100902D02*X198000Y101402D01*
X199500D01*
X200000Y100902D02*X199500Y101402D01*
X200000Y100902D02*Y99902D01*
X199500Y99402D02*X200000Y99902D01*
X196500Y102603D02*X196000Y103103D01*
Y104103D02*Y103103D01*
Y104103D02*X196500Y104603D01*
X199500D01*
X200000Y104103D02*X199500Y104603D01*
X200000Y104103D02*Y103103D01*
X199500Y102603D02*X200000Y103103D01*
X198000Y104603D02*Y103103D01*
X157000Y97000D02*Y95000D01*
Y97000D02*X157500Y97500D01*
X158500D01*
X159000Y97000D02*X158500Y97500D01*
X159000Y97000D02*Y95500D01*
X157000D02*X161000D01*
X159000D02*X161000Y97500D01*
X157500Y98701D02*X157000Y99201D01*
Y100701D02*Y99201D01*
Y100701D02*X157500Y101201D01*
X158500D01*
X161000Y98701D02*X158500Y101201D01*
X161000D02*Y98701D01*
X157000Y104402D02*Y102402D01*
X159000D01*
X158500Y102902D01*
Y103902D02*Y102902D01*
Y103902D02*X159000Y104402D01*
X160500D01*
X161000Y103902D02*X160500Y104402D01*
X161000Y103902D02*Y102902D01*
X160500Y102402D02*X161000Y102902D01*
X159000Y105603D02*X157000Y107603D01*
X159000Y108103D02*Y105603D01*
X157000Y107603D02*X161000D01*
X149000Y80500D02*Y77000D01*
X149500Y76500D01*
X150500D01*
X151000Y77000D01*
Y80500D02*Y77000D01*
X152201Y80000D02*X152701Y80500D01*
X154201D01*
X154701Y80000D01*
Y79000D01*
X152201Y76500D02*X154701Y79000D01*
X152201Y76500D02*X154701D01*
X155902Y80500D02*X157902D01*
X155902D02*Y78500D01*
X156402Y79000D01*
X157402D01*
X157902Y78500D01*
Y77000D01*
X157402Y76500D02*X157902Y77000D01*
X156402Y76500D02*X157402D01*
X155902Y77000D02*X156402Y76500D01*
X159603D02*X160603D01*
X160103Y80500D02*Y76500D01*
X159103Y79500D02*X160103Y80500D01*
X165500Y101500D02*X167500D01*
X168000Y101000D01*
Y100000D01*
X167500Y99500D02*X168000Y100000D01*
X166000Y99500D02*X167500D01*
X166000Y101500D02*Y97500D01*
Y99500D02*X168000Y97500D01*
X169201Y101000D02*X169701Y101500D01*
X171201D01*
X171701Y101000D01*
Y100000D01*
X169201Y97500D02*X171701Y100000D01*
X169201Y97500D02*X171701D01*
X172902Y101500D02*X174902D01*
X172902D02*Y99500D01*
X173402Y100000D01*
X174402D01*
X174902Y99500D01*
Y98000D01*
X174402Y97500D02*X174902Y98000D01*
X173402Y97500D02*X174402D01*
X172902Y98000D02*X173402Y97500D01*
X176103D02*X178603Y100000D01*
Y101500D02*Y100000D01*
X176103Y101500D02*X178603D01*
X167500Y86500D02*X169500D01*
X170000Y86000D01*
Y85000D01*
X169500Y84500D02*X170000Y85000D01*
X168000Y84500D02*X169500D01*
X168000Y86500D02*Y82500D01*
Y84500D02*X170000Y82500D01*
X171201Y86000D02*X171701Y86500D01*
X173201D01*
X173701Y86000D01*
Y85000D01*
X171201Y82500D02*X173701Y85000D01*
X171201Y82500D02*X173701D01*
X174902Y86500D02*X176902D01*
X174902D02*Y84500D01*
X175402Y85000D01*
X176402D01*
X176902Y84500D01*
Y83000D01*
X176402Y82500D02*X176902Y83000D01*
X175402Y82500D02*X176402D01*
X174902Y83000D02*X175402Y82500D01*
X178103Y86500D02*X180103D01*
X178103D02*Y84500D01*
X178603Y85000D01*
X179603D01*
X180103Y84500D01*
Y83000D01*
X179603Y82500D02*X180103Y83000D01*
X178603Y82500D02*X179603D01*
X178103Y83000D02*X178603Y82500D01*
X186500Y80500D02*Y77000D01*
X187000Y76500D01*
X188000D01*
X188500Y77000D01*
Y80500D02*Y77000D01*
X189701Y80000D02*X190201Y80500D01*
X191701D01*
X192201Y80000D01*
Y79000D01*
X189701Y76500D02*X192201Y79000D01*
X189701Y76500D02*X192201D01*
X193402Y80500D02*X195402D01*
X193402D02*Y78500D01*
X193902Y79000D01*
X194902D01*
X195402Y78500D01*
Y77000D01*
X194902Y76500D02*X195402Y77000D01*
X193902Y76500D02*X194902D01*
X193402Y77000D02*X193902Y76500D01*
X196603Y80000D02*X197103Y80500D01*
X198603D01*
X199103Y80000D01*
Y79000D01*
X196603Y76500D02*X199103Y79000D01*
X196603Y76500D02*X199103D01*
X37500Y86500D02*X39500D01*
X40000Y86000D01*
Y85000D01*
X39500Y84500D02*X40000Y85000D01*
X38000Y84500D02*X39500D01*
X38000Y86500D02*Y82500D01*
Y84500D02*X40000Y82500D01*
X41201Y86000D02*X41701Y86500D01*
X43201D01*
X43701Y86000D01*
Y85000D01*
X41201Y82500D02*X43701Y85000D01*
X41201Y82500D02*X43701D01*
X44902Y83000D02*X45402Y82500D01*
X44902Y86000D02*Y83000D01*
Y86000D02*X45402Y86500D01*
X46402D01*
X46902Y86000D01*
Y83000D01*
X46402Y82500D02*X46902Y83000D01*
X45402Y82500D02*X46402D01*
X44902Y83500D02*X46902Y85500D01*
X48103Y86500D02*X50103D01*
X48103D02*Y84500D01*
X48603Y85000D01*
X49603D01*
X50103Y84500D01*
Y83000D01*
X49603Y82500D02*X50103Y83000D01*
X48603Y82500D02*X49603D01*
X48103Y83000D02*X48603Y82500D01*
X35500Y101500D02*X37500D01*
X38000Y101000D01*
Y100000D01*
X37500Y99500D02*X38000Y100000D01*
X36000Y99500D02*X37500D01*
X36000Y101500D02*Y97500D01*
Y99500D02*X38000Y97500D01*
X39201Y101000D02*X39701Y101500D01*
X41201D01*
X41701Y101000D01*
Y100000D01*
X39201Y97500D02*X41701Y100000D01*
X39201Y97500D02*X41701D01*
X42902Y98000D02*X43402Y97500D01*
X42902Y101000D02*Y98000D01*
Y101000D02*X43402Y101500D01*
X44402D01*
X44902Y101000D01*
Y98000D01*
X44402Y97500D02*X44902Y98000D01*
X43402Y97500D02*X44402D01*
X42902Y98500D02*X44902Y100500D01*
X46103Y97500D02*X48603Y100000D01*
Y101500D02*Y100000D01*
X46103Y101500D02*X48603D01*
X19000Y80500D02*Y77000D01*
X19500Y76500D01*
X20500D01*
X21000Y77000D01*
Y80500D02*Y77000D01*
X22201Y80000D02*X22701Y80500D01*
X24201D01*
X24701Y80000D01*
Y79000D01*
X22201Y76500D02*X24701Y79000D01*
X22201Y76500D02*X24701D01*
X25902Y77000D02*X26402Y76500D01*
X25902Y80000D02*Y77000D01*
Y80000D02*X26402Y80500D01*
X27402D01*
X27902Y80000D01*
Y77000D01*
X27402Y76500D02*X27902Y77000D01*
X26402Y76500D02*X27402D01*
X25902Y77500D02*X27902Y79500D01*
X29603Y76500D02*X30603D01*
X30103Y80500D02*Y76500D01*
X29103Y79500D02*X30103Y80500D01*
X70000Y94500D02*Y93000D01*
X69500Y92500D02*X70000Y93000D01*
X66500Y92500D02*X69500D01*
X66500D02*X66000Y93000D01*
Y94500D02*Y93000D01*
X66500Y95701D02*X66000Y96201D01*
Y97701D02*Y96201D01*
Y97701D02*X66500Y98201D01*
X67500D01*
X70000Y95701D02*X67500Y98201D01*
X70000D02*Y95701D01*
X69500Y99402D02*X70000Y99902D01*
X66500Y99402D02*X69500D01*
X66500D02*X66000Y99902D01*
Y100902D02*Y99902D01*
Y100902D02*X66500Y101402D01*
X69500D01*
X70000Y100902D02*X69500Y101402D01*
X70000Y100902D02*Y99902D01*
X69000Y99402D02*X67000Y101402D01*
X66500Y102603D02*X66000Y103103D01*
Y104103D02*Y103103D01*
Y104103D02*X66500Y104603D01*
X69500D01*
X70000Y104103D02*X69500Y104603D01*
X70000Y104103D02*Y103103D01*
X69500Y102603D02*X70000Y103103D01*
X68000Y104603D02*Y103103D01*
X7500Y72000D02*Y70500D01*
X7000Y70000D02*X7500Y70500D01*
X4000Y70000D02*X7000D01*
X4000D02*X3500Y70500D01*
Y72000D02*Y70500D01*
X4000Y73201D02*X3500Y73701D01*
Y75201D02*Y73701D01*
Y75201D02*X4000Y75701D01*
X5000D01*
X7500Y73201D02*X5000Y75701D01*
X7500D02*Y73201D01*
X7000Y76902D02*X7500Y77402D01*
X4000Y76902D02*X7000D01*
X4000D02*X3500Y77402D01*
Y78402D02*Y77402D01*
Y78402D02*X4000Y78902D01*
X7000D01*
X7500Y78402D02*X7000Y78902D01*
X7500Y78402D02*Y77402D01*
X6500Y76902D02*X4500Y78902D01*
X7500Y81603D02*Y80603D01*
X3500Y81103D02*X7500D01*
X4500Y80103D02*X3500Y81103D01*
X27000Y97000D02*Y95000D01*
Y97000D02*X27500Y97500D01*
X28500D01*
X29000Y97000D02*X28500Y97500D01*
X29000Y97000D02*Y95500D01*
X27000D02*X31000D01*
X29000D02*X31000Y97500D01*
X27500Y98701D02*X27000Y99201D01*
Y100701D02*Y99201D01*
Y100701D02*X27500Y101201D01*
X28500D01*
X31000Y98701D02*X28500Y101201D01*
X31000D02*Y98701D01*
X30500Y102402D02*X31000Y102902D01*
X27500Y102402D02*X30500D01*
X27500D02*X27000Y102902D01*
Y103902D02*Y102902D01*
Y103902D02*X27500Y104402D01*
X30500D01*
X31000Y103902D02*X30500Y104402D01*
X31000Y103902D02*Y102902D01*
X30000Y102402D02*X28000Y104402D01*
X29000Y105603D02*X27000Y107603D01*
X29000Y108103D02*Y105603D01*
X27000Y107603D02*X31000D01*
X110500Y19500D02*X114500D01*
X110500Y21000D02*X111000Y21500D01*
X114000D01*
X114500Y21000D02*X114000Y21500D01*
X114500Y21000D02*Y19000D01*
X110500Y21000D02*Y19000D01*
X111000Y22701D02*X110500Y23201D01*
Y24701D02*Y23201D01*
Y24701D02*X111000Y25201D01*
X112000D01*
X114500Y22701D02*X112000Y25201D01*
X114500D02*Y22701D01*
X114000Y26402D02*X114500Y26902D01*
X111000Y26402D02*X114000D01*
X111000D02*X110500Y26902D01*
Y27902D02*Y26902D01*
Y27902D02*X111000Y28402D01*
X114000D01*
X114500Y27902D02*X114000Y28402D01*
X114500Y27902D02*Y26902D01*
X113500Y26402D02*X111500Y28402D01*
X112500Y29603D02*X110500Y31603D01*
X112500Y32103D02*Y29603D01*
X110500Y31603D02*X114500D01*
X137500Y52000D02*Y50500D01*
X137000Y50000D02*X137500Y50500D01*
X134000Y50000D02*X137000D01*
X134000D02*X133500Y50500D01*
Y52000D02*Y50500D01*
X134000Y53201D02*X133500Y53701D01*
Y55201D02*Y53701D01*
Y55201D02*X134000Y55701D01*
X135000D01*
X137500Y53201D02*X135000Y55701D01*
X137500D02*Y53201D01*
X133500Y58902D02*Y56902D01*
X135500D01*
X135000Y57402D01*
Y58402D02*Y57402D01*
Y58402D02*X135500Y58902D01*
X137000D01*
X137500Y58402D02*X137000Y58902D01*
X137500Y58402D02*Y57402D01*
X137000Y56902D02*X137500Y57402D01*
X134000Y60103D02*X133500Y60603D01*
Y62103D02*Y60603D01*
Y62103D02*X134000Y62603D01*
X135000D01*
X137500Y60103D02*X135000Y62603D01*
X137500D02*Y60103D01*
X133500Y29500D02*Y27500D01*
Y29500D02*X134000Y30000D01*
X135000D01*
X135500Y29500D02*X135000Y30000D01*
X135500Y29500D02*Y28000D01*
X133500D02*X137500D01*
X135500D02*X137500Y30000D01*
X134000Y31201D02*X133500Y31701D01*
Y33201D02*Y31701D01*
Y33201D02*X134000Y33701D01*
X135000D01*
X137500Y31201D02*X135000Y33701D01*
X137500D02*Y31201D01*
X133500Y36902D02*Y34902D01*
X135500D01*
X135000Y35402D01*
Y36402D02*Y35402D01*
Y36402D02*X135500Y36902D01*
X137000D01*
X137500Y36402D02*X137000Y36902D01*
X137500Y36402D02*Y35402D01*
X137000Y34902D02*X137500Y35402D01*
X134000Y38103D02*X133500Y38603D01*
Y40103D02*Y38603D01*
Y40103D02*X134000Y40603D01*
X135000D01*
X137500Y38103D02*X135000Y40603D01*
X137500D02*Y38103D01*
X179995Y21516D02*X183995D01*
X179995Y23016D02*X180495Y23516D01*
X183495D01*
X183995Y23016D02*X183495Y23516D01*
X183995Y23016D02*Y21016D01*
X179995Y23016D02*Y21016D01*
X180495Y24717D02*X179995Y25217D01*
Y26717D02*Y25217D01*
Y26717D02*X180495Y27217D01*
X181495D01*
X183995Y24717D02*X181495Y27217D01*
X183995D02*Y24717D01*
X179995Y30418D02*Y28418D01*
X181995D01*
X181495Y28918D01*
Y29918D02*Y28918D01*
Y29918D02*X181995Y30418D01*
X183495D01*
X183995Y29918D02*X183495Y30418D01*
X183995Y29918D02*Y28918D01*
X183495Y28418D02*X183995Y28918D01*
Y33119D02*Y32119D01*
X179995Y32619D02*X183995D01*
X180995Y31619D02*X179995Y32619D01*
X173500Y29500D02*Y27500D01*
Y29500D02*X174000Y30000D01*
X175000D01*
X175500Y29500D02*X175000Y30000D01*
X175500Y29500D02*Y28000D01*
X173500D02*X177500D01*
X175500D02*X177500Y30000D01*
X174000Y31201D02*X173500Y31701D01*
Y33201D02*Y31701D01*
Y33201D02*X174000Y33701D01*
X175000D01*
X177500Y31201D02*X175000Y33701D01*
X177500D02*Y31201D01*
X173500Y36902D02*Y34902D01*
X175500D01*
X175000Y35402D01*
Y36402D02*Y35402D01*
Y36402D02*X175500Y36902D01*
X177000D01*
X177500Y36402D02*X177000Y36902D01*
X177500Y36402D02*Y35402D01*
X177000Y34902D02*X177500Y35402D01*
X173500Y39603D02*X174000Y40103D01*
X173500Y39603D02*Y38603D01*
X174000Y38103D02*X173500Y38603D01*
X174000Y38103D02*X177000D01*
X177500Y38603D01*
X175500Y39603D02*X176000Y40103D01*
X175500Y39603D02*Y38103D01*
X177500Y39603D02*Y38603D01*
Y39603D02*X177000Y40103D01*
X176000D02*X177000D01*
X56500Y80500D02*Y77000D01*
X57000Y76500D01*
X58000D01*
X58500Y77000D01*
Y80500D02*Y77000D01*
X59701Y80000D02*X60201Y80500D01*
X61701D01*
X62201Y80000D01*
Y79000D01*
X59701Y76500D02*X62201Y79000D01*
X59701Y76500D02*X62201D01*
X63402Y77000D02*X63902Y76500D01*
X63402Y80000D02*Y77000D01*
Y80000D02*X63902Y80500D01*
X64902D01*
X65402Y80000D01*
Y77000D01*
X64902Y76500D02*X65402Y77000D01*
X63902Y76500D02*X64902D01*
X63402Y77500D02*X65402Y79500D01*
X66603Y80000D02*X67103Y80500D01*
X68603D01*
X69103Y80000D01*
Y79000D01*
X66603Y76500D02*X69103Y79000D01*
X66603Y76500D02*X69103D01*
X80000D02*Y73000D01*
X80500Y72500D01*
X81500D01*
X82000Y73000D01*
Y76500D02*Y73000D01*
X83201Y76000D02*X83701Y76500D01*
X85201D01*
X85701Y76000D01*
Y75000D01*
X83201Y72500D02*X85701Y75000D01*
X83201Y72500D02*X85701D01*
X86902Y73000D02*X87402Y72500D01*
X86902Y76000D02*Y73000D01*
Y76000D02*X87402Y76500D01*
X88402D01*
X88902Y76000D01*
Y73000D01*
X88402Y72500D02*X88902Y73000D01*
X87402Y72500D02*X88402D01*
X86902Y73500D02*X88902Y75500D01*
X90103Y76000D02*X90603Y76500D01*
X91603D01*
X92103Y76000D01*
Y73000D01*
X91603Y72500D02*X92103Y73000D01*
X90603Y72500D02*X91603D01*
X90103Y73000D02*X90603Y72500D01*
Y74500D02*X92103D01*
X101000Y93000D02*Y91000D01*
Y93000D02*X101500Y93500D01*
X102500D01*
X103000Y93000D02*X102500Y93500D01*
X103000Y93000D02*Y91500D01*
X101000D02*X105000D01*
X103000D02*X105000Y93500D01*
X101500Y94701D02*X101000Y95201D01*
Y96701D02*Y95201D01*
Y96701D02*X101500Y97201D01*
X102500D01*
X105000Y94701D02*X102500Y97201D01*
X105000D02*Y94701D01*
Y99902D02*Y98902D01*
X101000Y99402D02*X105000D01*
X102000Y98402D02*X101000Y99402D01*
X105000Y102603D02*Y101603D01*
X101000Y102103D02*X105000D01*
X102000Y101103D02*X101000Y102103D01*
X121000Y68000D02*X125000D01*
X121000Y69500D02*X121500Y70000D01*
X124500D01*
X125000Y69500D02*X124500Y70000D01*
X125000Y69500D02*Y67500D01*
X121000Y69500D02*Y67500D01*
X121500Y71201D02*X121000Y71701D01*
Y73201D02*Y71701D01*
Y73201D02*X121500Y73701D01*
X122500D01*
X125000Y71201D02*X122500Y73701D01*
X125000D02*Y71201D01*
X124500Y74902D02*X125000Y75402D01*
X121500Y74902D02*X124500D01*
X121500D02*X121000Y75402D01*
Y76402D02*Y75402D01*
Y76402D02*X121500Y76902D01*
X124500D01*
X125000Y76402D02*X124500Y76902D01*
X125000Y76402D02*Y75402D01*
X124000Y74902D02*X122000Y76902D01*
X121500Y78103D02*X121000Y78603D01*
Y79603D02*Y78603D01*
Y79603D02*X121500Y80103D01*
X124500D01*
X125000Y79603D02*X124500Y80103D01*
X125000Y79603D02*Y78603D01*
X124500Y78103D02*X125000Y78603D01*
X123000Y80103D02*Y78603D01*
X112500Y86500D02*X114500D01*
X115000Y86000D01*
Y85000D01*
X114500Y84500D02*X115000Y85000D01*
X113000Y84500D02*X114500D01*
X113000Y86500D02*Y82500D01*
Y84500D02*X115000Y82500D01*
X116201Y86000D02*X116701Y86500D01*
X118201D01*
X118701Y86000D01*
Y85000D01*
X116201Y82500D02*X118701Y85000D01*
X116201Y82500D02*X118701D01*
X120402D02*X121402D01*
X120902Y86500D02*Y82500D01*
X119902Y85500D02*X120902Y86500D01*
X122603Y83000D02*X123103Y82500D01*
X122603Y86000D02*Y83000D01*
Y86000D02*X123103Y86500D01*
X124103D01*
X124603Y86000D01*
Y83000D01*
X124103Y82500D02*X124603Y83000D01*
X123103Y82500D02*X124103D01*
X122603Y83500D02*X124603Y85500D01*
X137500Y72000D02*Y70500D01*
X137000Y70000D02*X137500Y70500D01*
X134000Y70000D02*X137000D01*
X134000D02*X133500Y70500D01*
Y72000D02*Y70500D01*
X134000Y73201D02*X133500Y73701D01*
Y75201D02*Y73701D01*
Y75201D02*X134000Y75701D01*
X135000D01*
X137500Y73201D02*X135000Y75701D01*
X137500D02*Y73201D01*
X133500Y78902D02*Y76902D01*
X135500D01*
X135000Y77402D01*
Y78402D02*Y77402D01*
Y78402D02*X135500Y78902D01*
X137000D01*
X137500Y78402D02*X137000Y78902D01*
X137500Y78402D02*Y77402D01*
X137000Y76902D02*X137500Y77402D01*
Y81603D02*Y80603D01*
X133500Y81103D02*X137500D01*
X134500Y80103D02*X133500Y81103D01*
M02*
