G04 start of page 10 for group -4079 idx -4079 *
G04 Title: 26.003.00.01.01.pcb, topsilk *
G04 Creator: pcb 20100929 *
G04 CreationDate: Wed Mar 18 07:56:07 2015 UTC *
G04 For: bert *
G04 Format: Gerber/RS-274X *
G04 PCB-Dimensions: 649606 413386 *
G04 PCB-Coordinate-Origin: lower left *
%MOIN*%
%FSLAX25Y25*%
%LNFRONTSILK*%
%ADD26C,0.0100*%
%ADD27C,0.0080*%
%ADD32C,0.0120*%
%ADD33C,0.0000*%
G54D26*X0Y413386D02*X10000D01*
X51181Y403543D02*X222441D01*
X57480Y397244D02*X222441D01*
Y403543D02*Y397244D01*
X0Y413386D02*Y403386D01*
X222441Y29528D02*Y35827D01*
X51181Y29528D02*X222441D01*
X630000Y20886D02*Y30886D01*
Y20886D02*X620000D01*
X57480Y403543D02*Y29528D01*
Y35827D02*X222441D01*
X51181Y403543D02*Y29528D01*
X0Y20886D02*X10000D01*
X0D02*Y30886D01*
X40000Y370886D02*X50000D01*
X40000Y360886D02*X50000D01*
X40000Y370886D02*Y60886D01*
X50000Y370886D02*Y60886D01*
X40000D02*X50000D01*
X95000Y333386D02*Y323386D01*
X105000Y333386D02*Y323386D01*
X95000D02*X175000D01*
X95000Y333386D02*X175000D01*
Y323386D01*
X95000Y273386D02*Y263386D01*
X105000Y273386D02*Y263386D01*
X95000D02*X175000D01*
X95000Y273386D02*X175000D01*
Y263386D01*
X630000Y413386D02*X620000D01*
X630000D02*Y403386D01*
X578779Y383386D02*X586653D01*
X582716Y387323D02*Y379449D01*
X574842Y383386D02*G75*G03X574842Y383386I-9843J0D01*G01*
X629132Y394883D02*Y38190D01*
X616140Y372836D02*Y60237D01*
X592518Y334647D02*X616140D01*
X602360Y364174D02*X616140D01*
X592518Y236221D02*X616139D01*
X602360Y285434D02*X616140D01*
X592518Y275591D02*X616139D01*
Y236221D02*X616140Y236222D01*
X616139Y275591D02*X616140Y275592D01*
X602360Y265749D02*X616140D01*
X616139Y255906D02*X616140Y255907D01*
X592518Y255906D02*X616139D01*
Y314961D02*X616140Y314962D01*
X602360Y305119D02*X616140D01*
X616139Y295276D02*X616140Y295277D01*
X592518Y295276D02*X616139D01*
X602360Y246064D02*X616140D01*
X602360Y206694D02*X616140D01*
X592518Y216537D02*X616140D01*
X602360Y226379D02*X616140D01*
X592518Y177167D02*X616140D01*
X602360Y187009D02*X616140D01*
X592518Y196852D02*X616140D01*
X602360Y147639D02*X616140D01*
X592518Y157481D02*X616140D01*
X602360Y167324D02*X616140D01*
X592518Y118111D02*X616140D01*
X602360Y127954D02*X616140D01*
X592518Y137796D02*X616140D01*
X602360Y88584D02*X616140D01*
X592518Y98426D02*X616140D01*
X592518Y354332D02*X616140D01*
X602360Y344489D02*X616140D01*
X602360Y324804D02*X616140D01*
X592518Y314961D02*X616139D01*
X602360Y108269D02*X615746D01*
X616140Y107875D01*
X592518Y78741D02*X616140D01*
X602360Y68899D02*X616140D01*
X597242Y394883D02*X629132D01*
X597242D02*Y372836D01*
X629132D01*
X597242Y38190D02*X629132D01*
X597242Y60237D02*Y38190D01*
Y60237D02*X629132D01*
X445000Y378686D02*Y370286D01*
Y346486D02*Y338086D01*
X440500Y370286D02*X449500D01*
X440500Y346486D02*X449500D01*
Y370286D02*Y346486D01*
X440500Y370286D02*Y346486D01*
X409606Y339764D02*Y331890D01*
X405669Y335827D02*X413543D01*
G54D32*X409606Y343701D02*G75*G03X409606Y343701I0J19685D01*G01*
G54D26*X465000Y378686D02*Y373586D01*
Y353186D02*Y348086D01*
X459700Y373586D02*X470300D01*
X459700Y353186D02*X470300D01*
Y373586D02*Y353186D01*
X459700Y373586D02*Y353186D01*
Y373086D02*X470300D01*
X459700Y372586D02*X470300D01*
X459700Y372086D02*X470300D01*
X459700Y371586D02*X470300D01*
X503779Y358386D02*X511653D01*
X507716Y362323D02*Y354449D01*
X499842Y358386D02*G75*G03X499842Y358386I-9843J0D01*G01*
X498858Y383386D02*G75*G03X498858Y383386I-8858J0D01*G01*
X530000Y348386D02*Y308386D01*
X570000D01*
Y348386D01*
X530000D02*X545000D01*
X555000D02*X570000D01*
X545000D02*G75*G03X555000Y348386I5000J0D01*G01*
X515000Y378686D02*Y370286D01*
Y346486D02*Y338086D01*
X510500Y370286D02*X519500D01*
X510500Y346486D02*X519500D01*
Y370286D02*Y346486D01*
X510500Y370286D02*Y346486D01*
X529700Y358386D02*X538100D01*
X561900D02*X570300D01*
X538100Y362886D02*Y353886D01*
X561900Y362886D02*Y353886D01*
X538100Y362886D02*X561900D01*
X538100Y353886D02*X561900D01*
X334700Y193386D02*X341600D01*
X358400D02*X365300D01*
X341600Y197086D02*Y189686D01*
X358400Y197086D02*Y189686D01*
X341600Y197086D02*X358400D01*
X341600Y189686D02*X358400D01*
X342100Y197086D02*Y189686D01*
X342600Y197086D02*Y189686D01*
X343100Y197086D02*Y189686D01*
X343600Y197086D02*Y189686D01*
X256900Y193386D02*X265300D01*
X224700D02*X233100D01*
X256900Y197886D02*Y188886D01*
X233100Y197886D02*Y188886D01*
X256900D01*
X233100Y197886D02*X256900D01*
X284700Y193386D02*X291600D01*
X308400D02*X315300D01*
X291600Y197086D02*Y189686D01*
X308400Y197086D02*Y189686D01*
X291600Y197086D02*X308400D01*
X291600Y189686D02*X308400D01*
X292100Y197086D02*Y189686D01*
X292600Y197086D02*Y189686D01*
X293100Y197086D02*Y189686D01*
X293600Y197086D02*Y189686D01*
X543858Y383386D02*G75*G03X543858Y383386I-8858J0D01*G01*
X469700Y323386D02*X478100D01*
X501900D02*X510300D01*
X478100Y327886D02*Y318886D01*
X501900Y327886D02*Y318886D01*
X478100Y327886D02*X501900D01*
X478100Y318886D02*X501900D01*
X143858Y313386D02*G75*G03X143858Y313386I-8858J0D01*G01*
X123858D02*G75*G03X123858Y313386I-8858J0D01*G01*
X236378Y34606D02*X283622D01*
X236378Y52165D02*Y34606D01*
X246378Y62165D02*X273622D01*
X283622Y52165D02*Y34606D01*
G54D33*X235000Y33386D02*X285000D01*
X235000Y63386D02*Y33386D01*
Y63386D02*X285000D01*
Y33386D01*
G54D26*X173100Y193386D02*X164700D01*
X196900D02*X205300D01*
X173100Y197886D02*Y188886D01*
X196900Y197886D02*Y188886D01*
X173100Y197886D02*X196900D01*
X173100Y188886D02*X196900D01*
X143858Y253386D02*G75*G03X143858Y253386I-8858J0D01*G01*
X173100D02*X164700D01*
X196900D02*X205300D01*
X173100Y257886D02*Y248886D01*
X196900Y257886D02*Y248886D01*
X173100Y257886D02*X196900D01*
X173100Y248886D02*X196900D01*
X123858Y253386D02*G75*G03X123858Y253386I-8858J0D01*G01*
X95000Y213386D02*Y203386D01*
X105000Y213386D02*Y203386D01*
X95000D02*X175000D01*
X95000Y213386D02*X175000D01*
Y203386D01*
X95000Y153386D02*Y143386D01*
X105000Y153386D02*Y143386D01*
X95000D02*X175000D01*
X95000Y153386D02*X175000D01*
Y143386D01*
X143858Y133386D02*G75*G03X143858Y133386I-8858J0D01*G01*
X123858D02*G75*G03X123858Y133386I-8858J0D01*G01*
X143858Y193386D02*G75*G03X143858Y193386I-8858J0D01*G01*
X123858D02*G75*G03X123858Y193386I-8858J0D01*G01*
X143858Y73386D02*G75*G03X143858Y73386I-8858J0D01*G01*
X123858D02*G75*G03X123858Y73386I-8858J0D01*G01*
X95000Y93386D02*Y83386D01*
X105000Y93386D02*Y83386D01*
X95000D02*X175000D01*
X95000Y93386D02*X175000D01*
Y83386D01*
G54D27*X30000Y359886D02*Y358386D01*
Y359886D02*X33500D01*
X34000Y359386D02*X33500Y359886D01*
X34000Y359386D02*Y358886D01*
X33500Y358386D02*X34000Y358886D01*
Y362587D02*Y361587D01*
X30000Y362087D02*X34000D01*
X31000Y361087D02*X30000Y362087D01*
X33500Y363788D02*X34000Y364288D01*
X30500Y363788D02*X33500D01*
X30500D02*X30000Y364288D01*
Y365288D02*Y364288D01*
Y365288D02*X30500Y365788D01*
X33500D01*
X34000Y365288D02*X33500Y365788D01*
X34000Y365288D02*Y364288D01*
X33000Y363788D02*X31000Y365788D01*
X30500Y366989D02*X30000Y367489D01*
Y368989D02*Y367489D01*
Y368989D02*X30500Y369489D01*
X31500D01*
X34000Y366989D02*X31500Y369489D01*
X34000D02*Y366989D01*
X5000Y387886D02*Y384386D01*
Y387886D02*X5500Y388386D01*
X7000D01*
X7500Y387886D01*
Y384386D01*
X5000Y386386D02*X7500D01*
X20000Y39386D02*X22000D01*
X22500Y39886D01*
Y40886D02*Y39886D01*
X22000Y41386D02*X22500Y40886D01*
X20500Y41386D02*X22000D01*
X20500Y43386D02*Y39386D01*
X20000Y43386D02*X22000D01*
X22500Y42886D01*
Y41886D01*
X22000Y41386D02*X22500Y41886D01*
X105500Y294386D02*X107000D01*
X105000Y294886D02*X105500Y294386D01*
X105000Y297886D02*Y294886D01*
Y297886D02*X105500Y298386D01*
X107000D01*
X108701Y294386D02*X109701D01*
X109201Y298386D02*Y294386D01*
X108201Y297386D02*X109201Y298386D01*
X110902Y294886D02*X111402Y294386D01*
X110902Y297886D02*Y294886D01*
Y297886D02*X111402Y298386D01*
X112402D01*
X112902Y297886D01*
Y294886D01*
X112402Y294386D02*X112902Y294886D01*
X111402Y294386D02*X112402D01*
X110902Y295386D02*X112902Y297386D01*
X114103Y297886D02*X114603Y298386D01*
X115603D01*
X116103Y297886D01*
Y294886D01*
X115603Y294386D02*X116103Y294886D01*
X114603Y294386D02*X115603D01*
X114103Y294886D02*X114603Y294386D01*
Y296386D02*X116103D01*
X100000Y343886D02*Y340386D01*
Y343886D02*X100500Y344386D01*
X102000D01*
X102500Y343886D01*
Y340386D01*
X100000Y342386D02*X102500D01*
X104201Y340386D02*X105201D01*
X104701Y344386D02*Y340386D01*
X103701Y343386D02*X104701Y344386D01*
X106402Y340886D02*X106902Y340386D01*
X106402Y343886D02*Y340886D01*
Y343886D02*X106902Y344386D01*
X107902D01*
X108402Y343886D01*
Y340886D01*
X107902Y340386D02*X108402Y340886D01*
X106902Y340386D02*X107902D01*
X106402Y341386D02*X108402Y343386D01*
X110103Y340386D02*X111103D01*
X110603Y344386D02*Y340386D01*
X109603Y343386D02*X110603Y344386D01*
X100000Y283886D02*Y280386D01*
Y283886D02*X100500Y284386D01*
X102000D01*
X102500Y283886D01*
Y280386D01*
X100000Y282386D02*X102500D01*
X104201Y280386D02*X105201D01*
X104701Y284386D02*Y280386D01*
X103701Y283386D02*X104701Y284386D01*
X106402Y280886D02*X106902Y280386D01*
X106402Y283886D02*Y280886D01*
Y283886D02*X106902Y284386D01*
X107902D01*
X108402Y283886D01*
Y280886D01*
X107902Y280386D02*X108402Y280886D01*
X106902Y280386D02*X107902D01*
X106402Y281386D02*X108402Y283386D01*
X109603Y283886D02*X110103Y284386D01*
X111603D01*
X112103Y283886D01*
Y282886D01*
X109603Y280386D02*X112103Y282886D01*
X109603Y280386D02*X112103D01*
X100000Y223886D02*Y220386D01*
Y223886D02*X100500Y224386D01*
X102000D01*
X102500Y223886D01*
Y220386D01*
X100000Y222386D02*X102500D01*
X104201Y220386D02*X105201D01*
X104701Y224386D02*Y220386D01*
X103701Y223386D02*X104701Y224386D01*
X106402Y220886D02*X106902Y220386D01*
X106402Y223886D02*Y220886D01*
Y223886D02*X106902Y224386D01*
X107902D01*
X108402Y223886D01*
Y220886D01*
X107902Y220386D02*X108402Y220886D01*
X106902Y220386D02*X107902D01*
X106402Y221386D02*X108402Y223386D01*
X109603Y223886D02*X110103Y224386D01*
X111103D01*
X111603Y223886D01*
Y220886D01*
X111103Y220386D02*X111603Y220886D01*
X110103Y220386D02*X111103D01*
X109603Y220886D02*X110103Y220386D01*
Y222386D02*X111603D01*
X100000Y163886D02*Y160386D01*
Y163886D02*X100500Y164386D01*
X102000D01*
X102500Y163886D01*
Y160386D01*
X100000Y162386D02*X102500D01*
X104201Y160386D02*X105201D01*
X104701Y164386D02*Y160386D01*
X103701Y163386D02*X104701Y164386D01*
X106402Y160886D02*X106902Y160386D01*
X106402Y163886D02*Y160886D01*
Y163886D02*X106902Y164386D01*
X107902D01*
X108402Y163886D01*
Y160886D01*
X107902Y160386D02*X108402Y160886D01*
X106902Y160386D02*X107902D01*
X106402Y161386D02*X108402Y163386D01*
X109603Y162386D02*X111603Y164386D01*
X109603Y162386D02*X112103D01*
X111603Y164386D02*Y160386D01*
X100000Y103886D02*Y100386D01*
Y103886D02*X100500Y104386D01*
X102000D01*
X102500Y103886D01*
Y100386D01*
X100000Y102386D02*X102500D01*
X104201Y100386D02*X105201D01*
X104701Y104386D02*Y100386D01*
X103701Y103386D02*X104701Y104386D01*
X106402Y100886D02*X106902Y100386D01*
X106402Y103886D02*Y100886D01*
Y103886D02*X106902Y104386D01*
X107902D01*
X108402Y103886D01*
Y100886D01*
X107902Y100386D02*X108402Y100886D01*
X106902Y100386D02*X107902D01*
X106402Y101386D02*X108402Y103386D01*
X109603Y104386D02*X111603D01*
X109603D02*Y102386D01*
X110103Y102886D01*
X111103D01*
X111603Y102386D01*
Y100886D01*
X111103Y100386D02*X111603Y100886D01*
X110103Y100386D02*X111103D01*
X109603Y100886D02*X110103Y100386D01*
X560500Y394386D02*X562000D01*
X560000Y394886D02*X560500Y394386D01*
X560000Y397886D02*Y394886D01*
Y397886D02*X560500Y398386D01*
X562000D01*
X563701Y394386D02*X564701D01*
X564201Y398386D02*Y394386D01*
X563201Y397386D02*X564201Y398386D01*
X566402Y394386D02*X567402D01*
X566902Y398386D02*Y394386D01*
X565902Y397386D02*X566902Y398386D01*
X568603Y397886D02*X569103Y398386D01*
X570103D01*
X570603Y397886D01*
Y394886D01*
X570103Y394386D02*X570603Y394886D01*
X569103Y394386D02*X570103D01*
X568603Y394886D02*X569103Y394386D01*
Y396386D02*X570603D01*
X545000Y303386D02*Y299886D01*
X545500Y299386D01*
X546500D01*
X547000Y299886D01*
Y303386D02*Y299886D01*
X548701Y299386D02*X549701D01*
X549201Y303386D02*Y299386D01*
X548201Y302386D02*X549201Y303386D01*
X550902Y299886D02*X551402Y299386D01*
X550902Y302886D02*Y299886D01*
Y302886D02*X551402Y303386D01*
X552402D01*
X552902Y302886D01*
Y299886D01*
X552402Y299386D02*X552902Y299886D01*
X551402Y299386D02*X552402D01*
X550902Y300386D02*X552902Y302386D01*
X554603Y299386D02*X555603D01*
X555103Y303386D02*Y299386D01*
X554103Y302386D02*X555103Y303386D01*
X600000Y403386D02*X601500D01*
Y399886D01*
X601000Y399386D02*X601500Y399886D01*
X600500Y399386D02*X601000D01*
X600000Y399886D02*X600500Y399386D01*
X603201D02*X604201D01*
X603701Y403386D02*Y399386D01*
X602701Y402386D02*X603701Y403386D01*
X605402Y399886D02*X605902Y399386D01*
X605402Y402886D02*Y399886D01*
Y402886D02*X605902Y403386D01*
X606902D01*
X607402Y402886D01*
Y399886D01*
X606902Y399386D02*X607402Y399886D01*
X605902Y399386D02*X606902D01*
X605402Y400386D02*X607402Y402386D01*
X609103Y399386D02*X610103D01*
X609603Y403386D02*Y399386D01*
X608603Y402386D02*X609603Y403386D01*
X545000Y369886D02*X547000D01*
X547500Y369386D01*
Y368386D01*
X547000Y367886D02*X547500Y368386D01*
X545500Y367886D02*X547000D01*
X545500Y369886D02*Y365886D01*
Y367886D02*X547500Y365886D01*
X549201D02*X550201D01*
X549701Y369886D02*Y365886D01*
X548701Y368886D02*X549701Y369886D01*
X551402Y366386D02*X551902Y365886D01*
X551402Y369386D02*Y366386D01*
Y369386D02*X551902Y369886D01*
X552902D01*
X553402Y369386D01*
Y366386D01*
X552902Y365886D02*X553402Y366386D01*
X551902Y365886D02*X552902D01*
X551402Y366886D02*X553402Y368886D01*
X554603Y369386D02*X555103Y369886D01*
X556103D01*
X556603Y369386D01*
Y366386D01*
X556103Y365886D02*X556603Y366386D01*
X555103Y365886D02*X556103D01*
X554603Y366386D02*X555103Y365886D01*
Y367886D02*X556603D01*
X485500Y339386D02*X487000D01*
X485000Y339886D02*X485500Y339386D01*
X485000Y342886D02*Y339886D01*
Y342886D02*X485500Y343386D01*
X487000D01*
X488701Y339386D02*X489701D01*
X489201Y343386D02*Y339386D01*
X488201Y342386D02*X489201Y343386D01*
X491402Y339386D02*X492402D01*
X491902Y343386D02*Y339386D01*
X490902Y342386D02*X491902Y343386D01*
X493603Y341386D02*X495603Y343386D01*
X493603Y341386D02*X496103D01*
X495603Y343386D02*Y339386D01*
X485500Y394386D02*X487000D01*
X485000Y394886D02*X485500Y394386D01*
X485000Y397886D02*Y394886D01*
Y397886D02*X485500Y398386D01*
X487000D01*
X488701Y394386D02*X489701D01*
X489201Y398386D02*Y394386D01*
X488201Y397386D02*X489201Y398386D01*
X491402Y394386D02*X492402D01*
X491902Y398386D02*Y394386D01*
X490902Y397386D02*X491902Y398386D01*
X493603D02*X495603D01*
X493603D02*Y396386D01*
X494103Y396886D01*
X495103D01*
X495603Y396386D01*
Y394886D01*
X495103Y394386D02*X495603Y394886D01*
X494103Y394386D02*X495103D01*
X493603Y394886D02*X494103Y394386D01*
X475000Y358886D02*X479000D01*
X475000Y360386D02*X475500Y360886D01*
X478500D01*
X479000Y360386D02*X478500Y360886D01*
X479000Y360386D02*Y358386D01*
X475000Y360386D02*Y358386D01*
X479000Y363587D02*Y362587D01*
X475000Y363087D02*X479000D01*
X476000Y362087D02*X475000Y363087D01*
X478500Y364788D02*X479000Y365288D01*
X475500Y364788D02*X478500D01*
X475500D02*X475000Y365288D01*
Y366288D02*Y365288D01*
Y366288D02*X475500Y366788D01*
X478500D01*
X479000Y366288D02*X478500Y366788D01*
X479000Y366288D02*Y365288D01*
X478000Y364788D02*X476000Y366788D01*
X479000Y369489D02*Y368489D01*
X475000Y368989D02*X479000D01*
X476000Y367989D02*X475000Y368989D01*
X505000Y340386D02*Y338386D01*
Y340386D02*X505500Y340886D01*
X506500D01*
X507000Y340386D02*X506500Y340886D01*
X507000Y340386D02*Y338886D01*
X505000D02*X509000D01*
X507000D02*X509000Y340886D01*
Y343587D02*Y342587D01*
X505000Y343087D02*X509000D01*
X506000Y342087D02*X505000Y343087D01*
X508500Y344788D02*X509000Y345288D01*
X505500Y344788D02*X508500D01*
X505500D02*X505000Y345288D01*
Y346288D02*Y345288D01*
Y346288D02*X505500Y346788D01*
X508500D01*
X509000Y346288D02*X508500Y346788D01*
X509000Y346288D02*Y345288D01*
X508000Y344788D02*X506000Y346788D01*
X507000Y347989D02*X505000Y349989D01*
X507000Y350489D02*Y347989D01*
X505000Y349989D02*X509000D01*
X530500Y394386D02*X532000D01*
X530000Y394886D02*X530500Y394386D01*
X530000Y397886D02*Y394886D01*
Y397886D02*X530500Y398386D01*
X532000D01*
X533701Y394386D02*X534701D01*
X534201Y398386D02*Y394386D01*
X533201Y397386D02*X534201Y398386D01*
X536402Y394386D02*X537402D01*
X536902Y398386D02*Y394386D01*
X535902Y397386D02*X536902Y398386D01*
X540103D02*X540603Y397886D01*
X539103Y398386D02*X540103D01*
X538603Y397886D02*X539103Y398386D01*
X538603Y397886D02*Y394886D01*
X539103Y394386D01*
X540103Y396386D02*X540603Y395886D01*
X538603Y396386D02*X540103D01*
X539103Y394386D02*X540103D01*
X540603Y394886D01*
Y395886D02*Y394886D01*
X106500Y395886D02*Y392886D01*
X106000Y396386D02*X106500Y395886D01*
X107000Y396386D01*
X108000D01*
X108500Y395886D01*
Y394886D01*
X108000Y394386D02*X108500Y394886D01*
X107000Y394386D02*X108000D01*
X106500Y394886D02*X107000Y394386D01*
X110201D02*X111201D01*
X110701Y398386D02*Y394386D01*
X109701Y397386D02*X110701Y398386D01*
X181500Y395886D02*Y392886D01*
X181000Y396386D02*X181500Y395886D01*
X182000Y396386D01*
X183000D01*
X183500Y395886D01*
Y394886D01*
X183000Y394386D02*X183500Y394886D01*
X182000Y394386D02*X183000D01*
X181500Y394886D02*X182000Y394386D01*
X184701Y397886D02*X185201Y398386D01*
X186701D01*
X187201Y397886D01*
Y396886D01*
X184701Y394386D02*X187201Y396886D01*
X184701Y394386D02*X187201D01*
X435000Y355386D02*Y353386D01*
Y355386D02*X435500Y355886D01*
X436500D01*
X437000Y355386D02*X436500Y355886D01*
X437000Y355386D02*Y353886D01*
X435000D02*X439000D01*
X437000D02*X439000Y355886D01*
Y358587D02*Y357587D01*
X435000Y358087D02*X439000D01*
X436000Y357087D02*X435000Y358087D01*
X438500Y359788D02*X439000Y360288D01*
X435500Y359788D02*X438500D01*
X435500D02*X435000Y360288D01*
Y361288D02*Y360288D01*
Y361288D02*X435500Y361788D01*
X438500D01*
X439000Y361288D02*X438500Y361788D01*
X439000Y361288D02*Y360288D01*
X438000Y359788D02*X436000Y361788D01*
X438500Y362989D02*X439000Y363489D01*
X437500Y362989D02*X438500D01*
X437500D02*X437000Y363489D01*
Y364489D02*Y363489D01*
Y364489D02*X437500Y364989D01*
X438500D01*
X439000Y364489D02*X438500Y364989D01*
X439000Y364489D02*Y363489D01*
X436500Y362989D02*X437000Y363489D01*
X435500Y362989D02*X436500D01*
X435500D02*X435000Y363489D01*
Y364489D02*Y363489D01*
Y364489D02*X435500Y364989D01*
X436500D01*
X437000Y364489D02*X436500Y364989D01*
X384000Y360386D02*Y358886D01*
X383500Y358386D02*X384000Y358886D01*
X380500Y358386D02*X383500D01*
X380500D02*X380000Y358886D01*
Y360386D02*Y358886D01*
X384000Y363087D02*Y362087D01*
X380000Y362587D02*X384000D01*
X381000Y361587D02*X380000Y362587D01*
X384000Y365788D02*Y364788D01*
X380000Y365288D02*X384000D01*
X381000Y364288D02*X380000Y365288D01*
X380500Y366989D02*X380000Y367489D01*
Y368989D02*Y367489D01*
Y368989D02*X380500Y369489D01*
X381500D01*
X384000Y366989D02*X381500Y369489D01*
X384000D02*Y366989D01*
X298000Y374386D02*X299500D01*
X297500Y374886D02*X298000Y374386D01*
X297500Y377886D02*Y374886D01*
Y377886D02*X298000Y378386D01*
X299500D01*
X485000Y314886D02*X487000D01*
X487500Y314386D01*
Y313386D01*
X487000Y312886D02*X487500Y313386D01*
X485500Y312886D02*X487000D01*
X485500Y314886D02*Y310886D01*
Y312886D02*X487500Y310886D01*
X489201D02*X490201D01*
X489701Y314886D02*Y310886D01*
X488701Y313886D02*X489701Y314886D01*
X491402Y311386D02*X491902Y310886D01*
X491402Y314386D02*Y311386D01*
Y314386D02*X491902Y314886D01*
X492902D01*
X493402Y314386D01*
Y311386D01*
X492902Y310886D02*X493402Y311386D01*
X491902Y310886D02*X492902D01*
X491402Y311886D02*X493402Y313886D01*
X494603Y314386D02*X495103Y314886D01*
X496603D01*
X497103Y314386D01*
Y313386D01*
X494603Y310886D02*X497103Y313386D01*
X494603Y310886D02*X497103D01*
X345500Y203386D02*Y199386D01*
X347000Y203386D02*X347500Y202886D01*
Y199886D01*
X347000Y199386D02*X347500Y199886D01*
X345000Y199386D02*X347000D01*
X345000Y203386D02*X347000D01*
X349201Y199386D02*X350201D01*
X349701Y203386D02*Y199386D01*
X348701Y202386D02*X349701Y203386D01*
X351402Y199886D02*X351902Y199386D01*
X351402Y202886D02*Y199886D01*
Y202886D02*X351902Y203386D01*
X352902D01*
X353402Y202886D01*
Y199886D01*
X352902Y199386D02*X353402Y199886D01*
X351902Y199386D02*X352902D01*
X351402Y200386D02*X353402Y202386D01*
X354603Y202886D02*X355103Y203386D01*
X356103D01*
X356603Y202886D01*
Y199886D01*
X356103Y199386D02*X356603Y199886D01*
X355103Y199386D02*X356103D01*
X354603Y199886D02*X355103Y199386D01*
Y201386D02*X356603D01*
X240000Y203386D02*X242000D01*
X242500Y202886D01*
Y201886D01*
X242000Y201386D02*X242500Y201886D01*
X240500Y201386D02*X242000D01*
X240500Y203386D02*Y199386D01*
Y201386D02*X242500Y199386D01*
X244201D02*X245201D01*
X244701Y203386D02*Y199386D01*
X243701Y202386D02*X244701Y203386D01*
X246402Y199886D02*X246902Y199386D01*
X246402Y202886D02*Y199886D01*
Y202886D02*X246902Y203386D01*
X247902D01*
X248402Y202886D01*
Y199886D01*
X247902Y199386D02*X248402Y199886D01*
X246902Y199386D02*X247902D01*
X246402Y200386D02*X248402Y202386D01*
X249603Y199386D02*X251603Y201386D01*
Y202886D02*Y201386D01*
X251103Y203386D02*X251603Y202886D01*
X250103Y203386D02*X251103D01*
X249603Y202886D02*X250103Y203386D01*
X249603Y202886D02*Y201886D01*
X250103Y201386D01*
X251603D01*
X295500Y203386D02*Y199386D01*
X297000Y203386D02*X297500Y202886D01*
Y199886D01*
X297000Y199386D02*X297500Y199886D01*
X295000Y199386D02*X297000D01*
X295000Y203386D02*X297000D01*
X299201Y199386D02*X300201D01*
X299701Y203386D02*Y199386D01*
X298701Y202386D02*X299701Y203386D01*
X301402Y199886D02*X301902Y199386D01*
X301402Y202886D02*Y199886D01*
Y202886D02*X301902Y203386D01*
X302902D01*
X303402Y202886D01*
Y199886D01*
X302902Y199386D02*X303402Y199886D01*
X301902Y199386D02*X302902D01*
X301402Y200386D02*X303402Y202386D01*
X304603Y202886D02*X305103Y203386D01*
X306603D01*
X307103Y202886D01*
Y201886D01*
X304603Y199386D02*X307103Y201886D01*
X304603Y199386D02*X307103D01*
X257500Y50886D02*Y48886D01*
X257000Y48386D01*
X256000D02*X257000D01*
X255500Y48886D02*X256000Y48386D01*
X255500Y50386D02*Y48886D01*
X253500Y50386D02*X257500D01*
X255500D02*X253500Y48386D01*
Y46685D02*Y45685D01*
Y46185D02*X257500D01*
X256500Y47185D02*X257500Y46185D01*
X253500Y43984D02*Y42984D01*
Y43484D02*X257500D01*
X256500Y44484D02*X257500Y43484D01*
X254000Y41783D02*X253500Y41283D01*
X254000Y41783D02*X257000D01*
X257500Y41283D01*
Y40283D01*
X257000Y39783D01*
X254000D02*X257000D01*
X253500Y40283D02*X254000Y39783D01*
X253500Y41283D02*Y40283D01*
X254500Y41783D02*X256500Y39783D01*
X106500Y40886D02*Y37886D01*
X106000Y41386D02*X106500Y40886D01*
X107000Y41386D01*
X108000D01*
X108500Y40886D01*
Y39886D01*
X108000Y39386D02*X108500Y39886D01*
X107000Y39386D02*X108000D01*
X106500Y39886D02*X107000Y39386D01*
X109701Y42886D02*X110201Y43386D01*
X111201D01*
X111701Y42886D01*
Y39886D01*
X111201Y39386D02*X111701Y39886D01*
X110201Y39386D02*X111201D01*
X109701Y39886D02*X110201Y39386D01*
Y41386D02*X111701D01*
X317000Y48386D02*X317500Y47886D01*
X315500Y48386D02*X317000D01*
X315000Y47886D02*X315500Y48386D01*
X315000Y47886D02*Y44886D01*
X315500Y44386D01*
X317000D01*
X317500Y44886D01*
Y45886D02*Y44886D01*
X317000Y46386D02*X317500Y45886D01*
X316000Y46386D02*X317000D01*
X318701Y48386D02*Y44386D01*
Y48386D02*Y47886D01*
X321201Y45386D01*
Y48386D02*Y44386D01*
X322902Y48386D02*Y44386D01*
X324402Y48386D02*X324902Y47886D01*
Y44886D01*
X324402Y44386D02*X324902Y44886D01*
X322402Y44386D02*X324402D01*
X322402Y48386D02*X324402D01*
X181500Y40886D02*Y37886D01*
X181000Y41386D02*X181500Y40886D01*
X182000Y41386D01*
X183000D01*
X183500Y40886D01*
Y39886D01*
X183000Y39386D02*X183500Y39886D01*
X182000Y39386D02*X183000D01*
X181500Y39886D02*X182000Y39386D01*
X184701Y41386D02*X186701Y43386D01*
X184701Y41386D02*X187201D01*
X186701Y43386D02*Y39386D01*
X180000Y204886D02*X182000D01*
X182500Y204386D01*
Y203386D01*
X182000Y202886D02*X182500Y203386D01*
X180500Y202886D02*X182000D01*
X180500Y204886D02*Y200886D01*
Y202886D02*X182500Y200886D01*
X184201D02*X185201D01*
X184701Y204886D02*Y200886D01*
X183701Y203886D02*X184701Y204886D01*
X186402Y201386D02*X186902Y200886D01*
X186402Y204386D02*Y201386D01*
Y204386D02*X186902Y204886D01*
X187902D01*
X188402Y204386D01*
Y201386D01*
X187902Y200886D02*X188402Y201386D01*
X186902Y200886D02*X187902D01*
X186402Y201886D02*X188402Y203886D01*
X189603Y204886D02*X191603D01*
X189603D02*Y202886D01*
X190103Y203386D01*
X191103D01*
X191603Y202886D01*
Y201386D01*
X191103Y200886D02*X191603Y201386D01*
X190103Y200886D02*X191103D01*
X189603Y201386D02*X190103Y200886D01*
X180000Y264886D02*X182000D01*
X182500Y264386D01*
Y263386D01*
X182000Y262886D02*X182500Y263386D01*
X180500Y262886D02*X182000D01*
X180500Y264886D02*Y260886D01*
Y262886D02*X182500Y260886D01*
X184201D02*X185201D01*
X184701Y264886D02*Y260886D01*
X183701Y263886D02*X184701Y264886D01*
X186402Y261386D02*X186902Y260886D01*
X186402Y264386D02*Y261386D01*
Y264386D02*X186902Y264886D01*
X187902D01*
X188402Y264386D01*
Y261386D01*
X187902Y260886D02*X188402Y261386D01*
X186902Y260886D02*X187902D01*
X186402Y261886D02*X188402Y263886D01*
X191103Y264886D02*X191603Y264386D01*
X190103Y264886D02*X191103D01*
X189603Y264386D02*X190103Y264886D01*
X189603Y264386D02*Y261386D01*
X190103Y260886D01*
X191103Y262886D02*X191603Y262386D01*
X189603Y262886D02*X191103D01*
X190103Y260886D02*X191103D01*
X191603Y261386D01*
Y262386D02*Y261386D01*
X130500Y119386D02*X132000D01*
X130000Y119886D02*X130500Y119386D01*
X130000Y122886D02*Y119886D01*
Y122886D02*X130500Y123386D01*
X132000D01*
X133701Y119386D02*X134701D01*
X134201Y123386D02*Y119386D01*
X133201Y122386D02*X134201Y123386D01*
X135902Y119886D02*X136402Y119386D01*
X135902Y122886D02*Y119886D01*
Y122886D02*X136402Y123386D01*
X137402D01*
X137902Y122886D01*
Y119886D01*
X137402Y119386D02*X137902Y119886D01*
X136402Y119386D02*X137402D01*
X135902Y120386D02*X137902Y122386D01*
X139103Y119886D02*X139603Y119386D01*
X139103Y120886D02*Y119886D01*
Y120886D02*X139603Y121386D01*
X140603D01*
X141103Y120886D01*
Y119886D01*
X140603Y119386D02*X141103Y119886D01*
X139603Y119386D02*X140603D01*
X139103Y121886D02*X139603Y121386D01*
X139103Y122886D02*Y121886D01*
Y122886D02*X139603Y123386D01*
X140603D01*
X141103Y122886D01*
Y121886D01*
X140603Y121386D02*X141103Y121886D01*
X130500Y294386D02*X132000D01*
X130000Y294886D02*X130500Y294386D01*
X130000Y297886D02*Y294886D01*
Y297886D02*X130500Y298386D01*
X132000D01*
X133701Y294386D02*X134701D01*
X134201Y298386D02*Y294386D01*
X133201Y297386D02*X134201Y298386D01*
X135902Y294886D02*X136402Y294386D01*
X135902Y297886D02*Y294886D01*
Y297886D02*X136402Y298386D01*
X137402D01*
X137902Y297886D01*
Y294886D01*
X137402Y294386D02*X137902Y294886D01*
X136402Y294386D02*X137402D01*
X135902Y295386D02*X137902Y297386D01*
X139103Y297886D02*X139603Y298386D01*
X141103D01*
X141603Y297886D01*
Y296886D01*
X139103Y294386D02*X141603Y296886D01*
X139103Y294386D02*X141603D01*
X130658Y264544D02*X132158D01*
X130158Y265044D02*X130658Y264544D01*
X130158Y268044D02*Y265044D01*
Y268044D02*X130658Y268544D01*
X132158D01*
X133859Y264544D02*X134859D01*
X134359Y268544D02*Y264544D01*
X133359Y267544D02*X134359Y268544D01*
X136060Y265044D02*X136560Y264544D01*
X136060Y268044D02*Y265044D01*
Y268044D02*X136560Y268544D01*
X137560D01*
X138060Y268044D01*
Y265044D01*
X137560Y264544D02*X138060Y265044D01*
X136560Y264544D02*X137560D01*
X136060Y265544D02*X138060Y267544D01*
X139261Y266544D02*X141261Y268544D01*
X139261Y266544D02*X141761D01*
X141261Y268544D02*Y264544D01*
X120500Y234386D02*X122000D01*
X120000Y234886D02*X120500Y234386D01*
X120000Y237886D02*Y234886D01*
Y237886D02*X120500Y238386D01*
X122000D01*
X123701Y234386D02*X124701D01*
X124201Y238386D02*Y234386D01*
X123201Y237386D02*X124201Y238386D01*
X125902Y234886D02*X126402Y234386D01*
X125902Y237886D02*Y234886D01*
Y237886D02*X126402Y238386D01*
X127402D01*
X127902Y237886D01*
Y234886D01*
X127402Y234386D02*X127902Y234886D01*
X126402Y234386D02*X127402D01*
X125902Y235386D02*X127902Y237386D01*
X129103Y238386D02*X131103D01*
X129103D02*Y236386D01*
X129603Y236886D01*
X130603D01*
X131103Y236386D01*
Y234886D01*
X130603Y234386D02*X131103Y234886D01*
X129603Y234386D02*X130603D01*
X129103Y234886D02*X129603Y234386D01*
X130500Y179386D02*X132000D01*
X130000Y179886D02*X130500Y179386D01*
X130000Y182886D02*Y179886D01*
Y182886D02*X130500Y183386D01*
X132000D01*
X133701Y179386D02*X134701D01*
X134201Y183386D02*Y179386D01*
X133201Y182386D02*X134201Y183386D01*
X135902Y179886D02*X136402Y179386D01*
X135902Y182886D02*Y179886D01*
Y182886D02*X136402Y183386D01*
X137402D01*
X137902Y182886D01*
Y179886D01*
X137402Y179386D02*X137902Y179886D01*
X136402Y179386D02*X137402D01*
X135902Y180386D02*X137902Y182386D01*
X140603Y183386D02*X141103Y182886D01*
X139603Y183386D02*X140603D01*
X139103Y182886D02*X139603Y183386D01*
X139103Y182886D02*Y179886D01*
X139603Y179386D01*
X140603Y181386D02*X141103Y180886D01*
X139103Y181386D02*X140603D01*
X139603Y179386D02*X140603D01*
X141103Y179886D01*
Y180886D02*Y179886D01*
X130500Y59386D02*X132000D01*
X130000Y59886D02*X130500Y59386D01*
X130000Y62886D02*Y59886D01*
Y62886D02*X130500Y63386D01*
X132000D01*
X133701Y59386D02*X134701D01*
X134201Y63386D02*Y59386D01*
X133201Y62386D02*X134201Y63386D01*
X136402Y59386D02*X137402D01*
X136902Y63386D02*Y59386D01*
X135902Y62386D02*X136902Y63386D01*
X138603Y59886D02*X139103Y59386D01*
X138603Y62886D02*Y59886D01*
Y62886D02*X139103Y63386D01*
X140103D01*
X140603Y62886D01*
Y59886D01*
X140103Y59386D02*X140603Y59886D01*
X139103Y59386D02*X140103D01*
X138603Y60386D02*X140603Y62386D01*
X110500Y119386D02*X112000D01*
X110000Y119886D02*X110500Y119386D01*
X110000Y122886D02*Y119886D01*
Y122886D02*X110500Y123386D01*
X112000D01*
X113701Y119386D02*X114701D01*
X114201Y123386D02*Y119386D01*
X113201Y122386D02*X114201Y123386D01*
X115902Y119886D02*X116402Y119386D01*
X115902Y122886D02*Y119886D01*
Y122886D02*X116402Y123386D01*
X117402D01*
X117902Y122886D01*
Y119886D01*
X117402Y119386D02*X117902Y119886D01*
X116402Y119386D02*X117402D01*
X115902Y120386D02*X117902Y122386D01*
X119103Y119386D02*X121103Y121386D01*
Y122886D02*Y121386D01*
X120603Y123386D02*X121103Y122886D01*
X119603Y123386D02*X120603D01*
X119103Y122886D02*X119603Y123386D01*
X119103Y122886D02*Y121886D01*
X119603Y121386D01*
X121103D01*
X105500Y179386D02*X107000D01*
X105000Y179886D02*X105500Y179386D01*
X105000Y182886D02*Y179886D01*
Y182886D02*X105500Y183386D01*
X107000D01*
X108701Y179386D02*X109701D01*
X109201Y183386D02*Y179386D01*
X108201Y182386D02*X109201Y183386D01*
X110902Y179886D02*X111402Y179386D01*
X110902Y182886D02*Y179886D01*
Y182886D02*X111402Y183386D01*
X112402D01*
X112902Y182886D01*
Y179886D01*
X112402Y179386D02*X112902Y179886D01*
X111402Y179386D02*X112402D01*
X110902Y180386D02*X112902Y182386D01*
X114103Y179386D02*X116603Y181886D01*
Y183386D02*Y181886D01*
X114103Y183386D02*X116603D01*
X110421Y59386D02*X111921D01*
X109921Y59886D02*X110421Y59386D01*
X109921Y62886D02*Y59886D01*
Y62886D02*X110421Y63386D01*
X111921D01*
X113622Y59386D02*X114622D01*
X114122Y63386D02*Y59386D01*
X113122Y62386D02*X114122Y63386D01*
X116323Y59386D02*X117323D01*
X116823Y63386D02*Y59386D01*
X115823Y62386D02*X116823Y63386D01*
X119024Y59386D02*X120024D01*
X119524Y63386D02*Y59386D01*
X118524Y62386D02*X119524Y63386D01*
M02*
