G04 start of page 3 for group 1 idx 1 *
G04 Title: 26.007.01.01.01, solder *
G04 Creator: pcb 20100929 *
G04 CreationDate: Sat Mar 21 19:59:17 2015 UTC *
G04 For: bert *
G04 Format: Gerber/RS-274X *
G04 PCB-Dimensions: 260000 115000 *
G04 PCB-Coordinate-Origin: lower left *
%MOIN*%
%FSLAX25Y25*%
%LNBACK*%
%ADD11C,0.0100*%
%ADD13C,0.0200*%
%ADD14C,0.0600*%
%ADD15C,0.0650*%
%ADD16C,0.0400*%
%ADD18R,0.0512X0.0512*%
%ADD22C,0.0380*%
%ADD23C,0.0460*%
G54D13*G36*
X250091Y40716D02*X250379Y40379D01*
X250737Y40073D01*
X251000Y39912D01*
Y13122D01*
X250091Y12213D01*
Y40716D01*
G37*
G36*
X254909Y115000D02*X260000D01*
Y0D01*
X254909D01*
Y40716D01*
X254927Y40737D01*
X255173Y41138D01*
X255353Y41573D01*
X255463Y42031D01*
X255500Y42500D01*
X255463Y42969D01*
X255353Y43427D01*
X255173Y43862D01*
X254927Y44263D01*
X254909Y44284D01*
Y86074D01*
X254938Y86079D01*
X255013Y86104D01*
X255082Y86140D01*
X255146Y86187D01*
X255201Y86243D01*
X255246Y86307D01*
X255281Y86377D01*
X255376Y86648D01*
X255444Y86928D01*
X255486Y87213D01*
X255500Y87500D01*
X255486Y87788D01*
X255444Y88073D01*
X255376Y88353D01*
X255281Y88624D01*
X255245Y88694D01*
X255200Y88758D01*
X255145Y88814D01*
X255082Y88860D01*
X255012Y88897D01*
X254938Y88921D01*
X254909Y88926D01*
Y115000D01*
G37*
G36*
Y0D02*X252500D01*
Y10380D01*
X253547Y11427D01*
X253561Y11439D01*
X253714Y11618D01*
X253837Y11819D01*
X253927Y12036D01*
X253982Y12265D01*
X254000Y12500D01*
Y39912D01*
X254263Y40073D01*
X254621Y40379D01*
X254909Y40716D01*
Y0D01*
G37*
G36*
X252500Y115000D02*X254909D01*
Y88926D01*
X254861Y88934D01*
X254782Y88935D01*
X254705Y88924D01*
X254630Y88900D01*
X254560Y88865D01*
X254496Y88820D01*
X254440Y88765D01*
X254394Y88702D01*
X254357Y88632D01*
X254333Y88558D01*
X254320Y88481D01*
X254319Y88402D01*
X254330Y88325D01*
X254354Y88250D01*
X254417Y88069D01*
X254463Y87882D01*
X254490Y87692D01*
X254500Y87500D01*
X254490Y87309D01*
X254463Y87119D01*
X254417Y86932D01*
X254354Y86751D01*
X254329Y86676D01*
X254318Y86598D01*
X254319Y86520D01*
X254332Y86443D01*
X254357Y86368D01*
X254393Y86299D01*
X254440Y86235D01*
X254496Y86180D01*
X254560Y86135D01*
X254630Y86100D01*
X254705Y86076D01*
X254783Y86065D01*
X254861Y86066D01*
X254909Y86074D01*
Y44284D01*
X254621Y44621D01*
X254263Y44927D01*
X253862Y45173D01*
X253427Y45353D01*
X252969Y45463D01*
X252500Y45500D01*
Y84500D01*
X252787Y84514D01*
X253072Y84556D01*
X253352Y84624D01*
X253623Y84719D01*
X253693Y84755D01*
X253757Y84800D01*
X253813Y84855D01*
X253859Y84918D01*
X253896Y84988D01*
X253920Y85062D01*
X253933Y85139D01*
X253934Y85218D01*
X253923Y85295D01*
X253899Y85370D01*
X253864Y85440D01*
X253819Y85504D01*
X253764Y85560D01*
X253701Y85606D01*
X253631Y85643D01*
X253557Y85667D01*
X253480Y85680D01*
X253401Y85681D01*
X253324Y85670D01*
X253249Y85646D01*
X253068Y85583D01*
X252881Y85537D01*
X252691Y85510D01*
X252500Y85500D01*
Y89500D01*
X252691Y89491D01*
X252881Y89464D01*
X253068Y89418D01*
X253249Y89355D01*
X253324Y89330D01*
X253402Y89319D01*
X253480Y89320D01*
X253557Y89333D01*
X253632Y89358D01*
X253701Y89394D01*
X253765Y89441D01*
X253820Y89497D01*
X253865Y89561D01*
X253900Y89631D01*
X253924Y89706D01*
X253935Y89784D01*
X253934Y89862D01*
X253921Y89939D01*
X253896Y90014D01*
X253860Y90083D01*
X253813Y90147D01*
X253757Y90202D01*
X253693Y90247D01*
X253623Y90282D01*
X253352Y90377D01*
X253072Y90445D01*
X252787Y90487D01*
X252500Y90500D01*
Y115000D01*
G37*
G36*
Y0D02*X250091D01*
Y8507D01*
X250235Y8518D01*
X250464Y8573D01*
X250681Y8663D01*
X250882Y8786D01*
X251061Y8939D01*
X251073Y8953D01*
X252500Y10380D01*
Y0D01*
G37*
G36*
X250091Y115000D02*X252500D01*
Y90500D01*
X252212Y90487D01*
X251927Y90445D01*
X251647Y90377D01*
X251376Y90282D01*
X251306Y90246D01*
X251242Y90201D01*
X251186Y90146D01*
X251140Y90083D01*
X251103Y90013D01*
X251079Y89939D01*
X251066Y89862D01*
X251065Y89783D01*
X251076Y89706D01*
X251100Y89631D01*
X251135Y89561D01*
X251180Y89497D01*
X251235Y89441D01*
X251298Y89395D01*
X251368Y89358D01*
X251442Y89334D01*
X251519Y89321D01*
X251598Y89320D01*
X251675Y89331D01*
X251750Y89355D01*
X251931Y89418D01*
X252118Y89464D01*
X252308Y89491D01*
X252500Y89500D01*
Y85500D01*
X252499D01*
X252308Y85510D01*
X252118Y85537D01*
X251931Y85583D01*
X251750Y85646D01*
X251675Y85671D01*
X251597Y85682D01*
X251519Y85681D01*
X251442Y85668D01*
X251367Y85643D01*
X251298Y85607D01*
X251234Y85560D01*
X251179Y85504D01*
X251134Y85440D01*
X251099Y85370D01*
X251075Y85295D01*
X251064Y85217D01*
X251065Y85139D01*
X251078Y85062D01*
X251103Y84987D01*
X251139Y84918D01*
X251186Y84854D01*
X251242Y84799D01*
X251306Y84754D01*
X251376Y84719D01*
X251647Y84624D01*
X251927Y84556D01*
X252212Y84514D01*
X252499Y84500D01*
X252500D01*
Y45500D01*
X252031Y45463D01*
X251573Y45353D01*
X251138Y45173D01*
X250737Y44927D01*
X250379Y44621D01*
X250091Y44284D01*
Y86075D01*
X250138Y86067D01*
X250217Y86066D01*
X250294Y86077D01*
X250369Y86101D01*
X250439Y86136D01*
X250503Y86181D01*
X250559Y86236D01*
X250605Y86299D01*
X250642Y86369D01*
X250666Y86443D01*
X250679Y86520D01*
X250680Y86599D01*
X250669Y86676D01*
X250645Y86751D01*
X250582Y86932D01*
X250536Y87119D01*
X250509Y87309D01*
X250500Y87501D01*
X250509Y87692D01*
X250536Y87882D01*
X250582Y88069D01*
X250645Y88250D01*
X250670Y88325D01*
X250681Y88403D01*
X250680Y88481D01*
X250667Y88558D01*
X250642Y88633D01*
X250606Y88702D01*
X250559Y88766D01*
X250503Y88821D01*
X250439Y88866D01*
X250369Y88901D01*
X250294Y88925D01*
X250216Y88936D01*
X250138Y88935D01*
X250091Y88927D01*
Y115000D01*
G37*
G36*
Y0D02*X242500D01*
Y8500D01*
X250000D01*
X250091Y8507D01*
Y0D01*
G37*
G36*
X242500Y115000D02*X250091D01*
Y88927D01*
X250061Y88922D01*
X249986Y88897D01*
X249917Y88861D01*
X249853Y88814D01*
X249798Y88758D01*
X249753Y88694D01*
X249718Y88624D01*
X249623Y88353D01*
X249555Y88073D01*
X249513Y87788D01*
X249500Y87501D01*
X249513Y87213D01*
X249555Y86928D01*
X249623Y86648D01*
X249718Y86377D01*
X249754Y86307D01*
X249799Y86243D01*
X249854Y86187D01*
X249917Y86141D01*
X249987Y86104D01*
X250061Y86080D01*
X250091Y86075D01*
Y44284D01*
X250073Y44263D01*
X249827Y43862D01*
X249647Y43427D01*
X249537Y42969D01*
X249500Y42500D01*
X249537Y42031D01*
X249647Y41573D01*
X249827Y41138D01*
X250073Y40737D01*
X250091Y40716D01*
Y12213D01*
X249378Y11500D01*
X242500D01*
Y18042D01*
X246199Y18048D01*
X246352Y18085D01*
X246497Y18145D01*
X246631Y18227D01*
X246750Y18329D01*
X246852Y18448D01*
X246934Y18582D01*
X246994Y18727D01*
X247031Y18880D01*
X247043Y19036D01*
X247031Y24310D01*
X246994Y24463D01*
X246934Y24608D01*
X246852Y24742D01*
X246750Y24861D01*
X246631Y24963D01*
X246497Y25045D01*
X246352Y25105D01*
X246199Y25142D01*
X246043Y25154D01*
X242500Y25148D01*
Y29852D01*
X246199Y29858D01*
X246352Y29895D01*
X246497Y29955D01*
X246631Y30037D01*
X246750Y30139D01*
X246852Y30258D01*
X246934Y30392D01*
X246994Y30537D01*
X247031Y30690D01*
X247043Y30846D01*
X247031Y36120D01*
X246994Y36273D01*
X246934Y36418D01*
X246852Y36552D01*
X246750Y36671D01*
X246631Y36773D01*
X246497Y36855D01*
X246352Y36915D01*
X246199Y36952D01*
X246043Y36964D01*
X244000Y36961D01*
Y37412D01*
X244263Y37573D01*
X244621Y37879D01*
X244927Y38237D01*
X245173Y38638D01*
X245353Y39073D01*
X245463Y39531D01*
X245500Y40000D01*
X245463Y40469D01*
X245353Y40927D01*
X245173Y41362D01*
X244927Y41763D01*
X244621Y42121D01*
X244263Y42427D01*
X243862Y42673D01*
X243427Y42853D01*
X242969Y42963D01*
X242500Y43000D01*
Y115000D01*
G37*
G36*
X232500Y8500D02*X242500D01*
Y0D01*
X232500D01*
Y8500D01*
G37*
G36*
Y38500D02*X239912D01*
X240073Y38237D01*
X240379Y37879D01*
X240737Y37573D01*
X241000Y37412D01*
Y36956D01*
X238801Y36952D01*
X238648Y36915D01*
X238503Y36855D01*
X238369Y36773D01*
X238250Y36671D01*
X238148Y36552D01*
X238066Y36418D01*
X238006Y36273D01*
X237969Y36120D01*
X237957Y35964D01*
X237969Y30690D01*
X238006Y30537D01*
X238066Y30392D01*
X238148Y30258D01*
X238250Y30139D01*
X238369Y30037D01*
X238503Y29955D01*
X238648Y29895D01*
X238801Y29858D01*
X238957Y29846D01*
X242500Y29852D01*
Y25148D01*
X238801Y25142D01*
X238648Y25105D01*
X238503Y25045D01*
X238369Y24963D01*
X238250Y24861D01*
X238148Y24742D01*
X238066Y24608D01*
X238006Y24463D01*
X237969Y24310D01*
X237957Y24154D01*
X237969Y18880D01*
X238006Y18727D01*
X238066Y18582D01*
X238148Y18448D01*
X238250Y18329D01*
X238369Y18227D01*
X238503Y18145D01*
X238648Y18085D01*
X238801Y18048D01*
X238957Y18036D01*
X242500Y18042D01*
Y11500D01*
X232500D01*
Y38500D01*
G37*
G36*
Y115000D02*X242500D01*
Y43000D01*
X242031Y42963D01*
X241573Y42853D01*
X241138Y42673D01*
X240737Y42427D01*
X240379Y42121D01*
X240073Y41763D01*
X239912Y41500D01*
X232500D01*
Y77000D01*
X232969Y77037D01*
X233427Y77147D01*
X233862Y77327D01*
X234263Y77573D01*
X234621Y77879D01*
X234927Y78237D01*
X235173Y78638D01*
X235353Y79073D01*
X235463Y79531D01*
X235500Y80000D01*
X235463Y80469D01*
X235353Y80927D01*
X235173Y81362D01*
X234927Y81763D01*
X234621Y82121D01*
X234263Y82427D01*
X234000Y82588D01*
Y83044D01*
X236199Y83048D01*
X236352Y83085D01*
X236497Y83145D01*
X236631Y83227D01*
X236750Y83329D01*
X236852Y83448D01*
X236934Y83582D01*
X236994Y83727D01*
X237031Y83880D01*
X237043Y84036D01*
X237031Y89310D01*
X236994Y89463D01*
X236934Y89608D01*
X236852Y89742D01*
X236750Y89861D01*
X236631Y89963D01*
X236497Y90045D01*
X236352Y90105D01*
X236199Y90142D01*
X236043Y90154D01*
X232500Y90148D01*
Y94852D01*
X236199Y94858D01*
X236352Y94895D01*
X236497Y94955D01*
X236631Y95037D01*
X236750Y95139D01*
X236852Y95258D01*
X236934Y95392D01*
X236994Y95537D01*
X237031Y95690D01*
X237043Y95846D01*
X237031Y101120D01*
X236994Y101273D01*
X236934Y101418D01*
X236852Y101552D01*
X236750Y101671D01*
X236631Y101773D01*
X236497Y101855D01*
X236352Y101915D01*
X236199Y101952D01*
X236043Y101964D01*
X232500Y101958D01*
Y103250D01*
X233165Y103302D01*
X233813Y103458D01*
X234429Y103713D01*
X234998Y104062D01*
X235505Y104495D01*
X235938Y105002D01*
X236287Y105571D01*
X236542Y106187D01*
X236698Y106835D01*
X236750Y107500D01*
X236698Y108165D01*
X236542Y108813D01*
X236287Y109429D01*
X235938Y109998D01*
X235505Y110505D01*
X234998Y110938D01*
X234429Y111287D01*
X233813Y111542D01*
X233165Y111698D01*
X232500Y111750D01*
Y115000D01*
G37*
G36*
X192500Y8500D02*X232500D01*
Y0D01*
X192500D01*
Y8500D01*
G37*
G36*
X202500Y18042D02*X206199Y18048D01*
X206352Y18085D01*
X206497Y18145D01*
X206631Y18227D01*
X206750Y18329D01*
X206852Y18448D01*
X206934Y18582D01*
X206994Y18727D01*
X207031Y18880D01*
X207043Y19036D01*
X207038Y21000D01*
X207500D01*
X207735Y21018D01*
X207964Y21073D01*
X208181Y21163D01*
X208382Y21286D01*
X208561Y21439D01*
X208573Y21453D01*
X211047Y23927D01*
X211061Y23939D01*
X211214Y24118D01*
X211337Y24319D01*
X211427Y24536D01*
X211482Y24765D01*
X211500Y25000D01*
Y38500D01*
X232500D01*
Y11500D01*
X202500D01*
Y18042D01*
G37*
G36*
Y37000D02*X202969Y37037D01*
X203427Y37147D01*
X203862Y37327D01*
X204263Y37573D01*
X204621Y37879D01*
X204927Y38237D01*
X205088Y38500D01*
X208500D01*
Y25622D01*
X207031Y24153D01*
Y24310D01*
X206994Y24463D01*
X206934Y24608D01*
X206852Y24742D01*
X206750Y24861D01*
X206631Y24963D01*
X206497Y25045D01*
X206352Y25105D01*
X206199Y25142D01*
X206043Y25154D01*
X202500Y25148D01*
Y29852D01*
X206199Y29858D01*
X206352Y29895D01*
X206497Y29955D01*
X206631Y30037D01*
X206750Y30139D01*
X206852Y30258D01*
X206934Y30392D01*
X206994Y30537D01*
X207031Y30690D01*
X207043Y30846D01*
X207031Y36120D01*
X206994Y36273D01*
X206934Y36418D01*
X206852Y36552D01*
X206750Y36671D01*
X206631Y36773D01*
X206497Y36855D01*
X206352Y36915D01*
X206199Y36952D01*
X206043Y36964D01*
X202500Y36958D01*
Y37000D01*
G37*
G36*
X192500Y38500D02*X199912D01*
X200073Y38237D01*
X200379Y37879D01*
X200737Y37573D01*
X201138Y37327D01*
X201573Y37147D01*
X202031Y37037D01*
X202500Y37000D01*
Y36958D01*
X198801Y36952D01*
X198648Y36915D01*
X198503Y36855D01*
X198369Y36773D01*
X198250Y36671D01*
X198148Y36552D01*
X198066Y36418D01*
X198006Y36273D01*
X197969Y36120D01*
X197957Y35964D01*
X197969Y30690D01*
X198006Y30537D01*
X198066Y30392D01*
X198148Y30258D01*
X198250Y30139D01*
X198369Y30037D01*
X198503Y29955D01*
X198648Y29895D01*
X198801Y29858D01*
X198957Y29846D01*
X202500Y29852D01*
Y25148D01*
X198801Y25142D01*
X198648Y25105D01*
X198503Y25045D01*
X198369Y24963D01*
X198250Y24861D01*
X198148Y24742D01*
X198066Y24608D01*
X198006Y24463D01*
X197969Y24310D01*
X197957Y24154D01*
X197969Y18880D01*
X198006Y18727D01*
X198066Y18582D01*
X198148Y18448D01*
X198250Y18329D01*
X198369Y18227D01*
X198503Y18145D01*
X198648Y18085D01*
X198801Y18048D01*
X198957Y18036D01*
X202500Y18042D01*
Y11500D01*
X192500D01*
Y38500D01*
G37*
G36*
X194909Y78216D02*X194927Y78237D01*
X195173Y78638D01*
X195353Y79073D01*
X195463Y79531D01*
X195500Y80000D01*
X195463Y80469D01*
X195353Y80927D01*
X195173Y81362D01*
X194927Y81763D01*
X194909Y81784D01*
Y83046D01*
X196199Y83048D01*
X196352Y83085D01*
X196497Y83145D01*
X196631Y83227D01*
X196750Y83329D01*
X196852Y83448D01*
X196934Y83582D01*
X196994Y83727D01*
X197031Y83880D01*
X197043Y84036D01*
X197039Y86000D01*
X227964D01*
X227969Y83880D01*
X228006Y83727D01*
X228066Y83582D01*
X228148Y83448D01*
X228250Y83329D01*
X228369Y83227D01*
X228503Y83145D01*
X228648Y83085D01*
X228801Y83048D01*
X228957Y83036D01*
X231000Y83039D01*
Y82588D01*
X230737Y82427D01*
X230379Y82121D01*
X230073Y81763D01*
X229827Y81362D01*
X229647Y80927D01*
X229537Y80469D01*
X229500Y80000D01*
X229537Y79531D01*
X229647Y79073D01*
X229827Y78638D01*
X230073Y78237D01*
X230379Y77879D01*
X230737Y77573D01*
X231138Y77327D01*
X231573Y77147D01*
X232031Y77037D01*
X232500Y77000D01*
Y41500D01*
X205088D01*
X204927Y41763D01*
X204621Y42121D01*
X204263Y42427D01*
X203862Y42673D01*
X203427Y42853D01*
X202969Y42963D01*
X202500Y43000D01*
X202031Y42963D01*
X201573Y42853D01*
X201138Y42673D01*
X200737Y42427D01*
X200379Y42121D01*
X200073Y41763D01*
X199912Y41500D01*
X194909D01*
Y56074D01*
X194938Y56079D01*
X195013Y56104D01*
X195082Y56140D01*
X195146Y56187D01*
X195201Y56243D01*
X195246Y56307D01*
X195281Y56377D01*
X195376Y56648D01*
X195444Y56928D01*
X195486Y57213D01*
X195500Y57500D01*
X195486Y57788D01*
X195444Y58073D01*
X195376Y58353D01*
X195281Y58624D01*
X195245Y58694D01*
X195200Y58758D01*
X195145Y58814D01*
X195082Y58860D01*
X195012Y58897D01*
X194938Y58921D01*
X194909Y58926D01*
Y61004D01*
X195073Y60737D01*
X195379Y60379D01*
X195737Y60073D01*
X196138Y59827D01*
X196573Y59647D01*
X197031Y59537D01*
X197500Y59500D01*
X197969Y59537D01*
X198270Y59609D01*
X198933Y58946D01*
X198939Y58939D01*
X199118Y58786D01*
X199319Y58663D01*
X199536Y58573D01*
X199765Y58518D01*
X200000Y58500D01*
X206879D01*
X208500Y56879D01*
Y50088D01*
X208237Y49927D01*
X207879Y49621D01*
X207573Y49263D01*
X207327Y48862D01*
X207147Y48427D01*
X207037Y47969D01*
X207000Y47500D01*
X207037Y47031D01*
X207147Y46573D01*
X207327Y46138D01*
X207573Y45737D01*
X207879Y45379D01*
X208237Y45073D01*
X208638Y44827D01*
X209073Y44647D01*
X209531Y44537D01*
X210000Y44500D01*
X210469Y44537D01*
X210927Y44647D01*
X211362Y44827D01*
X211763Y45073D01*
X212121Y45379D01*
X212427Y45737D01*
X212673Y46138D01*
X212853Y46573D01*
X212963Y47031D01*
X213000Y47500D01*
X212963Y47969D01*
X212853Y48427D01*
X212673Y48862D01*
X212427Y49263D01*
X212121Y49621D01*
X211763Y49927D01*
X211500Y50088D01*
Y57501D01*
X211482Y57735D01*
X211427Y57964D01*
X211337Y58181D01*
X211214Y58382D01*
X211061Y58561D01*
X211054Y58567D01*
X208567Y61054D01*
X208561Y61061D01*
X208382Y61214D01*
X208181Y61337D01*
X207964Y61427D01*
X207735Y61482D01*
X207518Y61499D01*
X207501Y61500D01*
X200621D01*
X200391Y61730D01*
X200463Y62031D01*
X200500Y62500D01*
X200463Y62969D01*
X200353Y63427D01*
X200173Y63862D01*
X199927Y64263D01*
X199621Y64621D01*
X199263Y64927D01*
X198862Y65173D01*
X198427Y65353D01*
X197969Y65463D01*
X197500Y65500D01*
X197031Y65463D01*
X196573Y65353D01*
X196138Y65173D01*
X195737Y64927D01*
X195379Y64621D01*
X195073Y64263D01*
X194909Y63996D01*
Y78216D01*
G37*
G36*
Y81784D02*X194621Y82121D01*
X194263Y82427D01*
X194000Y82588D01*
Y83044D01*
X194909Y83046D01*
Y81784D01*
G37*
G36*
X192500Y77000D02*X192969Y77037D01*
X193427Y77147D01*
X193862Y77327D01*
X194263Y77573D01*
X194621Y77879D01*
X194909Y78216D01*
Y63996D01*
X194827Y63862D01*
X194647Y63427D01*
X194537Y62969D01*
X194500Y62500D01*
X194537Y62031D01*
X194647Y61573D01*
X194827Y61138D01*
X194909Y61004D01*
Y58926D01*
X194861Y58934D01*
X194782Y58935D01*
X194705Y58924D01*
X194630Y58900D01*
X194560Y58865D01*
X194496Y58820D01*
X194440Y58765D01*
X194394Y58702D01*
X194357Y58632D01*
X194333Y58558D01*
X194320Y58481D01*
X194319Y58402D01*
X194330Y58325D01*
X194354Y58250D01*
X194417Y58069D01*
X194463Y57882D01*
X194490Y57692D01*
X194500Y57500D01*
X194490Y57309D01*
X194463Y57119D01*
X194417Y56932D01*
X194354Y56751D01*
X194329Y56676D01*
X194318Y56598D01*
X194319Y56520D01*
X194332Y56443D01*
X194357Y56368D01*
X194393Y56299D01*
X194440Y56235D01*
X194496Y56180D01*
X194560Y56135D01*
X194630Y56100D01*
X194705Y56076D01*
X194783Y56065D01*
X194861Y56066D01*
X194909Y56074D01*
Y41500D01*
X192500D01*
Y54500D01*
X192787Y54514D01*
X193072Y54556D01*
X193352Y54624D01*
X193623Y54719D01*
X193693Y54755D01*
X193757Y54800D01*
X193813Y54855D01*
X193859Y54918D01*
X193896Y54988D01*
X193920Y55062D01*
X193933Y55139D01*
X193934Y55218D01*
X193923Y55295D01*
X193899Y55370D01*
X193864Y55440D01*
X193819Y55504D01*
X193764Y55560D01*
X193701Y55606D01*
X193631Y55643D01*
X193557Y55667D01*
X193480Y55680D01*
X193401Y55681D01*
X193324Y55670D01*
X193249Y55646D01*
X193068Y55583D01*
X192881Y55537D01*
X192691Y55510D01*
X192500Y55500D01*
Y59500D01*
X192691Y59491D01*
X192881Y59464D01*
X193068Y59418D01*
X193249Y59355D01*
X193324Y59330D01*
X193402Y59319D01*
X193480Y59320D01*
X193557Y59333D01*
X193632Y59358D01*
X193701Y59394D01*
X193765Y59441D01*
X193820Y59497D01*
X193865Y59561D01*
X193900Y59631D01*
X193924Y59706D01*
X193935Y59784D01*
X193934Y59862D01*
X193921Y59939D01*
X193896Y60014D01*
X193860Y60083D01*
X193813Y60147D01*
X193757Y60202D01*
X193693Y60247D01*
X193623Y60282D01*
X193352Y60377D01*
X193072Y60445D01*
X192787Y60487D01*
X192500Y60500D01*
Y77000D01*
G37*
G36*
X227409Y106000D02*X228535D01*
X228713Y105571D01*
X229062Y105002D01*
X229495Y104495D01*
X230002Y104062D01*
X230571Y103713D01*
X231187Y103458D01*
X231835Y103302D01*
X232500Y103250D01*
Y101958D01*
X228801Y101952D01*
X228648Y101915D01*
X228503Y101855D01*
X228369Y101773D01*
X228250Y101671D01*
X228148Y101552D01*
X228066Y101418D01*
X228006Y101273D01*
X227969Y101120D01*
X227957Y100964D01*
X227969Y95690D01*
X228006Y95537D01*
X228066Y95392D01*
X228148Y95258D01*
X228250Y95139D01*
X228369Y95037D01*
X228503Y94955D01*
X228648Y94895D01*
X228801Y94858D01*
X228957Y94846D01*
X232500Y94852D01*
Y90148D01*
X228801Y90142D01*
X228648Y90105D01*
X228503Y90045D01*
X228369Y89963D01*
X228250Y89861D01*
X228148Y89742D01*
X228066Y89608D01*
X228006Y89463D01*
X227969Y89310D01*
X227957Y89154D01*
Y89000D01*
X227409D01*
Y101074D01*
X227438Y101079D01*
X227513Y101104D01*
X227582Y101140D01*
X227646Y101187D01*
X227701Y101243D01*
X227746Y101307D01*
X227781Y101377D01*
X227876Y101648D01*
X227944Y101928D01*
X227986Y102213D01*
X228000Y102500D01*
X227986Y102788D01*
X227944Y103073D01*
X227876Y103353D01*
X227781Y103624D01*
X227745Y103694D01*
X227700Y103758D01*
X227645Y103814D01*
X227582Y103860D01*
X227512Y103897D01*
X227438Y103921D01*
X227409Y103926D01*
Y106000D01*
G37*
G36*
X225000D02*X227409D01*
Y103926D01*
X227361Y103934D01*
X227282Y103935D01*
X227205Y103924D01*
X227130Y103900D01*
X227060Y103865D01*
X226996Y103820D01*
X226940Y103765D01*
X226894Y103702D01*
X226857Y103632D01*
X226833Y103558D01*
X226820Y103481D01*
X226819Y103402D01*
X226830Y103325D01*
X226854Y103250D01*
X226917Y103069D01*
X226963Y102882D01*
X226990Y102692D01*
X227000Y102500D01*
X226990Y102309D01*
X226963Y102119D01*
X226917Y101932D01*
X226854Y101751D01*
X226829Y101676D01*
X226818Y101598D01*
X226819Y101520D01*
X226832Y101443D01*
X226857Y101368D01*
X226893Y101299D01*
X226940Y101235D01*
X226996Y101180D01*
X227060Y101135D01*
X227130Y101100D01*
X227205Y101076D01*
X227283Y101065D01*
X227361Y101066D01*
X227409Y101074D01*
Y89000D01*
X225000D01*
Y99500D01*
X225287Y99514D01*
X225572Y99556D01*
X225852Y99624D01*
X226123Y99719D01*
X226193Y99755D01*
X226257Y99800D01*
X226313Y99855D01*
X226359Y99918D01*
X226396Y99988D01*
X226420Y100062D01*
X226433Y100139D01*
X226434Y100218D01*
X226423Y100295D01*
X226399Y100370D01*
X226364Y100440D01*
X226319Y100504D01*
X226264Y100560D01*
X226201Y100606D01*
X226131Y100643D01*
X226057Y100667D01*
X225980Y100680D01*
X225901Y100681D01*
X225824Y100670D01*
X225749Y100646D01*
X225568Y100583D01*
X225381Y100537D01*
X225191Y100510D01*
X225000Y100500D01*
Y104500D01*
X225191Y104491D01*
X225381Y104464D01*
X225568Y104418D01*
X225749Y104355D01*
X225824Y104330D01*
X225902Y104319D01*
X225980Y104320D01*
X226057Y104333D01*
X226132Y104358D01*
X226201Y104394D01*
X226265Y104441D01*
X226320Y104497D01*
X226365Y104561D01*
X226400Y104631D01*
X226424Y104706D01*
X226435Y104784D01*
X226434Y104862D01*
X226421Y104939D01*
X226396Y105014D01*
X226360Y105083D01*
X226313Y105147D01*
X226257Y105202D01*
X226193Y105247D01*
X226123Y105282D01*
X225852Y105377D01*
X225572Y105445D01*
X225287Y105487D01*
X225000Y105500D01*
Y106000D01*
G37*
G36*
X222591D02*X225000D01*
Y105500D01*
X224712Y105487D01*
X224427Y105445D01*
X224147Y105377D01*
X223876Y105282D01*
X223806Y105246D01*
X223742Y105201D01*
X223686Y105146D01*
X223640Y105083D01*
X223603Y105013D01*
X223579Y104939D01*
X223566Y104862D01*
X223565Y104783D01*
X223576Y104706D01*
X223600Y104631D01*
X223635Y104561D01*
X223680Y104497D01*
X223735Y104441D01*
X223798Y104395D01*
X223868Y104358D01*
X223942Y104334D01*
X224019Y104321D01*
X224098Y104320D01*
X224175Y104331D01*
X224250Y104355D01*
X224431Y104418D01*
X224618Y104464D01*
X224808Y104491D01*
X225000Y104500D01*
Y100500D01*
X224999D01*
X224808Y100510D01*
X224618Y100537D01*
X224431Y100583D01*
X224250Y100646D01*
X224175Y100671D01*
X224097Y100682D01*
X224019Y100681D01*
X223942Y100668D01*
X223867Y100643D01*
X223798Y100607D01*
X223734Y100560D01*
X223679Y100504D01*
X223634Y100440D01*
X223599Y100370D01*
X223575Y100295D01*
X223564Y100217D01*
X223565Y100139D01*
X223578Y100062D01*
X223603Y99987D01*
X223639Y99918D01*
X223686Y99854D01*
X223742Y99799D01*
X223806Y99754D01*
X223876Y99719D01*
X224147Y99624D01*
X224427Y99556D01*
X224712Y99514D01*
X224999Y99500D01*
X225000D01*
Y89000D01*
X222591D01*
Y101075D01*
X222638Y101067D01*
X222717Y101066D01*
X222794Y101077D01*
X222869Y101101D01*
X222939Y101136D01*
X223003Y101181D01*
X223059Y101236D01*
X223105Y101299D01*
X223142Y101369D01*
X223166Y101443D01*
X223179Y101520D01*
X223180Y101599D01*
X223169Y101676D01*
X223145Y101751D01*
X223082Y101932D01*
X223036Y102119D01*
X223009Y102309D01*
X223000Y102501D01*
X223009Y102692D01*
X223036Y102882D01*
X223082Y103069D01*
X223145Y103250D01*
X223170Y103325D01*
X223181Y103403D01*
X223180Y103481D01*
X223167Y103558D01*
X223142Y103633D01*
X223106Y103702D01*
X223059Y103766D01*
X223003Y103821D01*
X222939Y103866D01*
X222869Y103901D01*
X222794Y103925D01*
X222716Y103936D01*
X222638Y103935D01*
X222591Y103927D01*
Y106000D01*
G37*
G36*
X192500D02*X222591D01*
Y103927D01*
X222561Y103922D01*
X222486Y103897D01*
X222417Y103861D01*
X222353Y103814D01*
X222298Y103758D01*
X222253Y103694D01*
X222218Y103624D01*
X222123Y103353D01*
X222055Y103073D01*
X222013Y102788D01*
X222000Y102501D01*
X222013Y102213D01*
X222055Y101928D01*
X222123Y101648D01*
X222218Y101377D01*
X222254Y101307D01*
X222299Y101243D01*
X222354Y101187D01*
X222417Y101141D01*
X222487Y101104D01*
X222561Y101080D01*
X222591Y101075D01*
Y89000D01*
X197032D01*
X197031Y89310D01*
X196994Y89463D01*
X196934Y89608D01*
X196852Y89742D01*
X196750Y89861D01*
X196631Y89963D01*
X196497Y90045D01*
X196352Y90105D01*
X196199Y90142D01*
X196043Y90154D01*
X192500Y90148D01*
Y94852D01*
X196199Y94858D01*
X196352Y94895D01*
X196497Y94955D01*
X196631Y95037D01*
X196750Y95139D01*
X196852Y95258D01*
X196934Y95392D01*
X196994Y95537D01*
X197031Y95690D01*
X197043Y95846D01*
X197031Y101120D01*
X196994Y101273D01*
X196934Y101418D01*
X196852Y101552D01*
X196750Y101671D01*
X196631Y101773D01*
X196497Y101855D01*
X196352Y101915D01*
X196199Y101952D01*
X196043Y101964D01*
X192500Y101958D01*
Y106000D01*
G37*
G36*
Y115000D02*X232500D01*
Y111750D01*
X231835Y111698D01*
X231187Y111542D01*
X230571Y111287D01*
X230002Y110938D01*
X229495Y110505D01*
X229062Y109998D01*
X228713Y109429D01*
X228535Y109000D01*
X192500D01*
Y115000D01*
G37*
G36*
X62500Y1270D02*X62957Y990D01*
X63609Y720D01*
X64296Y555D01*
X65000Y500D01*
X65704Y555D01*
X66391Y720D01*
X67043Y990D01*
X67645Y1359D01*
X68182Y1818D01*
X68641Y2355D01*
X69010Y2957D01*
X69280Y3609D01*
X69445Y4296D01*
X69500Y5000D01*
X69445Y5704D01*
X69280Y6391D01*
X69010Y7043D01*
X68641Y7645D01*
X68182Y8182D01*
X67810Y8500D01*
X72190D01*
X71818Y8182D01*
X71359Y7645D01*
X70990Y7043D01*
X70720Y6391D01*
X70555Y5704D01*
X70500Y5000D01*
X70555Y4296D01*
X70720Y3609D01*
X70990Y2957D01*
X71359Y2355D01*
X71818Y1818D01*
X72355Y1359D01*
X72957Y990D01*
X73609Y720D01*
X74296Y555D01*
X75000Y500D01*
X75704Y555D01*
X76391Y720D01*
X77043Y990D01*
X77645Y1359D01*
X78182Y1818D01*
X78641Y2355D01*
X79010Y2957D01*
X79280Y3609D01*
X79445Y4296D01*
X79500Y5000D01*
X79445Y5704D01*
X79280Y6391D01*
X79010Y7043D01*
X78641Y7645D01*
X78182Y8182D01*
X77810Y8500D01*
X192500D01*
Y0D01*
X62500D01*
Y1270D01*
G37*
G36*
X165000Y29852D02*X168699Y29858D01*
X168852Y29895D01*
X168997Y29955D01*
X169131Y30037D01*
X169250Y30139D01*
X169352Y30258D01*
X169434Y30392D01*
X169494Y30537D01*
X169531Y30690D01*
X169543Y30846D01*
X169531Y36120D01*
X169494Y36273D01*
X169434Y36418D01*
X169352Y36552D01*
X169250Y36671D01*
X169131Y36773D01*
X168997Y36855D01*
X168852Y36915D01*
X168699Y36952D01*
X168543Y36964D01*
X166500Y36961D01*
Y37412D01*
X166763Y37573D01*
X167121Y37879D01*
X167427Y38237D01*
X167588Y38500D01*
X192500D01*
Y11500D01*
X165000D01*
Y18042D01*
X168699Y18048D01*
X168852Y18085D01*
X168997Y18145D01*
X169131Y18227D01*
X169250Y18329D01*
X169352Y18448D01*
X169434Y18582D01*
X169494Y18727D01*
X169531Y18880D01*
X169543Y19036D01*
X169531Y24310D01*
X169494Y24463D01*
X169434Y24608D01*
X169352Y24742D01*
X169250Y24861D01*
X169131Y24963D01*
X168997Y25045D01*
X168852Y25105D01*
X168699Y25142D01*
X168543Y25154D01*
X165000Y25148D01*
Y26000D01*
X172412D01*
X172573Y25737D01*
X172879Y25379D01*
X173237Y25073D01*
X173638Y24827D01*
X174073Y24647D01*
X174531Y24537D01*
X175000Y24500D01*
X175469Y24537D01*
X175927Y24647D01*
X176362Y24827D01*
X176763Y25073D01*
X177121Y25379D01*
X177427Y25737D01*
X177673Y26138D01*
X177853Y26573D01*
X177963Y27031D01*
X178000Y27500D01*
X177963Y27969D01*
X177853Y28427D01*
X177673Y28862D01*
X177427Y29263D01*
X177121Y29621D01*
X176763Y29927D01*
X176362Y30173D01*
X175927Y30353D01*
X175469Y30463D01*
X175000Y30500D01*
X174531Y30463D01*
X174073Y30353D01*
X173638Y30173D01*
X173237Y29927D01*
X172879Y29621D01*
X172573Y29263D01*
X172412Y29000D01*
X165000D01*
Y29852D01*
G37*
G36*
X138497Y26000D02*X165000D01*
Y25148D01*
X161301Y25142D01*
X161148Y25105D01*
X161003Y25045D01*
X160869Y24963D01*
X160750Y24861D01*
X160648Y24742D01*
X160566Y24608D01*
X160506Y24463D01*
X160469Y24310D01*
X160457Y24154D01*
X160469Y18880D01*
X160506Y18727D01*
X160566Y18582D01*
X160648Y18448D01*
X160750Y18329D01*
X160869Y18227D01*
X161003Y18145D01*
X161148Y18085D01*
X161301Y18048D01*
X161457Y18036D01*
X165000Y18042D01*
Y11500D01*
X138497D01*
Y15232D01*
X138559Y15268D01*
X138621Y15316D01*
X138674Y15374D01*
X138717Y15440D01*
X138893Y15797D01*
X139035Y16168D01*
X139142Y16551D01*
X139213Y16942D01*
X139246Y17339D01*
X139243Y17736D01*
X139202Y18132D01*
X139125Y18522D01*
X139011Y18903D01*
X138863Y19272D01*
X138680Y19626D01*
X138636Y19689D01*
X138582Y19746D01*
X138520Y19793D01*
X138497Y19806D01*
Y26000D01*
G37*
G36*
X134972D02*X138497D01*
Y19806D01*
X138451Y19831D01*
X138377Y19857D01*
X138300Y19872D01*
X138222Y19874D01*
X138144Y19864D01*
X138069Y19842D01*
X137998Y19808D01*
X137933Y19764D01*
X137876Y19710D01*
X137829Y19648D01*
X137791Y19579D01*
X137765Y19505D01*
X137750Y19428D01*
X137748Y19350D01*
X137758Y19272D01*
X137780Y19197D01*
X137814Y19126D01*
X137954Y18855D01*
X138067Y18573D01*
X138154Y18282D01*
X138213Y17983D01*
X138244Y17681D01*
X138247Y17377D01*
X138221Y17074D01*
X138167Y16774D01*
X138086Y16481D01*
X137977Y16197D01*
X137842Y15925D01*
X137809Y15853D01*
X137788Y15777D01*
X137779Y15699D01*
X137782Y15620D01*
X137798Y15543D01*
X137826Y15470D01*
X137865Y15402D01*
X137913Y15340D01*
X137971Y15287D01*
X138037Y15244D01*
X138108Y15212D01*
X138184Y15191D01*
X138262Y15182D01*
X138341Y15185D01*
X138418Y15201D01*
X138491Y15229D01*
X138497Y15232D01*
Y11500D01*
X134972D01*
Y13255D01*
X135235Y13257D01*
X135631Y13298D01*
X136021Y13375D01*
X136402Y13489D01*
X136771Y13637D01*
X137124Y13820D01*
X137191Y13865D01*
X137248Y13919D01*
X137295Y13981D01*
X137333Y14050D01*
X137359Y14124D01*
X137373Y14202D01*
X137375Y14280D01*
X137364Y14358D01*
X137342Y14433D01*
X137308Y14504D01*
X137263Y14569D01*
X137209Y14626D01*
X137147Y14673D01*
X137078Y14711D01*
X137004Y14737D01*
X136926Y14751D01*
X136848Y14753D01*
X136770Y14742D01*
X136695Y14720D01*
X136624Y14686D01*
X136354Y14546D01*
X136072Y14433D01*
X135781Y14346D01*
X135482Y14287D01*
X135180Y14256D01*
X134972Y14254D01*
Y20747D01*
X135123Y20748D01*
X135426Y20722D01*
X135726Y20668D01*
X136019Y20587D01*
X136303Y20478D01*
X136575Y20343D01*
X136647Y20310D01*
X136723Y20289D01*
X136801Y20280D01*
X136880Y20283D01*
X136957Y20299D01*
X137030Y20327D01*
X137098Y20366D01*
X137160Y20414D01*
X137213Y20472D01*
X137256Y20538D01*
X137288Y20609D01*
X137309Y20685D01*
X137318Y20763D01*
X137315Y20842D01*
X137299Y20919D01*
X137271Y20992D01*
X137232Y21060D01*
X137184Y21122D01*
X137126Y21175D01*
X137060Y21218D01*
X136703Y21394D01*
X136332Y21536D01*
X135949Y21643D01*
X135558Y21714D01*
X135161Y21747D01*
X134972Y21746D01*
Y26000D01*
G37*
G36*
X131502Y24913D02*X131763Y25073D01*
X132121Y25379D01*
X132427Y25737D01*
X132588Y26000D01*
X134972D01*
Y21746D01*
X134764Y21744D01*
X134368Y21703D01*
X133978Y21626D01*
X133597Y21512D01*
X133228Y21364D01*
X132874Y21181D01*
X132811Y21137D01*
X132754Y21083D01*
X132707Y21021D01*
X132669Y20952D01*
X132643Y20878D01*
X132628Y20801D01*
X132626Y20723D01*
X132636Y20645D01*
X132658Y20570D01*
X132692Y20499D01*
X132736Y20434D01*
X132790Y20377D01*
X132852Y20330D01*
X132921Y20292D01*
X132995Y20266D01*
X133072Y20251D01*
X133150Y20249D01*
X133228Y20259D01*
X133303Y20281D01*
X133374Y20315D01*
X133645Y20455D01*
X133927Y20568D01*
X134218Y20655D01*
X134517Y20714D01*
X134819Y20745D01*
X134972Y20747D01*
Y14254D01*
X134876Y14253D01*
X134573Y14279D01*
X134273Y14333D01*
X133980Y14414D01*
X133696Y14523D01*
X133424Y14658D01*
X133352Y14691D01*
X133276Y14712D01*
X133198Y14721D01*
X133119Y14718D01*
X133042Y14702D01*
X132969Y14674D01*
X132901Y14635D01*
X132839Y14587D01*
X132786Y14529D01*
X132743Y14463D01*
X132711Y14392D01*
X132690Y14316D01*
X132681Y14238D01*
X132684Y14159D01*
X132700Y14082D01*
X132728Y14009D01*
X132767Y13941D01*
X132815Y13879D01*
X132873Y13826D01*
X132939Y13783D01*
X133296Y13607D01*
X133667Y13465D01*
X134050Y13358D01*
X134441Y13287D01*
X134838Y13254D01*
X134972Y13255D01*
Y11500D01*
X131502D01*
Y15194D01*
X131549Y15168D01*
X131623Y15142D01*
X131700Y15128D01*
X131778Y15126D01*
X131856Y15136D01*
X131931Y15158D01*
X132002Y15192D01*
X132067Y15236D01*
X132124Y15290D01*
X132171Y15353D01*
X132209Y15422D01*
X132235Y15496D01*
X132249Y15573D01*
X132251Y15651D01*
X132241Y15729D01*
X132219Y15804D01*
X132185Y15875D01*
X132045Y16146D01*
X131932Y16428D01*
X131845Y16719D01*
X131786Y17018D01*
X131755Y17320D01*
X131752Y17624D01*
X131778Y17927D01*
X131832Y18227D01*
X131913Y18520D01*
X132022Y18804D01*
X132157Y19076D01*
X132190Y19148D01*
X132211Y19224D01*
X132220Y19302D01*
X132217Y19381D01*
X132201Y19458D01*
X132173Y19531D01*
X132134Y19599D01*
X132086Y19661D01*
X132028Y19714D01*
X131962Y19757D01*
X131891Y19789D01*
X131815Y19810D01*
X131737Y19819D01*
X131658Y19816D01*
X131581Y19800D01*
X131508Y19772D01*
X131502Y19769D01*
Y24913D01*
G37*
G36*
Y46000D02*X151879D01*
X158933Y38946D01*
X158939Y38939D01*
X159118Y38786D01*
X159319Y38663D01*
X159536Y38573D01*
X159765Y38518D01*
X160000Y38500D01*
X162412D01*
X162573Y38237D01*
X162879Y37879D01*
X163237Y37573D01*
X163500Y37412D01*
Y36956D01*
X161301Y36952D01*
X161148Y36915D01*
X161003Y36855D01*
X160869Y36773D01*
X160750Y36671D01*
X160648Y36552D01*
X160566Y36418D01*
X160506Y36273D01*
X160469Y36120D01*
X160457Y35964D01*
X160469Y30690D01*
X160506Y30537D01*
X160566Y30392D01*
X160648Y30258D01*
X160750Y30139D01*
X160869Y30037D01*
X161003Y29955D01*
X161148Y29895D01*
X161301Y29858D01*
X161457Y29846D01*
X165000Y29852D01*
Y29000D01*
X132588D01*
X132427Y29263D01*
X132121Y29621D01*
X131763Y29927D01*
X131502Y30087D01*
Y46000D01*
G37*
G36*
X112500Y29852D02*X116199Y29858D01*
X116352Y29895D01*
X116497Y29955D01*
X116631Y30037D01*
X116750Y30139D01*
X116852Y30258D01*
X116934Y30392D01*
X116994Y30537D01*
X117031Y30690D01*
X117043Y30846D01*
X117031Y36120D01*
X116994Y36273D01*
X116934Y36418D01*
X116852Y36552D01*
X116750Y36671D01*
X116631Y36773D01*
X116497Y36855D01*
X116352Y36915D01*
X116199Y36952D01*
X116043Y36964D01*
X114000Y36961D01*
Y37412D01*
X114263Y37573D01*
X114621Y37879D01*
X114927Y38237D01*
X115173Y38638D01*
X115353Y39073D01*
X115463Y39531D01*
X115500Y40000D01*
X115463Y40469D01*
X115391Y40771D01*
X120620Y46000D01*
X131502D01*
Y30087D01*
X131362Y30173D01*
X130927Y30353D01*
X130469Y30463D01*
X130000Y30500D01*
X129531Y30463D01*
X129073Y30353D01*
X128638Y30173D01*
X128237Y29927D01*
X127879Y29621D01*
X127573Y29263D01*
X127327Y28862D01*
X127147Y28427D01*
X127037Y27969D01*
X127000Y27500D01*
X127037Y27031D01*
X127147Y26573D01*
X127327Y26138D01*
X127573Y25737D01*
X127879Y25379D01*
X128237Y25073D01*
X128638Y24827D01*
X129073Y24647D01*
X129531Y24537D01*
X130000Y24500D01*
X130469Y24537D01*
X130927Y24647D01*
X131362Y24827D01*
X131502Y24913D01*
Y19769D01*
X131440Y19733D01*
X131378Y19685D01*
X131325Y19627D01*
X131282Y19561D01*
X131106Y19204D01*
X130964Y18833D01*
X130857Y18450D01*
X130786Y18059D01*
X130753Y17662D01*
X130756Y17265D01*
X130797Y16869D01*
X130874Y16479D01*
X130988Y16098D01*
X131136Y15729D01*
X131319Y15375D01*
X131363Y15310D01*
X131417Y15253D01*
X131480Y15206D01*
X131502Y15194D01*
Y11500D01*
X124000D01*
Y39912D01*
X124263Y40073D01*
X124621Y40379D01*
X124927Y40737D01*
X125173Y41138D01*
X125353Y41573D01*
X125463Y42031D01*
X125500Y42500D01*
X125463Y42969D01*
X125353Y43427D01*
X125173Y43862D01*
X124927Y44263D01*
X124621Y44621D01*
X124263Y44927D01*
X123862Y45173D01*
X123427Y45353D01*
X122969Y45463D01*
X122500Y45500D01*
X122031Y45463D01*
X121573Y45353D01*
X121138Y45173D01*
X120737Y44927D01*
X120379Y44621D01*
X120073Y44263D01*
X119827Y43862D01*
X119647Y43427D01*
X119537Y42969D01*
X119500Y42500D01*
X119537Y42031D01*
X119647Y41573D01*
X119827Y41138D01*
X120073Y40737D01*
X120379Y40379D01*
X120737Y40073D01*
X121000Y39912D01*
Y11500D01*
X112500D01*
Y18042D01*
X116199Y18048D01*
X116352Y18085D01*
X116497Y18145D01*
X116631Y18227D01*
X116750Y18329D01*
X116852Y18448D01*
X116934Y18582D01*
X116994Y18727D01*
X117031Y18880D01*
X117043Y19036D01*
X117031Y24310D01*
X116994Y24463D01*
X116934Y24608D01*
X116852Y24742D01*
X116750Y24861D01*
X116631Y24963D01*
X116497Y25045D01*
X116352Y25105D01*
X116199Y25142D01*
X116043Y25154D01*
X112500Y25148D01*
Y29852D01*
G37*
G36*
X72500Y18042D02*X76199Y18048D01*
X76352Y18085D01*
X76497Y18145D01*
X76631Y18227D01*
X76750Y18329D01*
X76852Y18448D01*
X76934Y18582D01*
X76994Y18727D01*
X77031Y18880D01*
X77043Y19036D01*
X77039Y21000D01*
X77500D01*
X77735Y21018D01*
X77964Y21073D01*
X78181Y21163D01*
X78382Y21286D01*
X78561Y21439D01*
X78573Y21453D01*
X81047Y23927D01*
X81061Y23939D01*
X81214Y24118D01*
X81337Y24319D01*
X81427Y24536D01*
X81482Y24765D01*
X81500Y25000D01*
Y38500D01*
X109912D01*
X110073Y38237D01*
X110379Y37879D01*
X110737Y37573D01*
X111000Y37412D01*
Y36956D01*
X108801Y36952D01*
X108648Y36915D01*
X108503Y36855D01*
X108369Y36773D01*
X108250Y36671D01*
X108148Y36552D01*
X108066Y36418D01*
X108006Y36273D01*
X107969Y36120D01*
X107957Y35964D01*
X107969Y30690D01*
X108006Y30537D01*
X108066Y30392D01*
X108148Y30258D01*
X108250Y30139D01*
X108369Y30037D01*
X108503Y29955D01*
X108648Y29895D01*
X108801Y29858D01*
X108957Y29846D01*
X112500Y29852D01*
Y25148D01*
X108801Y25142D01*
X108648Y25105D01*
X108503Y25045D01*
X108369Y24963D01*
X108250Y24861D01*
X108148Y24742D01*
X108066Y24608D01*
X108006Y24463D01*
X107969Y24310D01*
X107957Y24154D01*
X107969Y18880D01*
X108006Y18727D01*
X108066Y18582D01*
X108148Y18448D01*
X108250Y18329D01*
X108369Y18227D01*
X108503Y18145D01*
X108648Y18085D01*
X108801Y18048D01*
X108957Y18036D01*
X112500Y18042D01*
Y11500D01*
X72500D01*
Y18042D01*
G37*
G36*
Y37000D02*X72969Y37037D01*
X73427Y37147D01*
X73862Y37327D01*
X74263Y37573D01*
X74621Y37879D01*
X74927Y38237D01*
X75088Y38500D01*
X78500D01*
Y25622D01*
X77031Y24153D01*
Y24310D01*
X76994Y24463D01*
X76934Y24608D01*
X76852Y24742D01*
X76750Y24861D01*
X76631Y24963D01*
X76497Y25045D01*
X76352Y25105D01*
X76199Y25142D01*
X76043Y25154D01*
X72500Y25148D01*
Y29852D01*
X76199Y29858D01*
X76352Y29895D01*
X76497Y29955D01*
X76631Y30037D01*
X76750Y30139D01*
X76852Y30258D01*
X76934Y30392D01*
X76994Y30537D01*
X77031Y30690D01*
X77043Y30846D01*
X77031Y36120D01*
X76994Y36273D01*
X76934Y36418D01*
X76852Y36552D01*
X76750Y36671D01*
X76631Y36773D01*
X76497Y36855D01*
X76352Y36915D01*
X76199Y36952D01*
X76043Y36964D01*
X72500Y36958D01*
Y37000D01*
G37*
G36*
X62500Y38500D02*X69912D01*
X70073Y38237D01*
X70379Y37879D01*
X70737Y37573D01*
X71138Y37327D01*
X71573Y37147D01*
X72031Y37037D01*
X72500Y37000D01*
Y36958D01*
X68801Y36952D01*
X68648Y36915D01*
X68503Y36855D01*
X68369Y36773D01*
X68250Y36671D01*
X68148Y36552D01*
X68066Y36418D01*
X68006Y36273D01*
X67969Y36120D01*
X67957Y35964D01*
X67969Y30690D01*
X68006Y30537D01*
X68066Y30392D01*
X68148Y30258D01*
X68250Y30139D01*
X68369Y30037D01*
X68503Y29955D01*
X68648Y29895D01*
X68801Y29858D01*
X68957Y29846D01*
X72500Y29852D01*
Y25148D01*
X68801Y25142D01*
X68648Y25105D01*
X68503Y25045D01*
X68369Y24963D01*
X68250Y24861D01*
X68148Y24742D01*
X68066Y24608D01*
X68006Y24463D01*
X67969Y24310D01*
X67957Y24154D01*
X67969Y18880D01*
X68006Y18727D01*
X68066Y18582D01*
X68148Y18448D01*
X68250Y18329D01*
X68369Y18227D01*
X68503Y18145D01*
X68648Y18085D01*
X68801Y18048D01*
X68957Y18036D01*
X72500Y18042D01*
Y11500D01*
X62500D01*
Y25856D01*
X62573Y25737D01*
X62879Y25379D01*
X63237Y25073D01*
X63638Y24827D01*
X64073Y24647D01*
X64531Y24537D01*
X65000Y24500D01*
X65469Y24537D01*
X65927Y24647D01*
X66362Y24827D01*
X66763Y25073D01*
X67121Y25379D01*
X67427Y25737D01*
X67673Y26138D01*
X67853Y26573D01*
X67963Y27031D01*
X68000Y27500D01*
X67963Y27969D01*
X67853Y28427D01*
X67673Y28862D01*
X67427Y29263D01*
X67121Y29621D01*
X66763Y29927D01*
X66362Y30173D01*
X65927Y30353D01*
X65469Y30463D01*
X65000Y30500D01*
X64531Y30463D01*
X64073Y30353D01*
X63638Y30173D01*
X63237Y29927D01*
X62879Y29621D01*
X62573Y29263D01*
X62500Y29144D01*
Y38500D01*
G37*
G36*
X190091Y78216D02*X190379Y77879D01*
X190737Y77573D01*
X191138Y77327D01*
X191573Y77147D01*
X192031Y77037D01*
X192500Y77000D01*
Y60500D01*
X192212Y60487D01*
X191927Y60445D01*
X191647Y60377D01*
X191376Y60282D01*
X191306Y60246D01*
X191242Y60201D01*
X191186Y60146D01*
X191140Y60083D01*
X191103Y60013D01*
X191079Y59939D01*
X191066Y59862D01*
X191065Y59783D01*
X191076Y59706D01*
X191100Y59631D01*
X191135Y59561D01*
X191180Y59497D01*
X191235Y59441D01*
X191298Y59395D01*
X191368Y59358D01*
X191442Y59334D01*
X191519Y59321D01*
X191598Y59320D01*
X191675Y59331D01*
X191750Y59355D01*
X191931Y59418D01*
X192118Y59464D01*
X192308Y59491D01*
X192500Y59500D01*
Y55500D01*
X192499D01*
X192308Y55510D01*
X192118Y55537D01*
X191931Y55583D01*
X191750Y55646D01*
X191675Y55671D01*
X191597Y55682D01*
X191519Y55681D01*
X191442Y55668D01*
X191367Y55643D01*
X191298Y55607D01*
X191234Y55560D01*
X191179Y55504D01*
X191134Y55440D01*
X191099Y55370D01*
X191075Y55295D01*
X191064Y55217D01*
X191065Y55139D01*
X191078Y55062D01*
X191103Y54987D01*
X191139Y54918D01*
X191186Y54854D01*
X191242Y54799D01*
X191306Y54754D01*
X191376Y54719D01*
X191647Y54624D01*
X191927Y54556D01*
X192212Y54514D01*
X192499Y54500D01*
X192500D01*
Y41500D01*
X190091D01*
Y56075D01*
X190138Y56067D01*
X190217Y56066D01*
X190294Y56077D01*
X190369Y56101D01*
X190439Y56136D01*
X190503Y56181D01*
X190559Y56236D01*
X190605Y56299D01*
X190642Y56369D01*
X190666Y56443D01*
X190679Y56520D01*
X190680Y56599D01*
X190669Y56676D01*
X190645Y56751D01*
X190582Y56932D01*
X190536Y57119D01*
X190509Y57309D01*
X190500Y57501D01*
X190509Y57692D01*
X190536Y57882D01*
X190582Y58069D01*
X190645Y58250D01*
X190670Y58325D01*
X190681Y58403D01*
X190680Y58481D01*
X190667Y58558D01*
X190642Y58633D01*
X190606Y58702D01*
X190559Y58766D01*
X190503Y58821D01*
X190439Y58866D01*
X190369Y58901D01*
X190294Y58925D01*
X190216Y58936D01*
X190138Y58935D01*
X190091Y58927D01*
Y78216D01*
G37*
G36*
Y83038D02*X191000Y83039D01*
Y82588D01*
X190737Y82427D01*
X190379Y82121D01*
X190091Y81784D01*
Y83038D01*
G37*
G36*
Y94848D02*X192500Y94852D01*
Y90148D01*
X190091Y90144D01*
Y94848D01*
G37*
G36*
Y106000D02*X192500D01*
Y101958D01*
X190091Y101954D01*
Y106000D01*
G37*
G36*
X157409Y78216D02*X157427Y78237D01*
X157673Y78638D01*
X157853Y79073D01*
X157963Y79531D01*
X158000Y80000D01*
X157963Y80469D01*
X157853Y80927D01*
X157673Y81362D01*
X157427Y81763D01*
X157409Y81784D01*
Y83046D01*
X158699Y83048D01*
X158852Y83085D01*
X158997Y83145D01*
X159131Y83227D01*
X159250Y83329D01*
X159352Y83448D01*
X159434Y83582D01*
X159494Y83727D01*
X159531Y83880D01*
X159543Y84036D01*
X159539Y86000D01*
X187964D01*
X187969Y83880D01*
X188006Y83727D01*
X188066Y83582D01*
X188148Y83448D01*
X188250Y83329D01*
X188369Y83227D01*
X188503Y83145D01*
X188648Y83085D01*
X188801Y83048D01*
X188957Y83036D01*
X190091Y83038D01*
Y81784D01*
X190073Y81763D01*
X189827Y81362D01*
X189647Y80927D01*
X189537Y80469D01*
X189500Y80000D01*
X189537Y79531D01*
X189647Y79073D01*
X189827Y78638D01*
X190073Y78237D01*
X190091Y78216D01*
Y58927D01*
X190061Y58922D01*
X189986Y58897D01*
X189917Y58861D01*
X189853Y58814D01*
X189798Y58758D01*
X189753Y58694D01*
X189718Y58624D01*
X189623Y58353D01*
X189555Y58073D01*
X189513Y57788D01*
X189500Y57501D01*
X189513Y57213D01*
X189555Y56928D01*
X189623Y56648D01*
X189718Y56377D01*
X189754Y56307D01*
X189799Y56243D01*
X189854Y56187D01*
X189917Y56141D01*
X189987Y56104D01*
X190061Y56080D01*
X190091Y56075D01*
Y41500D01*
X167588D01*
X167427Y41763D01*
X167121Y42121D01*
X166763Y42427D01*
X166362Y42673D01*
X165927Y42853D01*
X165469Y42963D01*
X165000Y43000D01*
X164531Y42963D01*
X164073Y42853D01*
X163638Y42673D01*
X163237Y42427D01*
X162879Y42121D01*
X162573Y41763D01*
X162412Y41500D01*
X160621D01*
X157409Y44712D01*
Y56074D01*
X157438Y56079D01*
X157513Y56104D01*
X157582Y56140D01*
X157646Y56187D01*
X157701Y56243D01*
X157746Y56307D01*
X157781Y56377D01*
X157876Y56648D01*
X157944Y56928D01*
X157986Y57213D01*
X158000Y57500D01*
X157986Y57788D01*
X157944Y58073D01*
X157876Y58353D01*
X157781Y58624D01*
X157745Y58694D01*
X157700Y58758D01*
X157645Y58814D01*
X157582Y58860D01*
X157512Y58897D01*
X157438Y58921D01*
X157409Y58926D01*
Y78216D01*
G37*
G36*
Y81784D02*X157121Y82121D01*
X156763Y82427D01*
X156500Y82588D01*
Y83044D01*
X157409Y83046D01*
Y81784D01*
G37*
G36*
X154999Y77000D02*X155000D01*
X155469Y77037D01*
X155927Y77147D01*
X156362Y77327D01*
X156763Y77573D01*
X157121Y77879D01*
X157409Y78216D01*
Y58926D01*
X157361Y58934D01*
X157282Y58935D01*
X157205Y58924D01*
X157130Y58900D01*
X157060Y58865D01*
X156996Y58820D01*
X156940Y58765D01*
X156894Y58702D01*
X156857Y58632D01*
X156833Y58558D01*
X156820Y58481D01*
X156819Y58402D01*
X156830Y58325D01*
X156854Y58250D01*
X156917Y58069D01*
X156963Y57882D01*
X156990Y57692D01*
X157000Y57500D01*
X156990Y57309D01*
X156963Y57119D01*
X156917Y56932D01*
X156854Y56751D01*
X156829Y56676D01*
X156818Y56598D01*
X156819Y56520D01*
X156832Y56443D01*
X156857Y56368D01*
X156893Y56299D01*
X156940Y56235D01*
X156996Y56180D01*
X157060Y56135D01*
X157130Y56100D01*
X157205Y56076D01*
X157283Y56065D01*
X157361Y56066D01*
X157409Y56074D01*
Y44712D01*
X154999Y47122D01*
Y54500D01*
X155287Y54514D01*
X155572Y54556D01*
X155852Y54624D01*
X156123Y54719D01*
X156193Y54755D01*
X156257Y54800D01*
X156313Y54855D01*
X156359Y54918D01*
X156396Y54988D01*
X156420Y55062D01*
X156433Y55139D01*
X156434Y55218D01*
X156423Y55295D01*
X156399Y55370D01*
X156364Y55440D01*
X156319Y55504D01*
X156264Y55560D01*
X156201Y55606D01*
X156131Y55643D01*
X156057Y55667D01*
X155980Y55680D01*
X155901Y55681D01*
X155824Y55670D01*
X155749Y55646D01*
X155568Y55583D01*
X155381Y55537D01*
X155191Y55510D01*
X154999Y55500D01*
Y59500D01*
X155000D01*
X155191Y59491D01*
X155381Y59464D01*
X155568Y59418D01*
X155749Y59355D01*
X155824Y59330D01*
X155902Y59319D01*
X155980Y59320D01*
X156057Y59333D01*
X156132Y59358D01*
X156201Y59394D01*
X156265Y59441D01*
X156320Y59497D01*
X156365Y59561D01*
X156400Y59631D01*
X156424Y59706D01*
X156435Y59784D01*
X156434Y59862D01*
X156421Y59939D01*
X156396Y60014D01*
X156360Y60083D01*
X156313Y60147D01*
X156257Y60202D01*
X156193Y60247D01*
X156123Y60282D01*
X155852Y60377D01*
X155572Y60445D01*
X155287Y60487D01*
X155000Y60500D01*
X154999D01*
Y77000D01*
G37*
G36*
Y106000D02*X190091D01*
Y101954D01*
X188801Y101952D01*
X188648Y101915D01*
X188503Y101855D01*
X188369Y101773D01*
X188250Y101671D01*
X188148Y101552D01*
X188066Y101418D01*
X188006Y101273D01*
X187969Y101120D01*
X187957Y100964D01*
X187969Y95690D01*
X188006Y95537D01*
X188066Y95392D01*
X188148Y95258D01*
X188250Y95139D01*
X188369Y95037D01*
X188503Y94955D01*
X188648Y94895D01*
X188801Y94858D01*
X188957Y94846D01*
X190091Y94848D01*
Y90144D01*
X188801Y90142D01*
X188648Y90105D01*
X188503Y90045D01*
X188369Y89963D01*
X188250Y89861D01*
X188148Y89742D01*
X188066Y89608D01*
X188006Y89463D01*
X187969Y89310D01*
X187957Y89154D01*
Y89000D01*
X159532D01*
X159531Y89310D01*
X159494Y89463D01*
X159434Y89608D01*
X159352Y89742D01*
X159250Y89861D01*
X159131Y89963D01*
X158997Y90045D01*
X158852Y90105D01*
X158699Y90142D01*
X158543Y90154D01*
X154999Y90148D01*
Y94852D01*
X158699Y94858D01*
X158852Y94895D01*
X158997Y94955D01*
X159131Y95037D01*
X159250Y95139D01*
X159352Y95258D01*
X159434Y95392D01*
X159494Y95537D01*
X159531Y95690D01*
X159543Y95846D01*
X159531Y101120D01*
X159494Y101273D01*
X159434Y101418D01*
X159352Y101552D01*
X159250Y101671D01*
X159131Y101773D01*
X158997Y101855D01*
X158852Y101915D01*
X158699Y101952D01*
X158543Y101964D01*
X154999Y101958D01*
Y106000D01*
G37*
G36*
X152591Y78216D02*X152879Y77879D01*
X153237Y77573D01*
X153638Y77327D01*
X154073Y77147D01*
X154531Y77037D01*
X154999Y77000D01*
Y60500D01*
X154712Y60487D01*
X154427Y60445D01*
X154147Y60377D01*
X153876Y60282D01*
X153806Y60246D01*
X153742Y60201D01*
X153686Y60146D01*
X153640Y60083D01*
X153603Y60013D01*
X153579Y59939D01*
X153566Y59862D01*
X153565Y59783D01*
X153576Y59706D01*
X153600Y59631D01*
X153635Y59561D01*
X153680Y59497D01*
X153735Y59441D01*
X153798Y59395D01*
X153868Y59358D01*
X153942Y59334D01*
X154019Y59321D01*
X154098Y59320D01*
X154175Y59331D01*
X154250Y59355D01*
X154431Y59418D01*
X154618Y59464D01*
X154808Y59491D01*
X154999Y59500D01*
Y55500D01*
X154808Y55510D01*
X154618Y55537D01*
X154431Y55583D01*
X154250Y55646D01*
X154175Y55671D01*
X154097Y55682D01*
X154019Y55681D01*
X153942Y55668D01*
X153867Y55643D01*
X153798Y55607D01*
X153734Y55560D01*
X153679Y55504D01*
X153634Y55440D01*
X153599Y55370D01*
X153575Y55295D01*
X153564Y55217D01*
X153565Y55139D01*
X153578Y55062D01*
X153603Y54987D01*
X153639Y54918D01*
X153686Y54854D01*
X153742Y54799D01*
X153806Y54754D01*
X153876Y54719D01*
X154147Y54624D01*
X154427Y54556D01*
X154712Y54514D01*
X154999Y54500D01*
Y47122D01*
X153567Y48554D01*
X153561Y48561D01*
X153382Y48714D01*
X153181Y48837D01*
X152964Y48927D01*
X152735Y48982D01*
X152591Y48993D01*
Y56075D01*
X152638Y56067D01*
X152717Y56066D01*
X152794Y56077D01*
X152869Y56101D01*
X152939Y56136D01*
X153003Y56181D01*
X153059Y56236D01*
X153105Y56299D01*
X153142Y56369D01*
X153166Y56443D01*
X153179Y56520D01*
X153180Y56599D01*
X153169Y56676D01*
X153145Y56751D01*
X153082Y56932D01*
X153036Y57119D01*
X153009Y57309D01*
X153000Y57501D01*
X153009Y57692D01*
X153036Y57882D01*
X153082Y58069D01*
X153145Y58250D01*
X153170Y58325D01*
X153181Y58403D01*
X153180Y58481D01*
X153167Y58558D01*
X153142Y58633D01*
X153106Y58702D01*
X153059Y58766D01*
X153003Y58821D01*
X152939Y58866D01*
X152869Y58901D01*
X152794Y58925D01*
X152716Y58936D01*
X152638Y58935D01*
X152591Y58927D01*
Y78216D01*
G37*
G36*
Y83038D02*X153500Y83039D01*
Y82588D01*
X153237Y82427D01*
X152879Y82121D01*
X152591Y81784D01*
Y83038D01*
G37*
G36*
Y94848D02*X154999Y94852D01*
Y90148D01*
X152591Y90144D01*
Y94848D01*
G37*
G36*
Y105471D02*X153120Y106000D01*
X154999D01*
Y101958D01*
X152591Y101954D01*
Y105471D01*
G37*
G36*
X73750Y68500D02*X132500D01*
X132735Y68518D01*
X132964Y68573D01*
X133181Y68663D01*
X133382Y68786D01*
X133561Y68939D01*
X133573Y68953D01*
X136047Y71427D01*
X136061Y71439D01*
X136214Y71618D01*
X136337Y71819D01*
X136427Y72036D01*
X136482Y72265D01*
X136500Y72500D01*
Y89380D01*
X152591Y105471D01*
Y101954D01*
X151301Y101952D01*
X151148Y101915D01*
X151003Y101855D01*
X150869Y101773D01*
X150750Y101671D01*
X150648Y101552D01*
X150566Y101418D01*
X150506Y101273D01*
X150469Y101120D01*
X150457Y100964D01*
X150469Y95690D01*
X150506Y95537D01*
X150566Y95392D01*
X150648Y95258D01*
X150750Y95139D01*
X150869Y95037D01*
X151003Y94955D01*
X151148Y94895D01*
X151301Y94858D01*
X151457Y94846D01*
X152591Y94848D01*
Y90144D01*
X151301Y90142D01*
X151148Y90105D01*
X151003Y90045D01*
X150869Y89963D01*
X150750Y89861D01*
X150648Y89742D01*
X150566Y89608D01*
X150506Y89463D01*
X150469Y89310D01*
X150457Y89154D01*
X150469Y83880D01*
X150506Y83727D01*
X150566Y83582D01*
X150648Y83448D01*
X150750Y83329D01*
X150869Y83227D01*
X151003Y83145D01*
X151148Y83085D01*
X151301Y83048D01*
X151457Y83036D01*
X152591Y83038D01*
Y81784D01*
X152573Y81763D01*
X152327Y81362D01*
X152147Y80927D01*
X152037Y80469D01*
X152000Y80000D01*
X152037Y79531D01*
X152147Y79073D01*
X152327Y78638D01*
X152573Y78237D01*
X152591Y78216D01*
Y58927D01*
X152561Y58922D01*
X152486Y58897D01*
X152417Y58861D01*
X152353Y58814D01*
X152298Y58758D01*
X152253Y58694D01*
X152218Y58624D01*
X152123Y58353D01*
X152055Y58073D01*
X152013Y57788D01*
X152000Y57501D01*
X152013Y57213D01*
X152055Y56928D01*
X152123Y56648D01*
X152218Y56377D01*
X152254Y56307D01*
X152299Y56243D01*
X152354Y56187D01*
X152417Y56141D01*
X152487Y56104D01*
X152561Y56080D01*
X152591Y56075D01*
Y48993D01*
X152518Y48999D01*
X152501Y49000D01*
X120000D01*
X119765Y48982D01*
X119536Y48927D01*
X119319Y48837D01*
X119118Y48714D01*
X118939Y48561D01*
X113269Y42891D01*
X112969Y42963D01*
X112500Y43000D01*
X112031Y42963D01*
X111573Y42853D01*
X111138Y42673D01*
X110737Y42427D01*
X110379Y42121D01*
X110073Y41763D01*
X109912Y41500D01*
X75088D01*
X74927Y41763D01*
X74621Y42121D01*
X74263Y42427D01*
X73862Y42673D01*
X73750Y42719D01*
Y58500D01*
X76879D01*
X78500Y56879D01*
Y50088D01*
X78237Y49927D01*
X77879Y49621D01*
X77573Y49263D01*
X77327Y48862D01*
X77147Y48427D01*
X77037Y47969D01*
X77000Y47500D01*
X77037Y47031D01*
X77147Y46573D01*
X77327Y46138D01*
X77573Y45737D01*
X77879Y45379D01*
X78237Y45073D01*
X78638Y44827D01*
X79073Y44647D01*
X79531Y44537D01*
X80000Y44500D01*
X80469Y44537D01*
X80927Y44647D01*
X81362Y44827D01*
X81763Y45073D01*
X82121Y45379D01*
X82427Y45737D01*
X82673Y46138D01*
X82853Y46573D01*
X82963Y47031D01*
X83000Y47500D01*
X82963Y47969D01*
X82853Y48427D01*
X82673Y48862D01*
X82427Y49263D01*
X82121Y49621D01*
X81763Y49927D01*
X81500Y50088D01*
Y57501D01*
X81499Y57518D01*
X81482Y57735D01*
X81427Y57964D01*
X81337Y58181D01*
X81214Y58382D01*
X81061Y58561D01*
X81054Y58567D01*
X78567Y61054D01*
X78561Y61061D01*
X78382Y61214D01*
X78181Y61337D01*
X77964Y61427D01*
X77735Y61482D01*
X77518Y61499D01*
X77501Y61500D01*
X73750D01*
Y68500D01*
G37*
G36*
X64909Y61004D02*X65073Y60737D01*
X65379Y60379D01*
X65737Y60073D01*
X66138Y59827D01*
X66573Y59647D01*
X67031Y59537D01*
X67500Y59500D01*
X67969Y59537D01*
X68270Y59609D01*
X68933Y58946D01*
X68939Y58939D01*
X69118Y58786D01*
X69319Y58663D01*
X69536Y58573D01*
X69765Y58518D01*
X70000Y58500D01*
X73750D01*
Y42719D01*
X73427Y42853D01*
X72969Y42963D01*
X72500Y43000D01*
X72031Y42963D01*
X71573Y42853D01*
X71138Y42673D01*
X70737Y42427D01*
X70379Y42121D01*
X70073Y41763D01*
X69912Y41500D01*
X64909D01*
Y56074D01*
X64938Y56079D01*
X65013Y56104D01*
X65082Y56140D01*
X65146Y56187D01*
X65201Y56243D01*
X65246Y56307D01*
X65281Y56377D01*
X65376Y56648D01*
X65444Y56928D01*
X65486Y57213D01*
X65500Y57500D01*
X65486Y57788D01*
X65444Y58073D01*
X65376Y58353D01*
X65281Y58624D01*
X65245Y58694D01*
X65200Y58758D01*
X65145Y58814D01*
X65082Y58860D01*
X65012Y58897D01*
X64938Y58921D01*
X64909Y58926D01*
Y61004D01*
G37*
G36*
Y68500D02*X73750D01*
Y61500D01*
X70621D01*
X70391Y61730D01*
X70463Y62031D01*
X70500Y62500D01*
X70463Y62969D01*
X70353Y63427D01*
X70173Y63862D01*
X69927Y64263D01*
X69621Y64621D01*
X69263Y64927D01*
X68862Y65173D01*
X68427Y65353D01*
X67969Y65463D01*
X67500Y65500D01*
X67031Y65463D01*
X66573Y65353D01*
X66138Y65173D01*
X65737Y64927D01*
X65379Y64621D01*
X65073Y64263D01*
X64909Y63996D01*
Y68500D01*
G37*
G36*
X62500D02*X64909D01*
Y63996D01*
X64827Y63862D01*
X64647Y63427D01*
X64537Y62969D01*
X64500Y62500D01*
X64537Y62031D01*
X64647Y61573D01*
X64827Y61138D01*
X64909Y61004D01*
Y58926D01*
X64861Y58934D01*
X64782Y58935D01*
X64705Y58924D01*
X64630Y58900D01*
X64560Y58865D01*
X64496Y58820D01*
X64440Y58765D01*
X64394Y58702D01*
X64357Y58632D01*
X64333Y58558D01*
X64320Y58481D01*
X64319Y58402D01*
X64330Y58325D01*
X64354Y58250D01*
X64417Y58069D01*
X64463Y57882D01*
X64490Y57692D01*
X64500Y57500D01*
X64490Y57309D01*
X64463Y57119D01*
X64417Y56932D01*
X64354Y56751D01*
X64329Y56676D01*
X64318Y56598D01*
X64319Y56520D01*
X64332Y56443D01*
X64357Y56368D01*
X64393Y56299D01*
X64440Y56235D01*
X64496Y56180D01*
X64560Y56135D01*
X64630Y56100D01*
X64705Y56076D01*
X64783Y56065D01*
X64861Y56066D01*
X64909Y56074D01*
Y41500D01*
X62500D01*
Y54500D01*
X62787Y54514D01*
X63072Y54556D01*
X63352Y54624D01*
X63623Y54719D01*
X63693Y54755D01*
X63757Y54800D01*
X63813Y54855D01*
X63859Y54918D01*
X63896Y54988D01*
X63920Y55062D01*
X63933Y55139D01*
X63934Y55218D01*
X63923Y55295D01*
X63899Y55370D01*
X63864Y55440D01*
X63819Y55504D01*
X63764Y55560D01*
X63701Y55606D01*
X63631Y55643D01*
X63557Y55667D01*
X63480Y55680D01*
X63401Y55681D01*
X63324Y55670D01*
X63249Y55646D01*
X63068Y55583D01*
X62881Y55537D01*
X62691Y55510D01*
X62500Y55500D01*
Y59500D01*
X62691Y59491D01*
X62881Y59464D01*
X63068Y59418D01*
X63249Y59355D01*
X63324Y59330D01*
X63402Y59319D01*
X63480Y59320D01*
X63557Y59333D01*
X63632Y59358D01*
X63701Y59394D01*
X63765Y59441D01*
X63820Y59497D01*
X63865Y59561D01*
X63900Y59631D01*
X63924Y59706D01*
X63935Y59784D01*
X63934Y59862D01*
X63921Y59939D01*
X63896Y60014D01*
X63860Y60083D01*
X63813Y60147D01*
X63757Y60202D01*
X63693Y60247D01*
X63623Y60282D01*
X63352Y60377D01*
X63072Y60445D01*
X62787Y60487D01*
X62500Y60500D01*
Y68500D01*
G37*
G36*
X142409Y115000D02*X192500D01*
Y109000D01*
X152500D01*
X152265Y108982D01*
X152036Y108927D01*
X151819Y108837D01*
X151618Y108714D01*
X151439Y108561D01*
X142409Y99531D01*
Y101074D01*
X142438Y101079D01*
X142513Y101104D01*
X142582Y101140D01*
X142646Y101187D01*
X142701Y101243D01*
X142746Y101307D01*
X142781Y101377D01*
X142876Y101648D01*
X142944Y101928D01*
X142986Y102213D01*
X143000Y102500D01*
X142986Y102788D01*
X142944Y103073D01*
X142876Y103353D01*
X142781Y103624D01*
X142745Y103694D01*
X142700Y103758D01*
X142645Y103814D01*
X142582Y103860D01*
X142512Y103897D01*
X142438Y103921D01*
X142409Y103926D01*
Y115000D01*
G37*
G36*
X140000D02*X142409D01*
Y103926D01*
X142361Y103934D01*
X142282Y103935D01*
X142205Y103924D01*
X142130Y103900D01*
X142060Y103865D01*
X141996Y103820D01*
X141940Y103765D01*
X141894Y103702D01*
X141857Y103632D01*
X141833Y103558D01*
X141820Y103481D01*
X141819Y103402D01*
X141830Y103325D01*
X141854Y103250D01*
X141917Y103069D01*
X141963Y102882D01*
X141990Y102692D01*
X142000Y102500D01*
X141990Y102309D01*
X141963Y102119D01*
X141917Y101932D01*
X141854Y101751D01*
X141829Y101676D01*
X141818Y101598D01*
X141819Y101520D01*
X141832Y101443D01*
X141857Y101368D01*
X141893Y101299D01*
X141940Y101235D01*
X141996Y101180D01*
X142060Y101135D01*
X142130Y101100D01*
X142205Y101076D01*
X142283Y101065D01*
X142361Y101066D01*
X142409Y101074D01*
Y99531D01*
X140000Y97122D01*
Y99500D01*
X140287Y99514D01*
X140572Y99556D01*
X140852Y99624D01*
X141123Y99719D01*
X141193Y99755D01*
X141257Y99800D01*
X141313Y99855D01*
X141359Y99918D01*
X141396Y99988D01*
X141420Y100062D01*
X141433Y100139D01*
X141434Y100218D01*
X141423Y100295D01*
X141399Y100370D01*
X141364Y100440D01*
X141319Y100504D01*
X141264Y100560D01*
X141201Y100606D01*
X141131Y100643D01*
X141057Y100667D01*
X140980Y100680D01*
X140901Y100681D01*
X140824Y100670D01*
X140749Y100646D01*
X140568Y100583D01*
X140381Y100537D01*
X140191Y100510D01*
X140000Y100500D01*
Y104500D01*
X140191Y104491D01*
X140381Y104464D01*
X140568Y104418D01*
X140749Y104355D01*
X140824Y104330D01*
X140902Y104319D01*
X140980Y104320D01*
X141057Y104333D01*
X141132Y104358D01*
X141201Y104394D01*
X141265Y104441D01*
X141320Y104497D01*
X141365Y104561D01*
X141400Y104631D01*
X141424Y104706D01*
X141435Y104784D01*
X141434Y104862D01*
X141421Y104939D01*
X141396Y105014D01*
X141360Y105083D01*
X141313Y105147D01*
X141257Y105202D01*
X141193Y105247D01*
X141123Y105282D01*
X140852Y105377D01*
X140572Y105445D01*
X140287Y105487D01*
X140000Y105500D01*
Y115000D01*
G37*
G36*
X137591D02*X140000D01*
Y105500D01*
X139712Y105487D01*
X139427Y105445D01*
X139147Y105377D01*
X138876Y105282D01*
X138806Y105246D01*
X138742Y105201D01*
X138686Y105146D01*
X138640Y105083D01*
X138603Y105013D01*
X138579Y104939D01*
X138566Y104862D01*
X138565Y104783D01*
X138576Y104706D01*
X138600Y104631D01*
X138635Y104561D01*
X138680Y104497D01*
X138735Y104441D01*
X138798Y104395D01*
X138868Y104358D01*
X138942Y104334D01*
X139019Y104321D01*
X139098Y104320D01*
X139175Y104331D01*
X139250Y104355D01*
X139431Y104418D01*
X139618Y104464D01*
X139808Y104491D01*
X140000Y104500D01*
Y100500D01*
X139999D01*
X139808Y100510D01*
X139618Y100537D01*
X139431Y100583D01*
X139250Y100646D01*
X139175Y100671D01*
X139097Y100682D01*
X139019Y100681D01*
X138942Y100668D01*
X138867Y100643D01*
X138798Y100607D01*
X138734Y100560D01*
X138679Y100504D01*
X138634Y100440D01*
X138599Y100370D01*
X138575Y100295D01*
X138564Y100217D01*
X138565Y100139D01*
X138578Y100062D01*
X138603Y99987D01*
X138639Y99918D01*
X138686Y99854D01*
X138742Y99799D01*
X138806Y99754D01*
X138876Y99719D01*
X139147Y99624D01*
X139427Y99556D01*
X139712Y99514D01*
X139999Y99500D01*
X140000D01*
Y97122D01*
X137591Y94713D01*
Y101075D01*
X137638Y101067D01*
X137717Y101066D01*
X137794Y101077D01*
X137869Y101101D01*
X137939Y101136D01*
X138003Y101181D01*
X138059Y101236D01*
X138105Y101299D01*
X138142Y101369D01*
X138166Y101443D01*
X138179Y101520D01*
X138180Y101599D01*
X138169Y101676D01*
X138145Y101751D01*
X138082Y101932D01*
X138036Y102119D01*
X138009Y102309D01*
X138000Y102501D01*
X138009Y102692D01*
X138036Y102882D01*
X138082Y103069D01*
X138145Y103250D01*
X138170Y103325D01*
X138181Y103403D01*
X138180Y103481D01*
X138167Y103558D01*
X138142Y103633D01*
X138106Y103702D01*
X138059Y103766D01*
X138003Y103821D01*
X137939Y103866D01*
X137869Y103901D01*
X137794Y103925D01*
X137716Y103936D01*
X137638Y103935D01*
X137591Y103927D01*
Y115000D01*
G37*
G36*
X124909D02*X137591D01*
Y103927D01*
X137561Y103922D01*
X137486Y103897D01*
X137417Y103861D01*
X137353Y103814D01*
X137298Y103758D01*
X137253Y103694D01*
X137218Y103624D01*
X137123Y103353D01*
X137055Y103073D01*
X137013Y102788D01*
X137000Y102501D01*
X137013Y102213D01*
X137055Y101928D01*
X137123Y101648D01*
X137218Y101377D01*
X137254Y101307D01*
X137299Y101243D01*
X137354Y101187D01*
X137417Y101141D01*
X137487Y101104D01*
X137561Y101080D01*
X137591Y101075D01*
Y94713D01*
X133939Y91061D01*
X133786Y90882D01*
X133663Y90681D01*
X133573Y90464D01*
X133518Y90235D01*
X133500Y90000D01*
Y73122D01*
X131878Y71500D01*
X124909D01*
Y101074D01*
X124938Y101079D01*
X125013Y101104D01*
X125082Y101140D01*
X125146Y101187D01*
X125201Y101243D01*
X125246Y101307D01*
X125281Y101377D01*
X125376Y101648D01*
X125444Y101928D01*
X125486Y102213D01*
X125500Y102500D01*
X125486Y102788D01*
X125444Y103073D01*
X125376Y103353D01*
X125281Y103624D01*
X125245Y103694D01*
X125200Y103758D01*
X125145Y103814D01*
X125082Y103860D01*
X125012Y103897D01*
X124938Y103921D01*
X124909Y103926D01*
Y115000D01*
G37*
G36*
X122499D02*X124909D01*
Y103926D01*
X124861Y103934D01*
X124782Y103935D01*
X124705Y103924D01*
X124630Y103900D01*
X124560Y103865D01*
X124496Y103820D01*
X124440Y103765D01*
X124394Y103702D01*
X124357Y103632D01*
X124333Y103558D01*
X124320Y103481D01*
X124319Y103402D01*
X124330Y103325D01*
X124354Y103250D01*
X124417Y103069D01*
X124463Y102882D01*
X124490Y102692D01*
X124500Y102500D01*
X124490Y102309D01*
X124463Y102119D01*
X124417Y101932D01*
X124354Y101751D01*
X124329Y101676D01*
X124318Y101598D01*
X124319Y101520D01*
X124332Y101443D01*
X124357Y101368D01*
X124393Y101299D01*
X124440Y101235D01*
X124496Y101180D01*
X124560Y101135D01*
X124630Y101100D01*
X124705Y101076D01*
X124783Y101065D01*
X124861Y101066D01*
X124909Y101074D01*
Y71500D01*
X122499D01*
Y99500D01*
X122787Y99514D01*
X123072Y99556D01*
X123352Y99624D01*
X123623Y99719D01*
X123693Y99755D01*
X123757Y99800D01*
X123813Y99855D01*
X123859Y99918D01*
X123896Y99988D01*
X123920Y100062D01*
X123933Y100139D01*
X123934Y100218D01*
X123923Y100295D01*
X123899Y100370D01*
X123864Y100440D01*
X123819Y100504D01*
X123764Y100560D01*
X123701Y100606D01*
X123631Y100643D01*
X123557Y100667D01*
X123480Y100680D01*
X123401Y100681D01*
X123324Y100670D01*
X123249Y100646D01*
X123068Y100583D01*
X122881Y100537D01*
X122691Y100510D01*
X122499Y100500D01*
Y104500D01*
X122500D01*
X122691Y104491D01*
X122881Y104464D01*
X123068Y104418D01*
X123249Y104355D01*
X123324Y104330D01*
X123402Y104319D01*
X123480Y104320D01*
X123557Y104333D01*
X123632Y104358D01*
X123701Y104394D01*
X123765Y104441D01*
X123820Y104497D01*
X123865Y104561D01*
X123900Y104631D01*
X123924Y104706D01*
X123935Y104784D01*
X123934Y104862D01*
X123921Y104939D01*
X123896Y105014D01*
X123860Y105083D01*
X123813Y105147D01*
X123757Y105202D01*
X123693Y105247D01*
X123623Y105282D01*
X123352Y105377D01*
X123072Y105445D01*
X122787Y105487D01*
X122500Y105500D01*
X122499D01*
Y115000D01*
G37*
G36*
X120091D02*X122499D01*
Y105500D01*
X122212Y105487D01*
X121927Y105445D01*
X121647Y105377D01*
X121376Y105282D01*
X121306Y105246D01*
X121242Y105201D01*
X121186Y105146D01*
X121140Y105083D01*
X121103Y105013D01*
X121079Y104939D01*
X121066Y104862D01*
X121065Y104783D01*
X121076Y104706D01*
X121100Y104631D01*
X121135Y104561D01*
X121180Y104497D01*
X121235Y104441D01*
X121298Y104395D01*
X121368Y104358D01*
X121442Y104334D01*
X121519Y104321D01*
X121598Y104320D01*
X121675Y104331D01*
X121750Y104355D01*
X121931Y104418D01*
X122118Y104464D01*
X122308Y104491D01*
X122499Y104500D01*
Y100500D01*
X122308Y100510D01*
X122118Y100537D01*
X121931Y100583D01*
X121750Y100646D01*
X121675Y100671D01*
X121597Y100682D01*
X121519Y100681D01*
X121442Y100668D01*
X121367Y100643D01*
X121298Y100607D01*
X121234Y100560D01*
X121179Y100504D01*
X121134Y100440D01*
X121099Y100370D01*
X121075Y100295D01*
X121064Y100217D01*
X121065Y100139D01*
X121078Y100062D01*
X121103Y99987D01*
X121139Y99918D01*
X121186Y99854D01*
X121242Y99799D01*
X121306Y99754D01*
X121376Y99719D01*
X121647Y99624D01*
X121927Y99556D01*
X122212Y99514D01*
X122499Y99500D01*
Y71500D01*
X120091D01*
Y101075D01*
X120138Y101067D01*
X120217Y101066D01*
X120294Y101077D01*
X120369Y101101D01*
X120439Y101136D01*
X120503Y101181D01*
X120559Y101236D01*
X120605Y101299D01*
X120642Y101369D01*
X120666Y101443D01*
X120679Y101520D01*
X120680Y101599D01*
X120669Y101676D01*
X120645Y101751D01*
X120582Y101932D01*
X120536Y102119D01*
X120509Y102309D01*
X120500Y102501D01*
X120509Y102692D01*
X120536Y102882D01*
X120582Y103069D01*
X120645Y103250D01*
X120670Y103325D01*
X120681Y103403D01*
X120680Y103481D01*
X120667Y103558D01*
X120642Y103633D01*
X120606Y103702D01*
X120559Y103766D01*
X120503Y103821D01*
X120439Y103866D01*
X120369Y103901D01*
X120294Y103925D01*
X120216Y103936D01*
X120138Y103935D01*
X120091Y103927D01*
Y115000D01*
G37*
G36*
X102500D02*X120091D01*
Y103927D01*
X120061Y103922D01*
X119986Y103897D01*
X119917Y103861D01*
X119853Y103814D01*
X119798Y103758D01*
X119753Y103694D01*
X119718Y103624D01*
X119623Y103353D01*
X119555Y103073D01*
X119513Y102788D01*
X119500Y102501D01*
X119513Y102213D01*
X119555Y101928D01*
X119623Y101648D01*
X119718Y101377D01*
X119754Y101307D01*
X119799Y101243D01*
X119854Y101187D01*
X119917Y101141D01*
X119987Y101104D01*
X120061Y101080D01*
X120091Y101075D01*
Y71500D01*
X102500D01*
Y77000D01*
X102969Y77037D01*
X103427Y77147D01*
X103862Y77327D01*
X104263Y77573D01*
X104621Y77879D01*
X104927Y78237D01*
X105173Y78638D01*
X105353Y79073D01*
X105463Y79531D01*
X105500Y80000D01*
X105463Y80469D01*
X105353Y80927D01*
X105173Y81362D01*
X104927Y81763D01*
X104621Y82121D01*
X104263Y82427D01*
X104000Y82588D01*
Y83044D01*
X106199Y83048D01*
X106352Y83085D01*
X106497Y83145D01*
X106631Y83227D01*
X106750Y83329D01*
X106852Y83448D01*
X106934Y83582D01*
X106994Y83727D01*
X107031Y83880D01*
X107043Y84036D01*
X107031Y89310D01*
X106994Y89463D01*
X106934Y89608D01*
X106852Y89742D01*
X106750Y89861D01*
X106631Y89963D01*
X106497Y90045D01*
X106352Y90105D01*
X106199Y90142D01*
X106043Y90154D01*
X102500Y90148D01*
Y94852D01*
X106199Y94858D01*
X106352Y94895D01*
X106497Y94955D01*
X106631Y95037D01*
X106750Y95139D01*
X106852Y95258D01*
X106934Y95392D01*
X106994Y95537D01*
X107031Y95690D01*
X107043Y95846D01*
X107031Y101120D01*
X106994Y101273D01*
X106934Y101418D01*
X106852Y101552D01*
X106750Y101671D01*
X106631Y101773D01*
X106497Y101855D01*
X106352Y101915D01*
X106199Y101952D01*
X106043Y101964D01*
X102500Y101958D01*
Y103250D01*
X103165Y103302D01*
X103813Y103458D01*
X104429Y103713D01*
X104998Y104062D01*
X105505Y104495D01*
X105938Y105002D01*
X106287Y105571D01*
X106542Y106187D01*
X106698Y106835D01*
X106750Y107500D01*
X106698Y108165D01*
X106542Y108813D01*
X106287Y109429D01*
X105938Y109998D01*
X105505Y110505D01*
X104998Y110938D01*
X104429Y111287D01*
X103813Y111542D01*
X103165Y111698D01*
X102500Y111750D01*
Y115000D01*
G37*
G36*
Y90148D02*X98801Y90142D01*
X98648Y90105D01*
X98503Y90045D01*
X98369Y89963D01*
X98250Y89861D01*
X98148Y89742D01*
X98066Y89608D01*
X98006Y89463D01*
X97969Y89310D01*
X97957Y89154D01*
Y89000D01*
X95000D01*
Y99500D01*
X95469Y99537D01*
X95927Y99647D01*
X96362Y99827D01*
X96763Y100073D01*
X97121Y100379D01*
X97427Y100737D01*
X97673Y101138D01*
X97853Y101573D01*
X97963Y102031D01*
X98000Y102500D01*
X97963Y102969D01*
X97853Y103427D01*
X97673Y103862D01*
X97427Y104263D01*
X97121Y104621D01*
X96763Y104927D01*
X96362Y105173D01*
X95927Y105353D01*
X95469Y105463D01*
X95000Y105500D01*
Y106000D01*
X98535D01*
X98713Y105571D01*
X99062Y105002D01*
X99495Y104495D01*
X100002Y104062D01*
X100571Y103713D01*
X101187Y103458D01*
X101835Y103302D01*
X102500Y103250D01*
Y101958D01*
X98801Y101952D01*
X98648Y101915D01*
X98503Y101855D01*
X98369Y101773D01*
X98250Y101671D01*
X98148Y101552D01*
X98066Y101418D01*
X98006Y101273D01*
X97969Y101120D01*
X97957Y100964D01*
X97969Y95690D01*
X98006Y95537D01*
X98066Y95392D01*
X98148Y95258D01*
X98250Y95139D01*
X98369Y95037D01*
X98503Y94955D01*
X98648Y94895D01*
X98801Y94858D01*
X98957Y94846D01*
X102500Y94852D01*
Y90148D01*
G37*
G36*
Y71500D02*X95000D01*
Y86000D01*
X97964D01*
X97969Y83880D01*
X98006Y83727D01*
X98066Y83582D01*
X98148Y83448D01*
X98250Y83329D01*
X98369Y83227D01*
X98503Y83145D01*
X98648Y83085D01*
X98801Y83048D01*
X98957Y83036D01*
X101000Y83039D01*
Y82588D01*
X100737Y82427D01*
X100379Y82121D01*
X100073Y81763D01*
X99827Y81362D01*
X99647Y80927D01*
X99537Y80469D01*
X99500Y80000D01*
X99537Y79531D01*
X99647Y79073D01*
X99827Y78638D01*
X100073Y78237D01*
X100379Y77879D01*
X100737Y77573D01*
X101138Y77327D01*
X101573Y77147D01*
X102031Y77037D01*
X102500Y77000D01*
Y71500D01*
G37*
G36*
X95000Y115000D02*X102500D01*
Y111750D01*
X101835Y111698D01*
X101187Y111542D01*
X100571Y111287D01*
X100002Y110938D01*
X99495Y110505D01*
X99062Y109998D01*
X98713Y109429D01*
X98535Y109000D01*
X95000D01*
Y115000D01*
G37*
G36*
Y89000D02*X67032D01*
X67031Y89310D01*
X66994Y89463D01*
X66934Y89608D01*
X66852Y89742D01*
X66750Y89861D01*
X66631Y89963D01*
X66497Y90045D01*
X66352Y90105D01*
X66199Y90142D01*
X66043Y90154D01*
X62500Y90148D01*
Y94852D01*
X66199Y94858D01*
X66352Y94895D01*
X66497Y94955D01*
X66631Y95037D01*
X66750Y95139D01*
X66852Y95258D01*
X66934Y95392D01*
X66994Y95537D01*
X67031Y95690D01*
X67043Y95846D01*
X67031Y101120D01*
X66994Y101273D01*
X66934Y101418D01*
X66852Y101552D01*
X66750Y101671D01*
X66631Y101773D01*
X66497Y101855D01*
X66352Y101915D01*
X66199Y101952D01*
X66043Y101964D01*
X62500Y101958D01*
Y106000D01*
X95000D01*
Y105500D01*
X94531Y105463D01*
X94073Y105353D01*
X93638Y105173D01*
X93237Y104927D01*
X92879Y104621D01*
X92573Y104263D01*
X92327Y103862D01*
X92147Y103427D01*
X92037Y102969D01*
X92000Y102500D01*
X92037Y102031D01*
X92147Y101573D01*
X92327Y101138D01*
X92573Y100737D01*
X92879Y100379D01*
X93237Y100073D01*
X93638Y99827D01*
X94073Y99647D01*
X94531Y99537D01*
X95000Y99500D01*
Y89000D01*
G37*
G36*
Y71500D02*X62500D01*
Y77000D01*
X62969Y77037D01*
X63427Y77147D01*
X63862Y77327D01*
X64263Y77573D01*
X64621Y77879D01*
X64927Y78237D01*
X65173Y78638D01*
X65353Y79073D01*
X65463Y79531D01*
X65500Y80000D01*
X65463Y80469D01*
X65353Y80927D01*
X65173Y81362D01*
X64927Y81763D01*
X64621Y82121D01*
X64263Y82427D01*
X64000Y82588D01*
Y83044D01*
X66199Y83048D01*
X66352Y83085D01*
X66497Y83145D01*
X66631Y83227D01*
X66750Y83329D01*
X66852Y83448D01*
X66934Y83582D01*
X66994Y83727D01*
X67031Y83880D01*
X67043Y84036D01*
X67039Y86000D01*
X95000D01*
Y71500D01*
G37*
G36*
X62500Y115000D02*X95000D01*
Y109000D01*
X62500D01*
Y115000D01*
G37*
G36*
X38614Y29858D02*X38699D01*
X38852Y29895D01*
X38997Y29955D01*
X39131Y30037D01*
X39250Y30139D01*
X39352Y30258D01*
X39434Y30392D01*
X39494Y30537D01*
X39531Y30690D01*
X39543Y30846D01*
X39531Y36120D01*
X39494Y36273D01*
X39434Y36418D01*
X39352Y36552D01*
X39250Y36671D01*
X39131Y36773D01*
X38997Y36855D01*
X38852Y36915D01*
X38699Y36952D01*
X38614Y36959D01*
Y38500D01*
X62500D01*
Y29144D01*
X62412Y29000D01*
X47500D01*
X47265Y28982D01*
X47036Y28927D01*
X46819Y28837D01*
X46618Y28714D01*
X46439Y28561D01*
X43939Y26061D01*
X43786Y25882D01*
X43663Y25681D01*
X43573Y25464D01*
X43518Y25235D01*
X43500Y25000D01*
Y22588D01*
X43237Y22427D01*
X42879Y22121D01*
X42573Y21763D01*
X42327Y21362D01*
X42147Y20927D01*
X42037Y20469D01*
X42000Y20000D01*
X42037Y19531D01*
X42147Y19073D01*
X42327Y18638D01*
X42573Y18237D01*
X42879Y17879D01*
X43237Y17573D01*
X43500Y17412D01*
Y9235D01*
X42957Y9010D01*
X42355Y8641D01*
X41818Y8182D01*
X41359Y7645D01*
X40990Y7043D01*
X40720Y6391D01*
X40555Y5704D01*
X40500Y5000D01*
X40555Y4296D01*
X40720Y3609D01*
X40990Y2957D01*
X41359Y2355D01*
X41818Y1818D01*
X42355Y1359D01*
X42957Y990D01*
X43609Y720D01*
X44296Y555D01*
X45000Y500D01*
X45704Y555D01*
X46391Y720D01*
X47043Y990D01*
X47645Y1359D01*
X48182Y1818D01*
X48641Y2355D01*
X49010Y2957D01*
X49280Y3609D01*
X49445Y4296D01*
X49500Y5000D01*
X49445Y5704D01*
X49280Y6391D01*
X49010Y7043D01*
X48641Y7645D01*
X48182Y8182D01*
X47645Y8641D01*
X47043Y9010D01*
X46500Y9235D01*
Y17412D01*
X46763Y17573D01*
X47121Y17879D01*
X47427Y18237D01*
X47673Y18638D01*
X47853Y19073D01*
X47963Y19531D01*
X48000Y20000D01*
X47963Y20469D01*
X47853Y20927D01*
X47673Y21362D01*
X47427Y21763D01*
X47121Y22121D01*
X46763Y22427D01*
X46500Y22588D01*
Y24380D01*
X48120Y26000D01*
X62412D01*
X62500Y25856D01*
Y11500D01*
X60000D01*
X59765Y11482D01*
X59536Y11427D01*
X59319Y11337D01*
X59118Y11214D01*
X58939Y11061D01*
X56933Y9055D01*
X56391Y9280D01*
X55704Y9445D01*
X55000Y9500D01*
X54296Y9445D01*
X53609Y9280D01*
X52957Y9010D01*
X52355Y8641D01*
X51818Y8182D01*
X51359Y7645D01*
X50990Y7043D01*
X50720Y6391D01*
X50555Y5704D01*
X50500Y5000D01*
X50555Y4296D01*
X50720Y3609D01*
X50990Y2957D01*
X51359Y2355D01*
X51818Y1818D01*
X52355Y1359D01*
X52957Y990D01*
X53609Y720D01*
X54296Y555D01*
X55000Y500D01*
X55704Y555D01*
X56391Y720D01*
X57043Y990D01*
X57645Y1359D01*
X58182Y1818D01*
X58641Y2355D01*
X59010Y2957D01*
X59280Y3609D01*
X59445Y4296D01*
X59500Y5000D01*
X59445Y5704D01*
X59280Y6391D01*
X59055Y6935D01*
X60620Y8500D01*
X62190D01*
X61818Y8182D01*
X61359Y7645D01*
X60990Y7043D01*
X60720Y6391D01*
X60555Y5704D01*
X60500Y5000D01*
X60555Y4296D01*
X60720Y3609D01*
X60990Y2957D01*
X61359Y2355D01*
X61818Y1818D01*
X62355Y1359D01*
X62500Y1270D01*
Y0D01*
X38614D01*
Y2860D01*
X38658Y2868D01*
X38769Y2905D01*
X38874Y2960D01*
X38969Y3030D01*
X39051Y3114D01*
X39119Y3210D01*
X39172Y3315D01*
X39314Y3722D01*
X39417Y4142D01*
X39479Y4569D01*
X39500Y5000D01*
X39479Y5432D01*
X39417Y5859D01*
X39314Y6279D01*
X39172Y6686D01*
X39118Y6791D01*
X39050Y6887D01*
X38968Y6971D01*
X38873Y7041D01*
X38769Y7095D01*
X38657Y7132D01*
X38614Y7139D01*
Y18048D01*
X38699D01*
X38852Y18085D01*
X38997Y18145D01*
X39131Y18227D01*
X39250Y18329D01*
X39352Y18448D01*
X39434Y18582D01*
X39494Y18727D01*
X39531Y18880D01*
X39543Y19036D01*
X39531Y24310D01*
X39494Y24463D01*
X39434Y24608D01*
X39352Y24742D01*
X39250Y24861D01*
X39131Y24963D01*
X38997Y25045D01*
X38852Y25105D01*
X38699Y25142D01*
X38614Y25149D01*
Y29858D01*
G37*
G36*
Y0D02*X35000D01*
Y500D01*
X35431Y521D01*
X35858Y583D01*
X36278Y686D01*
X36685Y828D01*
X36790Y882D01*
X36886Y950D01*
X36970Y1032D01*
X37040Y1127D01*
X37094Y1231D01*
X37131Y1343D01*
X37151Y1459D01*
X37152Y1576D01*
X37134Y1693D01*
X37099Y1805D01*
X37046Y1910D01*
X36978Y2006D01*
X36896Y2090D01*
X36801Y2160D01*
X36697Y2214D01*
X36585Y2251D01*
X36469Y2271D01*
X36352Y2272D01*
X36235Y2254D01*
X36123Y2219D01*
X35852Y2124D01*
X35572Y2056D01*
X35287Y2014D01*
X35000Y2000D01*
Y8000D01*
X35287Y7987D01*
X35572Y7945D01*
X35852Y7877D01*
X36123Y7782D01*
X36235Y7746D01*
X36352Y7728D01*
X36470Y7729D01*
X36586Y7749D01*
X36697Y7786D01*
X36802Y7841D01*
X36897Y7911D01*
X36979Y7995D01*
X37047Y8091D01*
X37100Y8196D01*
X37135Y8308D01*
X37153Y8425D01*
X37152Y8543D01*
X37132Y8659D01*
X37095Y8770D01*
X37040Y8875D01*
X36970Y8970D01*
X36886Y9052D01*
X36790Y9120D01*
X36685Y9173D01*
X36278Y9315D01*
X35858Y9418D01*
X35431Y9480D01*
X35000Y9500D01*
Y18042D01*
X38614Y18048D01*
Y7139D01*
X38541Y7152D01*
X38424Y7153D01*
X38307Y7135D01*
X38195Y7100D01*
X38090Y7047D01*
X37994Y6979D01*
X37910Y6897D01*
X37840Y6802D01*
X37786Y6698D01*
X37749Y6586D01*
X37729Y6470D01*
X37728Y6353D01*
X37746Y6236D01*
X37781Y6124D01*
X37876Y5853D01*
X37944Y5573D01*
X37986Y5288D01*
X38000Y5000D01*
X37986Y4713D01*
X37944Y4428D01*
X37876Y4148D01*
X37781Y3877D01*
X37745Y3765D01*
X37727Y3648D01*
X37728Y3530D01*
X37748Y3414D01*
X37785Y3303D01*
X37840Y3198D01*
X37910Y3103D01*
X37994Y3021D01*
X38090Y2953D01*
X38195Y2900D01*
X38307Y2865D01*
X38424Y2847D01*
X38542Y2848D01*
X38614Y2860D01*
Y0D01*
G37*
G36*
Y36959D02*X38543Y36964D01*
X36500Y36961D01*
Y37412D01*
X36763Y37573D01*
X37121Y37879D01*
X37427Y38237D01*
X37588Y38500D01*
X38614D01*
Y36959D01*
G37*
G36*
X35000Y29852D02*X38614Y29858D01*
Y25149D01*
X38543Y25154D01*
X35000Y25148D01*
Y29852D01*
G37*
G36*
X60091Y68500D02*X62500D01*
Y60500D01*
X62212Y60487D01*
X61927Y60445D01*
X61647Y60377D01*
X61376Y60282D01*
X61306Y60246D01*
X61242Y60201D01*
X61186Y60146D01*
X61140Y60083D01*
X61103Y60013D01*
X61079Y59939D01*
X61066Y59862D01*
X61065Y59783D01*
X61076Y59706D01*
X61100Y59631D01*
X61135Y59561D01*
X61180Y59497D01*
X61235Y59441D01*
X61298Y59395D01*
X61368Y59358D01*
X61442Y59334D01*
X61519Y59321D01*
X61598Y59320D01*
X61675Y59331D01*
X61750Y59355D01*
X61931Y59418D01*
X62118Y59464D01*
X62308Y59491D01*
X62500Y59500D01*
Y55500D01*
X62499D01*
X62308Y55510D01*
X62118Y55537D01*
X61931Y55583D01*
X61750Y55646D01*
X61675Y55671D01*
X61597Y55682D01*
X61519Y55681D01*
X61442Y55668D01*
X61367Y55643D01*
X61298Y55607D01*
X61234Y55560D01*
X61179Y55504D01*
X61134Y55440D01*
X61099Y55370D01*
X61075Y55295D01*
X61064Y55217D01*
X61065Y55139D01*
X61078Y55062D01*
X61103Y54987D01*
X61139Y54918D01*
X61186Y54854D01*
X61242Y54799D01*
X61306Y54754D01*
X61376Y54719D01*
X61647Y54624D01*
X61927Y54556D01*
X62212Y54514D01*
X62499Y54500D01*
X62500D01*
Y41500D01*
X60091D01*
Y56075D01*
X60138Y56067D01*
X60217Y56066D01*
X60294Y56077D01*
X60369Y56101D01*
X60439Y56136D01*
X60503Y56181D01*
X60559Y56236D01*
X60605Y56299D01*
X60642Y56369D01*
X60666Y56443D01*
X60679Y56520D01*
X60680Y56599D01*
X60669Y56676D01*
X60645Y56751D01*
X60582Y56932D01*
X60536Y57119D01*
X60509Y57309D01*
X60500Y57501D01*
X60509Y57692D01*
X60536Y57882D01*
X60582Y58069D01*
X60645Y58250D01*
X60670Y58325D01*
X60681Y58403D01*
X60680Y58481D01*
X60667Y58558D01*
X60642Y58633D01*
X60606Y58702D01*
X60559Y58766D01*
X60503Y58821D01*
X60439Y58866D01*
X60369Y58901D01*
X60294Y58925D01*
X60216Y58936D01*
X60138Y58935D01*
X60091Y58927D01*
Y68500D01*
G37*
G36*
X35000D02*X60091D01*
Y58927D01*
X60061Y58922D01*
X59986Y58897D01*
X59917Y58861D01*
X59853Y58814D01*
X59798Y58758D01*
X59753Y58694D01*
X59718Y58624D01*
X59623Y58353D01*
X59555Y58073D01*
X59513Y57788D01*
X59500Y57501D01*
X59513Y57213D01*
X59555Y56928D01*
X59623Y56648D01*
X59718Y56377D01*
X59754Y56307D01*
X59799Y56243D01*
X59854Y56187D01*
X59917Y56141D01*
X59987Y56104D01*
X60061Y56080D01*
X60091Y56075D01*
Y41500D01*
X37588D01*
X37427Y41763D01*
X37121Y42121D01*
X36763Y42427D01*
X36362Y42673D01*
X35927Y42853D01*
X35469Y42963D01*
X35000Y43000D01*
Y68500D01*
G37*
G36*
Y86000D02*X57964D01*
X57969Y83880D01*
X58006Y83727D01*
X58066Y83582D01*
X58148Y83448D01*
X58250Y83329D01*
X58369Y83227D01*
X58503Y83145D01*
X58648Y83085D01*
X58801Y83048D01*
X58957Y83036D01*
X61000Y83039D01*
Y82588D01*
X60737Y82427D01*
X60379Y82121D01*
X60073Y81763D01*
X59827Y81362D01*
X59647Y80927D01*
X59537Y80469D01*
X59500Y80000D01*
X59537Y79531D01*
X59647Y79073D01*
X59827Y78638D01*
X60073Y78237D01*
X60379Y77879D01*
X60737Y77573D01*
X61138Y77327D01*
X61573Y77147D01*
X62031Y77037D01*
X62500Y77000D01*
Y71500D01*
X35000D01*
Y86000D01*
G37*
G36*
Y106000D02*X62500D01*
Y101958D01*
X58801Y101952D01*
X58648Y101915D01*
X58503Y101855D01*
X58369Y101773D01*
X58250Y101671D01*
X58148Y101552D01*
X58066Y101418D01*
X58006Y101273D01*
X57969Y101120D01*
X57957Y100964D01*
X57969Y95690D01*
X58006Y95537D01*
X58066Y95392D01*
X58148Y95258D01*
X58250Y95139D01*
X58369Y95037D01*
X58503Y94955D01*
X58648Y94895D01*
X58801Y94858D01*
X58957Y94846D01*
X62500Y94852D01*
Y90148D01*
X58801Y90142D01*
X58648Y90105D01*
X58503Y90045D01*
X58369Y89963D01*
X58250Y89861D01*
X58148Y89742D01*
X58066Y89608D01*
X58006Y89463D01*
X57969Y89310D01*
X57957Y89154D01*
Y89000D01*
X35000D01*
Y106000D01*
G37*
G36*
Y115000D02*X62500D01*
Y109000D01*
X35000D01*
Y115000D01*
G37*
G36*
X31386Y18041D02*X31457Y18036D01*
X35000Y18042D01*
Y9500D01*
X34568Y9480D01*
X34141Y9418D01*
X33721Y9315D01*
X33314Y9173D01*
X33209Y9119D01*
X33113Y9051D01*
X33029Y8969D01*
X32959Y8874D01*
X32905Y8770D01*
X32868Y8658D01*
X32848Y8542D01*
X32847Y8425D01*
X32865Y8308D01*
X32900Y8196D01*
X32953Y8091D01*
X33021Y7995D01*
X33103Y7911D01*
X33198Y7841D01*
X33302Y7787D01*
X33414Y7750D01*
X33530Y7730D01*
X33647Y7729D01*
X33764Y7747D01*
X33876Y7782D01*
X34147Y7877D01*
X34427Y7945D01*
X34712Y7987D01*
X35000Y8000D01*
Y2000D01*
X34999D01*
X34712Y2014D01*
X34427Y2056D01*
X34147Y2124D01*
X33876Y2219D01*
X33764Y2255D01*
X33647Y2273D01*
X33529Y2272D01*
X33413Y2252D01*
X33302Y2215D01*
X33197Y2160D01*
X33102Y2090D01*
X33020Y2006D01*
X32952Y1910D01*
X32899Y1805D01*
X32864Y1693D01*
X32846Y1576D01*
X32847Y1458D01*
X32867Y1342D01*
X32904Y1231D01*
X32959Y1126D01*
X33029Y1031D01*
X33113Y949D01*
X33209Y881D01*
X33314Y828D01*
X33721Y686D01*
X34141Y583D01*
X34568Y521D01*
X34999Y500D01*
X35000D01*
Y0D01*
X31386D01*
Y2861D01*
X31458Y2849D01*
X31575Y2848D01*
X31692Y2866D01*
X31804Y2901D01*
X31909Y2954D01*
X32005Y3022D01*
X32089Y3104D01*
X32159Y3199D01*
X32213Y3303D01*
X32250Y3415D01*
X32270Y3531D01*
X32271Y3648D01*
X32253Y3765D01*
X32218Y3877D01*
X32123Y4148D01*
X32055Y4428D01*
X32013Y4713D01*
X32000Y5001D01*
X32013Y5288D01*
X32055Y5573D01*
X32123Y5853D01*
X32218Y6124D01*
X32254Y6236D01*
X32272Y6353D01*
X32271Y6471D01*
X32251Y6587D01*
X32214Y6698D01*
X32159Y6803D01*
X32089Y6898D01*
X32005Y6980D01*
X31909Y7048D01*
X31804Y7101D01*
X31692Y7136D01*
X31575Y7154D01*
X31457Y7153D01*
X31386Y7141D01*
Y18041D01*
G37*
G36*
Y29851D02*X31457Y29846D01*
X35000Y29852D01*
Y25148D01*
X31386Y25142D01*
Y29851D01*
G37*
G36*
Y38500D02*X32412D01*
X32573Y38237D01*
X32879Y37879D01*
X33237Y37573D01*
X33500Y37412D01*
Y36956D01*
X31386Y36952D01*
Y38500D01*
G37*
G36*
X22591Y1214D02*X22957Y990D01*
X23609Y720D01*
X24296Y555D01*
X25000Y500D01*
X25704Y555D01*
X26391Y720D01*
X27043Y990D01*
X27645Y1359D01*
X28182Y1818D01*
X28641Y2355D01*
X29010Y2957D01*
X29280Y3609D01*
X29445Y4296D01*
X29500Y5000D01*
X29445Y5704D01*
X29280Y6391D01*
X29010Y7043D01*
X28641Y7645D01*
X28182Y8182D01*
X27645Y8641D01*
X27043Y9010D01*
X26500Y9235D01*
Y36880D01*
X28120Y38500D01*
X31386D01*
Y36952D01*
X31301D01*
X31148Y36915D01*
X31003Y36855D01*
X30869Y36773D01*
X30750Y36671D01*
X30648Y36552D01*
X30566Y36418D01*
X30506Y36273D01*
X30469Y36120D01*
X30457Y35964D01*
X30469Y30690D01*
X30506Y30537D01*
X30566Y30392D01*
X30648Y30258D01*
X30750Y30139D01*
X30869Y30037D01*
X31003Y29955D01*
X31148Y29895D01*
X31301Y29858D01*
X31386Y29851D01*
Y25142D01*
X31301D01*
X31148Y25105D01*
X31003Y25045D01*
X30869Y24963D01*
X30750Y24861D01*
X30648Y24742D01*
X30566Y24608D01*
X30506Y24463D01*
X30469Y24310D01*
X30457Y24154D01*
X30469Y18880D01*
X30506Y18727D01*
X30566Y18582D01*
X30648Y18448D01*
X30750Y18329D01*
X30869Y18227D01*
X31003Y18145D01*
X31148Y18085D01*
X31301Y18048D01*
X31386Y18041D01*
Y7141D01*
X31341Y7133D01*
X31230Y7096D01*
X31125Y7041D01*
X31030Y6971D01*
X30948Y6887D01*
X30880Y6791D01*
X30827Y6686D01*
X30685Y6279D01*
X30582Y5859D01*
X30520Y5432D01*
X30500Y5001D01*
X30520Y4569D01*
X30582Y4142D01*
X30685Y3722D01*
X30827Y3315D01*
X30881Y3210D01*
X30949Y3114D01*
X31031Y3030D01*
X31126Y2960D01*
X31230Y2906D01*
X31342Y2869D01*
X31386Y2861D01*
Y0D01*
X22591D01*
Y1214D01*
G37*
G36*
X27409Y68500D02*X35000D01*
Y43000D01*
X34531Y42963D01*
X34073Y42853D01*
X33638Y42673D01*
X33237Y42427D01*
X32879Y42121D01*
X32573Y41763D01*
X32412Y41500D01*
X27500D01*
X27409Y41493D01*
Y56074D01*
X27438Y56079D01*
X27513Y56104D01*
X27582Y56140D01*
X27646Y56187D01*
X27701Y56243D01*
X27746Y56307D01*
X27781Y56377D01*
X27876Y56648D01*
X27944Y56928D01*
X27986Y57213D01*
X28000Y57500D01*
X27986Y57788D01*
X27944Y58073D01*
X27876Y58353D01*
X27781Y58624D01*
X27745Y58694D01*
X27700Y58758D01*
X27645Y58814D01*
X27582Y58860D01*
X27512Y58897D01*
X27438Y58921D01*
X27409Y58926D01*
Y68500D01*
G37*
G36*
X25000D02*X27409D01*
Y58926D01*
X27361Y58934D01*
X27282Y58935D01*
X27205Y58924D01*
X27130Y58900D01*
X27060Y58865D01*
X26996Y58820D01*
X26940Y58765D01*
X26894Y58702D01*
X26857Y58632D01*
X26833Y58558D01*
X26820Y58481D01*
X26819Y58402D01*
X26830Y58325D01*
X26854Y58250D01*
X26917Y58069D01*
X26963Y57882D01*
X26990Y57692D01*
X27000Y57500D01*
X26990Y57309D01*
X26963Y57119D01*
X26917Y56932D01*
X26854Y56751D01*
X26829Y56676D01*
X26818Y56598D01*
X26819Y56520D01*
X26832Y56443D01*
X26857Y56368D01*
X26893Y56299D01*
X26940Y56235D01*
X26996Y56180D01*
X27060Y56135D01*
X27130Y56100D01*
X27205Y56076D01*
X27283Y56065D01*
X27361Y56066D01*
X27409Y56074D01*
Y41493D01*
X27265Y41482D01*
X27036Y41427D01*
X26819Y41337D01*
X26618Y41214D01*
X26439Y41061D01*
X25000Y39622D01*
Y54500D01*
X25287Y54514D01*
X25572Y54556D01*
X25852Y54624D01*
X26123Y54719D01*
X26193Y54755D01*
X26257Y54800D01*
X26313Y54855D01*
X26359Y54918D01*
X26396Y54988D01*
X26420Y55062D01*
X26433Y55139D01*
X26434Y55218D01*
X26423Y55295D01*
X26399Y55370D01*
X26364Y55440D01*
X26319Y55504D01*
X26264Y55560D01*
X26201Y55606D01*
X26131Y55643D01*
X26057Y55667D01*
X25980Y55680D01*
X25901Y55681D01*
X25824Y55670D01*
X25749Y55646D01*
X25568Y55583D01*
X25381Y55537D01*
X25191Y55510D01*
X25000Y55500D01*
Y59500D01*
X25191Y59491D01*
X25381Y59464D01*
X25568Y59418D01*
X25749Y59355D01*
X25824Y59330D01*
X25902Y59319D01*
X25980Y59320D01*
X26057Y59333D01*
X26132Y59358D01*
X26201Y59394D01*
X26265Y59441D01*
X26320Y59497D01*
X26365Y59561D01*
X26400Y59631D01*
X26424Y59706D01*
X26435Y59784D01*
X26434Y59862D01*
X26421Y59939D01*
X26396Y60014D01*
X26360Y60083D01*
X26313Y60147D01*
X26257Y60202D01*
X26193Y60247D01*
X26123Y60282D01*
X25852Y60377D01*
X25572Y60445D01*
X25287Y60487D01*
X25000Y60500D01*
Y68500D01*
G37*
G36*
X22591D02*X25000D01*
Y60500D01*
X24712Y60487D01*
X24427Y60445D01*
X24147Y60377D01*
X23876Y60282D01*
X23806Y60246D01*
X23742Y60201D01*
X23686Y60146D01*
X23640Y60083D01*
X23603Y60013D01*
X23579Y59939D01*
X23566Y59862D01*
X23565Y59783D01*
X23576Y59706D01*
X23600Y59631D01*
X23635Y59561D01*
X23680Y59497D01*
X23735Y59441D01*
X23798Y59395D01*
X23868Y59358D01*
X23942Y59334D01*
X24019Y59321D01*
X24098Y59320D01*
X24175Y59331D01*
X24250Y59355D01*
X24431Y59418D01*
X24618Y59464D01*
X24808Y59491D01*
X25000Y59500D01*
Y55500D01*
X24999D01*
X24808Y55510D01*
X24618Y55537D01*
X24431Y55583D01*
X24250Y55646D01*
X24175Y55671D01*
X24097Y55682D01*
X24019Y55681D01*
X23942Y55668D01*
X23867Y55643D01*
X23798Y55607D01*
X23734Y55560D01*
X23679Y55504D01*
X23634Y55440D01*
X23599Y55370D01*
X23575Y55295D01*
X23564Y55217D01*
X23565Y55139D01*
X23578Y55062D01*
X23603Y54987D01*
X23639Y54918D01*
X23686Y54854D01*
X23742Y54799D01*
X23806Y54754D01*
X23876Y54719D01*
X24147Y54624D01*
X24427Y54556D01*
X24712Y54514D01*
X24999Y54500D01*
X25000D01*
Y39622D01*
X23939Y38561D01*
X23786Y38382D01*
X23663Y38181D01*
X23573Y37964D01*
X23518Y37735D01*
X23500Y37500D01*
Y9235D01*
X22957Y9010D01*
X22591Y8786D01*
Y56075D01*
X22638Y56067D01*
X22717Y56066D01*
X22794Y56077D01*
X22869Y56101D01*
X22939Y56136D01*
X23003Y56181D01*
X23059Y56236D01*
X23105Y56299D01*
X23142Y56369D01*
X23166Y56443D01*
X23179Y56520D01*
X23180Y56599D01*
X23169Y56676D01*
X23145Y56751D01*
X23082Y56932D01*
X23036Y57119D01*
X23009Y57309D01*
X23000Y57501D01*
X23009Y57692D01*
X23036Y57882D01*
X23082Y58069D01*
X23145Y58250D01*
X23170Y58325D01*
X23181Y58403D01*
X23180Y58481D01*
X23167Y58558D01*
X23142Y58633D01*
X23106Y58702D01*
X23059Y58766D01*
X23003Y58821D01*
X22939Y58866D01*
X22869Y58901D01*
X22794Y58925D01*
X22716Y58936D01*
X22638Y58935D01*
X22591Y58927D01*
Y68500D01*
G37*
G36*
Y78216D02*X22879Y77879D01*
X23237Y77573D01*
X23638Y77327D01*
X24073Y77147D01*
X24531Y77037D01*
X25000Y77000D01*
X25469Y77037D01*
X25927Y77147D01*
X26362Y77327D01*
X26763Y77573D01*
X27121Y77879D01*
X27427Y78237D01*
X27673Y78638D01*
X27853Y79073D01*
X27963Y79531D01*
X28000Y80000D01*
X27963Y80469D01*
X27853Y80927D01*
X27673Y81362D01*
X27427Y81763D01*
X27121Y82121D01*
X26763Y82427D01*
X26500Y82588D01*
Y83044D01*
X28699Y83048D01*
X28852Y83085D01*
X28997Y83145D01*
X29131Y83227D01*
X29250Y83329D01*
X29352Y83448D01*
X29434Y83582D01*
X29494Y83727D01*
X29531Y83880D01*
X29543Y84036D01*
X29539Y86000D01*
X35000D01*
Y71500D01*
X22591D01*
Y78216D01*
G37*
G36*
Y83038D02*X23500Y83039D01*
Y82588D01*
X23237Y82427D01*
X22879Y82121D01*
X22591Y81784D01*
Y83038D01*
G37*
G36*
Y105471D02*X23120Y106000D01*
X35000D01*
Y89000D01*
X29532D01*
X29531Y89310D01*
X29494Y89463D01*
X29434Y89608D01*
X29352Y89742D01*
X29250Y89861D01*
X29131Y89963D01*
X28997Y90045D01*
X28852Y90105D01*
X28699Y90142D01*
X28543Y90154D01*
X22591Y90144D01*
Y94848D01*
X28699Y94858D01*
X28852Y94895D01*
X28997Y94955D01*
X29131Y95037D01*
X29250Y95139D01*
X29352Y95258D01*
X29434Y95392D01*
X29494Y95537D01*
X29531Y95690D01*
X29543Y95846D01*
X29531Y101120D01*
X29494Y101273D01*
X29434Y101418D01*
X29352Y101552D01*
X29250Y101671D01*
X29131Y101773D01*
X28997Y101855D01*
X28852Y101915D01*
X28699Y101952D01*
X28543Y101964D01*
X22591Y101954D01*
Y105471D01*
G37*
G36*
X7591Y516D02*X8235Y518D01*
X8464Y573D01*
X8681Y663D01*
X8882Y786D01*
X9061Y939D01*
X9214Y1118D01*
X9337Y1319D01*
X9427Y1536D01*
X9482Y1765D01*
X9500Y2000D01*
X9482Y8235D01*
X9427Y8464D01*
X9337Y8681D01*
X9214Y8882D01*
X9061Y9061D01*
X8882Y9214D01*
X8681Y9337D01*
X8464Y9427D01*
X8235Y9482D01*
X8000Y9500D01*
X7591Y9499D01*
Y90471D01*
X22591Y105471D01*
Y101954D01*
X21301Y101952D01*
X21148Y101915D01*
X21003Y101855D01*
X20869Y101773D01*
X20750Y101671D01*
X20648Y101552D01*
X20566Y101418D01*
X20506Y101273D01*
X20469Y101120D01*
X20457Y100964D01*
X20469Y95690D01*
X20506Y95537D01*
X20566Y95392D01*
X20648Y95258D01*
X20750Y95139D01*
X20869Y95037D01*
X21003Y94955D01*
X21148Y94895D01*
X21301Y94858D01*
X21457Y94846D01*
X22591Y94848D01*
Y90144D01*
X21301Y90142D01*
X21148Y90105D01*
X21003Y90045D01*
X20869Y89963D01*
X20750Y89861D01*
X20648Y89742D01*
X20566Y89608D01*
X20506Y89463D01*
X20469Y89310D01*
X20457Y89154D01*
X20469Y83880D01*
X20506Y83727D01*
X20566Y83582D01*
X20648Y83448D01*
X20750Y83329D01*
X20869Y83227D01*
X21003Y83145D01*
X21148Y83085D01*
X21301Y83048D01*
X21457Y83036D01*
X22591Y83038D01*
Y81784D01*
X22573Y81763D01*
X22327Y81362D01*
X22147Y80927D01*
X22037Y80469D01*
X22000Y80000D01*
X22037Y79531D01*
X22147Y79073D01*
X22327Y78638D01*
X22573Y78237D01*
X22591Y78216D01*
Y71500D01*
X17500D01*
X17265Y71482D01*
X17036Y71427D01*
X16819Y71337D01*
X16618Y71214D01*
X16439Y71061D01*
X13939Y68561D01*
X13786Y68382D01*
X13663Y68181D01*
X13573Y67964D01*
X13518Y67735D01*
X13500Y67500D01*
Y9235D01*
X12957Y9010D01*
X12355Y8641D01*
X11818Y8182D01*
X11359Y7645D01*
X10990Y7043D01*
X10720Y6391D01*
X10555Y5704D01*
X10500Y5000D01*
X10555Y4296D01*
X10720Y3609D01*
X10990Y2957D01*
X11359Y2355D01*
X11818Y1818D01*
X12355Y1359D01*
X12957Y990D01*
X13609Y720D01*
X14296Y555D01*
X15000Y500D01*
X15704Y555D01*
X16391Y720D01*
X17043Y990D01*
X17645Y1359D01*
X18182Y1818D01*
X18641Y2355D01*
X19010Y2957D01*
X19280Y3609D01*
X19445Y4296D01*
X19500Y5000D01*
X19445Y5704D01*
X19280Y6391D01*
X19010Y7043D01*
X18641Y7645D01*
X18182Y8182D01*
X17645Y8641D01*
X17043Y9010D01*
X16500Y9235D01*
Y66880D01*
X18120Y68500D01*
X22591D01*
Y58927D01*
X22561Y58922D01*
X22486Y58897D01*
X22417Y58861D01*
X22353Y58814D01*
X22298Y58758D01*
X22253Y58694D01*
X22218Y58624D01*
X22123Y58353D01*
X22055Y58073D01*
X22013Y57788D01*
X22000Y57501D01*
X22013Y57213D01*
X22055Y56928D01*
X22123Y56648D01*
X22218Y56377D01*
X22254Y56307D01*
X22299Y56243D01*
X22354Y56187D01*
X22417Y56141D01*
X22487Y56104D01*
X22561Y56080D01*
X22591Y56075D01*
Y8786D01*
X22355Y8641D01*
X21818Y8182D01*
X21359Y7645D01*
X20990Y7043D01*
X20720Y6391D01*
X20555Y5704D01*
X20500Y5000D01*
X20555Y4296D01*
X20720Y3609D01*
X20990Y2957D01*
X21359Y2355D01*
X21818Y1818D01*
X22355Y1359D01*
X22591Y1214D01*
Y0D01*
X7591D01*
Y516D01*
G37*
G36*
X12409Y115000D02*X35000D01*
Y109000D01*
X22500D01*
X22265Y108982D01*
X22036Y108927D01*
X21819Y108837D01*
X21618Y108714D01*
X21439Y108561D01*
X12409Y99531D01*
Y101074D01*
X12438Y101079D01*
X12513Y101104D01*
X12582Y101140D01*
X12646Y101187D01*
X12701Y101243D01*
X12746Y101307D01*
X12781Y101377D01*
X12876Y101648D01*
X12944Y101928D01*
X12986Y102213D01*
X13000Y102500D01*
X12986Y102788D01*
X12944Y103073D01*
X12876Y103353D01*
X12781Y103624D01*
X12745Y103694D01*
X12700Y103758D01*
X12645Y103814D01*
X12582Y103860D01*
X12512Y103897D01*
X12438Y103921D01*
X12409Y103926D01*
Y115000D01*
G37*
G36*
X10000D02*X12409D01*
Y103926D01*
X12361Y103934D01*
X12282Y103935D01*
X12205Y103924D01*
X12130Y103900D01*
X12060Y103865D01*
X11996Y103820D01*
X11940Y103765D01*
X11894Y103702D01*
X11857Y103632D01*
X11833Y103558D01*
X11820Y103481D01*
X11819Y103402D01*
X11830Y103325D01*
X11854Y103250D01*
X11917Y103069D01*
X11963Y102882D01*
X11990Y102692D01*
X12000Y102500D01*
X11990Y102309D01*
X11963Y102119D01*
X11917Y101932D01*
X11854Y101751D01*
X11829Y101676D01*
X11818Y101598D01*
X11819Y101520D01*
X11832Y101443D01*
X11857Y101368D01*
X11893Y101299D01*
X11940Y101235D01*
X11996Y101180D01*
X12060Y101135D01*
X12130Y101100D01*
X12205Y101076D01*
X12283Y101065D01*
X12361Y101066D01*
X12409Y101074D01*
Y99531D01*
X10000Y97122D01*
Y99500D01*
X10287Y99514D01*
X10572Y99556D01*
X10852Y99624D01*
X11123Y99719D01*
X11193Y99755D01*
X11257Y99800D01*
X11313Y99855D01*
X11359Y99918D01*
X11396Y99988D01*
X11420Y100062D01*
X11433Y100139D01*
X11434Y100218D01*
X11423Y100295D01*
X11399Y100370D01*
X11364Y100440D01*
X11319Y100504D01*
X11264Y100560D01*
X11201Y100606D01*
X11131Y100643D01*
X11057Y100667D01*
X10980Y100680D01*
X10901Y100681D01*
X10824Y100670D01*
X10749Y100646D01*
X10568Y100583D01*
X10381Y100537D01*
X10191Y100510D01*
X10000Y100500D01*
Y104500D01*
X10191Y104491D01*
X10381Y104464D01*
X10568Y104418D01*
X10749Y104355D01*
X10824Y104330D01*
X10902Y104319D01*
X10980Y104320D01*
X11057Y104333D01*
X11132Y104358D01*
X11201Y104394D01*
X11265Y104441D01*
X11320Y104497D01*
X11365Y104561D01*
X11400Y104631D01*
X11424Y104706D01*
X11435Y104784D01*
X11434Y104862D01*
X11421Y104939D01*
X11396Y105014D01*
X11360Y105083D01*
X11313Y105147D01*
X11257Y105202D01*
X11193Y105247D01*
X11123Y105282D01*
X10852Y105377D01*
X10572Y105445D01*
X10287Y105487D01*
X10000Y105500D01*
Y115000D01*
G37*
G36*
X7591D02*X10000D01*
Y105500D01*
X9712Y105487D01*
X9427Y105445D01*
X9147Y105377D01*
X8876Y105282D01*
X8806Y105246D01*
X8742Y105201D01*
X8686Y105146D01*
X8640Y105083D01*
X8603Y105013D01*
X8579Y104939D01*
X8566Y104862D01*
X8565Y104783D01*
X8576Y104706D01*
X8600Y104631D01*
X8635Y104561D01*
X8680Y104497D01*
X8735Y104441D01*
X8798Y104395D01*
X8868Y104358D01*
X8942Y104334D01*
X9019Y104321D01*
X9098Y104320D01*
X9175Y104331D01*
X9250Y104355D01*
X9431Y104418D01*
X9618Y104464D01*
X9808Y104491D01*
X10000Y104500D01*
Y100500D01*
X9999D01*
X9808Y100510D01*
X9618Y100537D01*
X9431Y100583D01*
X9250Y100646D01*
X9175Y100671D01*
X9097Y100682D01*
X9019Y100681D01*
X8942Y100668D01*
X8867Y100643D01*
X8798Y100607D01*
X8734Y100560D01*
X8679Y100504D01*
X8634Y100440D01*
X8599Y100370D01*
X8575Y100295D01*
X8564Y100217D01*
X8565Y100139D01*
X8578Y100062D01*
X8603Y99987D01*
X8639Y99918D01*
X8686Y99854D01*
X8742Y99799D01*
X8806Y99754D01*
X8876Y99719D01*
X9147Y99624D01*
X9427Y99556D01*
X9712Y99514D01*
X9999Y99500D01*
X10000D01*
Y97122D01*
X7591Y94713D01*
Y101075D01*
X7638Y101067D01*
X7717Y101066D01*
X7794Y101077D01*
X7869Y101101D01*
X7939Y101136D01*
X8003Y101181D01*
X8059Y101236D01*
X8105Y101299D01*
X8142Y101369D01*
X8166Y101443D01*
X8179Y101520D01*
X8180Y101599D01*
X8169Y101676D01*
X8145Y101751D01*
X8082Y101932D01*
X8036Y102119D01*
X8009Y102309D01*
X8000Y102501D01*
X8009Y102692D01*
X8036Y102882D01*
X8082Y103069D01*
X8145Y103250D01*
X8170Y103325D01*
X8181Y103403D01*
X8180Y103481D01*
X8167Y103558D01*
X8142Y103633D01*
X8106Y103702D01*
X8059Y103766D01*
X8003Y103821D01*
X7939Y103866D01*
X7869Y103901D01*
X7794Y103925D01*
X7716Y103936D01*
X7638Y103935D01*
X7591Y103927D01*
Y115000D01*
G37*
G36*
Y9499D02*X6500Y9496D01*
Y89380D01*
X7591Y90471D01*
Y9499D01*
G37*
G36*
X0Y0D02*Y115000D01*
X7591D01*
Y103927D01*
X7561Y103922D01*
X7486Y103897D01*
X7417Y103861D01*
X7353Y103814D01*
X7298Y103758D01*
X7253Y103694D01*
X7218Y103624D01*
X7123Y103353D01*
X7055Y103073D01*
X7013Y102788D01*
X7000Y102501D01*
X7013Y102213D01*
X7055Y101928D01*
X7123Y101648D01*
X7218Y101377D01*
X7254Y101307D01*
X7299Y101243D01*
X7354Y101187D01*
X7417Y101141D01*
X7487Y101104D01*
X7561Y101080D01*
X7591Y101075D01*
Y94713D01*
X3939Y91061D01*
X3786Y90882D01*
X3663Y90681D01*
X3573Y90464D01*
X3518Y90235D01*
X3500Y90000D01*
Y9487D01*
X1765Y9482D01*
X1536Y9427D01*
X1319Y9337D01*
X1118Y9214D01*
X939Y9061D01*
X786Y8882D01*
X663Y8681D01*
X573Y8464D01*
X518Y8235D01*
X500Y8000D01*
X518Y1765D01*
X573Y1536D01*
X663Y1319D01*
X786Y1118D01*
X939Y939D01*
X1118Y786D01*
X1319Y663D01*
X1536Y573D01*
X1765Y518D01*
X2000Y500D01*
X7591Y516D01*
Y0D01*
X0D01*
G37*
G54D11*X112500Y40000D02*Y32500D01*
X27500Y40000D02*X112500D01*
X242500D02*Y32500D01*
X160000Y40000D02*X242500D01*
X165000Y32500D02*Y40000D01*
X152500Y47500D02*X160000Y40000D01*
X120000Y47500D02*X152500D01*
X210000Y57500D02*X207500Y60000D01*
X200000D01*
X197500Y62500D01*
X25000Y92500D02*Y102500D01*
Y80000D02*Y87500D01*
X102500Y92500D02*Y102500D01*
X62500Y80000D02*Y87500D01*
X102500Y80000D02*Y87500D01*
X25000D02*X102500D01*
X62500Y92500D02*Y102500D01*
X5000Y90000D02*X22500Y107500D01*
X35000Y32500D02*Y40000D01*
X60000Y10000D02*X55000Y5000D01*
X25000D02*Y37500D01*
X35000Y27500D02*Y17500D01*
X55000Y5000D03*
X45000D02*Y25000D01*
X25000Y37500D02*X27500Y40000D01*
X5000Y5000D02*Y90000D01*
X17500Y70000D02*X15000Y67500D01*
Y5000D01*
X187500Y10000D02*X250000D01*
X252500Y12500D02*X250000Y10000D01*
X252500Y42500D02*Y12500D01*
X202500Y27500D02*Y32500D01*
X242500Y17500D02*Y27500D01*
X210000Y40000D02*Y25000D01*
X207500Y22500D01*
X202500D01*
X210000Y47500D02*Y57500D01*
X22500Y107500D02*X102500D01*
X152500D02*X232500D01*
X155000Y92500D02*Y102500D01*
X135000Y72500D02*Y90000D01*
X152500Y107500D01*
X155000Y80000D02*Y87500D01*
X232500Y92500D02*Y102500D01*
Y80000D02*Y87500D01*
X192500Y80000D02*Y87500D01*
X155000D02*X232500D01*
X192500Y92500D02*Y102500D01*
X135000Y72500D02*X132500Y70000D01*
X17500D01*
X80000Y40000D02*Y25000D01*
X122500Y42500D02*Y10000D01*
X120000Y47500D02*X112500Y40000D01*
Y17500D02*Y27500D01*
X80000Y25000D02*X77500Y22500D01*
X72500D01*
Y27500D02*Y32500D01*
X65000Y27500D02*X47500D01*
X45000Y25000D01*
X80000Y47500D02*Y57500D01*
X77500Y60000D01*
X70000D01*
X67500Y62500D01*
X60000Y10000D02*X187500D01*
X175000Y27500D02*X130000D01*
X160000Y22500D02*X170000D01*
G54D13*G36*
X2000Y8000D02*Y2000D01*
X8000D01*
Y8000D01*
X2000D01*
G37*
G54D14*X15000Y5000D03*
X25000D03*
X35000D03*
X45000D03*
X55000D03*
G54D15*X232500Y107500D03*
G54D14*X65000Y5000D03*
X75000D03*
G54D15*X135000Y17500D03*
X102500Y107500D03*
G54D16*X112500Y40000D03*
X202500D03*
X165000D03*
X242500D03*
X252500Y42500D03*
X122500D03*
Y102500D03*
X102500Y80000D03*
X95000Y102500D03*
X155000Y57500D03*
Y80000D03*
X140000Y102500D03*
X130000Y27500D03*
X175000D03*
X62500Y57500D03*
X65000Y27500D03*
X72500Y40000D03*
X80000Y47500D03*
X67500Y62500D03*
X25000Y57500D03*
X62500Y80000D03*
X25000D03*
X10000Y102500D03*
X35000Y40000D03*
X45000Y20000D03*
X192500Y57500D03*
Y80000D03*
X210000Y47500D03*
X197500Y62500D03*
X232500Y80000D03*
X252500Y87500D03*
X225000Y102500D03*
G54D18*X111516Y33405D02*X113484D01*
X71516Y21595D02*X73484D01*
X111516D02*X113484D01*
X164016Y33405D02*X165984D01*
X164016Y21595D02*X165984D01*
X34016Y33405D02*X35984D01*
X71516D02*X73484D01*
X34016Y21595D02*X35984D01*
X101516Y98405D02*X103484D01*
X101516Y86595D02*X103484D01*
X61516Y98405D02*X63484D01*
X61516Y86595D02*X63484D01*
X24016Y98405D02*X25984D01*
X24016Y86595D02*X25984D01*
X191516Y98405D02*X193484D01*
X154016D02*X155984D01*
X154016Y86595D02*X155984D01*
X191516D02*X193484D01*
X231516Y98405D02*X233484D01*
X231516Y86595D02*X233484D01*
X201516Y33405D02*X203484D01*
X201516Y21595D02*X203484D01*
X241516D02*X243484D01*
X241516Y33405D02*X243484D01*
G54D22*G54D23*G54D22*G54D23*G54D13*M02*
