G04 start of page 9 for group -4078 idx -4078 *
G04 Title: 36.006.01.01.01, bottomsilk *
G04 Creator: pcb 20100929 *
G04 CreationDate: Wed Mar 18 07:56:07 2015 UTC *
G04 For: bert *
G04 Format: Gerber/RS-274X *
G04 PCB-Dimensions: 260000 115000 *
G04 PCB-Coordinate-Origin: lower left *
%MOIN*%
%FSLAX25Y25*%
%LNBACKSILK*%
%ADD11C,0.0100*%
%ADD32C,0.0000*%
G54D11*X0Y115000D02*X260000D01*
X97500Y107500D02*X87500D01*
X92500Y110000D02*X97500Y107500D01*
X0Y0D02*Y115000D01*
X260000Y0D02*X0D01*
X97500Y107500D02*X92500Y105000D01*
Y110000D01*
X260000Y115000D02*Y0D01*
X222500Y110000D02*X227500Y107500D01*
X222500Y105000D01*
Y110000D01*
X227500Y107500D02*X217500D01*
X256900Y69000D02*Y73800D01*
X255100D02*X254500Y73200D01*
Y69600D02*Y73200D01*
X255100Y69000D02*X254500Y69600D01*
X255100Y69000D02*X257500D01*
X255100Y73800D02*X257500D01*
X253059Y69600D02*Y71400D01*
Y69600D02*X252459Y69000D01*
X251259D02*X252459D01*
X251259D02*X250659Y69600D01*
Y71400D01*
X247418D02*X246818Y70800D01*
X247418Y71400D02*X248618D01*
X249218Y70800D02*X248618Y71400D01*
X249218Y69600D02*Y70800D01*
Y69600D02*X248618Y69000D01*
X246818Y69600D02*Y71400D01*
Y69600D02*X246218Y69000D01*
X247418D02*X248618D01*
X247418D02*X246818Y69600D01*
X244777D02*Y73800D01*
Y69600D02*X244177Y69000D01*
X238416D02*X240816D01*
X238416D02*X237816Y69600D01*
Y70800D01*
X238416Y71400D02*X237816Y70800D01*
X238416Y71400D02*X240216D01*
Y69000D02*Y73800D01*
X238416D02*X240816D01*
X238416D02*X237816Y73200D01*
Y72000D02*Y73200D01*
X238416Y71400D02*X237816Y72000D01*
X234574Y71400D02*X233974Y70800D01*
X234574Y71400D02*X235774D01*
X236374Y70800D02*X235774Y71400D01*
X236374Y69600D02*Y70800D01*
Y69600D02*X235774Y69000D01*
X233974Y69600D02*Y71400D01*
Y69600D02*X233374Y69000D01*
X234574D02*X235774D01*
X234574D02*X233974Y69600D01*
X231333Y69000D02*Y70800D01*
X230733Y71400D01*
X230133D02*X230733D01*
X230133D02*X229533Y70800D01*
Y69000D02*Y70800D01*
X231933Y71400D02*X231333Y70800D01*
X225692Y69000D02*Y73800D01*
X226292Y69000D02*X225692Y69600D01*
X226292Y69000D02*X227492D01*
X228092Y69600D02*X227492Y69000D01*
X228092Y69600D02*Y70800D01*
X227492Y71400D01*
X226292D02*X227492D01*
X226292D02*X225692Y70800D01*
X223651Y67200D02*Y70800D01*
X224251Y71400D02*X223651Y70800D01*
X223051Y71400D01*
X221851D02*X223051D01*
X221851D02*X221251Y70800D01*
Y69600D02*Y70800D01*
X221851Y69000D02*X221251Y69600D01*
X221851Y69000D02*X223051D01*
X223651Y69600D02*X223051Y69000D01*
X218010Y71400D02*X217410Y70800D01*
X218010Y71400D02*X219210D01*
X219810Y70800D02*X219210Y71400D01*
X219810Y69600D02*Y70800D01*
Y69600D02*X219210Y69000D01*
X217410Y69600D02*Y71400D01*
Y69600D02*X216810Y69000D01*
X218010D02*X219210D01*
X218010D02*X217410Y69600D01*
X212968Y69000D02*X214768D01*
X212968D02*X212368Y69600D01*
X212968Y70200D02*X212368Y69600D01*
X212968Y70200D02*X214768D01*
X215368Y70800D02*X214768Y70200D01*
X215368Y70800D02*X214768Y71400D01*
X212968D02*X214768D01*
X212968D02*X212368Y70800D01*
X215368Y69600D02*X214768Y69000D01*
X208527D02*X210327D01*
X208527D02*X207927Y69600D01*
X208527Y70200D02*X207927Y69600D01*
X208527Y70200D02*X210327D01*
X210927Y70800D02*X210327Y70200D01*
X210927Y70800D02*X210327Y71400D01*
X208527D02*X210327D01*
X208527D02*X207927Y70800D01*
X210927Y69600D02*X210327Y69000D01*
X204326D02*Y73800D01*
X201926D02*X204326D01*
X202526Y71400D02*X204326D01*
X200485Y72000D02*Y72600D01*
Y69000D02*Y70800D01*
X199284Y69600D02*Y73800D01*
Y69600D02*X198684Y69000D01*
X196882Y69600D02*Y73800D01*
Y69600D02*X196282Y69000D01*
Y72000D02*X197482D01*
X192681Y69000D02*X194481D01*
X195081Y69600D02*X194481Y69000D01*
X195081Y69600D02*Y70800D01*
X194481Y71400D01*
X193281D02*X194481D01*
X193281D02*X192681Y70800D01*
Y70200D02*X195081D01*
X192681D02*Y70800D01*
X190640Y69000D02*Y70800D01*
X190040Y71400D01*
X188840D02*X190040D01*
X191240D02*X190640Y70800D01*
X185239Y69600D02*Y73800D01*
Y69600D02*X184639Y69000D01*
X183439D02*X184639D01*
X183439D02*X182839Y69600D01*
Y73800D01*
X180798Y69000D02*Y70800D01*
X180198Y71400D01*
X179598D02*X180198D01*
X179598D02*X178998Y70800D01*
Y69000D02*Y70800D01*
X181398Y71400D02*X180798Y70800D01*
X177556Y72000D02*Y72600D01*
Y69000D02*Y70800D01*
X175755Y69600D02*Y73800D01*
Y69600D02*X175155Y69000D01*
Y72000D02*X176355D01*
X257500Y52100D02*X256900Y51500D01*
X257500Y55700D02*X256900Y56300D01*
X257500Y52100D02*Y55700D01*
X253059Y51500D02*X254859D01*
X255459Y52100D02*X254859Y51500D01*
X255459Y52100D02*Y55700D01*
X254859Y56300D01*
X253059D02*X254859D01*
X251618D02*X251018Y55700D01*
Y52100D02*Y55700D01*
X251618Y51500D02*X251018Y52100D01*
X247417Y55700D02*X246817Y56300D01*
X245017D02*X246817D01*
X245017D02*X244417Y55700D01*
Y54500D02*Y55700D01*
X247417Y51500D02*X244417Y54500D01*
Y51500D02*X247417D01*
X242976Y52100D02*X242376Y51500D01*
X242976Y52100D02*Y55700D01*
X242376Y56300D01*
X241176D02*X242376D01*
X241176D02*X240576Y55700D01*
Y52100D02*Y55700D01*
X241176Y51500D02*X240576Y52100D01*
X241176Y51500D02*X242376D01*
X242976Y52700D02*X240576Y55100D01*
X239134Y52100D02*X238534Y51500D01*
X239134Y52100D02*Y55700D01*
X238534Y56300D01*
X237334D02*X238534D01*
X237334D02*X236734Y55700D01*
Y52100D02*Y55700D01*
X237334Y51500D02*X236734Y52100D01*
X237334Y51500D02*X238534D01*
X239134Y52700D02*X236734Y55100D01*
X235293Y51500D02*X232893Y53900D01*
Y55700D01*
X233493Y56300D02*X232893Y55700D01*
X233493Y56300D02*X234693D01*
X235293Y55700D02*X234693Y56300D01*
X235293Y54500D02*Y55700D01*
Y54500D02*X234693Y53900D01*
X232893D02*X234693D01*
X226892Y51500D02*X229292D01*
X226892D02*X226292Y52100D01*
Y53300D01*
X226892Y53900D02*X226292Y53300D01*
X226892Y53900D02*X228692D01*
Y51500D02*Y56300D01*
X226892D02*X229292D01*
X226892D02*X226292Y55700D01*
Y54500D02*Y55700D01*
X226892Y53900D02*X226292Y54500D01*
X222451Y51500D02*X224251D01*
X224851Y52100D02*X224251Y51500D01*
X224851Y52100D02*Y53300D01*
X224251Y53900D01*
X223051D02*X224251D01*
X223051D02*X222451Y53300D01*
Y52700D02*X224851D01*
X222451D02*Y53300D01*
X220410Y51500D02*Y53300D01*
X219810Y53900D01*
X218610D02*X219810D01*
X221010D02*X220410Y53300D01*
X216568Y52100D02*Y56300D01*
Y52100D02*X215968Y51500D01*
Y54500D02*X217168D01*
X210207Y56300D02*X212607D01*
X211407Y51500D02*Y56300D01*
X208766Y54500D02*Y55100D01*
Y51500D02*Y53300D01*
X206965Y51500D02*Y53300D01*
X206365Y53900D01*
X205765D02*X206365D01*
X205765D02*X205165Y53300D01*
Y51500D02*Y53300D01*
X204565Y53900D01*
X203965D02*X204565D01*
X203965D02*X203365Y53300D01*
Y51500D02*Y53300D01*
X207565Y53900D02*X206965Y53300D01*
X201324Y51500D02*Y53300D01*
X200724Y53900D01*
X200124D02*X200724D01*
X200124D02*X199524Y53300D01*
Y51500D02*Y53300D01*
X198924Y53900D01*
X198324D02*X198924D01*
X198324D02*X197724Y53300D01*
Y51500D02*Y53300D01*
X201924Y53900D02*X201324Y53300D01*
X193882Y51500D02*X195682D01*
X196282Y52100D02*X195682Y51500D01*
X196282Y52100D02*Y53300D01*
X195682Y53900D01*
X194482D02*X195682D01*
X194482D02*X193882Y53300D01*
Y52700D02*X196282D01*
X193882D02*Y53300D01*
X191841Y51500D02*Y53300D01*
X191241Y53900D01*
X190041D02*X191241D01*
X192441D02*X191841Y53300D01*
X188000Y51500D02*Y53300D01*
X187400Y53900D01*
X186800D02*X187400D01*
X186800D02*X186200Y53300D01*
Y51500D02*Y53300D01*
X185600Y53900D01*
X185000D02*X185600D01*
X185000D02*X184400Y53300D01*
Y51500D02*Y53300D01*
X188600Y53900D02*X188000Y53300D01*
X181159Y53900D02*X180559Y53300D01*
X181159Y53900D02*X182359D01*
X182959Y53300D02*X182359Y53900D01*
X182959Y52100D02*Y53300D01*
Y52100D02*X182359Y51500D01*
X180559Y52100D02*Y53900D01*
Y52100D02*X179959Y51500D01*
X181159D02*X182359D01*
X181159D02*X180559Y52100D01*
X177918Y51500D02*Y53300D01*
X177318Y53900D01*
X176718D02*X177318D01*
X176718D02*X176118Y53300D01*
Y51500D02*Y53300D01*
X178518Y53900D02*X177918Y53300D01*
X85000Y107100D02*Y110700D01*
X84400Y111300D01*
X83200D02*X84400D01*
X83200D02*X82600Y110700D01*
Y107100D02*Y110700D01*
X83200Y106500D02*X82600Y107100D01*
X83200Y106500D02*X84400D01*
X85000Y107100D02*X84400Y106500D01*
X81159Y107100D02*Y111300D01*
Y107100D02*X80559Y106500D01*
X79359D02*X80559D01*
X79359D02*X78759Y107100D01*
Y111300D01*
X74918D02*X77318D01*
X76118Y106500D02*Y111300D01*
X71677Y106500D02*X72877D01*
X72277D02*Y111300D01*
X73477Y110100D02*X72277Y111300D01*
X65676Y109500D02*X68076D01*
X65676Y108300D02*X68076D01*
X62074Y110700D02*X61474Y111300D01*
X60274D02*X61474D01*
X60274D02*X59674Y110700D01*
Y107100D02*Y110700D01*
X60274Y106500D02*X59674Y107100D01*
X60274Y106500D02*X61474D01*
X62074Y107100D02*X61474Y106500D01*
X59674Y108900D02*X61474D01*
X56433Y106500D02*X57633D01*
X57033D02*Y111300D01*
X58233Y110100D02*X57033Y111300D01*
X54392Y106500D02*X54992D01*
X50551Y111300D02*X52951D01*
Y108900D02*Y111300D01*
Y108900D02*X52351Y109500D01*
X51151D02*X52351D01*
X51151D02*X50551Y108900D01*
Y107100D02*Y108900D01*
X51151Y106500D02*X50551Y107100D01*
X51151Y106500D02*X52351D01*
X52951Y107100D02*X52351Y106500D01*
X46950D02*Y111300D01*
X43950Y106500D02*Y111300D01*
Y108900D02*X46950D01*
X40108D02*X42508D01*
Y106500D02*X40108Y108900D01*
Y106500D02*X42508D01*
X215000Y107100D02*Y110700D01*
X214400Y111300D01*
X213200D02*X214400D01*
X213200D02*X212600Y110700D01*
Y107100D02*Y110700D01*
X213200Y106500D02*X212600Y107100D01*
X213200Y106500D02*X214400D01*
X215000Y107100D02*X214400Y106500D01*
X211159Y107100D02*Y111300D01*
Y107100D02*X210559Y106500D01*
X209359D02*X210559D01*
X209359D02*X208759Y107100D01*
Y111300D01*
X204918D02*X207318D01*
X206118Y106500D02*Y111300D01*
X203477Y110700D02*X202877Y111300D01*
X201077D02*X202877D01*
X201077D02*X200477Y110700D01*
Y109500D02*Y110700D01*
X203477Y106500D02*X200477Y109500D01*
Y106500D02*X203477D01*
X194476Y109500D02*X196876D01*
X194476Y108300D02*X196876D01*
X189074Y111300D02*X188474Y110700D01*
X189074Y111300D02*X190274D01*
X190874Y110700D02*X190274Y111300D01*
X190874Y107100D02*Y110700D01*
Y107100D02*X190274Y106500D01*
X189074Y108900D02*X188474Y108300D01*
X189074Y108900D02*X190874D01*
X189074Y106500D02*X190274D01*
X189074D02*X188474Y107100D01*
Y108300D01*
X187033Y110700D02*X186433Y111300D01*
X185233D02*X186433D01*
X185233D02*X184633Y110700D01*
Y107100D02*Y110700D01*
X185233Y106500D02*X184633Y107100D01*
X185233Y106500D02*X186433D01*
X187033Y107100D02*X186433Y106500D01*
X184633Y108900D02*X186433D01*
X181032Y106500D02*Y111300D01*
X178032Y106500D02*Y111300D01*
Y108900D02*X181032D01*
X174191D02*X176591D01*
Y106500D02*X174191Y108900D01*
Y106500D02*X176591D01*
X255000Y8200D02*X254400Y8800D01*
X252600D02*X254400D01*
X252600D02*X252000Y8200D01*
Y7000D02*Y8200D01*
X255000Y4000D02*X252000Y7000D01*
Y4000D02*X255000D01*
X248759Y8800D02*X248159Y8200D01*
X248759Y8800D02*X249959D01*
X250559Y8200D02*X249959Y8800D01*
X250559Y4600D02*Y8200D01*
Y4600D02*X249959Y4000D01*
X248759Y6400D02*X248159Y5800D01*
X248759Y6400D02*X250559D01*
X248759Y4000D02*X249959D01*
X248759D02*X248159Y4600D01*
Y5800D01*
X246118Y4000D02*X246718D01*
X244677Y4600D02*X244077Y4000D01*
X244677Y4600D02*Y8200D01*
X244077Y8800D01*
X242877D02*X244077D01*
X242877D02*X242277Y8200D01*
Y4600D02*Y8200D01*
X242877Y4000D02*X242277Y4600D01*
X242877Y4000D02*X244077D01*
X244677Y5200D02*X242277Y7600D01*
X240836Y4600D02*X240236Y4000D01*
X240836Y4600D02*Y8200D01*
X240236Y8800D01*
X239036D02*X240236D01*
X239036D02*X238436Y8200D01*
Y4600D02*Y8200D01*
X239036Y4000D02*X238436Y4600D01*
X239036Y4000D02*X240236D01*
X240836Y5200D02*X238436Y7600D01*
X235194Y8800D02*X234594Y8200D01*
X235194Y8800D02*X236394D01*
X236994Y8200D02*X236394Y8800D01*
X236994Y4600D02*Y8200D01*
Y4600D02*X236394Y4000D01*
X235194Y6400D02*X234594Y5800D01*
X235194Y6400D02*X236994D01*
X235194Y4000D02*X236394D01*
X235194D02*X234594Y4600D01*
Y5800D01*
X232553Y4000D02*X233153D01*
X231112Y4600D02*X230512Y4000D01*
X231112Y4600D02*Y8200D01*
X230512Y8800D01*
X229312D02*X230512D01*
X229312D02*X228712Y8200D01*
Y4600D02*Y8200D01*
X229312Y4000D02*X228712Y4600D01*
X229312Y4000D02*X230512D01*
X231112Y5200D02*X228712Y7600D01*
X225471Y4000D02*X226671D01*
X226071D02*Y8800D01*
X227271Y7600D02*X226071Y8800D01*
X223430Y4000D02*X224030D01*
X221988Y4600D02*X221388Y4000D01*
X221988Y4600D02*Y8200D01*
X221388Y8800D01*
X220188D02*X221388D01*
X220188D02*X219588Y8200D01*
Y4600D02*Y8200D01*
X220188Y4000D02*X219588Y4600D01*
X220188Y4000D02*X221388D01*
X221988Y5200D02*X219588Y7600D01*
X216347Y4000D02*X217547D01*
X216947D02*Y8800D01*
X218147Y7600D02*X216947Y8800D01*
X228957Y94468D02*Y90532D01*
X236043Y94468D02*Y90532D01*
G54D32*X228207Y101774D02*Y83226D01*
X236793Y101774D02*Y83226D01*
X228207Y101774D02*X236793D01*
X228207Y83226D02*X236793D01*
G54D11*X227500Y107500D02*G75*G03X227500Y107500I5000J0D01*G01*
X246043Y29468D02*Y25532D01*
X238957Y29468D02*Y25532D01*
G54D32*X246793Y36774D02*Y18226D01*
X238207Y36774D02*Y18226D01*
X246793D01*
X238207Y36774D02*X246793D01*
G54D11*X198957Y29468D02*Y25532D01*
X206043Y29468D02*Y25532D01*
G54D32*X198207Y36774D02*Y18226D01*
X206793Y36774D02*Y18226D01*
X198207Y36774D02*X206793D01*
X198207Y18226D02*X206793D01*
G54D11*X188957Y94468D02*Y90532D01*
X196043Y94468D02*Y90532D01*
G54D32*X188207Y101774D02*Y83226D01*
X196793Y101774D02*Y83226D01*
X188207Y101774D02*X196793D01*
X188207Y83226D02*X196793D01*
G54D11*X38543Y29468D02*Y25532D01*
X31457Y29468D02*Y25532D01*
G54D32*X39293Y36774D02*Y18226D01*
X30707Y36774D02*Y18226D01*
X39293D01*
X30707Y36774D02*X39293D01*
G54D11*X68957Y29468D02*Y25532D01*
X76043Y29468D02*Y25532D01*
G54D32*X68207Y36774D02*Y18226D01*
X76793Y36774D02*Y18226D01*
X68207Y36774D02*X76793D01*
X68207Y18226D02*X76793D01*
G54D11*X21457Y94468D02*Y90532D01*
X28543Y94468D02*Y90532D01*
G54D32*X20707Y101774D02*Y83226D01*
X29293Y101774D02*Y83226D01*
X20707Y101774D02*X29293D01*
X20707Y83226D02*X29293D01*
G54D11*X151457Y94468D02*Y90532D01*
X158543Y94468D02*Y90532D01*
G54D32*X150707Y101774D02*Y83226D01*
X159293Y101774D02*Y83226D01*
X150707Y101774D02*X159293D01*
X150707Y83226D02*X159293D01*
G54D11*X168543Y29468D02*Y25532D01*
X161457Y29468D02*Y25532D01*
G54D32*X169293Y36774D02*Y18226D01*
X160707Y36774D02*Y18226D01*
X169293D01*
X160707Y36774D02*X169293D01*
G54D11*X116043Y29468D02*Y25532D01*
X108957Y29468D02*Y25532D01*
G54D32*X116793Y36774D02*Y18226D01*
X108207Y36774D02*Y18226D01*
X116793D01*
X108207Y36774D02*X116793D01*
G54D11*X98957Y94468D02*Y90532D01*
X106043Y94468D02*Y90532D01*
G54D32*X98207Y101774D02*Y83226D01*
X106793Y101774D02*Y83226D01*
X98207Y101774D02*X106793D01*
X98207Y83226D02*X106793D01*
G54D11*X130000Y17500D02*G75*G03X130000Y17500I5000J0D01*G01*
X58957Y94468D02*Y90532D01*
X66043Y94468D02*Y90532D01*
G54D32*X58207Y101774D02*Y83226D01*
X66793Y101774D02*Y83226D01*
X58207Y101774D02*X66793D01*
X58207Y83226D02*X66793D01*
G54D11*X97500Y107500D02*G75*G03X97500Y107500I5000J0D01*G01*
X227500Y98000D02*Y99500D01*
X227000Y100000D02*X227500Y99500D01*
X224000Y100000D02*X227000D01*
X224000D02*X223500Y99500D01*
Y98000D02*Y99500D01*
X224000Y96799D02*X223500Y96299D01*
Y94799D02*Y96299D01*
Y94799D02*X224000Y94299D01*
X225000D01*
X227500Y96799D02*X225000Y94299D01*
X227500D02*Y96799D01*
X223500Y91098D02*Y93098D01*
X225500D01*
X225000Y92598D01*
Y91598D02*Y92598D01*
Y91598D02*X225500Y91098D01*
X227000D01*
X227500Y91598D02*X227000Y91098D01*
X227500Y91598D02*Y92598D01*
X227000Y93098D02*X227500Y92598D01*
Y89897D02*X225500Y87897D01*
X224000D02*X225500D01*
X223500Y88397D02*X224000Y87897D01*
X223500Y88397D02*Y89397D01*
X224000Y89897D02*X223500Y89397D01*
X224000Y89897D02*X225000D01*
X225500Y89397D01*
Y87897D02*Y89397D01*
X248000Y111500D02*X250000D01*
X249000Y107500D02*Y111500D01*
X246299Y107500D02*Y111500D01*
X244799D02*X246799D01*
X244799D02*X244299Y111000D01*
Y110000D02*Y111000D01*
X244799Y109500D02*X244299Y110000D01*
X244799Y109500D02*X246299D01*
X243098Y111000D02*X242598Y111500D01*
X241098D02*X242598D01*
X241098D02*X240598Y111000D01*
Y110000D02*Y111000D01*
X243098Y107500D02*X240598Y110000D01*
Y107500D02*X243098D01*
X237500Y33000D02*Y34500D01*
X237000Y35000D02*X237500Y34500D01*
X234000Y35000D02*X237000D01*
X234000D02*X233500Y34500D01*
Y33000D02*Y34500D01*
X234000Y31799D02*X233500Y31299D01*
Y29799D02*Y31299D01*
Y29799D02*X234000Y29299D01*
X235000D01*
X237500Y31799D02*X235000Y29299D01*
X237500D02*Y31799D01*
X233500Y26098D02*Y28098D01*
X235500D01*
X235000Y27598D01*
Y26598D02*Y27598D01*
Y26598D02*X235500Y26098D01*
X237000D01*
X237500Y26598D02*X237000Y26098D01*
X237500Y26598D02*Y27598D01*
X237000Y28098D02*X237500Y27598D01*
X237000Y24897D02*X237500Y24397D01*
X236000Y24897D02*X237000D01*
X236000D02*X235500Y24397D01*
Y23397D02*Y24397D01*
Y23397D02*X236000Y22897D01*
X237000D01*
X237500Y23397D02*X237000Y22897D01*
X237500Y23397D02*Y24397D01*
X235000Y24897D02*X235500Y24397D01*
X234000Y24897D02*X235000D01*
X234000D02*X233500Y24397D01*
Y23397D02*Y24397D01*
Y23397D02*X234000Y22897D01*
X235000D01*
X235500Y23397D02*X235000Y22897D01*
X30000Y33000D02*Y34500D01*
X29500Y35000D02*X30000Y34500D01*
X26500Y35000D02*X29500D01*
X26500D02*X26000Y34500D01*
Y33000D02*Y34500D01*
X26500Y31799D02*X26000Y31299D01*
Y29799D02*Y31299D01*
Y29799D02*X26500Y29299D01*
X27500D01*
X30000Y31799D02*X27500Y29299D01*
X30000D02*Y31799D01*
X29500Y28098D02*X30000Y27598D01*
X26500Y28098D02*X29500D01*
X26500D02*X26000Y27598D01*
Y26598D02*Y27598D01*
Y26598D02*X26500Y26098D01*
X29500D01*
X30000Y26598D02*X29500Y26098D01*
X30000Y26598D02*Y27598D01*
X29000Y28098D02*X27000Y26098D01*
X28000Y24897D02*X26000Y22897D01*
X28000Y22397D02*Y24897D01*
X26000Y22897D02*X30000D01*
X67500Y33000D02*Y34500D01*
X67000Y35000D02*X67500Y34500D01*
X64000Y35000D02*X67000D01*
X64000D02*X63500Y34500D01*
Y33000D02*Y34500D01*
X64000Y31799D02*X63500Y31299D01*
Y29799D02*Y31299D01*
Y29799D02*X64000Y29299D01*
X65000D01*
X67500Y31799D02*X65000Y29299D01*
X67500D02*Y31799D01*
X67000Y28098D02*X67500Y27598D01*
X64000Y28098D02*X67000D01*
X64000D02*X63500Y27598D01*
Y26598D02*Y27598D01*
Y26598D02*X64000Y26098D01*
X67000D01*
X67500Y26598D02*X67000Y26098D01*
X67500Y26598D02*Y27598D01*
X66500Y28098D02*X64500Y26098D01*
X63500Y23397D02*X64000Y22897D01*
X63500Y23397D02*Y24397D01*
X64000Y24897D02*X63500Y24397D01*
X64000Y24897D02*X67000D01*
X67500Y24397D01*
X65500Y23397D02*X66000Y22897D01*
X65500Y23397D02*Y24897D01*
X67500Y23397D02*Y24397D01*
Y23397D02*X67000Y22897D01*
X66000D02*X67000D01*
X150500Y19000D02*X150000Y18500D01*
X150500Y19000D02*X152000D01*
X152500Y18500D02*X152000Y19000D01*
X152500Y15500D02*Y18500D01*
Y15500D02*X152000Y15000D01*
X150500D02*X152000D01*
X150500D02*X150000Y15500D01*
Y16500D01*
X150500Y17000D02*X150000Y16500D01*
X150500Y17000D02*X151500D01*
X148799Y15000D02*Y19000D01*
Y18500D02*Y19000D01*
Y18500D02*X146299Y16000D01*
Y15000D02*Y19000D01*
X144598Y15000D02*Y19000D01*
X143098D02*X142598Y18500D01*
Y15500D02*Y18500D01*
X143098Y15000D02*X142598Y15500D01*
X143098Y15000D02*X145098D01*
X143098Y19000D02*X145098D01*
X107500Y33000D02*Y34500D01*
X107000Y35000D02*X107500Y34500D01*
X104000Y35000D02*X107000D01*
X104000D02*X103500Y34500D01*
Y33000D02*Y34500D01*
X104000Y31799D02*X103500Y31299D01*
Y29799D02*Y31299D01*
Y29799D02*X104000Y29299D01*
X105000D01*
X107500Y31799D02*X105000Y29299D01*
X107500D02*Y31799D01*
X107000Y28098D02*X107500Y27598D01*
X104000Y28098D02*X107000D01*
X104000D02*X103500Y27598D01*
Y26598D02*Y27598D01*
Y26598D02*X104000Y26098D01*
X107000D01*
X107500Y26598D02*X107000Y26098D01*
X107500Y26598D02*Y27598D01*
X106500Y28098D02*X104500Y26098D01*
X107000Y24897D02*X107500Y24397D01*
X106000Y24897D02*X107000D01*
X106000D02*X105500Y24397D01*
Y23397D02*Y24397D01*
Y23397D02*X106000Y22897D01*
X107000D01*
X107500Y23397D02*X107000Y22897D01*
X107500Y23397D02*Y24397D01*
X105000Y24897D02*X105500Y24397D01*
X104000Y24897D02*X105000D01*
X104000D02*X103500Y24397D01*
Y23397D02*Y24397D01*
Y23397D02*X104000Y22897D01*
X105000D01*
X105500Y23397D02*X105000Y22897D01*
X187500Y98000D02*Y99500D01*
X187000Y100000D02*X187500Y99500D01*
X184000Y100000D02*X187000D01*
X184000D02*X183500Y99500D01*
Y98000D02*Y99500D01*
X184000Y96799D02*X183500Y96299D01*
Y94799D02*Y96299D01*
Y94799D02*X184000Y94299D01*
X185000D01*
X187500Y96799D02*X185000Y94299D01*
X187500D02*Y96799D01*
X183500Y91098D02*Y93098D01*
X185500D01*
X185000Y92598D01*
Y91598D02*Y92598D01*
Y91598D02*X185500Y91098D01*
X187000D01*
X187500Y91598D02*X187000Y91098D01*
X187500Y91598D02*Y92598D01*
X187000Y93098D02*X187500Y92598D01*
Y89897D02*X185000Y87397D01*
X183500D02*X185000D01*
X183500D02*Y89897D01*
X150000Y98000D02*Y99500D01*
X149500Y100000D02*X150000Y99500D01*
X146500Y100000D02*X149500D01*
X146500D02*X146000Y99500D01*
Y98000D02*Y99500D01*
X146500Y96799D02*X146000Y96299D01*
Y94799D02*Y96299D01*
Y94799D02*X146500Y94299D01*
X147500D01*
X150000Y96799D02*X147500Y94299D01*
X150000D02*Y96799D01*
X146000Y91098D02*Y93098D01*
X148000D01*
X147500Y92598D01*
Y91598D02*Y92598D01*
Y91598D02*X148000Y91098D01*
X149500D01*
X150000Y91598D02*X149500Y91098D01*
X150000Y91598D02*Y92598D01*
X149500Y93098D02*X150000Y92598D01*
X146000Y87897D02*Y89897D01*
X148000D01*
X147500Y89397D01*
Y88397D02*Y89397D01*
Y88397D02*X148000Y87897D01*
X149500D01*
X150000Y88397D02*X149500Y87897D01*
X150000Y88397D02*Y89397D01*
X149500Y89897D02*X150000Y89397D01*
X57500Y98000D02*Y99500D01*
X57000Y100000D02*X57500Y99500D01*
X54000Y100000D02*X57000D01*
X54000D02*X53500Y99500D01*
Y98000D02*Y99500D01*
X54000Y96799D02*X53500Y96299D01*
Y94799D02*Y96299D01*
Y94799D02*X54000Y94299D01*
X55000D01*
X57500Y96799D02*X55000Y94299D01*
X57500D02*Y96799D01*
X57000Y93098D02*X57500Y92598D01*
X54000Y93098D02*X57000D01*
X54000D02*X53500Y92598D01*
Y91598D02*Y92598D01*
Y91598D02*X54000Y91098D01*
X57000D01*
X57500Y91598D02*X57000Y91098D01*
X57500Y91598D02*Y92598D01*
X56500Y93098D02*X54500Y91098D01*
X57500Y89897D02*X55000Y87397D01*
X53500D02*X55000D01*
X53500D02*Y89897D01*
X20000Y98000D02*Y99500D01*
X19500Y100000D02*X20000Y99500D01*
X16500Y100000D02*X19500D01*
X16500D02*X16000Y99500D01*
Y98000D02*Y99500D01*
X16500Y96799D02*X16000Y96299D01*
Y94799D02*Y96299D01*
Y94799D02*X16500Y94299D01*
X17500D01*
X20000Y96799D02*X17500Y94299D01*
X20000D02*Y96799D01*
X19500Y93098D02*X20000Y92598D01*
X16500Y93098D02*X19500D01*
X16500D02*X16000Y92598D01*
Y91598D02*Y92598D01*
Y91598D02*X16500Y91098D01*
X19500D01*
X20000Y91598D02*X19500Y91098D01*
X20000Y91598D02*Y92598D01*
X19000Y93098D02*X17000Y91098D01*
X16000Y87897D02*Y89897D01*
X18000D01*
X17500Y89397D01*
Y88397D02*Y89397D01*
Y88397D02*X18000Y87897D01*
X19500D01*
X20000Y88397D02*X19500Y87897D01*
X20000Y88397D02*Y89397D01*
X19500Y89897D02*X20000Y89397D01*
X160000Y33000D02*Y34500D01*
X159500Y35000D02*X160000Y34500D01*
X156500Y35000D02*X159500D01*
X156500D02*X156000Y34500D01*
Y33000D02*Y34500D01*
X156500Y31799D02*X156000Y31299D01*
Y29799D02*Y31299D01*
Y29799D02*X156500Y29299D01*
X157500D01*
X160000Y31799D02*X157500Y29299D01*
X160000D02*Y31799D01*
X156000Y26098D02*Y28098D01*
X158000D01*
X157500Y27598D01*
Y26598D02*Y27598D01*
Y26598D02*X158000Y26098D01*
X159500D01*
X160000Y26598D02*X159500Y26098D01*
X160000Y26598D02*Y27598D01*
X159500Y28098D02*X160000Y27598D01*
X158000Y24897D02*X156000Y22897D01*
X158000Y22397D02*Y24897D01*
X156000Y22897D02*X160000D01*
X197500Y33000D02*Y34500D01*
X197000Y35000D02*X197500Y34500D01*
X194000Y35000D02*X197000D01*
X194000D02*X193500Y34500D01*
Y33000D02*Y34500D01*
X194000Y31799D02*X193500Y31299D01*
Y29799D02*Y31299D01*
Y29799D02*X194000Y29299D01*
X195000D01*
X197500Y31799D02*X195000Y29299D01*
X197500D02*Y31799D01*
X193500Y26098D02*Y28098D01*
X195500D01*
X195000Y27598D01*
Y26598D02*Y27598D01*
Y26598D02*X195500Y26098D01*
X197000D01*
X197500Y26598D02*X197000Y26098D01*
X197500Y26598D02*Y27598D01*
X197000Y28098D02*X197500Y27598D01*
X193500Y23397D02*X194000Y22897D01*
X193500Y23397D02*Y24397D01*
X194000Y24897D02*X193500Y24397D01*
X194000Y24897D02*X197000D01*
X197500Y24397D01*
X195500Y23397D02*X196000Y22897D01*
X195500Y23397D02*Y24897D01*
X197500Y23397D02*Y24397D01*
Y23397D02*X197000Y22897D01*
X196000D02*X197000D01*
X97500Y98000D02*Y99500D01*
X97000Y100000D02*X97500Y99500D01*
X94000Y100000D02*X97000D01*
X94000D02*X93500Y99500D01*
Y98000D02*Y99500D01*
X94000Y96799D02*X93500Y96299D01*
Y94799D02*Y96299D01*
Y94799D02*X94000Y94299D01*
X95000D01*
X97500Y96799D02*X95000Y94299D01*
X97500D02*Y96799D01*
X97000Y93098D02*X97500Y92598D01*
X94000Y93098D02*X97000D01*
X94000D02*X93500Y92598D01*
Y91598D02*Y92598D01*
Y91598D02*X94000Y91098D01*
X97000D01*
X97500Y91598D02*X97000Y91098D01*
X97500Y91598D02*Y92598D01*
X96500Y93098D02*X94500Y91098D01*
X97500Y89897D02*X95500Y87897D01*
X94000D02*X95500D01*
X93500Y88397D02*X94000Y87897D01*
X93500Y88397D02*Y89397D01*
X94000Y89897D02*X93500Y89397D01*
X94000Y89897D02*X95000D01*
X95500Y89397D01*
Y87897D02*Y89397D01*
X118000Y111500D02*X120000D01*
X119000Y107500D02*Y111500D01*
X116299Y107500D02*Y111500D01*
X114799D02*X116799D01*
X114799D02*X114299Y111000D01*
Y110000D02*Y111000D01*
X114799Y109500D02*X114299Y110000D01*
X114799Y109500D02*X116299D01*
X111598Y107500D02*X112598D01*
X112098D02*Y111500D01*
X113098Y110500D02*X112098Y111500D01*
M02*
