G04 start of page 12 for group -3984 idx -3984 *
G04 Title: 26.006.01.01.01, fab *
G04 Creator: pcb 20100929 *
G04 CreationDate: Sat Mar 21 19:35:30 2015 UTC *
G04 For: bert *
G04 Format: Gerber/RS-274X *
G04 PCB-Dimensions: 260000 115000 *
G04 PCB-Coordinate-Origin: lower left *
%MOIN*%
%FSLAX25Y25*%
%LNFAB*%
%ADD11C,0.0100*%
%ADD13C,0.0200*%
%ADD34C,0.0060*%
G54D13*G36*
X101300Y109266D02*X104265Y106300D01*
X103699Y105735D01*
X100734Y108701D01*
X101300Y109266D01*
G37*
G36*
X100734Y106300D02*X103699Y109266D01*
X104265Y108701D01*
X101300Y105735D01*
X100734Y106300D01*
G37*
G36*
X133800Y19266D02*X136765Y16300D01*
X136199Y15735D01*
X133234Y18701D01*
X133800Y19266D01*
G37*
G36*
X133234Y16300D02*X136199Y19266D01*
X136765Y18701D01*
X133800Y15735D01*
X133234Y16300D01*
G37*
G36*
X231300Y109266D02*X234265Y106300D01*
X233699Y105735D01*
X230734Y108701D01*
X231300Y109266D01*
G37*
G36*
X230734Y106300D02*X233699Y109266D01*
X234265Y108701D01*
X231300Y105735D01*
X230734Y106300D01*
G37*
G36*
X13800Y143015D02*X16765Y140049D01*
X16199Y139484D01*
X13234Y142450D01*
X13800Y143015D01*
G37*
G36*
X13234Y140049D02*X16199Y143015D01*
X16765Y142450D01*
X13800Y139484D01*
X13234Y140049D01*
G37*
G54D34*X135000Y143500D02*Y142750D01*
X136500Y141250D01*
X138000Y142750D01*
Y143500D02*Y142750D01*
X136500Y141250D02*Y137500D01*
X139801Y140500D02*X142051D01*
X139801Y137500D02*X142801D01*
X139801Y143500D02*Y137500D01*
Y143500D02*X142801D01*
X147603D02*X148353Y142750D01*
X145353Y143500D02*X147603D01*
X144603Y142750D02*X145353Y143500D01*
X144603Y142750D02*Y141250D01*
X145353Y140500D01*
X147603D01*
X148353Y139750D01*
Y138250D01*
X147603Y137500D02*X148353Y138250D01*
X145353Y137500D02*X147603D01*
X144603Y138250D02*X145353Y137500D01*
X135000Y134249D02*X150154D01*
X98000Y142750D02*X98750Y143500D01*
X100250D01*
X101000Y142750D01*
Y138250D01*
X100250Y137500D02*X101000Y138250D01*
X98750Y137500D02*X100250D01*
X98000Y138250D02*X98750Y137500D01*
Y140500D02*X101000D01*
X98000Y134249D02*X102801D01*
X45000Y138250D02*X45750Y137500D01*
X45000Y142750D02*Y138250D01*
Y142750D02*X45750Y143500D01*
X47250D01*
X48000Y142750D01*
Y138250D01*
X47250Y137500D02*X48000Y138250D01*
X45750Y137500D02*X47250D01*
X45000Y139000D02*X48000Y142000D01*
X49801Y137500D02*X50551D01*
X52353Y138250D02*X53103Y137500D01*
X52353Y142750D02*Y138250D01*
Y142750D02*X53103Y143500D01*
X54603D01*
X55353Y142750D01*
Y138250D01*
X54603Y137500D02*X55353Y138250D01*
X53103Y137500D02*X54603D01*
X52353Y139000D02*X55353Y142000D01*
X57154Y140500D02*X60154Y143500D01*
X57154Y140500D02*X60904D01*
X60154Y143500D02*Y137500D01*
X64956Y143500D02*X65706Y142750D01*
X63456Y143500D02*X64956D01*
X62706Y142750D02*X63456Y143500D01*
X62706Y142750D02*Y138250D01*
X63456Y137500D01*
X64956Y140500D02*X65706Y139750D01*
X62706Y140500D02*X64956D01*
X63456Y137500D02*X64956D01*
X65706Y138250D01*
Y139750D02*Y138250D01*
X45000Y134249D02*X67507D01*
X5000Y6600D02*Y3400D01*
X3400Y5000D02*X6600D01*
X15000Y6600D02*Y3400D01*
X13400Y5000D02*X16600D01*
X25000Y6600D02*Y3400D01*
X23400Y5000D02*X26600D01*
X35000Y6600D02*Y3400D01*
X33400Y5000D02*X36600D01*
X45000Y6600D02*Y3400D01*
X43400Y5000D02*X46600D01*
X55000Y6600D02*Y3400D01*
X53400Y5000D02*X56600D01*
X65000Y6600D02*Y3400D01*
X63400Y5000D02*X66600D01*
X75000Y6600D02*Y3400D01*
X73400Y5000D02*X76600D01*
X15000Y157850D02*Y154650D01*
X13400Y156250D02*X16600D01*
X135000Y158500D02*Y157750D01*
X136500Y156250D01*
X138000Y157750D01*
Y158500D02*Y157750D01*
X136500Y156250D02*Y152500D01*
X139801Y155500D02*X142051D01*
X139801Y152500D02*X142801D01*
X139801Y158500D02*Y152500D01*
Y158500D02*X142801D01*
X147603D02*X148353Y157750D01*
X145353Y158500D02*X147603D01*
X144603Y157750D02*X145353Y158500D01*
X144603Y157750D02*Y156250D01*
X145353Y155500D01*
X147603D01*
X148353Y154750D01*
Y153250D01*
X147603Y152500D02*X148353Y153250D01*
X145353Y152500D02*X147603D01*
X144603Y153250D02*X145353Y152500D01*
X135000Y149249D02*X150154D01*
X98000Y153250D02*X98750Y152500D01*
X98000Y154750D02*Y153250D01*
Y154750D02*X98750Y155500D01*
X100250D01*
X101000Y154750D01*
Y153250D01*
X100250Y152500D02*X101000Y153250D01*
X98750Y152500D02*X100250D01*
X98000Y156250D02*X98750Y155500D01*
X98000Y157750D02*Y156250D01*
Y157750D02*X98750Y158500D01*
X100250D01*
X101000Y157750D01*
Y156250D01*
X100250Y155500D02*X101000Y156250D01*
X98000Y149249D02*X102801D01*
X45000Y153250D02*X45750Y152500D01*
X45000Y157750D02*Y153250D01*
Y157750D02*X45750Y158500D01*
X47250D01*
X48000Y157750D01*
Y153250D01*
X47250Y152500D02*X48000Y153250D01*
X45750Y152500D02*X47250D01*
X45000Y154000D02*X48000Y157000D01*
X49801Y152500D02*X50551D01*
X52353Y153250D02*X53103Y152500D01*
X52353Y157750D02*Y153250D01*
Y157750D02*X53103Y158500D01*
X54603D01*
X55353Y157750D01*
Y153250D01*
X54603Y152500D02*X55353Y153250D01*
X53103Y152500D02*X54603D01*
X52353Y154000D02*X55353Y157000D01*
X57154Y157750D02*X57904Y158500D01*
X59404D01*
X60154Y157750D01*
Y153250D01*
X59404Y152500D02*X60154Y153250D01*
X57904Y152500D02*X59404D01*
X57154Y153250D02*X57904Y152500D01*
Y155500D02*X60154D01*
X61956Y153250D02*X62706Y152500D01*
X61956Y154750D02*Y153250D01*
Y154750D02*X62706Y155500D01*
X64206D01*
X64956Y154750D01*
Y153250D01*
X64206Y152500D02*X64956Y153250D01*
X62706Y152500D02*X64206D01*
X61956Y156250D02*X62706Y155500D01*
X61956Y157750D02*Y156250D01*
Y157750D02*X62706Y158500D01*
X64206D01*
X64956Y157750D01*
Y156250D01*
X64206Y155500D02*X64956Y156250D01*
X45000Y149249D02*X66757D01*
X25000Y57500D02*Y55900D01*
Y57500D02*X26386Y58300D01*
X25000Y57500D02*X23614Y58300D01*
X62500Y57500D02*Y55900D01*
Y57500D02*X63886Y58300D01*
X62500Y57500D02*X61114Y58300D01*
X65000Y27500D02*Y25900D01*
Y27500D02*X66386Y28300D01*
X65000Y27500D02*X63614Y28300D01*
X62500Y80000D02*Y78400D01*
Y80000D02*X63886Y80800D01*
X62500Y80000D02*X61114Y80800D01*
X102500Y80000D02*Y78400D01*
Y80000D02*X103886Y80800D01*
X102500Y80000D02*X101114Y80800D01*
X25000Y80000D02*Y78400D01*
Y80000D02*X26386Y80800D01*
X25000Y80000D02*X23614Y80800D01*
X72500Y40000D02*Y38400D01*
Y40000D02*X73886Y40800D01*
X72500Y40000D02*X71114Y40800D01*
X35000Y40000D02*Y38400D01*
Y40000D02*X36386Y40800D01*
X35000Y40000D02*X33614Y40800D01*
X112500Y40000D02*Y38400D01*
Y40000D02*X113886Y40800D01*
X112500Y40000D02*X111114Y40800D01*
X122500Y42500D02*Y40900D01*
Y42500D02*X123886Y43300D01*
X122500Y42500D02*X121114Y43300D01*
X80000Y47500D02*Y45900D01*
Y47500D02*X81386Y48300D01*
X80000Y47500D02*X78614Y48300D01*
X67500Y62500D02*Y60900D01*
Y62500D02*X68886Y63300D01*
X67500Y62500D02*X66114Y63300D01*
X45000Y20000D02*Y18400D01*
Y20000D02*X46386Y20800D01*
X45000Y20000D02*X43614Y20800D01*
X10000Y102500D02*Y100900D01*
Y102500D02*X11386Y103300D01*
X10000Y102500D02*X8614Y103300D01*
X122500Y102500D02*Y100900D01*
Y102500D02*X123886Y103300D01*
X122500Y102500D02*X121114Y103300D01*
X95000Y102500D02*Y100900D01*
Y102500D02*X96386Y103300D01*
X95000Y102500D02*X93614Y103300D01*
X155000Y57500D02*Y55900D01*
Y57500D02*X156386Y58300D01*
X155000Y57500D02*X153614Y58300D01*
X192500Y57500D02*Y55900D01*
Y57500D02*X193886Y58300D01*
X192500Y57500D02*X191114Y58300D01*
X130000Y27500D02*Y25900D01*
Y27500D02*X131386Y28300D01*
X130000Y27500D02*X128614Y28300D01*
X192500Y80000D02*Y78400D01*
Y80000D02*X193886Y80800D01*
X192500Y80000D02*X191114Y80800D01*
X232500Y80000D02*Y78400D01*
Y80000D02*X233886Y80800D01*
X232500Y80000D02*X231114Y80800D01*
X155000Y80000D02*Y78400D01*
Y80000D02*X156386Y80800D01*
X155000Y80000D02*X153614Y80800D01*
X202500Y40000D02*Y38400D01*
Y40000D02*X203886Y40800D01*
X202500Y40000D02*X201114Y40800D01*
X165000Y40000D02*Y38400D01*
Y40000D02*X166386Y40800D01*
X165000Y40000D02*X163614Y40800D01*
X242500Y40000D02*Y38400D01*
Y40000D02*X243886Y40800D01*
X242500Y40000D02*X241114Y40800D01*
X252500Y42500D02*Y40900D01*
Y42500D02*X253886Y43300D01*
X252500Y42500D02*X251114Y43300D01*
X210000Y47500D02*Y45900D01*
Y47500D02*X211386Y48300D01*
X210000Y47500D02*X208614Y48300D01*
X197500Y62500D02*Y60900D01*
Y62500D02*X198886Y63300D01*
X197500Y62500D02*X196114Y63300D01*
X175000Y27500D02*Y25900D01*
Y27500D02*X176386Y28300D01*
X175000Y27500D02*X173614Y28300D01*
X140000Y102500D02*Y100900D01*
Y102500D02*X141386Y103300D01*
X140000Y102500D02*X138614Y103300D01*
X252500Y87500D02*Y85900D01*
Y87500D02*X253886Y88300D01*
X252500Y87500D02*X251114Y88300D01*
X225000Y102500D02*Y100900D01*
Y102500D02*X226386Y103300D01*
X225000Y102500D02*X223614Y103300D01*
X15000Y171250D02*Y169650D01*
Y171250D02*X16386Y172050D01*
X15000Y171250D02*X13614Y172050D01*
X135000Y173500D02*Y172750D01*
X136500Y171250D01*
X138000Y172750D01*
Y173500D02*Y172750D01*
X136500Y171250D02*Y167500D01*
X139801Y170500D02*X142051D01*
X139801Y167500D02*X142801D01*
X139801Y173500D02*Y167500D01*
Y173500D02*X142801D01*
X147603D02*X148353Y172750D01*
X145353Y173500D02*X147603D01*
X144603Y172750D02*X145353Y173500D01*
X144603Y172750D02*Y171250D01*
X145353Y170500D01*
X147603D01*
X148353Y169750D01*
Y168250D01*
X147603Y167500D02*X148353Y168250D01*
X145353Y167500D02*X147603D01*
X144603Y168250D02*X145353Y167500D01*
X135000Y164249D02*X150154D01*
X98000Y172750D02*X98750Y173500D01*
X100250D01*
X101000Y172750D01*
Y168250D01*
X100250Y167500D02*X101000Y168250D01*
X98750Y167500D02*X100250D01*
X98000Y168250D02*X98750Y167500D01*
Y170500D02*X101000D01*
X102801Y172750D02*X103551Y173500D01*
X105801D01*
X106551Y172750D01*
Y171250D01*
X102801Y167500D02*X106551Y171250D01*
X102801Y167500D02*X106551D01*
X98000Y164249D02*X108353D01*
X45000Y168250D02*X45750Y167500D01*
X45000Y172750D02*Y168250D01*
Y172750D02*X45750Y173500D01*
X47250D01*
X48000Y172750D01*
Y168250D01*
X47250Y167500D02*X48000Y168250D01*
X45750Y167500D02*X47250D01*
X45000Y169000D02*X48000Y172000D01*
X49801Y167500D02*X50551D01*
X52353Y168250D02*X53103Y167500D01*
X52353Y172750D02*Y168250D01*
Y172750D02*X53103Y173500D01*
X54603D01*
X55353Y172750D01*
Y168250D01*
X54603Y167500D02*X55353Y168250D01*
X53103Y167500D02*X54603D01*
X52353Y169000D02*X55353Y172000D01*
X57154Y172750D02*X57904Y173500D01*
X60154D01*
X60904Y172750D01*
Y171250D01*
X57154Y167500D02*X60904Y171250D01*
X57154Y167500D02*X60904D01*
X62706Y168250D02*X63456Y167500D01*
X62706Y172750D02*Y168250D01*
Y172750D02*X63456Y173500D01*
X64956D01*
X65706Y172750D01*
Y168250D01*
X64956Y167500D02*X65706Y168250D01*
X63456Y167500D02*X64956D01*
X62706Y169000D02*X65706Y172000D01*
X45000Y164249D02*X67507D01*
X3000Y188500D02*X3750Y187750D01*
X750Y188500D02*X3000D01*
X0Y187750D02*X750Y188500D01*
X0Y187750D02*Y186250D01*
X750Y185500D01*
X3000D01*
X3750Y184750D01*
Y183250D01*
X3000Y182500D02*X3750Y183250D01*
X750Y182500D02*X3000D01*
X0Y183250D02*X750Y182500D01*
X5551Y185500D02*Y183250D01*
X6301Y182500D01*
X8551Y185500D02*Y181000D01*
X7801Y180250D02*X8551Y181000D01*
X6301Y180250D02*X7801D01*
X5551Y181000D02*X6301Y180250D01*
Y182500D02*X7801D01*
X8551Y183250D01*
X11103Y184750D02*Y182500D01*
Y184750D02*X11853Y185500D01*
X12603D01*
X13353Y184750D01*
Y182500D01*
Y184750D02*X14103Y185500D01*
X14853D01*
X15603Y184750D01*
Y182500D01*
X10353Y185500D02*X11103Y184750D01*
X17404Y188500D02*Y182500D01*
Y183250D02*X18154Y182500D01*
X19654D01*
X20404Y183250D01*
Y184750D02*Y183250D01*
X19654Y185500D02*X20404Y184750D01*
X18154Y185500D02*X19654D01*
X17404Y184750D02*X18154Y185500D01*
X22206Y184750D02*Y183250D01*
Y184750D02*X22956Y185500D01*
X24456D01*
X25206Y184750D01*
Y183250D01*
X24456Y182500D02*X25206Y183250D01*
X22956Y182500D02*X24456D01*
X22206Y183250D02*X22956Y182500D01*
X27007Y188500D02*Y183250D01*
X27757Y182500D01*
X41750Y188500D02*Y182500D01*
X44000Y188500D02*X44750Y187750D01*
Y183250D01*
X44000Y182500D02*X44750Y183250D01*
X41000Y182500D02*X44000D01*
X41000Y188500D02*X44000D01*
X46551Y187000D02*Y186250D01*
Y184750D02*Y182500D01*
X50303Y185500D02*X51053Y184750D01*
X48803Y185500D02*X50303D01*
X48053Y184750D02*X48803Y185500D01*
X48053Y184750D02*Y183250D01*
X48803Y182500D01*
X51053Y185500D02*Y183250D01*
X51803Y182500D01*
X48803D02*X50303D01*
X51053Y183250D01*
X54354Y184750D02*Y182500D01*
Y184750D02*X55104Y185500D01*
X55854D01*
X56604Y184750D01*
Y182500D01*
Y184750D02*X57354Y185500D01*
X58104D01*
X58854Y184750D01*
Y182500D01*
X53604Y185500D02*X54354Y184750D01*
X60656Y182500D02*X61406D01*
X65907Y183250D02*X66657Y182500D01*
X65907Y187750D02*X66657Y188500D01*
X65907Y187750D02*Y183250D01*
X68459Y188500D02*X69959D01*
X69209D02*Y182500D01*
X68459D02*X69959D01*
X72510Y184750D02*Y182500D01*
Y184750D02*X73260Y185500D01*
X74010D01*
X74760Y184750D01*
Y182500D01*
X71760Y185500D02*X72510Y184750D01*
X77312Y185500D02*X79562D01*
X76562Y184750D02*X77312Y185500D01*
X76562Y184750D02*Y183250D01*
X77312Y182500D01*
X79562D01*
X81363Y188500D02*Y182500D01*
Y184750D02*X82113Y185500D01*
X83613D01*
X84363Y184750D01*
Y182500D01*
X86165Y188500D02*X86915Y187750D01*
Y183250D01*
X86165Y182500D02*X86915Y183250D01*
X95750Y182500D02*X98000D01*
X95000Y183250D02*X95750Y182500D01*
X95000Y187750D02*Y183250D01*
Y187750D02*X95750Y188500D01*
X98000D01*
X99801Y184750D02*Y183250D01*
Y184750D02*X100551Y185500D01*
X102051D01*
X102801Y184750D01*
Y183250D01*
X102051Y182500D02*X102801Y183250D01*
X100551Y182500D02*X102051D01*
X99801Y183250D02*X100551Y182500D01*
X104603Y185500D02*Y183250D01*
X105353Y182500D01*
X106853D01*
X107603Y183250D01*
Y185500D02*Y183250D01*
X110154Y184750D02*Y182500D01*
Y184750D02*X110904Y185500D01*
X111654D01*
X112404Y184750D01*
Y182500D01*
X109404Y185500D02*X110154Y184750D01*
X114956Y188500D02*Y183250D01*
X115706Y182500D01*
X114206Y186250D02*X115706D01*
X130750Y188500D02*Y182500D01*
X130000Y188500D02*X133000D01*
X133750Y187750D01*
Y186250D01*
X133000Y185500D02*X133750Y186250D01*
X130750Y185500D02*X133000D01*
X135551Y188500D02*Y183250D01*
X136301Y182500D01*
X140053Y185500D02*X140803Y184750D01*
X138553Y185500D02*X140053D01*
X137803Y184750D02*X138553Y185500D01*
X137803Y184750D02*Y183250D01*
X138553Y182500D01*
X140803Y185500D02*Y183250D01*
X141553Y182500D01*
X138553D02*X140053D01*
X140803Y183250D01*
X144104Y188500D02*Y183250D01*
X144854Y182500D01*
X143354Y186250D02*X144854D01*
X147106Y182500D02*X149356D01*
X146356Y183250D02*X147106Y182500D01*
X146356Y184750D02*Y183250D01*
Y184750D02*X147106Y185500D01*
X148606D01*
X149356Y184750D01*
X146356Y184000D02*X149356D01*
Y184750D02*Y184000D01*
X154157Y188500D02*Y182500D01*
X153407D02*X154157Y183250D01*
X151907Y182500D02*X153407D01*
X151157Y183250D02*X151907Y182500D01*
X151157Y184750D02*Y183250D01*
Y184750D02*X151907Y185500D01*
X153407D01*
X154157Y184750D01*
X157459Y185500D02*Y184750D01*
Y183250D02*Y182500D01*
X155959Y187750D02*Y187000D01*
Y187750D02*X156709Y188500D01*
X158209D01*
X158959Y187750D01*
Y187000D01*
X157459Y185500D02*X158959Y187000D01*
X0Y203500D02*X3000D01*
X1500D02*Y197500D01*
X4801Y203500D02*Y197500D01*
Y199750D02*X5551Y200500D01*
X7051D01*
X7801Y199750D01*
Y197500D01*
X10353D02*X12603D01*
X9603Y198250D02*X10353Y197500D01*
X9603Y199750D02*Y198250D01*
Y199750D02*X10353Y200500D01*
X11853D01*
X12603Y199750D01*
X9603Y199000D02*X12603D01*
Y199750D02*Y199000D01*
X15154Y199750D02*Y197500D01*
Y199750D02*X15904Y200500D01*
X17404D01*
X14404D02*X15154Y199750D01*
X19956Y197500D02*X22206D01*
X19206Y198250D02*X19956Y197500D01*
X19206Y199750D02*Y198250D01*
Y199750D02*X19956Y200500D01*
X21456D01*
X22206Y199750D01*
X19206Y199000D02*X22206D01*
Y199750D02*Y199000D01*
X28957Y200500D02*X29707Y199750D01*
X27457Y200500D02*X28957D01*
X26707Y199750D02*X27457Y200500D01*
X26707Y199750D02*Y198250D01*
X27457Y197500D01*
X29707Y200500D02*Y198250D01*
X30457Y197500D01*
X27457D02*X28957D01*
X29707Y198250D01*
X33009Y199750D02*Y197500D01*
Y199750D02*X33759Y200500D01*
X35259D01*
X32259D02*X33009Y199750D01*
X37810Y197500D02*X40060D01*
X37060Y198250D02*X37810Y197500D01*
X37060Y199750D02*Y198250D01*
Y199750D02*X37810Y200500D01*
X39310D01*
X40060Y199750D01*
X37060Y199000D02*X40060D01*
Y199750D02*Y199000D01*
X44562Y202750D02*X45312Y203500D01*
X46812D01*
X47562Y202750D01*
Y198250D01*
X46812Y197500D02*X47562Y198250D01*
X45312Y197500D02*X46812D01*
X44562Y198250D02*X45312Y197500D01*
Y200500D02*X47562D01*
X55063Y203500D02*Y197500D01*
X54313D02*X55063Y198250D01*
X52813Y197500D02*X54313D01*
X52063Y198250D02*X52813Y197500D01*
X52063Y199750D02*Y198250D01*
Y199750D02*X52813Y200500D01*
X54313D01*
X55063Y199750D01*
X56865Y202000D02*Y201250D01*
Y199750D02*Y197500D01*
X59116Y202750D02*Y197500D01*
Y202750D02*X59866Y203500D01*
X60616D01*
X58366Y200500D02*X59866D01*
X62868Y202750D02*Y197500D01*
Y202750D02*X63618Y203500D01*
X64368D01*
X62118Y200500D02*X63618D01*
X66619Y197500D02*X68869D01*
X65869Y198250D02*X66619Y197500D01*
X65869Y199750D02*Y198250D01*
Y199750D02*X66619Y200500D01*
X68119D01*
X68869Y199750D01*
X65869Y199000D02*X68869D01*
Y199750D02*Y199000D01*
X71421Y199750D02*Y197500D01*
Y199750D02*X72171Y200500D01*
X73671D01*
X70671D02*X71421Y199750D01*
X76222Y197500D02*X78472D01*
X75472Y198250D02*X76222Y197500D01*
X75472Y199750D02*Y198250D01*
Y199750D02*X76222Y200500D01*
X77722D01*
X78472Y199750D01*
X75472Y199000D02*X78472D01*
Y199750D02*Y199000D01*
X81024Y199750D02*Y197500D01*
Y199750D02*X81774Y200500D01*
X82524D01*
X83274Y199750D01*
Y197500D01*
X80274Y200500D02*X81024Y199750D01*
X85825Y203500D02*Y198250D01*
X86575Y197500D01*
X85075Y201250D02*X86575D01*
X93777Y203500D02*Y197500D01*
X93027D02*X93777Y198250D01*
X91527Y197500D02*X93027D01*
X90777Y198250D02*X91527Y197500D01*
X90777Y199750D02*Y198250D01*
Y199750D02*X91527Y200500D01*
X93027D01*
X93777Y199750D01*
X96328D02*Y197500D01*
Y199750D02*X97078Y200500D01*
X98578D01*
X95578D02*X96328Y199750D01*
X100380Y202000D02*Y201250D01*
Y199750D02*Y197500D01*
X101881Y203500D02*Y198250D01*
X102631Y197500D01*
X104133Y203500D02*Y198250D01*
X104883Y197500D01*
X109834D02*X112084D01*
X112834Y198250D01*
X112084Y199000D02*X112834Y198250D01*
X109834Y199000D02*X112084D01*
X109084Y199750D02*X109834Y199000D01*
X109084Y199750D02*X109834Y200500D01*
X112084D01*
X112834Y199750D01*
X109084Y198250D02*X109834Y197500D01*
X114636Y202000D02*Y201250D01*
Y199750D02*Y197500D01*
X116137Y200500D02*X119137D01*
X116137Y197500D02*X119137Y200500D01*
X116137Y197500D02*X119137D01*
X121689D02*X123939D01*
X120939Y198250D02*X121689Y197500D01*
X120939Y199750D02*Y198250D01*
Y199750D02*X121689Y200500D01*
X123189D01*
X123939Y199750D01*
X120939Y199000D02*X123939D01*
Y199750D02*Y199000D01*
X126490Y197500D02*X128740D01*
X129490Y198250D01*
X128740Y199000D02*X129490Y198250D01*
X126490Y199000D02*X128740D01*
X125740Y199750D02*X126490Y199000D01*
X125740Y199750D02*X126490Y200500D01*
X128740D01*
X129490Y199750D01*
X125740Y198250D02*X126490Y197500D01*
X133992Y200500D02*Y198250D01*
X134742Y197500D01*
X136242D01*
X136992Y198250D01*
Y200500D02*Y198250D01*
X139543Y197500D02*X141793D01*
X142543Y198250D01*
X141793Y199000D02*X142543Y198250D01*
X139543Y199000D02*X141793D01*
X138793Y199750D02*X139543Y199000D01*
X138793Y199750D02*X139543Y200500D01*
X141793D01*
X142543Y199750D01*
X138793Y198250D02*X139543Y197500D01*
X145095D02*X147345D01*
X144345Y198250D02*X145095Y197500D01*
X144345Y199750D02*Y198250D01*
Y199750D02*X145095Y200500D01*
X146595D01*
X147345Y199750D01*
X144345Y199000D02*X147345D01*
Y199750D02*Y199000D01*
X152146Y203500D02*Y197500D01*
X151396D02*X152146Y198250D01*
X149896Y197500D02*X151396D01*
X149146Y198250D02*X149896Y197500D01*
X149146Y199750D02*Y198250D01*
Y199750D02*X149896Y200500D01*
X151396D01*
X152146Y199750D01*
X156648Y202000D02*Y201250D01*
Y199750D02*Y197500D01*
X158899Y199750D02*Y197500D01*
Y199750D02*X159649Y200500D01*
X160399D01*
X161149Y199750D01*
Y197500D01*
X158149Y200500D02*X158899Y199750D01*
X166401Y203500D02*Y198250D01*
X167151Y197500D01*
X165651Y201250D02*X167151D01*
X168652Y203500D02*Y197500D01*
Y199750D02*X169402Y200500D01*
X170902D01*
X171652Y199750D01*
Y197500D01*
X173454Y202000D02*Y201250D01*
Y199750D02*Y197500D01*
X175705D02*X177955D01*
X178705Y198250D01*
X177955Y199000D02*X178705Y198250D01*
X175705Y199000D02*X177955D01*
X174955Y199750D02*X175705Y199000D01*
X174955Y199750D02*X175705Y200500D01*
X177955D01*
X178705Y199750D01*
X174955Y198250D02*X175705Y197500D01*
X183207Y203500D02*Y198250D01*
X183957Y197500D01*
X187708Y200500D02*X188458Y199750D01*
X186208Y200500D02*X187708D01*
X185458Y199750D02*X186208Y200500D01*
X185458Y199750D02*Y198250D01*
X186208Y197500D01*
X188458Y200500D02*Y198250D01*
X189208Y197500D01*
X186208D02*X187708D01*
X188458Y198250D01*
X191010Y200500D02*Y198250D01*
X191760Y197500D01*
X194010Y200500D02*Y196000D01*
X193260Y195250D02*X194010Y196000D01*
X191760Y195250D02*X193260D01*
X191010Y196000D02*X191760Y195250D01*
Y197500D02*X193260D01*
X194010Y198250D01*
X195811Y199750D02*Y198250D01*
Y199750D02*X196561Y200500D01*
X198061D01*
X198811Y199750D01*
Y198250D01*
X198061Y197500D02*X198811Y198250D01*
X196561Y197500D02*X198061D01*
X195811Y198250D02*X196561Y197500D01*
X200613Y200500D02*Y198250D01*
X201363Y197500D01*
X202863D01*
X203613Y198250D01*
Y200500D02*Y198250D01*
X206164Y203500D02*Y198250D01*
X206914Y197500D01*
X205414Y201250D02*X206914D01*
X208416Y196000D02*X209916Y197500D01*
X214417Y200500D02*X217417Y203500D01*
X214417Y200500D02*X218167D01*
X217417Y203500D02*Y197500D01*
X219969Y202750D02*X220719Y203500D01*
X222219D01*
X222969Y202750D01*
Y198250D01*
X222219Y197500D02*X222969Y198250D01*
X220719Y197500D02*X222219D01*
X219969Y198250D02*X220719Y197500D01*
Y200500D02*X222969D01*
X227470Y203500D02*Y197500D01*
Y199750D02*X228220Y200500D01*
X229720D01*
X230470Y199750D01*
Y197500D01*
X232272Y199750D02*Y198250D01*
Y199750D02*X233022Y200500D01*
X234522D01*
X235272Y199750D01*
Y198250D01*
X234522Y197500D02*X235272Y198250D01*
X233022Y197500D02*X234522D01*
X232272Y198250D02*X233022Y197500D01*
X237073Y203500D02*Y198250D01*
X237823Y197500D01*
X240075D02*X242325D01*
X239325Y198250D02*X240075Y197500D01*
X239325Y199750D02*Y198250D01*
Y199750D02*X240075Y200500D01*
X241575D01*
X242325Y199750D01*
X239325Y199000D02*X242325D01*
Y199750D02*Y199000D01*
X244876Y197500D02*X247126D01*
X247876Y198250D01*
X247126Y199000D02*X247876Y198250D01*
X244876Y199000D02*X247126D01*
X244126Y199750D02*X244876Y199000D01*
X244126Y199750D02*X244876Y200500D01*
X247126D01*
X247876Y199750D01*
X244126Y198250D02*X244876Y197500D01*
X253128Y203500D02*Y198250D01*
X253878Y197500D01*
X252378Y201250D02*X253878D01*
X255379Y199750D02*Y198250D01*
Y199750D02*X256129Y200500D01*
X257629D01*
X258379Y199750D01*
Y198250D01*
X257629Y197500D02*X258379Y198250D01*
X256129Y197500D02*X257629D01*
X255379Y198250D02*X256129Y197500D01*
X260931Y203500D02*Y198250D01*
X261681Y197500D01*
X260181Y201250D02*X261681D01*
X265432Y200500D02*X266182Y199750D01*
X263932Y200500D02*X265432D01*
X263182Y199750D02*X263932Y200500D01*
X263182Y199750D02*Y198250D01*
X263932Y197500D01*
X266182Y200500D02*Y198250D01*
X266932Y197500D01*
X263932D02*X265432D01*
X266182Y198250D01*
X268734Y203500D02*Y198250D01*
X269484Y197500D01*
G54D11*X260000Y115000D02*X0D01*
X260000Y0D02*Y115000D01*
X0Y0D02*X260000D01*
X0Y115000D02*Y0D01*
G54D34*X43648Y-9500D02*X46648D01*
X47398Y-8750D01*
Y-7250D02*Y-8750D01*
X46648Y-6500D02*X47398Y-7250D01*
X44398Y-6500D02*X46648D01*
X44398Y-3500D02*Y-9500D01*
X43648Y-3500D02*X46648D01*
X47398Y-4250D01*
Y-5750D01*
X46648Y-6500D02*X47398Y-5750D01*
X49199Y-7250D02*Y-8750D01*
Y-7250D02*X49949Y-6500D01*
X51449D01*
X52199Y-7250D01*
Y-8750D01*
X51449Y-9500D02*X52199Y-8750D01*
X49949Y-9500D02*X51449D01*
X49199Y-8750D02*X49949Y-9500D01*
X56251Y-6500D02*X57001Y-7250D01*
X54751Y-6500D02*X56251D01*
X54001Y-7250D02*X54751Y-6500D01*
X54001Y-7250D02*Y-8750D01*
X54751Y-9500D01*
X57001Y-6500D02*Y-8750D01*
X57751Y-9500D01*
X54751D02*X56251D01*
X57001Y-8750D01*
X60302Y-7250D02*Y-9500D01*
Y-7250D02*X61052Y-6500D01*
X62552D01*
X59552D02*X60302Y-7250D01*
X67354Y-3500D02*Y-9500D01*
X66604D02*X67354Y-8750D01*
X65104Y-9500D02*X66604D01*
X64354Y-8750D02*X65104Y-9500D01*
X64354Y-7250D02*Y-8750D01*
Y-7250D02*X65104Y-6500D01*
X66604D01*
X67354Y-7250D01*
X71855D02*Y-8750D01*
Y-7250D02*X72605Y-6500D01*
X74105D01*
X74855Y-7250D01*
Y-8750D01*
X74105Y-9500D02*X74855Y-8750D01*
X72605Y-9500D02*X74105D01*
X71855Y-8750D02*X72605Y-9500D01*
X76657Y-6500D02*Y-8750D01*
X77407Y-9500D01*
X78907D01*
X79657Y-8750D01*
Y-6500D02*Y-8750D01*
X82208Y-3500D02*Y-8750D01*
X82958Y-9500D01*
X81458Y-5750D02*X82958D01*
X84460Y-3500D02*Y-8750D01*
X85210Y-9500D01*
X86711Y-5000D02*Y-5750D01*
Y-7250D02*Y-9500D01*
X88963Y-7250D02*Y-9500D01*
Y-7250D02*X89713Y-6500D01*
X90463D01*
X91213Y-7250D01*
Y-9500D01*
X88213Y-6500D02*X88963Y-7250D01*
X93764Y-9500D02*X96014D01*
X93014Y-8750D02*X93764Y-9500D01*
X93014Y-7250D02*Y-8750D01*
Y-7250D02*X93764Y-6500D01*
X95264D01*
X96014Y-7250D01*
X93014Y-8000D02*X96014D01*
Y-7250D02*Y-8000D01*
X100516Y-5000D02*Y-5750D01*
Y-7250D02*Y-9500D01*
X102767D02*X105017D01*
X105767Y-8750D01*
X105017Y-8000D02*X105767Y-8750D01*
X102767Y-8000D02*X105017D01*
X102017Y-7250D02*X102767Y-8000D01*
X102017Y-7250D02*X102767Y-6500D01*
X105017D01*
X105767Y-7250D01*
X102017Y-8750D02*X102767Y-9500D01*
X111019Y-3500D02*Y-8750D01*
X111769Y-9500D01*
X110269Y-5750D02*X111769D01*
X113270Y-3500D02*Y-9500D01*
Y-7250D02*X114020Y-6500D01*
X115520D01*
X116270Y-7250D01*
Y-9500D01*
X118822D02*X121072D01*
X118072Y-8750D02*X118822Y-9500D01*
X118072Y-7250D02*Y-8750D01*
Y-7250D02*X118822Y-6500D01*
X120322D01*
X121072Y-7250D01*
X118072Y-8000D02*X121072D01*
Y-7250D02*Y-8000D01*
X126323Y-6500D02*X128573D01*
X125573Y-7250D02*X126323Y-6500D01*
X125573Y-7250D02*Y-8750D01*
X126323Y-9500D01*
X128573D01*
X131125D02*X133375D01*
X130375Y-8750D02*X131125Y-9500D01*
X130375Y-7250D02*Y-8750D01*
Y-7250D02*X131125Y-6500D01*
X132625D01*
X133375Y-7250D01*
X130375Y-8000D02*X133375D01*
Y-7250D02*Y-8000D01*
X135926Y-7250D02*Y-9500D01*
Y-7250D02*X136676Y-6500D01*
X137426D01*
X138176Y-7250D01*
Y-9500D01*
X135176Y-6500D02*X135926Y-7250D01*
X140728Y-3500D02*Y-8750D01*
X141478Y-9500D01*
X139978Y-5750D02*X141478D01*
X143729Y-9500D02*X145979D01*
X142979Y-8750D02*X143729Y-9500D01*
X142979Y-7250D02*Y-8750D01*
Y-7250D02*X143729Y-6500D01*
X145229D01*
X145979Y-7250D01*
X142979Y-8000D02*X145979D01*
Y-7250D02*Y-8000D01*
X148531Y-7250D02*Y-9500D01*
Y-7250D02*X149281Y-6500D01*
X150781D01*
X147781D02*X148531Y-7250D01*
X152582Y-3500D02*Y-8750D01*
X153332Y-9500D01*
X154834Y-5000D02*Y-5750D01*
Y-7250D02*Y-9500D01*
X157085Y-7250D02*Y-9500D01*
Y-7250D02*X157835Y-6500D01*
X158585D01*
X159335Y-7250D01*
Y-9500D01*
X156335Y-6500D02*X157085Y-7250D01*
X161887Y-9500D02*X164137D01*
X161137Y-8750D02*X161887Y-9500D01*
X161137Y-7250D02*Y-8750D01*
Y-7250D02*X161887Y-6500D01*
X163387D01*
X164137Y-7250D01*
X161137Y-8000D02*X164137D01*
Y-7250D02*Y-8000D01*
X168638Y-7250D02*Y-8750D01*
Y-7250D02*X169388Y-6500D01*
X170888D01*
X171638Y-7250D01*
Y-8750D01*
X170888Y-9500D02*X171638Y-8750D01*
X169388Y-9500D02*X170888D01*
X168638Y-8750D02*X169388Y-9500D01*
X174190Y-4250D02*Y-9500D01*
Y-4250D02*X174940Y-3500D01*
X175690D01*
X173440Y-6500D02*X174940D01*
X180641Y-3500D02*Y-8750D01*
X181391Y-9500D01*
X179891Y-5750D02*X181391D01*
X182893Y-3500D02*Y-9500D01*
Y-7250D02*X183643Y-6500D01*
X185143D01*
X185893Y-7250D01*
Y-9500D01*
X187694Y-5000D02*Y-5750D01*
Y-7250D02*Y-9500D01*
X189946D02*X192196D01*
X192946Y-8750D01*
X192196Y-8000D02*X192946Y-8750D01*
X189946Y-8000D02*X192196D01*
X189196Y-7250D02*X189946Y-8000D01*
X189196Y-7250D02*X189946Y-6500D01*
X192196D01*
X192946Y-7250D01*
X189196Y-8750D02*X189946Y-9500D01*
X198197Y-7250D02*Y-11750D01*
X197447Y-6500D02*X198197Y-7250D01*
X198947Y-6500D01*
X200447D01*
X201197Y-7250D01*
Y-8750D01*
X200447Y-9500D02*X201197Y-8750D01*
X198947Y-9500D02*X200447D01*
X198197Y-8750D02*X198947Y-9500D01*
X205249Y-6500D02*X205999Y-7250D01*
X203749Y-6500D02*X205249D01*
X202999Y-7250D02*X203749Y-6500D01*
X202999Y-7250D02*Y-8750D01*
X203749Y-9500D01*
X205999Y-6500D02*Y-8750D01*
X206749Y-9500D01*
X203749D02*X205249D01*
X205999Y-8750D01*
X209300Y-3500D02*Y-8750D01*
X210050Y-9500D01*
X208550Y-5750D02*X210050D01*
X211552Y-3500D02*Y-9500D01*
Y-7250D02*X212302Y-6500D01*
X213802D01*
X214552Y-7250D01*
Y-9500D01*
X200750Y143500D02*Y137500D01*
X203000Y143500D02*X203750Y142750D01*
Y138250D01*
X203000Y137500D02*X203750Y138250D01*
X200000Y137500D02*X203000D01*
X200000Y143500D02*X203000D01*
X207801Y140500D02*X208551Y139750D01*
X206301Y140500D02*X207801D01*
X205551Y139750D02*X206301Y140500D01*
X205551Y139750D02*Y138250D01*
X206301Y137500D01*
X208551Y140500D02*Y138250D01*
X209301Y137500D01*
X206301D02*X207801D01*
X208551Y138250D01*
X211853Y143500D02*Y138250D01*
X212603Y137500D01*
X211103Y141250D02*X212603D01*
X214854Y137500D02*X217104D01*
X214104Y138250D02*X214854Y137500D01*
X214104Y139750D02*Y138250D01*
Y139750D02*X214854Y140500D01*
X216354D01*
X217104Y139750D01*
X214104Y139000D02*X217104D01*
Y139750D02*Y139000D01*
X218906Y141250D02*X219656D01*
X218906Y139750D02*X219656D01*
X227157Y143500D02*X227907Y142750D01*
X224907Y143500D02*X227157D01*
X224157Y142750D02*X224907Y143500D01*
X224157Y142750D02*Y141250D01*
X224907Y140500D01*
X227157D01*
X227907Y139750D01*
Y138250D01*
X227157Y137500D02*X227907Y138250D01*
X224907Y137500D02*X227157D01*
X224157Y138250D02*X224907Y137500D01*
X231959Y140500D02*X232709Y139750D01*
X230459Y140500D02*X231959D01*
X229709Y139750D02*X230459Y140500D01*
X229709Y139750D02*Y138250D01*
X230459Y137500D01*
X232709Y140500D02*Y138250D01*
X233459Y137500D01*
X230459D02*X231959D01*
X232709Y138250D01*
X236010Y143500D02*Y138250D01*
X236760Y137500D01*
X235260Y141250D02*X236760D01*
X240962Y143500D02*Y137500D01*
Y143500D02*X243212Y141250D01*
X245462Y143500D01*
Y137500D01*
X249513Y140500D02*X250263Y139750D01*
X248013Y140500D02*X249513D01*
X247263Y139750D02*X248013Y140500D01*
X247263Y139750D02*Y138250D01*
X248013Y137500D01*
X250263Y140500D02*Y138250D01*
X251013Y137500D01*
X248013D02*X249513D01*
X250263Y138250D01*
X253565Y139750D02*Y137500D01*
Y139750D02*X254315Y140500D01*
X255815D01*
X252815D02*X253565Y139750D01*
X260316Y142750D02*X261066Y143500D01*
X263316D01*
X264066Y142750D01*
Y141250D01*
X260316Y137500D02*X264066Y141250D01*
X260316Y137500D02*X264066D01*
X266618D02*X268118D01*
X267368Y143500D02*Y137500D01*
X265868Y142000D02*X267368Y143500D01*
X273369Y137500D02*X274869D01*
X274119Y143500D02*Y137500D01*
X272619Y142000D02*X274119Y143500D01*
X276671Y137500D02*X279671Y140500D01*
Y142750D02*Y140500D01*
X278921Y143500D02*X279671Y142750D01*
X277421Y143500D02*X278921D01*
X276671Y142750D02*X277421Y143500D01*
X276671Y142750D02*Y141250D01*
X277421Y140500D01*
X279671D01*
X281472Y141250D02*X282222D01*
X281472Y139750D02*X282222D01*
X284024Y142750D02*X284774Y143500D01*
X286274D01*
X287024Y142750D01*
Y138250D01*
X286274Y137500D02*X287024Y138250D01*
X284774Y137500D02*X286274D01*
X284024Y138250D02*X284774Y137500D01*
Y140500D02*X287024D01*
X288825Y143500D02*X291825D01*
X288825D02*Y140500D01*
X289575Y141250D01*
X291075D01*
X291825Y140500D01*
Y138250D01*
X291075Y137500D02*X291825Y138250D01*
X289575Y137500D02*X291075D01*
X288825Y138250D02*X289575Y137500D01*
X293627Y141250D02*X294377D01*
X293627Y139750D02*X294377D01*
X296178Y142750D02*X296928Y143500D01*
X298428D01*
X299178Y142750D01*
Y138250D01*
X298428Y137500D02*X299178Y138250D01*
X296928Y137500D02*X298428D01*
X296178Y138250D02*X296928Y137500D01*
Y140500D02*X299178D01*
X300980Y138250D02*X301730Y137500D01*
X300980Y142750D02*Y138250D01*
Y142750D02*X301730Y143500D01*
X303230D01*
X303980Y142750D01*
Y138250D01*
X303230Y137500D02*X303980Y138250D01*
X301730Y137500D02*X303230D01*
X300980Y139000D02*X303980Y142000D01*
X308481Y142750D02*X309231Y143500D01*
X311481D01*
X312231Y142750D01*
Y141250D01*
X308481Y137500D02*X312231Y141250D01*
X308481Y137500D02*X312231D01*
X314033Y138250D02*X314783Y137500D01*
X314033Y142750D02*Y138250D01*
Y142750D02*X314783Y143500D01*
X316283D01*
X317033Y142750D01*
Y138250D01*
X316283Y137500D02*X317033Y138250D01*
X314783Y137500D02*X316283D01*
X314033Y139000D02*X317033Y142000D01*
X319584Y137500D02*X321084D01*
X320334Y143500D02*Y137500D01*
X318834Y142000D02*X320334Y143500D01*
X322886D02*X325886D01*
X322886D02*Y140500D01*
X323636Y141250D01*
X325136D01*
X325886Y140500D01*
Y138250D01*
X325136Y137500D02*X325886Y138250D01*
X323636Y137500D02*X325136D01*
X322886Y138250D02*X323636Y137500D01*
X330387Y143500D02*Y138250D01*
X331137Y137500D01*
X332637D01*
X333387Y138250D01*
Y143500D02*Y138250D01*
X335189Y143500D02*X338189D01*
X336689D02*Y137500D01*
X340740D02*X342990D01*
X339990Y138250D02*X340740Y137500D01*
X339990Y142750D02*Y138250D01*
Y142750D02*X340740Y143500D01*
X342990D01*
X200000Y157750D02*Y152500D01*
Y157750D02*X200750Y158500D01*
X203000D01*
X203750Y157750D01*
Y152500D01*
X200000Y155500D02*X203750D01*
X205551D02*Y153250D01*
X206301Y152500D01*
X207801D01*
X208551Y153250D01*
Y155500D02*Y153250D01*
X211103Y158500D02*Y153250D01*
X211853Y152500D01*
X210353Y156250D02*X211853D01*
X213354Y158500D02*Y152500D01*
Y154750D02*X214104Y155500D01*
X215604D01*
X216354Y154750D01*
Y152500D01*
X218156Y154750D02*Y153250D01*
Y154750D02*X218906Y155500D01*
X220406D01*
X221156Y154750D01*
Y153250D01*
X220406Y152500D02*X221156Y153250D01*
X218906Y152500D02*X220406D01*
X218156Y153250D02*X218906Y152500D01*
X223707Y154750D02*Y152500D01*
Y154750D02*X224457Y155500D01*
X225957D01*
X222957D02*X223707Y154750D01*
X227759Y156250D02*X228509D01*
X227759Y154750D02*X228509D01*
X233010Y152500D02*X236010D01*
X236760Y153250D01*
Y154750D02*Y153250D01*
X236010Y155500D02*X236760Y154750D01*
X233760Y155500D02*X236010D01*
X233760Y158500D02*Y152500D01*
X233010Y158500D02*X236010D01*
X236760Y157750D01*
Y156250D01*
X236010Y155500D02*X236760Y156250D01*
X239312Y152500D02*X241562D01*
X238562Y153250D02*X239312Y152500D01*
X238562Y154750D02*Y153250D01*
Y154750D02*X239312Y155500D01*
X240812D01*
X241562Y154750D01*
X238562Y154000D02*X241562D01*
Y154750D02*Y154000D01*
X244113Y154750D02*Y152500D01*
Y154750D02*X244863Y155500D01*
X246363D01*
X243363D02*X244113Y154750D01*
X248915Y158500D02*Y153250D01*
X249665Y152500D01*
X248165Y156250D02*X249665D01*
X253866Y158500D02*X256866D01*
X255366D02*Y152500D01*
X258668Y157000D02*Y156250D01*
Y154750D02*Y152500D01*
X260919Y154750D02*Y152500D01*
Y154750D02*X261669Y155500D01*
X262419D01*
X263169Y154750D01*
Y152500D01*
Y154750D02*X263919Y155500D01*
X264669D01*
X265419Y154750D01*
Y152500D01*
X260169Y155500D02*X260919Y154750D01*
X267971D02*Y152500D01*
Y154750D02*X268721Y155500D01*
X269471D01*
X270221Y154750D01*
Y152500D01*
Y154750D02*X270971Y155500D01*
X271721D01*
X272471Y154750D01*
Y152500D01*
X267221Y155500D02*X267971Y154750D01*
X275022Y152500D02*X277272D01*
X274272Y153250D02*X275022Y152500D01*
X274272Y154750D02*Y153250D01*
Y154750D02*X275022Y155500D01*
X276522D01*
X277272Y154750D01*
X274272Y154000D02*X277272D01*
Y154750D02*Y154000D01*
X279824Y154750D02*Y152500D01*
Y154750D02*X280574Y155500D01*
X282074D01*
X279074D02*X279824Y154750D01*
X284625D02*Y152500D01*
Y154750D02*X285375Y155500D01*
X286125D01*
X286875Y154750D01*
Y152500D01*
Y154750D02*X287625Y155500D01*
X288375D01*
X289125Y154750D01*
Y152500D01*
X283875Y155500D02*X284625Y154750D01*
X293177Y155500D02*X293927Y154750D01*
X291677Y155500D02*X293177D01*
X290927Y154750D02*X291677Y155500D01*
X290927Y154750D02*Y153250D01*
X291677Y152500D01*
X293927Y155500D02*Y153250D01*
X294677Y152500D01*
X291677D02*X293177D01*
X293927Y153250D01*
X297228Y154750D02*Y152500D01*
Y154750D02*X297978Y155500D01*
X298728D01*
X299478Y154750D01*
Y152500D01*
X296478Y155500D02*X297228Y154750D01*
X200000Y173500D02*X203000D01*
X201500D02*Y167500D01*
X204801Y172000D02*Y171250D01*
Y169750D02*Y167500D01*
X207053Y173500D02*Y168250D01*
X207803Y167500D01*
X206303Y171250D02*X207803D01*
X209304Y173500D02*Y168250D01*
X210054Y167500D01*
X212306D02*X214556D01*
X211556Y168250D02*X212306Y167500D01*
X211556Y169750D02*Y168250D01*
Y169750D02*X212306Y170500D01*
X213806D01*
X214556Y169750D01*
X211556Y169000D02*X214556D01*
Y169750D02*Y169000D01*
X216357Y171250D02*X217107D01*
X216357Y169750D02*X217107D01*
X221609Y172750D02*X222359Y173500D01*
X224609D01*
X225359Y172750D01*
Y171250D01*
X221609Y167500D02*X225359Y171250D01*
X221609Y167500D02*X225359D01*
X229410Y173500D02*X230160Y172750D01*
X227910Y173500D02*X229410D01*
X227160Y172750D02*X227910Y173500D01*
X227160Y172750D02*Y168250D01*
X227910Y167500D01*
X229410Y170500D02*X230160Y169750D01*
X227160Y170500D02*X229410D01*
X227910Y167500D02*X229410D01*
X230160Y168250D01*
Y169750D02*Y168250D01*
X231962Y167500D02*X232712D01*
X234513Y168250D02*X235263Y167500D01*
X234513Y172750D02*Y168250D01*
Y172750D02*X235263Y173500D01*
X236763D01*
X237513Y172750D01*
Y168250D01*
X236763Y167500D02*X237513Y168250D01*
X235263Y167500D02*X236763D01*
X234513Y169000D02*X237513Y172000D01*
X239315Y168250D02*X240065Y167500D01*
X239315Y172750D02*Y168250D01*
Y172750D02*X240065Y173500D01*
X241565D01*
X242315Y172750D01*
Y168250D01*
X241565Y167500D02*X242315Y168250D01*
X240065Y167500D02*X241565D01*
X239315Y169000D02*X242315Y172000D01*
X246366Y173500D02*X247116Y172750D01*
X244866Y173500D02*X246366D01*
X244116Y172750D02*X244866Y173500D01*
X244116Y172750D02*Y168250D01*
X244866Y167500D01*
X246366Y170500D02*X247116Y169750D01*
X244116Y170500D02*X246366D01*
X244866Y167500D02*X246366D01*
X247116Y168250D01*
Y169750D02*Y168250D01*
X248918Y167500D02*X249668D01*
X251469Y168250D02*X252219Y167500D01*
X251469Y172750D02*Y168250D01*
Y172750D02*X252219Y173500D01*
X253719D01*
X254469Y172750D01*
Y168250D01*
X253719Y167500D02*X254469Y168250D01*
X252219Y167500D02*X253719D01*
X251469Y169000D02*X254469Y172000D01*
X257021Y167500D02*X258521D01*
X257771Y173500D02*Y167500D01*
X256271Y172000D02*X257771Y173500D01*
X260322Y167500D02*X261072D01*
X262874Y168250D02*X263624Y167500D01*
X262874Y172750D02*Y168250D01*
Y172750D02*X263624Y173500D01*
X265124D01*
X265874Y172750D01*
Y168250D01*
X265124Y167500D02*X265874Y168250D01*
X263624Y167500D02*X265124D01*
X262874Y169000D02*X265874Y172000D01*
X268425Y167500D02*X269925D01*
X269175Y173500D02*Y167500D01*
X267675Y172000D02*X269175Y173500D01*
X271727Y167500D02*X272477D01*
X274278Y168250D02*X275028Y167500D01*
X274278Y172750D02*Y168250D01*
Y172750D02*X275028Y173500D01*
X276528D01*
X277278Y172750D01*
Y168250D01*
X276528Y167500D02*X277278Y168250D01*
X275028Y167500D02*X276528D01*
X274278Y169000D02*X277278Y172000D01*
X279830Y167500D02*X281330D01*
X280580Y173500D02*Y167500D01*
X279080Y172000D02*X280580Y173500D01*
X285831Y170500D02*X288831D01*
X293333Y173500D02*Y167500D01*
Y173500D02*X296333D01*
X293333Y170500D02*X295583D01*
X300384D02*X301134Y169750D01*
X298884Y170500D02*X300384D01*
X298134Y169750D02*X298884Y170500D01*
X298134Y169750D02*Y168250D01*
X298884Y167500D01*
X301134Y170500D02*Y168250D01*
X301884Y167500D01*
X298884D02*X300384D01*
X301134Y168250D01*
X303686Y173500D02*Y167500D01*
Y168250D02*X304436Y167500D01*
X305936D01*
X306686Y168250D01*
Y169750D02*Y168250D01*
X305936Y170500D02*X306686Y169750D01*
X304436Y170500D02*X305936D01*
X303686Y169750D02*X304436Y170500D01*
X309237Y169750D02*Y167500D01*
Y169750D02*X309987Y170500D01*
X311487D01*
X308487D02*X309237Y169750D01*
X313289Y172000D02*Y171250D01*
Y169750D02*Y167500D01*
X315540Y170500D02*X317790D01*
X314790Y169750D02*X315540Y170500D01*
X314790Y169750D02*Y168250D01*
X315540Y167500D01*
X317790D01*
X321842Y170500D02*X322592Y169750D01*
X320342Y170500D02*X321842D01*
X319592Y169750D02*X320342Y170500D01*
X319592Y169750D02*Y168250D01*
X320342Y167500D01*
X322592Y170500D02*Y168250D01*
X323342Y167500D01*
X320342D02*X321842D01*
X322592Y168250D01*
X325893Y173500D02*Y168250D01*
X326643Y167500D01*
X325143Y171250D02*X326643D01*
X328145Y172000D02*Y171250D01*
Y169750D02*Y167500D01*
X329646Y169750D02*Y168250D01*
Y169750D02*X330396Y170500D01*
X331896D01*
X332646Y169750D01*
Y168250D01*
X331896Y167500D02*X332646Y168250D01*
X330396Y167500D02*X331896D01*
X329646Y168250D02*X330396Y167500D01*
X335198Y169750D02*Y167500D01*
Y169750D02*X335948Y170500D01*
X336698D01*
X337448Y169750D01*
Y167500D01*
X334448Y170500D02*X335198Y169750D01*
X342699Y173500D02*Y167500D01*
X344949Y173500D02*X345699Y172750D01*
Y168250D01*
X344949Y167500D02*X345699Y168250D01*
X341949Y167500D02*X344949D01*
X341949Y173500D02*X344949D01*
X348251Y169750D02*Y167500D01*
Y169750D02*X349001Y170500D01*
X350501D01*
X347501D02*X348251Y169750D01*
X354552Y170500D02*X355302Y169750D01*
X353052Y170500D02*X354552D01*
X352302Y169750D02*X353052Y170500D01*
X352302Y169750D02*Y168250D01*
X353052Y167500D01*
X355302Y170500D02*Y168250D01*
X356052Y167500D01*
X353052D02*X354552D01*
X355302Y168250D01*
X357854Y170500D02*Y168250D01*
X358604Y167500D01*
X359354D01*
X360104Y168250D01*
Y170500D02*Y168250D01*
X360854Y167500D01*
X361604D01*
X362354Y168250D01*
Y170500D02*Y168250D01*
X364155Y172000D02*Y171250D01*
Y169750D02*Y167500D01*
X366407Y169750D02*Y167500D01*
Y169750D02*X367157Y170500D01*
X367907D01*
X368657Y169750D01*
Y167500D01*
X365657Y170500D02*X366407Y169750D01*
X372708Y170500D02*X373458Y169750D01*
X371208Y170500D02*X372708D01*
X370458Y169750D02*X371208Y170500D01*
X370458Y169750D02*Y168250D01*
X371208Y167500D01*
X372708D01*
X373458Y168250D01*
X370458Y166000D02*X371208Y165250D01*
X372708D01*
X373458Y166000D01*
Y170500D02*Y166000D01*
M02*
