G04 start of page 3 for group 1 idx 1 *
G04 Title: 26.007.01.01.01, solder *
G04 Creator: pcb 20100929 *
G04 CreationDate: Wed Mar 18 07:56:07 2015 UTC *
G04 For: bert *
G04 Format: Gerber/RS-274X *
G04 PCB-Dimensions: 260000 115000 *
G04 PCB-Coordinate-Origin: lower left *
%MOIN*%
%FSLAX25Y25*%
%LNBACK*%
%ADD11C,0.0100*%
%ADD13C,0.0200*%
%ADD14C,0.0600*%
%ADD15C,0.0650*%
%ADD16C,0.0400*%
%ADD18R,0.0512X0.0512*%
%ADD22C,0.0380*%
%ADD23C,0.0460*%
G54D13*G36*
X252500Y115000D02*X260000D01*
Y0D01*
X252500D01*
Y10380D01*
X253547Y11427D01*
X253561Y11439D01*
X253714Y11618D01*
X253837Y11819D01*
X253927Y12036D01*
X253982Y12265D01*
X254000Y12500D01*
Y39912D01*
X254263Y40073D01*
X254621Y40379D01*
X254927Y40737D01*
X255173Y41138D01*
X255353Y41573D01*
X255463Y42031D01*
X255500Y42500D01*
X255463Y42969D01*
X255353Y43427D01*
X255173Y43862D01*
X254927Y44263D01*
X254621Y44621D01*
X254263Y44927D01*
X253862Y45173D01*
X253427Y45353D01*
X252969Y45463D01*
X252500Y45500D01*
Y84500D01*
X252969Y84537D01*
X253427Y84647D01*
X253862Y84827D01*
X254263Y85073D01*
X254621Y85379D01*
X254927Y85737D01*
X255173Y86138D01*
X255353Y86573D01*
X255463Y87031D01*
X255500Y87500D01*
X255463Y87969D01*
X255353Y88427D01*
X255173Y88862D01*
X254927Y89263D01*
X254621Y89621D01*
X254263Y89927D01*
X253862Y90173D01*
X253427Y90353D01*
X252969Y90463D01*
X252500Y90500D01*
Y115000D01*
G37*
G36*
Y0D02*X242500D01*
Y8500D01*
X250000D01*
X250235Y8518D01*
X250464Y8573D01*
X250681Y8663D01*
X250882Y8786D01*
X251061Y8939D01*
X251073Y8953D01*
X252500Y10380D01*
Y0D01*
G37*
G36*
X242500Y115000D02*X252500D01*
Y90500D01*
X252031Y90463D01*
X251573Y90353D01*
X251138Y90173D01*
X250737Y89927D01*
X250379Y89621D01*
X250073Y89263D01*
X249827Y88862D01*
X249647Y88427D01*
X249537Y87969D01*
X249500Y87500D01*
X249537Y87031D01*
X249647Y86573D01*
X249827Y86138D01*
X250073Y85737D01*
X250379Y85379D01*
X250737Y85073D01*
X251138Y84827D01*
X251573Y84647D01*
X252031Y84537D01*
X252500Y84500D01*
Y45500D01*
X252031Y45463D01*
X251573Y45353D01*
X251138Y45173D01*
X250737Y44927D01*
X250379Y44621D01*
X250073Y44263D01*
X249827Y43862D01*
X249647Y43427D01*
X249537Y42969D01*
X249500Y42500D01*
X249537Y42031D01*
X249647Y41573D01*
X249827Y41138D01*
X250073Y40737D01*
X250379Y40379D01*
X250737Y40073D01*
X251000Y39912D01*
Y13122D01*
X249378Y11500D01*
X242500D01*
Y18042D01*
X246199Y18048D01*
X246352Y18085D01*
X246497Y18145D01*
X246631Y18227D01*
X246750Y18329D01*
X246852Y18448D01*
X246934Y18582D01*
X246994Y18727D01*
X247031Y18880D01*
X247043Y19036D01*
X247031Y24310D01*
X246994Y24463D01*
X246934Y24608D01*
X246852Y24742D01*
X246750Y24861D01*
X246631Y24963D01*
X246497Y25045D01*
X246352Y25105D01*
X246199Y25142D01*
X246043Y25154D01*
X242500Y25148D01*
Y29852D01*
X246199Y29858D01*
X246352Y29895D01*
X246497Y29955D01*
X246631Y30037D01*
X246750Y30139D01*
X246852Y30258D01*
X246934Y30392D01*
X246994Y30537D01*
X247031Y30690D01*
X247043Y30846D01*
X247031Y36120D01*
X246994Y36273D01*
X246934Y36418D01*
X246852Y36552D01*
X246750Y36671D01*
X246631Y36773D01*
X246497Y36855D01*
X246352Y36915D01*
X246199Y36952D01*
X246043Y36964D01*
X244000Y36961D01*
Y37412D01*
X244263Y37573D01*
X244621Y37879D01*
X244927Y38237D01*
X245173Y38638D01*
X245353Y39073D01*
X245463Y39531D01*
X245500Y40000D01*
X245463Y40469D01*
X245353Y40927D01*
X245173Y41362D01*
X244927Y41763D01*
X244621Y42121D01*
X244263Y42427D01*
X243862Y42673D01*
X243427Y42853D01*
X242969Y42963D01*
X242500Y43000D01*
Y115000D01*
G37*
G36*
X232500Y8500D02*X242500D01*
Y0D01*
X232500D01*
Y8500D01*
G37*
G36*
Y38500D02*X239912D01*
X240073Y38237D01*
X240379Y37879D01*
X240737Y37573D01*
X241000Y37412D01*
Y36956D01*
X238801Y36952D01*
X238648Y36915D01*
X238503Y36855D01*
X238369Y36773D01*
X238250Y36671D01*
X238148Y36552D01*
X238066Y36418D01*
X238006Y36273D01*
X237969Y36120D01*
X237957Y35964D01*
X237969Y30690D01*
X238006Y30537D01*
X238066Y30392D01*
X238148Y30258D01*
X238250Y30139D01*
X238369Y30037D01*
X238503Y29955D01*
X238648Y29895D01*
X238801Y29858D01*
X238957Y29846D01*
X242500Y29852D01*
Y25148D01*
X238801Y25142D01*
X238648Y25105D01*
X238503Y25045D01*
X238369Y24963D01*
X238250Y24861D01*
X238148Y24742D01*
X238066Y24608D01*
X238006Y24463D01*
X237969Y24310D01*
X237957Y24154D01*
X237969Y18880D01*
X238006Y18727D01*
X238066Y18582D01*
X238148Y18448D01*
X238250Y18329D01*
X238369Y18227D01*
X238503Y18145D01*
X238648Y18085D01*
X238801Y18048D01*
X238957Y18036D01*
X242500Y18042D01*
Y11500D01*
X232500D01*
Y38500D01*
G37*
G36*
Y115000D02*X242500D01*
Y43000D01*
X242031Y42963D01*
X241573Y42853D01*
X241138Y42673D01*
X240737Y42427D01*
X240379Y42121D01*
X240073Y41763D01*
X239912Y41500D01*
X232500D01*
Y77000D01*
X232969Y77037D01*
X233427Y77147D01*
X233862Y77327D01*
X234263Y77573D01*
X234621Y77879D01*
X234927Y78237D01*
X235173Y78638D01*
X235353Y79073D01*
X235463Y79531D01*
X235500Y80000D01*
X235463Y80469D01*
X235353Y80927D01*
X235173Y81362D01*
X234927Y81763D01*
X234621Y82121D01*
X234263Y82427D01*
X234000Y82588D01*
Y83044D01*
X236199Y83048D01*
X236352Y83085D01*
X236497Y83145D01*
X236631Y83227D01*
X236750Y83329D01*
X236852Y83448D01*
X236934Y83582D01*
X236994Y83727D01*
X237031Y83880D01*
X237043Y84036D01*
X237031Y89310D01*
X236994Y89463D01*
X236934Y89608D01*
X236852Y89742D01*
X236750Y89861D01*
X236631Y89963D01*
X236497Y90045D01*
X236352Y90105D01*
X236199Y90142D01*
X236043Y90154D01*
X232500Y90148D01*
Y94852D01*
X236199Y94858D01*
X236352Y94895D01*
X236497Y94955D01*
X236631Y95037D01*
X236750Y95139D01*
X236852Y95258D01*
X236934Y95392D01*
X236994Y95537D01*
X237031Y95690D01*
X237043Y95846D01*
X237031Y101120D01*
X236994Y101273D01*
X236934Y101418D01*
X236852Y101552D01*
X236750Y101671D01*
X236631Y101773D01*
X236497Y101855D01*
X236352Y101915D01*
X236199Y101952D01*
X236043Y101964D01*
X232500Y101958D01*
Y103250D01*
X233165Y103302D01*
X233813Y103458D01*
X234429Y103713D01*
X234998Y104062D01*
X235505Y104495D01*
X235938Y105002D01*
X236287Y105571D01*
X236542Y106187D01*
X236698Y106835D01*
X236750Y107500D01*
X236698Y108165D01*
X236542Y108813D01*
X236287Y109429D01*
X235938Y109998D01*
X235505Y110505D01*
X234998Y110938D01*
X234429Y111287D01*
X233813Y111542D01*
X233165Y111698D01*
X232500Y111750D01*
Y115000D01*
G37*
G36*
X192500Y8500D02*X232500D01*
Y0D01*
X192500D01*
Y8500D01*
G37*
G36*
X202500Y18042D02*X206199Y18048D01*
X206352Y18085D01*
X206497Y18145D01*
X206631Y18227D01*
X206750Y18329D01*
X206852Y18448D01*
X206934Y18582D01*
X206994Y18727D01*
X207031Y18880D01*
X207043Y19036D01*
X207038Y21000D01*
X207500D01*
X207735Y21018D01*
X207964Y21073D01*
X208181Y21163D01*
X208382Y21286D01*
X208561Y21439D01*
X208573Y21453D01*
X211047Y23927D01*
X211061Y23939D01*
X211214Y24118D01*
X211337Y24319D01*
X211427Y24536D01*
X211482Y24765D01*
X211500Y25000D01*
Y38500D01*
X232500D01*
Y11500D01*
X202500D01*
Y18042D01*
G37*
G36*
Y37000D02*X202969Y37037D01*
X203427Y37147D01*
X203862Y37327D01*
X204263Y37573D01*
X204621Y37879D01*
X204927Y38237D01*
X205088Y38500D01*
X208500D01*
Y25622D01*
X207031Y24153D01*
Y24310D01*
X206994Y24463D01*
X206934Y24608D01*
X206852Y24742D01*
X206750Y24861D01*
X206631Y24963D01*
X206497Y25045D01*
X206352Y25105D01*
X206199Y25142D01*
X206043Y25154D01*
X202500Y25148D01*
Y29852D01*
X206199Y29858D01*
X206352Y29895D01*
X206497Y29955D01*
X206631Y30037D01*
X206750Y30139D01*
X206852Y30258D01*
X206934Y30392D01*
X206994Y30537D01*
X207031Y30690D01*
X207043Y30846D01*
X207031Y36120D01*
X206994Y36273D01*
X206934Y36418D01*
X206852Y36552D01*
X206750Y36671D01*
X206631Y36773D01*
X206497Y36855D01*
X206352Y36915D01*
X206199Y36952D01*
X206043Y36964D01*
X202500Y36958D01*
Y37000D01*
G37*
G36*
X192500Y38500D02*X199912D01*
X200073Y38237D01*
X200379Y37879D01*
X200737Y37573D01*
X201138Y37327D01*
X201573Y37147D01*
X202031Y37037D01*
X202500Y37000D01*
Y36958D01*
X198801Y36952D01*
X198648Y36915D01*
X198503Y36855D01*
X198369Y36773D01*
X198250Y36671D01*
X198148Y36552D01*
X198066Y36418D01*
X198006Y36273D01*
X197969Y36120D01*
X197957Y35964D01*
X197969Y30690D01*
X198006Y30537D01*
X198066Y30392D01*
X198148Y30258D01*
X198250Y30139D01*
X198369Y30037D01*
X198503Y29955D01*
X198648Y29895D01*
X198801Y29858D01*
X198957Y29846D01*
X202500Y29852D01*
Y25148D01*
X198801Y25142D01*
X198648Y25105D01*
X198503Y25045D01*
X198369Y24963D01*
X198250Y24861D01*
X198148Y24742D01*
X198066Y24608D01*
X198006Y24463D01*
X197969Y24310D01*
X197957Y24154D01*
X197969Y18880D01*
X198006Y18727D01*
X198066Y18582D01*
X198148Y18448D01*
X198250Y18329D01*
X198369Y18227D01*
X198503Y18145D01*
X198648Y18085D01*
X198801Y18048D01*
X198957Y18036D01*
X202500Y18042D01*
Y11500D01*
X192500D01*
Y38500D01*
G37*
G36*
X203750Y86000D02*X227964D01*
X227969Y83880D01*
X228006Y83727D01*
X228066Y83582D01*
X228148Y83448D01*
X228250Y83329D01*
X228369Y83227D01*
X228503Y83145D01*
X228648Y83085D01*
X228801Y83048D01*
X228957Y83036D01*
X231000Y83039D01*
Y82588D01*
X230737Y82427D01*
X230379Y82121D01*
X230073Y81763D01*
X229827Y81362D01*
X229647Y80927D01*
X229537Y80469D01*
X229500Y80000D01*
X229537Y79531D01*
X229647Y79073D01*
X229827Y78638D01*
X230073Y78237D01*
X230379Y77879D01*
X230737Y77573D01*
X231138Y77327D01*
X231573Y77147D01*
X232031Y77037D01*
X232500Y77000D01*
Y41500D01*
X205088D01*
X204927Y41763D01*
X204621Y42121D01*
X204263Y42427D01*
X203862Y42673D01*
X203750Y42719D01*
Y58500D01*
X206879D01*
X208500Y56879D01*
Y50088D01*
X208237Y49927D01*
X207879Y49621D01*
X207573Y49263D01*
X207327Y48862D01*
X207147Y48427D01*
X207037Y47969D01*
X207000Y47500D01*
X207037Y47031D01*
X207147Y46573D01*
X207327Y46138D01*
X207573Y45737D01*
X207879Y45379D01*
X208237Y45073D01*
X208638Y44827D01*
X209073Y44647D01*
X209531Y44537D01*
X210000Y44500D01*
X210469Y44537D01*
X210927Y44647D01*
X211362Y44827D01*
X211763Y45073D01*
X212121Y45379D01*
X212427Y45737D01*
X212673Y46138D01*
X212853Y46573D01*
X212963Y47031D01*
X213000Y47500D01*
X212963Y47969D01*
X212853Y48427D01*
X212673Y48862D01*
X212427Y49263D01*
X212121Y49621D01*
X211763Y49927D01*
X211500Y50088D01*
Y57501D01*
X211482Y57735D01*
X211427Y57964D01*
X211337Y58181D01*
X211214Y58382D01*
X211061Y58561D01*
X211054Y58567D01*
X208567Y61054D01*
X208561Y61061D01*
X208382Y61214D01*
X208181Y61337D01*
X207964Y61427D01*
X207735Y61482D01*
X207518Y61499D01*
X207501Y61500D01*
X203750D01*
Y86000D01*
G37*
G36*
X192500Y77000D02*X192969Y77037D01*
X193427Y77147D01*
X193862Y77327D01*
X194263Y77573D01*
X194621Y77879D01*
X194927Y78237D01*
X195173Y78638D01*
X195353Y79073D01*
X195463Y79531D01*
X195500Y80000D01*
X195463Y80469D01*
X195353Y80927D01*
X195173Y81362D01*
X194927Y81763D01*
X194621Y82121D01*
X194263Y82427D01*
X194000Y82588D01*
Y83044D01*
X196199Y83048D01*
X196352Y83085D01*
X196497Y83145D01*
X196631Y83227D01*
X196750Y83329D01*
X196852Y83448D01*
X196934Y83582D01*
X196994Y83727D01*
X197031Y83880D01*
X197043Y84036D01*
X197039Y86000D01*
X203750D01*
Y61500D01*
X200621D01*
X200391Y61730D01*
X200463Y62031D01*
X200500Y62500D01*
X200463Y62969D01*
X200353Y63427D01*
X200173Y63862D01*
X199927Y64263D01*
X199621Y64621D01*
X199263Y64927D01*
X198862Y65173D01*
X198427Y65353D01*
X197969Y65463D01*
X197500Y65500D01*
X197031Y65463D01*
X196573Y65353D01*
X196138Y65173D01*
X195737Y64927D01*
X195379Y64621D01*
X195073Y64263D01*
X194827Y63862D01*
X194647Y63427D01*
X194537Y62969D01*
X194500Y62500D01*
X194537Y62031D01*
X194647Y61573D01*
X194827Y61138D01*
X195073Y60737D01*
X195379Y60379D01*
X195737Y60073D01*
X196138Y59827D01*
X196573Y59647D01*
X197031Y59537D01*
X197500Y59500D01*
X197969Y59537D01*
X198270Y59609D01*
X198933Y58946D01*
X198939Y58939D01*
X199118Y58786D01*
X199319Y58663D01*
X199536Y58573D01*
X199765Y58518D01*
X200000Y58500D01*
X203750D01*
Y42719D01*
X203427Y42853D01*
X202969Y42963D01*
X202500Y43000D01*
X202031Y42963D01*
X201573Y42853D01*
X201138Y42673D01*
X200737Y42427D01*
X200379Y42121D01*
X200073Y41763D01*
X199912Y41500D01*
X192500D01*
Y54500D01*
X192969Y54537D01*
X193427Y54647D01*
X193862Y54827D01*
X194263Y55073D01*
X194621Y55379D01*
X194927Y55737D01*
X195173Y56138D01*
X195353Y56573D01*
X195463Y57031D01*
X195500Y57500D01*
X195463Y57969D01*
X195353Y58427D01*
X195173Y58862D01*
X194927Y59263D01*
X194621Y59621D01*
X194263Y59927D01*
X193862Y60173D01*
X193427Y60353D01*
X192969Y60463D01*
X192500Y60500D01*
Y77000D01*
G37*
G36*
X225000Y106000D02*X228535D01*
X228713Y105571D01*
X229062Y105002D01*
X229495Y104495D01*
X230002Y104062D01*
X230571Y103713D01*
X231187Y103458D01*
X231835Y103302D01*
X232500Y103250D01*
Y101958D01*
X228801Y101952D01*
X228648Y101915D01*
X228503Y101855D01*
X228369Y101773D01*
X228250Y101671D01*
X228148Y101552D01*
X228066Y101418D01*
X228006Y101273D01*
X227969Y101120D01*
X227957Y100964D01*
X227969Y95690D01*
X228006Y95537D01*
X228066Y95392D01*
X228148Y95258D01*
X228250Y95139D01*
X228369Y95037D01*
X228503Y94955D01*
X228648Y94895D01*
X228801Y94858D01*
X228957Y94846D01*
X232500Y94852D01*
Y90148D01*
X228801Y90142D01*
X228648Y90105D01*
X228503Y90045D01*
X228369Y89963D01*
X228250Y89861D01*
X228148Y89742D01*
X228066Y89608D01*
X228006Y89463D01*
X227969Y89310D01*
X227957Y89154D01*
Y89000D01*
X225000D01*
Y99500D01*
X225469Y99537D01*
X225927Y99647D01*
X226362Y99827D01*
X226763Y100073D01*
X227121Y100379D01*
X227427Y100737D01*
X227673Y101138D01*
X227853Y101573D01*
X227963Y102031D01*
X228000Y102500D01*
X227963Y102969D01*
X227853Y103427D01*
X227673Y103862D01*
X227427Y104263D01*
X227121Y104621D01*
X226763Y104927D01*
X226362Y105173D01*
X225927Y105353D01*
X225469Y105463D01*
X225000Y105500D01*
Y106000D01*
G37*
G36*
X192500D02*X225000D01*
Y105500D01*
X224531Y105463D01*
X224073Y105353D01*
X223638Y105173D01*
X223237Y104927D01*
X222879Y104621D01*
X222573Y104263D01*
X222327Y103862D01*
X222147Y103427D01*
X222037Y102969D01*
X222000Y102500D01*
X222037Y102031D01*
X222147Y101573D01*
X222327Y101138D01*
X222573Y100737D01*
X222879Y100379D01*
X223237Y100073D01*
X223638Y99827D01*
X224073Y99647D01*
X224531Y99537D01*
X225000Y99500D01*
Y89000D01*
X197032D01*
X197031Y89310D01*
X196994Y89463D01*
X196934Y89608D01*
X196852Y89742D01*
X196750Y89861D01*
X196631Y89963D01*
X196497Y90045D01*
X196352Y90105D01*
X196199Y90142D01*
X196043Y90154D01*
X192500Y90148D01*
Y94852D01*
X196199Y94858D01*
X196352Y94895D01*
X196497Y94955D01*
X196631Y95037D01*
X196750Y95139D01*
X196852Y95258D01*
X196934Y95392D01*
X196994Y95537D01*
X197031Y95690D01*
X197043Y95846D01*
X197031Y101120D01*
X196994Y101273D01*
X196934Y101418D01*
X196852Y101552D01*
X196750Y101671D01*
X196631Y101773D01*
X196497Y101855D01*
X196352Y101915D01*
X196199Y101952D01*
X196043Y101964D01*
X192500Y101958D01*
Y106000D01*
G37*
G36*
Y115000D02*X232500D01*
Y111750D01*
X231835Y111698D01*
X231187Y111542D01*
X230571Y111287D01*
X230002Y110938D01*
X229495Y110505D01*
X229062Y109998D01*
X228713Y109429D01*
X228535Y109000D01*
X192500D01*
Y115000D01*
G37*
G36*
X62500Y1270D02*X62957Y990D01*
X63609Y720D01*
X64296Y555D01*
X65000Y500D01*
X65704Y555D01*
X66391Y720D01*
X67043Y990D01*
X67645Y1359D01*
X68182Y1818D01*
X68641Y2355D01*
X69010Y2957D01*
X69280Y3609D01*
X69445Y4296D01*
X69500Y5000D01*
X69445Y5704D01*
X69280Y6391D01*
X69010Y7043D01*
X68641Y7645D01*
X68182Y8182D01*
X67810Y8500D01*
X72190D01*
X71818Y8182D01*
X71359Y7645D01*
X70990Y7043D01*
X70720Y6391D01*
X70555Y5704D01*
X70500Y5000D01*
X70555Y4296D01*
X70720Y3609D01*
X70990Y2957D01*
X71359Y2355D01*
X71818Y1818D01*
X72355Y1359D01*
X72957Y990D01*
X73609Y720D01*
X74296Y555D01*
X75000Y500D01*
X75704Y555D01*
X76391Y720D01*
X77043Y990D01*
X77645Y1359D01*
X78182Y1818D01*
X78641Y2355D01*
X79010Y2957D01*
X79280Y3609D01*
X79445Y4296D01*
X79500Y5000D01*
X79445Y5704D01*
X79280Y6391D01*
X79010Y7043D01*
X78641Y7645D01*
X78182Y8182D01*
X77810Y8500D01*
X192500D01*
Y0D01*
X62500D01*
Y1270D01*
G37*
G36*
X165000Y29852D02*X168699Y29858D01*
X168852Y29895D01*
X168997Y29955D01*
X169131Y30037D01*
X169250Y30139D01*
X169352Y30258D01*
X169434Y30392D01*
X169494Y30537D01*
X169531Y30690D01*
X169543Y30846D01*
X169531Y36120D01*
X169494Y36273D01*
X169434Y36418D01*
X169352Y36552D01*
X169250Y36671D01*
X169131Y36773D01*
X168997Y36855D01*
X168852Y36915D01*
X168699Y36952D01*
X168543Y36964D01*
X166500Y36961D01*
Y37412D01*
X166763Y37573D01*
X167121Y37879D01*
X167427Y38237D01*
X167588Y38500D01*
X192500D01*
Y11500D01*
X165000D01*
Y18042D01*
X168699Y18048D01*
X168852Y18085D01*
X168997Y18145D01*
X169131Y18227D01*
X169250Y18329D01*
X169352Y18448D01*
X169434Y18582D01*
X169494Y18727D01*
X169531Y18880D01*
X169543Y19036D01*
X169531Y24310D01*
X169494Y24463D01*
X169434Y24608D01*
X169352Y24742D01*
X169250Y24861D01*
X169131Y24963D01*
X168997Y25045D01*
X168852Y25105D01*
X168699Y25142D01*
X168543Y25154D01*
X165000Y25148D01*
Y26000D01*
X172412D01*
X172573Y25737D01*
X172879Y25379D01*
X173237Y25073D01*
X173638Y24827D01*
X174073Y24647D01*
X174531Y24537D01*
X175000Y24500D01*
X175469Y24537D01*
X175927Y24647D01*
X176362Y24827D01*
X176763Y25073D01*
X177121Y25379D01*
X177427Y25737D01*
X177673Y26138D01*
X177853Y26573D01*
X177963Y27031D01*
X178000Y27500D01*
X177963Y27969D01*
X177853Y28427D01*
X177673Y28862D01*
X177427Y29263D01*
X177121Y29621D01*
X176763Y29927D01*
X176362Y30173D01*
X175927Y30353D01*
X175469Y30463D01*
X175000Y30500D01*
X174531Y30463D01*
X174073Y30353D01*
X173638Y30173D01*
X173237Y29927D01*
X172879Y29621D01*
X172573Y29263D01*
X172412Y29000D01*
X165000D01*
Y29852D01*
G37*
G36*
X135000Y26000D02*X165000D01*
Y25148D01*
X161301Y25142D01*
X161148Y25105D01*
X161003Y25045D01*
X160869Y24963D01*
X160750Y24861D01*
X160648Y24742D01*
X160566Y24608D01*
X160506Y24463D01*
X160469Y24310D01*
X160457Y24154D01*
X160469Y18880D01*
X160506Y18727D01*
X160566Y18582D01*
X160648Y18448D01*
X160750Y18329D01*
X160869Y18227D01*
X161003Y18145D01*
X161148Y18085D01*
X161301Y18048D01*
X161457Y18036D01*
X165000Y18042D01*
Y11500D01*
X135000D01*
Y13250D01*
X135665Y13302D01*
X136313Y13458D01*
X136929Y13713D01*
X137498Y14062D01*
X138005Y14495D01*
X138438Y15002D01*
X138787Y15571D01*
X139042Y16187D01*
X139198Y16835D01*
X139250Y17500D01*
X139198Y18165D01*
X139042Y18813D01*
X138787Y19429D01*
X138438Y19998D01*
X138005Y20505D01*
X137498Y20938D01*
X136929Y21287D01*
X136313Y21542D01*
X135665Y21698D01*
X135000Y21750D01*
Y26000D01*
G37*
G36*
Y46000D02*X151879D01*
X158933Y38946D01*
X158939Y38939D01*
X159118Y38786D01*
X159319Y38663D01*
X159536Y38573D01*
X159765Y38518D01*
X160000Y38500D01*
X162412D01*
X162573Y38237D01*
X162879Y37879D01*
X163237Y37573D01*
X163500Y37412D01*
Y36956D01*
X161301Y36952D01*
X161148Y36915D01*
X161003Y36855D01*
X160869Y36773D01*
X160750Y36671D01*
X160648Y36552D01*
X160566Y36418D01*
X160506Y36273D01*
X160469Y36120D01*
X160457Y35964D01*
X160469Y30690D01*
X160506Y30537D01*
X160566Y30392D01*
X160648Y30258D01*
X160750Y30139D01*
X160869Y30037D01*
X161003Y29955D01*
X161148Y29895D01*
X161301Y29858D01*
X161457Y29846D01*
X165000Y29852D01*
Y29000D01*
X135000D01*
Y46000D01*
G37*
G36*
X112500Y29852D02*X116199Y29858D01*
X116352Y29895D01*
X116497Y29955D01*
X116631Y30037D01*
X116750Y30139D01*
X116852Y30258D01*
X116934Y30392D01*
X116994Y30537D01*
X117031Y30690D01*
X117043Y30846D01*
X117031Y36120D01*
X116994Y36273D01*
X116934Y36418D01*
X116852Y36552D01*
X116750Y36671D01*
X116631Y36773D01*
X116497Y36855D01*
X116352Y36915D01*
X116199Y36952D01*
X116043Y36964D01*
X114000Y36961D01*
Y37412D01*
X114263Y37573D01*
X114621Y37879D01*
X114927Y38237D01*
X115173Y38638D01*
X115353Y39073D01*
X115463Y39531D01*
X115500Y40000D01*
X115463Y40469D01*
X115391Y40771D01*
X120620Y46000D01*
X135000D01*
Y29000D01*
X132588D01*
X132427Y29263D01*
X132121Y29621D01*
X131763Y29927D01*
X131362Y30173D01*
X130927Y30353D01*
X130469Y30463D01*
X130000Y30500D01*
X129531Y30463D01*
X129073Y30353D01*
X128638Y30173D01*
X128237Y29927D01*
X127879Y29621D01*
X127573Y29263D01*
X127327Y28862D01*
X127147Y28427D01*
X127037Y27969D01*
X127000Y27500D01*
X127037Y27031D01*
X127147Y26573D01*
X127327Y26138D01*
X127573Y25737D01*
X127879Y25379D01*
X128237Y25073D01*
X128638Y24827D01*
X129073Y24647D01*
X129531Y24537D01*
X130000Y24500D01*
X130469Y24537D01*
X130927Y24647D01*
X131362Y24827D01*
X131763Y25073D01*
X132121Y25379D01*
X132427Y25737D01*
X132588Y26000D01*
X135000D01*
Y21750D01*
X134335Y21698D01*
X133687Y21542D01*
X133071Y21287D01*
X132502Y20938D01*
X131995Y20505D01*
X131562Y19998D01*
X131213Y19429D01*
X130958Y18813D01*
X130802Y18165D01*
X130750Y17500D01*
X130802Y16835D01*
X130958Y16187D01*
X131213Y15571D01*
X131562Y15002D01*
X131995Y14495D01*
X132502Y14062D01*
X133071Y13713D01*
X133687Y13458D01*
X134335Y13302D01*
X135000Y13250D01*
Y11500D01*
X124000D01*
Y39912D01*
X124263Y40073D01*
X124621Y40379D01*
X124927Y40737D01*
X125173Y41138D01*
X125353Y41573D01*
X125463Y42031D01*
X125500Y42500D01*
X125463Y42969D01*
X125353Y43427D01*
X125173Y43862D01*
X124927Y44263D01*
X124621Y44621D01*
X124263Y44927D01*
X123862Y45173D01*
X123427Y45353D01*
X122969Y45463D01*
X122500Y45500D01*
X122031Y45463D01*
X121573Y45353D01*
X121138Y45173D01*
X120737Y44927D01*
X120379Y44621D01*
X120073Y44263D01*
X119827Y43862D01*
X119647Y43427D01*
X119537Y42969D01*
X119500Y42500D01*
X119537Y42031D01*
X119647Y41573D01*
X119827Y41138D01*
X120073Y40737D01*
X120379Y40379D01*
X120737Y40073D01*
X121000Y39912D01*
Y11500D01*
X112500D01*
Y18042D01*
X116199Y18048D01*
X116352Y18085D01*
X116497Y18145D01*
X116631Y18227D01*
X116750Y18329D01*
X116852Y18448D01*
X116934Y18582D01*
X116994Y18727D01*
X117031Y18880D01*
X117043Y19036D01*
X117031Y24310D01*
X116994Y24463D01*
X116934Y24608D01*
X116852Y24742D01*
X116750Y24861D01*
X116631Y24963D01*
X116497Y25045D01*
X116352Y25105D01*
X116199Y25142D01*
X116043Y25154D01*
X112500Y25148D01*
Y29852D01*
G37*
G36*
X72500Y18042D02*X76199Y18048D01*
X76352Y18085D01*
X76497Y18145D01*
X76631Y18227D01*
X76750Y18329D01*
X76852Y18448D01*
X76934Y18582D01*
X76994Y18727D01*
X77031Y18880D01*
X77043Y19036D01*
X77038Y21000D01*
X77500D01*
X77735Y21018D01*
X77964Y21073D01*
X78181Y21163D01*
X78382Y21286D01*
X78561Y21439D01*
X78573Y21453D01*
X81047Y23927D01*
X81061Y23939D01*
X81214Y24118D01*
X81337Y24319D01*
X81427Y24536D01*
X81482Y24765D01*
X81500Y25000D01*
Y38500D01*
X109912D01*
X110073Y38237D01*
X110379Y37879D01*
X110737Y37573D01*
X111000Y37412D01*
Y36956D01*
X108801Y36952D01*
X108648Y36915D01*
X108503Y36855D01*
X108369Y36773D01*
X108250Y36671D01*
X108148Y36552D01*
X108066Y36418D01*
X108006Y36273D01*
X107969Y36120D01*
X107957Y35964D01*
X107969Y30690D01*
X108006Y30537D01*
X108066Y30392D01*
X108148Y30258D01*
X108250Y30139D01*
X108369Y30037D01*
X108503Y29955D01*
X108648Y29895D01*
X108801Y29858D01*
X108957Y29846D01*
X112500Y29852D01*
Y25148D01*
X108801Y25142D01*
X108648Y25105D01*
X108503Y25045D01*
X108369Y24963D01*
X108250Y24861D01*
X108148Y24742D01*
X108066Y24608D01*
X108006Y24463D01*
X107969Y24310D01*
X107957Y24154D01*
X107969Y18880D01*
X108006Y18727D01*
X108066Y18582D01*
X108148Y18448D01*
X108250Y18329D01*
X108369Y18227D01*
X108503Y18145D01*
X108648Y18085D01*
X108801Y18048D01*
X108957Y18036D01*
X112500Y18042D01*
Y11500D01*
X72500D01*
Y18042D01*
G37*
G36*
Y37000D02*X72969Y37037D01*
X73427Y37147D01*
X73862Y37327D01*
X74263Y37573D01*
X74621Y37879D01*
X74927Y38237D01*
X75088Y38500D01*
X78500D01*
Y25622D01*
X77031Y24153D01*
Y24310D01*
X76994Y24463D01*
X76934Y24608D01*
X76852Y24742D01*
X76750Y24861D01*
X76631Y24963D01*
X76497Y25045D01*
X76352Y25105D01*
X76199Y25142D01*
X76043Y25154D01*
X72500Y25148D01*
Y29852D01*
X76199Y29858D01*
X76352Y29895D01*
X76497Y29955D01*
X76631Y30037D01*
X76750Y30139D01*
X76852Y30258D01*
X76934Y30392D01*
X76994Y30537D01*
X77031Y30690D01*
X77043Y30846D01*
X77031Y36120D01*
X76994Y36273D01*
X76934Y36418D01*
X76852Y36552D01*
X76750Y36671D01*
X76631Y36773D01*
X76497Y36855D01*
X76352Y36915D01*
X76199Y36952D01*
X76043Y36964D01*
X72500Y36958D01*
Y37000D01*
G37*
G36*
X62500Y38500D02*X69912D01*
X70073Y38237D01*
X70379Y37879D01*
X70737Y37573D01*
X71138Y37327D01*
X71573Y37147D01*
X72031Y37037D01*
X72500Y37000D01*
Y36958D01*
X68801Y36952D01*
X68648Y36915D01*
X68503Y36855D01*
X68369Y36773D01*
X68250Y36671D01*
X68148Y36552D01*
X68066Y36418D01*
X68006Y36273D01*
X67969Y36120D01*
X67957Y35964D01*
X67969Y30690D01*
X68006Y30537D01*
X68066Y30392D01*
X68148Y30258D01*
X68250Y30139D01*
X68369Y30037D01*
X68503Y29955D01*
X68648Y29895D01*
X68801Y29858D01*
X68957Y29846D01*
X72500Y29852D01*
Y25148D01*
X68801Y25142D01*
X68648Y25105D01*
X68503Y25045D01*
X68369Y24963D01*
X68250Y24861D01*
X68148Y24742D01*
X68066Y24608D01*
X68006Y24463D01*
X67969Y24310D01*
X67957Y24154D01*
X67969Y18880D01*
X68006Y18727D01*
X68066Y18582D01*
X68148Y18448D01*
X68250Y18329D01*
X68369Y18227D01*
X68503Y18145D01*
X68648Y18085D01*
X68801Y18048D01*
X68957Y18036D01*
X72500Y18042D01*
Y11500D01*
X62500D01*
Y25856D01*
X62573Y25737D01*
X62879Y25379D01*
X63237Y25073D01*
X63638Y24827D01*
X64073Y24647D01*
X64531Y24537D01*
X65000Y24500D01*
X65469Y24537D01*
X65927Y24647D01*
X66362Y24827D01*
X66763Y25073D01*
X67121Y25379D01*
X67427Y25737D01*
X67673Y26138D01*
X67853Y26573D01*
X67963Y27031D01*
X68000Y27500D01*
X67963Y27969D01*
X67853Y28427D01*
X67673Y28862D01*
X67427Y29263D01*
X67121Y29621D01*
X66763Y29927D01*
X66362Y30173D01*
X65927Y30353D01*
X65469Y30463D01*
X65000Y30500D01*
X64531Y30463D01*
X64073Y30353D01*
X63638Y30173D01*
X63237Y29927D01*
X62879Y29621D01*
X62573Y29263D01*
X62500Y29144D01*
Y38500D01*
G37*
G36*
X155000Y77000D02*X155469Y77037D01*
X155927Y77147D01*
X156362Y77327D01*
X156763Y77573D01*
X157121Y77879D01*
X157427Y78237D01*
X157673Y78638D01*
X157853Y79073D01*
X157963Y79531D01*
X158000Y80000D01*
X157963Y80469D01*
X157853Y80927D01*
X157673Y81362D01*
X157427Y81763D01*
X157121Y82121D01*
X156763Y82427D01*
X156500Y82588D01*
Y83044D01*
X158699Y83048D01*
X158852Y83085D01*
X158997Y83145D01*
X159131Y83227D01*
X159250Y83329D01*
X159352Y83448D01*
X159434Y83582D01*
X159494Y83727D01*
X159531Y83880D01*
X159543Y84036D01*
X159539Y86000D01*
X187964D01*
X187969Y83880D01*
X188006Y83727D01*
X188066Y83582D01*
X188148Y83448D01*
X188250Y83329D01*
X188369Y83227D01*
X188503Y83145D01*
X188648Y83085D01*
X188801Y83048D01*
X188957Y83036D01*
X191000Y83039D01*
Y82588D01*
X190737Y82427D01*
X190379Y82121D01*
X190073Y81763D01*
X189827Y81362D01*
X189647Y80927D01*
X189537Y80469D01*
X189500Y80000D01*
X189537Y79531D01*
X189647Y79073D01*
X189827Y78638D01*
X190073Y78237D01*
X190379Y77879D01*
X190737Y77573D01*
X191138Y77327D01*
X191573Y77147D01*
X192031Y77037D01*
X192500Y77000D01*
Y60500D01*
X192031Y60463D01*
X191573Y60353D01*
X191138Y60173D01*
X190737Y59927D01*
X190379Y59621D01*
X190073Y59263D01*
X189827Y58862D01*
X189647Y58427D01*
X189537Y57969D01*
X189500Y57500D01*
X189537Y57031D01*
X189647Y56573D01*
X189827Y56138D01*
X190073Y55737D01*
X190379Y55379D01*
X190737Y55073D01*
X191138Y54827D01*
X191573Y54647D01*
X192031Y54537D01*
X192500Y54500D01*
Y41500D01*
X167588D01*
X167427Y41763D01*
X167121Y42121D01*
X166763Y42427D01*
X166362Y42673D01*
X165927Y42853D01*
X165469Y42963D01*
X165000Y43000D01*
X164531Y42963D01*
X164073Y42853D01*
X163638Y42673D01*
X163237Y42427D01*
X162879Y42121D01*
X162573Y41763D01*
X162412Y41500D01*
X160621D01*
X155000Y47121D01*
Y54500D01*
X155469Y54537D01*
X155927Y54647D01*
X156362Y54827D01*
X156763Y55073D01*
X157121Y55379D01*
X157427Y55737D01*
X157673Y56138D01*
X157853Y56573D01*
X157963Y57031D01*
X158000Y57500D01*
X157963Y57969D01*
X157853Y58427D01*
X157673Y58862D01*
X157427Y59263D01*
X157121Y59621D01*
X156763Y59927D01*
X156362Y60173D01*
X155927Y60353D01*
X155469Y60463D01*
X155000Y60500D01*
Y77000D01*
G37*
G36*
Y106000D02*X192500D01*
Y101958D01*
X188801Y101952D01*
X188648Y101915D01*
X188503Y101855D01*
X188369Y101773D01*
X188250Y101671D01*
X188148Y101552D01*
X188066Y101418D01*
X188006Y101273D01*
X187969Y101120D01*
X187957Y100964D01*
X187969Y95690D01*
X188006Y95537D01*
X188066Y95392D01*
X188148Y95258D01*
X188250Y95139D01*
X188369Y95037D01*
X188503Y94955D01*
X188648Y94895D01*
X188801Y94858D01*
X188957Y94846D01*
X192500Y94852D01*
Y90148D01*
X188801Y90142D01*
X188648Y90105D01*
X188503Y90045D01*
X188369Y89963D01*
X188250Y89861D01*
X188148Y89742D01*
X188066Y89608D01*
X188006Y89463D01*
X187969Y89310D01*
X187957Y89154D01*
Y89000D01*
X159532D01*
X159531Y89310D01*
X159494Y89463D01*
X159434Y89608D01*
X159352Y89742D01*
X159250Y89861D01*
X159131Y89963D01*
X158997Y90045D01*
X158852Y90105D01*
X158699Y90142D01*
X158543Y90154D01*
X155000Y90148D01*
Y94852D01*
X158699Y94858D01*
X158852Y94895D01*
X158997Y94955D01*
X159131Y95037D01*
X159250Y95139D01*
X159352Y95258D01*
X159434Y95392D01*
X159494Y95537D01*
X159531Y95690D01*
X159543Y95846D01*
X159531Y101120D01*
X159494Y101273D01*
X159434Y101418D01*
X159352Y101552D01*
X159250Y101671D01*
X159131Y101773D01*
X158997Y101855D01*
X158852Y101915D01*
X158699Y101952D01*
X158543Y101964D01*
X155000Y101958D01*
Y106000D01*
G37*
G36*
X73750Y68500D02*X132500D01*
X132735Y68518D01*
X132964Y68573D01*
X133181Y68663D01*
X133382Y68786D01*
X133561Y68939D01*
X133573Y68953D01*
X136047Y71427D01*
X136061Y71439D01*
X136214Y71618D01*
X136337Y71819D01*
X136427Y72036D01*
X136482Y72265D01*
X136500Y72500D01*
Y89380D01*
X153120Y106000D01*
X155000D01*
Y101958D01*
X151301Y101952D01*
X151148Y101915D01*
X151003Y101855D01*
X150869Y101773D01*
X150750Y101671D01*
X150648Y101552D01*
X150566Y101418D01*
X150506Y101273D01*
X150469Y101120D01*
X150457Y100964D01*
X150469Y95690D01*
X150506Y95537D01*
X150566Y95392D01*
X150648Y95258D01*
X150750Y95139D01*
X150869Y95037D01*
X151003Y94955D01*
X151148Y94895D01*
X151301Y94858D01*
X151457Y94846D01*
X155000Y94852D01*
Y90148D01*
X151301Y90142D01*
X151148Y90105D01*
X151003Y90045D01*
X150869Y89963D01*
X150750Y89861D01*
X150648Y89742D01*
X150566Y89608D01*
X150506Y89463D01*
X150469Y89310D01*
X150457Y89154D01*
X150469Y83880D01*
X150506Y83727D01*
X150566Y83582D01*
X150648Y83448D01*
X150750Y83329D01*
X150869Y83227D01*
X151003Y83145D01*
X151148Y83085D01*
X151301Y83048D01*
X151457Y83036D01*
X153500Y83039D01*
Y82588D01*
X153237Y82427D01*
X152879Y82121D01*
X152573Y81763D01*
X152327Y81362D01*
X152147Y80927D01*
X152037Y80469D01*
X152000Y80000D01*
X152037Y79531D01*
X152147Y79073D01*
X152327Y78638D01*
X152573Y78237D01*
X152879Y77879D01*
X153237Y77573D01*
X153638Y77327D01*
X154073Y77147D01*
X154531Y77037D01*
X155000Y77000D01*
Y60500D01*
X154531Y60463D01*
X154073Y60353D01*
X153638Y60173D01*
X153237Y59927D01*
X152879Y59621D01*
X152573Y59263D01*
X152327Y58862D01*
X152147Y58427D01*
X152037Y57969D01*
X152000Y57500D01*
X152037Y57031D01*
X152147Y56573D01*
X152327Y56138D01*
X152573Y55737D01*
X152879Y55379D01*
X153237Y55073D01*
X153638Y54827D01*
X154073Y54647D01*
X154531Y54537D01*
X155000Y54500D01*
Y47121D01*
X153567Y48554D01*
X153561Y48561D01*
X153382Y48714D01*
X153181Y48837D01*
X152964Y48927D01*
X152735Y48982D01*
X152518Y48999D01*
X152501Y49000D01*
X120000D01*
X119765Y48982D01*
X119536Y48927D01*
X119319Y48837D01*
X119118Y48714D01*
X118939Y48561D01*
X113269Y42891D01*
X112969Y42963D01*
X112500Y43000D01*
X112031Y42963D01*
X111573Y42853D01*
X111138Y42673D01*
X110737Y42427D01*
X110379Y42121D01*
X110073Y41763D01*
X109912Y41500D01*
X75088D01*
X74927Y41763D01*
X74621Y42121D01*
X74263Y42427D01*
X73862Y42673D01*
X73750Y42719D01*
Y58500D01*
X76879D01*
X78500Y56879D01*
Y50088D01*
X78237Y49927D01*
X77879Y49621D01*
X77573Y49263D01*
X77327Y48862D01*
X77147Y48427D01*
X77037Y47969D01*
X77000Y47500D01*
X77037Y47031D01*
X77147Y46573D01*
X77327Y46138D01*
X77573Y45737D01*
X77879Y45379D01*
X78237Y45073D01*
X78638Y44827D01*
X79073Y44647D01*
X79531Y44537D01*
X80000Y44500D01*
X80469Y44537D01*
X80927Y44647D01*
X81362Y44827D01*
X81763Y45073D01*
X82121Y45379D01*
X82427Y45737D01*
X82673Y46138D01*
X82853Y46573D01*
X82963Y47031D01*
X83000Y47500D01*
X82963Y47969D01*
X82853Y48427D01*
X82673Y48862D01*
X82427Y49263D01*
X82121Y49621D01*
X81763Y49927D01*
X81500Y50088D01*
Y57501D01*
X81499Y57518D01*
X81482Y57735D01*
X81427Y57964D01*
X81337Y58181D01*
X81214Y58382D01*
X81061Y58561D01*
X81054Y58567D01*
X78567Y61054D01*
X78561Y61061D01*
X78382Y61214D01*
X78181Y61337D01*
X77964Y61427D01*
X77735Y61482D01*
X77518Y61499D01*
X77501Y61500D01*
X73750D01*
Y68500D01*
G37*
G36*
X62500D02*X73750D01*
Y61500D01*
X70621D01*
X70391Y61730D01*
X70463Y62031D01*
X70500Y62500D01*
X70463Y62969D01*
X70353Y63427D01*
X70173Y63862D01*
X69927Y64263D01*
X69621Y64621D01*
X69263Y64927D01*
X68862Y65173D01*
X68427Y65353D01*
X67969Y65463D01*
X67500Y65500D01*
X67031Y65463D01*
X66573Y65353D01*
X66138Y65173D01*
X65737Y64927D01*
X65379Y64621D01*
X65073Y64263D01*
X64827Y63862D01*
X64647Y63427D01*
X64537Y62969D01*
X64500Y62500D01*
X64537Y62031D01*
X64647Y61573D01*
X64827Y61138D01*
X65073Y60737D01*
X65379Y60379D01*
X65737Y60073D01*
X66138Y59827D01*
X66573Y59647D01*
X67031Y59537D01*
X67500Y59500D01*
X67969Y59537D01*
X68270Y59609D01*
X68933Y58946D01*
X68939Y58939D01*
X69118Y58786D01*
X69319Y58663D01*
X69536Y58573D01*
X69765Y58518D01*
X70000Y58500D01*
X73750D01*
Y42719D01*
X73427Y42853D01*
X72969Y42963D01*
X72500Y43000D01*
X72031Y42963D01*
X71573Y42853D01*
X71138Y42673D01*
X70737Y42427D01*
X70379Y42121D01*
X70073Y41763D01*
X69912Y41500D01*
X62500D01*
Y54500D01*
X62969Y54537D01*
X63427Y54647D01*
X63862Y54827D01*
X64263Y55073D01*
X64621Y55379D01*
X64927Y55737D01*
X65173Y56138D01*
X65353Y56573D01*
X65463Y57031D01*
X65500Y57500D01*
X65463Y57969D01*
X65353Y58427D01*
X65173Y58862D01*
X64927Y59263D01*
X64621Y59621D01*
X64263Y59927D01*
X63862Y60173D01*
X63427Y60353D01*
X62969Y60463D01*
X62500Y60500D01*
Y68500D01*
G37*
G36*
X140000Y115000D02*X192500D01*
Y109000D01*
X152500D01*
X152265Y108982D01*
X152036Y108927D01*
X151819Y108837D01*
X151618Y108714D01*
X151439Y108561D01*
X140000Y97122D01*
Y99500D01*
X140469Y99537D01*
X140927Y99647D01*
X141362Y99827D01*
X141763Y100073D01*
X142121Y100379D01*
X142427Y100737D01*
X142673Y101138D01*
X142853Y101573D01*
X142963Y102031D01*
X143000Y102500D01*
X142963Y102969D01*
X142853Y103427D01*
X142673Y103862D01*
X142427Y104263D01*
X142121Y104621D01*
X141763Y104927D01*
X141362Y105173D01*
X140927Y105353D01*
X140469Y105463D01*
X140000Y105500D01*
Y115000D01*
G37*
G36*
X122500D02*X140000D01*
Y105500D01*
X139531Y105463D01*
X139073Y105353D01*
X138638Y105173D01*
X138237Y104927D01*
X137879Y104621D01*
X137573Y104263D01*
X137327Y103862D01*
X137147Y103427D01*
X137037Y102969D01*
X137000Y102500D01*
X137037Y102031D01*
X137147Y101573D01*
X137327Y101138D01*
X137573Y100737D01*
X137879Y100379D01*
X138237Y100073D01*
X138638Y99827D01*
X139073Y99647D01*
X139531Y99537D01*
X140000Y99500D01*
Y97122D01*
X133939Y91061D01*
X133786Y90882D01*
X133663Y90681D01*
X133573Y90464D01*
X133518Y90235D01*
X133500Y90000D01*
Y73122D01*
X131878Y71500D01*
X122500D01*
Y99500D01*
X122969Y99537D01*
X123427Y99647D01*
X123862Y99827D01*
X124263Y100073D01*
X124621Y100379D01*
X124927Y100737D01*
X125173Y101138D01*
X125353Y101573D01*
X125463Y102031D01*
X125500Y102500D01*
X125463Y102969D01*
X125353Y103427D01*
X125173Y103862D01*
X124927Y104263D01*
X124621Y104621D01*
X124263Y104927D01*
X123862Y105173D01*
X123427Y105353D01*
X122969Y105463D01*
X122500Y105500D01*
Y115000D01*
G37*
G36*
X102500D02*X122500D01*
Y105500D01*
X122031Y105463D01*
X121573Y105353D01*
X121138Y105173D01*
X120737Y104927D01*
X120379Y104621D01*
X120073Y104263D01*
X119827Y103862D01*
X119647Y103427D01*
X119537Y102969D01*
X119500Y102500D01*
X119537Y102031D01*
X119647Y101573D01*
X119827Y101138D01*
X120073Y100737D01*
X120379Y100379D01*
X120737Y100073D01*
X121138Y99827D01*
X121573Y99647D01*
X122031Y99537D01*
X122500Y99500D01*
Y71500D01*
X102500D01*
Y77000D01*
X102969Y77037D01*
X103427Y77147D01*
X103862Y77327D01*
X104263Y77573D01*
X104621Y77879D01*
X104927Y78237D01*
X105173Y78638D01*
X105353Y79073D01*
X105463Y79531D01*
X105500Y80000D01*
X105463Y80469D01*
X105353Y80927D01*
X105173Y81362D01*
X104927Y81763D01*
X104621Y82121D01*
X104263Y82427D01*
X104000Y82588D01*
Y83044D01*
X106199Y83048D01*
X106352Y83085D01*
X106497Y83145D01*
X106631Y83227D01*
X106750Y83329D01*
X106852Y83448D01*
X106934Y83582D01*
X106994Y83727D01*
X107031Y83880D01*
X107043Y84036D01*
X107031Y89310D01*
X106994Y89463D01*
X106934Y89608D01*
X106852Y89742D01*
X106750Y89861D01*
X106631Y89963D01*
X106497Y90045D01*
X106352Y90105D01*
X106199Y90142D01*
X106043Y90154D01*
X102500Y90148D01*
Y94852D01*
X106199Y94858D01*
X106352Y94895D01*
X106497Y94955D01*
X106631Y95037D01*
X106750Y95139D01*
X106852Y95258D01*
X106934Y95392D01*
X106994Y95537D01*
X107031Y95690D01*
X107043Y95846D01*
X107031Y101120D01*
X106994Y101273D01*
X106934Y101418D01*
X106852Y101552D01*
X106750Y101671D01*
X106631Y101773D01*
X106497Y101855D01*
X106352Y101915D01*
X106199Y101952D01*
X106043Y101964D01*
X102500Y101958D01*
Y103250D01*
X103165Y103302D01*
X103813Y103458D01*
X104429Y103713D01*
X104998Y104062D01*
X105505Y104495D01*
X105938Y105002D01*
X106287Y105571D01*
X106542Y106187D01*
X106698Y106835D01*
X106750Y107500D01*
X106698Y108165D01*
X106542Y108813D01*
X106287Y109429D01*
X105938Y109998D01*
X105505Y110505D01*
X104998Y110938D01*
X104429Y111287D01*
X103813Y111542D01*
X103165Y111698D01*
X102500Y111750D01*
Y115000D01*
G37*
G36*
Y90148D02*X98801Y90142D01*
X98648Y90105D01*
X98503Y90045D01*
X98369Y89963D01*
X98250Y89861D01*
X98148Y89742D01*
X98066Y89608D01*
X98006Y89463D01*
X97969Y89310D01*
X97957Y89154D01*
Y89000D01*
X95000D01*
Y99500D01*
X95469Y99537D01*
X95927Y99647D01*
X96362Y99827D01*
X96763Y100073D01*
X97121Y100379D01*
X97427Y100737D01*
X97673Y101138D01*
X97853Y101573D01*
X97963Y102031D01*
X98000Y102500D01*
X97963Y102969D01*
X97853Y103427D01*
X97673Y103862D01*
X97427Y104263D01*
X97121Y104621D01*
X96763Y104927D01*
X96362Y105173D01*
X95927Y105353D01*
X95469Y105463D01*
X95000Y105500D01*
Y106000D01*
X98535D01*
X98713Y105571D01*
X99062Y105002D01*
X99495Y104495D01*
X100002Y104062D01*
X100571Y103713D01*
X101187Y103458D01*
X101835Y103302D01*
X102500Y103250D01*
Y101958D01*
X98801Y101952D01*
X98648Y101915D01*
X98503Y101855D01*
X98369Y101773D01*
X98250Y101671D01*
X98148Y101552D01*
X98066Y101418D01*
X98006Y101273D01*
X97969Y101120D01*
X97957Y100964D01*
X97969Y95690D01*
X98006Y95537D01*
X98066Y95392D01*
X98148Y95258D01*
X98250Y95139D01*
X98369Y95037D01*
X98503Y94955D01*
X98648Y94895D01*
X98801Y94858D01*
X98957Y94846D01*
X102500Y94852D01*
Y90148D01*
G37*
G36*
Y71500D02*X95000D01*
Y86000D01*
X97964D01*
X97969Y83880D01*
X98006Y83727D01*
X98066Y83582D01*
X98148Y83448D01*
X98250Y83329D01*
X98369Y83227D01*
X98503Y83145D01*
X98648Y83085D01*
X98801Y83048D01*
X98957Y83036D01*
X101000Y83039D01*
Y82588D01*
X100737Y82427D01*
X100379Y82121D01*
X100073Y81763D01*
X99827Y81362D01*
X99647Y80927D01*
X99537Y80469D01*
X99500Y80000D01*
X99537Y79531D01*
X99647Y79073D01*
X99827Y78638D01*
X100073Y78237D01*
X100379Y77879D01*
X100737Y77573D01*
X101138Y77327D01*
X101573Y77147D01*
X102031Y77037D01*
X102500Y77000D01*
Y71500D01*
G37*
G36*
X95000Y115000D02*X102500D01*
Y111750D01*
X101835Y111698D01*
X101187Y111542D01*
X100571Y111287D01*
X100002Y110938D01*
X99495Y110505D01*
X99062Y109998D01*
X98713Y109429D01*
X98535Y109000D01*
X95000D01*
Y115000D01*
G37*
G36*
Y89000D02*X67032D01*
X67031Y89310D01*
X66994Y89463D01*
X66934Y89608D01*
X66852Y89742D01*
X66750Y89861D01*
X66631Y89963D01*
X66497Y90045D01*
X66352Y90105D01*
X66199Y90142D01*
X66043Y90154D01*
X62500Y90148D01*
Y94852D01*
X66199Y94858D01*
X66352Y94895D01*
X66497Y94955D01*
X66631Y95037D01*
X66750Y95139D01*
X66852Y95258D01*
X66934Y95392D01*
X66994Y95537D01*
X67031Y95690D01*
X67043Y95846D01*
X67031Y101120D01*
X66994Y101273D01*
X66934Y101418D01*
X66852Y101552D01*
X66750Y101671D01*
X66631Y101773D01*
X66497Y101855D01*
X66352Y101915D01*
X66199Y101952D01*
X66043Y101964D01*
X62500Y101958D01*
Y106000D01*
X95000D01*
Y105500D01*
X94531Y105463D01*
X94073Y105353D01*
X93638Y105173D01*
X93237Y104927D01*
X92879Y104621D01*
X92573Y104263D01*
X92327Y103862D01*
X92147Y103427D01*
X92037Y102969D01*
X92000Y102500D01*
X92037Y102031D01*
X92147Y101573D01*
X92327Y101138D01*
X92573Y100737D01*
X92879Y100379D01*
X93237Y100073D01*
X93638Y99827D01*
X94073Y99647D01*
X94531Y99537D01*
X95000Y99500D01*
Y89000D01*
G37*
G36*
Y71500D02*X62500D01*
Y77000D01*
X62969Y77037D01*
X63427Y77147D01*
X63862Y77327D01*
X64263Y77573D01*
X64621Y77879D01*
X64927Y78237D01*
X65173Y78638D01*
X65353Y79073D01*
X65463Y79531D01*
X65500Y80000D01*
X65463Y80469D01*
X65353Y80927D01*
X65173Y81362D01*
X64927Y81763D01*
X64621Y82121D01*
X64263Y82427D01*
X64000Y82588D01*
Y83044D01*
X66199Y83048D01*
X66352Y83085D01*
X66497Y83145D01*
X66631Y83227D01*
X66750Y83329D01*
X66852Y83448D01*
X66934Y83582D01*
X66994Y83727D01*
X67031Y83880D01*
X67043Y84036D01*
X67039Y86000D01*
X95000D01*
Y71500D01*
G37*
G36*
X62500Y115000D02*X95000D01*
Y109000D01*
X62500D01*
Y115000D01*
G37*
G36*
X35000Y29852D02*X38699Y29858D01*
X38852Y29895D01*
X38997Y29955D01*
X39131Y30037D01*
X39250Y30139D01*
X39352Y30258D01*
X39434Y30392D01*
X39494Y30537D01*
X39531Y30690D01*
X39543Y30846D01*
X39531Y36120D01*
X39494Y36273D01*
X39434Y36418D01*
X39352Y36552D01*
X39250Y36671D01*
X39131Y36773D01*
X38997Y36855D01*
X38852Y36915D01*
X38699Y36952D01*
X38543Y36964D01*
X36500Y36961D01*
Y37412D01*
X36763Y37573D01*
X37121Y37879D01*
X37427Y38237D01*
X37588Y38500D01*
X62500D01*
Y29144D01*
X62412Y29000D01*
X47500D01*
X47265Y28982D01*
X47036Y28927D01*
X46819Y28837D01*
X46618Y28714D01*
X46439Y28561D01*
X43939Y26061D01*
X43786Y25882D01*
X43663Y25681D01*
X43573Y25464D01*
X43518Y25235D01*
X43500Y25000D01*
Y22588D01*
X43237Y22427D01*
X42879Y22121D01*
X42573Y21763D01*
X42327Y21362D01*
X42147Y20927D01*
X42037Y20469D01*
X42000Y20000D01*
X42037Y19531D01*
X42147Y19073D01*
X42327Y18638D01*
X42573Y18237D01*
X42879Y17879D01*
X43237Y17573D01*
X43500Y17412D01*
Y9235D01*
X42957Y9010D01*
X42355Y8641D01*
X41818Y8182D01*
X41359Y7645D01*
X40990Y7043D01*
X40720Y6391D01*
X40555Y5704D01*
X40500Y5000D01*
X40555Y4296D01*
X40720Y3609D01*
X40990Y2957D01*
X41359Y2355D01*
X41818Y1818D01*
X42355Y1359D01*
X42957Y990D01*
X43609Y720D01*
X44296Y555D01*
X45000Y500D01*
X45704Y555D01*
X46391Y720D01*
X47043Y990D01*
X47645Y1359D01*
X48182Y1818D01*
X48641Y2355D01*
X49010Y2957D01*
X49280Y3609D01*
X49445Y4296D01*
X49500Y5000D01*
X49445Y5704D01*
X49280Y6391D01*
X49010Y7043D01*
X48641Y7645D01*
X48182Y8182D01*
X47645Y8641D01*
X47043Y9010D01*
X46500Y9235D01*
Y17412D01*
X46763Y17573D01*
X47121Y17879D01*
X47427Y18237D01*
X47673Y18638D01*
X47853Y19073D01*
X47963Y19531D01*
X48000Y20000D01*
X47963Y20469D01*
X47853Y20927D01*
X47673Y21362D01*
X47427Y21763D01*
X47121Y22121D01*
X46763Y22427D01*
X46500Y22588D01*
Y24380D01*
X48120Y26000D01*
X62412D01*
X62500Y25856D01*
Y11500D01*
X60000D01*
X59765Y11482D01*
X59536Y11427D01*
X59319Y11337D01*
X59118Y11214D01*
X58939Y11061D01*
X56933Y9055D01*
X56391Y9280D01*
X55704Y9445D01*
X55000Y9500D01*
X54296Y9445D01*
X53609Y9280D01*
X52957Y9010D01*
X52355Y8641D01*
X51818Y8182D01*
X51359Y7645D01*
X50990Y7043D01*
X50720Y6391D01*
X50555Y5704D01*
X50500Y5000D01*
X50555Y4296D01*
X50720Y3609D01*
X50990Y2957D01*
X51359Y2355D01*
X51818Y1818D01*
X52355Y1359D01*
X52957Y990D01*
X53609Y720D01*
X54296Y555D01*
X55000Y500D01*
X55704Y555D01*
X56391Y720D01*
X57043Y990D01*
X57645Y1359D01*
X58182Y1818D01*
X58641Y2355D01*
X59010Y2957D01*
X59280Y3609D01*
X59445Y4296D01*
X59500Y5000D01*
X59445Y5704D01*
X59280Y6391D01*
X59055Y6935D01*
X60620Y8500D01*
X62190D01*
X61818Y8182D01*
X61359Y7645D01*
X60990Y7043D01*
X60720Y6391D01*
X60555Y5704D01*
X60500Y5000D01*
X60555Y4296D01*
X60720Y3609D01*
X60990Y2957D01*
X61359Y2355D01*
X61818Y1818D01*
X62355Y1359D01*
X62500Y1270D01*
Y0D01*
X35000D01*
Y500D01*
X35704Y555D01*
X36391Y720D01*
X37043Y990D01*
X37645Y1359D01*
X38182Y1818D01*
X38641Y2355D01*
X39010Y2957D01*
X39280Y3609D01*
X39445Y4296D01*
X39500Y5000D01*
X39445Y5704D01*
X39280Y6391D01*
X39010Y7043D01*
X38641Y7645D01*
X38182Y8182D01*
X37645Y8641D01*
X37043Y9010D01*
X36391Y9280D01*
X35704Y9445D01*
X35000Y9500D01*
Y18042D01*
X38699Y18048D01*
X38852Y18085D01*
X38997Y18145D01*
X39131Y18227D01*
X39250Y18329D01*
X39352Y18448D01*
X39434Y18582D01*
X39494Y18727D01*
X39531Y18880D01*
X39543Y19036D01*
X39531Y24310D01*
X39494Y24463D01*
X39434Y24608D01*
X39352Y24742D01*
X39250Y24861D01*
X39131Y24963D01*
X38997Y25045D01*
X38852Y25105D01*
X38699Y25142D01*
X38543Y25154D01*
X35000Y25148D01*
Y29852D01*
G37*
G36*
Y68500D02*X62500D01*
Y60500D01*
X62031Y60463D01*
X61573Y60353D01*
X61138Y60173D01*
X60737Y59927D01*
X60379Y59621D01*
X60073Y59263D01*
X59827Y58862D01*
X59647Y58427D01*
X59537Y57969D01*
X59500Y57500D01*
X59537Y57031D01*
X59647Y56573D01*
X59827Y56138D01*
X60073Y55737D01*
X60379Y55379D01*
X60737Y55073D01*
X61138Y54827D01*
X61573Y54647D01*
X62031Y54537D01*
X62500Y54500D01*
Y41500D01*
X37588D01*
X37427Y41763D01*
X37121Y42121D01*
X36763Y42427D01*
X36362Y42673D01*
X35927Y42853D01*
X35469Y42963D01*
X35000Y43000D01*
Y68500D01*
G37*
G36*
Y86000D02*X57964D01*
X57969Y83880D01*
X58006Y83727D01*
X58066Y83582D01*
X58148Y83448D01*
X58250Y83329D01*
X58369Y83227D01*
X58503Y83145D01*
X58648Y83085D01*
X58801Y83048D01*
X58957Y83036D01*
X61000Y83039D01*
Y82588D01*
X60737Y82427D01*
X60379Y82121D01*
X60073Y81763D01*
X59827Y81362D01*
X59647Y80927D01*
X59537Y80469D01*
X59500Y80000D01*
X59537Y79531D01*
X59647Y79073D01*
X59827Y78638D01*
X60073Y78237D01*
X60379Y77879D01*
X60737Y77573D01*
X61138Y77327D01*
X61573Y77147D01*
X62031Y77037D01*
X62500Y77000D01*
Y71500D01*
X35000D01*
Y86000D01*
G37*
G36*
Y106000D02*X62500D01*
Y101958D01*
X58801Y101952D01*
X58648Y101915D01*
X58503Y101855D01*
X58369Y101773D01*
X58250Y101671D01*
X58148Y101552D01*
X58066Y101418D01*
X58006Y101273D01*
X57969Y101120D01*
X57957Y100964D01*
X57969Y95690D01*
X58006Y95537D01*
X58066Y95392D01*
X58148Y95258D01*
X58250Y95139D01*
X58369Y95037D01*
X58503Y94955D01*
X58648Y94895D01*
X58801Y94858D01*
X58957Y94846D01*
X62500Y94852D01*
Y90148D01*
X58801Y90142D01*
X58648Y90105D01*
X58503Y90045D01*
X58369Y89963D01*
X58250Y89861D01*
X58148Y89742D01*
X58066Y89608D01*
X58006Y89463D01*
X57969Y89310D01*
X57957Y89154D01*
Y89000D01*
X35000D01*
Y106000D01*
G37*
G36*
Y115000D02*X62500D01*
Y109000D01*
X35000D01*
Y115000D01*
G37*
G36*
X25000Y500D02*X25704Y555D01*
X26391Y720D01*
X27043Y990D01*
X27645Y1359D01*
X28182Y1818D01*
X28641Y2355D01*
X29010Y2957D01*
X29280Y3609D01*
X29445Y4296D01*
X29500Y5000D01*
X29445Y5704D01*
X29280Y6391D01*
X29010Y7043D01*
X28641Y7645D01*
X28182Y8182D01*
X27645Y8641D01*
X27043Y9010D01*
X26500Y9235D01*
Y36880D01*
X28120Y38500D01*
X32412D01*
X32573Y38237D01*
X32879Y37879D01*
X33237Y37573D01*
X33500Y37412D01*
Y36956D01*
X31301Y36952D01*
X31148Y36915D01*
X31003Y36855D01*
X30869Y36773D01*
X30750Y36671D01*
X30648Y36552D01*
X30566Y36418D01*
X30506Y36273D01*
X30469Y36120D01*
X30457Y35964D01*
X30469Y30690D01*
X30506Y30537D01*
X30566Y30392D01*
X30648Y30258D01*
X30750Y30139D01*
X30869Y30037D01*
X31003Y29955D01*
X31148Y29895D01*
X31301Y29858D01*
X31457Y29846D01*
X35000Y29852D01*
Y25148D01*
X31301Y25142D01*
X31148Y25105D01*
X31003Y25045D01*
X30869Y24963D01*
X30750Y24861D01*
X30648Y24742D01*
X30566Y24608D01*
X30506Y24463D01*
X30469Y24310D01*
X30457Y24154D01*
X30469Y18880D01*
X30506Y18727D01*
X30566Y18582D01*
X30648Y18448D01*
X30750Y18329D01*
X30869Y18227D01*
X31003Y18145D01*
X31148Y18085D01*
X31301Y18048D01*
X31457Y18036D01*
X35000Y18042D01*
Y9500D01*
X34296Y9445D01*
X33609Y9280D01*
X32957Y9010D01*
X32355Y8641D01*
X31818Y8182D01*
X31359Y7645D01*
X30990Y7043D01*
X30720Y6391D01*
X30555Y5704D01*
X30500Y5000D01*
X30555Y4296D01*
X30720Y3609D01*
X30990Y2957D01*
X31359Y2355D01*
X31818Y1818D01*
X32355Y1359D01*
X32957Y990D01*
X33609Y720D01*
X34296Y555D01*
X35000Y500D01*
Y0D01*
X25000D01*
Y500D01*
G37*
G36*
Y68500D02*X35000D01*
Y43000D01*
X34531Y42963D01*
X34073Y42853D01*
X33638Y42673D01*
X33237Y42427D01*
X32879Y42121D01*
X32573Y41763D01*
X32412Y41500D01*
X27500D01*
X27265Y41482D01*
X27036Y41427D01*
X26819Y41337D01*
X26618Y41214D01*
X26439Y41061D01*
X25000Y39622D01*
Y54500D01*
X25469Y54537D01*
X25927Y54647D01*
X26362Y54827D01*
X26763Y55073D01*
X27121Y55379D01*
X27427Y55737D01*
X27673Y56138D01*
X27853Y56573D01*
X27963Y57031D01*
X28000Y57500D01*
X27963Y57969D01*
X27853Y58427D01*
X27673Y58862D01*
X27427Y59263D01*
X27121Y59621D01*
X26763Y59927D01*
X26362Y60173D01*
X25927Y60353D01*
X25469Y60463D01*
X25000Y60500D01*
Y68500D01*
G37*
G36*
Y77000D02*X25469Y77037D01*
X25927Y77147D01*
X26362Y77327D01*
X26763Y77573D01*
X27121Y77879D01*
X27427Y78237D01*
X27673Y78638D01*
X27853Y79073D01*
X27963Y79531D01*
X28000Y80000D01*
X27963Y80469D01*
X27853Y80927D01*
X27673Y81362D01*
X27427Y81763D01*
X27121Y82121D01*
X26763Y82427D01*
X26500Y82588D01*
Y83044D01*
X28699Y83048D01*
X28852Y83085D01*
X28997Y83145D01*
X29131Y83227D01*
X29250Y83329D01*
X29352Y83448D01*
X29434Y83582D01*
X29494Y83727D01*
X29531Y83880D01*
X29543Y84036D01*
X29539Y86000D01*
X35000D01*
Y71500D01*
X25000D01*
Y77000D01*
G37*
G36*
Y106000D02*X35000D01*
Y89000D01*
X29532D01*
X29531Y89310D01*
X29494Y89463D01*
X29434Y89608D01*
X29352Y89742D01*
X29250Y89861D01*
X29131Y89963D01*
X28997Y90045D01*
X28852Y90105D01*
X28699Y90142D01*
X28543Y90154D01*
X25000Y90148D01*
Y94852D01*
X28699Y94858D01*
X28852Y94895D01*
X28997Y94955D01*
X29131Y95037D01*
X29250Y95139D01*
X29352Y95258D01*
X29434Y95392D01*
X29494Y95537D01*
X29531Y95690D01*
X29543Y95846D01*
X29531Y101120D01*
X29494Y101273D01*
X29434Y101418D01*
X29352Y101552D01*
X29250Y101671D01*
X29131Y101773D01*
X28997Y101855D01*
X28852Y101915D01*
X28699Y101952D01*
X28543Y101964D01*
X25000Y101958D01*
Y106000D01*
G37*
G36*
X10000Y92880D02*X23120Y106000D01*
X25000D01*
Y101958D01*
X21301Y101952D01*
X21148Y101915D01*
X21003Y101855D01*
X20869Y101773D01*
X20750Y101671D01*
X20648Y101552D01*
X20566Y101418D01*
X20506Y101273D01*
X20469Y101120D01*
X20457Y100964D01*
X20469Y95690D01*
X20506Y95537D01*
X20566Y95392D01*
X20648Y95258D01*
X20750Y95139D01*
X20869Y95037D01*
X21003Y94955D01*
X21148Y94895D01*
X21301Y94858D01*
X21457Y94846D01*
X25000Y94852D01*
Y90148D01*
X21301Y90142D01*
X21148Y90105D01*
X21003Y90045D01*
X20869Y89963D01*
X20750Y89861D01*
X20648Y89742D01*
X20566Y89608D01*
X20506Y89463D01*
X20469Y89310D01*
X20457Y89154D01*
X20469Y83880D01*
X20506Y83727D01*
X20566Y83582D01*
X20648Y83448D01*
X20750Y83329D01*
X20869Y83227D01*
X21003Y83145D01*
X21148Y83085D01*
X21301Y83048D01*
X21457Y83036D01*
X23500Y83039D01*
Y82588D01*
X23237Y82427D01*
X22879Y82121D01*
X22573Y81763D01*
X22327Y81362D01*
X22147Y80927D01*
X22037Y80469D01*
X22000Y80000D01*
X22037Y79531D01*
X22147Y79073D01*
X22327Y78638D01*
X22573Y78237D01*
X22879Y77879D01*
X23237Y77573D01*
X23638Y77327D01*
X24073Y77147D01*
X24531Y77037D01*
X25000Y77000D01*
Y71500D01*
X17500D01*
X17265Y71482D01*
X17036Y71427D01*
X16819Y71337D01*
X16618Y71214D01*
X16439Y71061D01*
X13939Y68561D01*
X13786Y68382D01*
X13663Y68181D01*
X13573Y67964D01*
X13518Y67735D01*
X13500Y67500D01*
Y9235D01*
X12957Y9010D01*
X12355Y8641D01*
X11818Y8182D01*
X11359Y7645D01*
X10990Y7043D01*
X10720Y6391D01*
X10555Y5704D01*
X10500Y5000D01*
X10555Y4296D01*
X10720Y3609D01*
X10990Y2957D01*
X11359Y2355D01*
X11818Y1818D01*
X12355Y1359D01*
X12957Y990D01*
X13609Y720D01*
X14296Y555D01*
X15000Y500D01*
X15704Y555D01*
X16391Y720D01*
X17043Y990D01*
X17645Y1359D01*
X18182Y1818D01*
X18641Y2355D01*
X19010Y2957D01*
X19280Y3609D01*
X19445Y4296D01*
X19500Y5000D01*
X19445Y5704D01*
X19280Y6391D01*
X19010Y7043D01*
X18641Y7645D01*
X18182Y8182D01*
X17645Y8641D01*
X17043Y9010D01*
X16500Y9235D01*
Y66880D01*
X18120Y68500D01*
X25000D01*
Y60500D01*
X24531Y60463D01*
X24073Y60353D01*
X23638Y60173D01*
X23237Y59927D01*
X22879Y59621D01*
X22573Y59263D01*
X22327Y58862D01*
X22147Y58427D01*
X22037Y57969D01*
X22000Y57500D01*
X22037Y57031D01*
X22147Y56573D01*
X22327Y56138D01*
X22573Y55737D01*
X22879Y55379D01*
X23237Y55073D01*
X23638Y54827D01*
X24073Y54647D01*
X24531Y54537D01*
X25000Y54500D01*
Y39622D01*
X23939Y38561D01*
X23786Y38382D01*
X23663Y38181D01*
X23573Y37964D01*
X23518Y37735D01*
X23500Y37500D01*
Y9235D01*
X22957Y9010D01*
X22355Y8641D01*
X21818Y8182D01*
X21359Y7645D01*
X20990Y7043D01*
X20720Y6391D01*
X20555Y5704D01*
X20500Y5000D01*
X20555Y4296D01*
X20720Y3609D01*
X20990Y2957D01*
X21359Y2355D01*
X21818Y1818D01*
X22355Y1359D01*
X22957Y990D01*
X23609Y720D01*
X24296Y555D01*
X25000Y500D01*
Y0D01*
X10000D01*
Y92880D01*
G37*
G36*
Y115000D02*X35000D01*
Y109000D01*
X22500D01*
X22265Y108982D01*
X22036Y108927D01*
X21819Y108837D01*
X21618Y108714D01*
X21439Y108561D01*
X10000Y97122D01*
Y99500D01*
X10469Y99537D01*
X10927Y99647D01*
X11362Y99827D01*
X11763Y100073D01*
X12121Y100379D01*
X12427Y100737D01*
X12673Y101138D01*
X12853Y101573D01*
X12963Y102031D01*
X13000Y102500D01*
X12963Y102969D01*
X12853Y103427D01*
X12673Y103862D01*
X12427Y104263D01*
X12121Y104621D01*
X11763Y104927D01*
X11362Y105173D01*
X10927Y105353D01*
X10469Y105463D01*
X10000Y105500D01*
Y115000D01*
G37*
G36*
X0Y0D02*Y115000D01*
X10000D01*
Y105500D01*
X9531Y105463D01*
X9073Y105353D01*
X8638Y105173D01*
X8237Y104927D01*
X7879Y104621D01*
X7573Y104263D01*
X7327Y103862D01*
X7147Y103427D01*
X7037Y102969D01*
X7000Y102500D01*
X7037Y102031D01*
X7147Y101573D01*
X7327Y101138D01*
X7573Y100737D01*
X7879Y100379D01*
X8237Y100073D01*
X8638Y99827D01*
X9073Y99647D01*
X9531Y99537D01*
X10000Y99500D01*
Y97122D01*
X3939Y91061D01*
X3786Y90882D01*
X3663Y90681D01*
X3573Y90464D01*
X3518Y90235D01*
X3500Y90000D01*
Y9487D01*
X1765Y9482D01*
X1536Y9427D01*
X1319Y9337D01*
X1118Y9214D01*
X939Y9061D01*
X786Y8882D01*
X663Y8681D01*
X573Y8464D01*
X518Y8235D01*
X500Y8000D01*
X518Y1765D01*
X573Y1536D01*
X663Y1319D01*
X786Y1118D01*
X939Y939D01*
X1118Y786D01*
X1319Y663D01*
X1536Y573D01*
X1765Y518D01*
X2000Y500D01*
X8235Y518D01*
X8464Y573D01*
X8681Y663D01*
X8882Y786D01*
X9061Y939D01*
X9214Y1118D01*
X9337Y1319D01*
X9427Y1536D01*
X9482Y1765D01*
X9500Y2000D01*
X9482Y8235D01*
X9427Y8464D01*
X9337Y8681D01*
X9214Y8882D01*
X9061Y9061D01*
X8882Y9214D01*
X8681Y9337D01*
X8464Y9427D01*
X8235Y9482D01*
X8000Y9500D01*
X6500Y9496D01*
Y89380D01*
X10000Y92880D01*
Y0D01*
X0D01*
G37*
G54D11*X112500Y40000D02*Y32500D01*
X27500Y40000D02*X112500D01*
X242500D02*Y32500D01*
X160000Y40000D02*X242500D01*
X165000Y32500D02*Y40000D01*
X152500Y47500D02*X160000Y40000D01*
X120000Y47500D02*X152500D01*
X210000Y57500D02*X207500Y60000D01*
X200000D01*
X197500Y62500D01*
X25000Y92500D02*Y102500D01*
Y80000D02*Y87500D01*
X102500Y92500D02*Y102500D01*
X62500Y80000D02*Y87500D01*
X102500Y80000D02*Y87500D01*
X25000D02*X102500D01*
X62500Y92500D02*Y102500D01*
X5000Y90000D02*X22500Y107500D01*
X35000Y32500D02*Y40000D01*
X60000Y10000D02*X55000Y5000D01*
X25000D02*Y37500D01*
X35000Y27500D02*Y17500D01*
X55000Y5000D03*
X45000D02*Y25000D01*
X25000Y37500D02*X27500Y40000D01*
X5000Y5000D02*Y90000D01*
X17500Y70000D02*X15000Y67500D01*
Y5000D01*
X187500Y10000D02*X250000D01*
X252500Y12500D02*X250000Y10000D01*
X252500Y42500D02*Y12500D01*
X202500Y27500D02*Y32500D01*
X242500Y17500D02*Y27500D01*
X210000Y40000D02*Y25000D01*
X207500Y22500D01*
X202500D01*
X210000Y47500D02*Y57500D01*
X22500Y107500D02*X102500D01*
X152500D02*X232500D01*
X155000Y92500D02*Y102500D01*
X135000Y72500D02*Y90000D01*
X152500Y107500D01*
X155000Y80000D02*Y87500D01*
X232500Y92500D02*Y102500D01*
Y80000D02*Y87500D01*
X192500Y80000D02*Y87500D01*
X155000D02*X232500D01*
X192500Y92500D02*Y102500D01*
X135000Y72500D02*X132500Y70000D01*
X17500D01*
X80000Y40000D02*Y25000D01*
X122500Y42500D02*Y10000D01*
X120000Y47500D02*X112500Y40000D01*
Y17500D02*Y27500D01*
X80000Y25000D02*X77500Y22500D01*
X72500D01*
Y27500D02*Y32500D01*
X65000Y27500D02*X47500D01*
X45000Y25000D01*
X80000Y47500D02*Y57500D01*
X77500Y60000D01*
X70000D01*
X67500Y62500D01*
X60000Y10000D02*X187500D01*
X175000Y27500D02*X130000D01*
X160000Y22500D02*X170000D01*
G54D13*G36*
X2000Y8000D02*Y2000D01*
X8000D01*
Y8000D01*
X2000D01*
G37*
G54D14*X15000Y5000D03*
X25000D03*
X35000D03*
X45000D03*
X55000D03*
G54D15*X232500Y107500D03*
G54D14*X65000Y5000D03*
X75000D03*
G54D15*X135000Y17500D03*
X102500Y107500D03*
G54D16*X112500Y40000D03*
X202500D03*
X165000D03*
X242500D03*
X252500Y42500D03*
X122500D03*
Y102500D03*
X102500Y80000D03*
X95000Y102500D03*
X155000Y57500D03*
Y80000D03*
X140000Y102500D03*
X130000Y27500D03*
X175000D03*
X62500Y57500D03*
X65000Y27500D03*
X72500Y40000D03*
X80000Y47500D03*
X67500Y62500D03*
X25000Y57500D03*
X62500Y80000D03*
X25000D03*
X10000Y102500D03*
X35000Y40000D03*
X45000Y20000D03*
X192500Y57500D03*
Y80000D03*
X210000Y47500D03*
X197500Y62500D03*
X232500Y80000D03*
X252500Y87500D03*
X225000Y102500D03*
G54D18*X111516Y33405D02*X113484D01*
X71516Y21595D02*X73484D01*
X111516D02*X113484D01*
X164016Y33405D02*X165984D01*
X164016Y21595D02*X165984D01*
X34016Y33405D02*X35984D01*
X71516D02*X73484D01*
X34016Y21595D02*X35984D01*
X101516Y98405D02*X103484D01*
X101516Y86595D02*X103484D01*
X61516Y98405D02*X63484D01*
X61516Y86595D02*X63484D01*
X24016Y98405D02*X25984D01*
X24016Y86595D02*X25984D01*
X191516Y98405D02*X193484D01*
X154016D02*X155984D01*
X154016Y86595D02*X155984D01*
X191516D02*X193484D01*
X231516Y98405D02*X233484D01*
X231516Y86595D02*X233484D01*
X201516Y33405D02*X203484D01*
X201516Y21595D02*X203484D01*
X241516D02*X243484D01*
X241516Y33405D02*X243484D01*
G54D22*G54D23*G54D22*G54D23*G54D13*M02*
