G04 start of page 7 for group -4062 idx -4062 *
G04 Title: 26.006.00.01.01, soldermask *
G04 Creator: pcb 20100929 *
G04 CreationDate: Thu Jul 13 21:21:48 2017 UTC *
G04 For: bert *
G04 Format: Gerber/RS-274X *
G04 PCB-Dimensions: 620000 162000 *
G04 PCB-Coordinate-Origin: lower left *
%MOIN*%
%FSLAX25Y25*%
%LNBACKMASK*%
%ADD11C,0.0200*%
%ADD16C,0.0540*%
%ADD22C,0.0780*%
%ADD23C,0.0560*%
%ADD24C,0.0660*%
G54D22*X10315Y127158D03*
X49685D03*
X30000Y137000D03*
G54D23*X195000D03*
G54D24*X160000Y142000D03*
X70236D03*
X99764D03*
X120000D03*
G54D11*G36*
X11700Y10300D02*Y3700D01*
X18300D01*
Y10300D01*
X11700D01*
G37*
G54D24*X25000Y7000D03*
X35000D03*
X45000D03*
X55000D03*
X65000D03*
X75000D03*
X85000D03*
X180000Y37000D03*
X220000D03*
X170000Y17000D03*
X152500Y24500D03*
X100000Y77000D03*
X110000D03*
X120000D03*
X40000Y72000D03*
X57500D03*
X75000Y77236D03*
X130000Y77000D03*
Y107000D03*
X120000D03*
X110000D03*
X100000D03*
X40000Y112000D03*
X57500D03*
X75000Y106764D03*
X145000Y72000D03*
G54D23*X130000Y47000D03*
Y67000D03*
G54D24*X145000Y112000D03*
G54D23*X130000Y117000D03*
X110000D03*
G54D24*X35000Y54500D03*
X75000D03*
X185000Y77000D03*
X195000D03*
X205000D03*
X215000D03*
Y107000D03*
X205000D03*
G54D23*X195000Y117000D03*
G54D24*X205000D03*
X220000Y57000D03*
X195000Y107000D03*
X185000D03*
X170000Y112000D03*
X160000D03*
X170000Y57000D03*
Y72000D03*
X180000Y57000D03*
X160000Y72000D03*
X152500Y64500D03*
G54D23*X600000Y47000D03*
Y67000D03*
G54D24*Y77000D03*
G54D23*Y117000D03*
G54D22*X597185Y127158D03*
G54D24*X570000Y77000D03*
X580000D03*
X590000D03*
X557500Y72000D03*
X600000Y107000D03*
X590000D03*
X580000D03*
X570000D03*
G54D11*G36*
X568363Y59700D02*Y54300D01*
X573763D01*
Y59700D01*
X568363D01*
G37*
G54D16*X578937Y57000D03*
G54D24*X550000Y117000D03*
X557500Y112000D03*
G54D23*X580000Y117000D03*
G54D22*X557815Y127158D03*
X577500Y137000D03*
G54D24*X490000Y77000D03*
X500000D03*
X510000D03*
X520000D03*
X450000Y72000D03*
X525000Y37000D03*
Y57000D03*
G54D23*X500000Y137000D03*
Y117000D03*
G54D24*X510000D03*
G54D23*X535000Y57000D03*
Y77000D03*
G54D24*X485000Y37000D03*
X475000Y17000D03*
X457500Y24500D03*
X465000Y142000D03*
Y112000D03*
Y72000D03*
X450000Y112000D03*
X425000Y142000D03*
X475000Y57000D03*
Y72000D03*
X485000Y57000D03*
X457500Y64500D03*
G54D23*X435000Y47000D03*
G54D24*X405000Y77000D03*
X415000D03*
X425000D03*
X435000D03*
Y107000D03*
X425000D03*
X415000D03*
G54D23*X435000Y67000D03*
G54D24*X405000Y107000D03*
X380000Y106764D03*
Y77236D03*
Y54500D03*
X520000Y107000D03*
X510000D03*
X500000D03*
X490000D03*
G54D22*X315315Y127158D03*
X335000Y137000D03*
X354685Y127158D03*
G54D24*X475000Y112000D03*
G54D23*X435000Y117000D03*
X415000D03*
G54D24*X375236Y142000D03*
X404764D03*
X345000Y72000D03*
X362500D03*
X340000Y54500D03*
X345000Y112000D03*
X362500D03*
X275000Y77000D03*
X285000D03*
X295000D03*
Y107000D03*
G54D22*X292185Y127158D03*
G54D23*X295000Y117000D03*
Y47000D03*
Y67000D03*
G54D24*X285000Y107000D03*
X275000D03*
X265000D03*
X245000Y117000D03*
X252500Y112000D03*
G54D23*X275000Y117000D03*
G54D24*X265000Y77000D03*
G54D11*G36*
X263363Y59700D02*Y54300D01*
X268763D01*
Y59700D01*
X263363D01*
G37*
G54D16*X273937Y57000D03*
G54D24*X252500Y72000D03*
G54D23*X230000Y57000D03*
Y77000D03*
G54D22*X252815Y127158D03*
X272500Y137000D03*
M02*
