G04 start of page 6 for group -4062 idx -4062 *
G04 Title: 26.006.00.01.01.pcb, soldermask *
G04 Creator: pcb 20100929 *
G04 CreationDate: Wed Mar 18 07:56:07 2015 UTC *
G04 For: bert *
G04 Format: Gerber/RS-274X *
G04 PCB-Dimensions: 620000 170000 *
G04 PCB-Coordinate-Origin: lower left *
%MOIN*%
%FSLAX25Y25*%
%LNBACKMASK*%
%ADD11C,0.0200*%
%ADD16C,0.0540*%
%ADD24C,0.0660*%
%ADD25C,0.0780*%
%ADD26C,0.0560*%
G54D24*X15000Y15000D03*
X25000D03*
X35000D03*
X45000D03*
X40000Y80000D03*
X55000Y15000D03*
X65000D03*
X57500Y80000D03*
X35000Y62500D03*
G54D25*X10315Y135158D03*
G54D24*X40000Y120000D03*
X57500D03*
G54D25*X30000Y145000D03*
G54D24*X70236Y150000D03*
X99764D03*
X160000D03*
X120000D03*
X130000Y115000D03*
X120000D03*
X110000D03*
X100000D03*
X75000Y114764D03*
X160000Y120000D03*
X145000D03*
G54D26*X130000Y125000D03*
X110000D03*
G54D24*X75000Y15000D03*
Y62500D03*
X85000Y15000D03*
X100000Y85000D03*
G54D26*X130000Y55000D03*
Y75000D03*
X600000Y55000D03*
Y75000D03*
G54D24*Y85000D03*
G54D26*Y125000D03*
G54D25*X597185Y135158D03*
G54D24*X570000Y85000D03*
X580000D03*
X590000D03*
X557500Y80000D03*
X600000Y115000D03*
X590000D03*
X580000D03*
X570000D03*
G54D11*G36*
X568363Y67700D02*Y62300D01*
X573763D01*
Y67700D01*
X568363D01*
G37*
G54D16*X578937Y65000D03*
G54D24*X550000Y125000D03*
X557500Y120000D03*
G54D26*X580000Y125000D03*
G54D25*X557815Y135158D03*
X577500Y145000D03*
G54D24*X405000Y85000D03*
X415000D03*
X425000D03*
X380000Y85236D03*
X435000Y85000D03*
Y115000D03*
X425000D03*
X415000D03*
G54D26*X435000Y55000D03*
Y75000D03*
G54D24*X405000Y115000D03*
X380000Y114764D03*
X450000Y80000D03*
Y120000D03*
X490000Y85000D03*
X500000D03*
X510000D03*
X520000D03*
G54D26*X500000Y145000D03*
Y125000D03*
G54D24*X485000Y45000D03*
Y65000D03*
X525000Y45000D03*
Y65000D03*
G54D26*X535000D03*
Y85000D03*
G54D24*X475000Y25000D03*
X457500Y32500D03*
X475000Y65000D03*
Y80000D03*
X465000D03*
X457500Y72500D03*
X475000Y120000D03*
X375236Y150000D03*
X404764D03*
X465000D03*
X425000D03*
G54D25*X335000Y145000D03*
G54D24*X520000Y115000D03*
X510000D03*
X500000D03*
X490000D03*
X510000Y125000D03*
X465000Y120000D03*
G54D26*X435000Y125000D03*
X415000D03*
G54D24*X345000Y80000D03*
X362500D03*
X340000Y62500D03*
X380000D03*
X345000Y120000D03*
X362500D03*
X265000Y85000D03*
X275000D03*
X285000D03*
X252500Y80000D03*
X295000Y85000D03*
G54D26*Y55000D03*
Y75000D03*
G54D11*G36*
X263363Y67700D02*Y62300D01*
X268763D01*
Y67700D01*
X263363D01*
G37*
G54D16*X273937Y65000D03*
G54D25*X49685Y135158D03*
X315315D03*
X354685D03*
X252815D03*
X292185D03*
G54D24*X295000Y115000D03*
X285000D03*
X275000D03*
X265000D03*
X215000D03*
X245000Y125000D03*
X252500Y120000D03*
G54D26*X295000Y125000D03*
X275000D03*
G54D24*X205000Y115000D03*
X195000D03*
G54D26*Y125000D03*
G54D24*X205000D03*
X185000Y115000D03*
G54D26*X195000Y145000D03*
G54D24*X170000Y120000D03*
G54D25*X272500Y145000D03*
G54D24*X110000Y85000D03*
X120000D03*
X130000D03*
X185000D03*
X195000D03*
X75000Y85236D03*
X205000Y85000D03*
X215000D03*
X220000Y65000D03*
X180000Y45000D03*
X220000D03*
X170000Y25000D03*
X152500Y32500D03*
X170000Y65000D03*
Y80000D03*
X180000Y65000D03*
X160000Y80000D03*
X145000D03*
X152500Y72500D03*
G54D26*X230000Y65000D03*
Y85000D03*
M02*
