G04 start of page 9 for group -3984 idx -3984 *
G04 Title: 26.002.00.01.01.pcb, fab *
G04 Creator: pcb 20100929 *
G04 CreationDate: Wed Mar 18 07:56:07 2015 UTC *
G04 For: bert *
G04 Format: Gerber/RS-274X *
G04 PCB-Dimensions: 196850 393701 *
G04 PCB-Coordinate-Origin: lower left *
%MOIN*%
%FSLAX25Y25*%
%LNFAB*%
%ADD14C,0.0080*%
%ADD16C,0.0100*%
%ADD17C,0.0060*%
G54D14*X15748Y344488D02*Y342888D01*
Y344488D02*X17134Y345288D01*
X15748Y344488D02*X14362Y345288D01*
X15748Y334646D02*Y333046D01*
Y334646D02*X17134Y335446D01*
X15748Y334646D02*X14362Y335446D01*
X15748Y324803D02*Y323203D01*
Y324803D02*X17134Y325603D01*
X15748Y324803D02*X14362Y325603D01*
X15748Y314961D02*Y313361D01*
Y314961D02*X17134Y315761D01*
X15748Y314961D02*X14362Y315761D01*
X15748Y305118D02*Y303518D01*
Y305118D02*X17134Y305918D01*
X15748Y305118D02*X14362Y305918D01*
X15748Y295276D02*Y293676D01*
Y295276D02*X17134Y296076D01*
X15748Y295276D02*X14362Y296076D01*
X15748Y285433D02*Y283833D01*
Y285433D02*X17134Y286233D01*
X15748Y285433D02*X14362Y286233D01*
X15748Y275591D02*Y273991D01*
Y275591D02*X17134Y276391D01*
X15748Y275591D02*X14362Y276391D01*
X15748Y265748D02*Y264148D01*
Y265748D02*X17134Y266548D01*
X15748Y265748D02*X14362Y266548D01*
X15748Y255906D02*Y254306D01*
Y255906D02*X17134Y256706D01*
X15748Y255906D02*X14362Y256706D01*
X15748Y246063D02*Y244463D01*
Y246063D02*X17134Y246863D01*
X15748Y246063D02*X14362Y246863D01*
X15748Y236221D02*Y234621D01*
Y236221D02*X17134Y237021D01*
X15748Y236221D02*X14362Y237021D01*
X15748Y226378D02*Y224778D01*
Y226378D02*X17134Y227178D01*
X15748Y226378D02*X14362Y227178D01*
X15748Y216536D02*Y214936D01*
Y216536D02*X17134Y217336D01*
X15748Y216536D02*X14362Y217336D01*
X15748Y206693D02*Y205093D01*
Y206693D02*X17134Y207493D01*
X15748Y206693D02*X14362Y207493D01*
X15748Y196851D02*Y195251D01*
Y196851D02*X17134Y197651D01*
X15748Y196851D02*X14362Y197651D01*
X15748Y187008D02*Y185408D01*
Y187008D02*X17134Y187808D01*
X15748Y187008D02*X14362Y187808D01*
X15748Y177166D02*Y175566D01*
Y177166D02*X17134Y177966D01*
X15748Y177166D02*X14362Y177966D01*
X15748Y167323D02*Y165723D01*
Y167323D02*X17134Y168123D01*
X15748Y167323D02*X14362Y168123D01*
X15748Y157481D02*Y155881D01*
Y157481D02*X17134Y158281D01*
X15748Y157481D02*X14362Y158281D01*
X15748Y147638D02*Y146038D01*
Y147638D02*X17134Y148438D01*
X15748Y147638D02*X14362Y148438D01*
X15748Y137795D02*Y136195D01*
Y137795D02*X17134Y138595D01*
X15748Y137795D02*X14362Y138595D01*
X15748Y127953D02*Y126353D01*
Y127953D02*X17134Y128753D01*
X15748Y127953D02*X14362Y128753D01*
X15748Y118110D02*Y116510D01*
Y118110D02*X17134Y118910D01*
X15748Y118110D02*X14362Y118910D01*
X15748Y108268D02*Y106668D01*
Y108268D02*X17134Y109068D01*
X15748Y108268D02*X14362Y109068D01*
X15748Y98425D02*Y96825D01*
Y98425D02*X17134Y99225D01*
X15748Y98425D02*X14362Y99225D01*
X15748Y88583D02*Y86983D01*
Y88583D02*X17134Y89383D01*
X15748Y88583D02*X14362Y89383D01*
X15748Y78740D02*Y77140D01*
Y78740D02*X17134Y79540D01*
X15748Y78740D02*X14362Y79540D01*
X15748Y68898D02*Y67298D01*
Y68898D02*X17134Y69698D01*
X15748Y68898D02*X14362Y69698D01*
X15748Y59055D02*Y57455D01*
Y59055D02*X17134Y59855D01*
X15748Y59055D02*X14362Y59855D01*
X15748Y49213D02*Y47613D01*
Y49213D02*X17134Y50013D01*
X15748Y49213D02*X14362Y50013D01*
X15000Y449951D02*Y448351D01*
Y449951D02*X16386Y450751D01*
X15000Y449951D02*X13614Y450751D01*
G54D17*X135000Y453701D02*Y452951D01*
X136500Y451451D01*
X138000Y452951D01*
Y453701D02*Y452951D01*
X136500Y451451D02*Y447701D01*
X139801Y450701D02*X142051D01*
X139801Y447701D02*X142801D01*
X139801Y453701D02*Y447701D01*
Y453701D02*X142801D01*
X147603D02*X148353Y452951D01*
X145353Y453701D02*X147603D01*
X144603Y452951D02*X145353Y453701D01*
X144603Y452951D02*Y451451D01*
X145353Y450701D01*
X147603D01*
X148353Y449951D01*
Y448451D01*
X147603Y447701D02*X148353Y448451D01*
X145353Y447701D02*X147603D01*
X144603Y448451D02*X145353Y447701D01*
X135000Y444450D02*X150154D01*
X98000Y452951D02*X98750Y453701D01*
X100250D01*
X101000Y452951D01*
Y448451D01*
X100250Y447701D02*X101000Y448451D01*
X98750Y447701D02*X100250D01*
X98000Y448451D02*X98750Y447701D01*
Y450701D02*X101000D01*
X103551Y447701D02*X105051D01*
X104301Y453701D02*Y447701D01*
X102801Y452201D02*X104301Y453701D01*
X98000Y444450D02*X106853D01*
X45000Y448451D02*X45750Y447701D01*
X45000Y452951D02*Y448451D01*
Y452951D02*X45750Y453701D01*
X47250D01*
X48000Y452951D01*
Y448451D01*
X47250Y447701D02*X48000Y448451D01*
X45750Y447701D02*X47250D01*
X45000Y449201D02*X48000Y452201D01*
X49801Y447701D02*X50551D01*
X52353Y448451D02*X53103Y447701D01*
X52353Y452951D02*Y448451D01*
Y452951D02*X53103Y453701D01*
X54603D01*
X55353Y452951D01*
Y448451D01*
X54603Y447701D02*X55353Y448451D01*
X53103Y447701D02*X54603D01*
X52353Y449201D02*X55353Y452201D01*
X57154Y452951D02*X57904Y453701D01*
X59404D01*
X60154Y452951D01*
Y448451D01*
X59404Y447701D02*X60154Y448451D01*
X57904Y447701D02*X59404D01*
X57154Y448451D02*X57904Y447701D01*
Y450701D02*X60154D01*
X61956Y453701D02*X64956D01*
X61956D02*Y450701D01*
X62706Y451451D01*
X64206D01*
X64956Y450701D01*
Y448451D01*
X64206Y447701D02*X64956Y448451D01*
X62706Y447701D02*X64206D01*
X61956Y448451D02*X62706Y447701D01*
X45000Y444450D02*X66757D01*
X3000Y468701D02*X3750Y467951D01*
X750Y468701D02*X3000D01*
X0Y467951D02*X750Y468701D01*
X0Y467951D02*Y466451D01*
X750Y465701D01*
X3000D01*
X3750Y464951D01*
Y463451D01*
X3000Y462701D02*X3750Y463451D01*
X750Y462701D02*X3000D01*
X0Y463451D02*X750Y462701D01*
X5551Y465701D02*Y463451D01*
X6301Y462701D01*
X8551Y465701D02*Y461201D01*
X7801Y460451D02*X8551Y461201D01*
X6301Y460451D02*X7801D01*
X5551Y461201D02*X6301Y460451D01*
Y462701D02*X7801D01*
X8551Y463451D01*
X11103Y464951D02*Y462701D01*
Y464951D02*X11853Y465701D01*
X12603D01*
X13353Y464951D01*
Y462701D01*
Y464951D02*X14103Y465701D01*
X14853D01*
X15603Y464951D01*
Y462701D01*
X10353Y465701D02*X11103Y464951D01*
X17404Y468701D02*Y462701D01*
Y463451D02*X18154Y462701D01*
X19654D01*
X20404Y463451D01*
Y464951D02*Y463451D01*
X19654Y465701D02*X20404Y464951D01*
X18154Y465701D02*X19654D01*
X17404Y464951D02*X18154Y465701D01*
X22206Y464951D02*Y463451D01*
Y464951D02*X22956Y465701D01*
X24456D01*
X25206Y464951D01*
Y463451D01*
X24456Y462701D02*X25206Y463451D01*
X22956Y462701D02*X24456D01*
X22206Y463451D02*X22956Y462701D01*
X27007Y468701D02*Y463451D01*
X27757Y462701D01*
X41750Y468701D02*Y462701D01*
X44000Y468701D02*X44750Y467951D01*
Y463451D01*
X44000Y462701D02*X44750Y463451D01*
X41000Y462701D02*X44000D01*
X41000Y468701D02*X44000D01*
X46551Y467201D02*Y466451D01*
Y464951D02*Y462701D01*
X50303Y465701D02*X51053Y464951D01*
X48803Y465701D02*X50303D01*
X48053Y464951D02*X48803Y465701D01*
X48053Y464951D02*Y463451D01*
X48803Y462701D01*
X51053Y465701D02*Y463451D01*
X51803Y462701D01*
X48803D02*X50303D01*
X51053Y463451D01*
X54354Y464951D02*Y462701D01*
Y464951D02*X55104Y465701D01*
X55854D01*
X56604Y464951D01*
Y462701D01*
Y464951D02*X57354Y465701D01*
X58104D01*
X58854Y464951D01*
Y462701D01*
X53604Y465701D02*X54354Y464951D01*
X60656Y462701D02*X61406D01*
X65907Y463451D02*X66657Y462701D01*
X65907Y467951D02*X66657Y468701D01*
X65907Y467951D02*Y463451D01*
X68459Y468701D02*X69959D01*
X69209D02*Y462701D01*
X68459D02*X69959D01*
X72510Y464951D02*Y462701D01*
Y464951D02*X73260Y465701D01*
X74010D01*
X74760Y464951D01*
Y462701D01*
X71760Y465701D02*X72510Y464951D01*
X77312Y465701D02*X79562D01*
X76562Y464951D02*X77312Y465701D01*
X76562Y464951D02*Y463451D01*
X77312Y462701D01*
X79562D01*
X81363Y468701D02*Y462701D01*
Y464951D02*X82113Y465701D01*
X83613D01*
X84363Y464951D01*
Y462701D01*
X86165Y468701D02*X86915Y467951D01*
Y463451D01*
X86165Y462701D02*X86915Y463451D01*
X95750Y462701D02*X98000D01*
X95000Y463451D02*X95750Y462701D01*
X95000Y467951D02*Y463451D01*
Y467951D02*X95750Y468701D01*
X98000D01*
X99801Y464951D02*Y463451D01*
Y464951D02*X100551Y465701D01*
X102051D01*
X102801Y464951D01*
Y463451D01*
X102051Y462701D02*X102801Y463451D01*
X100551Y462701D02*X102051D01*
X99801Y463451D02*X100551Y462701D01*
X104603Y465701D02*Y463451D01*
X105353Y462701D01*
X106853D01*
X107603Y463451D01*
Y465701D02*Y463451D01*
X110154Y464951D02*Y462701D01*
Y464951D02*X110904Y465701D01*
X111654D01*
X112404Y464951D01*
Y462701D01*
X109404Y465701D02*X110154Y464951D01*
X114956Y468701D02*Y463451D01*
X115706Y462701D01*
X114206Y466451D02*X115706D01*
X130750Y468701D02*Y462701D01*
X130000Y468701D02*X133000D01*
X133750Y467951D01*
Y466451D01*
X133000Y465701D02*X133750Y466451D01*
X130750Y465701D02*X133000D01*
X135551Y468701D02*Y463451D01*
X136301Y462701D01*
X140053Y465701D02*X140803Y464951D01*
X138553Y465701D02*X140053D01*
X137803Y464951D02*X138553Y465701D01*
X137803Y464951D02*Y463451D01*
X138553Y462701D01*
X140803Y465701D02*Y463451D01*
X141553Y462701D01*
X138553D02*X140053D01*
X140803Y463451D01*
X144104Y468701D02*Y463451D01*
X144854Y462701D01*
X143354Y466451D02*X144854D01*
X147106Y462701D02*X149356D01*
X146356Y463451D02*X147106Y462701D01*
X146356Y464951D02*Y463451D01*
Y464951D02*X147106Y465701D01*
X148606D01*
X149356Y464951D01*
X146356Y464201D02*X149356D01*
Y464951D02*Y464201D01*
X154157Y468701D02*Y462701D01*
X153407D02*X154157Y463451D01*
X151907Y462701D02*X153407D01*
X151157Y463451D02*X151907Y462701D01*
X151157Y464951D02*Y463451D01*
Y464951D02*X151907Y465701D01*
X153407D01*
X154157Y464951D01*
X157459Y465701D02*Y464951D01*
Y463451D02*Y462701D01*
X155959Y467951D02*Y467201D01*
Y467951D02*X156709Y468701D01*
X158209D01*
X158959Y467951D01*
Y467201D01*
X157459Y465701D02*X158959Y467201D01*
X0Y483701D02*X3000D01*
X1500D02*Y477701D01*
X4801Y483701D02*Y477701D01*
Y479951D02*X5551Y480701D01*
X7051D01*
X7801Y479951D01*
Y477701D01*
X10353D02*X12603D01*
X9603Y478451D02*X10353Y477701D01*
X9603Y479951D02*Y478451D01*
Y479951D02*X10353Y480701D01*
X11853D01*
X12603Y479951D01*
X9603Y479201D02*X12603D01*
Y479951D02*Y479201D01*
X15154Y479951D02*Y477701D01*
Y479951D02*X15904Y480701D01*
X17404D01*
X14404D02*X15154Y479951D01*
X19956Y477701D02*X22206D01*
X19206Y478451D02*X19956Y477701D01*
X19206Y479951D02*Y478451D01*
Y479951D02*X19956Y480701D01*
X21456D01*
X22206Y479951D01*
X19206Y479201D02*X22206D01*
Y479951D02*Y479201D01*
X28957Y480701D02*X29707Y479951D01*
X27457Y480701D02*X28957D01*
X26707Y479951D02*X27457Y480701D01*
X26707Y479951D02*Y478451D01*
X27457Y477701D01*
X29707Y480701D02*Y478451D01*
X30457Y477701D01*
X27457D02*X28957D01*
X29707Y478451D01*
X33009Y479951D02*Y477701D01*
Y479951D02*X33759Y480701D01*
X35259D01*
X32259D02*X33009Y479951D01*
X37810Y477701D02*X40060D01*
X37060Y478451D02*X37810Y477701D01*
X37060Y479951D02*Y478451D01*
Y479951D02*X37810Y480701D01*
X39310D01*
X40060Y479951D01*
X37060Y479201D02*X40060D01*
Y479951D02*Y479201D01*
X45312Y477701D02*X46812D01*
X46062Y483701D02*Y477701D01*
X44562Y482201D02*X46062Y483701D01*
X54313D02*Y477701D01*
X53563D02*X54313Y478451D01*
X52063Y477701D02*X53563D01*
X51313Y478451D02*X52063Y477701D01*
X51313Y479951D02*Y478451D01*
Y479951D02*X52063Y480701D01*
X53563D01*
X54313Y479951D01*
X56115Y482201D02*Y481451D01*
Y479951D02*Y477701D01*
X58366Y482951D02*Y477701D01*
Y482951D02*X59116Y483701D01*
X59866D01*
X57616Y480701D02*X59116D01*
X62118Y482951D02*Y477701D01*
Y482951D02*X62868Y483701D01*
X63618D01*
X61368Y480701D02*X62868D01*
X65869Y477701D02*X68119D01*
X65119Y478451D02*X65869Y477701D01*
X65119Y479951D02*Y478451D01*
Y479951D02*X65869Y480701D01*
X67369D01*
X68119Y479951D01*
X65119Y479201D02*X68119D01*
Y479951D02*Y479201D01*
X70671Y479951D02*Y477701D01*
Y479951D02*X71421Y480701D01*
X72921D01*
X69921D02*X70671Y479951D01*
X75472Y477701D02*X77722D01*
X74722Y478451D02*X75472Y477701D01*
X74722Y479951D02*Y478451D01*
Y479951D02*X75472Y480701D01*
X76972D01*
X77722Y479951D01*
X74722Y479201D02*X77722D01*
Y479951D02*Y479201D01*
X80274Y479951D02*Y477701D01*
Y479951D02*X81024Y480701D01*
X81774D01*
X82524Y479951D01*
Y477701D01*
X79524Y480701D02*X80274Y479951D01*
X85075Y483701D02*Y478451D01*
X85825Y477701D01*
X84325Y481451D02*X85825D01*
X93027Y483701D02*Y477701D01*
X92277D02*X93027Y478451D01*
X90777Y477701D02*X92277D01*
X90027Y478451D02*X90777Y477701D01*
X90027Y479951D02*Y478451D01*
Y479951D02*X90777Y480701D01*
X92277D01*
X93027Y479951D01*
X95578D02*Y477701D01*
Y479951D02*X96328Y480701D01*
X97828D01*
X94828D02*X95578Y479951D01*
X99630Y482201D02*Y481451D01*
Y479951D02*Y477701D01*
X101131Y483701D02*Y478451D01*
X101881Y477701D01*
X103383Y483701D02*Y478451D01*
X104133Y477701D01*
X109084D02*X111334D01*
X112084Y478451D01*
X111334Y479201D02*X112084Y478451D01*
X109084Y479201D02*X111334D01*
X108334Y479951D02*X109084Y479201D01*
X108334Y479951D02*X109084Y480701D01*
X111334D01*
X112084Y479951D01*
X108334Y478451D02*X109084Y477701D01*
X113886Y482201D02*Y481451D01*
Y479951D02*Y477701D01*
X115387Y480701D02*X118387D01*
X115387Y477701D02*X118387Y480701D01*
X115387Y477701D02*X118387D01*
X120939D02*X123189D01*
X120189Y478451D02*X120939Y477701D01*
X120189Y479951D02*Y478451D01*
Y479951D02*X120939Y480701D01*
X122439D01*
X123189Y479951D01*
X120189Y479201D02*X123189D01*
Y479951D02*Y479201D01*
X125740Y477701D02*X127990D01*
X128740Y478451D01*
X127990Y479201D02*X128740Y478451D01*
X125740Y479201D02*X127990D01*
X124990Y479951D02*X125740Y479201D01*
X124990Y479951D02*X125740Y480701D01*
X127990D01*
X128740Y479951D01*
X124990Y478451D02*X125740Y477701D01*
X133242Y480701D02*Y478451D01*
X133992Y477701D01*
X135492D01*
X136242Y478451D01*
Y480701D02*Y478451D01*
X138793Y477701D02*X141043D01*
X141793Y478451D01*
X141043Y479201D02*X141793Y478451D01*
X138793Y479201D02*X141043D01*
X138043Y479951D02*X138793Y479201D01*
X138043Y479951D02*X138793Y480701D01*
X141043D01*
X141793Y479951D01*
X138043Y478451D02*X138793Y477701D01*
X144345D02*X146595D01*
X143595Y478451D02*X144345Y477701D01*
X143595Y479951D02*Y478451D01*
Y479951D02*X144345Y480701D01*
X145845D01*
X146595Y479951D01*
X143595Y479201D02*X146595D01*
Y479951D02*Y479201D01*
X151396Y483701D02*Y477701D01*
X150646D02*X151396Y478451D01*
X149146Y477701D02*X150646D01*
X148396Y478451D02*X149146Y477701D01*
X148396Y479951D02*Y478451D01*
Y479951D02*X149146Y480701D01*
X150646D01*
X151396Y479951D01*
X155898Y482201D02*Y481451D01*
Y479951D02*Y477701D01*
X158149Y479951D02*Y477701D01*
Y479951D02*X158899Y480701D01*
X159649D01*
X160399Y479951D01*
Y477701D01*
X157399Y480701D02*X158149Y479951D01*
X165651Y483701D02*Y478451D01*
X166401Y477701D01*
X164901Y481451D02*X166401D01*
X167902Y483701D02*Y477701D01*
Y479951D02*X168652Y480701D01*
X170152D01*
X170902Y479951D01*
Y477701D01*
X172704Y482201D02*Y481451D01*
Y479951D02*Y477701D01*
X174955D02*X177205D01*
X177955Y478451D01*
X177205Y479201D02*X177955Y478451D01*
X174955Y479201D02*X177205D01*
X174205Y479951D02*X174955Y479201D01*
X174205Y479951D02*X174955Y480701D01*
X177205D01*
X177955Y479951D01*
X174205Y478451D02*X174955Y477701D01*
X182457Y483701D02*Y478451D01*
X183207Y477701D01*
X186958Y480701D02*X187708Y479951D01*
X185458Y480701D02*X186958D01*
X184708Y479951D02*X185458Y480701D01*
X184708Y479951D02*Y478451D01*
X185458Y477701D01*
X187708Y480701D02*Y478451D01*
X188458Y477701D01*
X185458D02*X186958D01*
X187708Y478451D01*
X190260Y480701D02*Y478451D01*
X191010Y477701D01*
X193260Y480701D02*Y476201D01*
X192510Y475451D02*X193260Y476201D01*
X191010Y475451D02*X192510D01*
X190260Y476201D02*X191010Y475451D01*
Y477701D02*X192510D01*
X193260Y478451D01*
X195061Y479951D02*Y478451D01*
Y479951D02*X195811Y480701D01*
X197311D01*
X198061Y479951D01*
Y478451D01*
X197311Y477701D02*X198061Y478451D01*
X195811Y477701D02*X197311D01*
X195061Y478451D02*X195811Y477701D01*
X199863Y480701D02*Y478451D01*
X200613Y477701D01*
X202113D01*
X202863Y478451D01*
Y480701D02*Y478451D01*
X205414Y483701D02*Y478451D01*
X206164Y477701D01*
X204664Y481451D02*X206164D01*
X207666Y476201D02*X209166Y477701D01*
X213667Y482951D02*X214417Y483701D01*
X215917D01*
X216667Y482951D01*
Y478451D01*
X215917Y477701D02*X216667Y478451D01*
X214417Y477701D02*X215917D01*
X213667Y478451D02*X214417Y477701D01*
Y480701D02*X216667D01*
X219219Y477701D02*X220719D01*
X219969Y483701D02*Y477701D01*
X218469Y482201D02*X219969Y483701D01*
X225220D02*Y477701D01*
Y479951D02*X225970Y480701D01*
X227470D01*
X228220Y479951D01*
Y477701D01*
X230022Y479951D02*Y478451D01*
Y479951D02*X230772Y480701D01*
X232272D01*
X233022Y479951D01*
Y478451D01*
X232272Y477701D02*X233022Y478451D01*
X230772Y477701D02*X232272D01*
X230022Y478451D02*X230772Y477701D01*
X234823Y483701D02*Y478451D01*
X235573Y477701D01*
X237825D02*X240075D01*
X237075Y478451D02*X237825Y477701D01*
X237075Y479951D02*Y478451D01*
Y479951D02*X237825Y480701D01*
X239325D01*
X240075Y479951D01*
X237075Y479201D02*X240075D01*
Y479951D02*Y479201D01*
X242626Y477701D02*X244876D01*
X245626Y478451D01*
X244876Y479201D02*X245626Y478451D01*
X242626Y479201D02*X244876D01*
X241876Y479951D02*X242626Y479201D01*
X241876Y479951D02*X242626Y480701D01*
X244876D01*
X245626Y479951D01*
X241876Y478451D02*X242626Y477701D01*
X250878Y483701D02*Y478451D01*
X251628Y477701D01*
X250128Y481451D02*X251628D01*
X253129Y479951D02*Y478451D01*
Y479951D02*X253879Y480701D01*
X255379D01*
X256129Y479951D01*
Y478451D01*
X255379Y477701D02*X256129Y478451D01*
X253879Y477701D02*X255379D01*
X253129Y478451D02*X253879Y477701D01*
X258681Y483701D02*Y478451D01*
X259431Y477701D01*
X257931Y481451D02*X259431D01*
X263182Y480701D02*X263932Y479951D01*
X261682Y480701D02*X263182D01*
X260932Y479951D02*X261682Y480701D01*
X260932Y479951D02*Y478451D01*
X261682Y477701D01*
X263932Y480701D02*Y478451D01*
X264682Y477701D01*
X261682D02*X263182D01*
X263932Y478451D01*
X266484Y483701D02*Y478451D01*
X267234Y477701D01*
G54D16*X175197Y383858D02*Y9843D01*
Y9842D02*X9843D01*
Y383858D01*
X175197D01*
G54D17*X12073Y-8000D02*X15073D01*
X15823Y-7250D01*
Y-5750D02*Y-7250D01*
X15073Y-5000D02*X15823Y-5750D01*
X12823Y-5000D02*X15073D01*
X12823Y-2000D02*Y-8000D01*
X12073Y-2000D02*X15073D01*
X15823Y-2750D01*
Y-4250D01*
X15073Y-5000D02*X15823Y-4250D01*
X17624Y-5750D02*Y-7250D01*
Y-5750D02*X18374Y-5000D01*
X19874D01*
X20624Y-5750D01*
Y-7250D01*
X19874Y-8000D02*X20624Y-7250D01*
X18374Y-8000D02*X19874D01*
X17624Y-7250D02*X18374Y-8000D01*
X24676Y-5000D02*X25426Y-5750D01*
X23176Y-5000D02*X24676D01*
X22426Y-5750D02*X23176Y-5000D01*
X22426Y-5750D02*Y-7250D01*
X23176Y-8000D01*
X25426Y-5000D02*Y-7250D01*
X26176Y-8000D01*
X23176D02*X24676D01*
X25426Y-7250D01*
X28727Y-5750D02*Y-8000D01*
Y-5750D02*X29477Y-5000D01*
X30977D01*
X27977D02*X28727Y-5750D01*
X35779Y-2000D02*Y-8000D01*
X35029D02*X35779Y-7250D01*
X33529Y-8000D02*X35029D01*
X32779Y-7250D02*X33529Y-8000D01*
X32779Y-5750D02*Y-7250D01*
Y-5750D02*X33529Y-5000D01*
X35029D01*
X35779Y-5750D01*
X40280D02*Y-7250D01*
Y-5750D02*X41030Y-5000D01*
X42530D01*
X43280Y-5750D01*
Y-7250D01*
X42530Y-8000D02*X43280Y-7250D01*
X41030Y-8000D02*X42530D01*
X40280Y-7250D02*X41030Y-8000D01*
X45082Y-5000D02*Y-7250D01*
X45832Y-8000D01*
X47332D01*
X48082Y-7250D01*
Y-5000D02*Y-7250D01*
X50633Y-2000D02*Y-7250D01*
X51383Y-8000D01*
X49883Y-4250D02*X51383D01*
X52885Y-2000D02*Y-7250D01*
X53635Y-8000D01*
X55136Y-3500D02*Y-4250D01*
Y-5750D02*Y-8000D01*
X57388Y-5750D02*Y-8000D01*
Y-5750D02*X58138Y-5000D01*
X58888D01*
X59638Y-5750D01*
Y-8000D01*
X56638Y-5000D02*X57388Y-5750D01*
X62189Y-8000D02*X64439D01*
X61439Y-7250D02*X62189Y-8000D01*
X61439Y-5750D02*Y-7250D01*
Y-5750D02*X62189Y-5000D01*
X63689D01*
X64439Y-5750D01*
X61439Y-6500D02*X64439D01*
Y-5750D02*Y-6500D01*
X68941Y-3500D02*Y-4250D01*
Y-5750D02*Y-8000D01*
X71192D02*X73442D01*
X74192Y-7250D01*
X73442Y-6500D02*X74192Y-7250D01*
X71192Y-6500D02*X73442D01*
X70442Y-5750D02*X71192Y-6500D01*
X70442Y-5750D02*X71192Y-5000D01*
X73442D01*
X74192Y-5750D01*
X70442Y-7250D02*X71192Y-8000D01*
X79444Y-2000D02*Y-7250D01*
X80194Y-8000D01*
X78694Y-4250D02*X80194D01*
X81695Y-2000D02*Y-8000D01*
Y-5750D02*X82445Y-5000D01*
X83945D01*
X84695Y-5750D01*
Y-8000D01*
X87247D02*X89497D01*
X86497Y-7250D02*X87247Y-8000D01*
X86497Y-5750D02*Y-7250D01*
Y-5750D02*X87247Y-5000D01*
X88747D01*
X89497Y-5750D01*
X86497Y-6500D02*X89497D01*
Y-5750D02*Y-6500D01*
X94748Y-5000D02*X96998D01*
X93998Y-5750D02*X94748Y-5000D01*
X93998Y-5750D02*Y-7250D01*
X94748Y-8000D01*
X96998D01*
X99550D02*X101800D01*
X98800Y-7250D02*X99550Y-8000D01*
X98800Y-5750D02*Y-7250D01*
Y-5750D02*X99550Y-5000D01*
X101050D01*
X101800Y-5750D01*
X98800Y-6500D02*X101800D01*
Y-5750D02*Y-6500D01*
X104351Y-5750D02*Y-8000D01*
Y-5750D02*X105101Y-5000D01*
X105851D01*
X106601Y-5750D01*
Y-8000D01*
X103601Y-5000D02*X104351Y-5750D01*
X109153Y-2000D02*Y-7250D01*
X109903Y-8000D01*
X108403Y-4250D02*X109903D01*
X112154Y-8000D02*X114404D01*
X111404Y-7250D02*X112154Y-8000D01*
X111404Y-5750D02*Y-7250D01*
Y-5750D02*X112154Y-5000D01*
X113654D01*
X114404Y-5750D01*
X111404Y-6500D02*X114404D01*
Y-5750D02*Y-6500D01*
X116956Y-5750D02*Y-8000D01*
Y-5750D02*X117706Y-5000D01*
X119206D01*
X116206D02*X116956Y-5750D01*
X121007Y-2000D02*Y-7250D01*
X121757Y-8000D01*
X123259Y-3500D02*Y-4250D01*
Y-5750D02*Y-8000D01*
X125510Y-5750D02*Y-8000D01*
Y-5750D02*X126260Y-5000D01*
X127010D01*
X127760Y-5750D01*
Y-8000D01*
X124760Y-5000D02*X125510Y-5750D01*
X130312Y-8000D02*X132562D01*
X129562Y-7250D02*X130312Y-8000D01*
X129562Y-5750D02*Y-7250D01*
Y-5750D02*X130312Y-5000D01*
X131812D01*
X132562Y-5750D01*
X129562Y-6500D02*X132562D01*
Y-5750D02*Y-6500D01*
X137063Y-5750D02*Y-7250D01*
Y-5750D02*X137813Y-5000D01*
X139313D01*
X140063Y-5750D01*
Y-7250D01*
X139313Y-8000D02*X140063Y-7250D01*
X137813Y-8000D02*X139313D01*
X137063Y-7250D02*X137813Y-8000D01*
X142615Y-2750D02*Y-8000D01*
Y-2750D02*X143365Y-2000D01*
X144115D01*
X141865Y-5000D02*X143365D01*
X149066Y-2000D02*Y-7250D01*
X149816Y-8000D01*
X148316Y-4250D02*X149816D01*
X151318Y-2000D02*Y-8000D01*
Y-5750D02*X152068Y-5000D01*
X153568D01*
X154318Y-5750D01*
Y-8000D01*
X156119Y-3500D02*Y-4250D01*
Y-5750D02*Y-8000D01*
X158371D02*X160621D01*
X161371Y-7250D01*
X160621Y-6500D02*X161371Y-7250D01*
X158371Y-6500D02*X160621D01*
X157621Y-5750D02*X158371Y-6500D01*
X157621Y-5750D02*X158371Y-5000D01*
X160621D01*
X161371Y-5750D01*
X157621Y-7250D02*X158371Y-8000D01*
X166622Y-5750D02*Y-10250D01*
X165872Y-5000D02*X166622Y-5750D01*
X167372Y-5000D01*
X168872D01*
X169622Y-5750D01*
Y-7250D01*
X168872Y-8000D02*X169622Y-7250D01*
X167372Y-8000D02*X168872D01*
X166622Y-7250D02*X167372Y-8000D01*
X173674Y-5000D02*X174424Y-5750D01*
X172174Y-5000D02*X173674D01*
X171424Y-5750D02*X172174Y-5000D01*
X171424Y-5750D02*Y-7250D01*
X172174Y-8000D01*
X174424Y-5000D02*Y-7250D01*
X175174Y-8000D01*
X172174D02*X173674D01*
X174424Y-7250D01*
X177725Y-2000D02*Y-7250D01*
X178475Y-8000D01*
X176975Y-4250D02*X178475D01*
X179977Y-2000D02*Y-8000D01*
Y-5750D02*X180727Y-5000D01*
X182227D01*
X182977Y-5750D01*
Y-8000D01*
X200750Y423701D02*Y417701D01*
X203000Y423701D02*X203750Y422951D01*
Y418451D01*
X203000Y417701D02*X203750Y418451D01*
X200000Y417701D02*X203000D01*
X200000Y423701D02*X203000D01*
X207801Y420701D02*X208551Y419951D01*
X206301Y420701D02*X207801D01*
X205551Y419951D02*X206301Y420701D01*
X205551Y419951D02*Y418451D01*
X206301Y417701D01*
X208551Y420701D02*Y418451D01*
X209301Y417701D01*
X206301D02*X207801D01*
X208551Y418451D01*
X211853Y423701D02*Y418451D01*
X212603Y417701D01*
X211103Y421451D02*X212603D01*
X214854Y417701D02*X217104D01*
X214104Y418451D02*X214854Y417701D01*
X214104Y419951D02*Y418451D01*
Y419951D02*X214854Y420701D01*
X216354D01*
X217104Y419951D01*
X214104Y419201D02*X217104D01*
Y419951D02*Y419201D01*
X218906Y421451D02*X219656D01*
X218906Y419951D02*X219656D01*
X224157Y423701D02*Y417701D01*
X226407Y419951D01*
X228657Y417701D01*
Y423701D02*Y417701D01*
X231209D02*X233459D01*
X230459Y418451D02*X231209Y417701D01*
X230459Y419951D02*Y418451D01*
Y419951D02*X231209Y420701D01*
X232709D01*
X233459Y419951D01*
X230459Y419201D02*X233459D01*
Y419951D02*Y419201D01*
X238260Y423701D02*Y417701D01*
X237510D02*X238260Y418451D01*
X236010Y417701D02*X237510D01*
X235260Y418451D02*X236010Y417701D01*
X235260Y419951D02*Y418451D01*
Y419951D02*X236010Y420701D01*
X237510D01*
X238260Y419951D01*
X242762Y423701D02*Y417701D01*
Y423701D02*X245012Y421451D01*
X247262Y423701D01*
Y417701D01*
X251313Y420701D02*X252063Y419951D01*
X249813Y420701D02*X251313D01*
X249063Y419951D02*X249813Y420701D01*
X249063Y419951D02*Y418451D01*
X249813Y417701D01*
X252063Y420701D02*Y418451D01*
X252813Y417701D01*
X249813D02*X251313D01*
X252063Y418451D01*
X255365Y419951D02*Y417701D01*
Y419951D02*X256115Y420701D01*
X257615D01*
X254615D02*X255365Y419951D01*
X262866Y417701D02*X264366D01*
X263616Y423701D02*Y417701D01*
X262116Y422201D02*X263616Y423701D01*
X266168Y418451D02*X266918Y417701D01*
X266168Y419951D02*Y418451D01*
Y419951D02*X266918Y420701D01*
X268418D01*
X269168Y419951D01*
Y418451D01*
X268418Y417701D02*X269168Y418451D01*
X266918Y417701D02*X268418D01*
X266168Y421451D02*X266918Y420701D01*
X266168Y422951D02*Y421451D01*
Y422951D02*X266918Y423701D01*
X268418D01*
X269168Y422951D01*
Y421451D01*
X268418Y420701D02*X269168Y421451D01*
X273669Y418451D02*X274419Y417701D01*
X273669Y422951D02*Y418451D01*
Y422951D02*X274419Y423701D01*
X275919D01*
X276669Y422951D01*
Y418451D01*
X275919Y417701D02*X276669Y418451D01*
X274419Y417701D02*X275919D01*
X273669Y419201D02*X276669Y422201D01*
X278471Y417701D02*X282221Y421451D01*
Y423701D02*Y421451D01*
X278471Y423701D02*X282221D01*
X284022Y421451D02*X284772D01*
X284022Y419951D02*X284772D01*
X286574Y423701D02*X289574D01*
X286574D02*Y420701D01*
X287324Y421451D01*
X288824D01*
X289574Y420701D01*
Y418451D01*
X288824Y417701D02*X289574Y418451D01*
X287324Y417701D02*X288824D01*
X286574Y418451D02*X287324Y417701D01*
X293625Y423701D02*X294375Y422951D01*
X292125Y423701D02*X293625D01*
X291375Y422951D02*X292125Y423701D01*
X291375Y422951D02*Y418451D01*
X292125Y417701D01*
X293625Y420701D02*X294375Y419951D01*
X291375Y420701D02*X293625D01*
X292125Y417701D02*X293625D01*
X294375Y418451D01*
Y419951D02*Y418451D01*
X296177Y421451D02*X296927D01*
X296177Y419951D02*X296927D01*
X298728Y418451D02*X299478Y417701D01*
X298728Y422951D02*Y418451D01*
Y422951D02*X299478Y423701D01*
X300978D01*
X301728Y422951D01*
Y418451D01*
X300978Y417701D02*X301728Y418451D01*
X299478Y417701D02*X300978D01*
X298728Y419201D02*X301728Y422201D01*
X303530Y417701D02*X307280Y421451D01*
Y423701D02*Y421451D01*
X303530Y423701D02*X307280D01*
X311781Y422951D02*X312531Y423701D01*
X314781D01*
X315531Y422951D01*
Y421451D01*
X311781Y417701D02*X315531Y421451D01*
X311781Y417701D02*X315531D01*
X317333Y418451D02*X318083Y417701D01*
X317333Y422951D02*Y418451D01*
Y422951D02*X318083Y423701D01*
X319583D01*
X320333Y422951D01*
Y418451D01*
X319583Y417701D02*X320333Y418451D01*
X318083Y417701D02*X319583D01*
X317333Y419201D02*X320333Y422201D01*
X322884Y417701D02*X324384D01*
X323634Y423701D02*Y417701D01*
X322134Y422201D02*X323634Y423701D01*
X326186D02*X329186D01*
X326186D02*Y420701D01*
X326936Y421451D01*
X328436D01*
X329186Y420701D01*
Y418451D01*
X328436Y417701D02*X329186Y418451D01*
X326936Y417701D02*X328436D01*
X326186Y418451D02*X326936Y417701D01*
X333687Y423701D02*Y418451D01*
X334437Y417701D01*
X335937D01*
X336687Y418451D01*
Y423701D02*Y418451D01*
X338489Y423701D02*X341489D01*
X339989D02*Y417701D01*
X344040D02*X346290D01*
X343290Y418451D02*X344040Y417701D01*
X343290Y422951D02*Y418451D01*
Y422951D02*X344040Y423701D01*
X346290D01*
X200000Y437951D02*Y432701D01*
Y437951D02*X200750Y438701D01*
X203000D01*
X203750Y437951D01*
Y432701D01*
X200000Y435701D02*X203750D01*
X205551D02*Y433451D01*
X206301Y432701D01*
X207801D01*
X208551Y433451D01*
Y435701D02*Y433451D01*
X211103Y438701D02*Y433451D01*
X211853Y432701D01*
X210353Y436451D02*X211853D01*
X213354Y438701D02*Y432701D01*
Y434951D02*X214104Y435701D01*
X215604D01*
X216354Y434951D01*
Y432701D01*
X218156Y434951D02*Y433451D01*
Y434951D02*X218906Y435701D01*
X220406D01*
X221156Y434951D01*
Y433451D01*
X220406Y432701D02*X221156Y433451D01*
X218906Y432701D02*X220406D01*
X218156Y433451D02*X218906Y432701D01*
X223707Y434951D02*Y432701D01*
Y434951D02*X224457Y435701D01*
X225957D01*
X222957D02*X223707Y434951D01*
X227759Y436451D02*X228509D01*
X227759Y434951D02*X228509D01*
X233010Y432701D02*X236010D01*
X236760Y433451D01*
Y434951D02*Y433451D01*
X236010Y435701D02*X236760Y434951D01*
X233760Y435701D02*X236010D01*
X233760Y438701D02*Y432701D01*
X233010Y438701D02*X236010D01*
X236760Y437951D01*
Y436451D01*
X236010Y435701D02*X236760Y436451D01*
X239312Y432701D02*X241562D01*
X238562Y433451D02*X239312Y432701D01*
X238562Y434951D02*Y433451D01*
Y434951D02*X239312Y435701D01*
X240812D01*
X241562Y434951D01*
X238562Y434201D02*X241562D01*
Y434951D02*Y434201D01*
X244113Y434951D02*Y432701D01*
Y434951D02*X244863Y435701D01*
X246363D01*
X243363D02*X244113Y434951D01*
X248915Y438701D02*Y433451D01*
X249665Y432701D01*
X248165Y436451D02*X249665D01*
X253866Y438701D02*X256866D01*
X255366D02*Y432701D01*
X258668Y437201D02*Y436451D01*
Y434951D02*Y432701D01*
X260919Y434951D02*Y432701D01*
Y434951D02*X261669Y435701D01*
X262419D01*
X263169Y434951D01*
Y432701D01*
Y434951D02*X263919Y435701D01*
X264669D01*
X265419Y434951D01*
Y432701D01*
X260169Y435701D02*X260919Y434951D01*
X267971D02*Y432701D01*
Y434951D02*X268721Y435701D01*
X269471D01*
X270221Y434951D01*
Y432701D01*
Y434951D02*X270971Y435701D01*
X271721D01*
X272471Y434951D01*
Y432701D01*
X267221Y435701D02*X267971Y434951D01*
X275022Y432701D02*X277272D01*
X274272Y433451D02*X275022Y432701D01*
X274272Y434951D02*Y433451D01*
Y434951D02*X275022Y435701D01*
X276522D01*
X277272Y434951D01*
X274272Y434201D02*X277272D01*
Y434951D02*Y434201D01*
X279824Y434951D02*Y432701D01*
Y434951D02*X280574Y435701D01*
X282074D01*
X279074D02*X279824Y434951D01*
X284625D02*Y432701D01*
Y434951D02*X285375Y435701D01*
X286125D01*
X286875Y434951D01*
Y432701D01*
Y434951D02*X287625Y435701D01*
X288375D01*
X289125Y434951D01*
Y432701D01*
X283875Y435701D02*X284625Y434951D01*
X293177Y435701D02*X293927Y434951D01*
X291677Y435701D02*X293177D01*
X290927Y434951D02*X291677Y435701D01*
X290927Y434951D02*Y433451D01*
X291677Y432701D01*
X293927Y435701D02*Y433451D01*
X294677Y432701D01*
X291677D02*X293177D01*
X293927Y433451D01*
X297228Y434951D02*Y432701D01*
Y434951D02*X297978Y435701D01*
X298728D01*
X299478Y434951D01*
Y432701D01*
X296478Y435701D02*X297228Y434951D01*
X200000Y453701D02*X203000D01*
X201500D02*Y447701D01*
X204801Y452201D02*Y451451D01*
Y449951D02*Y447701D01*
X207053Y453701D02*Y448451D01*
X207803Y447701D01*
X206303Y451451D02*X207803D01*
X209304Y453701D02*Y448451D01*
X210054Y447701D01*
X212306D02*X214556D01*
X211556Y448451D02*X212306Y447701D01*
X211556Y449951D02*Y448451D01*
Y449951D02*X212306Y450701D01*
X213806D01*
X214556Y449951D01*
X211556Y449201D02*X214556D01*
Y449951D02*Y449201D01*
X216357Y451451D02*X217107D01*
X216357Y449951D02*X217107D01*
X221609Y452951D02*X222359Y453701D01*
X224609D01*
X225359Y452951D01*
Y451451D01*
X221609Y447701D02*X225359Y451451D01*
X221609Y447701D02*X225359D01*
X229410Y453701D02*X230160Y452951D01*
X227910Y453701D02*X229410D01*
X227160Y452951D02*X227910Y453701D01*
X227160Y452951D02*Y448451D01*
X227910Y447701D01*
X229410Y450701D02*X230160Y449951D01*
X227160Y450701D02*X229410D01*
X227910Y447701D02*X229410D01*
X230160Y448451D01*
Y449951D02*Y448451D01*
X231962Y447701D02*X232712D01*
X234513Y448451D02*X235263Y447701D01*
X234513Y452951D02*Y448451D01*
Y452951D02*X235263Y453701D01*
X236763D01*
X237513Y452951D01*
Y448451D01*
X236763Y447701D02*X237513Y448451D01*
X235263Y447701D02*X236763D01*
X234513Y449201D02*X237513Y452201D01*
X239315Y448451D02*X240065Y447701D01*
X239315Y452951D02*Y448451D01*
Y452951D02*X240065Y453701D01*
X241565D01*
X242315Y452951D01*
Y448451D01*
X241565Y447701D02*X242315Y448451D01*
X240065Y447701D02*X241565D01*
X239315Y449201D02*X242315Y452201D01*
X244116Y452951D02*X244866Y453701D01*
X247116D01*
X247866Y452951D01*
Y451451D01*
X244116Y447701D02*X247866Y451451D01*
X244116Y447701D02*X247866D01*
X249668D02*X250418D01*
X252219Y448451D02*X252969Y447701D01*
X252219Y452951D02*Y448451D01*
Y452951D02*X252969Y453701D01*
X254469D01*
X255219Y452951D01*
Y448451D01*
X254469Y447701D02*X255219Y448451D01*
X252969Y447701D02*X254469D01*
X252219Y449201D02*X255219Y452201D01*
X257021Y448451D02*X257771Y447701D01*
X257021Y452951D02*Y448451D01*
Y452951D02*X257771Y453701D01*
X259271D01*
X260021Y452951D01*
Y448451D01*
X259271Y447701D02*X260021Y448451D01*
X257771Y447701D02*X259271D01*
X257021Y449201D02*X260021Y452201D01*
X261822Y447701D02*X262572D01*
X264374Y448451D02*X265124Y447701D01*
X264374Y452951D02*Y448451D01*
Y452951D02*X265124Y453701D01*
X266624D01*
X267374Y452951D01*
Y448451D01*
X266624Y447701D02*X267374Y448451D01*
X265124Y447701D02*X266624D01*
X264374Y449201D02*X267374Y452201D01*
X269925Y447701D02*X271425D01*
X270675Y453701D02*Y447701D01*
X269175Y452201D02*X270675Y453701D01*
X273227Y447701D02*X273977D01*
X275778Y448451D02*X276528Y447701D01*
X275778Y452951D02*Y448451D01*
Y452951D02*X276528Y453701D01*
X278028D01*
X278778Y452951D01*
Y448451D01*
X278028Y447701D02*X278778Y448451D01*
X276528Y447701D02*X278028D01*
X275778Y449201D02*X278778Y452201D01*
X281330Y447701D02*X282830D01*
X282080Y453701D02*Y447701D01*
X280580Y452201D02*X282080Y453701D01*
X284631Y447701D02*X285381D01*
X287933Y449951D02*Y445451D01*
X287183Y450701D02*X287933Y449951D01*
X288683Y450701D01*
X290183D01*
X290933Y449951D01*
Y448451D01*
X290183Y447701D02*X290933Y448451D01*
X288683Y447701D02*X290183D01*
X287933Y448451D02*X288683Y447701D01*
X293484Y450701D02*X295734D01*
X292734Y449951D02*X293484Y450701D01*
X292734Y449951D02*Y448451D01*
X293484Y447701D01*
X295734D01*
X297536Y453701D02*Y447701D01*
Y448451D02*X298286Y447701D01*
X299786D01*
X300536Y448451D01*
Y449951D02*Y448451D01*
X299786Y450701D02*X300536Y449951D01*
X298286Y450701D02*X299786D01*
X297536Y449951D02*X298286Y450701D01*
X305037D02*X308037D01*
X312539Y453701D02*Y447701D01*
Y453701D02*X315539D01*
X312539Y450701D02*X314789D01*
X319590D02*X320340Y449951D01*
X318090Y450701D02*X319590D01*
X317340Y449951D02*X318090Y450701D01*
X317340Y449951D02*Y448451D01*
X318090Y447701D01*
X320340Y450701D02*Y448451D01*
X321090Y447701D01*
X318090D02*X319590D01*
X320340Y448451D01*
X322892Y453701D02*Y447701D01*
Y448451D02*X323642Y447701D01*
X325142D01*
X325892Y448451D01*
Y449951D02*Y448451D01*
X325142Y450701D02*X325892Y449951D01*
X323642Y450701D02*X325142D01*
X322892Y449951D02*X323642Y450701D01*
X328443Y449951D02*Y447701D01*
Y449951D02*X329193Y450701D01*
X330693D01*
X327693D02*X328443Y449951D01*
X332495Y452201D02*Y451451D01*
Y449951D02*Y447701D01*
X334746Y450701D02*X336996D01*
X333996Y449951D02*X334746Y450701D01*
X333996Y449951D02*Y448451D01*
X334746Y447701D01*
X336996D01*
X341048Y450701D02*X341798Y449951D01*
X339548Y450701D02*X341048D01*
X338798Y449951D02*X339548Y450701D01*
X338798Y449951D02*Y448451D01*
X339548Y447701D01*
X341798Y450701D02*Y448451D01*
X342548Y447701D01*
X339548D02*X341048D01*
X341798Y448451D01*
X345099Y453701D02*Y448451D01*
X345849Y447701D01*
X344349Y451451D02*X345849D01*
X347351Y452201D02*Y451451D01*
Y449951D02*Y447701D01*
X348852Y449951D02*Y448451D01*
Y449951D02*X349602Y450701D01*
X351102D01*
X351852Y449951D01*
Y448451D01*
X351102Y447701D02*X351852Y448451D01*
X349602Y447701D02*X351102D01*
X348852Y448451D02*X349602Y447701D01*
X354404Y449951D02*Y447701D01*
Y449951D02*X355154Y450701D01*
X355904D01*
X356654Y449951D01*
Y447701D01*
X353654Y450701D02*X354404Y449951D01*
X361905Y453701D02*Y447701D01*
X364155Y453701D02*X364905Y452951D01*
Y448451D01*
X364155Y447701D02*X364905Y448451D01*
X361155Y447701D02*X364155D01*
X361155Y453701D02*X364155D01*
X367457Y449951D02*Y447701D01*
Y449951D02*X368207Y450701D01*
X369707D01*
X366707D02*X367457Y449951D01*
X373758Y450701D02*X374508Y449951D01*
X372258Y450701D02*X373758D01*
X371508Y449951D02*X372258Y450701D01*
X371508Y449951D02*Y448451D01*
X372258Y447701D01*
X374508Y450701D02*Y448451D01*
X375258Y447701D01*
X372258D02*X373758D01*
X374508Y448451D01*
X377060Y450701D02*Y448451D01*
X377810Y447701D01*
X378560D01*
X379310Y448451D01*
Y450701D02*Y448451D01*
X380060Y447701D01*
X380810D01*
X381560Y448451D01*
Y450701D02*Y448451D01*
X383361Y452201D02*Y451451D01*
Y449951D02*Y447701D01*
X385613Y449951D02*Y447701D01*
Y449951D02*X386363Y450701D01*
X387113D01*
X387863Y449951D01*
Y447701D01*
X384863Y450701D02*X385613Y449951D01*
X391914Y450701D02*X392664Y449951D01*
X390414Y450701D02*X391914D01*
X389664Y449951D02*X390414Y450701D01*
X389664Y449951D02*Y448451D01*
X390414Y447701D01*
X391914D01*
X392664Y448451D01*
X389664Y446201D02*X390414Y445451D01*
X391914D01*
X392664Y446201D01*
Y450701D02*Y446201D01*
M02*
