G04 start of page 8 for group -4079 idx -4079 *
G04 Title: 26.006.00.01.01, topsilk *
G04 Creator: pcb 20100929 *
G04 CreationDate: Thu Jul 13 21:21:48 2017 UTC *
G04 For: bert *
G04 Format: Gerber/RS-274X *
G04 PCB-Dimensions: 620000 162000 *
G04 PCB-Coordinate-Origin: lower left *
%MOIN*%
%FSLAX25Y25*%
%LNFRONTSILK*%
%ADD11C,0.0200*%
%ADD25C,0.0100*%
%ADD26C,0.0000*%
G54D11*G36*
X311477Y42414D02*X314054D01*
X314137Y42382D01*
X314184Y42306D01*
X314233Y42067D01*
X314277Y41845D01*
X314668Y39713D01*
X314715Y39625D01*
X314798Y39567D01*
X314901Y39523D01*
X315691Y39252D01*
X316441Y38894D01*
X316447D01*
X316534Y38856D01*
X316631Y38842D01*
X316729Y38873D01*
X318502Y40092D01*
X318693Y40217D01*
X318894Y40353D01*
X318980Y40378D01*
X319062Y40342D01*
X319393Y40012D01*
X319897Y39512D01*
X320055Y39349D01*
X320554Y38851D01*
X320716Y38694D01*
X320884Y38520D01*
X320923Y38435D01*
X320901Y38346D01*
X320765Y38145D01*
X320636Y37955D01*
X319447Y36219D01*
X319415Y36127D01*
X319430Y36030D01*
X319475Y35931D01*
X320158Y34325D01*
X320195Y34234D01*
X320258Y34156D01*
X320348Y34109D01*
X322387Y33728D01*
X322611Y33685D01*
X322854Y33642D01*
X322929Y33595D01*
X322958Y33512D01*
Y30935D01*
X322929Y30846D01*
X322854Y30799D01*
X322611Y30756D01*
X322387Y30713D01*
X320408Y30344D01*
X320320Y30296D01*
X320266Y30213D01*
X320238Y30153D01*
Y30142D01*
X319523Y28369D01*
X319518Y28357D01*
X319501Y28314D01*
X319484Y28213D01*
X319512Y28119D01*
X320641Y26487D01*
X320765Y26296D01*
X320906Y26095D01*
X320925Y26009D01*
X320884Y25927D01*
X320716Y25748D01*
X320554Y25591D01*
X319236Y24273D01*
X319062Y24105D01*
X318980Y24064D01*
X318894Y24082D01*
X318693Y24224D01*
X318502Y24348D01*
X316908Y25445D01*
X316809Y25474D01*
X316712Y25455D01*
X316381Y25271D01*
X316187Y25162D01*
X315840Y24984D01*
X315755Y24978D01*
X315693Y25038D01*
X315547Y25395D01*
X315459Y25602D01*
X314076Y28960D01*
X313988Y29166D01*
X313891Y29399D01*
X313887Y29494D01*
X313940Y29567D01*
X314163Y29698D01*
X314304Y29806D01*
X314840Y30252D01*
X315255Y30816D01*
X315522Y31475D01*
X315616Y32205D01*
X315558Y32780D01*
X315393Y33314D01*
X315130Y33799D01*
X314781Y34221D01*
X314361Y34570D01*
X313877Y34834D01*
X313343Y34999D01*
X312769Y35057D01*
X312194Y34999D01*
X311659Y34834D01*
X311176Y34570D01*
X310754Y34221D01*
X310406Y33799D01*
X310144Y33314D01*
X309979Y32780D01*
X309920Y32205D01*
X310013Y31475D01*
X310280Y30816D01*
X310694Y30252D01*
X311233Y29806D01*
X311369Y29698D01*
X311591Y29567D01*
X311645Y29494D01*
X311640Y29399D01*
X311543Y29166D01*
X311455Y28960D01*
X310072Y25602D01*
X309986Y25395D01*
X309838Y25038D01*
X309777Y24978D01*
X309693Y24984D01*
X309351Y25162D01*
X309150Y25271D01*
X308819Y25455D01*
X308720Y25474D01*
X308623Y25445D01*
X307029Y24348D01*
X306844Y24224D01*
X306638Y24082D01*
X306551Y24064D01*
X306469Y24105D01*
X306295Y24273D01*
X306138Y24435D01*
X305640Y24934D01*
X305477Y25092D01*
X304977Y25591D01*
X304815Y25748D01*
X304647Y25927D01*
X304608Y26009D01*
X304630Y26095D01*
X304766Y26296D01*
X304897Y26487D01*
X306019Y28119D01*
X306047Y28213D01*
X306030Y28314D01*
X306008Y28374D01*
X305298Y30148D01*
X305265Y30213D01*
X305211Y30296D01*
X305125Y30344D01*
X303144Y30713D01*
X302922Y30756D01*
X302683Y30799D01*
X302604Y30849D01*
X302575Y30935D01*
Y33512D01*
X302604Y33595D01*
X302683Y33642D01*
X302922Y33691D01*
X303144Y33728D01*
X305184Y34109D01*
X305273Y34156D01*
X305336Y34239D01*
X305373Y34325D01*
X306062Y35931D01*
X306101Y36030D01*
X306118Y36127D01*
X306090Y36219D01*
X304897Y37960D01*
X304766Y38145D01*
X304630Y38346D01*
X304608Y38435D01*
X304647Y38520D01*
X304815Y38694D01*
X304977Y38851D01*
X306469Y40342D01*
X306551Y40378D01*
X306638Y40359D01*
X306844Y40223D01*
X307029Y40092D01*
X308802Y38873D01*
X308900Y38844D01*
X308998Y38862D01*
X309084Y38894D01*
X309095Y38899D01*
X309841Y39253D01*
X310631Y39528D01*
X310734Y39567D01*
X310818Y39625D01*
X310863Y39713D01*
X311261Y41845D01*
X311298Y42067D01*
X311347Y42306D01*
X311394Y42382D01*
X311477Y42414D01*
G37*
G54D25*X2500Y159500D02*Y2000D01*
X615000D01*
X2500Y159500D02*X615000D01*
Y2000D01*
X296000Y19800D02*X295600Y19600D01*
X295200Y19200D01*
X295000Y18600D01*
Y18200D01*
X295200Y17600D01*
X295600Y17200D01*
X296000Y17000D01*
X296600D01*
X297000Y17200D01*
X297400Y17600D01*
X297600Y18200D01*
Y18600D02*Y18200D01*
Y18600D02*X297400Y19200D01*
X297000Y19600D01*
X296600Y19800D01*
X296000D02*X296600D01*
X298801D02*Y15600D01*
Y19200D02*X299201Y19600D01*
X299601Y19800D01*
X300201D01*
X300601Y19600D01*
X301001Y19200D01*
X301201Y18600D01*
Y18200D01*
X301001Y17600D01*
X300601Y17200D01*
X300201Y17000D01*
X299601D02*X300201D01*
X299601D02*X299201Y17200D01*
X298801Y17600D01*
X302402Y18600D02*X304802D01*
Y19000D02*Y18600D01*
Y19000D02*X304602Y19400D01*
X304402Y19600D01*
X304002Y19800D01*
X303402D02*X304002D01*
X303402D02*X303002Y19600D01*
X302602Y19200D01*
X302402Y18600D01*
Y18200D01*
X302602Y17600D01*
X303002Y17200D01*
X303402Y17000D01*
X304002D01*
X304402Y17200D01*
X304802Y17600D01*
X306003Y19800D02*Y17000D01*
Y19000D02*X306603Y19600D01*
X307003Y19800D01*
X307603D01*
X308003Y19600D01*
X308203Y19000D01*
Y17000D01*
X312804Y19200D02*X312604Y19600D01*
X312004Y19800D01*
X311404D02*X312004D01*
X311404D02*X310804Y19600D01*
X310604Y19200D01*
X310804Y18800D01*
X311204Y18600D01*
X312204Y18400D01*
X312604Y18200D01*
X312804Y17800D01*
Y17600D01*
X312604Y17200D01*
X312004Y17000D01*
X311404D02*X312004D01*
X311404D02*X310804Y17200D01*
X310604Y17600D01*
X315005Y19800D02*X314605Y19600D01*
X314205Y19200D01*
X314005Y18600D01*
Y18200D01*
X314205Y17600D01*
X314605Y17200D01*
X315005Y17000D01*
X315605D01*
X316005Y17200D01*
X316405Y17600D01*
X316605Y18200D01*
Y18600D02*Y18200D01*
Y18600D02*X316405Y19200D01*
X316005Y19600D01*
X315605Y19800D01*
X315005D02*X315605D01*
X317806D02*Y17800D01*
X318006Y17200D01*
X318406Y17000D01*
X319006D01*
X319406Y17200D01*
X320006Y17800D01*
Y19800D02*Y17000D01*
X321207Y19800D02*Y17000D01*
Y18600D02*X321407Y19200D01*
X321807Y19600D01*
X322207Y19800D01*
X322807D01*
X326408Y19200D02*X326008Y19600D01*
X325608Y19800D01*
X325008D02*X325608D01*
X325008D02*X324608Y19600D01*
X324208Y19200D01*
X324008Y18600D01*
Y18200D01*
X324208Y17600D01*
X324608Y17200D01*
X325008Y17000D01*
X325608D01*
X326008Y17200D01*
X326408Y17600D01*
X327609Y18600D02*X330009D01*
Y19000D02*Y18600D01*
Y19000D02*X329809Y19400D01*
X329609Y19600D01*
X329209Y19800D01*
X328609D02*X329209D01*
X328609D02*X328209Y19600D01*
X327809Y19200D01*
X327609Y18600D01*
Y18200D01*
X327809Y17600D01*
X328209Y17200D01*
X328609Y17000D01*
X329209D01*
X329609Y17200D01*
X330009Y17600D01*
X300000Y11700D02*Y7500D01*
Y9500D02*X300600Y10100D01*
X301000Y10300D01*
X301600D01*
X302000Y10100D01*
X302200Y9500D01*
Y7500D01*
X305801Y10300D02*Y7500D01*
Y9700D02*X305401Y10100D01*
X305001Y10300D01*
X304401D02*X305001D01*
X304401D02*X304001Y10100D01*
X303601Y9700D01*
X303401Y9100D01*
Y8700D01*
X303601Y8100D01*
X304001Y7700D01*
X304401Y7500D01*
X305001D01*
X305401Y7700D01*
X305801Y8100D01*
X307002Y10300D02*Y7500D01*
Y9100D02*X307202Y9700D01*
X307602Y10100D01*
X308002Y10300D01*
X308602D01*
X312203Y11700D02*Y7500D01*
Y9700D02*X311803Y10100D01*
X311403Y10300D01*
X310803D02*X311403D01*
X310803D02*X310403Y10100D01*
X310003Y9700D01*
X309803Y9100D01*
Y8700D01*
X310003Y8100D01*
X310403Y7700D01*
X310803Y7500D01*
X311403D01*
X311803Y7700D01*
X312203Y8100D01*
X313404Y10300D02*X314204Y7500D01*
X315004Y10300D02*X314204Y7500D01*
X315004Y10300D02*X315804Y7500D01*
X316604Y10300D02*X315804Y7500D01*
X320205Y10300D02*Y7500D01*
Y9700D02*X319805Y10100D01*
X319405Y10300D01*
X318805D02*X319405D01*
X318805D02*X318405Y10100D01*
X318005Y9700D01*
X317805Y9100D01*
Y8700D01*
X318005Y8100D01*
X318405Y7700D01*
X318805Y7500D01*
X319405D01*
X319805Y7700D01*
X320205Y8100D01*
X321406Y10300D02*Y7500D01*
Y9100D02*X321606Y9700D01*
X322006Y10100D01*
X322406Y10300D01*
X323006D01*
X324207Y9100D02*X326607D01*
Y9500D02*Y9100D01*
Y9500D02*X326407Y9900D01*
X326207Y10100D01*
X325807Y10300D01*
X325207D02*X325807D01*
X325207D02*X324807Y10100D01*
X324407Y9700D01*
X324207Y9100D01*
Y8700D01*
X324407Y8100D01*
X324807Y7700D01*
X325207Y7500D01*
X325807D01*
X326207Y7700D01*
X326607Y8100D01*
X340500Y36200D02*Y32000D01*
Y36200D02*X341900D01*
X342500Y36000D01*
X342900Y35600D01*
X343100Y35200D01*
X343300Y34600D01*
Y33600D01*
X343100Y33000D01*
X342900Y32600D01*
X342500Y32200D01*
X341900Y32000D01*
X340500D02*X341900D01*
X344501Y34800D02*Y32800D01*
X344701Y32200D01*
X345101Y32000D01*
X345701D01*
X346101Y32200D01*
X346701Y32800D01*
Y34800D02*Y32000D01*
X350302Y34800D02*Y32000D01*
Y34200D02*X349902Y34600D01*
X349502Y34800D01*
X348902D02*X349502D01*
X348902D02*X348502Y34600D01*
X348102Y34200D01*
X347902Y33600D01*
Y33200D01*
X348102Y32600D01*
X348502Y32200D01*
X348902Y32000D01*
X349502D01*
X349902Y32200D01*
X350302Y32600D01*
X351503Y36200D02*Y32000D01*
X353904Y36200D02*Y32000D01*
Y36200D02*X355704D01*
X356304Y36000D01*
X356504Y35800D01*
X356704Y35400D01*
Y35000D01*
X356504Y34600D01*
X356304Y34400D01*
X355704Y34200D01*
X353904D02*X355704D01*
X356304Y34000D01*
X356504Y33800D01*
X356704Y33400D01*
Y32800D01*
X356504Y32400D01*
X356304Y32200D01*
X355704Y32000D01*
X353904D02*X355704D01*
X360305Y34800D02*Y32000D01*
Y34200D02*X359905Y34600D01*
X359505Y34800D01*
X358905D02*X359505D01*
X358905D02*X358505Y34600D01*
X358105Y34200D01*
X357905Y33600D01*
Y33200D01*
X358105Y32600D01*
X358505Y32200D01*
X358905Y32000D01*
X359505D01*
X359905Y32200D01*
X360305Y32600D01*
X361506Y34800D02*Y32000D01*
Y34000D02*X362106Y34600D01*
X362506Y34800D01*
X363106D01*
X363506Y34600D01*
X363706Y34000D01*
Y32000D01*
X367307Y36200D02*Y32000D01*
Y34200D02*X366907Y34600D01*
X366507Y34800D01*
X365907D02*X366507D01*
X365907D02*X365507Y34600D01*
X365107Y34200D01*
X364907Y33600D01*
Y33200D01*
X365107Y32600D01*
X365507Y32200D01*
X365907Y32000D01*
X366507D01*
X366907Y32200D01*
X367307Y32600D01*
X369708Y36200D02*Y32000D01*
Y36200D02*X371508D01*
X372108Y36000D01*
X372308Y35800D01*
X372508Y35400D01*
Y34800D01*
X372308Y34400D01*
X372108Y34200D01*
X371508Y34000D01*
X369708D02*X371508D01*
X376109Y34800D02*Y32000D01*
Y34200D02*X375709Y34600D01*
X375309Y34800D01*
X374709D02*X375309D01*
X374709D02*X374309Y34600D01*
X373909Y34200D01*
X373709Y33600D01*
Y33200D01*
X373909Y32600D01*
X374309Y32200D01*
X374709Y32000D01*
X375309D01*
X375709Y32200D01*
X376109Y32600D01*
X379510Y34200D02*X379310Y34600D01*
X378710Y34800D01*
X378110D02*X378710D01*
X378110D02*X377510Y34600D01*
X377310Y34200D01*
X377510Y33800D01*
X377910Y33600D01*
X378910Y33400D01*
X379310Y33200D01*
X379510Y32800D01*
Y32600D01*
X379310Y32200D01*
X378710Y32000D01*
X378110D02*X378710D01*
X378110D02*X377510Y32200D01*
X377310Y32600D01*
X382911Y34200D02*X382711Y34600D01*
X382111Y34800D01*
X381511D02*X382111D01*
X381511D02*X380911Y34600D01*
X380711Y34200D01*
X380911Y33800D01*
X381311Y33600D01*
X382311Y33400D01*
X382711Y33200D01*
X382911Y32800D01*
Y32600D01*
X382711Y32200D01*
X382111Y32000D01*
X381511D02*X382111D01*
X381511D02*X380911Y32200D01*
X380711Y32600D01*
X385312Y36200D02*Y32000D01*
Y36200D02*X387912D01*
X385312Y34200D02*X386912D01*
X389113Y36200D02*X389313Y36000D01*
X389513Y36200D01*
X389313Y36400D01*
X389113Y36200D01*
X389313Y34800D02*Y32000D01*
X390714Y36200D02*Y32000D01*
X392515Y36200D02*Y32800D01*
X392715Y32200D01*
X393115Y32000D01*
X393515D01*
X391915Y34800D02*X393315D01*
X394716Y33600D02*X397116D01*
Y34000D02*Y33600D01*
Y34000D02*X396916Y34400D01*
X396716Y34600D01*
X396316Y34800D01*
X395716D02*X396316D01*
X395716D02*X395316Y34600D01*
X394916Y34200D01*
X394716Y33600D01*
Y33200D01*
X394916Y32600D01*
X395316Y32200D01*
X395716Y32000D01*
X396316D01*
X396716Y32200D01*
X397116Y32600D01*
X398317Y34800D02*Y32000D01*
Y33600D02*X398517Y34200D01*
X398917Y34600D01*
X399317Y34800D01*
X399917D01*
X402318Y36200D02*Y33200D01*
X402518Y32600D01*
X402918Y32200D01*
X403518Y32000D01*
X403918D01*
X404518Y32200D01*
X404918Y32600D01*
X405118Y33200D01*
Y36200D02*Y33200D01*
X406319Y34800D02*Y32000D01*
Y34000D02*X406919Y34600D01*
X407319Y34800D01*
X407919D01*
X408319Y34600D01*
X408519Y34000D01*
Y32000D01*
X409720Y36200D02*X409920Y36000D01*
X410120Y36200D01*
X409920Y36400D01*
X409720Y36200D01*
X409920Y34800D02*Y32000D01*
X411921Y36200D02*Y32800D01*
X412121Y32200D01*
X412521Y32000D01*
X412921D01*
X411321Y34800D02*X412721D01*
X343500Y19700D02*X343300Y20100D01*
X342900Y20500D01*
X342500Y20700D01*
X341700D02*X342500D01*
X341700D02*X341300Y20500D01*
X340900Y20100D01*
X340700Y19700D01*
X340500Y19100D01*
Y18100D01*
X340700Y17500D01*
X340900Y17100D01*
X341300Y16700D01*
X341700Y16500D01*
X342500D01*
X342900Y16700D01*
X343300Y17100D01*
X343500Y17500D01*
X345701Y19300D02*X345301Y19100D01*
X344901Y18700D01*
X344701Y18100D01*
Y17700D01*
X344901Y17100D01*
X345301Y16700D01*
X345701Y16500D01*
X346301D01*
X346701Y16700D01*
X347101Y17100D01*
X347301Y17700D01*
Y18100D02*Y17700D01*
Y18100D02*X347101Y18700D01*
X346701Y19100D01*
X346301Y19300D01*
X345701D02*X346301D01*
X348502D02*Y15100D01*
Y18700D02*X348902Y19100D01*
X349302Y19300D01*
X349902D01*
X350302Y19100D01*
X350702Y18700D01*
X350902Y18100D01*
Y17700D01*
X350702Y17100D01*
X350302Y16700D01*
X349902Y16500D01*
X349302D02*X349902D01*
X349302D02*X348902Y16700D01*
X348502Y17100D01*
X352303Y19300D02*X353503Y16500D01*
X354703Y19300D02*X353503Y16500D01*
X353103Y15700D01*
X352703Y15300D01*
X352303Y15100D01*
X352103D02*X352303D01*
X355904Y19300D02*Y16500D01*
Y18100D02*X356104Y18700D01*
X356504Y19100D01*
X356904Y19300D01*
X357504D01*
X358705Y20700D02*X358905Y20500D01*
X359105Y20700D01*
X358905Y20900D01*
X358705Y20700D01*
X358905Y19300D02*Y16500D01*
X362706Y19300D02*Y16100D01*
X362506Y15500D01*
X362306Y15300D01*
X361906Y15100D01*
X361306D02*X361906D01*
X361306D02*X360906Y15300D01*
X362706Y18700D02*X362306Y19100D01*
X361906Y19300D01*
X361306D02*X361906D01*
X361306D02*X360906Y19100D01*
X360506Y18700D01*
X360306Y18100D01*
Y17700D01*
X360506Y17100D01*
X360906Y16700D01*
X361306Y16500D01*
X361906D01*
X362306Y16700D01*
X362706Y17100D01*
X363907Y20700D02*Y16500D01*
Y18500D02*X364507Y19100D01*
X364907Y19300D01*
X365507D01*
X365907Y19100D01*
X366107Y18500D01*
Y16500D01*
X367908Y20700D02*Y17300D01*
X368108Y16700D01*
X368508Y16500D01*
X368908D01*
X367308Y19300D02*X368708D01*
X372709Y21500D02*X372309Y21100D01*
X371909Y20500D01*
X371509Y19700D01*
X371309Y18700D01*
Y17900D01*
X371509Y16900D01*
X371909Y16100D01*
X372309Y15500D01*
X372709Y15100D01*
X376910Y19700D02*X376710Y20100D01*
X376310Y20500D01*
X375910Y20700D01*
X375110D02*X375910D01*
X375110D02*X374710Y20500D01*
X374310Y20100D01*
X374110Y19700D01*
X373910Y19100D01*
Y18100D01*
X374110Y17500D01*
X374310Y17100D01*
X374710Y16700D01*
X375110Y16500D01*
X375910D01*
X376310Y16700D01*
X376710Y17100D01*
X376910Y17500D01*
X378111Y21500D02*X378511Y21100D01*
X378911Y20500D01*
X379311Y19700D01*
X379511Y18700D01*
Y17900D01*
X379311Y16900D01*
X378911Y16100D01*
X378511Y15500D01*
X378111Y15100D01*
X382112Y19900D02*Y19700D01*
Y19900D02*X382312Y20300D01*
X382512Y20500D01*
X382912Y20700D01*
X383712D01*
X384112Y20500D01*
X384312Y20300D01*
X384512Y19900D01*
Y19500D01*
X384312Y19100D01*
X383912Y18500D01*
X381912Y16500D01*
X384712D01*
X387113Y20700D02*X386513Y20500D01*
X386113Y19900D01*
X385913Y18900D01*
Y18300D01*
X386113Y17300D01*
X386513Y16700D01*
X387113Y16500D01*
X387513D01*
X388113Y16700D01*
X388513Y17300D01*
X388713Y18300D01*
Y18900D02*Y18300D01*
Y18900D02*X388513Y19900D01*
X388113Y20500D01*
X387513Y20700D01*
X387113D02*X387513D01*
X389914Y19900D02*X390314Y20100D01*
X390914Y20700D01*
Y16500D01*
X394915Y20700D02*X392915Y16500D01*
X392115Y20700D02*X394915D01*
X397316D02*Y16500D01*
Y20700D02*X399116D01*
X399716Y20500D01*
X399916Y20300D01*
X400116Y19900D01*
Y19500D01*
X399916Y19100D01*
X399716Y18900D01*
X399116Y18700D01*
X397316D02*X399116D01*
X399716Y18500D01*
X399916Y18300D01*
X400116Y17900D01*
Y17300D01*
X399916Y16900D01*
X399716Y16700D01*
X399116Y16500D01*
X397316D02*X399116D01*
X401317Y18100D02*X403717D01*
Y18500D02*Y18100D01*
Y18500D02*X403517Y18900D01*
X403317Y19100D01*
X402917Y19300D01*
X402317D02*X402917D01*
X402317D02*X401917Y19100D01*
X401517Y18700D01*
X401317Y18100D01*
Y17700D01*
X401517Y17100D01*
X401917Y16700D01*
X402317Y16500D01*
X402917D01*
X403317Y16700D01*
X403717Y17100D01*
X404918Y19300D02*Y16500D01*
Y18100D02*X405118Y18700D01*
X405518Y19100D01*
X405918Y19300D01*
X406518D01*
X408319Y20700D02*Y17300D01*
X408519Y16700D01*
X408919Y16500D01*
X409319D01*
X407719Y19300D02*X409119D01*
X413120Y20700D02*Y16500D01*
X411720Y20700D02*X414520D01*
X415721D02*X415921Y20500D01*
X416121Y20700D01*
X415921Y20900D01*
X415721Y20700D01*
X415921Y19300D02*Y16500D01*
X417322Y19300D02*Y16500D01*
Y18500D02*X417922Y19100D01*
X418322Y19300D01*
X418922D01*
X419322Y19100D01*
X419522Y18500D01*
Y16500D01*
Y18500D02*X420122Y19100D01*
X420522Y19300D01*
X421122D01*
X421522Y19100D01*
X421722Y18500D01*
Y16500D01*
X422923Y19300D02*Y16500D01*
Y18500D02*X423523Y19100D01*
X423923Y19300D01*
X424523D01*
X424923Y19100D01*
X425123Y18500D01*
Y16500D01*
Y18500D02*X425723Y19100D01*
X426123Y19300D01*
X426723D01*
X427123Y19100D01*
X427323Y18500D01*
Y16500D01*
X428524Y18100D02*X430924D01*
Y18500D02*Y18100D01*
Y18500D02*X430724Y18900D01*
X430524Y19100D01*
X430124Y19300D01*
X429524D02*X430124D01*
X429524D02*X429124Y19100D01*
X428724Y18700D01*
X428524Y18100D01*
Y17700D01*
X428724Y17100D01*
X429124Y16700D01*
X429524Y16500D01*
X430124D01*
X430524Y16700D01*
X430924Y17100D01*
X432125Y19300D02*Y16500D01*
Y18100D02*X432325Y18700D01*
X432725Y19100D01*
X433125Y19300D01*
X433725D01*
X434926D02*Y16500D01*
Y18500D02*X435526Y19100D01*
X435926Y19300D01*
X436526D01*
X436926Y19100D01*
X437126Y18500D01*
Y16500D01*
Y18500D02*X437726Y19100D01*
X438126Y19300D01*
X438726D01*
X439126Y19100D01*
X439326Y18500D01*
Y16500D01*
X442927Y19300D02*Y16500D01*
Y18700D02*X442527Y19100D01*
X442127Y19300D01*
X441527D02*X442127D01*
X441527D02*X441127Y19100D01*
X440727Y18700D01*
X440527Y18100D01*
Y17700D01*
X440727Y17100D01*
X441127Y16700D01*
X441527Y16500D01*
X442127D01*
X442527Y16700D01*
X442927Y17100D01*
X444128Y19300D02*Y16500D01*
Y18500D02*X444728Y19100D01*
X445128Y19300D01*
X445728D01*
X446128Y19100D01*
X446328Y18500D01*
Y16500D01*
X340700Y27400D02*Y27200D01*
Y27400D02*X340900Y27800D01*
X341100Y28000D01*
X341500Y28200D01*
X342300D01*
X342700Y28000D01*
X342900Y27800D01*
X343100Y27400D01*
Y27000D01*
X342900Y26600D01*
X342500Y26000D01*
X340500Y24000D01*
X343300D01*
X346901Y27600D02*X346701Y28000D01*
X346101Y28200D01*
X345701D02*X346101D01*
X345701D02*X345101Y28000D01*
X344701Y27400D01*
X344501Y26400D01*
Y25400D01*
X344701Y24600D01*
X345101Y24200D01*
X345701Y24000D01*
X345901D01*
X346501Y24200D01*
X346901Y24600D01*
X347101Y25200D01*
Y25400D02*Y25200D01*
Y25400D02*X346901Y26000D01*
X346501Y26400D01*
X345901Y26600D01*
X345701D02*X345901D01*
X345701D02*X345101Y26400D01*
X344701Y26000D01*
X344501Y25400D01*
X348502Y24400D02*X348302Y24200D01*
X348502Y24000D01*
X348702Y24200D01*
X348502Y24400D01*
X351103Y28200D02*X350503Y28000D01*
X350103Y27400D01*
X349903Y26400D01*
Y25800D01*
X350103Y24800D01*
X350503Y24200D01*
X351103Y24000D01*
X351503D01*
X352103Y24200D01*
X352503Y24800D01*
X352703Y25800D01*
Y26400D02*Y25800D01*
Y26400D02*X352503Y27400D01*
X352103Y28000D01*
X351503Y28200D01*
X351103D02*X351503D01*
X355104D02*X354504Y28000D01*
X354104Y27400D01*
X353904Y26400D01*
Y25800D01*
X354104Y24800D01*
X354504Y24200D01*
X355104Y24000D01*
X355504D01*
X356104Y24200D01*
X356504Y24800D01*
X356704Y25800D01*
Y26400D02*Y25800D01*
Y26400D02*X356504Y27400D01*
X356104Y28000D01*
X355504Y28200D01*
X355104D02*X355504D01*
X360305Y27600D02*X360105Y28000D01*
X359505Y28200D01*
X359105D02*X359505D01*
X359105D02*X358505Y28000D01*
X358105Y27400D01*
X357905Y26400D01*
Y25400D01*
X358105Y24600D01*
X358505Y24200D01*
X359105Y24000D01*
X359305D01*
X359905Y24200D01*
X360305Y24600D01*
X360505Y25200D01*
Y25400D02*Y25200D01*
Y25400D02*X360305Y26000D01*
X359905Y26400D01*
X359305Y26600D01*
X359105D02*X359305D01*
X359105D02*X358505Y26400D01*
X358105Y26000D01*
X357905Y25400D01*
X361906Y24400D02*X361706Y24200D01*
X361906Y24000D01*
X362106Y24200D01*
X361906Y24400D01*
X364507Y28200D02*X363907Y28000D01*
X363507Y27400D01*
X363307Y26400D01*
Y25800D01*
X363507Y24800D01*
X363907Y24200D01*
X364507Y24000D01*
X364907D01*
X365507Y24200D01*
X365907Y24800D01*
X366107Y25800D01*
Y26400D02*Y25800D01*
Y26400D02*X365907Y27400D01*
X365507Y28000D01*
X364907Y28200D01*
X364507D02*X364907D01*
X368508D02*X367908Y28000D01*
X367508Y27400D01*
X367308Y26400D01*
Y25800D01*
X367508Y24800D01*
X367908Y24200D01*
X368508Y24000D01*
X368908D01*
X369508Y24200D01*
X369908Y24800D01*
X370108Y25800D01*
Y26400D02*Y25800D01*
Y26400D02*X369908Y27400D01*
X369508Y28000D01*
X368908Y28200D01*
X368508D02*X368908D01*
X371509Y24400D02*X371309Y24200D01*
X371509Y24000D01*
X371709Y24200D01*
X371509Y24400D01*
X374110Y28200D02*X373510Y28000D01*
X373110Y27400D01*
X372910Y26400D01*
Y25800D01*
X373110Y24800D01*
X373510Y24200D01*
X374110Y24000D01*
X374510D01*
X375110Y24200D01*
X375510Y24800D01*
X375710Y25800D01*
Y26400D02*Y25800D01*
Y26400D02*X375510Y27400D01*
X375110Y28000D01*
X374510Y28200D01*
X374110D02*X374510D01*
X376911Y27400D02*X377311Y27600D01*
X377911Y28200D01*
Y24000D01*
X379312Y24400D02*X379112Y24200D01*
X379312Y24000D01*
X379512Y24200D01*
X379312Y24400D01*
X381913Y28200D02*X381313Y28000D01*
X380913Y27400D01*
X380713Y26400D01*
Y25800D01*
X380913Y24800D01*
X381313Y24200D01*
X381913Y24000D01*
X382313D01*
X382913Y24200D01*
X383313Y24800D01*
X383513Y25800D01*
Y26400D02*Y25800D01*
Y26400D02*X383313Y27400D01*
X382913Y28000D01*
X382313Y28200D01*
X381913D02*X382313D01*
X384714Y27400D02*X385114Y27600D01*
X385714Y28200D01*
Y24000D01*
X43100Y50000D02*X66900D01*
X43100Y59000D02*X66900D01*
Y50000D01*
X43100Y59000D02*Y50000D01*
X66900Y54500D02*X70300D01*
X39700D02*X43100D01*
X90000Y12000D02*Y2000D01*
X10000Y12000D02*X90000D01*
X10000Y2000D02*X90000D01*
X20000Y12000D02*Y2000D01*
X10000Y12000D02*Y2000D01*
X2500D02*X12500D01*
X2500D02*Y12000D01*
X149500Y103900D02*Y80100D01*
X140500Y103900D02*Y80100D01*
Y103900D02*X149500D01*
X140500Y80100D02*X149500D01*
X145000Y107300D02*Y103900D01*
Y80100D02*Y76700D01*
X155500Y103900D02*Y80100D01*
X164500Y103900D02*Y80100D01*
X155500D02*X164500D01*
X155500Y103900D02*X164500D01*
X160000Y80100D02*Y76700D01*
Y107300D02*Y103900D01*
X166300Y98400D02*X173700D01*
X166300Y98900D02*X173700D01*
X166300Y99400D02*X173700D01*
X166300Y99900D02*X173700D01*
X166300Y100400D02*Y83600D01*
X173700Y100400D02*Y83600D01*
X166300D02*X173700D01*
X166300Y100400D02*X173700D01*
X170000Y83600D02*Y76700D01*
Y107300D02*Y100400D01*
X95000Y112000D02*Y97000D01*
Y87000D02*Y72000D01*
Y112000D02*X135000D01*
Y72000D01*
X95000D02*X135000D01*
X95000Y87000D02*G75*G03X95000Y97000I0J5000D01*G01*
X132500Y64500D02*Y49500D01*
X127500Y64500D02*Y49500D01*
X231400Y120700D02*Y113300D01*
X231900Y120700D02*Y113300D01*
X232400Y120700D02*Y113300D01*
X232900Y120700D02*Y113300D01*
X216600Y120700D02*X233400D01*
X216600Y113300D02*X233400D01*
X216600Y120700D02*Y113300D01*
X233400Y120700D02*Y113300D01*
X209700Y117000D02*X216600D01*
X233400D02*X240300D01*
X128100Y146500D02*X151900D01*
X128100Y137500D02*X151900D01*
X128100Y146500D02*Y137500D01*
X151900Y146500D02*Y137500D01*
X124700Y142000D02*X128100D01*
X151900D02*X155300D01*
X192500Y134500D02*Y119500D01*
X197500Y134500D02*Y119500D01*
X112500D02*X127500D01*
X112500Y114500D02*X127500D01*
X80646Y106764D02*X84646D01*
X65354D02*X69354D01*
X80646Y77236D02*X84646D01*
X65354D02*X69354D01*
X84646Y106764D02*Y77236D01*
X65354Y106764D02*Y77236D01*
X99764Y136354D02*Y132354D01*
Y151646D02*Y147646D01*
X70236Y136354D02*Y132354D01*
Y151646D02*Y147646D01*
Y132354D02*X99764D01*
X70236Y151646D02*X99764D01*
X53000Y103900D02*Y80100D01*
X62000Y103900D02*Y80100D01*
X53000D02*X62000D01*
X53000Y103900D02*X62000D01*
X57500Y80100D02*Y76700D01*
Y107300D02*Y103900D01*
X44500D02*Y80100D01*
X35500Y103900D02*Y80100D01*
Y103900D02*X44500D01*
X35500Y80100D02*X44500D01*
X40000Y107300D02*Y103900D01*
Y80100D02*Y76700D01*
X6378Y150780D02*X53622D01*
Y133221D01*
X43622Y123221D02*X16378D01*
X6378Y133221D02*Y150780D01*
X188100Y52500D02*X211900D01*
X188100Y61500D02*X211900D01*
Y52500D01*
X188100Y61500D02*Y52500D01*
X211900Y57000D02*X215300D01*
X188100D02*X184700D01*
X166300Y30600D02*X173700D01*
X166300Y30100D02*X173700D01*
X166300Y29600D02*X173700D01*
X166300Y29100D02*X173700D01*
Y45400D02*Y28600D01*
X166300Y45400D02*Y28600D01*
Y45400D02*X173700D01*
X166300Y28600D02*X173700D01*
X170000Y52300D02*Y45400D01*
Y28600D02*Y21700D01*
X188100Y32500D02*X211900D01*
X188100Y41500D02*X211900D01*
Y32500D01*
X188100Y41500D02*Y32500D01*
X211900Y37000D02*X215300D01*
X188100D02*X184700D01*
X180000Y112000D02*Y97000D01*
Y87000D02*Y72000D01*
Y112000D02*X220000D01*
Y72000D01*
X180000D02*X220000D01*
X180000Y87000D02*G75*G03X180000Y97000I0J5000D01*G01*
X148800Y38100D02*X156200D01*
X148800Y37600D02*X156200D01*
X148800Y37100D02*X156200D01*
X148800Y36600D02*X156200D01*
Y52900D02*Y36100D01*
X148800Y52900D02*Y36100D01*
Y52900D02*X156200D01*
X148800Y36100D02*X156200D01*
X152500Y59800D02*Y52900D01*
Y36100D02*Y29200D01*
X232500Y74500D02*Y59500D01*
X227500Y74500D02*Y59500D01*
X248878Y150780D02*X296122D01*
Y133221D01*
X286122Y123221D02*X258878D01*
X248878Y133221D02*Y150780D01*
X248000Y103900D02*Y80100D01*
X257000Y103900D02*Y80100D01*
X248000D02*X257000D01*
X248000Y103900D02*X257000D01*
X252500Y80100D02*Y76700D01*
Y107300D02*Y103900D01*
X252284Y60937D02*Y53063D01*
X248347Y57000D02*X256221D01*
X260158D02*G75*G03X260158Y57000I9843J0D01*G01*
X297500Y64500D02*Y49500D01*
X292500Y64500D02*Y49500D01*
X260000Y112000D02*Y97000D01*
Y87000D02*Y72000D01*
Y112000D02*X300000D01*
Y72000D01*
X260000D02*X300000D01*
X260000Y87000D02*G75*G03X260000Y97000I0J5000D01*G01*
X311378Y150780D02*X358622D01*
Y133221D01*
X348622Y123221D02*X321378D01*
X311378Y133221D02*Y150780D01*
X358000Y103900D02*Y80100D01*
X367000Y103900D02*Y80100D01*
X358000D02*X367000D01*
X358000Y103900D02*X367000D01*
X362500Y80100D02*Y76700D01*
Y107300D02*Y103900D01*
X373700Y79992D02*X376700D01*
X383300D02*X386300D01*
X373700Y104008D02*Y79992D01*
Y104008D02*X376700D01*
X383300D02*X386300D01*
Y79992D01*
G54D26*X372200Y72784D02*X387800D01*
X372200Y111216D02*X387800D01*
Y72784D01*
X372200Y111216D02*Y72784D01*
G54D25*X349500Y103900D02*Y80100D01*
X340500Y103900D02*Y80100D01*
Y103900D02*X349500D01*
X340500Y80100D02*X349500D01*
X345000Y107300D02*Y103900D01*
Y80100D02*Y76700D01*
X277500Y119500D02*X292500D01*
X277500Y114500D02*X292500D01*
X417500Y119500D02*X432500D01*
X417500Y114500D02*X432500D01*
X454500Y103900D02*Y80100D01*
X445500Y103900D02*Y80100D01*
Y103900D02*X454500D01*
X445500Y80100D02*X454500D01*
X450000Y107300D02*Y103900D01*
Y80100D02*Y76700D01*
X460500Y103900D02*Y80100D01*
X469500Y103900D02*Y80100D01*
X460500D02*X469500D01*
X460500Y103900D02*X469500D01*
X465000Y80100D02*Y76700D01*
Y107300D02*Y103900D01*
X471300Y98400D02*X478700D01*
X471300Y98900D02*X478700D01*
X471300Y99400D02*X478700D01*
X471300Y99900D02*X478700D01*
X471300Y100400D02*Y83600D01*
X478700Y100400D02*Y83600D01*
X471300D02*X478700D01*
X471300Y100400D02*X478700D01*
X475000Y83600D02*Y76700D01*
Y107300D02*Y100400D01*
X433100Y146500D02*X456900D01*
X433100Y137500D02*X456900D01*
X433100Y146500D02*Y137500D01*
X456900Y146500D02*Y137500D01*
X429700Y142000D02*X433100D01*
X456900D02*X460300D01*
X400000Y112000D02*Y97000D01*
Y87000D02*Y72000D01*
Y112000D02*X440000D01*
Y72000D01*
X400000D02*X440000D01*
X400000Y87000D02*G75*G03X400000Y97000I0J5000D01*G01*
X437500Y64500D02*Y49500D01*
X432500Y64500D02*Y49500D01*
X453800Y38100D02*X461200D01*
X453800Y37600D02*X461200D01*
X453800Y37100D02*X461200D01*
X453800Y36600D02*X461200D01*
Y52900D02*Y36100D01*
X453800Y52900D02*Y36100D01*
Y52900D02*X461200D01*
X453800Y36100D02*X461200D01*
X457500Y59800D02*Y52900D01*
Y36100D02*Y29200D01*
X348100Y50000D02*X371900D01*
X348100Y59000D02*X371900D01*
Y50000D01*
X348100Y59000D02*Y50000D01*
X371900Y54500D02*X375300D01*
X344700D02*X348100D01*
X493100Y52500D02*X516900D01*
X493100Y61500D02*X516900D01*
Y52500D01*
X493100Y61500D02*Y52500D01*
X516900Y57000D02*X520300D01*
X493100D02*X489700D01*
X471300Y30600D02*X478700D01*
X471300Y30100D02*X478700D01*
X471300Y29600D02*X478700D01*
X471300Y29100D02*X478700D01*
Y45400D02*Y28600D01*
X471300Y45400D02*Y28600D01*
Y45400D02*X478700D01*
X471300Y28600D02*X478700D01*
X475000Y52300D02*Y45400D01*
Y28600D02*Y21700D01*
X493100Y32500D02*X516900D01*
X493100Y41500D02*X516900D01*
Y32500D01*
X493100Y41500D02*Y32500D01*
X516900Y37000D02*X520300D01*
X493100D02*X489700D01*
X377992Y145300D02*Y148300D01*
Y138700D02*Y135700D01*
Y148300D02*X402008D01*
Y145300D02*Y148300D01*
Y138700D02*Y135700D01*
X377992D01*
G54D26*X370784Y149800D02*Y134200D01*
X409216Y149800D02*Y134200D01*
X370784D01*
Y149800D02*X409216D01*
G54D25*X537500Y74500D02*Y59500D01*
X532500Y74500D02*Y59500D01*
X553000Y103900D02*Y80100D01*
X562000Y103900D02*Y80100D01*
X553000D02*X562000D01*
X553000Y103900D02*X562000D01*
X557500Y80100D02*Y76700D01*
Y107300D02*Y103900D01*
X536400Y120700D02*Y113300D01*
X536900Y120700D02*Y113300D01*
X537400Y120700D02*Y113300D01*
X537900Y120700D02*Y113300D01*
X521600Y120700D02*X538400D01*
X521600Y113300D02*X538400D01*
X521600Y120700D02*Y113300D01*
X538400Y120700D02*Y113300D01*
X514700Y117000D02*X521600D01*
X538400D02*X545300D01*
X497500Y134500D02*Y119500D01*
X502500Y134500D02*Y119500D01*
X485000Y112000D02*Y97000D01*
Y87000D02*Y72000D01*
Y112000D02*X525000D01*
Y72000D01*
X485000D02*X525000D01*
X485000Y87000D02*G75*G03X485000Y97000I0J5000D01*G01*
X565000Y112000D02*Y97000D01*
Y87000D02*Y72000D01*
Y112000D02*X605000D01*
Y72000D01*
X565000D02*X605000D01*
X565000Y87000D02*G75*G03X565000Y97000I0J5000D01*G01*
X553878Y150780D02*X601122D01*
Y133221D01*
X591122Y123221D02*X563878D01*
X553878Y133221D02*Y150780D01*
X582500Y119500D02*X597500D01*
X582500Y114500D02*X597500D01*
X557284Y60937D02*Y53063D01*
X553347Y57000D02*X561221D01*
X565158D02*G75*G03X565158Y57000I9843J0D01*G01*
X602500Y64500D02*Y49500D01*
X597500Y64500D02*Y49500D01*
X615000Y159500D02*X605000D01*
X615000D02*Y149500D01*
X422000Y125200D02*X421800Y125600D01*
X421400Y126000D01*
X421000Y126200D01*
X420200D02*X421000D01*
X420200D02*X419800Y126000D01*
X419400Y125600D01*
X419200Y125200D01*
X419000Y124600D01*
Y123600D01*
X419200Y123000D01*
X419400Y122600D01*
X419800Y122200D01*
X420200Y122000D01*
X421000D01*
X421400Y122200D01*
X421800Y122600D01*
X422000Y123000D01*
X425601Y125600D02*X425401Y126000D01*
X424801Y126200D01*
X424401D02*X424801D01*
X424401D02*X423801Y126000D01*
X423401Y125400D01*
X423201Y124400D01*
Y123400D01*
X423401Y122600D01*
X423801Y122200D01*
X424401Y122000D01*
X424601D01*
X425201Y122200D01*
X425601Y122600D01*
X425801Y123200D01*
Y123400D02*Y123200D01*
Y123400D02*X425601Y124000D01*
X425201Y124400D01*
X424601Y124600D01*
X424401D02*X424601D01*
X424401D02*X423801Y124400D01*
X423401Y124000D01*
X423201Y123400D01*
X427402Y126200D02*X429402D01*
X427402D02*X427202Y124400D01*
X427402Y124600D01*
X428002Y124800D01*
X428602D01*
X429202Y124600D01*
X429602Y124200D01*
X429802Y123600D01*
Y123200D01*
X429602Y122600D01*
X429202Y122200D01*
X428602Y122000D01*
X428002D02*X428602D01*
X428002D02*X427402Y122200D01*
X427202Y122400D01*
X427002Y122800D01*
X431403Y126200D02*X433403D01*
X431403D02*X431203Y124400D01*
X431403Y124600D01*
X432003Y124800D01*
X432603D01*
X433203Y124600D01*
X433603Y124200D01*
X433803Y123600D01*
Y123200D01*
X433603Y122600D01*
X433203Y122200D01*
X432603Y122000D01*
X432003D02*X432603D01*
X432003D02*X431403Y122200D01*
X431203Y122400D01*
X431003Y122800D01*
X445800Y117000D02*X450000D01*
X445800Y118800D02*Y117000D01*
Y118800D02*X446000Y119400D01*
X446200Y119600D01*
X446600Y119800D01*
X447000D01*
X447400Y119600D01*
X447600Y119400D01*
X447800Y118800D01*
Y117000D01*
Y118400D02*X450000Y119800D01*
X446400Y123401D02*X446000Y123201D01*
X445800Y122601D01*
Y122201D01*
X446000Y121601D01*
X446600Y121201D01*
X447600Y121001D01*
X448600D01*
X449400Y121201D01*
X449800Y121601D01*
X450000Y122201D01*
Y122401D02*Y122201D01*
Y122401D02*X449800Y123001D01*
X449400Y123401D01*
X448800Y123601D01*
X448600D02*X448800D01*
X448600D02*X448000Y123401D01*
X447600Y123001D01*
X447400Y122401D01*
Y122201D01*
X447600Y121601D01*
X448000Y121201D01*
X448600Y121001D01*
X445800Y127202D02*Y125202D01*
X447600Y125002D01*
X447400Y125202D01*
X447200Y125802D01*
Y126402D02*Y125802D01*
Y126402D02*X447400Y127002D01*
X447800Y127402D01*
X448400Y127602D01*
X448800D01*
X449400Y127402D01*
X449800Y127002D01*
X450000Y126402D01*
Y125802D01*
X449800Y125202D01*
X449600Y125002D01*
X449200Y124802D01*
X446400Y131203D02*X446000Y131003D01*
X445800Y130403D01*
Y130003D01*
X446000Y129403D01*
X446600Y129003D01*
X447600Y128803D01*
X448600D01*
X449400Y129003D01*
X449800Y129403D01*
X450000Y130003D01*
Y130203D02*Y130003D01*
Y130203D02*X449800Y130803D01*
X449400Y131203D01*
X448800Y131403D01*
X448600D02*X448800D01*
X448600D02*X448000Y131203D01*
X447600Y130803D01*
X447400Y130203D01*
Y130003D01*
X447600Y129403D01*
X448000Y129003D01*
X448600Y128803D01*
X460800Y117000D02*X465000D01*
X460800Y118800D02*Y117000D01*
Y118800D02*X461000Y119400D01*
X461200Y119600D01*
X461600Y119800D01*
X462000D01*
X462400Y119600D01*
X462600Y119400D01*
X462800Y118800D01*
Y117000D01*
Y118400D02*X465000Y119800D01*
X461400Y123401D02*X461000Y123201D01*
X460800Y122601D01*
Y122201D01*
X461000Y121601D01*
X461600Y121201D01*
X462600Y121001D01*
X463600D01*
X464400Y121201D01*
X464800Y121601D01*
X465000Y122201D01*
Y122401D02*Y122201D01*
Y122401D02*X464800Y123001D01*
X464400Y123401D01*
X463800Y123601D01*
X463600D02*X463800D01*
X463600D02*X463000Y123401D01*
X462600Y123001D01*
X462400Y122401D01*
Y122201D01*
X462600Y121601D01*
X463000Y121201D01*
X463600Y121001D01*
X460800Y127202D02*Y125202D01*
X462600Y125002D01*
X462400Y125202D01*
X462200Y125802D01*
Y126402D02*Y125802D01*
Y126402D02*X462400Y127002D01*
X462800Y127402D01*
X463400Y127602D01*
X463800D01*
X464400Y127402D01*
X464800Y127002D01*
X465000Y126402D01*
Y125802D01*
X464800Y125202D01*
X464600Y125002D01*
X464200Y124802D01*
X460800Y131603D02*X465000Y129603D01*
X460800Y131603D02*Y128803D01*
X473300Y118000D02*X477500D01*
X473300Y119400D02*Y118000D01*
Y119400D02*X473500Y120000D01*
X473900Y120400D01*
X474300Y120600D01*
X474900Y120800D01*
X475900D01*
X476500Y120600D01*
X476900Y120400D01*
X477300Y120000D01*
X477500Y119400D01*
Y118000D01*
X473900Y124401D02*X473500Y124201D01*
X473300Y123601D01*
Y123201D01*
X473500Y122601D01*
X474100Y122201D01*
X475100Y122001D01*
X476100D01*
X476900Y122201D01*
X477300Y122601D01*
X477500Y123201D01*
Y123401D02*Y123201D01*
Y123401D02*X477300Y124001D01*
X476900Y124401D01*
X476300Y124601D01*
X476100D02*X476300D01*
X476100D02*X475500Y124401D01*
X475100Y124001D01*
X474900Y123401D01*
Y123201D01*
X475100Y122601D01*
X475500Y122201D01*
X476100Y122001D01*
X473300Y128202D02*Y126202D01*
X475100Y126002D01*
X474900Y126202D01*
X474700Y126802D01*
Y127402D02*Y126802D01*
Y127402D02*X474900Y128002D01*
X475300Y128402D01*
X475900Y128602D01*
X476300D01*
X476900Y128402D01*
X477300Y128002D01*
X477500Y127402D01*
Y126802D01*
X477300Y126202D01*
X477100Y126002D01*
X476700Y125802D01*
X474100Y129803D02*X473900Y130203D01*
X473300Y130803D01*
X477500D01*
X434500Y153200D02*Y149000D01*
Y153200D02*X436300D01*
X436900Y153000D01*
X437100Y152800D01*
X437300Y152400D01*
Y152000D01*
X437100Y151600D01*
X436900Y151400D01*
X436300Y151200D01*
X434500D02*X436300D01*
X435900D02*X437300Y149000D01*
X440901Y152600D02*X440701Y153000D01*
X440101Y153200D01*
X439701D02*X440101D01*
X439701D02*X439101Y153000D01*
X438701Y152400D01*
X438501Y151400D01*
Y150400D01*
X438701Y149600D01*
X439101Y149200D01*
X439701Y149000D01*
X439901D01*
X440501Y149200D01*
X440901Y149600D01*
X441101Y150200D01*
Y150400D02*Y150200D01*
Y150400D02*X440901Y151000D01*
X440501Y151400D01*
X439901Y151600D01*
X439701D02*X439901D01*
X439701D02*X439101Y151400D01*
X438701Y151000D01*
X438501Y150400D01*
X442702Y153200D02*X444702D01*
X442702D02*X442502Y151400D01*
X442702Y151600D01*
X443302Y151800D01*
X443902D01*
X444502Y151600D01*
X444902Y151200D01*
X445102Y150600D01*
Y150200D01*
X444902Y149600D01*
X444502Y149200D01*
X443902Y149000D01*
X443302D02*X443902D01*
X443302D02*X442702Y149200D01*
X442502Y149400D01*
X442302Y149800D01*
X446703Y153200D02*X448703D01*
X446703D02*X446503Y151400D01*
X446703Y151600D01*
X447303Y151800D01*
X447903D01*
X448503Y151600D01*
X448903Y151200D01*
X449103Y150600D01*
Y150200D01*
X448903Y149600D01*
X448503Y149200D01*
X447903Y149000D01*
X447303D02*X447903D01*
X447303D02*X446703Y149200D01*
X446503Y149400D01*
X446303Y149800D01*
X491800Y124000D02*X491400Y123800D01*
X491000Y123400D01*
X490800Y123000D01*
Y122200D01*
X491000Y121800D01*
X491400Y121400D01*
X491800Y121200D01*
X492400Y121000D01*
X493400D01*
X494000Y121200D01*
X494400Y121400D01*
X494800Y121800D01*
X495000Y122200D01*
Y123000D02*Y122200D01*
Y123000D02*X494800Y123400D01*
X494400Y123800D01*
X494000Y124000D01*
X491400Y127601D02*X491000Y127401D01*
X490800Y126801D01*
Y126401D01*
X491000Y125801D01*
X491600Y125401D01*
X492600Y125201D01*
X493600D01*
X494400Y125401D01*
X494800Y125801D01*
X495000Y126401D01*
Y126601D02*Y126401D01*
Y126601D02*X494800Y127201D01*
X494400Y127601D01*
X493800Y127801D01*
X493600D02*X493800D01*
X493600D02*X493000Y127601D01*
X492600Y127201D01*
X492400Y126601D01*
Y126401D01*
X492600Y125801D01*
X493000Y125401D01*
X493600Y125201D01*
X490800Y131402D02*Y129402D01*
X492600Y129202D01*
X492400Y129402D01*
X492200Y130002D01*
Y130602D02*Y130002D01*
Y130602D02*X492400Y131202D01*
X492800Y131602D01*
X493400Y131802D01*
X493800D01*
X494400Y131602D01*
X494800Y131202D01*
X495000Y130602D01*
Y130002D01*
X494800Y129402D01*
X494600Y129202D01*
X494200Y129002D01*
X490800Y135803D02*X495000Y133803D01*
X490800Y135803D02*Y133003D01*
X311500Y119200D02*Y115000D01*
Y119200D02*X313300D01*
X313900Y119000D01*
X314100Y118800D01*
X314300Y118400D01*
Y118000D01*
X314100Y117600D01*
X313900Y117400D01*
X313300Y117200D01*
X311500D02*X313300D01*
X312900D02*X314300Y115000D01*
X317901Y118600D02*X317701Y119000D01*
X317101Y119200D01*
X316701D02*X317101D01*
X316701D02*X316101Y119000D01*
X315701Y118400D01*
X315501Y117400D01*
Y116400D01*
X315701Y115600D01*
X316101Y115200D01*
X316701Y115000D01*
X316901D01*
X317501Y115200D01*
X317901Y115600D01*
X318101Y116200D01*
Y116400D02*Y116200D01*
Y116400D02*X317901Y117000D01*
X317501Y117400D01*
X316901Y117600D01*
X316701D02*X316901D01*
X316701D02*X316101Y117400D01*
X315701Y117000D01*
X315501Y116400D01*
X319702Y119200D02*X321702D01*
X319702D02*X319502Y117400D01*
X319702Y117600D01*
X320302Y117800D01*
X320902D01*
X321502Y117600D01*
X321902Y117200D01*
X322102Y116600D01*
Y116200D01*
X321902Y115600D01*
X321502Y115200D01*
X320902Y115000D01*
X320302D02*X320902D01*
X320302D02*X319702Y115200D01*
X319502Y115400D01*
X319302Y115800D01*
X325303Y119200D02*X323303Y116400D01*
X326303D01*
X325303Y119200D02*Y115000D01*
X565500Y118700D02*X565300Y119100D01*
X564900Y119500D01*
X564500Y119700D01*
X563700D02*X564500D01*
X563700D02*X563300Y119500D01*
X562900Y119100D01*
X562700Y118700D01*
X562500Y118100D01*
Y117100D01*
X562700Y116500D01*
X562900Y116100D01*
X563300Y115700D01*
X563700Y115500D01*
X564500D01*
X564900Y115700D01*
X565300Y116100D01*
X565500Y116500D01*
X569101Y119100D02*X568901Y119500D01*
X568301Y119700D01*
X567901D02*X568301D01*
X567901D02*X567301Y119500D01*
X566901Y118900D01*
X566701Y117900D01*
Y116900D01*
X566901Y116100D01*
X567301Y115700D01*
X567901Y115500D01*
X568101D01*
X568701Y115700D01*
X569101Y116100D01*
X569301Y116700D01*
Y116900D02*Y116700D01*
Y116900D02*X569101Y117500D01*
X568701Y117900D01*
X568101Y118100D01*
X567901D02*X568101D01*
X567901D02*X567301Y117900D01*
X566901Y117500D01*
X566701Y116900D01*
X570902Y119700D02*X572902D01*
X570902D02*X570702Y117900D01*
X570902Y118100D01*
X571502Y118300D01*
X572102D01*
X572702Y118100D01*
X573102Y117700D01*
X573302Y117100D01*
Y116700D01*
X573102Y116100D01*
X572702Y115700D01*
X572102Y115500D01*
X571502D02*X572102D01*
X571502D02*X570902Y115700D01*
X570702Y115900D01*
X570502Y116300D01*
X577103Y118300D02*X576903Y117700D01*
X576503Y117300D01*
X575903Y117100D01*
X575703D02*X575903D01*
X575703D02*X575103Y117300D01*
X574703Y117700D01*
X574503Y118300D01*
Y118500D02*Y118300D01*
Y118500D02*X574703Y119100D01*
X575103Y119500D01*
X575703Y119700D01*
X575903D01*
X576503Y119500D01*
X576903Y119100D01*
X577103Y118300D01*
Y117300D01*
X576903Y116300D01*
X576503Y115700D01*
X575903Y115500D01*
X575503D02*X575903D01*
X575503D02*X574903Y115700D01*
X574703Y116100D01*
X373500Y115700D02*X373300Y116100D01*
X372900Y116500D01*
X372500Y116700D01*
X371700D02*X372500D01*
X371700D02*X371300Y116500D01*
X370900Y116100D01*
X370700Y115700D01*
X370500Y115100D01*
Y114100D01*
X370700Y113500D01*
X370900Y113100D01*
X371300Y112700D01*
X371700Y112500D01*
X372500D01*
X372900Y112700D01*
X373300Y113100D01*
X373500Y113500D01*
X377101Y116100D02*X376901Y116500D01*
X376301Y116700D01*
X375901D02*X376301D01*
X375901D02*X375301Y116500D01*
X374901Y115900D01*
X374701Y114900D01*
Y113900D01*
X374901Y113100D01*
X375301Y112700D01*
X375901Y112500D01*
X376101D01*
X376701Y112700D01*
X377101Y113100D01*
X377301Y113700D01*
Y113900D02*Y113700D01*
Y113900D02*X377101Y114500D01*
X376701Y114900D01*
X376101Y115100D01*
X375901D02*X376101D01*
X375901D02*X375301Y114900D01*
X374901Y114500D01*
X374701Y113900D01*
X378902Y116700D02*X380902D01*
X378902D02*X378702Y114900D01*
X378902Y115100D01*
X379502Y115300D01*
X380102D01*
X380702Y115100D01*
X381102Y114700D01*
X381302Y114100D01*
Y113700D01*
X381102Y113100D01*
X380702Y112700D01*
X380102Y112500D01*
X379502D02*X380102D01*
X379502D02*X378902Y112700D01*
X378702Y112900D01*
X378502Y113300D01*
X382703Y115900D02*Y115700D01*
Y115900D02*X382903Y116300D01*
X383103Y116500D01*
X383503Y116700D01*
X384303D01*
X384703Y116500D01*
X384903Y116300D01*
X385103Y115900D01*
Y115500D01*
X384903Y115100D01*
X384503Y114500D01*
X382503Y112500D01*
X385303D01*
X427300Y53500D02*X426900Y53300D01*
X426500Y52900D01*
X426300Y52500D01*
Y51700D01*
X426500Y51300D01*
X426900Y50900D01*
X427300Y50700D01*
X427900Y50500D01*
X428900D01*
X429500Y50700D01*
X429900Y50900D01*
X430300Y51300D01*
X430500Y51700D01*
Y52500D02*Y51700D01*
Y52500D02*X430300Y52900D01*
X429900Y53300D01*
X429500Y53500D01*
X426900Y57101D02*X426500Y56901D01*
X426300Y56301D01*
Y55901D01*
X426500Y55301D01*
X427100Y54901D01*
X428100Y54701D01*
X429100D01*
X429900Y54901D01*
X430300Y55301D01*
X430500Y55901D01*
Y56101D02*Y55901D01*
Y56101D02*X430300Y56701D01*
X429900Y57101D01*
X429300Y57301D01*
X429100D02*X429300D01*
X429100D02*X428500Y57101D01*
X428100Y56701D01*
X427900Y56101D01*
Y55901D01*
X428100Y55301D01*
X428500Y54901D01*
X429100Y54701D01*
X426300Y60902D02*Y58902D01*
X428100Y58702D01*
X427900Y58902D01*
X427700Y59502D01*
Y60102D02*Y59502D01*
Y60102D02*X427900Y60702D01*
X428300Y61102D01*
X428900Y61302D01*
X429300D01*
X429900Y61102D01*
X430300Y60702D01*
X430500Y60102D01*
Y59502D01*
X430300Y58902D01*
X430100Y58702D01*
X429700Y58502D01*
X426300Y64503D02*X429100Y62503D01*
Y65503D02*Y62503D01*
X426300Y64503D02*X430500D01*
X351300Y81500D02*X355500D01*
X351300Y83300D02*Y81500D01*
Y83300D02*X351500Y83900D01*
X351700Y84100D01*
X352100Y84300D01*
X352500D01*
X352900Y84100D01*
X353100Y83900D01*
X353300Y83300D01*
Y81500D01*
Y82900D02*X355500Y84300D01*
X351900Y87901D02*X351500Y87701D01*
X351300Y87101D01*
Y86701D01*
X351500Y86101D01*
X352100Y85701D01*
X353100Y85501D01*
X354100D01*
X354900Y85701D01*
X355300Y86101D01*
X355500Y86701D01*
Y86901D02*Y86701D01*
Y86901D02*X355300Y87501D01*
X354900Y87901D01*
X354300Y88101D01*
X354100D02*X354300D01*
X354100D02*X353500Y87901D01*
X353100Y87501D01*
X352900Y86901D01*
Y86701D01*
X353100Y86101D01*
X353500Y85701D01*
X354100Y85501D01*
X351300Y91702D02*Y89702D01*
X353100Y89502D01*
X352900Y89702D01*
X352700Y90302D01*
Y90902D02*Y90302D01*
Y90902D02*X352900Y91502D01*
X353300Y91902D01*
X353900Y92102D01*
X354300D01*
X354900Y91902D01*
X355300Y91502D01*
X355500Y90902D01*
Y90302D01*
X355300Y89702D01*
X355100Y89502D01*
X354700Y89302D01*
X352100Y93503D02*X352300D01*
X352100D02*X351700Y93703D01*
X351500Y93903D01*
X351300Y94303D01*
Y95103D02*Y94303D01*
Y95103D02*X351500Y95503D01*
X351700Y95703D01*
X352100Y95903D01*
X352500D01*
X352900Y95703D01*
X353500Y95303D01*
X355500Y93303D01*
Y96103D02*Y93303D01*
X333800Y81500D02*X338000D01*
X333800Y83300D02*Y81500D01*
Y83300D02*X334000Y83900D01*
X334200Y84100D01*
X334600Y84300D01*
X335000D01*
X335400Y84100D01*
X335600Y83900D01*
X335800Y83300D01*
Y81500D01*
Y82900D02*X338000Y84300D01*
X334400Y87901D02*X334000Y87701D01*
X333800Y87101D01*
Y86701D01*
X334000Y86101D01*
X334600Y85701D01*
X335600Y85501D01*
X336600D01*
X337400Y85701D01*
X337800Y86101D01*
X338000Y86701D01*
Y86901D02*Y86701D01*
Y86901D02*X337800Y87501D01*
X337400Y87901D01*
X336800Y88101D01*
X336600D02*X336800D01*
X336600D02*X336000Y87901D01*
X335600Y87501D01*
X335400Y86901D01*
Y86701D01*
X335600Y86101D01*
X336000Y85701D01*
X336600Y85501D01*
X333800Y91702D02*Y89702D01*
X335600Y89502D01*
X335400Y89702D01*
X335200Y90302D01*
Y90902D02*Y90302D01*
Y90902D02*X335400Y91502D01*
X335800Y91902D01*
X336400Y92102D01*
X336800D01*
X337400Y91902D01*
X337800Y91502D01*
X338000Y90902D01*
Y90302D01*
X337800Y89702D01*
X337600Y89502D01*
X337200Y89302D01*
X334600Y93303D02*X334400Y93703D01*
X333800Y94303D01*
X338000D01*
X393300Y98000D02*X396300D01*
X396900Y98200D01*
X397300Y98600D01*
X397500Y99200D01*
Y99600D02*Y99200D01*
Y99600D02*X397300Y100200D01*
X396900Y100600D01*
X396300Y100800D01*
X393300D02*X396300D01*
X393900Y104401D02*X393500Y104201D01*
X393300Y103601D01*
Y103201D01*
X393500Y102601D01*
X394100Y102201D01*
X395100Y102001D01*
X396100D01*
X396900Y102201D01*
X397300Y102601D01*
X397500Y103201D01*
Y103401D02*Y103201D01*
Y103401D02*X397300Y104001D01*
X396900Y104401D01*
X396300Y104601D01*
X396100D02*X396300D01*
X396100D02*X395500Y104401D01*
X395100Y104001D01*
X394900Y103401D01*
Y103201D01*
X395100Y102601D01*
X395500Y102201D01*
X396100Y102001D01*
X393300Y108202D02*Y106202D01*
X395100Y106002D01*
X394900Y106202D01*
X394700Y106802D01*
Y107402D02*Y106802D01*
Y107402D02*X394900Y108002D01*
X395300Y108402D01*
X395900Y108602D01*
X396300D01*
X396900Y108402D01*
X397300Y108002D01*
X397500Y107402D01*
Y106802D01*
X397300Y106202D01*
X397100Y106002D01*
X396700Y105802D01*
X394100Y109803D02*X393900Y110203D01*
X393300Y110803D01*
X397500D01*
X349500Y65700D02*Y61500D01*
Y65700D02*X351300D01*
X351900Y65500D01*
X352100Y65300D01*
X352300Y64900D01*
Y64500D01*
X352100Y64100D01*
X351900Y63900D01*
X351300Y63700D01*
X349500D02*X351300D01*
X350900D02*X352300Y61500D01*
X355901Y65100D02*X355701Y65500D01*
X355101Y65700D01*
X354701D02*X355101D01*
X354701D02*X354101Y65500D01*
X353701Y64900D01*
X353501Y63900D01*
Y62900D01*
X353701Y62100D01*
X354101Y61700D01*
X354701Y61500D01*
X354901D01*
X355501Y61700D01*
X355901Y62100D01*
X356101Y62700D01*
Y62900D02*Y62700D01*
Y62900D02*X355901Y63500D01*
X355501Y63900D01*
X354901Y64100D01*
X354701D02*X354901D01*
X354701D02*X354101Y63900D01*
X353701Y63500D01*
X353501Y62900D01*
X357702Y65700D02*X359702D01*
X357702D02*X357502Y63900D01*
X357702Y64100D01*
X358302Y64300D01*
X358902D01*
X359502Y64100D01*
X359902Y63700D01*
X360102Y63100D01*
Y62700D01*
X359902Y62100D01*
X359502Y61700D01*
X358902Y61500D01*
X358302D02*X358902D01*
X358302D02*X357702Y61700D01*
X357502Y61900D01*
X357302Y62300D01*
X361703Y65700D02*X363903D01*
X362703Y64100D01*
X363303D01*
X363703Y63900D01*
X363903Y63700D01*
X364103Y63100D01*
Y62700D01*
X363903Y62100D01*
X363503Y61700D01*
X362903Y61500D01*
X362303D02*X362903D01*
X362303D02*X361703Y61700D01*
X361503Y61900D01*
X361303Y62300D01*
X498500Y68200D02*Y64000D01*
Y68200D02*X500300D01*
X500900Y68000D01*
X501100Y67800D01*
X501300Y67400D01*
Y67000D01*
X501100Y66600D01*
X500900Y66400D01*
X500300Y66200D01*
X498500D02*X500300D01*
X499900D02*X501300Y64000D01*
X504901Y67600D02*X504701Y68000D01*
X504101Y68200D01*
X503701D02*X504101D01*
X503701D02*X503101Y68000D01*
X502701Y67400D01*
X502501Y66400D01*
Y65400D01*
X502701Y64600D01*
X503101Y64200D01*
X503701Y64000D01*
X503901D01*
X504501Y64200D01*
X504901Y64600D01*
X505101Y65200D01*
Y65400D02*Y65200D01*
Y65400D02*X504901Y66000D01*
X504501Y66400D01*
X503901Y66600D01*
X503701D02*X503901D01*
X503701D02*X503101Y66400D01*
X502701Y66000D01*
X502501Y65400D01*
X506702Y68200D02*X508702D01*
X506702D02*X506502Y66400D01*
X506702Y66600D01*
X507302Y66800D01*
X507902D01*
X508502Y66600D01*
X508902Y66200D01*
X509102Y65600D01*
Y65200D01*
X508902Y64600D01*
X508502Y64200D01*
X507902Y64000D01*
X507302D02*X507902D01*
X507302D02*X506702Y64200D01*
X506502Y64400D01*
X506302Y64800D01*
X511303Y68200D02*X510703Y68000D01*
X510503Y67600D01*
Y67200D01*
X510703Y66800D01*
X511103Y66600D01*
X511903Y66400D01*
X512503Y66200D01*
X512903Y65800D01*
X513103Y65400D01*
Y64800D01*
X512903Y64400D01*
X512703Y64200D01*
X512103Y64000D01*
X511303D02*X512103D01*
X511303D02*X510703Y64200D01*
X510503Y64400D01*
X510303Y64800D01*
Y65400D02*Y64800D01*
Y65400D02*X510503Y65800D01*
X510903Y66200D01*
X511503Y66400D01*
X512303Y66600D01*
X512703Y66800D01*
X512903Y67200D01*
Y67600D02*Y67200D01*
Y67600D02*X512703Y68000D01*
X512103Y68200D01*
X511303D02*X512103D01*
X375500Y126700D02*X375300Y127100D01*
X374900Y127500D01*
X374500Y127700D01*
X373700D02*X374500D01*
X373700D02*X373300Y127500D01*
X372900Y127100D01*
X372700Y126700D01*
X372500Y126100D01*
Y125100D01*
X372700Y124500D01*
X372900Y124100D01*
X373300Y123700D01*
X373700Y123500D01*
X374500D01*
X374900Y123700D01*
X375300Y124100D01*
X375500Y124500D01*
X379101Y127100D02*X378901Y127500D01*
X378301Y127700D01*
X377901D02*X378301D01*
X377901D02*X377301Y127500D01*
X376901Y126900D01*
X376701Y125900D01*
Y124900D01*
X376901Y124100D01*
X377301Y123700D01*
X377901Y123500D01*
X378101D01*
X378701Y123700D01*
X379101Y124100D01*
X379301Y124700D01*
Y124900D02*Y124700D01*
Y124900D02*X379101Y125500D01*
X378701Y125900D01*
X378101Y126100D01*
X377901D02*X378101D01*
X377901D02*X377301Y125900D01*
X376901Y125500D01*
X376701Y124900D01*
X380902Y127700D02*X382902D01*
X380902D02*X380702Y125900D01*
X380902Y126100D01*
X381502Y126300D01*
X382102D01*
X382702Y126100D01*
X383102Y125700D01*
X383302Y125100D01*
Y124700D01*
X383102Y124100D01*
X382702Y123700D01*
X382102Y123500D01*
X381502D02*X382102D01*
X381502D02*X380902Y123700D01*
X380702Y123900D01*
X380502Y124300D01*
X384503Y126900D02*X384903Y127100D01*
X385503Y127700D01*
Y123500D01*
X44500Y65700D02*Y61500D01*
Y65700D02*X46300D01*
X46900Y65500D01*
X47100Y65300D01*
X47300Y64900D01*
Y64500D01*
X47100Y64100D01*
X46900Y63900D01*
X46300Y63700D01*
X44500D02*X46300D01*
X45900D02*X47300Y61500D01*
X50901Y65100D02*X50701Y65500D01*
X50101Y65700D01*
X49701D02*X50101D01*
X49701D02*X49101Y65500D01*
X48701Y64900D01*
X48501Y63900D01*
Y62900D01*
X48701Y62100D01*
X49101Y61700D01*
X49701Y61500D01*
X49901D01*
X50501Y61700D01*
X50901Y62100D01*
X51101Y62700D01*
Y62900D02*Y62700D01*
Y62900D02*X50901Y63500D01*
X50501Y63900D01*
X49901Y64100D01*
X49701D02*X49901D01*
X49701D02*X49101Y63900D01*
X48701Y63500D01*
X48501Y62900D01*
X53502Y65700D02*X52902Y65500D01*
X52502Y64900D01*
X52302Y63900D01*
Y63300D01*
X52502Y62300D01*
X52902Y61700D01*
X53502Y61500D01*
X53902D01*
X54502Y61700D01*
X54902Y62300D01*
X55102Y63300D01*
Y63900D02*Y63300D01*
Y63900D02*X54902Y64900D01*
X54502Y65500D01*
X53902Y65700D01*
X53502D02*X53902D01*
X56703D02*X58903D01*
X57703Y64100D01*
X58303D01*
X58703Y63900D01*
X58903Y63700D01*
X59103Y63100D01*
Y62700D01*
X58903Y62100D01*
X58503Y61700D01*
X57903Y61500D01*
X57303D02*X57903D01*
X57303D02*X56703Y61700D01*
X56503Y61900D01*
X56303Y62300D01*
X95000Y9700D02*Y5500D01*
Y9700D02*X96800D01*
X97400Y9500D01*
X97600Y9300D01*
X97800Y8900D01*
Y8300D01*
X97600Y7900D01*
X97400Y7700D01*
X96800Y7500D01*
X95000D02*X96800D01*
X101401Y9100D02*X101201Y9500D01*
X100601Y9700D01*
X100201D02*X100601D01*
X100201D02*X99601Y9500D01*
X99201Y8900D01*
X99001Y7900D01*
Y6900D01*
X99201Y6100D01*
X99601Y5700D01*
X100201Y5500D01*
X100401D01*
X101001Y5700D01*
X101401Y6100D01*
X101601Y6700D01*
Y6900D02*Y6700D01*
Y6900D02*X101401Y7500D01*
X101001Y7900D01*
X100401Y8100D01*
X100201D02*X100401D01*
X100201D02*X99601Y7900D01*
X99201Y7500D01*
X99001Y6900D01*
X104002Y9700D02*X103402Y9500D01*
X103002Y8900D01*
X102802Y7900D01*
Y7300D01*
X103002Y6300D01*
X103402Y5700D01*
X104002Y5500D01*
X104402D01*
X105002Y5700D01*
X105402Y6300D01*
X105602Y7300D01*
Y7900D02*Y7300D01*
Y7900D02*X105402Y8900D01*
X105002Y9500D01*
X104402Y9700D01*
X104002D02*X104402D01*
X106803Y8900D02*X107203Y9100D01*
X107803Y9700D01*
Y5500D01*
X68500Y115700D02*X68300Y116100D01*
X67900Y116500D01*
X67500Y116700D01*
X66700D02*X67500D01*
X66700D02*X66300Y116500D01*
X65900Y116100D01*
X65700Y115700D01*
X65500Y115100D01*
Y114100D01*
X65700Y113500D01*
X65900Y113100D01*
X66300Y112700D01*
X66700Y112500D01*
X67500D01*
X67900Y112700D01*
X68300Y113100D01*
X68500Y113500D01*
X72101Y116100D02*X71901Y116500D01*
X71301Y116700D01*
X70901D02*X71301D01*
X70901D02*X70301Y116500D01*
X69901Y115900D01*
X69701Y114900D01*
Y113900D01*
X69901Y113100D01*
X70301Y112700D01*
X70901Y112500D01*
X71101D01*
X71701Y112700D01*
X72101Y113100D01*
X72301Y113700D01*
Y113900D02*Y113700D01*
Y113900D02*X72101Y114500D01*
X71701Y114900D01*
X71101Y115100D01*
X70901D02*X71101D01*
X70901D02*X70301Y114900D01*
X69901Y114500D01*
X69701Y113900D01*
X74702Y116700D02*X74102Y116500D01*
X73702Y115900D01*
X73502Y114900D01*
Y114300D01*
X73702Y113300D01*
X74102Y112700D01*
X74702Y112500D01*
X75102D01*
X75702Y112700D01*
X76102Y113300D01*
X76302Y114300D01*
Y114900D02*Y114300D01*
Y114900D02*X76102Y115900D01*
X75702Y116500D01*
X75102Y116700D01*
X74702D02*X75102D01*
X77703Y115900D02*Y115700D01*
Y115900D02*X77903Y116300D01*
X78103Y116500D01*
X78503Y116700D01*
X79303D01*
X79703Y116500D01*
X79903Y116300D01*
X80103Y115900D01*
Y115500D01*
X79903Y115100D01*
X79503Y114500D01*
X77503Y112500D01*
X80303D01*
X70500Y126700D02*X70300Y127100D01*
X69900Y127500D01*
X69500Y127700D01*
X68700D02*X69500D01*
X68700D02*X68300Y127500D01*
X67900Y127100D01*
X67700Y126700D01*
X67500Y126100D01*
Y125100D01*
X67700Y124500D01*
X67900Y124100D01*
X68300Y123700D01*
X68700Y123500D01*
X69500D01*
X69900Y123700D01*
X70300Y124100D01*
X70500Y124500D01*
X74101Y127100D02*X73901Y127500D01*
X73301Y127700D01*
X72901D02*X73301D01*
X72901D02*X72301Y127500D01*
X71901Y126900D01*
X71701Y125900D01*
Y124900D01*
X71901Y124100D01*
X72301Y123700D01*
X72901Y123500D01*
X73101D01*
X73701Y123700D01*
X74101Y124100D01*
X74301Y124700D01*
Y124900D02*Y124700D01*
Y124900D02*X74101Y125500D01*
X73701Y125900D01*
X73101Y126100D01*
X72901D02*X73101D01*
X72901D02*X72301Y125900D01*
X71901Y125500D01*
X71701Y124900D01*
X76702Y127700D02*X76102Y127500D01*
X75702Y126900D01*
X75502Y125900D01*
Y125300D01*
X75702Y124300D01*
X76102Y123700D01*
X76702Y123500D01*
X77102D01*
X77702Y123700D01*
X78102Y124300D01*
X78302Y125300D01*
Y125900D02*Y125300D01*
Y125900D02*X78102Y126900D01*
X77702Y127500D01*
X77102Y127700D01*
X76702D02*X77102D01*
X79503Y126900D02*X79903Y127100D01*
X80503Y127700D01*
Y123500D01*
X88300Y98000D02*X91300D01*
X91900Y98200D01*
X92300Y98600D01*
X92500Y99200D01*
Y99600D02*Y99200D01*
Y99600D02*X92300Y100200D01*
X91900Y100600D01*
X91300Y100800D01*
X88300D02*X91300D01*
X88900Y104401D02*X88500Y104201D01*
X88300Y103601D01*
Y103201D01*
X88500Y102601D01*
X89100Y102201D01*
X90100Y102001D01*
X91100D01*
X91900Y102201D01*
X92300Y102601D01*
X92500Y103201D01*
Y103401D02*Y103201D01*
Y103401D02*X92300Y104001D01*
X91900Y104401D01*
X91300Y104601D01*
X91100D02*X91300D01*
X91100D02*X90500Y104401D01*
X90100Y104001D01*
X89900Y103401D01*
Y103201D01*
X90100Y102601D01*
X90500Y102201D01*
X91100Y102001D01*
X88300Y107002D02*X88500Y106402D01*
X89100Y106002D01*
X90100Y105802D01*
X90700D01*
X91700Y106002D01*
X92300Y106402D01*
X92500Y107002D01*
Y107402D02*Y107002D01*
Y107402D02*X92300Y108002D01*
X91700Y108402D01*
X90700Y108602D01*
X90100D02*X90700D01*
X90100D02*X89100Y108402D01*
X88500Y108002D01*
X88300Y107402D01*
Y107002D01*
X89100Y109803D02*X88900Y110203D01*
X88300Y110803D01*
X92500D01*
X46300Y81500D02*X50500D01*
X46300Y83300D02*Y81500D01*
Y83300D02*X46500Y83900D01*
X46700Y84100D01*
X47100Y84300D01*
X47500D01*
X47900Y84100D01*
X48100Y83900D01*
X48300Y83300D01*
Y81500D01*
Y82900D02*X50500Y84300D01*
X46900Y87901D02*X46500Y87701D01*
X46300Y87101D01*
Y86701D01*
X46500Y86101D01*
X47100Y85701D01*
X48100Y85501D01*
X49100D01*
X49900Y85701D01*
X50300Y86101D01*
X50500Y86701D01*
Y86901D02*Y86701D01*
Y86901D02*X50300Y87501D01*
X49900Y87901D01*
X49300Y88101D01*
X49100D02*X49300D01*
X49100D02*X48500Y87901D01*
X48100Y87501D01*
X47900Y86901D01*
Y86701D01*
X48100Y86101D01*
X48500Y85701D01*
X49100Y85501D01*
X46300Y90502D02*X46500Y89902D01*
X47100Y89502D01*
X48100Y89302D01*
X48700D01*
X49700Y89502D01*
X50300Y89902D01*
X50500Y90502D01*
Y90902D02*Y90502D01*
Y90902D02*X50300Y91502D01*
X49700Y91902D01*
X48700Y92102D01*
X48100D02*X48700D01*
X48100D02*X47100Y91902D01*
X46500Y91502D01*
X46300Y90902D01*
Y90502D01*
X47100Y93503D02*X47300D01*
X47100D02*X46700Y93703D01*
X46500Y93903D01*
X46300Y94303D01*
Y95103D02*Y94303D01*
Y95103D02*X46500Y95503D01*
X46700Y95703D01*
X47100Y95903D01*
X47500D01*
X47900Y95703D01*
X48500Y95303D01*
X50500Y93303D01*
Y96103D02*Y93303D01*
X28800Y81500D02*X33000D01*
X28800Y83300D02*Y81500D01*
Y83300D02*X29000Y83900D01*
X29200Y84100D01*
X29600Y84300D01*
X30000D01*
X30400Y84100D01*
X30600Y83900D01*
X30800Y83300D01*
Y81500D01*
Y82900D02*X33000Y84300D01*
X29400Y87901D02*X29000Y87701D01*
X28800Y87101D01*
Y86701D01*
X29000Y86101D01*
X29600Y85701D01*
X30600Y85501D01*
X31600D01*
X32400Y85701D01*
X32800Y86101D01*
X33000Y86701D01*
Y86901D02*Y86701D01*
Y86901D02*X32800Y87501D01*
X32400Y87901D01*
X31800Y88101D01*
X31600D02*X31800D01*
X31600D02*X31000Y87901D01*
X30600Y87501D01*
X30400Y86901D01*
Y86701D01*
X30600Y86101D01*
X31000Y85701D01*
X31600Y85501D01*
X28800Y90502D02*X29000Y89902D01*
X29600Y89502D01*
X30600Y89302D01*
X31200D01*
X32200Y89502D01*
X32800Y89902D01*
X33000Y90502D01*
Y90902D02*Y90502D01*
Y90902D02*X32800Y91502D01*
X32200Y91902D01*
X31200Y92102D01*
X30600D02*X31200D01*
X30600D02*X29600Y91902D01*
X29000Y91502D01*
X28800Y90902D01*
Y90502D01*
X29600Y93303D02*X29400Y93703D01*
X28800Y94303D01*
X33000D01*
X6500Y119200D02*Y115000D01*
Y119200D02*X8300D01*
X8900Y119000D01*
X9100Y118800D01*
X9300Y118400D01*
Y118000D01*
X9100Y117600D01*
X8900Y117400D01*
X8300Y117200D01*
X6500D02*X8300D01*
X7900D02*X9300Y115000D01*
X12901Y118600D02*X12701Y119000D01*
X12101Y119200D01*
X11701D02*X12101D01*
X11701D02*X11101Y119000D01*
X10701Y118400D01*
X10501Y117400D01*
Y116400D01*
X10701Y115600D01*
X11101Y115200D01*
X11701Y115000D01*
X11901D01*
X12501Y115200D01*
X12901Y115600D01*
X13101Y116200D01*
Y116400D02*Y116200D01*
Y116400D02*X12901Y117000D01*
X12501Y117400D01*
X11901Y117600D01*
X11701D02*X11901D01*
X11701D02*X11101Y117400D01*
X10701Y117000D01*
X10501Y116400D01*
X15502Y119200D02*X14902Y119000D01*
X14502Y118400D01*
X14302Y117400D01*
Y116800D01*
X14502Y115800D01*
X14902Y115200D01*
X15502Y115000D01*
X15902D01*
X16502Y115200D01*
X16902Y115800D01*
X17102Y116800D01*
Y117400D02*Y116800D01*
Y117400D02*X16902Y118400D01*
X16502Y119000D01*
X15902Y119200D01*
X15502D02*X15902D01*
X20303D02*X18303Y116400D01*
X21303D01*
X20303Y119200D02*Y115000D01*
X527800Y64000D02*X527400Y63800D01*
X527000Y63400D01*
X526800Y63000D01*
Y62200D01*
X527000Y61800D01*
X527400Y61400D01*
X527800Y61200D01*
X528400Y61000D01*
X529400D01*
X530000Y61200D01*
X530400Y61400D01*
X530800Y61800D01*
X531000Y62200D01*
Y63000D02*Y62200D01*
Y63000D02*X530800Y63400D01*
X530400Y63800D01*
X530000Y64000D01*
X527400Y67601D02*X527000Y67401D01*
X526800Y66801D01*
Y66401D01*
X527000Y65801D01*
X527600Y65401D01*
X528600Y65201D01*
X529600D01*
X530400Y65401D01*
X530800Y65801D01*
X531000Y66401D01*
Y66601D02*Y66401D01*
Y66601D02*X530800Y67201D01*
X530400Y67601D01*
X529800Y67801D01*
X529600D02*X529800D01*
X529600D02*X529000Y67601D01*
X528600Y67201D01*
X528400Y66601D01*
Y66401D01*
X528600Y65801D01*
X529000Y65401D01*
X529600Y65201D01*
X526800Y71402D02*Y69402D01*
X528600Y69202D01*
X528400Y69402D01*
X528200Y70002D01*
Y70602D02*Y70002D01*
Y70602D02*X528400Y71202D01*
X528800Y71602D01*
X529400Y71802D01*
X529800D01*
X530400Y71602D01*
X530800Y71202D01*
X531000Y70602D01*
Y70002D01*
X530800Y69402D01*
X530600Y69202D01*
X530200Y69002D01*
X527400Y75403D02*X527000Y75203D01*
X526800Y74603D01*
Y74203D01*
X527000Y73603D01*
X527600Y73203D01*
X528600Y73003D01*
X529600D01*
X530400Y73203D01*
X530800Y73603D01*
X531000Y74203D01*
Y74403D02*Y74203D01*
Y74403D02*X530800Y75003D01*
X530400Y75403D01*
X529800Y75603D01*
X529600D02*X529800D01*
X529600D02*X529000Y75403D01*
X528600Y75003D01*
X528400Y74403D01*
Y74203D01*
X528600Y73603D01*
X529000Y73203D01*
X529600Y73003D01*
X537500Y150200D02*Y146000D01*
Y150200D02*X539300D01*
X539900Y150000D01*
X540100Y149800D01*
X540300Y149400D01*
Y149000D01*
X540100Y148600D01*
X539900Y148400D01*
X539300Y148200D01*
X537500D02*X539300D01*
X538900D02*X540300Y146000D01*
X543901Y149600D02*X543701Y150000D01*
X543101Y150200D01*
X542701D02*X543101D01*
X542701D02*X542101Y150000D01*
X541701Y149400D01*
X541501Y148400D01*
Y147400D01*
X541701Y146600D01*
X542101Y146200D01*
X542701Y146000D01*
X542901D01*
X543501Y146200D01*
X543901Y146600D01*
X544101Y147200D01*
Y147400D02*Y147200D01*
Y147400D02*X543901Y148000D01*
X543501Y148400D01*
X542901Y148600D01*
X542701D02*X542901D01*
X542701D02*X542101Y148400D01*
X541701Y148000D01*
X541501Y147400D01*
X547702Y149600D02*X547502Y150000D01*
X546902Y150200D01*
X546502D02*X546902D01*
X546502D02*X545902Y150000D01*
X545502Y149400D01*
X545302Y148400D01*
Y147400D01*
X545502Y146600D01*
X545902Y146200D01*
X546502Y146000D01*
X546702D01*
X547302Y146200D01*
X547702Y146600D01*
X547902Y147200D01*
Y147400D02*Y147200D01*
Y147400D02*X547702Y148000D01*
X547302Y148400D01*
X546702Y148600D01*
X546502D02*X546702D01*
X546502D02*X545902Y148400D01*
X545502Y148000D01*
X545302Y147400D01*
X549103Y149400D02*X549503Y149600D01*
X550103Y150200D01*
Y146000D01*
X546300Y81500D02*X550500D01*
X546300Y83300D02*Y81500D01*
Y83300D02*X546500Y83900D01*
X546700Y84100D01*
X547100Y84300D01*
X547500D01*
X547900Y84100D01*
X548100Y83900D01*
X548300Y83300D01*
Y81500D01*
Y82900D02*X550500Y84300D01*
X546900Y87901D02*X546500Y87701D01*
X546300Y87101D01*
Y86701D01*
X546500Y86101D01*
X547100Y85701D01*
X548100Y85501D01*
X549100D01*
X549900Y85701D01*
X550300Y86101D01*
X550500Y86701D01*
Y86901D02*Y86701D01*
Y86901D02*X550300Y87501D01*
X549900Y87901D01*
X549300Y88101D01*
X549100D02*X549300D01*
X549100D02*X548500Y87901D01*
X548100Y87501D01*
X547900Y86901D01*
Y86701D01*
X548100Y86101D01*
X548500Y85701D01*
X549100Y85501D01*
X546300Y91702D02*Y89702D01*
X548100Y89502D01*
X547900Y89702D01*
X547700Y90302D01*
Y90902D02*Y90302D01*
Y90902D02*X547900Y91502D01*
X548300Y91902D01*
X548900Y92102D01*
X549300D01*
X549900Y91902D01*
X550300Y91502D01*
X550500Y90902D01*
Y90302D01*
X550300Y89702D01*
X550100Y89502D01*
X549700Y89302D01*
X547700Y95903D02*X548300Y95703D01*
X548700Y95303D01*
X548900Y94703D01*
Y94503D01*
X548700Y93903D01*
X548300Y93503D01*
X547700Y93303D01*
X547500D02*X547700D01*
X547500D02*X546900Y93503D01*
X546500Y93903D01*
X546300Y94503D01*
Y94703D02*Y94503D01*
Y94703D02*X546500Y95303D01*
X546900Y95703D01*
X547700Y95903D01*
X548700D01*
X549700Y95703D01*
X550300Y95303D01*
X550500Y94703D01*
Y94303D01*
X550300Y93703D01*
X549900Y93503D01*
X522500Y127200D02*Y123000D01*
Y127200D02*X523900D01*
X524500Y127000D01*
X524900Y126600D01*
X525100Y126200D01*
X525300Y125600D01*
Y124600D01*
X525100Y124000D01*
X524900Y123600D01*
X524500Y123200D01*
X523900Y123000D01*
X522500D02*X523900D01*
X528901Y126600D02*X528701Y127000D01*
X528101Y127200D01*
X527701D02*X528101D01*
X527701D02*X527101Y127000D01*
X526701Y126400D01*
X526501Y125400D01*
Y124400D01*
X526701Y123600D01*
X527101Y123200D01*
X527701Y123000D01*
X527901D01*
X528501Y123200D01*
X528901Y123600D01*
X529101Y124200D01*
Y124400D02*Y124200D01*
Y124400D02*X528901Y125000D01*
X528501Y125400D01*
X527901Y125600D01*
X527701D02*X527901D01*
X527701D02*X527101Y125400D01*
X526701Y125000D01*
X526501Y124400D01*
X530702Y127200D02*X532702D01*
X530702D02*X530502Y125400D01*
X530702Y125600D01*
X531302Y125800D01*
X531902D01*
X532502Y125600D01*
X532902Y125200D01*
X533102Y124600D01*
Y124200D01*
X532902Y123600D01*
X532502Y123200D01*
X531902Y123000D01*
X531302D02*X531902D01*
X531302D02*X530702Y123200D01*
X530502Y123400D01*
X530302Y123800D01*
X534503Y126400D02*Y126200D01*
Y126400D02*X534703Y126800D01*
X534903Y127000D01*
X535303Y127200D01*
X536103D01*
X536503Y127000D01*
X536703Y126800D01*
X536903Y126400D01*
Y126000D01*
X536703Y125600D01*
X536303Y125000D01*
X534303Y123000D01*
X537103D01*
X528300Y87000D02*X531300D01*
X531900Y87200D01*
X532300Y87600D01*
X532500Y88200D01*
Y88600D02*Y88200D01*
Y88600D02*X532300Y89200D01*
X531900Y89600D01*
X531300Y89800D01*
X528300D02*X531300D01*
X528900Y93401D02*X528500Y93201D01*
X528300Y92601D01*
Y92201D01*
X528500Y91601D01*
X529100Y91201D01*
X530100Y91001D01*
X531100D01*
X531900Y91201D01*
X532300Y91601D01*
X532500Y92201D01*
Y92401D02*Y92201D01*
Y92401D02*X532300Y93001D01*
X531900Y93401D01*
X531300Y93601D01*
X531100D02*X531300D01*
X531100D02*X530500Y93401D01*
X530100Y93001D01*
X529900Y92401D01*
Y92201D01*
X530100Y91601D01*
X530500Y91201D01*
X531100Y91001D01*
X528300Y97202D02*Y95202D01*
X530100Y95002D01*
X529900Y95202D01*
X529700Y95802D01*
Y96402D02*Y95802D01*
Y96402D02*X529900Y97002D01*
X530300Y97402D01*
X530900Y97602D01*
X531300D01*
X531900Y97402D01*
X532300Y97002D01*
X532500Y96402D01*
Y95802D01*
X532300Y95202D01*
X532100Y95002D01*
X531700Y94802D01*
X529100Y99003D02*X529300D01*
X529100D02*X528700Y99203D01*
X528500Y99403D01*
X528300Y99803D01*
Y100603D02*Y99803D01*
Y100603D02*X528500Y101003D01*
X528700Y101203D01*
X529100Y101403D01*
X529500D01*
X529900Y101203D01*
X530500Y100803D01*
X532500Y98803D01*
Y101603D02*Y98803D01*
X464800Y30000D02*X469000D01*
X464800Y31400D02*Y30000D01*
Y31400D02*X465000Y32000D01*
X465400Y32400D01*
X465800Y32600D01*
X466400Y32800D01*
X467400D01*
X468000Y32600D01*
X468400Y32400D01*
X468800Y32000D01*
X469000Y31400D01*
Y30000D01*
X465400Y36401D02*X465000Y36201D01*
X464800Y35601D01*
Y35201D01*
X465000Y34601D01*
X465600Y34201D01*
X466600Y34001D01*
X467600D01*
X468400Y34201D01*
X468800Y34601D01*
X469000Y35201D01*
Y35401D02*Y35201D01*
Y35401D02*X468800Y36001D01*
X468400Y36401D01*
X467800Y36601D01*
X467600D02*X467800D01*
X467600D02*X467000Y36401D01*
X466600Y36001D01*
X466400Y35401D01*
Y35201D01*
X466600Y34601D01*
X467000Y34201D01*
X467600Y34001D01*
X464800Y40202D02*Y38202D01*
X466600Y38002D01*
X466400Y38202D01*
X466200Y38802D01*
Y39402D02*Y38802D01*
Y39402D02*X466400Y40002D01*
X466800Y40402D01*
X467400Y40602D01*
X467800D01*
X468400Y40402D01*
X468800Y40002D01*
X469000Y39402D01*
Y38802D01*
X468800Y38202D01*
X468600Y38002D01*
X468200Y37802D01*
X464800Y44403D02*Y42203D01*
Y44403D02*X466400Y43203D01*
Y43803D02*Y43203D01*
Y43803D02*X466600Y44203D01*
X466800Y44403D01*
X467400Y44603D01*
X467800D01*
X468400Y44403D01*
X468800Y44003D01*
X469000Y43403D01*
Y42803D01*
X468800Y42203D01*
X468600Y42003D01*
X468200Y41803D01*
X447300Y37500D02*X451500D01*
X447300Y38900D02*Y37500D01*
Y38900D02*X447500Y39500D01*
X447900Y39900D01*
X448300Y40100D01*
X448900Y40300D01*
X449900D01*
X450500Y40100D01*
X450900Y39900D01*
X451300Y39500D01*
X451500Y38900D01*
Y37500D01*
X447900Y43901D02*X447500Y43701D01*
X447300Y43101D01*
Y42701D01*
X447500Y42101D01*
X448100Y41701D01*
X449100Y41501D01*
X450100D01*
X450900Y41701D01*
X451300Y42101D01*
X451500Y42701D01*
Y42901D02*Y42701D01*
Y42901D02*X451300Y43501D01*
X450900Y43901D01*
X450300Y44101D01*
X450100D02*X450300D01*
X450100D02*X449500Y43901D01*
X449100Y43501D01*
X448900Y42901D01*
Y42701D01*
X449100Y42101D01*
X449500Y41701D01*
X450100Y41501D01*
X447300Y47702D02*Y45702D01*
X449100Y45502D01*
X448900Y45702D01*
X448700Y46302D01*
Y46902D02*Y46302D01*
Y46902D02*X448900Y47502D01*
X449300Y47902D01*
X449900Y48102D01*
X450300D01*
X450900Y47902D01*
X451300Y47502D01*
X451500Y46902D01*
Y46302D01*
X451300Y45702D01*
X451100Y45502D01*
X450700Y45302D01*
X447300Y51303D02*X450100Y49303D01*
Y52303D02*Y49303D01*
X447300Y51303D02*X451500D01*
X571500Y43700D02*X571300Y44100D01*
X570900Y44500D01*
X570500Y44700D01*
X569700D02*X570500D01*
X569700D02*X569300Y44500D01*
X568900Y44100D01*
X568700Y43700D01*
X568500Y43100D01*
Y42100D01*
X568700Y41500D01*
X568900Y41100D01*
X569300Y40700D01*
X569700Y40500D01*
X570500D01*
X570900Y40700D01*
X571300Y41100D01*
X571500Y41500D01*
X575101Y44100D02*X574901Y44500D01*
X574301Y44700D01*
X573901D02*X574301D01*
X573901D02*X573301Y44500D01*
X572901Y43900D01*
X572701Y42900D01*
Y41900D01*
X572901Y41100D01*
X573301Y40700D01*
X573901Y40500D01*
X574101D01*
X574701Y40700D01*
X575101Y41100D01*
X575301Y41700D01*
Y41900D02*Y41700D01*
Y41900D02*X575101Y42500D01*
X574701Y42900D01*
X574101Y43100D01*
X573901D02*X574101D01*
X573901D02*X573301Y42900D01*
X572901Y42500D01*
X572701Y41900D01*
X576902Y44700D02*X578902D01*
X576902D02*X576702Y42900D01*
X576902Y43100D01*
X577502Y43300D01*
X578102D01*
X578702Y43100D01*
X579102Y42700D01*
X579302Y42100D01*
Y41700D01*
X579102Y41100D01*
X578702Y40700D01*
X578102Y40500D01*
X577502D02*X578102D01*
X577502D02*X576902Y40700D01*
X576702Y40900D01*
X576502Y41300D01*
X580903Y44700D02*X583103D01*
X581903Y43100D01*
X582503D01*
X582903Y42900D01*
X583103Y42700D01*
X583303Y42100D01*
Y41700D01*
X583103Y41100D01*
X582703Y40700D01*
X582103Y40500D01*
X581503D02*X582103D01*
X581503D02*X580903Y40700D01*
X580703Y40900D01*
X580503Y41300D01*
X498500Y47700D02*Y43500D01*
Y47700D02*X500300D01*
X500900Y47500D01*
X501100Y47300D01*
X501300Y46900D01*
Y46500D01*
X501100Y46100D01*
X500900Y45900D01*
X500300Y45700D01*
X498500D02*X500300D01*
X499900D02*X501300Y43500D01*
X504901Y47100D02*X504701Y47500D01*
X504101Y47700D01*
X503701D02*X504101D01*
X503701D02*X503101Y47500D01*
X502701Y46900D01*
X502501Y45900D01*
Y44900D01*
X502701Y44100D01*
X503101Y43700D01*
X503701Y43500D01*
X503901D01*
X504501Y43700D01*
X504901Y44100D01*
X505101Y44700D01*
Y44900D02*Y44700D01*
Y44900D02*X504901Y45500D01*
X504501Y45900D01*
X503901Y46100D01*
X503701D02*X503901D01*
X503701D02*X503101Y45900D01*
X502701Y45500D01*
X502501Y44900D01*
X508702Y47100D02*X508502Y47500D01*
X507902Y47700D01*
X507502D02*X507902D01*
X507502D02*X506902Y47500D01*
X506502Y46900D01*
X506302Y45900D01*
Y44900D01*
X506502Y44100D01*
X506902Y43700D01*
X507502Y43500D01*
X507702D01*
X508302Y43700D01*
X508702Y44100D01*
X508902Y44700D01*
Y44900D02*Y44700D01*
Y44900D02*X508702Y45500D01*
X508302Y45900D01*
X507702Y46100D01*
X507502D02*X507702D01*
X507502D02*X506902Y45900D01*
X506502Y45500D01*
X506302Y44900D01*
X511303Y47700D02*X510703Y47500D01*
X510303Y46900D01*
X510103Y45900D01*
Y45300D01*
X510303Y44300D01*
X510703Y43700D01*
X511303Y43500D01*
X511703D01*
X512303Y43700D01*
X512703Y44300D01*
X512903Y45300D01*
Y45900D02*Y45300D01*
Y45900D02*X512703Y46900D01*
X512303Y47500D01*
X511703Y47700D01*
X511303D02*X511703D01*
X607300Y85000D02*X610300D01*
X610900Y85200D01*
X611300Y85600D01*
X611500Y86200D01*
Y86600D02*Y86200D01*
Y86600D02*X611300Y87200D01*
X610900Y87600D01*
X610300Y87800D01*
X607300D02*X610300D01*
X607900Y91401D02*X607500Y91201D01*
X607300Y90601D01*
Y90201D01*
X607500Y89601D01*
X608100Y89201D01*
X609100Y89001D01*
X610100D01*
X610900Y89201D01*
X611300Y89601D01*
X611500Y90201D01*
Y90401D02*Y90201D01*
Y90401D02*X611300Y91001D01*
X610900Y91401D01*
X610300Y91601D01*
X610100D02*X610300D01*
X610100D02*X609500Y91401D01*
X609100Y91001D01*
X608900Y90401D01*
Y90201D01*
X609100Y89601D01*
X609500Y89201D01*
X610100Y89001D01*
X607300Y95202D02*Y93202D01*
X609100Y93002D01*
X608900Y93202D01*
X608700Y93802D01*
Y94402D02*Y93802D01*
Y94402D02*X608900Y95002D01*
X609300Y95402D01*
X609900Y95602D01*
X610300D01*
X610900Y95402D01*
X611300Y95002D01*
X611500Y94402D01*
Y93802D01*
X611300Y93202D01*
X611100Y93002D01*
X610700Y92802D01*
X607300Y99403D02*Y97203D01*
Y99403D02*X608900Y98203D01*
Y98803D02*Y98203D01*
Y98803D02*X609100Y99203D01*
X609300Y99403D01*
X609900Y99603D01*
X610300D01*
X610900Y99403D01*
X611300Y99003D01*
X611500Y98403D01*
Y97803D01*
X611300Y97203D01*
X611100Y97003D01*
X610700Y96803D01*
X591800Y54000D02*X591400Y53800D01*
X591000Y53400D01*
X590800Y53000D01*
Y52200D01*
X591000Y51800D01*
X591400Y51400D01*
X591800Y51200D01*
X592400Y51000D01*
X593400D01*
X594000Y51200D01*
X594400Y51400D01*
X594800Y51800D01*
X595000Y52200D01*
Y53000D02*Y52200D01*
Y53000D02*X594800Y53400D01*
X594400Y53800D01*
X594000Y54000D01*
X591400Y57601D02*X591000Y57401D01*
X590800Y56801D01*
Y56401D01*
X591000Y55801D01*
X591600Y55401D01*
X592600Y55201D01*
X593600D01*
X594400Y55401D01*
X594800Y55801D01*
X595000Y56401D01*
Y56601D02*Y56401D01*
Y56601D02*X594800Y57201D01*
X594400Y57601D01*
X593800Y57801D01*
X593600D02*X593800D01*
X593600D02*X593000Y57601D01*
X592600Y57201D01*
X592400Y56601D01*
Y56401D01*
X592600Y55801D01*
X593000Y55401D01*
X593600Y55201D01*
X590800Y61402D02*Y59402D01*
X592600Y59202D01*
X592400Y59402D01*
X592200Y60002D01*
Y60602D02*Y60002D01*
Y60602D02*X592400Y61202D01*
X592800Y61602D01*
X593400Y61802D01*
X593800D01*
X594400Y61602D01*
X594800Y61202D01*
X595000Y60602D01*
Y60002D01*
X594800Y59402D01*
X594600Y59202D01*
X594200Y59002D01*
X590800Y64003D02*X591000Y63403D01*
X591400Y63203D01*
X591800D01*
X592200Y63403D01*
X592400Y63803D01*
X592600Y64603D01*
X592800Y65203D01*
X593200Y65603D01*
X593600Y65803D01*
X594200D01*
X594600Y65603D01*
X594800Y65403D01*
X595000Y64803D01*
Y64003D01*
X594800Y63403D01*
X594600Y63203D01*
X594200Y63003D01*
X593600D02*X594200D01*
X593600D02*X593200Y63203D01*
X592800Y63603D01*
X592600Y64203D01*
X592400Y65003D01*
X592200Y65403D01*
X591800Y65603D01*
X591400D02*X591800D01*
X591400D02*X591000Y65403D01*
X590800Y64803D01*
Y64003D01*
X193500Y68200D02*Y64000D01*
Y68200D02*X195300D01*
X195900Y68000D01*
X196100Y67800D01*
X196300Y67400D01*
Y67000D01*
X196100Y66600D01*
X195900Y66400D01*
X195300Y66200D01*
X193500D02*X195300D01*
X194900D02*X196300Y64000D01*
X199901Y67600D02*X199701Y68000D01*
X199101Y68200D01*
X198701D02*X199101D01*
X198701D02*X198101Y68000D01*
X197701Y67400D01*
X197501Y66400D01*
Y65400D01*
X197701Y64600D01*
X198101Y64200D01*
X198701Y64000D01*
X198901D01*
X199501Y64200D01*
X199901Y64600D01*
X200101Y65200D01*
Y65400D02*Y65200D01*
Y65400D02*X199901Y66000D01*
X199501Y66400D01*
X198901Y66600D01*
X198701D02*X198901D01*
X198701D02*X198101Y66400D01*
X197701Y66000D01*
X197501Y65400D01*
X202502Y68200D02*X201902Y68000D01*
X201502Y67400D01*
X201302Y66400D01*
Y65800D01*
X201502Y64800D01*
X201902Y64200D01*
X202502Y64000D01*
X202902D01*
X203502Y64200D01*
X203902Y64800D01*
X204102Y65800D01*
Y66400D02*Y65800D01*
Y66400D02*X203902Y67400D01*
X203502Y68000D01*
X202902Y68200D01*
X202502D02*X202902D01*
X206303D02*X205703Y68000D01*
X205503Y67600D01*
Y67200D01*
X205703Y66800D01*
X206103Y66600D01*
X206903Y66400D01*
X207503Y66200D01*
X207903Y65800D01*
X208103Y65400D01*
Y64800D01*
X207903Y64400D01*
X207703Y64200D01*
X207103Y64000D01*
X206303D02*X207103D01*
X206303D02*X205703Y64200D01*
X205503Y64400D01*
X205303Y64800D01*
Y65400D02*Y64800D01*
Y65400D02*X205503Y65800D01*
X205903Y66200D01*
X206503Y66400D01*
X207303Y66600D01*
X207703Y66800D01*
X207903Y67200D01*
Y67600D02*Y67200D01*
Y67600D02*X207703Y68000D01*
X207103Y68200D01*
X206303D02*X207103D01*
X142300Y37500D02*X146500D01*
X142300Y38900D02*Y37500D01*
Y38900D02*X142500Y39500D01*
X142900Y39900D01*
X143300Y40100D01*
X143900Y40300D01*
X144900D01*
X145500Y40100D01*
X145900Y39900D01*
X146300Y39500D01*
X146500Y38900D01*
Y37500D01*
X142900Y43901D02*X142500Y43701D01*
X142300Y43101D01*
Y42701D01*
X142500Y42101D01*
X143100Y41701D01*
X144100Y41501D01*
X145100D01*
X145900Y41701D01*
X146300Y42101D01*
X146500Y42701D01*
Y42901D02*Y42701D01*
Y42901D02*X146300Y43501D01*
X145900Y43901D01*
X145300Y44101D01*
X145100D02*X145300D01*
X145100D02*X144500Y43901D01*
X144100Y43501D01*
X143900Y42901D01*
Y42701D01*
X144100Y42101D01*
X144500Y41701D01*
X145100Y41501D01*
X142300Y46502D02*X142500Y45902D01*
X143100Y45502D01*
X144100Y45302D01*
X144700D01*
X145700Y45502D01*
X146300Y45902D01*
X146500Y46502D01*
Y46902D02*Y46502D01*
Y46902D02*X146300Y47502D01*
X145700Y47902D01*
X144700Y48102D01*
X144100D02*X144700D01*
X144100D02*X143100Y47902D01*
X142500Y47502D01*
X142300Y46902D01*
Y46502D01*
Y51303D02*X145100Y49303D01*
Y52303D02*Y49303D01*
X142300Y51303D02*X146500D01*
X193500Y47700D02*Y43500D01*
Y47700D02*X195300D01*
X195900Y47500D01*
X196100Y47300D01*
X196300Y46900D01*
Y46500D01*
X196100Y46100D01*
X195900Y45900D01*
X195300Y45700D01*
X193500D02*X195300D01*
X194900D02*X196300Y43500D01*
X199901Y47100D02*X199701Y47500D01*
X199101Y47700D01*
X198701D02*X199101D01*
X198701D02*X198101Y47500D01*
X197701Y46900D01*
X197501Y45900D01*
Y44900D01*
X197701Y44100D01*
X198101Y43700D01*
X198701Y43500D01*
X198901D01*
X199501Y43700D01*
X199901Y44100D01*
X200101Y44700D01*
Y44900D02*Y44700D01*
Y44900D02*X199901Y45500D01*
X199501Y45900D01*
X198901Y46100D01*
X198701D02*X198901D01*
X198701D02*X198101Y45900D01*
X197701Y45500D01*
X197501Y44900D01*
X201302Y46900D02*X201702Y47100D01*
X202302Y47700D01*
Y43500D01*
X204703Y47700D02*X204103Y47500D01*
X203703Y46900D01*
X203503Y45900D01*
Y45300D01*
X203703Y44300D01*
X204103Y43700D01*
X204703Y43500D01*
X205103D01*
X205703Y43700D01*
X206103Y44300D01*
X206303Y45300D01*
Y45900D02*Y45300D01*
Y45900D02*X206103Y46900D01*
X205703Y47500D01*
X205103Y47700D01*
X204703D02*X205103D01*
X159800Y30000D02*X164000D01*
X159800Y31400D02*Y30000D01*
Y31400D02*X160000Y32000D01*
X160400Y32400D01*
X160800Y32600D01*
X161400Y32800D01*
X162400D01*
X163000Y32600D01*
X163400Y32400D01*
X163800Y32000D01*
X164000Y31400D01*
Y30000D01*
X160400Y36401D02*X160000Y36201D01*
X159800Y35601D01*
Y35201D01*
X160000Y34601D01*
X160600Y34201D01*
X161600Y34001D01*
X162600D01*
X163400Y34201D01*
X163800Y34601D01*
X164000Y35201D01*
Y35401D02*Y35201D01*
Y35401D02*X163800Y36001D01*
X163400Y36401D01*
X162800Y36601D01*
X162600D02*X162800D01*
X162600D02*X162000Y36401D01*
X161600Y36001D01*
X161400Y35401D01*
Y35201D01*
X161600Y34601D01*
X162000Y34201D01*
X162600Y34001D01*
X159800Y39002D02*X160000Y38402D01*
X160600Y38002D01*
X161600Y37802D01*
X162200D01*
X163200Y38002D01*
X163800Y38402D01*
X164000Y39002D01*
Y39402D02*Y39002D01*
Y39402D02*X163800Y40002D01*
X163200Y40402D01*
X162200Y40602D01*
X161600D02*X162200D01*
X161600D02*X160600Y40402D01*
X160000Y40002D01*
X159800Y39402D01*
Y39002D01*
Y44403D02*Y42203D01*
Y44403D02*X161400Y43203D01*
Y43803D02*Y43203D01*
Y43803D02*X161600Y44203D01*
X161800Y44403D01*
X162400Y44603D01*
X162800D01*
X163400Y44403D01*
X163800Y44003D01*
X164000Y43403D01*
Y42803D01*
X163800Y42203D01*
X163600Y42003D01*
X163200Y41803D01*
X241300Y81500D02*X245500D01*
X241300Y83300D02*Y81500D01*
Y83300D02*X241500Y83900D01*
X241700Y84100D01*
X242100Y84300D01*
X242500D01*
X242900Y84100D01*
X243100Y83900D01*
X243300Y83300D01*
Y81500D01*
Y82900D02*X245500Y84300D01*
X241900Y87901D02*X241500Y87701D01*
X241300Y87101D01*
Y86701D01*
X241500Y86101D01*
X242100Y85701D01*
X243100Y85501D01*
X244100D01*
X244900Y85701D01*
X245300Y86101D01*
X245500Y86701D01*
Y86901D02*Y86701D01*
Y86901D02*X245300Y87501D01*
X244900Y87901D01*
X244300Y88101D01*
X244100D02*X244300D01*
X244100D02*X243500Y87901D01*
X243100Y87501D01*
X242900Y86901D01*
Y86701D01*
X243100Y86101D01*
X243500Y85701D01*
X244100Y85501D01*
X241300Y90502D02*X241500Y89902D01*
X242100Y89502D01*
X243100Y89302D01*
X243700D01*
X244700Y89502D01*
X245300Y89902D01*
X245500Y90502D01*
Y90902D02*Y90502D01*
Y90902D02*X245300Y91502D01*
X244700Y91902D01*
X243700Y92102D01*
X243100D02*X243700D01*
X243100D02*X242100Y91902D01*
X241500Y91502D01*
X241300Y90902D01*
Y90502D01*
X242700Y95903D02*X243300Y95703D01*
X243700Y95303D01*
X243900Y94703D01*
Y94503D01*
X243700Y93903D01*
X243300Y93503D01*
X242700Y93303D01*
X242500D02*X242700D01*
X242500D02*X241900Y93503D01*
X241500Y93903D01*
X241300Y94503D01*
Y94703D02*Y94503D01*
Y94703D02*X241500Y95303D01*
X241900Y95703D01*
X242700Y95903D01*
X243700D01*
X244700Y95703D01*
X245300Y95303D01*
X245500Y94703D01*
Y94303D01*
X245300Y93703D01*
X244900Y93503D01*
X266500Y43700D02*X266300Y44100D01*
X265900Y44500D01*
X265500Y44700D01*
X264700D02*X265500D01*
X264700D02*X264300Y44500D01*
X263900Y44100D01*
X263700Y43700D01*
X263500Y43100D01*
Y42100D01*
X263700Y41500D01*
X263900Y41100D01*
X264300Y40700D01*
X264700Y40500D01*
X265500D01*
X265900Y40700D01*
X266300Y41100D01*
X266500Y41500D01*
X270101Y44100D02*X269901Y44500D01*
X269301Y44700D01*
X268901D02*X269301D01*
X268901D02*X268301Y44500D01*
X267901Y43900D01*
X267701Y42900D01*
Y41900D01*
X267901Y41100D01*
X268301Y40700D01*
X268901Y40500D01*
X269101D01*
X269701Y40700D01*
X270101Y41100D01*
X270301Y41700D01*
Y41900D02*Y41700D01*
Y41900D02*X270101Y42500D01*
X269701Y42900D01*
X269101Y43100D01*
X268901D02*X269101D01*
X268901D02*X268301Y42900D01*
X267901Y42500D01*
X267701Y41900D01*
X272702Y44700D02*X272102Y44500D01*
X271702Y43900D01*
X271502Y42900D01*
Y42300D01*
X271702Y41300D01*
X272102Y40700D01*
X272702Y40500D01*
X273102D01*
X273702Y40700D01*
X274102Y41300D01*
X274302Y42300D01*
Y42900D02*Y42300D01*
Y42900D02*X274102Y43900D01*
X273702Y44500D01*
X273102Y44700D01*
X272702D02*X273102D01*
X275903D02*X278103D01*
X276903Y43100D01*
X277503D01*
X277903Y42900D01*
X278103Y42700D01*
X278303Y42100D01*
Y41700D01*
X278103Y41100D01*
X277703Y40700D01*
X277103Y40500D01*
X276503D02*X277103D01*
X276503D02*X275903Y40700D01*
X275703Y40900D01*
X275503Y41300D01*
X302300Y85000D02*X305300D01*
X305900Y85200D01*
X306300Y85600D01*
X306500Y86200D01*
Y86600D02*Y86200D01*
Y86600D02*X306300Y87200D01*
X305900Y87600D01*
X305300Y87800D01*
X302300D02*X305300D01*
X302900Y91401D02*X302500Y91201D01*
X302300Y90601D01*
Y90201D01*
X302500Y89601D01*
X303100Y89201D01*
X304100Y89001D01*
X305100D01*
X305900Y89201D01*
X306300Y89601D01*
X306500Y90201D01*
Y90401D02*Y90201D01*
Y90401D02*X306300Y91001D01*
X305900Y91401D01*
X305300Y91601D01*
X305100D02*X305300D01*
X305100D02*X304500Y91401D01*
X304100Y91001D01*
X303900Y90401D01*
Y90201D01*
X304100Y89601D01*
X304500Y89201D01*
X305100Y89001D01*
X302300Y94002D02*X302500Y93402D01*
X303100Y93002D01*
X304100Y92802D01*
X304700D01*
X305700Y93002D01*
X306300Y93402D01*
X306500Y94002D01*
Y94402D02*Y94002D01*
Y94402D02*X306300Y95002D01*
X305700Y95402D01*
X304700Y95602D01*
X304100D02*X304700D01*
X304100D02*X303100Y95402D01*
X302500Y95002D01*
X302300Y94402D01*
Y94002D01*
Y99403D02*Y97203D01*
Y99403D02*X303900Y98203D01*
Y98803D02*Y98203D01*
Y98803D02*X304100Y99203D01*
X304300Y99403D01*
X304900Y99603D01*
X305300D01*
X305900Y99403D01*
X306300Y99003D01*
X306500Y98403D01*
Y97803D01*
X306300Y97203D01*
X306100Y97003D01*
X305700Y96803D01*
X260500Y118200D02*X260300Y118600D01*
X259900Y119000D01*
X259500Y119200D01*
X258700D02*X259500D01*
X258700D02*X258300Y119000D01*
X257900Y118600D01*
X257700Y118200D01*
X257500Y117600D01*
Y116600D01*
X257700Y116000D01*
X257900Y115600D01*
X258300Y115200D01*
X258700Y115000D01*
X259500D01*
X259900Y115200D01*
X260300Y115600D01*
X260500Y116000D01*
X264101Y118600D02*X263901Y119000D01*
X263301Y119200D01*
X262901D02*X263301D01*
X262901D02*X262301Y119000D01*
X261901Y118400D01*
X261701Y117400D01*
Y116400D01*
X261901Y115600D01*
X262301Y115200D01*
X262901Y115000D01*
X263101D01*
X263701Y115200D01*
X264101Y115600D01*
X264301Y116200D01*
Y116400D02*Y116200D01*
Y116400D02*X264101Y117000D01*
X263701Y117400D01*
X263101Y117600D01*
X262901D02*X263101D01*
X262901D02*X262301Y117400D01*
X261901Y117000D01*
X261701Y116400D01*
X266702Y119200D02*X266102Y119000D01*
X265702Y118400D01*
X265502Y117400D01*
Y116800D01*
X265702Y115800D01*
X266102Y115200D01*
X266702Y115000D01*
X267102D01*
X267702Y115200D01*
X268102Y115800D01*
X268302Y116800D01*
Y117400D02*Y116800D01*
Y117400D02*X268102Y118400D01*
X267702Y119000D01*
X267102Y119200D01*
X266702D02*X267102D01*
X272103Y117800D02*X271903Y117200D01*
X271503Y116800D01*
X270903Y116600D01*
X270703D02*X270903D01*
X270703D02*X270103Y116800D01*
X269703Y117200D01*
X269503Y117800D01*
Y118000D02*Y117800D01*
Y118000D02*X269703Y118600D01*
X270103Y119000D01*
X270703Y119200D01*
X270903D01*
X271503Y119000D01*
X271903Y118600D01*
X272103Y117800D01*
Y116800D01*
X271903Y115800D01*
X271503Y115200D01*
X270903Y115000D01*
X270503D02*X270903D01*
X270503D02*X269903Y115200D01*
X269703Y115600D01*
X286800Y54000D02*X286400Y53800D01*
X286000Y53400D01*
X285800Y53000D01*
Y52200D01*
X286000Y51800D01*
X286400Y51400D01*
X286800Y51200D01*
X287400Y51000D01*
X288400D01*
X289000Y51200D01*
X289400Y51400D01*
X289800Y51800D01*
X290000Y52200D01*
Y53000D02*Y52200D01*
Y53000D02*X289800Y53400D01*
X289400Y53800D01*
X289000Y54000D01*
X286400Y57601D02*X286000Y57401D01*
X285800Y56801D01*
Y56401D01*
X286000Y55801D01*
X286600Y55401D01*
X287600Y55201D01*
X288600D01*
X289400Y55401D01*
X289800Y55801D01*
X290000Y56401D01*
Y56601D02*Y56401D01*
Y56601D02*X289800Y57201D01*
X289400Y57601D01*
X288800Y57801D01*
X288600D02*X288800D01*
X288600D02*X288000Y57601D01*
X287600Y57201D01*
X287400Y56601D01*
Y56401D01*
X287600Y55801D01*
X288000Y55401D01*
X288600Y55201D01*
X285800Y60202D02*X286000Y59602D01*
X286600Y59202D01*
X287600Y59002D01*
X288200D01*
X289200Y59202D01*
X289800Y59602D01*
X290000Y60202D01*
Y60602D02*Y60202D01*
Y60602D02*X289800Y61202D01*
X289200Y61602D01*
X288200Y61802D01*
X287600D02*X288200D01*
X287600D02*X286600Y61602D01*
X286000Y61202D01*
X285800Y60602D01*
Y60202D01*
Y64003D02*X286000Y63403D01*
X286400Y63203D01*
X286800D01*
X287200Y63403D01*
X287400Y63803D01*
X287600Y64603D01*
X287800Y65203D01*
X288200Y65603D01*
X288600Y65803D01*
X289200D01*
X289600Y65603D01*
X289800Y65403D01*
X290000Y64803D01*
Y64003D01*
X289800Y63403D01*
X289600Y63203D01*
X289200Y63003D01*
X288600D02*X289200D01*
X288600D02*X288200Y63203D01*
X287800Y63603D01*
X287600Y64203D01*
X287400Y65003D01*
X287200Y65403D01*
X286800Y65603D01*
X286400D02*X286800D01*
X286400D02*X286000Y65403D01*
X285800Y64803D01*
Y64003D01*
X232500Y150200D02*Y146000D01*
Y150200D02*X234300D01*
X234900Y150000D01*
X235100Y149800D01*
X235300Y149400D01*
Y149000D01*
X235100Y148600D01*
X234900Y148400D01*
X234300Y148200D01*
X232500D02*X234300D01*
X233900D02*X235300Y146000D01*
X238901Y149600D02*X238701Y150000D01*
X238101Y150200D01*
X237701D02*X238101D01*
X237701D02*X237101Y150000D01*
X236701Y149400D01*
X236501Y148400D01*
Y147400D01*
X236701Y146600D01*
X237101Y146200D01*
X237701Y146000D01*
X237901D01*
X238501Y146200D01*
X238901Y146600D01*
X239101Y147200D01*
Y147400D02*Y147200D01*
Y147400D02*X238901Y148000D01*
X238501Y148400D01*
X237901Y148600D01*
X237701D02*X237901D01*
X237701D02*X237101Y148400D01*
X236701Y148000D01*
X236501Y147400D01*
X240302Y149400D02*X240702Y149600D01*
X241302Y150200D01*
Y146000D01*
X242503Y149400D02*X242903Y149600D01*
X243503Y150200D01*
Y146000D01*
X140800Y117000D02*X145000D01*
X140800Y118800D02*Y117000D01*
Y118800D02*X141000Y119400D01*
X141200Y119600D01*
X141600Y119800D01*
X142000D01*
X142400Y119600D01*
X142600Y119400D01*
X142800Y118800D01*
Y117000D01*
Y118400D02*X145000Y119800D01*
X141400Y123401D02*X141000Y123201D01*
X140800Y122601D01*
Y122201D01*
X141000Y121601D01*
X141600Y121201D01*
X142600Y121001D01*
X143600D01*
X144400Y121201D01*
X144800Y121601D01*
X145000Y122201D01*
Y122401D02*Y122201D01*
Y122401D02*X144800Y123001D01*
X144400Y123401D01*
X143800Y123601D01*
X143600D02*X143800D01*
X143600D02*X143000Y123401D01*
X142600Y123001D01*
X142400Y122401D01*
Y122201D01*
X142600Y121601D01*
X143000Y121201D01*
X143600Y121001D01*
X140800Y126002D02*X141000Y125402D01*
X141600Y125002D01*
X142600Y124802D01*
X143200D01*
X144200Y125002D01*
X144800Y125402D01*
X145000Y126002D01*
Y126402D02*Y126002D01*
Y126402D02*X144800Y127002D01*
X144200Y127402D01*
X143200Y127602D01*
X142600D02*X143200D01*
X142600D02*X141600Y127402D01*
X141000Y127002D01*
X140800Y126402D01*
Y126002D01*
X141400Y131203D02*X141000Y131003D01*
X140800Y130403D01*
Y130003D01*
X141000Y129403D01*
X141600Y129003D01*
X142600Y128803D01*
X143600D01*
X144400Y129003D01*
X144800Y129403D01*
X145000Y130003D01*
Y130203D02*Y130003D01*
Y130203D02*X144800Y130803D01*
X144400Y131203D01*
X143800Y131403D01*
X143600D02*X143800D01*
X143600D02*X143000Y131203D01*
X142600Y130803D01*
X142400Y130203D01*
Y130003D01*
X142600Y129403D01*
X143000Y129003D01*
X143600Y128803D01*
X155800Y117000D02*X160000D01*
X155800Y118800D02*Y117000D01*
Y118800D02*X156000Y119400D01*
X156200Y119600D01*
X156600Y119800D01*
X157000D01*
X157400Y119600D01*
X157600Y119400D01*
X157800Y118800D01*
Y117000D01*
Y118400D02*X160000Y119800D01*
X156400Y123401D02*X156000Y123201D01*
X155800Y122601D01*
Y122201D01*
X156000Y121601D01*
X156600Y121201D01*
X157600Y121001D01*
X158600D01*
X159400Y121201D01*
X159800Y121601D01*
X160000Y122201D01*
Y122401D02*Y122201D01*
Y122401D02*X159800Y123001D01*
X159400Y123401D01*
X158800Y123601D01*
X158600D02*X158800D01*
X158600D02*X158000Y123401D01*
X157600Y123001D01*
X157400Y122401D01*
Y122201D01*
X157600Y121601D01*
X158000Y121201D01*
X158600Y121001D01*
X155800Y126002D02*X156000Y125402D01*
X156600Y125002D01*
X157600Y124802D01*
X158200D01*
X159200Y125002D01*
X159800Y125402D01*
X160000Y126002D01*
Y126402D02*Y126002D01*
Y126402D02*X159800Y127002D01*
X159200Y127402D01*
X158200Y127602D01*
X157600D02*X158200D01*
X157600D02*X156600Y127402D01*
X156000Y127002D01*
X155800Y126402D01*
Y126002D01*
Y131603D02*X160000Y129603D01*
X155800Y131603D02*Y128803D01*
X168300Y118000D02*X172500D01*
X168300Y119400D02*Y118000D01*
Y119400D02*X168500Y120000D01*
X168900Y120400D01*
X169300Y120600D01*
X169900Y120800D01*
X170900D01*
X171500Y120600D01*
X171900Y120400D01*
X172300Y120000D01*
X172500Y119400D01*
Y118000D01*
X168900Y124401D02*X168500Y124201D01*
X168300Y123601D01*
Y123201D01*
X168500Y122601D01*
X169100Y122201D01*
X170100Y122001D01*
X171100D01*
X171900Y122201D01*
X172300Y122601D01*
X172500Y123201D01*
Y123401D02*Y123201D01*
Y123401D02*X172300Y124001D01*
X171900Y124401D01*
X171300Y124601D01*
X171100D02*X171300D01*
X171100D02*X170500Y124401D01*
X170100Y124001D01*
X169900Y123401D01*
Y123201D01*
X170100Y122601D01*
X170500Y122201D01*
X171100Y122001D01*
X168300Y127002D02*X168500Y126402D01*
X169100Y126002D01*
X170100Y125802D01*
X170700D01*
X171700Y126002D01*
X172300Y126402D01*
X172500Y127002D01*
Y127402D02*Y127002D01*
Y127402D02*X172300Y128002D01*
X171700Y128402D01*
X170700Y128602D01*
X170100D02*X170700D01*
X170100D02*X169100Y128402D01*
X168500Y128002D01*
X168300Y127402D01*
Y127002D01*
X169100Y129803D02*X168900Y130203D01*
X168300Y130803D01*
X172500D01*
X129500Y153200D02*Y149000D01*
Y153200D02*X131300D01*
X131900Y153000D01*
X132100Y152800D01*
X132300Y152400D01*
Y152000D01*
X132100Y151600D01*
X131900Y151400D01*
X131300Y151200D01*
X129500D02*X131300D01*
X130900D02*X132300Y149000D01*
X135901Y152600D02*X135701Y153000D01*
X135101Y153200D01*
X134701D02*X135101D01*
X134701D02*X134101Y153000D01*
X133701Y152400D01*
X133501Y151400D01*
Y150400D01*
X133701Y149600D01*
X134101Y149200D01*
X134701Y149000D01*
X134901D01*
X135501Y149200D01*
X135901Y149600D01*
X136101Y150200D01*
Y150400D02*Y150200D01*
Y150400D02*X135901Y151000D01*
X135501Y151400D01*
X134901Y151600D01*
X134701D02*X134901D01*
X134701D02*X134101Y151400D01*
X133701Y151000D01*
X133501Y150400D01*
X138502Y153200D02*X137902Y153000D01*
X137502Y152400D01*
X137302Y151400D01*
Y150800D01*
X137502Y149800D01*
X137902Y149200D01*
X138502Y149000D01*
X138902D01*
X139502Y149200D01*
X139902Y149800D01*
X140102Y150800D01*
Y151400D02*Y150800D01*
Y151400D02*X139902Y152400D01*
X139502Y153000D01*
X138902Y153200D01*
X138502D02*X138902D01*
X141703D02*X143703D01*
X141703D02*X141503Y151400D01*
X141703Y151600D01*
X142303Y151800D01*
X142903D01*
X143503Y151600D01*
X143903Y151200D01*
X144103Y150600D01*
Y150200D01*
X143903Y149600D01*
X143503Y149200D01*
X142903Y149000D01*
X142303D02*X142903D01*
X142303D02*X141703Y149200D01*
X141503Y149400D01*
X141303Y149800D01*
X186800Y124000D02*X186400Y123800D01*
X186000Y123400D01*
X185800Y123000D01*
Y122200D01*
X186000Y121800D01*
X186400Y121400D01*
X186800Y121200D01*
X187400Y121000D01*
X188400D01*
X189000Y121200D01*
X189400Y121400D01*
X189800Y121800D01*
X190000Y122200D01*
Y123000D02*Y122200D01*
Y123000D02*X189800Y123400D01*
X189400Y123800D01*
X189000Y124000D01*
X186400Y127601D02*X186000Y127401D01*
X185800Y126801D01*
Y126401D01*
X186000Y125801D01*
X186600Y125401D01*
X187600Y125201D01*
X188600D01*
X189400Y125401D01*
X189800Y125801D01*
X190000Y126401D01*
Y126601D02*Y126401D01*
Y126601D02*X189800Y127201D01*
X189400Y127601D01*
X188800Y127801D01*
X188600D02*X188800D01*
X188600D02*X188000Y127601D01*
X187600Y127201D01*
X187400Y126601D01*
Y126401D01*
X187600Y125801D01*
X188000Y125401D01*
X188600Y125201D01*
X185800Y130202D02*X186000Y129602D01*
X186600Y129202D01*
X187600Y129002D01*
X188200D01*
X189200Y129202D01*
X189800Y129602D01*
X190000Y130202D01*
Y130602D02*Y130202D01*
Y130602D02*X189800Y131202D01*
X189200Y131602D01*
X188200Y131802D01*
X187600D02*X188200D01*
X187600D02*X186600Y131602D01*
X186000Y131202D01*
X185800Y130602D01*
Y130202D01*
Y135803D02*X190000Y133803D01*
X185800Y135803D02*Y133003D01*
X217500Y127200D02*Y123000D01*
Y127200D02*X218900D01*
X219500Y127000D01*
X219900Y126600D01*
X220100Y126200D01*
X220300Y125600D01*
Y124600D01*
X220100Y124000D01*
X219900Y123600D01*
X219500Y123200D01*
X218900Y123000D01*
X217500D02*X218900D01*
X223901Y126600D02*X223701Y127000D01*
X223101Y127200D01*
X222701D02*X223101D01*
X222701D02*X222101Y127000D01*
X221701Y126400D01*
X221501Y125400D01*
Y124400D01*
X221701Y123600D01*
X222101Y123200D01*
X222701Y123000D01*
X222901D01*
X223501Y123200D01*
X223901Y123600D01*
X224101Y124200D01*
Y124400D02*Y124200D01*
Y124400D02*X223901Y125000D01*
X223501Y125400D01*
X222901Y125600D01*
X222701D02*X222901D01*
X222701D02*X222101Y125400D01*
X221701Y125000D01*
X221501Y124400D01*
X226502Y127200D02*X225902Y127000D01*
X225502Y126400D01*
X225302Y125400D01*
Y124800D01*
X225502Y123800D01*
X225902Y123200D01*
X226502Y123000D01*
X226902D01*
X227502Y123200D01*
X227902Y123800D01*
X228102Y124800D01*
Y125400D02*Y124800D01*
Y125400D02*X227902Y126400D01*
X227502Y127000D01*
X226902Y127200D01*
X226502D02*X226902D01*
X229503Y126400D02*Y126200D01*
Y126400D02*X229703Y126800D01*
X229903Y127000D01*
X230303Y127200D01*
X231103D01*
X231503Y127000D01*
X231703Y126800D01*
X231903Y126400D01*
Y126000D01*
X231703Y125600D01*
X231303Y125000D01*
X229303Y123000D01*
X232103D01*
X223300Y87000D02*X226300D01*
X226900Y87200D01*
X227300Y87600D01*
X227500Y88200D01*
Y88600D02*Y88200D01*
Y88600D02*X227300Y89200D01*
X226900Y89600D01*
X226300Y89800D01*
X223300D02*X226300D01*
X223900Y93401D02*X223500Y93201D01*
X223300Y92601D01*
Y92201D01*
X223500Y91601D01*
X224100Y91201D01*
X225100Y91001D01*
X226100D01*
X226900Y91201D01*
X227300Y91601D01*
X227500Y92201D01*
Y92401D02*Y92201D01*
Y92401D02*X227300Y93001D01*
X226900Y93401D01*
X226300Y93601D01*
X226100D02*X226300D01*
X226100D02*X225500Y93401D01*
X225100Y93001D01*
X224900Y92401D01*
Y92201D01*
X225100Y91601D01*
X225500Y91201D01*
X226100Y91001D01*
X223300Y96002D02*X223500Y95402D01*
X224100Y95002D01*
X225100Y94802D01*
X225700D01*
X226700Y95002D01*
X227300Y95402D01*
X227500Y96002D01*
Y96402D02*Y96002D01*
Y96402D02*X227300Y97002D01*
X226700Y97402D01*
X225700Y97602D01*
X225100D02*X225700D01*
X225100D02*X224100Y97402D01*
X223500Y97002D01*
X223300Y96402D01*
Y96002D01*
X224100Y99003D02*X224300D01*
X224100D02*X223700Y99203D01*
X223500Y99403D01*
X223300Y99803D01*
Y100603D02*Y99803D01*
Y100603D02*X223500Y101003D01*
X223700Y101203D01*
X224100Y101403D01*
X224500D01*
X224900Y101203D01*
X225500Y100803D01*
X227500Y98803D01*
Y101603D02*Y98803D01*
X222800Y64000D02*X222400Y63800D01*
X222000Y63400D01*
X221800Y63000D01*
Y62200D01*
X222000Y61800D01*
X222400Y61400D01*
X222800Y61200D01*
X223400Y61000D01*
X224400D01*
X225000Y61200D01*
X225400Y61400D01*
X225800Y61800D01*
X226000Y62200D01*
Y63000D02*Y62200D01*
Y63000D02*X225800Y63400D01*
X225400Y63800D01*
X225000Y64000D01*
X222400Y67601D02*X222000Y67401D01*
X221800Y66801D01*
Y66401D01*
X222000Y65801D01*
X222600Y65401D01*
X223600Y65201D01*
X224600D01*
X225400Y65401D01*
X225800Y65801D01*
X226000Y66401D01*
Y66601D02*Y66401D01*
Y66601D02*X225800Y67201D01*
X225400Y67601D01*
X224800Y67801D01*
X224600D02*X224800D01*
X224600D02*X224000Y67601D01*
X223600Y67201D01*
X223400Y66601D01*
Y66401D01*
X223600Y65801D01*
X224000Y65401D01*
X224600Y65201D01*
X221800Y70202D02*X222000Y69602D01*
X222600Y69202D01*
X223600Y69002D01*
X224200D01*
X225200Y69202D01*
X225800Y69602D01*
X226000Y70202D01*
Y70602D02*Y70202D01*
Y70602D02*X225800Y71202D01*
X225200Y71602D01*
X224200Y71802D01*
X223600D02*X224200D01*
X223600D02*X222600Y71602D01*
X222000Y71202D01*
X221800Y70602D01*
Y70202D01*
X222400Y75403D02*X222000Y75203D01*
X221800Y74603D01*
Y74203D01*
X222000Y73603D01*
X222600Y73203D01*
X223600Y73003D01*
X224600D01*
X225400Y73203D01*
X225800Y73603D01*
X226000Y74203D01*
Y74403D02*Y74203D01*
Y74403D02*X225800Y75003D01*
X225400Y75403D01*
X224800Y75603D01*
X224600D02*X224800D01*
X224600D02*X224000Y75403D01*
X223600Y75003D01*
X223400Y74403D01*
Y74203D01*
X223600Y73603D01*
X224000Y73203D01*
X224600Y73003D01*
X122300Y53500D02*X121900Y53300D01*
X121500Y52900D01*
X121300Y52500D01*
Y51700D01*
X121500Y51300D01*
X121900Y50900D01*
X122300Y50700D01*
X122900Y50500D01*
X123900D01*
X124500Y50700D01*
X124900Y50900D01*
X125300Y51300D01*
X125500Y51700D01*
Y52500D02*Y51700D01*
Y52500D02*X125300Y52900D01*
X124900Y53300D01*
X124500Y53500D01*
X121900Y57101D02*X121500Y56901D01*
X121300Y56301D01*
Y55901D01*
X121500Y55301D01*
X122100Y54901D01*
X123100Y54701D01*
X124100D01*
X124900Y54901D01*
X125300Y55301D01*
X125500Y55901D01*
Y56101D02*Y55901D01*
Y56101D02*X125300Y56701D01*
X124900Y57101D01*
X124300Y57301D01*
X124100D02*X124300D01*
X124100D02*X123500Y57101D01*
X123100Y56701D01*
X122900Y56101D01*
Y55901D01*
X123100Y55301D01*
X123500Y54901D01*
X124100Y54701D01*
X121300Y59702D02*X121500Y59102D01*
X122100Y58702D01*
X123100Y58502D01*
X123700D01*
X124700Y58702D01*
X125300Y59102D01*
X125500Y59702D01*
Y60102D02*Y59702D01*
Y60102D02*X125300Y60702D01*
X124700Y61102D01*
X123700Y61302D01*
X123100D02*X123700D01*
X123100D02*X122100Y61102D01*
X121500Y60702D01*
X121300Y60102D01*
Y59702D01*
Y64503D02*X124100Y62503D01*
Y65503D02*Y62503D01*
X121300Y64503D02*X125500D01*
X117000Y125200D02*X116800Y125600D01*
X116400Y126000D01*
X116000Y126200D01*
X115200D02*X116000D01*
X115200D02*X114800Y126000D01*
X114400Y125600D01*
X114200Y125200D01*
X114000Y124600D01*
Y123600D01*
X114200Y123000D01*
X114400Y122600D01*
X114800Y122200D01*
X115200Y122000D01*
X116000D01*
X116400Y122200D01*
X116800Y122600D01*
X117000Y123000D01*
X120601Y125600D02*X120401Y126000D01*
X119801Y126200D01*
X119401D02*X119801D01*
X119401D02*X118801Y126000D01*
X118401Y125400D01*
X118201Y124400D01*
Y123400D01*
X118401Y122600D01*
X118801Y122200D01*
X119401Y122000D01*
X119601D01*
X120201Y122200D01*
X120601Y122600D01*
X120801Y123200D01*
Y123400D02*Y123200D01*
Y123400D02*X120601Y124000D01*
X120201Y124400D01*
X119601Y124600D01*
X119401D02*X119601D01*
X119401D02*X118801Y124400D01*
X118401Y124000D01*
X118201Y123400D01*
X123202Y126200D02*X122602Y126000D01*
X122202Y125400D01*
X122002Y124400D01*
Y123800D01*
X122202Y122800D01*
X122602Y122200D01*
X123202Y122000D01*
X123602D01*
X124202Y122200D01*
X124602Y122800D01*
X124802Y123800D01*
Y124400D02*Y123800D01*
Y124400D02*X124602Y125400D01*
X124202Y126000D01*
X123602Y126200D01*
X123202D02*X123602D01*
X126403D02*X128403D01*
X126403D02*X126203Y124400D01*
X126403Y124600D01*
X127003Y124800D01*
X127603D01*
X128203Y124600D01*
X128603Y124200D01*
X128803Y123600D01*
Y123200D01*
X128603Y122600D01*
X128203Y122200D01*
X127603Y122000D01*
X127003D02*X127603D01*
X127003D02*X126403Y122200D01*
X126203Y122400D01*
X126003Y122800D01*
M02*
