M48
INCH
T13C0.035
%
T13
X001574Y026574
X001574Y025590
X001574Y024606
X001574Y023622
X001574Y022637
X001574Y031496
X001574Y030511
X001574Y029527
X001574Y028543
X001574Y034448
X001574Y033464
X001574Y032480
X001574Y027559
X001574Y021653
X001574Y020669
X001574Y019685
X001574Y018700
X001574Y017716
X001574Y016732
X001574Y015748
X001574Y014763
X001574Y013779
X001574Y012795
X001574Y011811
X001574Y010826
X001574Y009842
X001574Y008858
X001574Y007874
X001574Y006889
X001574Y005905
X001574Y004921
M30
