G04 start of page 5 for group 3 idx 3 *
G04 Title: 26.003.00.01.01.pcb, keepout *
G04 Creator: pcb 20100929 *
G04 CreationDate: Wed Mar 18 07:56:07 2015 UTC *
G04 For: bert *
G04 Format: Gerber/RS-274X *
G04 PCB-Dimensions: 649606 413386 *
G04 PCB-Coordinate-Origin: lower left *
%MOIN*%
%FSLAX25Y25*%
%LNGROUP3*%
%ADD11C,0.0600*%
%ADD12C,0.0540*%
%ADD13C,0.0650*%
%ADD14C,0.0720*%
%ADD15C,0.2760*%
%ADD16C,0.0380*%
%ADD17C,0.1460*%
%ADD18C,0.0200*%
%ADD19C,0.0400*%
%ADD20C,0.0360*%
%ADD21C,0.0320*%
%ADD22C,0.0280*%
%ADD23C,0.0520*%
%ADD24C,0.1100*%
%ADD26C,0.0100*%
G54D26*X630000Y395886D02*Y413386D01*
X40000Y403386D02*X597500D01*
Y395886D01*
X630000D01*
X0Y413386D02*Y20886D01*
X40000D02*Y413386D01*
X0D02*X630000D01*
Y20886D02*Y38386D01*
X597500Y30886D02*X40000D01*
X630000Y38386D02*X597500D01*
Y30886D01*
X0Y20886D02*X630000D01*
G54D11*X45000Y365886D03*
Y355886D03*
Y345886D03*
Y335886D03*
Y325886D03*
Y315886D03*
Y305886D03*
Y295886D03*
Y285886D03*
Y275886D03*
Y265886D03*
Y255886D03*
Y245886D03*
Y235886D03*
Y225886D03*
Y215886D03*
Y205886D03*
Y195886D03*
Y185886D03*
Y175886D03*
Y165886D03*
Y155886D03*
Y145886D03*
Y135886D03*
Y125886D03*
Y115886D03*
Y105886D03*
Y95886D03*
Y85886D03*
Y75886D03*
Y65886D03*
G54D12*X485079Y383386D03*
G54D13*X100000Y393386D03*
X175000D03*
G54D11*X515000Y383386D03*
X445000D03*
Y333386D03*
X409606Y353544D03*
Y373229D03*
G54D12*X493937Y358386D03*
X486063D03*
X494921Y383386D03*
G54D11*X465000D03*
Y343386D03*
X515000Y333386D03*
X465000Y323386D03*
X515000D03*
G54D12*X568937Y383386D03*
G54D11*X565000Y313386D03*
Y323386D03*
Y333386D03*
Y343386D03*
G54D12*X561063Y383386D03*
X539921D03*
X530079D03*
G54D11*X535000Y343386D03*
Y333386D03*
Y323386D03*
Y313386D03*
G54D14*X602360Y364174D03*
X592518Y354332D03*
X602360Y344489D03*
X592518Y334647D03*
G54D11*X525000Y358386D03*
X575000D03*
G54D14*X602360Y324804D03*
Y305119D03*
Y285434D03*
Y265749D03*
Y246064D03*
Y226379D03*
X592518Y314961D03*
Y295276D03*
Y275591D03*
Y255906D03*
Y236221D03*
Y216537D03*
Y196852D03*
G54D12*X139921Y313386D03*
X130079D03*
X119921D03*
X110079D03*
G54D11*X100000Y328386D03*
Y268386D03*
X110000Y328386D03*
X120000D03*
Y268386D03*
X130000Y328386D03*
Y268386D03*
X140000D03*
X150000D03*
X160000D03*
X170000D03*
X140000Y328386D03*
X150000D03*
X160000D03*
X170000D03*
G54D12*X119921Y253386D03*
X110079D03*
G54D11*X110000Y268386D03*
X100000Y208386D03*
X110000D03*
X120000D03*
X130000D03*
X140000D03*
X150000D03*
X160000D03*
X170000D03*
X330000Y193386D03*
X370000D03*
G54D14*X279685Y58228D03*
G54D11*X280000Y193386D03*
X320000D03*
G54D15*X315000Y48386D03*
G54D14*X260000D03*
G54D11*X270000Y193386D03*
G54D14*X602360Y206694D03*
Y187009D03*
Y167324D03*
Y147639D03*
X592518Y177167D03*
Y157481D03*
Y137796D03*
Y118111D03*
Y98426D03*
Y78741D03*
X602360Y127954D03*
Y108269D03*
Y88584D03*
Y68899D03*
X240315Y58228D03*
G54D11*X220000Y193386D03*
X160000D03*
X210000D03*
G54D12*X139921Y253386D03*
X130079D03*
G54D11*X160000D03*
X210000D03*
G54D12*X139921Y193386D03*
X130079D03*
X119921D03*
X110079D03*
G54D13*X100000Y38386D03*
X175000D03*
G54D12*X139921Y133386D03*
X130079D03*
X119921D03*
X110079D03*
G54D11*X100000Y148386D03*
X110000D03*
X120000D03*
X130000D03*
X140000D03*
X150000D03*
X160000D03*
X170000D03*
G54D12*X139921Y73386D03*
X130079D03*
X119921D03*
X110079D03*
G54D11*X100000Y88386D03*
X110000D03*
X120000D03*
X130000D03*
X140000D03*
X150000D03*
X160000D03*
X170000D03*
G54D16*G54D17*G54D16*G54D17*G54D18*G54D19*G54D17*G54D19*G54D20*G54D21*G54D18*G54D19*G54D21*G54D22*G54D21*G54D18*G54D22*G54D23*G54D24*G54D19*G54D23*G54D18*G54D16*G54D18*G54D16*G54D21*G54D23*G54D21*G54D17*G54D23*G54D19*G54D23*G54D24*G54D23*G54D19*G54D18*G54D19*G54D18*G54D19*G54D18*G54D16*G54D18*G54D16*M02*
