M48
INCH
T16C0.038
T17C0.146
T18C0.020
T19C0.040
T20C0.036
T21C0.032
T22C0.028
T23C0.052
%
T18
X048507Y038338
X049492Y038338
X053992Y038338
X053007Y038338
X013992Y031338
X013007Y031338
X011992Y031338
X011007Y031338
X011992Y025338
X011007Y025338
X013992Y025338
X013007Y025338
X013992Y019338
X013007Y019338
X011992Y019338
X011007Y019338
X013992Y013338
X013007Y013338
X011992Y013338
X011007Y013338
X013992Y007338
X013007Y007338
X011992Y007338
X011007Y007338
T22
X056500Y031338
X056500Y032338
X056500Y033338
X056500Y034338
X053500Y034338
X053500Y033338
X053500Y032338
X053500Y031338
T21
X049393Y035838
X048606Y035838
X056893Y038338
X056106Y038338
X033000Y019338
X037000Y019338
X028000Y019338
X032000Y019338
T20
X040960Y035354
X040960Y037322
T16
X004500Y036588
X004500Y035588
X004500Y034588
X004500Y033588
X004500Y032588
X004500Y031588
X004500Y030588
X004500Y029588
X004500Y028588
X004500Y027588
X004500Y026588
X004500Y025588
X004500Y024588
X004500Y023588
X004500Y022588
X004500Y021588
X004500Y020588
X004500Y019588
X004500Y018588
X004500Y017588
X004500Y016588
X004500Y015588
X004500Y014588
X004500Y013588
X004500Y012588
X004500Y011588
X004500Y010588
X004500Y009588
X004500Y008588
X004500Y007588
X004500Y006588
X010000Y032838
X010000Y026838
X011000Y032838
X012000Y032838
X012000Y026838
X013000Y032838
X013000Y026838
X014000Y026838
X015000Y026838
X016000Y026838
X017000Y026838
X014000Y032838
X015000Y032838
X016000Y032838
X017000Y032838
X011000Y026838
X010000Y020838
X011000Y020838
X012000Y020838
X013000Y020838
X014000Y020838
X015000Y020838
X016000Y020838
X017000Y020838
X010000Y014838
X011000Y014838
X012000Y014838
X013000Y014838
X014000Y014838
X015000Y014838
X016000Y014838
X017000Y014838
X010000Y008838
X011000Y008838
X012000Y008838
X013000Y008838
X014000Y008838
X015000Y008838
X016000Y008838
X017000Y008838
T19
X010000Y039338
X017500Y039338
X051500Y038338
X044500Y038338
X044500Y033338
X046500Y038338
X046500Y034338
X051500Y033338
X046500Y032338
X051500Y032338
X052500Y035838
X057500Y035838
X027000Y019338
X022000Y019338
X016000Y019338
X021000Y019338
X016000Y025338
X021000Y025338
X010000Y003838
X017500Y003838
T23
X060236Y036417
X059251Y035433
X060236Y034448
X059251Y033464
X060236Y032480
X060236Y030511
X060236Y028543
X060236Y026574
X060236Y024606
X060236Y022637
X059251Y031496
X059251Y029527
X059251Y027559
X059251Y025590
X059251Y023622
X059251Y021653
X059251Y019685
X027968Y005822
X026000Y004838
X060236Y020669
X060236Y018700
X060236Y016732
X060236Y014763
X059251Y017716
X059251Y015748
X059251Y013779
X059251Y011811
X059251Y009842
X059251Y007874
X060236Y012795
X060236Y010826
X060236Y008858
X060236Y006889
X024031Y005822
T17
X031500Y004838
M30
