G04 start of page 2 for group 0 idx 0 *
G04 Title: 26.006.01.01.01, component *
G04 Creator: pcb 20100929 *
G04 CreationDate: Sat Mar 21 19:35:30 2015 UTC *
G04 For: bert *
G04 Format: Gerber/RS-274X *
G04 PCB-Dimensions: 260000 115000 *
G04 PCB-Coordinate-Origin: lower left *
%MOIN*%
%FSLAX25Y25*%
%LNFRONT*%
%ADD11C,0.0100*%
%ADD12C,0.0150*%
%ADD13C,0.0200*%
%ADD14C,0.0600*%
%ADD15C,0.0650*%
%ADD16C,0.0400*%
%ADD17R,0.0200X0.0200*%
%ADD18R,0.0512X0.0512*%
%ADD19R,0.0394X0.0394*%
%ADD20R,0.0433X0.0433*%
%ADD21R,0.0515X0.0515*%
%ADD22C,0.0380*%
%ADD23C,0.0460*%
G54D11*X107500Y67500D02*Y52500D01*
Y62500D02*X95000D01*
X92500Y65000D01*
X87500D01*
X100000Y60000D02*X102500Y57500D01*
Y52500D01*
X80000Y55000D02*X85000D01*
X80000Y77500D02*Y62500D01*
X82500Y60000D01*
X100000D01*
X127500Y80000D02*Y57500D01*
X125000Y55000D01*
X122500D01*
X120000Y57500D01*
X107500D01*
X102500Y47500D02*Y35000D01*
X87500Y17500D02*X92500D01*
X90000Y25000D02*X102500D01*
X85000Y20000D02*X90000Y25000D01*
X80000Y37500D02*Y47500D01*
X102500Y35000D02*X120000D01*
Y12500D02*Y20000D01*
X85000Y15000D02*X87500Y17500D01*
X102500Y72500D02*Y80000D01*
X112500Y47500D02*Y40000D01*
X122500Y47500D02*Y42500D01*
X137500Y40000D02*X140000D01*
X135000Y42500D02*X137500Y40000D01*
X140000Y102500D02*Y95000D01*
X132500Y87500D02*Y37500D01*
X135000Y35000D01*
X145000Y110000D02*Y107500D01*
X140000Y102500D01*
X150000Y95000D02*X147500D01*
X142500Y90000D01*
X135000D01*
X132500Y87500D01*
X62500Y53000D02*Y57500D01*
X55000Y40000D02*X52500Y37500D01*
X67500Y52500D02*Y55000D01*
X70000Y57500D01*
X52500Y60000D02*Y42500D01*
G54D12*X112500Y110000D02*X115000D01*
X102500Y107500D02*X110000D01*
G54D11*X122500Y95000D02*Y102500D01*
G54D12*X110000Y107500D02*X112500Y110000D01*
G54D11*Y97500D02*Y85000D01*
X115000Y82500D01*
X95000Y102500D02*X82500D01*
X45000Y35000D02*Y20000D01*
X52500Y37500D02*Y22500D01*
X55000Y20000D01*
X60000D01*
X35000Y32500D02*X32500D01*
X30000Y35000D01*
Y37500D01*
X60000Y35000D02*X77500D01*
X80000Y37500D01*
X65000Y5000D02*Y10000D01*
X75000Y5000D02*X77500D01*
X65000Y10000D02*X67500Y12500D01*
X72500Y20000D02*X85000D01*
X17500Y15000D02*X85000D01*
X12500Y27500D02*Y20000D01*
X17500Y15000D01*
X35000Y47500D02*Y40000D01*
X45000Y47500D02*Y45000D01*
X40000Y57500D02*Y52500D01*
X45000Y47500D01*
X72500D02*Y40000D01*
X67500Y47500D02*Y42500D01*
X65000Y40000D01*
X55000D01*
X52500Y42500D02*X45000Y35000D01*
X70000Y57500D02*X77500D01*
X80000Y55000D01*
X75000Y92500D02*X77500Y90000D01*
Y57500D01*
G54D12*X82500Y80000D02*Y85000D01*
G54D11*X62500Y72500D02*Y80000D01*
X95000D02*X82500D01*
X80000Y77500D01*
X67500Y67500D02*Y62500D01*
X62500Y67500D02*Y65000D01*
X25000Y53000D02*Y57500D01*
X30000Y62500D02*Y52500D01*
X5000Y60000D02*Y42500D01*
X10000Y62500D02*X7500D01*
X5000Y60000D01*
X12500Y72500D02*Y62500D01*
Y52500D02*Y55000D01*
X2500Y87500D02*Y37500D01*
X12500Y55000D02*X20000Y62500D01*
X35000D02*X40000Y57500D01*
X15000Y85000D02*X42500D01*
X45000Y65611D02*Y57500D01*
X37500Y85000D02*Y90000D01*
X42500Y85000D02*X45000Y82500D01*
Y80000D01*
X50000Y92500D02*X75000D01*
X25000Y80000D02*Y72500D01*
X30000D02*Y85000D01*
X20000Y62500D02*X35000D01*
X62500Y65000D02*X60000Y62500D01*
X55000D01*
X52500Y60000D01*
X10000Y102500D02*Y95000D01*
X15000Y110000D02*Y107500D01*
X10000Y102500D01*
X20000Y95000D02*X17500D01*
X12500Y90000D01*
X5000D01*
X2500Y87500D01*
X7500Y40000D02*X10000D01*
X5000Y42500D02*X7500Y40000D01*
X30000Y37500D02*X27500Y40000D01*
X15000D01*
X2500Y37500D02*X5000Y35000D01*
X22500D01*
X117500Y77500D02*Y72500D01*
X122500Y67500D01*
Y62500D01*
X140000D02*X137500D01*
X142500Y72500D02*Y62500D01*
X125000Y82500D02*X127500Y80000D01*
X107500D02*X115000D01*
X117500Y77500D01*
X115000Y82500D02*X125000D01*
X155000Y80000D02*Y72500D01*
X150000Y62500D02*X165000D01*
X160000Y72500D02*Y85000D01*
X167500D02*Y90000D01*
X172500Y85000D02*X175000Y82500D01*
Y80000D01*
X145000Y85000D02*X172500D01*
X145000Y15000D02*X215000D01*
X175000Y35000D02*Y27500D01*
X185000Y40000D02*X182500Y37500D01*
Y22500D01*
X185000Y20000D01*
X190000D01*
X160000Y37500D02*X157500Y40000D01*
X190000Y35000D02*X207500D01*
X210000Y37500D01*
X135000Y35000D02*X152500D01*
X130000Y27500D02*X65000D01*
X157500Y40000D02*X145000D01*
X142500Y27500D02*Y17500D01*
X145000Y15000D01*
X67500Y12500D02*X247500D01*
X77500Y5000D02*X220000D01*
X202500Y20000D02*X215000D01*
X220000Y25000D01*
Y17500D02*X217500D01*
X215000Y15000D01*
X192500Y53000D02*Y57500D01*
X197500Y67500D02*Y62500D01*
X192500Y67500D02*Y65000D01*
X190000Y62500D01*
X247500Y77500D02*Y72500D01*
X242500Y85000D02*X245000Y82500D01*
X165000Y47500D02*Y40000D01*
X202500Y47500D02*Y40000D01*
X197500Y47500D02*Y42500D01*
X195000Y40000D01*
X185000D01*
X175000Y47500D02*Y45000D01*
X210000Y37500D02*Y47500D01*
X175000Y65611D02*Y57500D01*
X190000Y62500D02*X185000D01*
X182500Y60000D01*
Y42500D01*
X175000Y35000D01*
X155000Y53000D02*Y57500D01*
X135000Y60000D02*Y42500D01*
X137500Y62500D02*X135000Y60000D01*
X142500Y52500D02*Y55000D01*
X150000Y62500D01*
X165000D02*X170000Y57500D01*
Y52500D01*
X175000Y47500D01*
X160000Y62500D02*Y52500D01*
X165000Y32500D02*X162500D01*
X160000Y35000D01*
Y37500D01*
X237500Y67500D02*Y52500D01*
X245000Y80000D02*X247500Y77500D01*
X250000Y57500D02*X237500D01*
Y62500D02*X225000D01*
X232500Y72500D02*Y80000D01*
X230000Y60000D02*X232500Y57500D01*
Y52500D01*
X257500Y80000D02*Y57500D01*
X255000Y55000D01*
X247500Y72500D02*X252500Y67500D01*
Y62500D01*
X255000Y55000D02*X252500D01*
X250000Y57500D01*
X232500Y47500D02*Y35000D01*
X220000Y5000D02*X222500Y7500D01*
X220000Y25000D02*X232500D01*
X252500Y47500D02*Y42500D01*
X242500Y47500D02*Y40000D01*
X232500Y35000D02*X250000D01*
X247500Y12500D02*X250000Y15000D01*
Y20000D01*
X192500Y72500D02*Y80000D01*
X180000Y92500D02*X205000D01*
X207500Y90000D01*
G54D12*X212500Y80000D02*Y85000D01*
G54D11*X225000Y80000D02*X212500D01*
X197500Y52500D02*Y55000D01*
X200000Y57500D01*
X207500D01*
X210000Y55000D01*
X215000D01*
X207500Y90000D02*Y57500D01*
X212500Y80000D02*X210000Y77500D01*
X225000Y62500D02*X222500Y65000D01*
X217500D01*
X210000Y77500D02*Y62500D01*
X212500Y60000D01*
X230000D01*
X225000Y102500D02*X212500D01*
G54D12*X242500Y110000D02*X245000D01*
X232500Y107500D02*X240000D01*
X242500Y110000D01*
G54D11*X255000Y82500D02*X257500Y80000D01*
X237500D02*X245000D01*
X252500Y95000D02*Y87500D01*
X242500Y97500D02*Y85000D01*
X245000Y82500D02*X255000D01*
G54D13*G36*
X2000Y8000D02*Y2000D01*
X8000D01*
Y8000D01*
X2000D01*
G37*
G54D14*X15000Y5000D03*
X25000D03*
X35000D03*
X45000D03*
X55000D03*
G54D15*X232500Y107500D03*
G54D14*X65000Y5000D03*
X75000D03*
G54D15*X135000Y17500D03*
X102500Y107500D03*
G54D16*X112500Y40000D03*
X202500D03*
X165000D03*
X242500D03*
X252500Y42500D03*
X122500D03*
Y102500D03*
X102500Y80000D03*
X95000Y102500D03*
X155000Y57500D03*
Y80000D03*
X140000Y102500D03*
X130000Y27500D03*
X175000D03*
X62500Y57500D03*
X65000Y27500D03*
X72500Y40000D03*
X80000Y47500D03*
X67500Y62500D03*
X25000Y57500D03*
X62500Y80000D03*
X25000D03*
X10000Y102500D03*
X35000Y40000D03*
X45000Y20000D03*
X192500Y57500D03*
Y80000D03*
X210000Y47500D03*
X197500Y62500D03*
X232500Y80000D03*
X252500Y87500D03*
X225000Y102500D03*
G54D17*X97500Y53000D02*Y46500D01*
G54D18*X84016Y54095D02*X85984D01*
X91516Y6595D02*X93484D01*
X91516Y18405D02*X93484D01*
X101516Y24095D02*X103484D01*
G54D17*X102500Y53000D02*Y46500D01*
X107500Y53000D02*Y46500D01*
X112500Y53000D02*Y46500D01*
G54D18*X101516Y35905D02*X103484D01*
X154095Y33484D02*Y31516D01*
X141516Y29095D02*X143484D01*
X141516Y40905D02*X143484D01*
G54D19*X118524Y20611D02*X121476D01*
X118524Y34389D02*X121476D01*
G54D18*X165905Y33484D02*Y31516D01*
X174016Y44095D02*X175984D01*
X141516Y63405D02*X143484D01*
X141516Y51595D02*X143484D01*
G54D19*X121024Y48111D02*X123976D01*
X121024Y61889D02*X123976D01*
G54D17*X57500Y53000D02*Y46500D01*
G54D18*X11516Y51595D02*X13484D01*
G54D17*X20000Y53000D02*Y46500D01*
X25000Y53000D02*Y46500D01*
X30000Y53000D02*Y46500D01*
X35000Y53000D02*Y46500D01*
X62500Y53000D02*Y46500D01*
X67500Y53000D02*Y46500D01*
X72500Y53000D02*Y46500D01*
G54D18*X44016Y44095D02*X45984D01*
X24095Y33484D02*Y31516D01*
X35905Y33484D02*Y31516D01*
X11516Y29095D02*X13484D01*
X11516Y40905D02*X13484D01*
X44016Y55905D02*X45984D01*
G54D19*X68524Y20611D02*X71476D01*
X68524Y34389D02*X71476D01*
X58524D02*X61476D01*
X58524Y20611D02*X61476D01*
G54D18*X96595Y83484D02*Y81516D01*
G54D17*X112500Y73500D02*Y67000D01*
X107500Y73500D02*Y67000D01*
X102500Y73500D02*Y67000D01*
G54D18*X108405Y83484D02*Y81516D01*
G54D17*X97500Y73500D02*Y67000D01*
X72500Y73500D02*Y67000D01*
X67500Y73500D02*Y67000D01*
X62500Y73500D02*Y67000D01*
X57500Y73500D02*Y67000D01*
G54D18*X84016Y65905D02*X85984D01*
X111792Y95610D02*Y94824D01*
X123208Y95610D02*Y94824D01*
G54D20*X114941Y110177D02*X120059D01*
G54D18*X11516Y63405D02*X13484D01*
G54D17*X30000Y73500D02*Y67000D01*
X25000Y73500D02*Y67000D01*
X20000Y73500D02*Y67000D01*
G54D18*X11516Y71595D02*X13484D01*
X44016Y66595D02*X45984D01*
G54D17*X35000Y73500D02*Y67000D01*
G54D18*X11516Y83405D02*X13484D01*
G54D21*X82500Y91457D02*Y86732D01*
Y103268D02*Y98543D01*
G54D18*X36595Y93484D02*Y91516D01*
X48405Y93484D02*Y91516D01*
X44016Y78405D02*X45984D01*
X9292Y95610D02*Y94824D01*
X20708Y95610D02*Y94824D01*
G54D20*X12441Y110177D02*X17559D01*
G54D18*X214016Y54095D02*X215984D01*
G54D19*X251024Y48111D02*X253976D01*
X251024Y61889D02*X253976D01*
G54D17*X237500Y53000D02*Y46500D01*
X242500Y53000D02*Y46500D01*
G54D18*X214016Y65905D02*X215984D01*
G54D17*X242500Y73500D02*Y67000D01*
X237500Y73500D02*Y67000D01*
X232500Y73500D02*Y67000D01*
X227500Y73500D02*Y67000D01*
X202500Y53000D02*Y46500D01*
Y73500D02*Y67000D01*
X227500Y53000D02*Y46500D01*
X232500Y53000D02*Y46500D01*
G54D18*X166595Y93484D02*Y91516D01*
X178405Y93484D02*Y91516D01*
X139292Y95610D02*Y94824D01*
X150708Y95610D02*Y94824D01*
G54D20*X142441Y110177D02*X147559D01*
G54D18*X174016Y55905D02*X175984D01*
G54D17*X150000Y53000D02*Y46500D01*
X155000Y53000D02*Y46500D01*
X160000Y53000D02*Y46500D01*
X165000Y53000D02*Y46500D01*
G54D18*X174016Y66595D02*X175984D01*
X174016Y78405D02*X175984D01*
G54D17*X165000Y73500D02*Y67000D01*
X160000Y73500D02*Y67000D01*
G54D18*X141516Y71595D02*X143484D01*
X141516Y83405D02*X143484D01*
G54D17*X155000Y73500D02*Y67000D01*
X150000Y73500D02*Y67000D01*
X187500Y53000D02*Y46500D01*
X192500Y53000D02*Y46500D01*
X197500Y53000D02*Y46500D01*
Y73500D02*Y67000D01*
X192500Y73500D02*Y67000D01*
X187500Y73500D02*Y67000D01*
G54D21*X212500Y91457D02*Y86732D01*
G54D18*X241792Y95610D02*Y94824D01*
X253208Y95610D02*Y94824D01*
G54D20*X244941Y110177D02*X250059D01*
G54D21*X212500Y103268D02*Y98543D01*
G54D18*X238405Y83484D02*Y81516D01*
X226595Y83484D02*Y81516D01*
X221516Y6595D02*X223484D01*
X221516Y18405D02*X223484D01*
G54D19*X198524Y34389D02*X201476D01*
X188524D02*X191476D01*
X198524Y20611D02*X201476D01*
X188524D02*X191476D01*
G54D18*X231516Y24095D02*X233484D01*
X231516Y35905D02*X233484D01*
G54D19*X248524Y20611D02*X251476D01*
X248524Y34389D02*X251476D01*
G54D22*G54D23*G54D22*G54D23*G54D13*M02*
