G04 start of page 8 for group -4063 idx -4063 *
G04 Title: 26.003.00.01.01.pcb, componentmask *
G04 Creator: pcb 20100929 *
G04 CreationDate: Wed Mar 18 07:56:07 2015 UTC *
G04 For: bert *
G04 Format: Gerber/RS-274X *
G04 PCB-Dimensions: 649606 413386 *
G04 PCB-Coordinate-Origin: lower left *
%MOIN*%
%FSLAX25Y25*%
%LNFRONTMASK*%
%ADD11C,0.0600*%
%ADD12C,0.0540*%
%ADD14C,0.0720*%
%ADD15C,0.2760*%
%ADD17C,0.1460*%
%ADD24C,0.1100*%
%ADD28C,0.0660*%
%ADD29C,0.0580*%
%ADD30C,0.0710*%
%ADD31C,0.0780*%
G54D28*X45000Y365886D03*
Y355886D03*
Y345886D03*
Y335886D03*
G54D17*X20000Y383386D03*
G54D28*X45000Y325886D03*
Y315886D03*
Y305886D03*
Y295886D03*
Y285886D03*
Y275886D03*
Y265886D03*
Y255886D03*
Y245886D03*
Y235886D03*
Y225886D03*
Y215886D03*
Y205886D03*
Y195886D03*
Y185886D03*
Y175886D03*
Y165886D03*
Y155886D03*
Y145886D03*
Y135886D03*
Y125886D03*
Y115886D03*
Y105886D03*
Y95886D03*
Y85886D03*
Y75886D03*
Y65886D03*
G54D17*X20000Y48386D03*
G54D29*X485079Y383386D03*
G54D30*X100000Y393386D03*
X175000D03*
G54D17*X315000Y383386D03*
G54D28*X515000D03*
X445000D03*
Y333386D03*
G54D11*X409606Y353544D03*
Y373229D03*
G54D12*X493937Y358386D03*
X486063D03*
G54D29*X494921Y383386D03*
G54D28*X465000D03*
Y343386D03*
X515000Y333386D03*
X465000Y323386D03*
X515000D03*
G54D12*X568937Y383386D03*
G54D28*X565000Y313386D03*
Y323386D03*
Y333386D03*
Y343386D03*
G54D12*X561063Y383386D03*
G54D29*X539921D03*
X530079D03*
G54D28*X535000Y343386D03*
Y333386D03*
Y323386D03*
Y313386D03*
G54D14*X602360Y364174D03*
X592518Y354332D03*
X602360Y344489D03*
X592518Y334647D03*
G54D24*X612203Y383859D03*
G54D28*X525000Y358386D03*
X575000D03*
G54D14*X602360Y324804D03*
Y305119D03*
Y285434D03*
Y265749D03*
Y246064D03*
Y226379D03*
X592518Y314961D03*
Y295276D03*
Y275591D03*
Y255906D03*
Y236221D03*
Y216537D03*
Y196852D03*
G54D29*X139921Y313386D03*
X130079D03*
X119921D03*
X110079D03*
G54D28*X100000Y328386D03*
Y268386D03*
X110000Y328386D03*
X120000D03*
Y268386D03*
X130000Y328386D03*
Y268386D03*
X140000D03*
X150000D03*
X160000D03*
X170000D03*
X140000Y328386D03*
X150000D03*
X160000D03*
X170000D03*
G54D29*X119921Y253386D03*
X110079D03*
G54D28*X110000Y268386D03*
X100000Y208386D03*
X110000D03*
X120000D03*
X130000D03*
X140000D03*
X150000D03*
X160000D03*
X170000D03*
X330000Y193386D03*
X370000D03*
G54D31*X279685Y58228D03*
G54D28*X280000Y193386D03*
X320000D03*
G54D15*X315000Y48386D03*
G54D31*X260000D03*
G54D28*X270000Y193386D03*
G54D14*X602360Y206694D03*
Y187009D03*
Y167324D03*
Y147639D03*
X592518Y177167D03*
Y157481D03*
Y137796D03*
Y118111D03*
Y98426D03*
Y78741D03*
X602360Y127954D03*
Y108269D03*
Y88584D03*
Y68899D03*
G54D24*X612203Y49213D03*
G54D31*X240315Y58228D03*
G54D28*X220000Y193386D03*
X160000D03*
X210000D03*
G54D29*X139921Y253386D03*
X130079D03*
G54D28*X160000D03*
X210000D03*
G54D29*X139921Y193386D03*
X130079D03*
X119921D03*
X110079D03*
G54D30*X100000Y38386D03*
X175000D03*
G54D29*X139921Y133386D03*
X130079D03*
X119921D03*
X110079D03*
G54D28*X100000Y148386D03*
X110000D03*
X120000D03*
X130000D03*
X140000D03*
X150000D03*
X160000D03*
X170000D03*
G54D29*X139921Y73386D03*
X130079D03*
X119921D03*
X110079D03*
G54D28*X100000Y88386D03*
X110000D03*
X120000D03*
X130000D03*
X140000D03*
X150000D03*
X160000D03*
X170000D03*
M02*
