G04 start of page 8 for group -4079 idx -4079 *
G04 Title: 26.002.00.01.01.pcb, topsilk *
G04 Creator: pcb 20100929 *
G04 CreationDate: Wed Mar 18 07:56:07 2015 UTC *
G04 For: bert *
G04 Format: Gerber/RS-274X *
G04 PCB-Dimensions: 196850 393701 *
G04 PCB-Coordinate-Origin: lower left *
%MOIN*%
%FSLAX25Y25*%
%LNFRONTSILK*%
%ADD14C,0.0080*%
%ADD16C,0.0100*%
G54D14*X9843Y9842D02*X19686D01*
X175197Y383858D02*X165355D01*
X175197D02*Y374015D01*
X9843Y9842D02*Y19685D01*
X23622Y196851D02*X29528D01*
X15748Y200788D02*Y202756D01*
Y192914D02*Y190945D01*
G54D16*X19843Y383858D02*X9843D01*
Y373858D01*
X175197Y9842D02*X165197D01*
X175197Y19842D02*Y9842D01*
G54D14*X13779Y353863D02*Y352363D01*
Y353863D02*X17279D01*
X17779Y353363D02*X17279Y353863D01*
X17779Y353363D02*Y352863D01*
X17279Y352363D02*X17779Y352863D01*
Y356564D02*Y355564D01*
X13779Y356064D02*X17779D01*
X14779Y355064D02*X13779Y356064D01*
X17279Y357765D02*X17779Y358265D01*
X14279Y357765D02*X17279D01*
X14279D02*X13779Y358265D01*
Y359265D02*Y358265D01*
Y359265D02*X14279Y359765D01*
X17279D01*
X17779Y359265D02*X17279Y359765D01*
X17779Y359265D02*Y358265D01*
X16779Y357765D02*X14779Y359765D01*
X17779Y362466D02*Y361466D01*
X13779Y361966D02*X17779D01*
X14779Y360966D02*X13779Y361966D01*
M02*
