M48
INCH
T17C0.052
T18C0.024
T19C0.040
T20C0.032
%
T18
X019500Y013700
X013000Y004700
X013000Y006700
X013000Y011700
X011000Y011700
X019500Y011700
X060000Y004700
X060000Y006700
X060000Y011700
X058000Y011700
X050000Y013700
X050000Y011700
X053500Y005700
X053500Y007700
X043500Y004700
X043500Y006700
X043500Y011700
X041500Y011700
X029500Y011700
X029500Y004700
X029500Y006700
X027500Y011700
X023000Y005700
X023000Y007700
T20
X007023Y014200
X009976Y014200
X017000Y001700
X015250Y002450
X010000Y007700
X011000Y007700
X012000Y007700
X007500Y007723
X013000Y007700
X013000Y010700
X012000Y010700
X011000Y010700
X010000Y010700
X007500Y010676
X018500Y007700
X019500Y007700
X020500Y007700
X021500Y007700
X021500Y010700
X020500Y010700
X020500Y011700
X019500Y010700
X018500Y010700
X017000Y011200
X017000Y005700
X017000Y007200
X015250Y006450
X060000Y007700
X057000Y007700
X058000Y007700
X059000Y007700
X060000Y010700
X059000Y010700
X058000Y010700
X057000Y010700
X057106Y005700
X057893Y005700
X055000Y011700
X049000Y007700
X050000Y007700
X051000Y007700
X052000Y007700
X051000Y011700
X047500Y001700
X045750Y002450
X047500Y005700
X047500Y007200
X045750Y006450
X040500Y007700
X041500Y007700
X042500Y007700
X043500Y007700
X043500Y010700
X042500Y010700
X041500Y010700
X040500Y010700
X038000Y010676
X038000Y007723
X052000Y010700
X051000Y010700
X050000Y010700
X049000Y010700
X047500Y011200
X037523Y014200
X040476Y014200
X027500Y007700
X028500Y007700
X029500Y007700
X029500Y010700
X028500Y010700
X027500Y010700
X026500Y010700
X024500Y011700
X026500Y007700
X026606Y005700
X027393Y005700
X035250Y000700
X001250Y002950
T19
X016000Y014200
X012000Y014200
X001500Y000700
X002500Y000700
X003500Y000700
X004500Y000700
X005500Y000700
X006500Y000700
X007500Y000700
X008500Y000700
X018000Y003700
X022000Y003700
X004000Y007200
X005750Y007200
X004000Y011200
X005750Y011200
X014500Y007200
X014500Y011200
X003500Y005450
X007500Y005450
X022000Y005700
X016000Y011200
X018000Y005700
X016000Y007200
X055750Y007200
X055750Y011200
X045000Y007200
X052500Y003700
X052500Y005700
X048500Y003700
X046500Y014200
X046500Y011200
X046500Y007200
X045000Y011200
X042500Y014200
X048500Y005700
X038000Y005450
X034500Y007200
X036250Y007200
X034000Y005450
X034500Y011200
X036250Y011200
X025250Y011200
X025250Y007200
T17
X001031Y012715
X004968Y012715
X003000Y013700
X059718Y012715
X055781Y012715
X057750Y013700
X031531Y012715
X033500Y013700
X035468Y012715
X029218Y012715
X025281Y012715
X027250Y013700
M30
