G04 start of page 11 for group -4015 idx -4015 *
G04 Title: 26.007.01.01.01, toppaste *
G04 Creator: pcb 20100929 *
G04 CreationDate: Sat Mar 21 19:59:17 2015 UTC *
G04 For: bert *
G04 Format: Gerber/RS-274X *
G04 PCB-Dimensions: 260000 115000 *
G04 PCB-Coordinate-Origin: lower left *
%MOIN*%
%FSLAX25Y25*%
%LNFRONTPASTE*%
%ADD17R,0.0200X0.0200*%
%ADD18R,0.0512X0.0512*%
%ADD19R,0.0394X0.0394*%
%ADD20R,0.0433X0.0433*%
%ADD21R,0.0515X0.0515*%
G54D17*X227500Y53000D02*Y46500D01*
X232500Y53000D02*Y46500D01*
X237500Y53000D02*Y46500D01*
X242500Y53000D02*Y46500D01*
Y73500D02*Y67000D01*
X237500Y73500D02*Y67000D01*
X232500Y73500D02*Y67000D01*
X227500Y73500D02*Y67000D01*
X187500Y53000D02*Y46500D01*
X192500Y53000D02*Y46500D01*
X197500Y53000D02*Y46500D01*
X202500Y53000D02*Y46500D01*
Y73500D02*Y67000D01*
X197500Y73500D02*Y67000D01*
X192500Y73500D02*Y67000D01*
X187500Y73500D02*Y67000D01*
G54D18*X9292Y95610D02*Y94824D01*
X20708Y95610D02*Y94824D01*
G54D20*X12441Y110177D02*X17559D01*
G54D18*X111792Y95610D02*Y94824D01*
X123208Y95610D02*Y94824D01*
G54D20*X114941Y110177D02*X120059D01*
G54D19*X58524Y34389D02*X61476D01*
X58524Y20611D02*X61476D01*
X68524D02*X71476D01*
X68524Y34389D02*X71476D01*
G54D18*X11516Y29095D02*X13484D01*
X11516Y40905D02*X13484D01*
X238405Y83484D02*Y81516D01*
X226595Y83484D02*Y81516D01*
G54D19*X118524Y20611D02*X121476D01*
X118524Y34389D02*X121476D01*
G54D18*X11516Y71595D02*X13484D01*
X11516Y83405D02*X13484D01*
X101516Y24095D02*X103484D01*
X101516Y35905D02*X103484D01*
X24095Y33484D02*Y31516D01*
X35905Y33484D02*Y31516D01*
X44016Y66595D02*X45984D01*
X44016Y78405D02*X45984D01*
X44016Y44095D02*X45984D01*
X44016Y55905D02*X45984D01*
X36595Y93484D02*Y91516D01*
X48405Y93484D02*Y91516D01*
X84016Y54095D02*X85984D01*
X84016Y65905D02*X85984D01*
G54D19*X121024Y48111D02*X123976D01*
X121024Y61889D02*X123976D01*
G54D18*X141516Y63405D02*X143484D01*
X141516Y51595D02*X143484D01*
X91516Y6595D02*X93484D01*
X91516Y18405D02*X93484D01*
G54D17*X20000Y53000D02*Y46500D01*
X25000Y53000D02*Y46500D01*
X30000Y53000D02*Y46500D01*
X35000Y53000D02*Y46500D01*
Y73500D02*Y67000D01*
X30000Y73500D02*Y67000D01*
X25000Y73500D02*Y67000D01*
X20000Y73500D02*Y67000D01*
G54D21*X212500Y91457D02*Y86732D01*
Y103268D02*Y98543D01*
G54D18*X139292Y95610D02*Y94824D01*
X150708Y95610D02*Y94824D01*
G54D20*X142441Y110177D02*X147559D01*
G54D17*X150000Y53000D02*Y46500D01*
X155000Y53000D02*Y46500D01*
X160000Y53000D02*Y46500D01*
X165000Y53000D02*Y46500D01*
Y73500D02*Y67000D01*
X160000Y73500D02*Y67000D01*
X155000Y73500D02*Y67000D01*
X150000Y73500D02*Y67000D01*
G54D18*X241792Y95610D02*Y94824D01*
X253208Y95610D02*Y94824D01*
G54D20*X244941Y110177D02*X250059D01*
G54D19*X188524Y34389D02*X191476D01*
X188524Y20611D02*X191476D01*
X198524D02*X201476D01*
X198524Y34389D02*X201476D01*
G54D18*X108405Y83484D02*Y81516D01*
X96595Y83484D02*Y81516D01*
X174016Y44095D02*X175984D01*
X174016Y55905D02*X175984D01*
X11516Y63405D02*X13484D01*
X11516Y51595D02*X13484D01*
G54D19*X248524Y20611D02*X251476D01*
X248524Y34389D02*X251476D01*
G54D18*X141516Y71595D02*X143484D01*
X141516Y83405D02*X143484D01*
X231516Y24095D02*X233484D01*
X231516Y35905D02*X233484D01*
X166595Y93484D02*Y91516D01*
X178405Y93484D02*Y91516D01*
X174016Y66595D02*X175984D01*
X174016Y78405D02*X175984D01*
G54D17*X57500Y53000D02*Y46500D01*
X62500Y53000D02*Y46500D01*
X67500Y53000D02*Y46500D01*
X72500Y53000D02*Y46500D01*
Y73500D02*Y67000D01*
X67500Y73500D02*Y67000D01*
X62500Y73500D02*Y67000D01*
X57500Y73500D02*Y67000D01*
G54D18*X141516Y29095D02*X143484D01*
X141516Y40905D02*X143484D01*
X221516Y6595D02*X223484D01*
X221516Y18405D02*X223484D01*
X154095Y33484D02*Y31516D01*
X165905Y33484D02*Y31516D01*
G54D19*X251024Y48111D02*X253976D01*
X251024Y61889D02*X253976D01*
G54D21*X82500Y91457D02*Y86732D01*
Y103268D02*Y98543D01*
G54D18*X214016Y54095D02*X215984D01*
X214016Y65905D02*X215984D01*
G54D17*X97500Y53000D02*Y46500D01*
X102500Y53000D02*Y46500D01*
X107500Y53000D02*Y46500D01*
X112500Y53000D02*Y46500D01*
Y73500D02*Y67000D01*
X107500Y73500D02*Y67000D01*
X102500Y73500D02*Y67000D01*
X97500Y73500D02*Y67000D01*
M02*
