M48
INCH
T18C0.027
T19C0.050
T20C0.052
T21C0.040
T22C0.036
T23C0.032
T24C0.067
T25C0.028
%
T18
X006000Y008000
X006000Y008500
X006000Y009000
T25
X019000Y013000
X019000Y014000
X019000Y015000
X019000Y016000
X016000Y013000
X016000Y016000
X016000Y015000
X016000Y014000
T23
X007000Y018000
X001000Y019000
X001000Y015000
X011000Y018000
T22
X003000Y021000
X004968Y021000
T21
X007000Y011500
X013500Y022000
X018500Y022000
X013500Y018000
X018500Y018000
X013500Y020000
X018500Y020000
X013000Y011500
X013000Y016500
X011000Y016500
X009000Y016500
X007000Y016500
X011500Y009000
X009500Y009000
X011500Y007500
X009500Y007500
X011000Y011500
X009000Y011500
X011500Y010500
X009500Y010500
T19
X002000Y008000
X002000Y010000
X016000Y010000
X016000Y008000
T20
X003015Y013189
X004984Y013189
X004000Y017126
T24
X009000Y022000
X010000Y022000
X011000Y022000
M30
