G04 start of page 9 for group -3984 idx -3984 *
G04 Title: (unknown), fab *
G04 Creator: pcb 20100929 *
G04 CreationDate: Wed Feb  3 23:32:12 2016 UTC *
G04 For: bert *
G04 Format: Gerber/RS-274X *
G04 PCB-Dimensions: 300000 250000 *
G04 PCB-Coordinate-Origin: lower left *
%MOIN*%
%FSLAX25Y25*%
%LNFAB*%
%ADD26C,0.0100*%
%ADD33C,0.0080*%
%ADD34C,0.0060*%
G54D33*X87600Y222400D02*X92400Y217600D01*
X87600D02*X92400Y222400D01*
X88400Y221600D02*X91600D01*
X88400D02*Y218400D01*
X91600D01*
Y221600D02*Y218400D01*
X97600Y222400D02*X102400Y217600D01*
X97600D02*X102400Y222400D01*
X98400Y221600D02*X101600D01*
X98400D02*Y218400D01*
X101600D01*
Y221600D02*Y218400D01*
X107600Y222400D02*X112400Y217600D01*
X107600D02*X112400Y222400D01*
X108400Y221600D02*X111600D01*
X108400D02*Y218400D01*
X111600D01*
Y221600D02*Y218400D01*
X12600Y263650D02*X17400Y258850D01*
X12600D02*X17400Y263650D01*
X13400Y262850D02*X16600D01*
X13400D02*Y259650D01*
X16600D01*
Y262850D02*Y259650D01*
G54D34*X135000Y263500D02*Y262750D01*
X136500Y261250D01*
X138000Y262750D01*
Y263500D02*Y262750D01*
X136500Y261250D02*Y257500D01*
X139801Y260500D02*X142051D01*
X139801Y257500D02*X142801D01*
X139801Y263500D02*Y257500D01*
Y263500D02*X142801D01*
X147603D02*X148353Y262750D01*
X145353Y263500D02*X147603D01*
X144603Y262750D02*X145353Y263500D01*
X144603Y262750D02*Y261250D01*
X145353Y260500D01*
X147603D01*
X148353Y259750D01*
Y258250D01*
X147603Y257500D02*X148353Y258250D01*
X145353Y257500D02*X147603D01*
X144603Y258250D02*X145353Y257500D01*
X135000Y254249D02*X150154D01*
X98000Y262750D02*X98750Y263500D01*
X100250D01*
X101000Y262750D01*
Y258250D01*
X100250Y257500D02*X101000Y258250D01*
X98750Y257500D02*X100250D01*
X98000Y258250D02*X98750Y257500D01*
Y260500D02*X101000D01*
X98000Y254249D02*X102801D01*
X45000Y258250D02*X45750Y257500D01*
X45000Y262750D02*Y258250D01*
Y262750D02*X45750Y263500D01*
X47250D01*
X48000Y262750D01*
Y258250D01*
X47250Y257500D02*X48000Y258250D01*
X45750Y257500D02*X47250D01*
X45000Y259000D02*X48000Y262000D01*
X49801Y257500D02*X50551D01*
X52353Y258250D02*X53103Y257500D01*
X52353Y262750D02*Y258250D01*
Y262750D02*X53103Y263500D01*
X54603D01*
X55353Y262750D01*
Y258250D01*
X54603Y257500D02*X55353Y258250D01*
X53103Y257500D02*X54603D01*
X52353Y259000D02*X55353Y262000D01*
X59404Y263500D02*X60154Y262750D01*
X57904Y263500D02*X59404D01*
X57154Y262750D02*X57904Y263500D01*
X57154Y262750D02*Y258250D01*
X57904Y257500D01*
X59404Y260500D02*X60154Y259750D01*
X57154Y260500D02*X59404D01*
X57904Y257500D02*X59404D01*
X60154Y258250D01*
Y259750D02*Y258250D01*
X61956Y257500D02*X65706Y261250D01*
Y263500D02*Y261250D01*
X61956Y263500D02*X65706D01*
X45000Y254249D02*X67507D01*
X30158Y135090D02*Y128690D01*
X26958Y131890D02*X33358D01*
X28558Y133490D02*X31758D01*
X28558D02*Y130290D01*
X31758D01*
Y133490D02*Y130290D01*
X49843Y135090D02*Y128690D01*
X46643Y131890D02*X53043D01*
X48243Y133490D02*X51443D01*
X48243D02*Y130290D01*
X51443D01*
Y133490D02*Y130290D01*
X40000Y174460D02*Y168060D01*
X36800Y171260D02*X43200D01*
X38400Y172860D02*X41600D01*
X38400D02*Y169660D01*
X41600D01*
Y172860D02*Y169660D01*
X15000Y279450D02*Y273050D01*
X11800Y276250D02*X18200D01*
X13400Y277850D02*X16600D01*
X13400D02*Y274650D01*
X16600D01*
Y277850D02*Y274650D01*
X135000Y278500D02*Y277750D01*
X136500Y276250D01*
X138000Y277750D01*
Y278500D02*Y277750D01*
X136500Y276250D02*Y272500D01*
X139801Y275500D02*X142051D01*
X139801Y272500D02*X142801D01*
X139801Y278500D02*Y272500D01*
Y278500D02*X142801D01*
X147603D02*X148353Y277750D01*
X145353Y278500D02*X147603D01*
X144603Y277750D02*X145353Y278500D01*
X144603Y277750D02*Y276250D01*
X145353Y275500D01*
X147603D01*
X148353Y274750D01*
Y273250D01*
X147603Y272500D02*X148353Y273250D01*
X145353Y272500D02*X147603D01*
X144603Y273250D02*X145353Y272500D01*
X135000Y269249D02*X150154D01*
X98000Y277750D02*X98750Y278500D01*
X100250D01*
X101000Y277750D01*
Y273250D01*
X100250Y272500D02*X101000Y273250D01*
X98750Y272500D02*X100250D01*
X98000Y273250D02*X98750Y272500D01*
Y275500D02*X101000D01*
X98000Y269249D02*X102801D01*
X45000Y273250D02*X45750Y272500D01*
X45000Y277750D02*Y273250D01*
Y277750D02*X45750Y278500D01*
X47250D01*
X48000Y277750D01*
Y273250D01*
X47250Y272500D02*X48000Y273250D01*
X45750Y272500D02*X47250D01*
X45000Y274000D02*X48000Y277000D01*
X49801Y272500D02*X50551D01*
X52353Y273250D02*X53103Y272500D01*
X52353Y277750D02*Y273250D01*
Y277750D02*X53103Y278500D01*
X54603D01*
X55353Y277750D01*
Y273250D01*
X54603Y272500D02*X55353Y273250D01*
X53103Y272500D02*X54603D01*
X52353Y274000D02*X55353Y277000D01*
X57154Y278500D02*X60154D01*
X57154D02*Y275500D01*
X57904Y276250D01*
X59404D01*
X60154Y275500D01*
Y273250D01*
X59404Y272500D02*X60154Y273250D01*
X57904Y272500D02*X59404D01*
X57154Y273250D02*X57904Y272500D01*
X61956Y277750D02*X62706Y278500D01*
X64956D01*
X65706Y277750D01*
Y276250D01*
X61956Y272500D02*X65706Y276250D01*
X61956Y272500D02*X65706D01*
X45000Y269249D02*X67507D01*
X160000Y100000D02*Y96800D01*
Y100000D02*X162773Y101600D01*
X160000Y100000D02*X157227Y101600D01*
X158400Y100000D02*G75*G03X161600Y100000I1600J0D01*G01*
G75*G03X158400Y100000I-1600J0D01*G01*
X160000Y80000D02*Y76800D01*
Y80000D02*X162773Y81600D01*
X160000Y80000D02*X157227Y81600D01*
X158400Y80000D02*G75*G03X161600Y80000I1600J0D01*G01*
G75*G03X158400Y80000I-1600J0D01*G01*
X20000D02*Y76800D01*
Y80000D02*X22773Y81600D01*
X20000Y80000D02*X17227Y81600D01*
X18400Y80000D02*G75*G03X21600Y80000I1600J0D01*G01*
G75*G03X18400Y80000I-1600J0D01*G01*
X20000Y100000D02*Y96800D01*
Y100000D02*X22773Y101600D01*
X20000Y100000D02*X17227Y101600D01*
X18400Y100000D02*G75*G03X21600Y100000I1600J0D01*G01*
G75*G03X18400Y100000I-1600J0D01*G01*
X15000Y291250D02*Y288050D01*
Y291250D02*X17773Y292850D01*
X15000Y291250D02*X12227Y292850D01*
X13400Y291250D02*G75*G03X16600Y291250I1600J0D01*G01*
G75*G03X13400Y291250I-1600J0D01*G01*
X135000Y293500D02*Y292750D01*
X136500Y291250D01*
X138000Y292750D01*
Y293500D02*Y292750D01*
X136500Y291250D02*Y287500D01*
X139801Y290500D02*X142051D01*
X139801Y287500D02*X142801D01*
X139801Y293500D02*Y287500D01*
Y293500D02*X142801D01*
X147603D02*X148353Y292750D01*
X145353Y293500D02*X147603D01*
X144603Y292750D02*X145353Y293500D01*
X144603Y292750D02*Y291250D01*
X145353Y290500D01*
X147603D01*
X148353Y289750D01*
Y288250D01*
X147603Y287500D02*X148353Y288250D01*
X145353Y287500D02*X147603D01*
X144603Y288250D02*X145353Y287500D01*
X135000Y284249D02*X150154D01*
X98000Y290500D02*X101000Y293500D01*
X98000Y290500D02*X101750D01*
X101000Y293500D02*Y287500D01*
X98000Y284249D02*X103551D01*
X45000Y288250D02*X45750Y287500D01*
X45000Y292750D02*Y288250D01*
Y292750D02*X45750Y293500D01*
X47250D01*
X48000Y292750D01*
Y288250D01*
X47250Y287500D02*X48000Y288250D01*
X45750Y287500D02*X47250D01*
X45000Y289000D02*X48000Y292000D01*
X49801Y287500D02*X50551D01*
X52353Y288250D02*X53103Y287500D01*
X52353Y292750D02*Y288250D01*
Y292750D02*X53103Y293500D01*
X54603D01*
X55353Y292750D01*
Y288250D01*
X54603Y287500D02*X55353Y288250D01*
X53103Y287500D02*X54603D01*
X52353Y289000D02*X55353Y292000D01*
X57154Y293500D02*X60154D01*
X57154D02*Y290500D01*
X57904Y291250D01*
X59404D01*
X60154Y290500D01*
Y288250D01*
X59404Y287500D02*X60154Y288250D01*
X57904Y287500D02*X59404D01*
X57154Y288250D02*X57904Y287500D01*
X61956Y288250D02*X62706Y287500D01*
X61956Y292750D02*Y288250D01*
Y292750D02*X62706Y293500D01*
X64206D01*
X64956Y292750D01*
Y288250D01*
X64206Y287500D02*X64956Y288250D01*
X62706Y287500D02*X64206D01*
X61956Y289000D02*X64956Y292000D01*
X45000Y284249D02*X66757D01*
X113400Y91600D02*X116600D01*
X113400D02*Y88400D01*
X116600D01*
Y91600D02*Y88400D01*
X113400Y76600D02*X116600D01*
X113400D02*Y73400D01*
X116600D01*
Y76600D02*Y73400D01*
X113400Y106600D02*X116600D01*
X113400D02*Y103400D01*
X116600D01*
Y106600D02*Y103400D01*
X93400Y91600D02*X96600D01*
X93400D02*Y88400D01*
X96600D01*
Y91600D02*Y88400D01*
X93400Y76600D02*X96600D01*
X93400D02*Y73400D01*
X96600D01*
Y76600D02*Y73400D01*
X93400Y106600D02*X96600D01*
X93400D02*Y103400D01*
X96600D01*
Y106600D02*Y103400D01*
X68400Y116600D02*X71600D01*
X68400D02*Y113400D01*
X71600D01*
Y116600D02*Y113400D01*
X68400Y166600D02*X71600D01*
X68400D02*Y163400D01*
X71600D01*
Y166600D02*Y163400D01*
X128400Y116600D02*X131600D01*
X128400D02*Y113400D01*
X131600D01*
Y116600D02*Y113400D01*
X128400Y166600D02*X131600D01*
X128400D02*Y163400D01*
X131600D01*
Y166600D02*Y163400D01*
X88400Y116600D02*X91600D01*
X88400D02*Y113400D01*
X91600D01*
Y116600D02*Y113400D01*
X88400Y166600D02*X91600D01*
X88400D02*Y163400D01*
X91600D01*
Y166600D02*Y163400D01*
X108400Y116600D02*X111600D01*
X108400D02*Y113400D01*
X111600D01*
Y116600D02*Y113400D01*
X108400Y166600D02*X111600D01*
X108400D02*Y163400D01*
X111600D01*
Y166600D02*Y163400D01*
X133400Y221600D02*X136600D01*
X133400D02*Y218400D01*
X136600D01*
Y221600D02*Y218400D01*
X183400Y221600D02*X186600D01*
X183400D02*Y218400D01*
X186600D01*
Y221600D02*Y218400D01*
X133400Y201600D02*X136600D01*
X133400D02*Y198400D01*
X136600D01*
Y201600D02*Y198400D01*
X183400Y201600D02*X186600D01*
X183400D02*Y198400D01*
X186600D01*
Y201600D02*Y198400D01*
X133400Y181600D02*X136600D01*
X133400D02*Y178400D01*
X136600D01*
Y181600D02*Y178400D01*
X183400Y181600D02*X186600D01*
X183400D02*Y178400D01*
X186600D01*
Y181600D02*Y178400D01*
X13400Y307850D02*X16600D01*
X13400D02*Y304650D01*
X16600D01*
Y307850D02*Y304650D01*
X135000Y308500D02*Y307750D01*
X136500Y306250D01*
X138000Y307750D01*
Y308500D02*Y307750D01*
X136500Y306250D02*Y302500D01*
X139801Y305500D02*X142051D01*
X139801Y302500D02*X142801D01*
X139801Y308500D02*Y302500D01*
Y308500D02*X142801D01*
X147603D02*X148353Y307750D01*
X145353Y308500D02*X147603D01*
X144603Y307750D02*X145353Y308500D01*
X144603Y307750D02*Y306250D01*
X145353Y305500D01*
X147603D01*
X148353Y304750D01*
Y303250D01*
X147603Y302500D02*X148353Y303250D01*
X145353Y302500D02*X147603D01*
X144603Y303250D02*X145353Y302500D01*
X135000Y299249D02*X150154D01*
X98000Y307750D02*X98750Y308500D01*
X101000D01*
X101750Y307750D01*
Y306250D01*
X98000Y302500D02*X101750Y306250D01*
X98000Y302500D02*X101750D01*
X103551Y303250D02*X104301Y302500D01*
X103551Y307750D02*Y303250D01*
Y307750D02*X104301Y308500D01*
X105801D01*
X106551Y307750D01*
Y303250D01*
X105801Y302500D02*X106551Y303250D01*
X104301Y302500D02*X105801D01*
X103551Y304000D02*X106551Y307000D01*
X98000Y299249D02*X108353D01*
X45000Y303250D02*X45750Y302500D01*
X45000Y307750D02*Y303250D01*
Y307750D02*X45750Y308500D01*
X47250D01*
X48000Y307750D01*
Y303250D01*
X47250Y302500D02*X48000Y303250D01*
X45750Y302500D02*X47250D01*
X45000Y304000D02*X48000Y307000D01*
X49801Y302500D02*X50551D01*
X52353Y303250D02*X53103Y302500D01*
X52353Y307750D02*Y303250D01*
Y307750D02*X53103Y308500D01*
X54603D01*
X55353Y307750D01*
Y303250D01*
X54603Y302500D02*X55353Y303250D01*
X53103Y302500D02*X54603D01*
X52353Y304000D02*X55353Y307000D01*
X57154Y305500D02*X60154Y308500D01*
X57154Y305500D02*X60904D01*
X60154Y308500D02*Y302500D01*
X62706Y303250D02*X63456Y302500D01*
X62706Y307750D02*Y303250D01*
Y307750D02*X63456Y308500D01*
X64956D01*
X65706Y307750D01*
Y303250D01*
X64956Y302500D02*X65706Y303250D01*
X63456Y302500D02*X64956D01*
X62706Y304000D02*X65706Y307000D01*
X45000Y299249D02*X67507D01*
X29200Y210000D02*G75*G03X30800Y210000I800J0D01*G01*
G75*G03X29200Y210000I-800J0D01*G01*
X48885D02*G75*G03X50485Y210000I800J0D01*G01*
G75*G03X48885Y210000I-800J0D01*G01*
X14200Y321250D02*G75*G03X15800Y321250I800J0D01*G01*
G75*G03X14200Y321250I-800J0D01*G01*
X135000Y323500D02*Y322750D01*
X136500Y321250D01*
X138000Y322750D01*
Y323500D02*Y322750D01*
X136500Y321250D02*Y317500D01*
X139801Y320500D02*X142051D01*
X139801Y317500D02*X142801D01*
X139801Y323500D02*Y317500D01*
Y323500D02*X142801D01*
X147603D02*X148353Y322750D01*
X145353Y323500D02*X147603D01*
X144603Y322750D02*X145353Y323500D01*
X144603Y322750D02*Y321250D01*
X145353Y320500D01*
X147603D01*
X148353Y319750D01*
Y318250D01*
X147603Y317500D02*X148353Y318250D01*
X145353Y317500D02*X147603D01*
X144603Y318250D02*X145353Y317500D01*
X135000Y314249D02*X150154D01*
X98000Y322750D02*X98750Y323500D01*
X101000D01*
X101750Y322750D01*
Y321250D01*
X98000Y317500D02*X101750Y321250D01*
X98000Y317500D02*X101750D01*
X98000Y314249D02*X103551D01*
X45000Y318250D02*X45750Y317500D01*
X45000Y322750D02*Y318250D01*
Y322750D02*X45750Y323500D01*
X47250D01*
X48000Y322750D01*
Y318250D01*
X47250Y317500D02*X48000Y318250D01*
X45750Y317500D02*X47250D01*
X45000Y319000D02*X48000Y322000D01*
X49801Y317500D02*X50551D01*
X52353Y318250D02*X53103Y317500D01*
X52353Y322750D02*Y318250D01*
Y322750D02*X53103Y323500D01*
X54603D01*
X55353Y322750D01*
Y318250D01*
X54603Y317500D02*X55353Y318250D01*
X53103Y317500D02*X54603D01*
X52353Y319000D02*X55353Y322000D01*
X57154Y322750D02*X57904Y323500D01*
X59404D01*
X60154Y322750D01*
Y318250D01*
X59404Y317500D02*X60154Y318250D01*
X57904Y317500D02*X59404D01*
X57154Y318250D02*X57904Y317500D01*
Y320500D02*X60154D01*
X64206Y323500D02*X64956Y322750D01*
X62706Y323500D02*X64206D01*
X61956Y322750D02*X62706Y323500D01*
X61956Y322750D02*Y318250D01*
X62706Y317500D01*
X64206Y320500D02*X64956Y319750D01*
X61956Y320500D02*X64206D01*
X62706Y317500D02*X64206D01*
X64956Y318250D01*
Y319750D02*Y318250D01*
X45000Y314249D02*X66757D01*
X68800Y181200D02*X71200Y178800D01*
X68800D02*X71200Y181200D01*
X108800D02*X111200Y178800D01*
X108800D02*X111200Y181200D01*
X8800Y191200D02*X11200Y188800D01*
X8800D02*X11200Y191200D01*
X8800Y151200D02*X11200Y148800D01*
X8800D02*X11200Y151200D01*
X13800Y337450D02*X16200Y335050D01*
X13800D02*X16200Y337450D01*
X135000Y338500D02*Y337750D01*
X136500Y336250D01*
X138000Y337750D01*
Y338500D02*Y337750D01*
X136500Y336250D02*Y332500D01*
X139801Y335500D02*X142051D01*
X139801Y332500D02*X142801D01*
X139801Y338500D02*Y332500D01*
Y338500D02*X142801D01*
X147603D02*X148353Y337750D01*
X145353Y338500D02*X147603D01*
X144603Y337750D02*X145353Y338500D01*
X144603Y337750D02*Y336250D01*
X145353Y335500D01*
X147603D01*
X148353Y334750D01*
Y333250D01*
X147603Y332500D02*X148353Y333250D01*
X145353Y332500D02*X147603D01*
X144603Y333250D02*X145353Y332500D01*
X135000Y329249D02*X150154D01*
X98000Y335500D02*X101000Y338500D01*
X98000Y335500D02*X101750D01*
X101000Y338500D02*Y332500D01*
X98000Y329249D02*X103551D01*
X45000Y333250D02*X45750Y332500D01*
X45000Y337750D02*Y333250D01*
Y337750D02*X45750Y338500D01*
X47250D01*
X48000Y337750D01*
Y333250D01*
X47250Y332500D02*X48000Y333250D01*
X45750Y332500D02*X47250D01*
X45000Y334000D02*X48000Y337000D01*
X49801Y332500D02*X50551D01*
X52353Y333250D02*X53103Y332500D01*
X52353Y337750D02*Y333250D01*
Y337750D02*X53103Y338500D01*
X54603D01*
X55353Y337750D01*
Y333250D01*
X54603Y332500D02*X55353Y333250D01*
X53103Y332500D02*X54603D01*
X52353Y334000D02*X55353Y337000D01*
X57154Y337750D02*X57904Y338500D01*
X59404D01*
X60154Y337750D01*
Y333250D01*
X59404Y332500D02*X60154Y333250D01*
X57904Y332500D02*X59404D01*
X57154Y333250D02*X57904Y332500D01*
Y335500D02*X60154D01*
X61956Y337750D02*X62706Y338500D01*
X64956D01*
X65706Y337750D01*
Y336250D01*
X61956Y332500D02*X65706Y336250D01*
X61956Y332500D02*X65706D01*
X45000Y329249D02*X67507D01*
X160000Y161600D02*Y158400D01*
X158400Y160000D02*X161600D01*
X160000Y151600D02*Y148400D01*
X158400Y150000D02*X161600D01*
X160000Y141600D02*Y138400D01*
X158400Y140000D02*X161600D01*
X160000Y131600D02*Y128400D01*
X158400Y130000D02*X161600D01*
X190000Y131600D02*Y128400D01*
X188400Y130000D02*X191600D01*
X190000Y141600D02*Y138400D01*
X188400Y140000D02*X191600D01*
X190000Y151600D02*Y148400D01*
X188400Y150000D02*X191600D01*
X190000Y161600D02*Y158400D01*
X188400Y160000D02*X191600D01*
X15000Y352850D02*Y349650D01*
X13400Y351250D02*X16600D01*
X135000Y353500D02*Y352750D01*
X136500Y351250D01*
X138000Y352750D01*
Y353500D02*Y352750D01*
X136500Y351250D02*Y347500D01*
X139801Y350500D02*X142051D01*
X139801Y347500D02*X142801D01*
X139801Y353500D02*Y347500D01*
Y353500D02*X142801D01*
X147603D02*X148353Y352750D01*
X145353Y353500D02*X147603D01*
X144603Y352750D02*X145353Y353500D01*
X144603Y352750D02*Y351250D01*
X145353Y350500D01*
X147603D01*
X148353Y349750D01*
Y348250D01*
X147603Y347500D02*X148353Y348250D01*
X145353Y347500D02*X147603D01*
X144603Y348250D02*X145353Y347500D01*
X135000Y344249D02*X150154D01*
X98000Y348250D02*X98750Y347500D01*
X98000Y349750D02*Y348250D01*
Y349750D02*X98750Y350500D01*
X100250D01*
X101000Y349750D01*
Y348250D01*
X100250Y347500D02*X101000Y348250D01*
X98750Y347500D02*X100250D01*
X98000Y351250D02*X98750Y350500D01*
X98000Y352750D02*Y351250D01*
Y352750D02*X98750Y353500D01*
X100250D01*
X101000Y352750D01*
Y351250D01*
X100250Y350500D02*X101000Y351250D01*
X98000Y344249D02*X102801D01*
X45000Y348250D02*X45750Y347500D01*
X45000Y352750D02*Y348250D01*
Y352750D02*X45750Y353500D01*
X47250D01*
X48000Y352750D01*
Y348250D01*
X47250Y347500D02*X48000Y348250D01*
X45750Y347500D02*X47250D01*
X45000Y349000D02*X48000Y352000D01*
X49801Y347500D02*X50551D01*
X52353Y348250D02*X53103Y347500D01*
X52353Y352750D02*Y348250D01*
Y352750D02*X53103Y353500D01*
X54603D01*
X55353Y352750D01*
Y348250D01*
X54603Y347500D02*X55353Y348250D01*
X53103Y347500D02*X54603D01*
X52353Y349000D02*X55353Y352000D01*
X57154Y352750D02*X57904Y353500D01*
X60154D01*
X60904Y352750D01*
Y351250D01*
X57154Y347500D02*X60904Y351250D01*
X57154Y347500D02*X60904D01*
X62706Y348250D02*X63456Y347500D01*
X62706Y349750D02*Y348250D01*
Y349750D02*X63456Y350500D01*
X64956D01*
X65706Y349750D01*
Y348250D01*
X64956Y347500D02*X65706Y348250D01*
X63456Y347500D02*X64956D01*
X62706Y351250D02*X63456Y350500D01*
X62706Y352750D02*Y351250D01*
Y352750D02*X63456Y353500D01*
X64956D01*
X65706Y352750D01*
Y351250D01*
X64956Y350500D02*X65706Y351250D01*
X45000Y344249D02*X67507D01*
X60000Y80000D02*Y78400D01*
Y80000D02*X61386Y80800D01*
X60000Y80000D02*X58614Y80800D01*
X60000Y85000D02*Y83400D01*
Y85000D02*X61386Y85800D01*
X60000Y85000D02*X58614Y85800D01*
X60000Y90000D02*Y88400D01*
Y90000D02*X61386Y90800D01*
X60000Y90000D02*X58614Y90800D01*
X15000Y366250D02*Y364650D01*
Y366250D02*X16386Y367050D01*
X15000Y366250D02*X13614Y367050D01*
X135000Y368500D02*Y367750D01*
X136500Y366250D01*
X138000Y367750D01*
Y368500D02*Y367750D01*
X136500Y366250D02*Y362500D01*
X139801Y365500D02*X142051D01*
X139801Y362500D02*X142801D01*
X139801Y368500D02*Y362500D01*
Y368500D02*X142801D01*
X147603D02*X148353Y367750D01*
X145353Y368500D02*X147603D01*
X144603Y367750D02*X145353Y368500D01*
X144603Y367750D02*Y366250D01*
X145353Y365500D01*
X147603D01*
X148353Y364750D01*
Y363250D01*
X147603Y362500D02*X148353Y363250D01*
X145353Y362500D02*X147603D01*
X144603Y363250D02*X145353Y362500D01*
X135000Y359249D02*X150154D01*
X98000Y367750D02*X98750Y368500D01*
X100250D01*
X101000Y367750D01*
Y363250D01*
X100250Y362500D02*X101000Y363250D01*
X98750Y362500D02*X100250D01*
X98000Y363250D02*X98750Y362500D01*
Y365500D02*X101000D01*
X98000Y359249D02*X102801D01*
X45000Y363250D02*X45750Y362500D01*
X45000Y367750D02*Y363250D01*
Y367750D02*X45750Y368500D01*
X47250D01*
X48000Y367750D01*
Y363250D01*
X47250Y362500D02*X48000Y363250D01*
X45750Y362500D02*X47250D01*
X45000Y364000D02*X48000Y367000D01*
X49801Y362500D02*X50551D01*
X52353Y363250D02*X53103Y362500D01*
X52353Y367750D02*Y363250D01*
Y367750D02*X53103Y368500D01*
X54603D01*
X55353Y367750D01*
Y363250D01*
X54603Y362500D02*X55353Y363250D01*
X53103Y362500D02*X54603D01*
X52353Y364000D02*X55353Y367000D01*
X57154Y367750D02*X57904Y368500D01*
X60154D01*
X60904Y367750D01*
Y366250D01*
X57154Y362500D02*X60904Y366250D01*
X57154Y362500D02*X60904D01*
X62706D02*X66456Y366250D01*
Y368500D02*Y366250D01*
X62706Y368500D02*X66456D01*
X45000Y359249D02*X68257D01*
X3000Y383500D02*X3750Y382750D01*
X750Y383500D02*X3000D01*
X0Y382750D02*X750Y383500D01*
X0Y382750D02*Y381250D01*
X750Y380500D01*
X3000D01*
X3750Y379750D01*
Y378250D01*
X3000Y377500D02*X3750Y378250D01*
X750Y377500D02*X3000D01*
X0Y378250D02*X750Y377500D01*
X5551Y380500D02*Y378250D01*
X6301Y377500D01*
X8551Y380500D02*Y376000D01*
X7801Y375250D02*X8551Y376000D01*
X6301Y375250D02*X7801D01*
X5551Y376000D02*X6301Y375250D01*
Y377500D02*X7801D01*
X8551Y378250D01*
X11103Y379750D02*Y377500D01*
Y379750D02*X11853Y380500D01*
X12603D01*
X13353Y379750D01*
Y377500D01*
Y379750D02*X14103Y380500D01*
X14853D01*
X15603Y379750D01*
Y377500D01*
X10353Y380500D02*X11103Y379750D01*
X17404Y383500D02*Y377500D01*
Y378250D02*X18154Y377500D01*
X19654D01*
X20404Y378250D01*
Y379750D02*Y378250D01*
X19654Y380500D02*X20404Y379750D01*
X18154Y380500D02*X19654D01*
X17404Y379750D02*X18154Y380500D01*
X22206Y379750D02*Y378250D01*
Y379750D02*X22956Y380500D01*
X24456D01*
X25206Y379750D01*
Y378250D01*
X24456Y377500D02*X25206Y378250D01*
X22956Y377500D02*X24456D01*
X22206Y378250D02*X22956Y377500D01*
X27007Y383500D02*Y378250D01*
X27757Y377500D01*
X41750Y383500D02*Y377500D01*
X44000Y383500D02*X44750Y382750D01*
Y378250D01*
X44000Y377500D02*X44750Y378250D01*
X41000Y377500D02*X44000D01*
X41000Y383500D02*X44000D01*
X46551Y382000D02*Y381250D01*
Y379750D02*Y377500D01*
X50303Y380500D02*X51053Y379750D01*
X48803Y380500D02*X50303D01*
X48053Y379750D02*X48803Y380500D01*
X48053Y379750D02*Y378250D01*
X48803Y377500D01*
X51053Y380500D02*Y378250D01*
X51803Y377500D01*
X48803D02*X50303D01*
X51053Y378250D01*
X54354Y379750D02*Y377500D01*
Y379750D02*X55104Y380500D01*
X55854D01*
X56604Y379750D01*
Y377500D01*
Y379750D02*X57354Y380500D01*
X58104D01*
X58854Y379750D01*
Y377500D01*
X53604Y380500D02*X54354Y379750D01*
X60656Y377500D02*X61406D01*
X65907Y378250D02*X66657Y377500D01*
X65907Y382750D02*X66657Y383500D01*
X65907Y382750D02*Y378250D01*
X68459Y383500D02*X69959D01*
X69209D02*Y377500D01*
X68459D02*X69959D01*
X72510Y379750D02*Y377500D01*
Y379750D02*X73260Y380500D01*
X74010D01*
X74760Y379750D01*
Y377500D01*
X71760Y380500D02*X72510Y379750D01*
X77312Y380500D02*X79562D01*
X76562Y379750D02*X77312Y380500D01*
X76562Y379750D02*Y378250D01*
X77312Y377500D01*
X79562D01*
X81363Y383500D02*Y377500D01*
Y379750D02*X82113Y380500D01*
X83613D01*
X84363Y379750D01*
Y377500D01*
X86165Y383500D02*X86915Y382750D01*
Y378250D01*
X86165Y377500D02*X86915Y378250D01*
X95750Y377500D02*X98000D01*
X95000Y378250D02*X95750Y377500D01*
X95000Y382750D02*Y378250D01*
Y382750D02*X95750Y383500D01*
X98000D01*
X99801Y379750D02*Y378250D01*
Y379750D02*X100551Y380500D01*
X102051D01*
X102801Y379750D01*
Y378250D01*
X102051Y377500D02*X102801Y378250D01*
X100551Y377500D02*X102051D01*
X99801Y378250D02*X100551Y377500D01*
X104603Y380500D02*Y378250D01*
X105353Y377500D01*
X106853D01*
X107603Y378250D01*
Y380500D02*Y378250D01*
X110154Y379750D02*Y377500D01*
Y379750D02*X110904Y380500D01*
X111654D01*
X112404Y379750D01*
Y377500D01*
X109404Y380500D02*X110154Y379750D01*
X114956Y383500D02*Y378250D01*
X115706Y377500D01*
X114206Y381250D02*X115706D01*
X130750Y383500D02*Y377500D01*
X130000Y383500D02*X133000D01*
X133750Y382750D01*
Y381250D01*
X133000Y380500D02*X133750Y381250D01*
X130750Y380500D02*X133000D01*
X135551Y383500D02*Y378250D01*
X136301Y377500D01*
X140053Y380500D02*X140803Y379750D01*
X138553Y380500D02*X140053D01*
X137803Y379750D02*X138553Y380500D01*
X137803Y379750D02*Y378250D01*
X138553Y377500D01*
X140803Y380500D02*Y378250D01*
X141553Y377500D01*
X138553D02*X140053D01*
X140803Y378250D01*
X144104Y383500D02*Y378250D01*
X144854Y377500D01*
X143354Y381250D02*X144854D01*
X147106Y377500D02*X149356D01*
X146356Y378250D02*X147106Y377500D01*
X146356Y379750D02*Y378250D01*
Y379750D02*X147106Y380500D01*
X148606D01*
X149356Y379750D01*
X146356Y379000D02*X149356D01*
Y379750D02*Y379000D01*
X154157Y383500D02*Y377500D01*
X153407D02*X154157Y378250D01*
X151907Y377500D02*X153407D01*
X151157Y378250D02*X151907Y377500D01*
X151157Y379750D02*Y378250D01*
Y379750D02*X151907Y380500D01*
X153407D01*
X154157Y379750D01*
X157459Y380500D02*Y379750D01*
Y378250D02*Y377500D01*
X155959Y382750D02*Y382000D01*
Y382750D02*X156709Y383500D01*
X158209D01*
X158959Y382750D01*
Y382000D01*
X157459Y380500D02*X158959Y382000D01*
X0Y398500D02*X3000D01*
X1500D02*Y392500D01*
X4801Y398500D02*Y392500D01*
Y394750D02*X5551Y395500D01*
X7051D01*
X7801Y394750D01*
Y392500D01*
X10353D02*X12603D01*
X9603Y393250D02*X10353Y392500D01*
X9603Y394750D02*Y393250D01*
Y394750D02*X10353Y395500D01*
X11853D01*
X12603Y394750D01*
X9603Y394000D02*X12603D01*
Y394750D02*Y394000D01*
X15154Y394750D02*Y392500D01*
Y394750D02*X15904Y395500D01*
X17404D01*
X14404D02*X15154Y394750D01*
X19956Y392500D02*X22206D01*
X19206Y393250D02*X19956Y392500D01*
X19206Y394750D02*Y393250D01*
Y394750D02*X19956Y395500D01*
X21456D01*
X22206Y394750D01*
X19206Y394000D02*X22206D01*
Y394750D02*Y394000D01*
X28957Y395500D02*X29707Y394750D01*
X27457Y395500D02*X28957D01*
X26707Y394750D02*X27457Y395500D01*
X26707Y394750D02*Y393250D01*
X27457Y392500D01*
X29707Y395500D02*Y393250D01*
X30457Y392500D01*
X27457D02*X28957D01*
X29707Y393250D01*
X33009Y394750D02*Y392500D01*
Y394750D02*X33759Y395500D01*
X35259D01*
X32259D02*X33009Y394750D01*
X37810Y392500D02*X40060D01*
X37060Y393250D02*X37810Y392500D01*
X37060Y394750D02*Y393250D01*
Y394750D02*X37810Y395500D01*
X39310D01*
X40060Y394750D01*
X37060Y394000D02*X40060D01*
Y394750D02*Y394000D01*
X44562Y393250D02*X45312Y392500D01*
X44562Y394750D02*Y393250D01*
Y394750D02*X45312Y395500D01*
X46812D01*
X47562Y394750D01*
Y393250D01*
X46812Y392500D02*X47562Y393250D01*
X45312Y392500D02*X46812D01*
X44562Y396250D02*X45312Y395500D01*
X44562Y397750D02*Y396250D01*
Y397750D02*X45312Y398500D01*
X46812D01*
X47562Y397750D01*
Y396250D01*
X46812Y395500D02*X47562Y396250D01*
X55063Y398500D02*Y392500D01*
X54313D02*X55063Y393250D01*
X52813Y392500D02*X54313D01*
X52063Y393250D02*X52813Y392500D01*
X52063Y394750D02*Y393250D01*
Y394750D02*X52813Y395500D01*
X54313D01*
X55063Y394750D01*
X56865Y397000D02*Y396250D01*
Y394750D02*Y392500D01*
X59116Y397750D02*Y392500D01*
Y397750D02*X59866Y398500D01*
X60616D01*
X58366Y395500D02*X59866D01*
X62868Y397750D02*Y392500D01*
Y397750D02*X63618Y398500D01*
X64368D01*
X62118Y395500D02*X63618D01*
X66619Y392500D02*X68869D01*
X65869Y393250D02*X66619Y392500D01*
X65869Y394750D02*Y393250D01*
Y394750D02*X66619Y395500D01*
X68119D01*
X68869Y394750D01*
X65869Y394000D02*X68869D01*
Y394750D02*Y394000D01*
X71421Y394750D02*Y392500D01*
Y394750D02*X72171Y395500D01*
X73671D01*
X70671D02*X71421Y394750D01*
X76222Y392500D02*X78472D01*
X75472Y393250D02*X76222Y392500D01*
X75472Y394750D02*Y393250D01*
Y394750D02*X76222Y395500D01*
X77722D01*
X78472Y394750D01*
X75472Y394000D02*X78472D01*
Y394750D02*Y394000D01*
X81024Y394750D02*Y392500D01*
Y394750D02*X81774Y395500D01*
X82524D01*
X83274Y394750D01*
Y392500D01*
X80274Y395500D02*X81024Y394750D01*
X85825Y398500D02*Y393250D01*
X86575Y392500D01*
X85075Y396250D02*X86575D01*
X93777Y398500D02*Y392500D01*
X93027D02*X93777Y393250D01*
X91527Y392500D02*X93027D01*
X90777Y393250D02*X91527Y392500D01*
X90777Y394750D02*Y393250D01*
Y394750D02*X91527Y395500D01*
X93027D01*
X93777Y394750D01*
X96328D02*Y392500D01*
Y394750D02*X97078Y395500D01*
X98578D01*
X95578D02*X96328Y394750D01*
X100380Y397000D02*Y396250D01*
Y394750D02*Y392500D01*
X101881Y398500D02*Y393250D01*
X102631Y392500D01*
X104133Y398500D02*Y393250D01*
X104883Y392500D01*
X109834D02*X112084D01*
X112834Y393250D01*
X112084Y394000D02*X112834Y393250D01*
X109834Y394000D02*X112084D01*
X109084Y394750D02*X109834Y394000D01*
X109084Y394750D02*X109834Y395500D01*
X112084D01*
X112834Y394750D01*
X109084Y393250D02*X109834Y392500D01*
X114636Y397000D02*Y396250D01*
Y394750D02*Y392500D01*
X116137Y395500D02*X119137D01*
X116137Y392500D02*X119137Y395500D01*
X116137Y392500D02*X119137D01*
X121689D02*X123939D01*
X120939Y393250D02*X121689Y392500D01*
X120939Y394750D02*Y393250D01*
Y394750D02*X121689Y395500D01*
X123189D01*
X123939Y394750D01*
X120939Y394000D02*X123939D01*
Y394750D02*Y394000D01*
X126490Y392500D02*X128740D01*
X129490Y393250D01*
X128740Y394000D02*X129490Y393250D01*
X126490Y394000D02*X128740D01*
X125740Y394750D02*X126490Y394000D01*
X125740Y394750D02*X126490Y395500D01*
X128740D01*
X129490Y394750D01*
X125740Y393250D02*X126490Y392500D01*
X133992Y395500D02*Y393250D01*
X134742Y392500D01*
X136242D01*
X136992Y393250D01*
Y395500D02*Y393250D01*
X139543Y392500D02*X141793D01*
X142543Y393250D01*
X141793Y394000D02*X142543Y393250D01*
X139543Y394000D02*X141793D01*
X138793Y394750D02*X139543Y394000D01*
X138793Y394750D02*X139543Y395500D01*
X141793D01*
X142543Y394750D01*
X138793Y393250D02*X139543Y392500D01*
X145095D02*X147345D01*
X144345Y393250D02*X145095Y392500D01*
X144345Y394750D02*Y393250D01*
Y394750D02*X145095Y395500D01*
X146595D01*
X147345Y394750D01*
X144345Y394000D02*X147345D01*
Y394750D02*Y394000D01*
X152146Y398500D02*Y392500D01*
X151396D02*X152146Y393250D01*
X149896Y392500D02*X151396D01*
X149146Y393250D02*X149896Y392500D01*
X149146Y394750D02*Y393250D01*
Y394750D02*X149896Y395500D01*
X151396D01*
X152146Y394750D01*
X156648Y397000D02*Y396250D01*
Y394750D02*Y392500D01*
X158899Y394750D02*Y392500D01*
Y394750D02*X159649Y395500D01*
X160399D01*
X161149Y394750D01*
Y392500D01*
X158149Y395500D02*X158899Y394750D01*
X166401Y398500D02*Y393250D01*
X167151Y392500D01*
X165651Y396250D02*X167151D01*
X168652Y398500D02*Y392500D01*
Y394750D02*X169402Y395500D01*
X170902D01*
X171652Y394750D01*
Y392500D01*
X173454Y397000D02*Y396250D01*
Y394750D02*Y392500D01*
X175705D02*X177955D01*
X178705Y393250D01*
X177955Y394000D02*X178705Y393250D01*
X175705Y394000D02*X177955D01*
X174955Y394750D02*X175705Y394000D01*
X174955Y394750D02*X175705Y395500D01*
X177955D01*
X178705Y394750D01*
X174955Y393250D02*X175705Y392500D01*
X183207Y398500D02*Y393250D01*
X183957Y392500D01*
X187708Y395500D02*X188458Y394750D01*
X186208Y395500D02*X187708D01*
X185458Y394750D02*X186208Y395500D01*
X185458Y394750D02*Y393250D01*
X186208Y392500D01*
X188458Y395500D02*Y393250D01*
X189208Y392500D01*
X186208D02*X187708D01*
X188458Y393250D01*
X191010Y395500D02*Y393250D01*
X191760Y392500D01*
X194010Y395500D02*Y391000D01*
X193260Y390250D02*X194010Y391000D01*
X191760Y390250D02*X193260D01*
X191010Y391000D02*X191760Y390250D01*
Y392500D02*X193260D01*
X194010Y393250D01*
X195811Y394750D02*Y393250D01*
Y394750D02*X196561Y395500D01*
X198061D01*
X198811Y394750D01*
Y393250D01*
X198061Y392500D02*X198811Y393250D01*
X196561Y392500D02*X198061D01*
X195811Y393250D02*X196561Y392500D01*
X200613Y395500D02*Y393250D01*
X201363Y392500D01*
X202863D01*
X203613Y393250D01*
Y395500D02*Y393250D01*
X206164Y398500D02*Y393250D01*
X206914Y392500D01*
X205414Y396250D02*X206914D01*
X208416Y391000D02*X209916Y392500D01*
X214417Y395500D02*X217417Y398500D01*
X214417Y395500D02*X218167D01*
X217417Y398500D02*Y392500D01*
X219969D02*X223719Y396250D01*
Y398500D02*Y396250D01*
X219969Y398500D02*X223719D01*
X228220D02*Y392500D01*
Y394750D02*X228970Y395500D01*
X230470D01*
X231220Y394750D01*
Y392500D01*
X233022Y394750D02*Y393250D01*
Y394750D02*X233772Y395500D01*
X235272D01*
X236022Y394750D01*
Y393250D01*
X235272Y392500D02*X236022Y393250D01*
X233772Y392500D02*X235272D01*
X233022Y393250D02*X233772Y392500D01*
X237823Y398500D02*Y393250D01*
X238573Y392500D01*
X240825D02*X243075D01*
X240075Y393250D02*X240825Y392500D01*
X240075Y394750D02*Y393250D01*
Y394750D02*X240825Y395500D01*
X242325D01*
X243075Y394750D01*
X240075Y394000D02*X243075D01*
Y394750D02*Y394000D01*
X245626Y392500D02*X247876D01*
X248626Y393250D01*
X247876Y394000D02*X248626Y393250D01*
X245626Y394000D02*X247876D01*
X244876Y394750D02*X245626Y394000D01*
X244876Y394750D02*X245626Y395500D01*
X247876D01*
X248626Y394750D01*
X244876Y393250D02*X245626Y392500D01*
X253878Y398500D02*Y393250D01*
X254628Y392500D01*
X253128Y396250D02*X254628D01*
X256129Y394750D02*Y393250D01*
Y394750D02*X256879Y395500D01*
X258379D01*
X259129Y394750D01*
Y393250D01*
X258379Y392500D02*X259129Y393250D01*
X256879Y392500D02*X258379D01*
X256129Y393250D02*X256879Y392500D01*
X261681Y398500D02*Y393250D01*
X262431Y392500D01*
X260931Y396250D02*X262431D01*
X266182Y395500D02*X266932Y394750D01*
X264682Y395500D02*X266182D01*
X263932Y394750D02*X264682Y395500D01*
X263932Y394750D02*Y393250D01*
X264682Y392500D01*
X266932Y395500D02*Y393250D01*
X267682Y392500D01*
X264682D02*X266182D01*
X266932Y393250D01*
X269484Y398500D02*Y393250D01*
X270234Y392500D01*
G54D26*X200000Y55000D02*X0D01*
X200000Y240000D02*Y55000D01*
X0Y240000D02*X200000D01*
X0Y55000D02*Y240000D01*
G54D34*X63648Y-9500D02*X66648D01*
X67398Y-8750D01*
Y-7250D02*Y-8750D01*
X66648Y-6500D02*X67398Y-7250D01*
X64398Y-6500D02*X66648D01*
X64398Y-3500D02*Y-9500D01*
X63648Y-3500D02*X66648D01*
X67398Y-4250D01*
Y-5750D01*
X66648Y-6500D02*X67398Y-5750D01*
X69199Y-7250D02*Y-8750D01*
Y-7250D02*X69949Y-6500D01*
X71449D01*
X72199Y-7250D01*
Y-8750D01*
X71449Y-9500D02*X72199Y-8750D01*
X69949Y-9500D02*X71449D01*
X69199Y-8750D02*X69949Y-9500D01*
X76251Y-6500D02*X77001Y-7250D01*
X74751Y-6500D02*X76251D01*
X74001Y-7250D02*X74751Y-6500D01*
X74001Y-7250D02*Y-8750D01*
X74751Y-9500D01*
X77001Y-6500D02*Y-8750D01*
X77751Y-9500D01*
X74751D02*X76251D01*
X77001Y-8750D01*
X80302Y-7250D02*Y-9500D01*
Y-7250D02*X81052Y-6500D01*
X82552D01*
X79552D02*X80302Y-7250D01*
X87354Y-3500D02*Y-9500D01*
X86604D02*X87354Y-8750D01*
X85104Y-9500D02*X86604D01*
X84354Y-8750D02*X85104Y-9500D01*
X84354Y-7250D02*Y-8750D01*
Y-7250D02*X85104Y-6500D01*
X86604D01*
X87354Y-7250D01*
X91855D02*Y-8750D01*
Y-7250D02*X92605Y-6500D01*
X94105D01*
X94855Y-7250D01*
Y-8750D01*
X94105Y-9500D02*X94855Y-8750D01*
X92605Y-9500D02*X94105D01*
X91855Y-8750D02*X92605Y-9500D01*
X96657Y-6500D02*Y-8750D01*
X97407Y-9500D01*
X98907D01*
X99657Y-8750D01*
Y-6500D02*Y-8750D01*
X102208Y-3500D02*Y-8750D01*
X102958Y-9500D01*
X101458Y-5750D02*X102958D01*
X104460Y-3500D02*Y-8750D01*
X105210Y-9500D01*
X106711Y-5000D02*Y-5750D01*
Y-7250D02*Y-9500D01*
X108963Y-7250D02*Y-9500D01*
Y-7250D02*X109713Y-6500D01*
X110463D01*
X111213Y-7250D01*
Y-9500D01*
X108213Y-6500D02*X108963Y-7250D01*
X113764Y-9500D02*X116014D01*
X113014Y-8750D02*X113764Y-9500D01*
X113014Y-7250D02*Y-8750D01*
Y-7250D02*X113764Y-6500D01*
X115264D01*
X116014Y-7250D01*
X113014Y-8000D02*X116014D01*
Y-7250D02*Y-8000D01*
X120516Y-5000D02*Y-5750D01*
Y-7250D02*Y-9500D01*
X122767D02*X125017D01*
X125767Y-8750D01*
X125017Y-8000D02*X125767Y-8750D01*
X122767Y-8000D02*X125017D01*
X122017Y-7250D02*X122767Y-8000D01*
X122017Y-7250D02*X122767Y-6500D01*
X125017D01*
X125767Y-7250D01*
X122017Y-8750D02*X122767Y-9500D01*
X131019Y-3500D02*Y-8750D01*
X131769Y-9500D01*
X130269Y-5750D02*X131769D01*
X133270Y-3500D02*Y-9500D01*
Y-7250D02*X134020Y-6500D01*
X135520D01*
X136270Y-7250D01*
Y-9500D01*
X138822D02*X141072D01*
X138072Y-8750D02*X138822Y-9500D01*
X138072Y-7250D02*Y-8750D01*
Y-7250D02*X138822Y-6500D01*
X140322D01*
X141072Y-7250D01*
X138072Y-8000D02*X141072D01*
Y-7250D02*Y-8000D01*
X146323Y-6500D02*X148573D01*
X145573Y-7250D02*X146323Y-6500D01*
X145573Y-7250D02*Y-8750D01*
X146323Y-9500D01*
X148573D01*
X151125D02*X153375D01*
X150375Y-8750D02*X151125Y-9500D01*
X150375Y-7250D02*Y-8750D01*
Y-7250D02*X151125Y-6500D01*
X152625D01*
X153375Y-7250D01*
X150375Y-8000D02*X153375D01*
Y-7250D02*Y-8000D01*
X155926Y-7250D02*Y-9500D01*
Y-7250D02*X156676Y-6500D01*
X157426D01*
X158176Y-7250D01*
Y-9500D01*
X155176Y-6500D02*X155926Y-7250D01*
X160728Y-3500D02*Y-8750D01*
X161478Y-9500D01*
X159978Y-5750D02*X161478D01*
X163729Y-9500D02*X165979D01*
X162979Y-8750D02*X163729Y-9500D01*
X162979Y-7250D02*Y-8750D01*
Y-7250D02*X163729Y-6500D01*
X165229D01*
X165979Y-7250D01*
X162979Y-8000D02*X165979D01*
Y-7250D02*Y-8000D01*
X168531Y-7250D02*Y-9500D01*
Y-7250D02*X169281Y-6500D01*
X170781D01*
X167781D02*X168531Y-7250D01*
X172582Y-3500D02*Y-8750D01*
X173332Y-9500D01*
X174834Y-5000D02*Y-5750D01*
Y-7250D02*Y-9500D01*
X177085Y-7250D02*Y-9500D01*
Y-7250D02*X177835Y-6500D01*
X178585D01*
X179335Y-7250D01*
Y-9500D01*
X176335Y-6500D02*X177085Y-7250D01*
X181887Y-9500D02*X184137D01*
X181137Y-8750D02*X181887Y-9500D01*
X181137Y-7250D02*Y-8750D01*
Y-7250D02*X181887Y-6500D01*
X183387D01*
X184137Y-7250D01*
X181137Y-8000D02*X184137D01*
Y-7250D02*Y-8000D01*
X188638Y-7250D02*Y-8750D01*
Y-7250D02*X189388Y-6500D01*
X190888D01*
X191638Y-7250D01*
Y-8750D01*
X190888Y-9500D02*X191638Y-8750D01*
X189388Y-9500D02*X190888D01*
X188638Y-8750D02*X189388Y-9500D01*
X194190Y-4250D02*Y-9500D01*
Y-4250D02*X194940Y-3500D01*
X195690D01*
X193440Y-6500D02*X194940D01*
X200641Y-3500D02*Y-8750D01*
X201391Y-9500D01*
X199891Y-5750D02*X201391D01*
X202893Y-3500D02*Y-9500D01*
Y-7250D02*X203643Y-6500D01*
X205143D01*
X205893Y-7250D01*
Y-9500D01*
X207694Y-5000D02*Y-5750D01*
Y-7250D02*Y-9500D01*
X209946D02*X212196D01*
X212946Y-8750D01*
X212196Y-8000D02*X212946Y-8750D01*
X209946Y-8000D02*X212196D01*
X209196Y-7250D02*X209946Y-8000D01*
X209196Y-7250D02*X209946Y-6500D01*
X212196D01*
X212946Y-7250D01*
X209196Y-8750D02*X209946Y-9500D01*
X218197Y-7250D02*Y-11750D01*
X217447Y-6500D02*X218197Y-7250D01*
X218947Y-6500D01*
X220447D01*
X221197Y-7250D01*
Y-8750D01*
X220447Y-9500D02*X221197Y-8750D01*
X218947Y-9500D02*X220447D01*
X218197Y-8750D02*X218947Y-9500D01*
X225249Y-6500D02*X225999Y-7250D01*
X223749Y-6500D02*X225249D01*
X222999Y-7250D02*X223749Y-6500D01*
X222999Y-7250D02*Y-8750D01*
X223749Y-9500D01*
X225999Y-6500D02*Y-8750D01*
X226749Y-9500D01*
X223749D02*X225249D01*
X225999Y-8750D01*
X229300Y-3500D02*Y-8750D01*
X230050Y-9500D01*
X228550Y-5750D02*X230050D01*
X231552Y-3500D02*Y-9500D01*
Y-7250D02*X232302Y-6500D01*
X233802D01*
X234552Y-7250D01*
Y-9500D01*
X200750Y278500D02*Y272500D01*
X203000Y278500D02*X203750Y277750D01*
Y273250D01*
X203000Y272500D02*X203750Y273250D01*
X200000Y272500D02*X203000D01*
X200000Y278500D02*X203000D01*
X207801Y275500D02*X208551Y274750D01*
X206301Y275500D02*X207801D01*
X205551Y274750D02*X206301Y275500D01*
X205551Y274750D02*Y273250D01*
X206301Y272500D01*
X208551Y275500D02*Y273250D01*
X209301Y272500D01*
X206301D02*X207801D01*
X208551Y273250D01*
X211853Y278500D02*Y273250D01*
X212603Y272500D01*
X211103Y276250D02*X212603D01*
X214854Y272500D02*X217104D01*
X214104Y273250D02*X214854Y272500D01*
X214104Y274750D02*Y273250D01*
Y274750D02*X214854Y275500D01*
X216354D01*
X217104Y274750D01*
X214104Y274000D02*X217104D01*
Y274750D02*Y274000D01*
X218906Y276250D02*X219656D01*
X218906Y274750D02*X219656D01*
X224157Y278500D02*Y272500D01*
X226407Y274750D01*
X228657Y272500D01*
Y278500D02*Y272500D01*
X231209D02*X233459D01*
X230459Y273250D02*X231209Y272500D01*
X230459Y274750D02*Y273250D01*
Y274750D02*X231209Y275500D01*
X232709D01*
X233459Y274750D01*
X230459Y274000D02*X233459D01*
Y274750D02*Y274000D01*
X238260Y278500D02*Y272500D01*
X237510D02*X238260Y273250D01*
X236010Y272500D02*X237510D01*
X235260Y273250D02*X236010Y272500D01*
X235260Y274750D02*Y273250D01*
Y274750D02*X236010Y275500D01*
X237510D01*
X238260Y274750D01*
X242762Y278500D02*Y272500D01*
Y278500D02*X245762D01*
X242762Y275500D02*X245012D01*
X248313Y272500D02*X250563D01*
X247563Y273250D02*X248313Y272500D01*
X247563Y274750D02*Y273250D01*
Y274750D02*X248313Y275500D01*
X249813D01*
X250563Y274750D01*
X247563Y274000D02*X250563D01*
Y274750D02*Y274000D01*
X252365Y278500D02*Y272500D01*
Y273250D02*X253115Y272500D01*
X254615D01*
X255365Y273250D01*
Y274750D02*Y273250D01*
X254615Y275500D02*X255365Y274750D01*
X253115Y275500D02*X254615D01*
X252365Y274750D02*X253115Y275500D01*
X262566Y277750D02*X263316Y278500D01*
X264816D01*
X265566Y277750D01*
Y273250D01*
X264816Y272500D02*X265566Y273250D01*
X263316Y272500D02*X264816D01*
X262566Y273250D02*X263316Y272500D01*
Y275500D02*X265566D01*
X270068Y277750D02*X270818Y278500D01*
X273068D01*
X273818Y277750D01*
Y276250D01*
X270068Y272500D02*X273818Y276250D01*
X270068Y272500D02*X273818D01*
X275619Y277750D02*X276369Y278500D01*
X277869D01*
X278619Y277750D01*
Y273250D01*
X277869Y272500D02*X278619Y273250D01*
X276369Y272500D02*X277869D01*
X275619Y273250D02*X276369Y272500D01*
Y275500D02*X278619D01*
X280421Y276250D02*X281171D01*
X280421Y274750D02*X281171D01*
X282972Y277750D02*X283722Y278500D01*
X285222D01*
X285972Y277750D01*
Y273250D01*
X285222Y272500D02*X285972Y273250D01*
X283722Y272500D02*X285222D01*
X282972Y273250D02*X283722Y272500D01*
Y275500D02*X285972D01*
X287774Y277750D02*X288524Y278500D01*
X290774D01*
X291524Y277750D01*
Y276250D01*
X287774Y272500D02*X291524Y276250D01*
X287774Y272500D02*X291524D01*
X293325Y276250D02*X294075D01*
X293325Y274750D02*X294075D01*
X296627Y272500D02*X298127D01*
X297377Y278500D02*Y272500D01*
X295877Y277000D02*X297377Y278500D01*
X299928Y277750D02*X300678Y278500D01*
X302928D01*
X303678Y277750D01*
Y276250D01*
X299928Y272500D02*X303678Y276250D01*
X299928Y272500D02*X303678D01*
X308180Y277750D02*X308930Y278500D01*
X311180D01*
X311930Y277750D01*
Y276250D01*
X308180Y272500D02*X311930Y276250D01*
X308180Y272500D02*X311930D01*
X313731Y273250D02*X314481Y272500D01*
X313731Y277750D02*Y273250D01*
Y277750D02*X314481Y278500D01*
X315981D01*
X316731Y277750D01*
Y273250D01*
X315981Y272500D02*X316731Y273250D01*
X314481Y272500D02*X315981D01*
X313731Y274000D02*X316731Y277000D01*
X319283Y272500D02*X320783D01*
X320033Y278500D02*Y272500D01*
X318533Y277000D02*X320033Y278500D01*
X324834D02*X325584Y277750D01*
X323334Y278500D02*X324834D01*
X322584Y277750D02*X323334Y278500D01*
X322584Y277750D02*Y273250D01*
X323334Y272500D01*
X324834Y275500D02*X325584Y274750D01*
X322584Y275500D02*X324834D01*
X323334Y272500D02*X324834D01*
X325584Y273250D01*
Y274750D02*Y273250D01*
X330086Y278500D02*Y273250D01*
X330836Y272500D01*
X332336D01*
X333086Y273250D01*
Y278500D02*Y273250D01*
X334887Y278500D02*X337887D01*
X336387D02*Y272500D01*
X340439D02*X342689D01*
X339689Y273250D02*X340439Y272500D01*
X339689Y277750D02*Y273250D01*
Y277750D02*X340439Y278500D01*
X342689D01*
X200000Y292750D02*Y287500D01*
Y292750D02*X200750Y293500D01*
X203000D01*
X203750Y292750D01*
Y287500D01*
X200000Y290500D02*X203750D01*
X205551D02*Y288250D01*
X206301Y287500D01*
X207801D01*
X208551Y288250D01*
Y290500D02*Y288250D01*
X211103Y293500D02*Y288250D01*
X211853Y287500D01*
X210353Y291250D02*X211853D01*
X213354Y293500D02*Y287500D01*
Y289750D02*X214104Y290500D01*
X215604D01*
X216354Y289750D01*
Y287500D01*
X218156Y289750D02*Y288250D01*
Y289750D02*X218906Y290500D01*
X220406D01*
X221156Y289750D01*
Y288250D01*
X220406Y287500D02*X221156Y288250D01*
X218906Y287500D02*X220406D01*
X218156Y288250D02*X218906Y287500D01*
X223707Y289750D02*Y287500D01*
Y289750D02*X224457Y290500D01*
X225957D01*
X222957D02*X223707Y289750D01*
X227759Y291250D02*X228509D01*
X227759Y289750D02*X228509D01*
X233010Y287500D02*X236010D01*
X236760Y288250D01*
Y289750D02*Y288250D01*
X236010Y290500D02*X236760Y289750D01*
X233760Y290500D02*X236010D01*
X233760Y293500D02*Y287500D01*
X233010Y293500D02*X236010D01*
X236760Y292750D01*
Y291250D01*
X236010Y290500D02*X236760Y291250D01*
X239312Y287500D02*X241562D01*
X238562Y288250D02*X239312Y287500D01*
X238562Y289750D02*Y288250D01*
Y289750D02*X239312Y290500D01*
X240812D01*
X241562Y289750D01*
X238562Y289000D02*X241562D01*
Y289750D02*Y289000D01*
X244113Y289750D02*Y287500D01*
Y289750D02*X244863Y290500D01*
X246363D01*
X243363D02*X244113Y289750D01*
X248915Y293500D02*Y288250D01*
X249665Y287500D01*
X248165Y291250D02*X249665D01*
X253866Y293500D02*X256866D01*
X255366D02*Y287500D01*
X258668Y292000D02*Y291250D01*
Y289750D02*Y287500D01*
X260919Y289750D02*Y287500D01*
Y289750D02*X261669Y290500D01*
X262419D01*
X263169Y289750D01*
Y287500D01*
Y289750D02*X263919Y290500D01*
X264669D01*
X265419Y289750D01*
Y287500D01*
X260169Y290500D02*X260919Y289750D01*
X267971D02*Y287500D01*
Y289750D02*X268721Y290500D01*
X269471D01*
X270221Y289750D01*
Y287500D01*
Y289750D02*X270971Y290500D01*
X271721D01*
X272471Y289750D01*
Y287500D01*
X267221Y290500D02*X267971Y289750D01*
X275022Y287500D02*X277272D01*
X274272Y288250D02*X275022Y287500D01*
X274272Y289750D02*Y288250D01*
Y289750D02*X275022Y290500D01*
X276522D01*
X277272Y289750D01*
X274272Y289000D02*X277272D01*
Y289750D02*Y289000D01*
X279824Y289750D02*Y287500D01*
Y289750D02*X280574Y290500D01*
X282074D01*
X279074D02*X279824Y289750D01*
X284625D02*Y287500D01*
Y289750D02*X285375Y290500D01*
X286125D01*
X286875Y289750D01*
Y287500D01*
Y289750D02*X287625Y290500D01*
X288375D01*
X289125Y289750D01*
Y287500D01*
X283875Y290500D02*X284625Y289750D01*
X293177Y290500D02*X293927Y289750D01*
X291677Y290500D02*X293177D01*
X290927Y289750D02*X291677Y290500D01*
X290927Y289750D02*Y288250D01*
X291677Y287500D01*
X293927Y290500D02*Y288250D01*
X294677Y287500D01*
X291677D02*X293177D01*
X293927Y288250D01*
X297228Y289750D02*Y287500D01*
Y289750D02*X297978Y290500D01*
X298728D01*
X299478Y289750D01*
Y287500D01*
X296478Y290500D02*X297228Y289750D01*
X200000Y308500D02*X203000D01*
X201500D02*Y302500D01*
X204801Y307000D02*Y306250D01*
Y304750D02*Y302500D01*
X207053Y308500D02*Y303250D01*
X207803Y302500D01*
X206303Y306250D02*X207803D01*
X209304Y308500D02*Y303250D01*
X210054Y302500D01*
X212306D02*X214556D01*
X211556Y303250D02*X212306Y302500D01*
X211556Y304750D02*Y303250D01*
Y304750D02*X212306Y305500D01*
X213806D01*
X214556Y304750D01*
X211556Y304000D02*X214556D01*
Y304750D02*Y304000D01*
X216357Y306250D02*X217107D01*
X216357Y304750D02*X217107D01*
X221609Y303250D02*X222359Y302500D01*
X221609Y307750D02*X222359Y308500D01*
X221609Y307750D02*Y303250D01*
X224160Y305500D02*Y303250D01*
X224910Y302500D01*
X226410D01*
X227160Y303250D01*
Y305500D02*Y303250D01*
X229712Y304750D02*Y302500D01*
Y304750D02*X230462Y305500D01*
X231212D01*
X231962Y304750D01*
Y302500D01*
X228962Y305500D02*X229712Y304750D01*
X233763Y308500D02*Y302500D01*
Y304750D02*X236013Y302500D01*
X233763Y304750D02*X235263Y306250D01*
X238565Y304750D02*Y302500D01*
Y304750D02*X239315Y305500D01*
X240065D01*
X240815Y304750D01*
Y302500D01*
X237815Y305500D02*X238565Y304750D01*
X242616D02*Y303250D01*
Y304750D02*X243366Y305500D01*
X244866D01*
X245616Y304750D01*
Y303250D01*
X244866Y302500D02*X245616Y303250D01*
X243366Y302500D02*X244866D01*
X242616Y303250D02*X243366Y302500D01*
X247418Y305500D02*Y303250D01*
X248168Y302500D01*
X248918D01*
X249668Y303250D01*
Y305500D02*Y303250D01*
X250418Y302500D01*
X251168D01*
X251918Y303250D01*
Y305500D02*Y303250D01*
X254469Y304750D02*Y302500D01*
Y304750D02*X255219Y305500D01*
X255969D01*
X256719Y304750D01*
Y302500D01*
X253719Y305500D02*X254469Y304750D01*
X258521Y308500D02*X259271Y307750D01*
Y303250D01*
X258521Y302500D02*X259271Y303250D01*
X263772Y305500D02*X266772D01*
X271274Y308500D02*Y302500D01*
Y308500D02*X274274D01*
X271274Y305500D02*X273524D01*
X278325D02*X279075Y304750D01*
X276825Y305500D02*X278325D01*
X276075Y304750D02*X276825Y305500D01*
X276075Y304750D02*Y303250D01*
X276825Y302500D01*
X279075Y305500D02*Y303250D01*
X279825Y302500D01*
X276825D02*X278325D01*
X279075Y303250D01*
X281627Y308500D02*Y302500D01*
Y303250D02*X282377Y302500D01*
X283877D01*
X284627Y303250D01*
Y304750D02*Y303250D01*
X283877Y305500D02*X284627Y304750D01*
X282377Y305500D02*X283877D01*
X281627Y304750D02*X282377Y305500D01*
X287178Y304750D02*Y302500D01*
Y304750D02*X287928Y305500D01*
X289428D01*
X286428D02*X287178Y304750D01*
X291230Y307000D02*Y306250D01*
Y304750D02*Y302500D01*
X293481Y305500D02*X295731D01*
X292731Y304750D02*X293481Y305500D01*
X292731Y304750D02*Y303250D01*
X293481Y302500D01*
X295731D01*
X299783Y305500D02*X300533Y304750D01*
X298283Y305500D02*X299783D01*
X297533Y304750D02*X298283Y305500D01*
X297533Y304750D02*Y303250D01*
X298283Y302500D01*
X300533Y305500D02*Y303250D01*
X301283Y302500D01*
X298283D02*X299783D01*
X300533Y303250D01*
X303834Y308500D02*Y303250D01*
X304584Y302500D01*
X303084Y306250D02*X304584D01*
X306086Y307000D02*Y306250D01*
Y304750D02*Y302500D01*
X307587Y304750D02*Y303250D01*
Y304750D02*X308337Y305500D01*
X309837D01*
X310587Y304750D01*
Y303250D01*
X309837Y302500D02*X310587Y303250D01*
X308337Y302500D02*X309837D01*
X307587Y303250D02*X308337Y302500D01*
X313139Y304750D02*Y302500D01*
Y304750D02*X313889Y305500D01*
X314639D01*
X315389Y304750D01*
Y302500D01*
X312389Y305500D02*X313139Y304750D01*
X320640Y308500D02*Y302500D01*
X322890Y308500D02*X323640Y307750D01*
Y303250D01*
X322890Y302500D02*X323640Y303250D01*
X319890Y302500D02*X322890D01*
X319890Y308500D02*X322890D01*
X326192Y304750D02*Y302500D01*
Y304750D02*X326942Y305500D01*
X328442D01*
X325442D02*X326192Y304750D01*
X332493Y305500D02*X333243Y304750D01*
X330993Y305500D02*X332493D01*
X330243Y304750D02*X330993Y305500D01*
X330243Y304750D02*Y303250D01*
X330993Y302500D01*
X333243Y305500D02*Y303250D01*
X333993Y302500D01*
X330993D02*X332493D01*
X333243Y303250D01*
X335795Y305500D02*Y303250D01*
X336545Y302500D01*
X337295D01*
X338045Y303250D01*
Y305500D02*Y303250D01*
X338795Y302500D01*
X339545D01*
X340295Y303250D01*
Y305500D02*Y303250D01*
X342096Y307000D02*Y306250D01*
Y304750D02*Y302500D01*
X344348Y304750D02*Y302500D01*
Y304750D02*X345098Y305500D01*
X345848D01*
X346598Y304750D01*
Y302500D01*
X343598Y305500D02*X344348Y304750D01*
X350649Y305500D02*X351399Y304750D01*
X349149Y305500D02*X350649D01*
X348399Y304750D02*X349149Y305500D01*
X348399Y304750D02*Y303250D01*
X349149Y302500D01*
X350649D01*
X351399Y303250D01*
X348399Y301000D02*X349149Y300250D01*
X350649D01*
X351399Y301000D01*
Y305500D02*Y301000D01*
M02*
