G04 start of page 7 for group -4062 idx -4062 *
G04 Title: (unknown), soldermask *
G04 Creator: pcb 20100929 *
G04 CreationDate: Wed Feb  3 23:32:12 2016 UTC *
G04 For: bert *
G04 Format: Gerber/RS-274X *
G04 PCB-Dimensions: 300000 250000 *
G04 PCB-Coordinate-Origin: lower left *
%MOIN*%
%FSLAX25Y25*%
%LNBACKMASK*%
%ADD14C,0.0200*%
%ADD15C,0.0720*%
%ADD16C,0.0600*%
%ADD27C,0.0480*%
%ADD28C,0.1060*%
%ADD29C,0.0780*%
%ADD30C,0.0660*%
%ADD31C,0.0960*%
G54D27*X60000Y80000D03*
Y85000D03*
Y90000D03*
G54D28*X20000Y80000D03*
Y100000D03*
G54D14*G36*
X26258Y135790D02*Y127990D01*
X34058D01*
Y135790D01*
X26258D01*
G37*
G36*
X66700Y118300D02*Y111700D01*
X73300D01*
Y118300D01*
X66700D01*
G37*
G54D29*X49843Y131890D03*
G54D14*G36*
X26400Y213600D02*Y206400D01*
X33600D01*
Y213600D01*
X26400D01*
G37*
G54D15*X49685Y210000D03*
G54D29*X40000Y171260D03*
G54D30*X70000Y180000D03*
X10000Y190000D03*
Y150000D03*
G54D14*G36*
X85200Y224800D02*Y215200D01*
X94800D01*
Y224800D01*
X85200D01*
G37*
G54D31*X100000Y220000D03*
X110000D03*
G54D14*G36*
X131700Y223300D02*Y216700D01*
X138300D01*
Y223300D01*
X131700D01*
G37*
G54D30*X185000Y220000D03*
G54D14*G36*
X131700Y183300D02*Y176700D01*
X138300D01*
Y183300D01*
X131700D01*
G37*
G54D30*X185000Y180000D03*
G54D14*G36*
X131700Y203300D02*Y196700D01*
X138300D01*
Y203300D01*
X131700D01*
G37*
G54D30*X185000Y200000D03*
X190000Y130000D03*
Y140000D03*
Y150000D03*
Y160000D03*
X110000Y180000D03*
G54D28*X160000Y100000D03*
G54D30*Y130000D03*
G54D14*G36*
X126700Y118300D02*Y111700D01*
X133300D01*
Y118300D01*
X126700D01*
G37*
G54D28*X160000Y80000D03*
G54D14*G36*
X156700Y163300D02*Y156700D01*
X163300D01*
Y163300D01*
X156700D01*
G37*
G54D30*X160000Y150000D03*
Y140000D03*
X130000Y165000D03*
X110000D03*
X90000D03*
X70000D03*
G54D14*G36*
X112000Y93000D02*Y87000D01*
X118000D01*
Y93000D01*
X112000D01*
G37*
G54D16*X95000Y90000D03*
X115000Y75000D03*
X95000D03*
G54D14*G36*
X106700Y118300D02*Y111700D01*
X113300D01*
Y118300D01*
X106700D01*
G37*
G36*
X86700D02*Y111700D01*
X93300D01*
Y118300D01*
X86700D01*
G37*
G54D16*X115000Y105000D03*
X95000D03*
M02*
